<svg width="24" height="16" viewBox="0 0 24 16" fill="none" xmlns="http://www.w3.org/2000/svg">
<path d="M21.8606 0.287036L8.61857 13.7644C8.52954 13.8554 8.42374 13.9276 8.30723 13.9769C8.19073 14.0261 8.06581 14.0515 7.93965 14.0515C7.8135 14.0515 7.68858 14.0261 7.57207 13.9769C7.45557 13.9276 7.34976 13.8554 7.26073 13.7644L2.13984 8.54729C2.05081 8.45631 1.94501 8.38412 1.8285 8.33487C1.712 8.28561 1.58708 8.26025 1.46092 8.26025C1.33477 8.26025 1.20985 8.28561 1.09334 8.33487C0.976837 8.38412 0.871033 8.45631 0.782003 8.54729C0.69262 8.63791 0.621698 8.7456 0.573305 8.86419C0.524911 8.98277 0.5 9.10992 0.5 9.23833C0.5 9.36673 0.524911 9.49388 0.573305 9.61247C0.621698 9.73105 0.69262 9.83875 0.782003 9.92936L5.90481 15.1426C6.44521 15.6916 7.17756 16 7.94109 16C8.70463 16 9.43697 15.6916 9.97737 15.1426L23.2185 1.66813C23.3077 1.57753 23.3785 1.4699 23.4268 1.35141C23.4751 1.23291 23.5 1.10588 23.5 0.977585C23.5 0.849292 23.4751 0.72226 23.4268 0.603764C23.3785 0.485268 23.3077 0.377638 23.2185 0.287036C23.1294 0.196058 23.0236 0.12387 22.9071 0.074613C22.7906 0.0253561 22.6657 0 22.5396 0C22.4134 0 22.2885 0.0253561 22.172 0.074613C22.0555 0.12387 21.9497 0.196058 21.8606 0.287036Z" fill="#4DB45F"/>
</svg>
