<svg width="12" height="8" viewBox="0 0 12 8" fill="none" xmlns="http://www.w3.org/2000/svg">
<path d="M10.8996 0.234608L4.31972 6.81404C4.27548 6.85845 4.22291 6.89369 4.16501 6.91774C4.10712 6.94178 4.04505 6.95416 3.98237 6.95416C3.91968 6.95416 3.85761 6.94178 3.79972 6.91774C3.74183 6.89369 3.68925 6.85845 3.64502 6.81404L1.10047 4.26712C1.05623 4.2227 1.00366 4.18746 0.94577 4.16341C0.887879 4.13937 0.825809 4.12699 0.763122 4.12699C0.700435 4.12699 0.638365 4.13937 0.580474 4.16341C0.522582 4.18746 0.470009 4.2227 0.42577 4.26712C0.381356 4.31135 0.346115 4.36393 0.322069 4.42182C0.298023 4.47971 0.285645 4.54178 0.285645 4.60447C0.285645 4.66715 0.298023 4.72922 0.322069 4.78712C0.346115 4.84501 0.381356 4.89758 0.42577 4.94182L2.97126 7.48684C3.23979 7.75486 3.60368 7.90539 3.98308 7.90539C4.36248 7.90539 4.72637 7.75486 4.9949 7.48684L11.5743 0.908835C11.6187 0.864605 11.6539 0.812062 11.6779 0.754214C11.7019 0.696367 11.7142 0.634352 11.7142 0.571722C11.7142 0.509092 11.7019 0.447077 11.6779 0.389229C11.6539 0.331382 11.6187 0.278838 11.5743 0.234608C11.5301 0.190195 11.4775 0.154953 11.4196 0.130907C11.3617 0.106861 11.2997 0.0944824 11.237 0.0944824C11.1743 0.0944824 11.1122 0.106861 11.0543 0.130907C10.9964 0.154953 10.9439 0.190195 10.8996 0.234608Z" fill="white"/>
</svg>
