<svg width="10" height="11" viewBox="0 0 10 11" fill="none" xmlns="http://www.w3.org/2000/svg">
<path d="M5.75586 0.880371C5.89813 0.880371 6 0.982243 6 1.12451V4.88037H9.75586C9.89813 4.88037 10 4.98224 10 5.12451V6.61572C10 6.75799 9.89813 6.88037 9.75586 6.88037H6V10.6362C6 10.7785 5.89813 10.8804 5.75586 10.8804C5.61376 10.8804 4.29215 10.8804 4.26465 10.8804C4.12238 10.8804 4 10.7785 4 10.6362V6.88037H0.244141C0.101872 6.88037 0 6.75799 0 6.61572V5.12451C0 4.98224 0.101872 4.88037 0.244141 4.88037H4V1.12451C4 0.982243 4.12238 0.880371 4.26465 0.880371H5.75586Z" fill="#003468"/>
</svg>
