<svg width="8" height="8" viewBox="0 0 8 8" fill="none" xmlns="http://www.w3.org/2000/svg">
<path d="M4.00078 0C3.15243 0.000970362 2.33909 0.351758 1.73918 0.975408C1.13928 1.59906 0.8018 2.44464 0.800781 3.32666C0.800781 4.18333 1.43879 5.52399 2.69718 7.31132C2.84699 7.5247 3.04314 7.69828 3.26966 7.81796C3.49619 7.93763 3.74669 8 4.00078 8C4.25487 8 4.50537 7.93763 4.7319 7.81796C4.95842 7.69828 5.15457 7.5247 5.30438 7.31132C6.56277 5.52399 7.20078 4.18333 7.20078 3.32666C7.19976 2.44464 6.86228 1.59906 6.26238 0.975408C5.66247 0.351758 4.84913 0.000970362 4.00078 0ZM4.00078 4.65266C3.74714 4.65266 3.49919 4.57446 3.2883 4.42795C3.0774 4.28144 2.91303 4.07321 2.81596 3.82957C2.7189 3.58594 2.6935 3.31785 2.74299 3.05921C2.79247 2.80057 2.91461 2.56299 3.09396 2.37652C3.27331 2.19005 3.50182 2.06306 3.75059 2.01162C3.99936 1.96017 4.25721 1.98657 4.49155 2.08749C4.72588 2.18841 4.92617 2.3593 5.06709 2.57857C5.208 2.79783 5.28322 3.05562 5.28322 3.31933C5.28322 3.67295 5.1481 4.01209 4.9076 4.26214C4.6671 4.51218 4.3409 4.65266 4.00078 4.65266Z" fill="#636366"/>
</svg>
