<svg width="8" height="8" fill="none" xmlns="http://www.w3.org/2000/svg"><path d="M4 0a3.143 3.143 0 00-2.26.975C1.14 1.6.801 2.445.8 3.327c0 .856.639 2.197 1.897 3.984.15.214.346.387.573.507a1.564 1.564 0 001.462 0c.226-.12.423-.293.572-.507 1.259-1.787 1.897-3.128 1.897-3.984A3.399 3.399 0 006.262.975 3.143 3.143 0 004.001 0zm0 4.653c-.253 0-.5-.079-.712-.225a1.324 1.324 0 01-.472-.598 1.383 1.383 0 01-.073-.77 1.35 1.35 0 01.351-.683c.18-.187.408-.314.657-.365.248-.052.506-.025.74.075.235.101.435.272.576.492a1.371 1.371 0 01-.16 1.683c-.24.25-.566.39-.906.39z" fill="#636366"/></svg>