<svg width="9" height="10" viewBox="0 0 9 10" fill="none" xmlns="http://www.w3.org/2000/svg">
<path d="M8.37089 5.80069C8.23694 5.66678 8.05529 5.59156 7.86589 5.59156C7.67649 5.59156 7.49484 5.66678 7.36089 5.80069L5.00876 8.15211L5.00376 0.714283C5.00376 0.524843 4.9285 0.343163 4.79455 0.209209C4.66059 0.0752547 4.47891 0 4.28947 0C4.10003 0 3.91835 0.0752547 3.7844 0.209209C3.65045 0.343163 3.57519 0.524843 3.57519 0.714283L3.58019 8.15282L1.22806 5.80069C1.16217 5.73247 1.08335 5.67805 0.996205 5.64062C0.90906 5.60318 0.815332 5.58348 0.72049 5.58266C0.625648 5.58183 0.531591 5.5999 0.443808 5.63582C0.356026 5.67173 0.276274 5.72477 0.209208 5.79184C0.142143 5.8589 0.0891048 5.93865 0.05319 6.02644C0.0172752 6.11422 -0.000797182 6.20828 2.69692e-05 6.30312C0.00085112 6.39796 0.0205555 6.49169 0.0579904 6.57883C0.0954252 6.66598 0.149841 6.7448 0.218062 6.81069L2.77877 9.3721C2.97775 9.57113 3.21399 9.729 3.474 9.83671C3.73401 9.94442 4.01268 9.99986 4.29412 9.99986C4.57555 9.99986 4.85423 9.94442 5.11423 9.83671C5.37424 9.729 5.61048 9.57113 5.80947 9.3721L8.37089 6.81069C8.5048 6.67674 8.58002 6.49509 8.58002 6.30569C8.58002 6.11629 8.5048 5.93464 8.37089 5.80069Z" fill="#535353"/>
</svg>
