<svg width="15" height="15" viewBox="0 0 15 15" fill="none" xmlns="http://www.w3.org/2000/svg">
<path d="M7.06666 8.48C10.9693 8.48 14.1333 9.95646 14.1333 11.7778V14.1333H0V11.7778C0 9.95646 3.16398 8.48 7.06666 8.48ZM13.1911 11.7778C13.1911 10.4775 10.4492 9.42222 7.06666 9.42222C3.68409 9.42222 0.942222 10.4775 0.942222 11.7778V13.1911H13.1911V11.7778ZM7.06666 0C7.94129 0 8.78009 0.347444 9.39854 0.965897C10.017 1.58435 10.3644 2.42315 10.3644 3.29778C10.3644 4.1724 10.017 5.01121 9.39854 5.62966C8.78009 6.24811 7.94129 6.59556 7.06666 6.59556C6.19204 6.59556 5.35324 6.24811 4.73478 5.62966C4.11633 5.01121 3.76889 4.1724 3.76889 3.29778C3.76889 2.42315 4.11633 1.58435 4.73478 0.965897C5.35324 0.347444 6.19204 0 7.06666 0ZM7.06666 0.942222C6.44193 0.942222 5.84279 1.1904 5.40104 1.63215C4.95928 2.0739 4.71111 2.67305 4.71111 3.29778C4.71111 3.92251 4.95928 4.52165 5.40104 4.96341C5.84279 5.40516 6.44193 5.65333 7.06666 5.65333C7.6914 5.65333 8.29054 5.40516 8.73229 4.96341C9.17405 4.52165 9.42222 3.92251 9.42222 3.29778C9.42222 2.67305 9.17405 2.0739 8.73229 1.63215C8.29054 1.1904 7.6914 0.942222 7.06666 0.942222Z" fill="black"/>
</svg>
