<svg width="20" height="20" viewBox="0 0 20 20" fill="none" xmlns="http://www.w3.org/2000/svg">
<path d="M19.4036 3.3975C19.1633 3.1162 18.8625 2.88996 18.5225 2.73485C18.1824 2.57973 17.8116 2.49955 17.4362 2.5H3.62393L3.58805 2.2075C3.51462 1.59951 3.21505 1.03894 2.74613 0.632065C2.27721 0.225186 1.67154 0.000284828 1.04395 0H0.854297C0.627723 0 0.410429 0.0877974 0.250218 0.244078C0.090006 0.400358 0 0.61232 0 0.833333C0 1.05435 0.090006 1.26631 0.250218 1.42259C0.410429 1.57887 0.627723 1.66667 0.854297 1.66667H1.04395C1.2532 1.66669 1.45516 1.74163 1.61152 1.87726C1.76789 2.0129 1.86779 2.19979 1.89227 2.4025L3.06778 12.1525C3.18982 13.1665 3.68926 14.1015 4.47131 14.78C5.25336 15.4585 6.26358 15.8334 7.31022 15.8333H16.2316C16.4582 15.8333 16.6755 15.7455 16.8357 15.5893C16.9959 15.433 17.0859 15.221 17.0859 15C17.0859 14.779 16.9959 14.567 16.8357 14.4107C16.6755 14.2545 16.4582 14.1667 16.2316 14.1667H7.31022C6.78146 14.1652 6.2661 14.0043 5.83479 13.7059C5.40349 13.4075 5.07735 12.9863 4.9011 12.5H15.0843C16.0858 12.5001 17.0555 12.1569 17.8239 11.5304C18.5923 10.9039 19.1106 10.0339 19.2883 9.0725L19.9589 5.44417C20.0259 5.08417 20.0108 4.71422 19.9149 4.36053C19.8189 4.00684 19.6444 3.67806 19.4036 3.3975ZM18.2819 5.14833L17.6105 8.77667C17.5038 9.35417 17.1923 9.87666 16.7304 10.2527C16.2686 10.6287 15.6859 10.8342 15.0843 10.8333H4.62943L3.82554 4.16667H17.4362C17.5617 4.16594 17.6858 4.19218 17.7997 4.24355C17.9136 4.29491 18.0146 4.37012 18.0953 4.46384C18.1761 4.55756 18.2346 4.66748 18.2669 4.78578C18.2992 4.90409 18.3043 5.02787 18.2819 5.14833Z" fill="black"/>
<path d="M5.98008 20C6.92371 20 7.68867 19.2538 7.68867 18.3333C7.68867 17.4129 6.92371 16.6667 5.98008 16.6667C5.03645 16.6667 4.27148 17.4129 4.27148 18.3333C4.27148 19.2538 5.03645 20 5.98008 20Z" fill="black"/>
<path d="M14.523 20C15.4667 20 16.2316 19.2538 16.2316 18.3333C16.2316 17.4129 15.4667 16.6667 14.523 16.6667C13.5794 16.6667 12.8145 17.4129 12.8145 18.3333C12.8145 19.2538 13.5794 20 14.523 20Z" fill="black"/>
</svg>
