<svg width="20" height="20" fill="none" xmlns="http://www.w3.org/2000/svg"><path d="M19.404 3.397a2.55 2.55 0 00-.881-.662 2.611 2.611 0 00-1.087-.235H3.624l-.036-.292A2.48 2.48 0 002.746.631 2.6 2.6 0 001.044 0h-.19A.865.865 0 00.25.244a.823.823 0 00-.25.59c0 .22.09.432.25.589.16.156.378.244.604.244h.19a.87.87 0 01.568.21.827.827 0 01.28.525l1.176 9.75A4.135 4.135 0 004.47 14.78a4.333 4.333 0 002.84 1.053h8.92a.866.866 0 00.605-.244.823.823 0 00.25-.589.823.823 0 00-.25-.59.866.866 0 00-.604-.243H7.31a2.607 2.607 0 01-1.475-.461A2.507 2.507 0 014.9 12.5h10.183a4.337 4.337 0 002.74-.97 4.147 4.147 0 001.464-2.457l.67-3.629c.068-.36.053-.73-.043-1.083a2.474 2.474 0 00-.511-.963zm-1.122 1.751l-.672 3.629a2.488 2.488 0 01-.88 1.476 2.602 2.602 0 01-1.646.58H4.63l-.803-6.666h13.61a.872.872 0 01.66.297.826.826 0 01.186.684zM5.98 20c.944 0 1.709-.746 1.709-1.667 0-.92-.765-1.666-1.709-1.666-.944 0-1.709.746-1.709 1.666 0 .92.765 1.667 1.71 1.667zm8.543 0c.944 0 1.709-.746 1.709-1.667 0-.92-.765-1.666-1.709-1.666-.944 0-1.708.746-1.708 1.666 0 .92.764 1.667 1.708 1.667z" fill="#000"/></svg>