<svg width="17" height="17" viewBox="0 0 17 17" fill="none" xmlns="http://www.w3.org/2000/svg">
<path d="M15.9185 2.53675C16.1197 2.33555 16.1484 2.01938 15.9472 1.81819L14.3087 0.179642C14.1075 -0.0215562 13.7626 -0.0215574 13.5614 0.179642L8.04227 5.69876L2.4944 0.150899C2.29321 -0.0502994 2.00578 -0.0502997 1.80458 0.150898L0.166037 1.78944C-0.035161 1.99064 -0.0639035 2.30681 0.137295 2.50801L5.68516 8.05587L0.166038 13.575C-0.0351605 13.7762 -0.0351603 14.1211 0.166038 14.3223L1.80458 15.9608C2.00578 16.162 2.32195 16.1333 2.52315 15.9321L8.04227 10.413L13.5896 15.9603C13.7908 16.1615 14.107 16.1328 14.3082 15.9316C14.3082 15.9316 15.7455 14.4942 15.9467 14.293C16.1479 14.0918 16.1479 13.8044 15.9467 13.6032C15.7455 13.402 10.3994 8.05587 10.3994 8.05587L15.9185 2.53675Z" fill="#F2F2F5"/>
</svg>
