<svg width="18" height="25" viewBox="0 0 18 25" fill="none" xmlns="http://www.w3.org/2000/svg">
<path d="M11.2923 21.2559C11.1912 21.2561 11.0906 21.2421 10.9934 21.2145C10.7237 21.1317 10.4883 20.9633 10.3227 20.7349C10.1572 20.5064 10.0705 20.2303 10.0757 19.9482C10.1078 19.3302 10.6667 18.8709 10.8811 18.746L10.8904 18.7409C10.9188 18.7259 10.9438 18.7052 10.9639 18.6801C11.0029 18.5136 11.0286 18.3442 11.0407 18.1736C11.065 17.9852 11.0755 17.7953 11.0719 17.6054C11.0341 17.5815 10.9949 17.5598 10.9546 17.5404C10.8591 17.4883 10.7583 17.4464 10.654 17.4155C10.5332 17.397 10.42 17.3449 10.3273 17.2652C9.9643 16.9537 9.98963 16.497 10.0074 16.2243V16.2057C9.89052 16.1828 9.77979 16.1357 9.68233 16.0673C9.57527 15.9887 9.48695 15.8874 9.42374 15.7706C9.36053 15.6538 9.324 15.5245 9.31678 15.3919C9.31641 15.3539 9.30867 15.3163 9.29399 15.2813C9.27964 15.2745 9.24671 15.2636 9.22223 15.2551C8.97331 15.1856 8.7613 15.0217 8.63127 14.7984C8.54958 14.6534 8.5052 14.4903 8.50211 14.3239C8.43095 14.3094 8.36139 14.2879 8.29443 14.2598C8.21403 14.2266 8.13827 14.1832 8.06902 14.1306C7.75919 13.8934 7.57515 13.5337 7.47806 13.3404L7.46033 13.305C7.40799 13.2805 7.30753 13.2408 7.20707 13.2028C7.02387 13.131 6.77229 13.034 6.41434 12.8752C5.49667 12.4717 5.26028 12.291 5.07878 12.0395C4.83048 11.6929 4.69383 11.2788 4.68706 10.8525C4.68823 10.6831 4.71121 10.5145 4.75544 10.351C4.78508 10.2633 4.79347 10.1699 4.77992 10.0783C4.775 10.002 4.75491 9.92734 4.72082 9.85883C4.56156 9.8037 4.39884 9.75914 4.23371 9.72544C4.10792 9.6959 3.95342 9.65875 3.89095 9.652C3.79471 9.68408 3.69847 9.81578 3.64528 9.88838C3.58647 9.96747 3.54583 10.0586 3.52625 10.1552C3.47461 10.3852 3.36306 10.5975 3.20291 10.7706C2.90743 11.0914 2.38401 11.3953 1.88001 11.1927C1.53641 11.0568 1.39964 10.7613 1.30931 10.5654L1.29834 10.541C1.13737 10.198 0.949948 9.86799 0.737772 9.55407L0.732707 9.54562C0.582418 9.31246 0.454915 9.06537 0.351962 8.80777C0.132861 8.25918 0.0271767 7.67189 0.0412869 7.08133L0.0463522 6.8382L0.232926 6.67864C0.590877 6.36965 0.684586 6.19743 0.70738 6.14171L0.6753 6.07839C0.580746 5.87156 0.405148 5.48744 0.620425 5.08559C0.641385 5.04915 0.664796 5.01417 0.690496 4.9809C0.877266 4.72856 1.12827 4.53091 1.41737 4.40852C1.58741 4.32995 1.76585 4.27104 1.94923 4.23292L1.97287 4.22785C2.04029 4.21027 2.1093 4.19952 2.17886 4.19577C2.5098 4.1848 2.76053 4.3528 2.95639 4.51658C2.94289 4.49801 2.92431 4.47437 2.89477 4.43975C2.72076 4.25258 2.60745 4.01714 2.56974 3.76438C2.48532 3.18524 2.72001 2.88385 2.86691 2.75637C3.0359 2.6081 3.25419 2.52831 3.47897 2.53265C3.48572 2.48706 3.49163 2.43219 3.4967 2.38998C3.52793 2.10294 3.57437 1.66985 3.96018 1.37691C4.14761 1.23971 4.37373 1.16552 4.60601 1.16501C4.62079 0.986631 4.67873 0.814526 4.77485 0.663539C5.18262 0.0092647 6.27926 -0.206013 7.02809 0.221165C7.23094 0.334459 7.39618 0.504681 7.50339 0.710815C7.54385 0.793373 7.60564 0.863616 7.68236 0.914273C7.86472 1.04766 8.29021 1.17429 8.52659 1.13293C8.59273 1.12087 8.65692 1.09985 8.71738 1.07045C8.91727 0.968353 9.14766 0.943121 9.3649 0.99954C9.95586 1.15657 10.2986 1.79311 10.318 2.31231C10.3243 2.50357 10.2892 2.69392 10.215 2.87034C10.2066 2.89145 10.1965 2.92015 10.1922 2.9345L10.2049 2.95054C10.2994 3.06868 10.3744 3.20122 10.4269 3.34311C10.4793 3.4824 10.7216 4.20422 10.3299 4.74621C10.1898 4.93722 9.9873 5.07313 9.75747 5.13033C9.69379 5.1455 9.63361 5.17272 9.58018 5.21053C9.41134 5.33632 9.34464 5.55498 9.2923 5.72973C9.19376 6.0868 9.22364 6.46712 9.37672 6.80443C9.46115 6.98678 9.53206 7.05094 9.70428 7.20543C9.93456 7.40648 10.1467 7.6274 10.3383 7.86562C10.6722 8.27124 10.9486 8.72094 11.1597 9.20203C11.3626 9.68057 11.5011 10.1839 11.5717 10.6988C11.5835 10.7706 11.5962 10.8516 11.6097 10.9192L11.6544 10.9015C11.9077 10.8001 12.3298 10.6296 12.8364 10.8297C12.9833 10.8871 13.3176 11.0188 13.4991 11.3818C13.6212 11.6466 13.6416 11.9471 13.5565 12.226C13.5451 12.2702 13.5366 12.315 13.5312 12.3603C13.5388 12.3711 13.5482 12.3805 13.559 12.3881C13.586 12.3822 13.6316 12.3679 13.6671 12.3569C13.8827 12.277 14.1152 12.2534 14.3425 12.2885C14.8414 12.3797 15.0465 12.7604 15.1825 13.0129C15.288 13.2079 15.3783 13.3767 15.5919 13.5261C15.7073 13.6065 15.8386 13.6612 15.9769 13.6865C16.2894 13.7399 16.5685 13.9135 16.7544 14.1703C16.8755 14.3384 16.9522 14.5344 16.9773 14.7401C17.0024 14.9034 17.0519 15.0619 17.1242 15.2104C17.1622 15.2948 17.1951 15.3573 17.228 15.4189C17.3335 15.5978 17.4016 15.7963 17.4281 16.0023C17.5125 16.7156 17.2432 17.044 17.0001 17.1951C16.5872 17.4484 16.0832 17.3074 15.7895 17.0668C15.6009 16.9097 15.4758 16.6895 15.4374 16.4472C15.4241 16.3625 15.3955 16.281 15.353 16.2066C15.2095 15.966 15.12 15.9254 15.0879 15.9195C15.0598 15.9166 15.0315 15.9166 15.0035 15.9195C14.8617 15.9363 14.7179 15.9233 14.5814 15.8815C14.5332 15.946 14.4799 16.0064 14.4218 16.0622C14.2977 16.1825 14.1495 16.2752 13.987 16.334C13.9791 16.4121 13.988 16.491 14.0132 16.5654C14.0233 16.5772 14.0343 16.589 14.0478 16.6033C14.1318 16.6929 14.2104 16.7874 14.2834 16.8862C14.562 17.2618 14.8498 17.651 14.7899 18.166C14.7638 18.3555 14.6975 18.5372 14.5956 18.6991C14.4937 18.861 14.3585 18.9993 14.1989 19.1048C14.0764 19.1839 13.941 19.241 13.7988 19.2736C13.7895 19.3141 13.7777 19.358 13.7616 19.4095C13.6772 19.6679 13.0651 20.7966 11.7254 21.1824C11.5852 21.2273 11.4394 21.252 11.2923 21.2559ZM11.8908 19.2643C11.7764 19.439 11.6218 19.5838 11.44 19.6865C11.337 19.7506 11.18 19.9262 11.1724 20.0005C11.179 20.0342 11.1934 20.0659 11.2143 20.0932C11.2353 20.1204 11.2622 20.1424 11.2931 20.1575C11.3374 20.1529 11.381 20.1433 11.4231 20.1288C11.6985 20.0471 11.9549 19.9114 12.1774 19.7297C12.3999 19.5479 12.584 19.3237 12.719 19.0702V19.0592V19.0322V19.0499C12.719 19.0415 12.719 19.0347 12.719 19.028C12.7206 18.8746 12.7679 18.7253 12.8549 18.5991C12.927 18.4992 13.0185 18.415 13.124 18.3514C13.2295 18.2879 13.3467 18.2464 13.4687 18.2293C13.5104 18.2245 13.5509 18.2125 13.5886 18.1939C13.6396 18.1576 13.6753 18.1038 13.689 18.0427C13.6992 17.9583 13.5354 17.7397 13.3919 17.5447C13.3424 17.4773 13.2888 17.413 13.2315 17.3522C13.1193 17.2388 13.0329 17.1026 12.9782 16.9529C12.9495 16.8777 12.7072 16.1931 13.109 15.657C13.2263 15.4995 13.3889 15.3816 13.5751 15.3193C13.6308 15.2982 13.6325 15.2973 13.6595 15.2737C13.7228 15.2035 13.7711 15.121 13.8013 15.0314C13.8562 14.9005 14.0267 14.5054 14.4615 14.5206C14.5649 14.5247 14.6657 14.555 14.7543 14.6086C14.8429 14.6621 14.9164 14.7373 14.968 14.8271C15.0756 14.8194 15.1837 14.8257 15.2897 14.8457C15.5392 14.898 15.7679 15.0224 15.9473 15.2036C15.9169 15.0913 15.9017 15.0027 15.8891 14.9309C15.873 14.8381 15.873 14.8381 15.857 14.8161C15.8514 14.8076 15.8449 14.7996 15.8376 14.7925C15.7956 14.7777 15.7528 14.7656 15.7093 14.7562C15.4381 14.6988 15.1813 14.5871 14.9545 14.4278C14.636 14.1972 14.3801 13.8907 14.2099 13.5363C14.1804 13.4822 14.1432 13.4122 14.1162 13.3725C14.0731 13.3821 14.0306 13.394 13.9887 13.408C13.7903 13.4696 13.4586 13.5768 13.0727 13.3792C12.8223 13.2572 12.6245 13.0487 12.5159 12.7922C12.4072 12.5357 12.3951 12.2485 12.4818 11.9837C12.4894 11.9517 12.4987 11.9111 12.5029 11.8824C12.4801 11.8715 12.4514 11.8605 12.4328 11.8529C12.34 11.8166 12.2707 11.8343 12.0605 11.9196C11.8503 12.0049 11.5059 12.1433 11.1319 11.993C10.6296 11.7904 10.551 11.3041 10.481 10.8753C10.4237 10.4493 10.3102 10.0329 10.1433 9.6368C9.97044 9.24924 9.74549 8.8871 9.47465 8.56042C9.3232 8.36556 9.15452 8.18473 8.97065 8.02011C8.71737 7.81613 8.51505 7.556 8.37969 7.26031C8.11275 6.68024 8.06243 6.02374 8.23786 5.40977C8.31553 5.14975 8.46074 4.66601 8.92422 4.32325C9.07536 4.21226 9.24522 4.12934 9.42569 4.07843L9.44511 4.07252C9.45493 3.95465 9.4382 3.83608 9.39614 3.72554C9.38174 3.68486 9.35967 3.64732 9.33113 3.61495C9.22362 3.48249 9.15027 3.32566 9.11755 3.15822C9.07233 2.93103 9.09736 2.69546 9.18931 2.48284C9.21021 2.44294 9.22148 2.39871 9.22223 2.35368C9.21479 2.25833 9.17825 2.16756 9.11755 2.09366C8.98997 2.14933 8.8562 2.18958 8.71907 2.21354C8.13656 2.31569 7.41897 2.07761 7.03906 1.80155C6.83851 1.66073 6.67348 1.47517 6.55701 1.25956C6.54467 1.23691 6.53115 1.21493 6.51649 1.19371C6.50765 1.18622 6.49803 1.17971 6.48779 1.17429C6.22354 1.02318 5.77864 1.13039 5.70519 1.24774C5.70197 1.27041 5.7 1.29324 5.69928 1.31612C5.69955 1.43958 5.6752 1.56186 5.62765 1.67579C5.58011 1.78973 5.51032 1.89304 5.42238 1.97968C5.22361 2.16672 4.95905 2.26774 4.68621 2.26081H4.62965C4.61155 2.34031 4.59914 2.421 4.5925 2.50226C4.56295 2.77832 4.51314 3.24096 4.08597 3.49169C3.95838 3.56614 3.81542 3.61033 3.66808 3.62086C3.67399 3.64281 3.68665 3.66054 3.74406 3.72892C3.8861 3.8849 3.99088 4.07108 4.05051 4.27344C4.15491 4.65929 4.10748 5.07049 3.91797 5.42243C3.86549 5.52453 3.79253 5.61471 3.70363 5.68734C3.61473 5.75997 3.51181 5.81348 3.4013 5.84454C3.35787 5.85551 3.31348 5.86229 3.26876 5.86481C2.86184 5.88929 2.57312 5.6318 2.36206 5.44269C2.31141 5.39711 2.24049 5.33379 2.19322 5.30002C2.08621 5.3219 1.9822 5.35648 1.88339 5.40302C1.79596 5.43889 1.71498 5.4888 1.64363 5.55075C1.6546 5.57608 1.66642 5.6031 1.67655 5.6242C1.71977 5.71285 1.75481 5.80525 1.78123 5.90026C1.9256 6.46674 1.53303 6.97074 1.14131 7.33544C1.16509 7.90555 1.33989 8.45911 1.64785 8.93947C1.89059 9.29943 2.1051 9.67765 2.28946 10.0707L2.30128 10.0961C2.33429 10.0725 2.36484 10.0456 2.39245 10.0159C2.43129 9.97365 2.43551 9.96098 2.46421 9.85461C2.51872 9.63039 2.61714 9.41921 2.75378 9.23326C2.87957 9.06442 3.16914 8.66257 3.6934 8.55788C3.92472 8.51229 4.13493 8.55788 4.4836 8.64231C4.9513 8.7529 5.26028 8.82635 5.49667 9.06442C5.70767 9.29512 5.837 9.58879 5.86475 9.9002C5.89956 10.132 5.8846 10.3686 5.82085 10.5942C5.79785 10.6723 5.78535 10.7533 5.7837 10.8348C5.7898 11.0307 5.85385 11.2205 5.96774 11.3801C6.026 11.4645 6.32485 11.6207 6.85502 11.8537C7.19271 12.0023 7.43163 12.096 7.60638 12.1644C7.99388 12.3164 8.22858 12.4084 8.40671 12.7368C8.42022 12.7613 8.43541 12.7917 8.45314 12.8254C8.51055 12.9369 8.61439 13.142 8.72245 13.2332C8.741 13.2345 8.75962 13.2345 8.77817 13.2332C8.89051 13.2272 9.00284 13.2451 9.10776 13.2857C9.21268 13.3263 9.3078 13.3887 9.38685 13.4687C9.47627 13.5662 9.54223 13.6828 9.57969 13.8097C9.61715 13.9365 9.62511 14.0703 9.60298 14.2007V14.2066C9.83541 14.2779 10.0387 14.422 10.183 14.6177C10.2894 14.7646 10.3602 14.9343 10.3898 15.1133C10.5261 15.1297 10.6558 15.1818 10.7655 15.2644C11.1462 15.5481 11.12 16.0014 11.1032 16.2733C11.1032 16.307 11.0989 16.3492 11.0973 16.3889C11.2166 16.434 11.3333 16.4859 11.4468 16.5442C11.6597 16.6396 11.8459 16.786 11.9888 16.9706C12.1753 17.2238 12.2083 17.532 12.1314 18.2715C12.0723 18.838 12.0124 19.0372 11.9288 19.19C11.9145 19.2263 11.8993 19.2483 11.8908 19.2635V19.2643ZM12.7148 19.0854V19.0904V19.0854Z" fill="white"/>
<path d="M2.42979 18.8305C2.2373 18.8297 2.04726 18.7873 1.8726 18.7064C1.55264 18.5562 1.42685 18.324 1.31626 18.1155C1.244 17.9771 1.16308 17.8435 1.07397 17.7153C0.985324 17.5887 0.905123 17.4958 0.841806 17.4139C0.685624 17.224 0.450086 16.9378 0.588539 16.5469C0.651924 16.373 0.781514 16.2313 0.949023 16.1526L0.895836 16.0682L0.389302 15.3464L0.296437 15.2333C0.136878 15.0442 -0.0454741 14.8247 0.0102447 14.4853C0.0324823 14.3711 0.0790573 14.2631 0.146799 14.1686C0.214541 14.074 0.301859 13.9952 0.402809 13.9374C0.46697 13.8943 0.477101 13.8859 0.487232 13.864C0.49799 13.8284 0.505617 13.7919 0.510026 13.7551C0.541262 13.327 1.11871 12.6052 1.95027 12.4549C2.2759 12.3953 2.6115 12.4231 2.92292 12.5353C3.23434 12.6476 3.51045 12.8404 3.72314 13.094C4.03551 13.4807 4.06928 13.8901 4.11486 14.4574C4.14424 14.767 4.13432 15.079 4.08532 15.3861C4.04728 15.6327 4.03117 15.8821 4.0372 16.1315C4.0372 16.3105 4.04902 16.4692 4.05746 16.6018C4.08447 17.0416 4.1098 17.4578 3.74425 17.7837C3.62143 17.8901 3.47762 17.9695 3.32214 18.0167C3.32489 18.2151 3.25147 18.4069 3.11699 18.5528C3.02809 18.6444 2.92105 18.7164 2.80271 18.7642C2.68438 18.812 2.55736 18.8346 2.42979 18.8305ZM1.88189 16.969C1.91059 17.0078 1.94071 17.0495 1.97222 17.094C2.08479 17.2563 2.18713 17.4255 2.27868 17.6005C2.29734 17.547 2.3208 17.4953 2.34875 17.446C2.41453 17.3333 2.50195 17.2347 2.60598 17.1559C2.71001 17.0771 2.82859 17.0196 2.9549 16.9867L2.98023 16.9783C2.98023 16.9006 2.97432 16.7765 2.96756 16.6718C2.95912 16.5309 2.94815 16.3553 2.94561 16.151C2.93868 15.8456 2.95817 15.5403 3.00387 15.2384C3.04203 15.0099 3.04969 14.7774 3.02666 14.5469C2.98529 14.0362 2.9625 13.8927 2.8747 13.7871C2.78542 13.687 2.67192 13.6115 2.54508 13.5679C2.41824 13.5243 2.28231 13.514 2.15035 13.5381C2.03853 13.562 1.9325 13.6077 1.83835 13.6726C1.74419 13.7375 1.66375 13.8203 1.60161 13.9163C1.59027 14.0004 1.57306 14.0836 1.55011 14.1653C1.52653 14.2484 1.49308 14.3283 1.45049 14.4034C1.39647 14.5004 1.32912 14.5894 1.25041 14.6677L1.2597 14.6786L1.28165 14.7073L1.82533 15.4815C2.0997 15.9205 2.31582 16.2675 2.13769 16.6634C2.082 16.7868 1.99352 16.8925 1.88189 16.969Z" fill="white"/>
<path d="M9.06777 25.0001C8.99777 25 8.92842 24.9865 8.86347 24.9604C6.79428 24.1297 5.54482 23.5117 5.14888 23.1234C5.07881 23.0541 5.01887 22.9824 5.00705 22.968C4.50896 22.3458 4.36375 21.7127 4.59507 21.1808C4.84834 20.5898 5.55073 20.2116 6.22442 20.3003C6.51904 20.3424 6.79149 20.4807 6.99942 20.6937C7.02813 20.7198 7.06612 20.7545 7.08384 20.7688C7.13703 20.7621 7.2797 20.6177 7.34978 20.5468C7.56252 20.3315 7.88417 20.0065 8.36791 20.0799C8.85165 20.1534 9.01374 20.5079 9.31851 21.212C9.39702 21.3944 9.49579 21.6223 9.61821 21.895C9.69334 22.0639 9.76088 22.2082 9.82166 22.3391C10.1678 23.0887 10.3417 23.4644 10.1653 23.9878C10.0369 24.3669 9.74991 24.6919 9.33286 24.9283C9.25199 24.9743 9.16078 24.999 9.06777 25.0001ZM5.60645 21.6181C5.54989 21.749 5.65373 22.014 5.86394 22.2774C5.86394 22.2817 5.89771 22.3171 5.92388 22.3424C6.11636 22.5324 7.03741 23.0322 8.99855 23.8308C9.05808 23.7785 9.10388 23.7124 9.13193 23.6383C9.16486 23.5396 9.1007 23.3851 8.83223 22.8C8.77061 22.6666 8.70138 22.5172 8.62456 22.3467C8.49792 22.0655 8.39746 21.8342 8.31726 21.6477C8.26154 21.5193 8.20751 21.3944 8.16192 21.2931L8.13575 21.3192C7.90443 21.5531 7.55492 21.9102 7.00196 21.8629C6.72044 21.8351 6.45815 21.7075 6.26241 21.5033C6.15857 21.4079 6.13831 21.3952 6.08513 21.3885C5.90615 21.3648 5.66301 21.4805 5.60561 21.6173L5.60645 21.6181Z" fill="white"/>
</svg>
