<svg width="28" height="41" viewBox="0 0 28 41" fill="none" xmlns="http://www.w3.org/2000/svg">
<path d="M17.9606 34.4051C17.8006 34.4054 17.6413 34.3834 17.4874 34.3396C17.0603 34.2085 16.6876 33.9419 16.4254 33.5802C16.1633 33.2185 16.026 32.7812 16.0344 32.3346C16.0852 31.3561 16.9701 30.629 17.3096 30.4311L17.3243 30.4231C17.3692 30.3993 17.4088 30.3666 17.4406 30.3269C17.5024 30.0632 17.543 29.795 17.5622 29.5249C17.6008 29.2266 17.6173 28.9259 17.6117 28.6253C17.5518 28.5874 17.4898 28.5531 17.4259 28.5224C17.2747 28.4398 17.1152 28.3735 16.95 28.3245C16.7587 28.2952 16.5795 28.2128 16.4327 28.0866C15.858 27.5934 15.8981 26.8702 15.9261 26.4385V26.409C15.7411 26.3728 15.5658 26.2981 15.4115 26.1898V26.1898C15.242 26.0655 15.1021 25.905 15.0021 25.7201C14.902 25.5352 14.8441 25.3304 14.8327 25.1205C14.8321 25.0603 14.8199 25.0009 14.7966 24.9454C14.7739 24.9347 14.7218 24.9173 14.683 24.9039C14.2889 24.7939 13.9532 24.5344 13.7473 24.1808C13.618 23.9512 13.5477 23.693 13.5428 23.4296C13.4301 23.4065 13.32 23.3725 13.214 23.328C13.0867 23.2755 12.9667 23.2067 12.8571 23.1235C12.3665 22.7479 12.0751 22.1784 11.9214 21.8723L11.8933 21.8162C11.8105 21.7774 11.6514 21.7146 11.4923 21.6544C11.2023 21.5408 10.8039 21.3871 10.2372 21.1358C8.78419 20.4969 8.40992 20.2108 8.12253 19.8125C7.7294 19.2637 7.51303 18.6081 7.50231 17.9331C7.50416 17.6649 7.54055 17.398 7.61058 17.1391C7.65752 17.0003 7.6708 16.8523 7.64934 16.7074C7.64156 16.5864 7.60975 16.4683 7.55577 16.3598C7.30361 16.2725 7.04596 16.202 6.78451 16.1486C6.58534 16.1018 6.34072 16.043 6.24181 16.0323C6.08943 16.0831 5.93704 16.2916 5.85283 16.4066C5.75972 16.5318 5.69537 16.6761 5.66436 16.829C5.5826 17.1933 5.40598 17.5294 5.15241 17.8034C4.68457 18.3114 3.85582 18.7926 3.05782 18.4718C2.51378 18.2566 2.29724 17.7887 2.15421 17.4786L2.13684 17.4399C1.88197 16.8968 1.58522 16.3743 1.24928 15.8773L1.24126 15.8639C1.0033 15.4947 0.801418 15.1035 0.638409 14.6956C0.291499 13.827 0.124166 12.8972 0.146507 11.9621L0.154527 11.5771L0.449935 11.3245C1.01669 10.8353 1.16506 10.5626 1.20115 10.4744L1.15036 10.3741C1.00065 10.0466 0.72262 9.43844 1.06348 8.80218C1.09666 8.74448 1.13373 8.68911 1.17442 8.63643C1.47014 8.23689 1.86756 7.92394 2.32531 7.73016C2.59453 7.60575 2.87706 7.51247 3.16742 7.45212L3.20485 7.4441C3.31159 7.41627 3.42086 7.39925 3.531 7.39331C4.05499 7.37593 4.45198 7.64193 4.76209 7.90125C4.74071 7.87184 4.7113 7.83442 4.66452 7.77961C4.389 7.48326 4.2096 7.11047 4.14989 6.71026C4.01622 5.79329 4.38782 5.3161 4.62041 5.11426C4.88798 4.87949 5.23361 4.75316 5.5895 4.76003C5.6002 4.68785 5.60956 4.60097 5.61758 4.53413C5.66703 4.07966 5.74055 3.39394 6.35142 2.93011C6.64818 2.71288 7.00621 2.5954 7.37399 2.5946C7.39738 2.31217 7.48913 2.03967 7.64132 1.8006C8.28694 0.764669 10.0233 0.423813 11.2089 1.10018C11.5301 1.27956 11.7918 1.54908 11.9615 1.87546C12.0256 2.00617 12.1234 2.11739 12.2449 2.1976C12.5336 2.4088 13.2073 2.6093 13.5816 2.5438C13.6863 2.52472 13.7879 2.49144 13.8837 2.44489C14.2001 2.28323 14.5649 2.24328 14.9089 2.33261C15.8446 2.58123 16.3873 3.58909 16.418 4.41116C16.428 4.71398 16.3723 5.01538 16.2549 5.29471C16.2416 5.32813 16.2255 5.37357 16.2189 5.3963L16.2389 5.42169C16.3886 5.60874 16.5073 5.81859 16.5905 6.04325C16.6733 6.26381 17.057 7.40668 16.4367 8.26483C16.215 8.56727 15.8944 8.78246 15.5305 8.87302C15.4296 8.89704 15.3344 8.94014 15.2498 9.00001C14.9824 9.19918 14.8768 9.54538 14.7939 9.82207C14.6379 10.3874 14.6852 10.9896 14.9276 11.5237C15.0613 11.8124 15.1736 11.914 15.4463 12.1586C15.8109 12.4769 16.1468 12.8267 16.4501 13.2039C16.9788 13.8461 17.4164 14.5582 17.7507 15.3199C18.0719 16.0776 18.2912 16.8745 18.403 17.6898C18.4217 17.8034 18.4418 17.9318 18.4632 18.0387L18.534 18.0106C18.935 17.8502 19.6034 17.5802 20.4054 17.897C20.638 17.9879 21.1673 18.1964 21.4547 18.7712C21.648 19.1905 21.6804 19.6663 21.5456 20.1079C21.5275 20.1778 21.5141 20.2488 21.5055 20.3204C21.5175 20.3376 21.5324 20.3525 21.5496 20.3645C21.5923 20.3552 21.6645 20.3325 21.7207 20.3151C22.0621 20.1886 22.4302 20.1513 22.79 20.2068C23.58 20.3512 23.9048 20.954 24.12 21.3537C24.2871 21.6625 24.4301 21.9298 24.7683 22.1664C24.951 22.2937 25.1588 22.3803 25.3779 22.4204C25.8726 22.5048 26.3146 22.7797 26.6089 23.1863C26.8007 23.4525 26.9221 23.7629 26.9618 24.0886C27.0016 24.347 27.08 24.598 27.1944 24.8331C27.2546 24.9668 27.3067 25.0657 27.3588 25.1633C27.5259 25.4465 27.6336 25.7607 27.6756 26.0869C27.8093 27.2164 27.3829 27.7364 26.9979 27.9756C26.3443 28.3767 25.5463 28.1534 25.0811 27.7725C24.7826 27.5237 24.5845 27.1751 24.5237 26.7913C24.5027 26.6573 24.4574 26.5282 24.39 26.4104C24.1628 26.0294 24.0211 25.9653 23.9703 25.9559C23.9259 25.9513 23.8811 25.9513 23.8366 25.9559C23.6121 25.9824 23.3845 25.9619 23.1683 25.8958C23.0921 25.9979 23.0076 26.0935 22.9157 26.1818C22.7192 26.3723 22.4846 26.519 22.2273 26.6122C22.2146 26.7359 22.2288 26.8608 22.2687 26.9785V26.9785C22.2848 26.9972 22.3021 27.0159 22.3235 27.0386C22.4565 27.1805 22.581 27.33 22.6965 27.4864C23.1376 28.0812 23.5934 28.6975 23.4985 29.5128C23.4571 29.8129 23.3523 30.1006 23.1909 30.3569C23.0296 30.6132 22.8154 30.8322 22.5628 30.9992C22.3687 31.1245 22.1543 31.215 21.9292 31.2666C21.9145 31.3307 21.8958 31.4002 21.8704 31.4818C21.7367 31.8908 20.7676 33.678 18.6463 34.2888C18.4244 34.3599 18.1935 34.399 17.9606 34.4051ZM18.9083 31.2519C18.7271 31.5284 18.4824 31.7576 18.1945 31.9202C18.0314 32.0218 17.7828 32.2998 17.7708 32.4175C17.7813 32.4708 17.804 32.521 17.8372 32.5642C17.8703 32.6073 17.913 32.6422 17.9619 32.6661C18.032 32.6587 18.1011 32.6435 18.1677 32.6206C18.6038 32.4912 19.0098 32.2764 19.362 31.9886C19.7143 31.7009 20.0058 31.3459 20.2196 30.9444V30.9271V30.8843V30.9124C20.2196 30.899 20.2196 30.8883 20.2196 30.8776C20.222 30.6349 20.297 30.3984 20.4348 30.1986C20.5489 30.0405 20.6938 29.9071 20.8608 29.8065C21.0278 29.7058 21.2134 29.6401 21.4065 29.6131C21.4726 29.6054 21.5368 29.5864 21.5964 29.5569C21.6771 29.4996 21.7338 29.4143 21.7554 29.3177C21.7715 29.184 21.5121 28.8378 21.2849 28.529C21.2066 28.4224 21.1217 28.3206 21.0309 28.2243C20.8533 28.0448 20.7166 27.8292 20.6299 27.592C20.5845 27.4731 20.2009 26.389 20.8371 25.5402C21.0227 25.2908 21.2802 25.1042 21.575 25.0055C21.6632 24.9721 21.6659 24.9708 21.7086 24.9333C21.8089 24.8222 21.8854 24.6916 21.9332 24.5497C22.0201 24.3425 22.2901 23.717 22.9785 23.741C23.1423 23.7475 23.3018 23.7953 23.4421 23.8802C23.5823 23.9651 23.6988 24.0841 23.7805 24.2262C23.9508 24.2141 24.122 24.224 24.2898 24.2556C24.6849 24.3384 25.047 24.5355 25.3311 24.8224C25.2829 24.6446 25.2589 24.5043 25.2388 24.3906C25.2134 24.2436 25.2134 24.2436 25.188 24.2089C25.1792 24.1953 25.1689 24.1828 25.1573 24.1714C25.0909 24.148 25.023 24.1288 24.9541 24.114C24.5248 24.0231 24.1183 23.8462 23.7591 23.594C23.2548 23.2288 22.8496 22.7437 22.5802 22.1824C22.5334 22.0969 22.4746 21.9859 22.4318 21.9231C22.3636 21.9384 22.2962 21.9571 22.2299 21.9793C21.9158 22.0768 21.3905 22.2466 20.7796 21.9338C20.3831 21.7406 20.0699 21.4105 19.8979 21.0043C19.7259 20.5982 19.7067 20.1435 19.844 19.7243C19.856 19.6735 19.8707 19.6093 19.8774 19.5639C19.8413 19.5465 19.7958 19.5291 19.7664 19.5171C19.6194 19.4596 19.5098 19.4877 19.177 19.6227C18.8441 19.7577 18.2987 19.9769 17.7066 19.739C16.9113 19.4182 16.787 18.6482 16.676 17.9692C16.5854 17.2948 16.4056 16.6354 16.1413 16.0083C15.8677 15.3946 15.5115 14.8212 15.0827 14.304C14.8429 13.9955 14.5758 13.7092 14.2847 13.4485C13.8836 13.1255 13.5633 12.7137 13.349 12.2455C12.9263 11.3271 12.8467 10.2876 13.1244 9.31547C13.2474 8.90377 13.4773 8.13785 14.2111 7.59515C14.4505 7.41942 14.7194 7.28812 15.0051 7.20751L15.0359 7.19815C15.0514 7.01153 15.0249 6.8238 14.9584 6.64877C14.9356 6.58436 14.9006 6.52492 14.8554 6.47367C14.6852 6.26394 14.5691 6.01562 14.5173 5.75052C14.4457 5.3908 14.4853 5.01781 14.6309 4.68117C14.664 4.618 14.6818 4.54796 14.683 4.47665C14.6712 4.32568 14.6134 4.18197 14.5173 4.06495C14.3153 4.15311 14.1034 4.21684 13.8863 4.25476C12.964 4.4165 11.8278 4.03956 11.2263 3.60246C10.9088 3.37949 10.6475 3.08569 10.4631 2.74431C10.4435 2.70845 10.4221 2.67364 10.3989 2.64004C10.3849 2.62818 10.3697 2.61788 10.3535 2.6093C9.93508 2.37003 9.23065 2.53979 9.11435 2.72559C9.10926 2.76148 9.10614 2.79763 9.105 2.83386C9.10543 3.02934 9.06687 3.22294 8.99159 3.40334C8.91631 3.58374 8.80581 3.74731 8.66656 3.8845C8.35184 4.18064 7.93297 4.3406 7.50097 4.32962H7.41141C7.38276 4.45549 7.36311 4.58325 7.3526 4.71191C7.30581 5.14901 7.22695 5.88151 6.55058 6.27851C6.34857 6.39639 6.12222 6.46635 5.88892 6.48302C5.89828 6.51778 5.91833 6.54585 6.00923 6.65412C6.23413 6.90108 6.40004 7.19588 6.49444 7.51628C6.65974 8.12722 6.58464 8.77827 6.28458 9.33552C6.2015 9.49717 6.08597 9.63996 5.94521 9.75495C5.80446 9.86995 5.64151 9.95468 5.46653 10.0039C5.39776 10.0212 5.32749 10.032 5.25667 10.0359C4.61239 10.0747 4.15524 9.66702 3.82107 9.3676C3.74086 9.29542 3.62858 9.19517 3.55373 9.1417C3.3843 9.17635 3.21961 9.23109 3.06316 9.30477C2.92474 9.36158 2.79652 9.44059 2.68354 9.5387C2.70092 9.5788 2.71963 9.62157 2.73567 9.65499C2.80411 9.79534 2.85959 9.94165 2.90142 10.0921C3.13 10.989 2.50844 11.787 1.88821 12.3645C1.92586 13.2671 2.20263 14.1436 2.69023 14.9042C3.07458 15.4741 3.41422 16.0729 3.70611 16.6953L3.72482 16.7354C3.7771 16.6981 3.82546 16.6555 3.86919 16.6084C3.93067 16.5416 3.93736 16.5216 3.9828 16.3531C4.06912 15.9981 4.22495 15.6637 4.44129 15.3693C4.64046 15.102 5.09894 14.4657 5.92902 14.3C6.29528 14.2278 6.62811 14.3 7.18017 14.4337C7.92069 14.6088 8.40992 14.725 8.78419 15.102C9.11828 15.4673 9.32306 15.9322 9.36699 16.4253C9.42211 16.7923 9.39841 17.1669 9.29748 17.5241C9.26106 17.6479 9.24128 17.776 9.23867 17.905C9.24832 18.2153 9.34972 18.5158 9.53007 18.7685C9.6223 18.9022 10.0955 19.1495 10.9349 19.5184C11.4696 19.7537 11.8479 19.902 12.1246 20.0103C12.7381 20.2509 13.1097 20.3966 13.3918 20.9166C13.4131 20.9554 13.4372 21.0035 13.4653 21.0569C13.5562 21.2334 13.7206 21.5582 13.8917 21.7026C13.9211 21.7047 13.9505 21.7047 13.9799 21.7026C14.1578 21.6931 14.3356 21.7214 14.5018 21.7857C14.6679 21.85 14.8185 21.9488 14.9437 22.0755C15.0852 22.2298 15.1897 22.4145 15.249 22.6153C15.3083 22.8162 15.3209 23.0279 15.2858 23.2344V23.2438C15.6539 23.3566 15.9758 23.5848 16.2042 23.8947C16.3727 24.1273 16.4848 24.396 16.5316 24.6794C16.7475 24.7053 16.9527 24.7879 17.1265 24.9186C17.7293 25.3678 17.6879 26.0856 17.6611 26.516C17.6611 26.5694 17.6545 26.6363 17.6518 26.6991C17.8408 26.7705 18.0255 26.8526 18.2052 26.9451C18.5424 27.096 18.8372 27.3279 19.0633 27.6201C19.3587 28.0211 19.4109 28.509 19.2892 29.6799C19.1957 30.5768 19.1008 30.8923 18.9684 31.1342C18.9457 31.1917 18.9216 31.2265 18.9083 31.2505V31.2519ZM20.2129 30.9685V30.9765V30.9685Z" fill="#494949"/>
<path d="M3.9292 30.5648C3.62443 30.5634 3.32353 30.4964 3.04699 30.3683C2.54038 30.1304 2.34122 29.7628 2.16611 29.4326C2.0517 29.2136 1.92357 29.0019 1.78248 28.799C1.64213 28.5985 1.51514 28.4515 1.41489 28.3218C1.1676 28.0211 0.794667 27.5679 1.01388 26.9491C1.11424 26.6738 1.31943 26.4494 1.58465 26.3248L1.50044 26.1912L0.698425 25.0483L0.55139 24.8692C0.298755 24.5698 0.0100306 24.2222 0.0982521 23.6849C0.133462 23.5041 0.207205 23.3331 0.314463 23.1834C0.421721 23.0337 0.559975 22.9088 0.719812 22.8174C0.821401 22.7492 0.837441 22.7358 0.853481 22.7011C0.870515 22.6447 0.882591 22.587 0.889572 22.5286C0.939029 21.8509 1.85332 20.7081 3.16996 20.4701C3.68553 20.3757 4.21691 20.4196 4.70999 20.5974C5.20307 20.7751 5.64025 21.0804 5.97701 21.482C6.47158 22.0942 6.52505 22.7425 6.59723 23.6408C6.64375 24.1309 6.62803 24.6249 6.55045 25.1111C6.49022 25.5015 6.46472 25.8965 6.47426 26.2914C6.47426 26.5748 6.49297 26.8261 6.50634 27.0359C6.54911 27.7324 6.58921 28.3913 6.01043 28.9073C5.81597 29.0758 5.58826 29.2015 5.34208 29.2762C5.34644 29.5903 5.23019 29.8941 5.01727 30.125C4.87651 30.27 4.70702 30.384 4.51966 30.4598C4.3323 30.5355 4.13119 30.5713 3.9292 30.5648V30.5648ZM3.06169 27.6174C3.10714 27.6789 3.15481 27.7448 3.20472 27.8152C3.38294 28.0722 3.54499 28.3401 3.68994 28.6172C3.71949 28.5325 3.75662 28.4507 3.80088 28.3726C3.90504 28.1942 4.04346 28.038 4.20817 27.9133C4.37287 27.7885 4.56062 27.6975 4.76062 27.6455L4.80072 27.6321C4.80072 27.5091 4.79137 27.3126 4.78067 27.1469C4.76731 26.9237 4.74993 26.6456 4.74592 26.3222C4.73494 25.8387 4.7658 25.3553 4.83815 24.8772C4.89857 24.5155 4.91071 24.1473 4.87424 23.7824C4.80874 22.9737 4.77265 22.7465 4.63364 22.5794C4.49229 22.4209 4.31257 22.3014 4.11174 22.2324C3.9109 22.1633 3.69569 22.147 3.48676 22.1851V22.1851C3.3097 22.2229 3.14183 22.2953 2.99275 22.3981C2.84367 22.5008 2.7163 22.6319 2.61791 22.7839C2.59996 22.9171 2.57272 23.0489 2.53637 23.1783C2.49903 23.3098 2.44608 23.4363 2.37864 23.5552C2.2931 23.7088 2.18647 23.8496 2.06185 23.9736L2.07655 23.991L2.11131 24.0364L2.97213 25.2622C3.40656 25.9572 3.74875 26.5066 3.46671 27.1335C3.37853 27.3288 3.23843 27.4962 3.06169 27.6174V27.6174Z" fill="#494949"/>
<path d="M14.4411 40.3334C14.3302 40.3332 14.2204 40.3119 14.1176 40.2705C10.8414 38.9552 8.86308 37.9768 8.23618 37.3619C8.12523 37.2523 8.03033 37.1387 8.01161 37.1159C7.22297 36.1308 6.99306 35.1283 7.35931 34.2862C7.76032 33.3505 8.87244 32.7517 9.93912 32.892C10.4056 32.9588 10.837 33.1778 11.1662 33.5149C11.2116 33.5563 11.2718 33.6111 11.2999 33.6339C11.3841 33.6232 11.61 33.3946 11.7209 33.2823C12.0578 32.9415 12.5671 32.4268 13.333 32.5431C14.0989 32.6594 14.3555 33.2208 14.8381 34.3356C14.9624 34.6244 15.1188 34.9853 15.3126 35.417C15.4316 35.6844 15.5385 35.9129 15.6348 36.1201C16.1828 37.3071 16.4582 37.9019 16.1788 38.7307C15.9756 39.3308 15.5211 39.8455 14.8608 40.2197C14.7328 40.2925 14.5884 40.3316 14.4411 40.3334V40.3334ZM8.96066 34.9786C8.87111 35.1858 9.03552 35.6055 9.36835 36.0225C9.36835 36.0292 9.42182 36.0854 9.46326 36.1255C9.76802 36.4262 11.2264 37.2175 14.3315 38.482C14.4257 38.3993 14.4983 38.2946 14.5427 38.1773C14.5948 38.0209 14.4932 37.7763 14.0682 36.8499C13.9706 36.6388 13.861 36.4022 13.7393 36.1321C13.5388 35.687 13.3798 35.3208 13.2528 35.0254C13.1645 34.8222 13.079 34.6244 13.0068 34.464L12.9654 34.5054C12.5991 34.8757 12.0457 35.4411 11.1702 35.3662C10.7245 35.3221 10.3092 35.1202 9.99927 34.7968C9.83486 34.6457 9.80278 34.6257 9.71857 34.615C9.43519 34.5776 9.05022 34.7607 8.95933 34.9772L8.96066 34.9786Z" fill="#494949"/>
</svg>
