<svg width="18" height="25" fill="none" xmlns="http://www.w3.org/2000/svg"><path d="M11.292 21.256c-.1 0-.201-.014-.299-.041a1.3 1.3 0 01-.917-1.267c.032-.618.59-1.077.805-1.202l.01-.005a.234.234 0 00.073-.06 3.22 3.22 0 00.077-.507c.024-.189.034-.379.03-.569a1.165 1.165 0 00-.116-.065 1.543 1.543 0 00-.301-.124.653.653 0 01-.327-.15c-.363-.312-.337-.769-.32-1.042v-.018a.85.85 0 01-.325-.139.899.899 0 01-.365-.675.293.293 0 00-.023-.11c-.014-.008-.047-.018-.072-.027a.993.993 0 01-.59-.457 1.005 1.005 0 01-.13-.474 1.109 1.109 0 01-.433-.193c-.31-.238-.494-.597-.59-.79l-.019-.036a4.447 4.447 0 00-.253-.102c-.183-.072-.435-.169-.793-.328-.917-.403-1.154-.584-1.335-.835a2.095 2.095 0 01-.392-1.188 1.97 1.97 0 01.068-.501.584.584 0 00.025-.273.576.576 0 00-.06-.22 3.83 3.83 0 00-.486-.133 4.283 4.283 0 00-.343-.073c-.096.032-.193.164-.246.236a.67.67 0 00-.119.267c-.051.23-.163.443-.323.616-.296.32-.819.624-1.323.422-.344-.136-.48-.432-.57-.628l-.012-.024a7.303 7.303 0 00-.56-.987l-.005-.008a4.373 4.373 0 01-.691-2.464l.004-.244.187-.16c.358-.308.452-.48.474-.536l-.032-.064c-.094-.206-.27-.59-.055-.992a1.756 1.756 0 01.797-.677c.17-.079.349-.138.532-.176l.024-.005c.067-.018.136-.028.206-.032.33-.011.582.157.777.32a1.27 1.27 0 00-.061-.076 1.266 1.266 0 01-.325-.676c-.085-.579.15-.88.297-1.008a.902.902 0 01.612-.223c.007-.046.013-.1.018-.143.03-.287.077-.72.463-1.013.188-.137.414-.211.646-.212.015-.178.073-.35.169-.501.408-.655 1.504-.87 2.253-.443.203.113.368.284.475.49a.51.51 0 00.18.203c.182.134.607.26.844.219a.74.74 0 00.19-.063c.2-.102.43-.127.648-.07.59.157.934.793.953 1.312a1.33 1.33 0 01-.103.558.96.96 0 00-.023.064l.013.017c.094.118.17.25.222.392.052.14.295.861-.097 1.403-.14.191-.343.327-.573.384a.513.513 0 00-.177.08c-.169.126-.235.345-.288.52-.098.357-.068.737.085 1.074.084.183.155.247.327.401.23.201.443.422.634.66.334.406.61.856.822 1.337.203.479.341.982.412 1.497.012.072.024.153.038.22l.044-.018c.254-.1.676-.271 1.182-.071.147.057.482.189.663.552.122.265.143.565.057.844-.01.044-.02.089-.025.134.008.011.017.02.028.028.027-.006.073-.02.108-.031a1.35 1.35 0 01.675-.068c.5.09.704.471.84.724.106.195.196.364.41.513.115.08.247.135.385.16a1.212 1.212 0 011 1.054c.025.163.075.322.147.47.038.085.071.147.104.209.105.179.174.377.2.583.084.714-.185 1.042-.428 1.193-.413.253-.917.112-1.21-.128a1.013 1.013 0 01-.353-.62.706.706 0 00-.084-.24c-.143-.241-.233-.282-.265-.288a.41.41 0 00-.084 0 1.029 1.029 0 01-.423-.037 1.473 1.473 0 01-.16.18c-.123.12-.271.213-.434.272a.549.549 0 00.026.231l.035.038c.084.09.162.184.235.283.279.376.567.765.507 1.28a1.345 1.345 0 01-.591.939 1.272 1.272 0 01-.4.169c-.01.04-.021.084-.037.136-.085.258-.697 1.387-2.037 1.772-.14.045-.286.07-.433.074zm.599-1.992a1.31 1.31 0 01-.451.422c-.103.065-.26.24-.268.314a.223.223 0 00.121.157.584.584 0 00.13-.028 2.167 2.167 0 001.296-1.059v-.042a.77.77 0 01.136-.429.913.913 0 01.614-.37.365.365 0 00.12-.035.254.254 0 00.1-.151c.01-.085-.154-.303-.297-.498a2.05 2.05 0 00-.16-.193 1.109 1.109 0 01-.254-.4c-.028-.074-.27-.759.131-1.295a.962.962 0 01.466-.338c.056-.02.058-.022.085-.045a.692.692 0 00.141-.243c.055-.13.226-.526.66-.51a.613.613 0 01.507.306 1.24 1.24 0 01.322.019 1.3 1.3 0 01.657.358c-.03-.113-.045-.201-.058-.273-.016-.093-.016-.093-.032-.115a.142.142 0 00-.02-.024 1.058 1.058 0 00-.128-.036 2.053 2.053 0 01-.755-.328 2.364 2.364 0 01-.744-.892c-.03-.054-.067-.124-.094-.163-.043.01-.085.021-.127.035-.199.062-.53.169-.916-.029a1.153 1.153 0 01-.591-1.395c.007-.032.017-.073.02-.102l-.07-.03c-.092-.035-.161-.018-.372.068-.21.085-.554.223-.928.073-.502-.203-.581-.689-.651-1.118a4.857 4.857 0 00-.338-1.238 4.662 4.662 0 00-.668-1.077 4.113 4.113 0 00-.504-.54 2.095 2.095 0 01-.591-.76 2.671 2.671 0 01-.142-1.85c.078-.26.223-.744.686-1.087.151-.11.321-.194.502-.245l.02-.005a.791.791 0 00-.05-.347.338.338 0 00-.065-.111 1.042 1.042 0 01-.213-.457 1.14 1.14 0 01.071-.675.289.289 0 00.033-.13.467.467 0 00-.104-.26 1.75 1.75 0 01-.399.12c-.582.103-1.3-.135-1.68-.411a1.58 1.58 0 01-.482-.542.732.732 0 00-.04-.066.16.16 0 00-.03-.02c-.263-.15-.708-.044-.782.074a.626.626 0 00-.006.068.929.929 0 01-.277.664 1.036 1.036 0 01-.736.28H4.63c-.018.08-.03.161-.037.242-.03.276-.08.739-.507.99a.966.966 0 01-.418.129c.006.022.019.04.076.108.142.156.247.342.307.544a1.57 1.57 0 01-.133 1.15.835.835 0 01-.517.422.703.703 0 01-.132.02c-.407.024-.696-.233-.907-.422a2.38 2.38 0 00-.169-.143 1.372 1.372 0 00-.31.103.869.869 0 00-.24.148c.012.025.023.052.034.073.043.089.078.181.104.276.145.567-.248 1.07-.64 1.435a3.22 3.22 0 00.507 1.604c.243.36.457.739.641 1.132l.012.025a.605.605 0 00.091-.08c.04-.042.044-.055.072-.161.055-.225.153-.436.29-.622.126-.169.415-.57.94-.675.23-.046.44 0 .79.084.467.11.776.184 1.013.422.21.231.34.525.368.836.035.232.02.469-.044.694a.918.918 0 00-.037.24.99.99 0 00.184.546c.058.084.357.24.887.474.338.148.577.242.751.31.388.152.623.244.8.573.014.024.03.055.047.088.058.112.161.317.27.408a.399.399 0 00.055 0 .796.796 0 01.609.236.868.868 0 01.216.732v.006a1.134 1.134 0 01.787.906.78.78 0 01.375.151c.381.284.355.737.338 1.01 0 .033-.004.075-.006.115.12.045.236.097.35.155.213.096.399.242.542.427.186.253.22.561.142 1.3-.059.567-.119.766-.202.919-.014.036-.03.058-.038.073v.001zm.824-.179v.005-.005z" fill="#fff"/><path d="M2.43 18.83a1.34 1.34 0 01-.557-.124c-.32-.15-.446-.382-.557-.59a3.708 3.708 0 00-.242-.4c-.089-.127-.169-.22-.232-.302-.156-.19-.392-.476-.253-.867a.7.7 0 01.36-.394l-.053-.085-.507-.722-.093-.113c-.16-.189-.341-.408-.286-.748a.809.809 0 01.393-.548c.064-.043.074-.051.084-.073a.64.64 0 00.023-.109c.031-.428.609-1.15 1.44-1.3a1.874 1.874 0 011.773.639c.313.387.346.796.392 1.363.03.31.02.622-.03.93a4.22 4.22 0 00-.048.744c0 .18.012.338.02.47.027.44.053.857-.313 1.183a1.159 1.159 0 01-.422.233.775.775 0 01-.205.536.916.916 0 01-.687.277zm-.548-1.861a4.761 4.761 0 01.397.631.943.943 0 01.327-.444.992.992 0 01.349-.17l.025-.008c0-.077-.006-.202-.012-.306a9.317 9.317 0 01-.022-.521c-.007-.305.012-.61.058-.913a2.62 2.62 0 00.023-.691c-.042-.51-.065-.654-.152-.76a.783.783 0 00-.725-.249.87.87 0 00-.548.378 1.82 1.82 0 01-.052.25 1.188 1.188 0 01-.3.502l.01.01.022.03.543.774c.275.439.49.785.313 1.181a.739.739 0 01-.256.306zM9.068 25a.55.55 0 01-.205-.04c-2.069-.83-3.318-1.448-3.714-1.837-.07-.069-.13-.14-.142-.155-.498-.622-.643-1.255-.412-1.787.253-.591.956-.97 1.63-.88.294.041.566.18.774.393l.085.075c.053-.007.196-.151.266-.222.213-.216.534-.54 1.018-.467.484.073.646.428.95 1.132.079.182.178.41.3.683.075.169.143.313.204.444.346.75.52 1.125.343 1.649-.128.379-.415.704-.832.94a.55.55 0 01-.265.072zm-3.462-3.382c-.056.131.048.396.258.66 0 .004.034.04.06.064.192.19 1.113.69 3.075 1.489a.485.485 0 00.133-.193c.033-.098-.031-.253-.3-.838l-.207-.453a43.69 43.69 0 01-.308-.7l-.155-.354-.026.026c-.232.234-.581.591-1.134.544a1.186 1.186 0 01-.74-.36c-.103-.095-.124-.108-.177-.114-.179-.024-.422.091-.48.228l.001.001z" fill="#fff"/></svg>