<svg width="28" height="41" fill="none" xmlns="http://www.w3.org/2000/svg"><path d="M17.96 34.405c-.16 0-.319-.022-.473-.065a2.057 2.057 0 01-1.453-2.005c.051-.979.936-1.706 1.276-1.904l.014-.008a.372.372 0 00.117-.096 5.1 5.1 0 00.121-.802c.039-.298.055-.6.05-.9a1.827 1.827 0 00-.186-.103 2.44 2.44 0 00-.476-.197 1.033 1.033 0 01-.517-.238c-.575-.494-.535-1.217-.507-1.648v-.03a1.346 1.346 0 01-.514-.22 1.42 1.42 0 01-.58-1.069c0-.06-.012-.12-.035-.175a1.87 1.87 0 00-.114-.041c-.394-.11-.73-.37-.936-.723-.129-.23-.2-.488-.204-.751a1.765 1.765 0 01-.329-.102 1.598 1.598 0 01-.357-.204c-.49-.376-.782-.946-.936-1.252l-.028-.056a7.028 7.028 0 00-.4-.162c-.29-.113-.69-.267-1.256-.518-1.453-.64-1.827-.925-2.114-1.323a3.318 3.318 0 01-.62-1.88c.001-.268.038-.535.108-.794a.925.925 0 00.038-.432.911.911 0 00-.093-.347 6.07 6.07 0 00-.771-.211c-.2-.047-.444-.106-.543-.117-.153.051-.305.26-.39.375-.092.125-.157.27-.188.422-.081.364-.258.7-.512.974-.467.508-1.296.99-2.094.669-.544-.215-.76-.683-.904-.993l-.017-.04a11.56 11.56 0 00-.888-1.562l-.008-.013a6.924 6.924 0 01-1.095-3.902l.009-.385.295-.252c.567-.49.715-.762.751-.85l-.05-.1c-.15-.328-.428-.937-.088-1.573A2.78 2.78 0 012.325 7.73c.27-.124.552-.218.842-.278l.038-.008c.107-.028.216-.045.326-.05.524-.018.921.248 1.231.507a2.007 2.007 0 00-.097-.121 2.005 2.005 0 01-.515-1.07c-.134-.917.238-1.394.47-1.596.268-.235.614-.36.97-.354.01-.072.02-.159.028-.226.049-.454.123-1.14.733-1.604a1.738 1.738 0 011.023-.335c.023-.283.115-.555.267-.794.646-1.036 2.382-1.377 3.568-.7.321.179.583.448.752.774a.827.827 0 00.284.323c.289.21.962.411 1.337.346.104-.02.206-.053.302-.1a1.451 1.451 0 011.025-.111c.936.248 1.478 1.256 1.509 2.078.01.303-.046.604-.163.884-.013.033-.03.079-.036.101l.02.026c.15.187.268.397.351.621.083.22.467 1.364-.153 2.222a1.604 1.604 0 01-.907.608.81.81 0 00-.28.127c-.268.2-.373.545-.456.822a2.505 2.505 0 00.134 1.702c.133.288.246.39.518.635.365.318.7.668 1.004 1.045a9.054 9.054 0 011.3 2.116c.322.758.541 1.555.653 2.37.019.113.039.242.06.349l.071-.028c.401-.16 1.07-.43 1.871-.114.233.09.762.3 1.05.874.193.42.225.895.09 1.337-.018.07-.03.14-.04.212a.178.178 0 00.045.044c.042-.009.114-.032.17-.049a2.14 2.14 0 011.07-.108c.79.144 1.115.747 1.33 1.147.167.309.31.576.648.812.183.128.39.214.61.254a1.918 1.918 0 011.584 1.669c.04.258.118.509.232.744.06.134.113.233.165.33.167.284.275.598.317.924.133 1.13-.293 1.65-.678 1.889-.654.4-1.452.177-1.917-.203a1.604 1.604 0 01-.557-.982 1.114 1.114 0 00-.134-.38c-.227-.382-.369-.446-.42-.455a.65.65 0 00-.133 0 1.632 1.632 0 01-.669-.06c-.076.102-.16.197-.252.286a1.94 1.94 0 01-.689.43.866.866 0 00.042.367 4.986 4.986 0 01.428.508c.44.594.896 1.21.801 2.026a2.13 2.13 0 01-.935 1.486 1.987 1.987 0 01-.634.268 2.894 2.894 0 01-.059.215c-.133.409-1.102 2.196-3.224 2.807-.222.07-.453.11-.685.116zm.948-3.153a2.071 2.071 0 01-.713.668c-.164.102-.412.38-.424.497a.353.353 0 00.19.25.935.935 0 00.207-.046 3.429 3.429 0 002.052-1.677v-.066c.002-.243.077-.48.215-.68a1.445 1.445 0 01.972-.585.579.579 0 00.19-.056.4.4 0 00.158-.24c.017-.133-.243-.48-.47-.788a3.242 3.242 0 00-.254-.305 1.756 1.756 0 01-.401-.632c-.046-.119-.43-1.203.207-2.052.186-.25.443-.436.738-.534.088-.034.09-.035.134-.073.1-.11.176-.241.224-.383.087-.207.357-.833 1.046-.809a.97.97 0 01.802.485 1.99 1.99 0 01.509.03c.395.082.757.28 1.041.566-.048-.177-.072-.318-.092-.431-.026-.147-.026-.147-.051-.182a.22.22 0 00-.03-.038 1.661 1.661 0 00-.204-.057 3.252 3.252 0 01-1.195-.52 3.742 3.742 0 01-1.179-1.412c-.047-.085-.105-.196-.148-.259a2.047 2.047 0 00-.202.056c-.314.098-.84.268-1.45-.045a1.826 1.826 0 01-.936-2.21c.012-.05.027-.115.033-.16-.036-.017-.081-.035-.11-.047-.148-.057-.257-.03-.59.106-.333.135-.878.354-1.47.116-.796-.32-.92-1.09-1.031-1.77a7.683 7.683 0 00-.535-1.96 7.376 7.376 0 00-1.058-1.705 6.52 6.52 0 00-.798-.856 3.317 3.317 0 01-.936-1.203 4.23 4.23 0 01-.225-2.93c.123-.411.353-1.177 1.087-1.72a2.48 2.48 0 01.794-.387l.03-.01a1.255 1.255 0 00-.077-.55.534.534 0 00-.103-.174 1.65 1.65 0 01-.338-.723 1.806 1.806 0 01.114-1.07.457.457 0 00.052-.204.74.74 0 00-.166-.412 2.769 2.769 0 01-.63.19c-.923.162-2.06-.215-2.66-.653a2.501 2.501 0 01-.764-.858 1.177 1.177 0 00-.064-.104.254.254 0 00-.045-.03c-.419-.24-1.123-.07-1.24.116a.994.994 0 00-.009.108 1.47 1.47 0 01-.438 1.05A1.64 1.64 0 017.5 4.33h-.09a2.72 2.72 0 00-.058.382c-.047.437-.126 1.17-.802 1.567a1.529 1.529 0 01-.662.204c.01.035.03.063.12.171.225.247.391.542.485.862.166.611.09 1.262-.21 1.82a1.322 1.322 0 01-.817.668 1.11 1.11 0 01-.21.032c-.645.039-1.102-.369-1.436-.668a3.767 3.767 0 00-.267-.226c-.17.034-.334.09-.49.163a1.375 1.375 0 00-.38.234c.017.04.036.083.052.116.068.14.124.287.165.437.229.897-.393 1.695-1.013 2.272a5.1 5.1 0 00.802 2.54c.385.57.724 1.169 1.016 1.791l.019.04a.95.95 0 00.144-.127c.062-.066.068-.086.114-.255.086-.355.242-.69.458-.984.2-.267.658-.903 1.488-1.069.366-.072.7 0 1.251.134.74.175 1.23.291 1.604.668.334.365.54.83.583 1.323.055.367.031.742-.07 1.1a1.454 1.454 0 00-.058.38c.01.31.11.61.291.863.092.134.566.381 1.405.75.535.236.913.384 1.19.492.613.24.985.387 1.267.907.021.038.045.086.073.14.091.176.256.501.427.646.03.002.059.002.088 0a1.26 1.26 0 01.964.373 1.375 1.375 0 01.342 1.158v.01a1.794 1.794 0 011.246 1.435c.215.026.42.109.595.24.602.449.56 1.167.534 1.597 0 .053-.007.12-.01.183.19.071.375.154.554.246.337.151.632.383.858.675.296.401.348.889.226 2.06-.093.897-.188 1.212-.32 1.454-.023.058-.047.093-.06.116v.002zm1.305-.284v.009-.009z" fill="#494949"/><path d="M3.93 30.565a2.122 2.122 0 01-.883-.197c-.507-.238-.706-.605-.88-.935a5.874 5.874 0 00-.385-.634c-.14-.2-.267-.348-.367-.477-.247-.3-.62-.754-.401-1.373.1-.275.305-.5.57-.624L1.5 26.19l-.802-1.143-.147-.179c-.252-.3-.541-.647-.453-1.184a1.282 1.282 0 01.622-.868c.101-.068.117-.081.133-.116a.925.925 0 00.037-.172c.049-.678.963-1.82 2.28-2.059a2.965 2.965 0 012.807 1.012c.495.612.548 1.26.62 2.159.047.49.031.984-.047 1.47a6.75 6.75 0 00-.076 1.18c0 .284.019.535.032.745.043.696.083 1.355-.496 1.871a1.834 1.834 0 01-.668.37c.004.313-.112.617-.325.848a1.453 1.453 0 01-1.088.44zm-.868-2.948l.143.198c.178.257.34.525.485.802a1.494 1.494 0 01.518-.704c.165-.125.353-.215.553-.268l.04-.013c0-.123-.01-.32-.02-.485a15.795 15.795 0 01-.035-.825 8.42 8.42 0 01.092-1.445c.06-.361.073-.73.036-1.095-.065-.808-.101-1.035-.24-1.203a1.239 1.239 0 00-1.147-.394 1.377 1.377 0 00-.87.599 2.881 2.881 0 01-.08.394 1.882 1.882 0 01-.475.795l.015.018.034.045.861 1.226c.435.695.777 1.245.495 1.872a1.171 1.171 0 01-.405.483zm11.379 12.716a.87.87 0 01-.323-.063c-3.277-1.315-5.255-2.293-5.882-2.908a3.545 3.545 0 01-.224-.246c-.789-.985-1.019-1.988-.653-2.83.401-.936 1.513-1.534 2.58-1.394.467.067.898.286 1.227.623.046.041.106.096.134.119.084-.01.31-.24.42-.352.338-.34.847-.855 1.613-.739.766.116 1.022.678 1.505 1.793.124.288.28.65.475 1.081.119.267.226.496.322.703.548 1.187.823 1.782.544 2.61-.203.6-.658 1.116-1.318 1.49a.87.87 0 01-.42.113zm-5.48-5.354c-.09.207.075.627.407 1.044a.77.77 0 00.095.102c.305.301 1.763 1.093 4.869 2.357a.767.767 0 00.21-.305c.053-.156-.049-.4-.474-1.327-.097-.211-.207-.448-.329-.718-.2-.445-.36-.811-.486-1.107-.088-.203-.174-.4-.246-.561l-.042.041c-.366.37-.92.936-1.795.861a1.878 1.878 0 01-1.17-.57c-.165-.15-.197-.17-.281-.181-.284-.037-.669.146-.76.362l.002.002z" fill="#494949"/></svg>