<svg width="19" height="17" viewBox="0 0 19 17" fill="none" xmlns="http://www.w3.org/2000/svg">
<path d="M14.8244 13.5245C15.3191 13.5245 15.7936 13.7013 16.1434 14.0162C16.4932 14.331 16.6898 14.7581 16.6898 15.2033C16.6898 15.6486 16.4932 16.0756 16.1434 16.3904C15.7936 16.7053 15.3191 16.8822 14.8244 16.8822C14.3297 16.8822 13.8552 16.7053 13.5054 16.3904C13.1555 16.0756 12.959 15.6486 12.959 15.2033C12.959 14.7581 13.1555 14.331 13.5054 14.0162C13.8552 13.7013 14.3297 13.5245 14.8244 13.5245ZM14.8244 14.3639C14.577 14.3639 14.3398 14.4523 14.1649 14.6098C13.99 14.7672 13.8917 14.9807 13.8917 15.2033C13.8917 15.4259 13.99 15.6395 14.1649 15.7969C14.3398 15.9543 14.577 16.0427 14.8244 16.0427C15.0718 16.0427 15.309 15.9543 15.4839 15.7969C15.6588 15.6395 15.7571 15.4259 15.7571 15.2033C15.7571 14.9807 15.6588 14.7672 15.4839 14.6098C15.309 14.4523 15.0718 14.3639 14.8244 14.3639ZM6.43015 13.5245C6.92488 13.5245 7.39935 13.7013 7.74917 14.0162C8.099 14.331 8.29553 14.7581 8.29553 15.2033C8.29553 15.6486 8.099 16.0756 7.74917 16.3904C7.39935 16.7053 6.92488 16.8822 6.43015 16.8822C5.93541 16.8822 5.46095 16.7053 5.11112 16.3904C4.76129 16.0756 4.56476 15.6486 4.56476 15.2033C4.56476 14.7581 4.76129 14.331 5.11112 14.0162C5.46095 13.7013 5.93541 13.5245 6.43015 13.5245ZM6.43015 14.3639C6.18278 14.3639 5.94555 14.4523 5.77063 14.6098C5.59572 14.7672 5.49745 14.9807 5.49745 15.2033C5.49745 15.4259 5.59572 15.6395 5.77063 15.7969C5.94555 15.9543 6.18278 16.0427 6.43015 16.0427C6.67751 16.0427 6.91475 15.9543 7.08966 15.7969C7.26457 15.6395 7.36284 15.4259 7.36284 15.2033C7.36284 14.9807 7.26457 14.7672 7.08966 14.6098C6.91475 14.4523 6.67751 14.3639 6.43015 14.3639ZM16.6898 3.45138H3.88669L6.26226 8.48792H13.8917C14.0367 8.48812 14.1798 8.4577 14.3094 8.39909C14.439 8.34048 14.5515 8.25533 14.6378 8.15047L17.4359 4.79278H17.4369C17.5403 4.668 17.6031 4.5198 17.6184 4.36472C17.6336 4.20965 17.6006 4.05382 17.5231 3.91465C17.4456 3.77548 17.3266 3.65845 17.1795 3.57663C17.0323 3.49482 16.8628 3.45146 16.6898 3.45138ZM13.8917 9.32735H6.30517L5.59072 10.6368L5.49745 11.0062C5.49745 11.2288 5.59572 11.4423 5.77063 11.5998C5.94555 11.7572 6.18278 11.8456 6.43015 11.8456H16.6898V12.685H6.43015C6.10535 12.6852 5.78614 12.609 5.50411 12.464C5.22207 12.3191 4.98698 12.1103 4.82209 11.8585C4.65721 11.6066 4.56825 11.3204 4.56401 11.0281C4.55977 10.7358 4.64041 10.4476 4.79793 10.192L5.46947 8.95464L2.08193 1.77253H0.833984V0.933105H2.69937L3.49123 2.61195H16.6898C17.0422 2.61198 17.3874 2.70187 17.6855 2.87121C17.9835 3.04055 18.2221 3.28241 18.3737 3.56877C18.5252 3.85514 18.5836 4.17429 18.5419 4.48926C18.5002 4.80424 18.3603 5.10214 18.1382 5.34848L15.4204 8.61048C15.2485 8.83192 15.0198 9.01274 14.7537 9.13755C14.4875 9.26236 14.1918 9.32747 13.8917 9.32735Z" fill="black"/>
</svg>
