<svg width="19" height="17" fill="none" xmlns="http://www.w3.org/2000/svg"><path d="M14.824 13.524c.495 0 .97.177 1.32.492.35.315.546.742.546 1.187 0 .446-.197.873-.547 1.187-.35.315-.824.492-1.319.492-.494 0-.969-.177-1.319-.492a1.598 1.598 0 01-.546-1.187c0-.445.197-.872.546-1.187.35-.315.825-.492 1.32-.492zm0 .84a.987.987 0 00-.66.246.8.8 0 00-.272.593.8.8 0 00.273.594.988.988 0 00.66.246.988.988 0 00.659-.246.8.8 0 00.273-.594.8.8 0 00-.273-.593.987.987 0 00-.66-.246zm-8.394-.84c.495 0 .97.177 1.32.492.349.315.546.742.546 1.187 0 .446-.197.873-.547 1.187-.35.315-.824.492-1.319.492s-.969-.177-1.319-.492a1.598 1.598 0 01-.546-1.187c0-.445.196-.872.546-1.187.35-.315.824-.492 1.32-.492zm0 .84a.987.987 0 00-.66.246.8.8 0 00-.273.593.8.8 0 00.274.594.988.988 0 00.66.246.988.988 0 00.659-.246.8.8 0 00.273-.594.8.8 0 00-.273-.593.987.987 0 00-.66-.246zM16.69 3.45H3.887l2.375 5.037h7.63c.145 0 .288-.03.417-.089a.91.91 0 00.329-.249l2.798-3.357a.768.768 0 00.086-.878.88.88 0 00-.342-.338 1.011 1.011 0 00-.49-.126zm-2.798 5.876H6.305l-.714 1.31-.094.37a.8.8 0 00.274.593.988.988 0 00.66.246H16.69v.839H6.43c-.325 0-.644-.076-.926-.221a1.787 1.787 0 01-.682-.606 1.555 1.555 0 01-.258-.83c-.004-.292.076-.58.234-.836l.671-1.237-3.387-7.182H.834v-.84h1.865l.792 1.679H16.69c.352 0 .697.09.995.26.299.169.537.41.689.697.151.286.21.605.168.92a1.597 1.597 0 01-.404.86L15.42 8.61c-.171.222-.4.403-.666.528-.266.124-.562.19-.862.19z" fill="#000"/></svg>