<svg width="18" height="16" fill="none" xmlns="http://www.w3.org/2000/svg"><path d="M3.612 9.549l-.465.454.465-.454L.75 6.611a.349.349 0 01.19-.586l4.14-.753a1.652 1.652 0 001.145-.816L8.264.83a.354.354 0 01.615 0l2.039 3.627c.24.43.66.728 1.145.816l4.14.753c.28.05.384.387.19.586L13.531 9.55c-.353.362-.52.867-.454 1.368l.54 4.036a.352.352 0 01-.497.363L9.264 13.54a1.654 1.654 0 00-1.385 0l.241.523-.24-.523-3.857 1.776a.352.352 0 01-.497-.363l.54-4.036a1.648 1.648 0 00-.454-1.368z" stroke="#000" stroke-width="1.3"/></svg>