<svg width="18" height="16" viewBox="0 0 18 16" fill="none" xmlns="http://www.w3.org/2000/svg">
<path d="M3.61219 9.54903L3.14661 10.0026L3.61219 9.54903L0.749878 6.61105C0.556142 6.41219 0.660783 6.07531 0.939677 6.02462L5.08032 5.27215C5.56422 5.18422 5.98424 4.88548 6.22535 4.45646L8.26379 0.829259C8.39812 0.590247 8.74474 0.590246 8.87906 0.82926L10.9175 4.45646C11.1586 4.88548 11.5786 5.18422 12.0625 5.27215L16.2032 6.02462C16.4821 6.0753 16.5867 6.41219 16.393 6.61105L13.5307 9.54903C13.1777 9.91137 13.0103 10.4156 13.0774 10.9172L13.617 14.953C13.6531 15.2225 13.375 15.4335 13.1196 15.3158L9.26369 13.5396C8.82444 13.3372 8.31842 13.3372 7.87917 13.5396L8.12037 14.0632L7.87917 13.5396L4.02331 15.3158C3.76785 15.4335 3.48977 15.2225 3.52581 14.953L4.06545 10.9172C4.13252 10.4156 3.96519 9.91137 3.61219 9.54903Z" stroke="black" stroke-width="1.3"/>
</svg>
