<svg width="17" height="16" viewBox="0 0 17 16" fill="none" xmlns="http://www.w3.org/2000/svg">
<path d="M0.708333 3.16677H2.64633C2.79837 3.69325 3.13025 4.15801 3.59077 4.48936C4.0513 4.82071 4.61488 5.00024 5.19456 5.00024C5.77425 5.00024 6.33783 4.82071 6.79835 4.48936C7.25888 4.15801 7.59076 3.69325 7.74279 3.16677H16.2917C16.4795 3.16677 16.6597 3.09653 16.7925 2.97151C16.9254 2.84649 17 2.67693 17 2.50012C17 2.32331 16.9254 2.15375 16.7925 2.02872C16.6597 1.9037 16.4795 1.83347 16.2917 1.83347H7.74279C7.59076 1.30699 7.25888 0.842225 6.79835 0.510874C6.33783 0.179524 5.77425 0 5.19456 0C4.61488 0 4.0513 0.179524 3.59077 0.510874C3.13025 0.842225 2.79837 1.30699 2.64633 1.83347H0.708333C0.520472 1.83347 0.340304 1.9037 0.207466 2.02872C0.0746278 2.15375 0 2.32331 0 2.50012C0 2.67693 0.0746278 2.84649 0.207466 2.97151C0.340304 3.09653 0.520472 3.16677 0.708333 3.16677ZM5.19421 1.33348C5.43937 1.33348 5.67904 1.4019 5.88288 1.53009C6.08673 1.65828 6.24561 1.84049 6.33943 2.05366C6.43325 2.26684 6.4578 2.50141 6.40997 2.72772C6.36214 2.95403 6.24408 3.1619 6.07073 3.32506C5.89737 3.48822 5.67649 3.59933 5.43604 3.64434C5.19558 3.68936 4.94634 3.66626 4.71984 3.57795C4.49334 3.48965 4.29974 3.34012 4.16353 3.14827C4.02733 2.95642 3.95463 2.73086 3.95463 2.50012C3.955 2.19081 4.08572 1.89428 4.3181 1.67557C4.55049 1.45686 4.86557 1.33383 5.19421 1.33348Z" fill="black"/>
<path d="M16.2917 7.33335H14.3537C14.2019 6.80675 13.8701 6.34181 13.4096 6.01033C12.9492 5.67884 12.3855 5.49923 11.8058 5.49923C11.226 5.49923 10.6624 5.67884 10.2019 6.01033C9.74144 6.34181 9.4097 6.80675 9.25792 7.33335H0.708333C0.520472 7.33335 0.340304 7.40358 0.207466 7.5286C0.0746278 7.65363 0 7.82319 0 8C0 8.17681 0.0746278 8.34637 0.207466 8.47139C0.340304 8.59641 0.520472 8.66665 0.708333 8.66665H9.25792C9.4097 9.19325 9.74144 9.65818 10.2019 9.98967C10.6624 10.3212 11.226 10.5008 11.8058 10.5008C12.3855 10.5008 12.9492 10.3212 13.4096 9.98967C13.8701 9.65818 14.2019 9.19325 14.3537 8.66665H16.2917C16.4795 8.66665 16.6597 8.59641 16.7925 8.47139C16.9254 8.34637 17 8.17681 17 8C17 7.82319 16.9254 7.65363 16.7925 7.5286C16.6597 7.40358 16.4795 7.33335 16.2917 7.33335ZM11.8058 9.16664C11.5606 9.16664 11.321 9.09822 11.1171 8.97003C10.9133 8.84183 10.7544 8.65963 10.6606 8.44645C10.5667 8.23328 10.5422 7.9987 10.59 7.7724C10.6379 7.54609 10.7559 7.33822 10.9293 7.17506C11.1026 7.0119 11.3235 6.90079 11.564 6.85577C11.8044 6.81076 12.0537 6.83386 12.2802 6.92216C12.5067 7.01046 12.7003 7.15999 12.8365 7.35185C12.9727 7.5437 13.0454 7.76926 13.0454 8C13.045 8.3093 12.9143 8.60584 12.6819 8.82455C12.4495 9.04326 12.1344 9.16629 11.8058 9.16664Z" fill="black"/>
<path d="M16.2917 12.8332H7.74279C7.59076 12.3068 7.25888 11.842 6.79835 11.5106C6.33783 11.1793 5.77425 10.9998 5.19456 10.9998C4.61488 10.9998 4.0513 11.1793 3.59077 11.5106C3.13025 11.842 2.79837 12.3068 2.64633 12.8332H0.708333C0.520472 12.8332 0.340304 12.9035 0.207466 13.0285C0.0746278 13.1535 0 13.3231 0 13.4999C0 13.6767 0.0746278 13.8463 0.207466 13.9713C0.340304 14.0963 0.520472 14.1665 0.708333 14.1665H2.64633C2.79837 14.693 3.13025 15.1578 3.59077 15.4891C4.0513 15.8205 4.61488 16 5.19456 16C5.77425 16 6.33783 15.8205 6.79835 15.4891C7.25888 15.1578 7.59076 14.693 7.74279 14.1665H16.2917C16.4795 14.1665 16.6597 14.0963 16.7925 13.9713C16.9254 13.8463 17 13.6767 17 13.4999C17 13.3231 16.9254 13.1535 16.7925 13.0285C16.6597 12.9035 16.4795 12.8332 16.2917 12.8332ZM5.19421 14.6665C4.94904 14.6665 4.70938 14.5981 4.50553 14.4699C4.30168 14.3417 4.1428 14.1595 4.04898 13.9463C3.95516 13.7332 3.93061 13.4986 3.97844 13.2723C4.02627 13.046 4.14433 12.8381 4.31769 12.6749C4.49105 12.5118 4.71192 12.4007 4.95238 12.3557C5.19283 12.3106 5.44207 12.3337 5.66858 12.422C5.89508 12.5103 6.08868 12.6599 6.22488 12.8517C6.36109 13.0436 6.43379 13.2691 6.43379 13.4999C6.43323 13.8091 6.30245 14.1056 6.07011 14.3242C5.83776 14.5429 5.52279 14.666 5.19421 14.6665Z" fill="black"/>
</svg>
