<svg width="17" height="16" fill="none" xmlns="http://www.w3.org/2000/svg"><path d="M.708 3.167h1.938c.152.526.484.991.945 1.322A2.75 2.75 0 005.195 5c.58 0 1.143-.18 1.603-.51.46-.332.793-.797.945-1.323h8.549c.188 0 .368-.07.5-.195A.647.647 0 0017 2.5a.647.647 0 00-.207-.471.731.731 0 00-.501-.196h-8.55A2.484 2.484 0 006.799.511 2.75 2.75 0 005.195 0C4.615 0 4.05.18 3.59.51c-.46.332-.793.797-.945 1.323H.708a.731.731 0 00-.5.196A.647.647 0 000 2.5c0 .177.075.346.207.472a.731.731 0 00.501.195zm4.486-1.834a1.3 1.3 0 01.689.197c.204.128.363.31.456.524a1.1 1.1 0 01.071.674 1.147 1.147 0 01-.34.597 1.265 1.265 0 01-.634.32c-.24.044-.49.021-.716-.067a1.227 1.227 0 01-.556-.43 1.118 1.118 0 01-.21-.648c.001-.31.132-.606.364-.824a1.28 1.28 0 01.876-.343zm11.098 6h-1.938a2.483 2.483 0 00-.944-1.323 2.749 2.749 0 00-1.604-.51 2.75 2.75 0 00-1.604.51 2.49 2.49 0 00-.944 1.323H.708a.731.731 0 00-.5.196A.647.647 0 000 8c0 .177.075.346.207.471a.731.731 0 00.501.196h8.55c.152.526.483.991.944 1.323a2.75 2.75 0 001.604.51c.58 0 1.143-.179 1.604-.51a2.49 2.49 0 00.944-1.323h1.938c.188 0 .368-.07.5-.196A.647.647 0 0017 8a.647.647 0 00-.207-.471.731.731 0 00-.501-.196zm-4.486 1.834a1.3 1.3 0 01-.689-.197 1.185 1.185 0 01-.456-.524 1.103 1.103 0 01-.071-.674c.048-.226.166-.434.34-.597a1.27 1.27 0 01.634-.32c.24-.044.49-.021.716.067.227.088.42.238.556.43.137.192.21.417.21.648-.001.31-.132.606-.364.825a1.281 1.281 0 01-.876.342zm4.486 3.666h-8.55a2.484 2.484 0 00-.944-1.322A2.75 2.75 0 005.195 11c-.58 0-1.144.18-1.604.51-.46.332-.793.797-.945 1.323H.708a.732.732 0 00-.5.195A.647.647 0 000 13.5c0 .177.075.346.207.471a.731.731 0 00.501.195h1.938c.152.527.484.992.945 1.323A2.75 2.75 0 005.195 16c.58 0 1.143-.18 1.603-.51.46-.332.793-.797.945-1.324h8.549c.188 0 .368-.07.5-.195A.647.647 0 0017 13.5a.647.647 0 00-.207-.472.731.731 0 00-.501-.195zM5.194 14.666c-.245 0-.485-.068-.688-.196a1.185 1.185 0 01-.457-.524 1.103 1.103 0 01-.07-.674c.047-.226.165-.434.339-.597.173-.163.394-.274.634-.32.24-.044.49-.021.717.067.226.088.42.238.556.43.136.192.209.417.209.648 0 .31-.132.606-.364.824a1.282 1.282 0 01-.876.342z" fill="#000"/></svg>