<svg width="17" height="17" viewBox="0 0 17 17" fill="none" xmlns="http://www.w3.org/2000/svg">
<path d="M15.5486 6.0844L10.4478 0.982923C9.81645 0.353469 8.96133 0 8.06984 0C7.17835 0 6.32323 0.353469 5.69193 0.982923L0.591123 6.0844C0.403113 6.27121 0.254053 6.49348 0.152583 6.73832C0.0511138 6.98316 -0.000746729 7.24571 8.12328e-06 7.51075V14.1125C8.12328e-06 14.6476 0.212561 15.1608 0.590908 15.5391C0.969255 15.9174 1.4824 16.13 2.01747 16.13H14.1222C14.6573 16.13 15.1704 15.9174 15.5488 15.5391C15.9271 15.1608 16.1397 14.6476 16.1397 14.1125V7.51075C16.1404 7.24571 16.0886 6.98316 15.9871 6.73832C15.8856 6.49348 15.7366 6.27121 15.5486 6.0844ZM10.0873 14.785H6.05238V12.1395C6.05238 11.6044 6.26494 11.0913 6.64328 10.7129C7.02163 10.3346 7.53478 10.122 8.06984 10.122C8.6049 10.122 9.11805 10.3346 9.4964 10.7129C9.87475 11.0913 10.0873 11.6044 10.0873 12.1395V14.785ZM14.7947 14.1125C14.7947 14.2909 14.7239 14.4619 14.5977 14.5881C14.4716 14.7142 14.3006 14.785 14.1222 14.785H11.4323V12.1395C11.4323 11.2477 11.078 10.3924 10.4474 9.76187C9.81686 9.13129 8.96161 8.77704 8.06984 8.77704C7.17807 8.77704 6.32282 9.13129 5.69224 9.76187C5.06167 10.3924 4.70741 11.2477 4.70741 12.1395V14.785H2.01747C1.83911 14.785 1.66806 14.7142 1.54195 14.5881C1.41583 14.4619 1.34498 14.2909 1.34498 14.1125V7.51075C1.3456 7.33252 1.41639 7.16172 1.54202 7.0353L6.64283 1.93584C7.02191 1.55852 7.53499 1.3467 8.06984 1.3467C8.60469 1.3467 9.11778 1.55852 9.49686 1.93584L14.5977 7.03732C14.7228 7.16324 14.7935 7.33322 14.7947 7.51075V14.1125Z" fill="black"/>
</svg>
