<svg width="17" height="17" fill="none" xmlns="http://www.w3.org/2000/svg"><path d="M15.549 6.084L10.448.983a3.368 3.368 0 00-4.756 0l-5.1 5.101A2.003 2.003 0 000 7.511v6.602a2.017 2.017 0 002.017 2.017h12.105a2.018 2.018 0 002.018-2.017V7.51a2.003 2.003 0 00-.591-1.427zm-5.462 8.701H6.052v-2.646a2.018 2.018 0 014.035 0v2.646zm4.708-.672a.672.672 0 01-.673.672h-2.69v-2.646a3.362 3.362 0 10-6.725 0v2.646h-2.69a.672.672 0 01-.672-.672V7.51c0-.178.071-.35.197-.476l5.1-5.1a2.023 2.023 0 012.855 0l5.1 5.102a.678.678 0 01.198.474v6.602z" fill="#000"/></svg>