<svg width="18" height="17" viewBox="0 0 18 17" fill="none" xmlns="http://www.w3.org/2000/svg">
<path d="M17.3017 3.67116L14.2196 0.588379C13.8409 0.211546 13.3283 0 12.7941 0C12.2599 0 11.7473 0.211546 11.3686 0.588379L8.28653 3.67116C8.22234 3.73316 8.17114 3.80732 8.13592 3.88931C8.10069 3.97131 8.08215 4.0595 8.08138 4.14873C8.0806 4.23797 8.09761 4.32647 8.1314 4.40906C8.16519 4.49166 8.21509 4.5667 8.2782 4.6298C8.3413 4.6929 8.41634 4.74281 8.49893 4.7766C8.58153 4.81039 8.67002 4.82739 8.75926 4.82662C8.8485 4.82584 8.93669 4.8073 9.01868 4.77208C9.10068 4.73686 9.17484 4.68566 9.23683 4.62147L12.122 1.73695V15.4579C12.122 15.6362 12.1928 15.8071 12.3189 15.9331C12.4449 16.0592 12.6159 16.13 12.7941 16.13C12.9723 16.13 13.1433 16.0592 13.2693 15.9331C13.3954 15.8071 13.4662 15.6362 13.4662 15.4579V1.73627L16.3514 4.62147C16.4134 4.68566 16.4875 4.73686 16.5695 4.77208C16.6515 4.8073 16.7397 4.82584 16.8289 4.82662C16.9182 4.82739 17.0067 4.81039 17.0893 4.7766C17.1719 4.74281 17.2469 4.6929 17.31 4.6298C17.3731 4.5667 17.423 4.49166 17.4568 4.40906C17.4906 4.32647 17.5076 4.23797 17.5068 4.14873C17.506 4.0595 17.4875 3.97131 17.4523 3.88931C17.4171 3.80732 17.3659 3.73316 17.3017 3.67116Z" fill="black"/>
<path d="M0.205175 12.4588L3.28729 15.5416C3.66599 15.9185 4.1785 16.13 4.71275 16.13C5.24699 16.13 5.7595 15.9185 6.13821 15.5416L9.22032 12.4588C9.28451 12.3968 9.33571 12.3227 9.37093 12.2407C9.40615 12.1587 9.42469 12.0705 9.42547 11.9813C9.42624 11.892 9.40924 11.8035 9.37545 11.7209C9.34165 11.6383 9.29175 11.5633 9.22865 11.5002C9.16555 11.4371 9.09051 11.3872 9.00791 11.3534C8.92532 11.3196 8.83682 11.3026 8.74758 11.3034C8.65835 11.3042 8.57016 11.3227 8.48816 11.3579C8.40617 11.3931 8.33201 11.4443 8.27001 11.5085L5.38482 14.3931L5.38482 0.672079C5.38482 0.493834 5.31401 0.322891 5.18797 0.196853C5.06193 0.0708157 4.89099 9.14032e-06 4.71275 9.12474e-06C4.5345 9.10916e-06 4.36356 0.0708156 4.23752 0.196853C4.11149 0.322891 4.04068 0.493834 4.04068 0.672079L4.04068 14.3937L1.15548 11.5085C1.09349 11.4443 1.01933 11.3931 0.937331 11.3579C0.855336 11.3227 0.767147 11.3042 0.67791 11.3034C0.588673 11.3026 0.500176 11.3196 0.417581 11.3534C0.334986 11.3872 0.259947 11.4371 0.196846 11.5002C0.133743 11.5633 0.0838391 11.6383 0.0500466 11.7209C0.0162541 11.8035 -0.000749961 11.892 2.53684e-05 11.9813C0.000800698 12.0705 0.019342 12.1587 0.0545641 12.2407C0.0897861 12.3227 0.140985 12.3968 0.205175 12.4588Z" fill="black"/>
</svg>
