<svg width="16" height="16" fill="none" xmlns="http://www.w3.org/2000/svg"><path d="M13.334 0H2.667A2.667 2.667 0 000 2.667v8a2.667 2.667 0 002.667 2.667H4.6l2.967 2.508a.667.667 0 00.862 0l2.971-2.508h1.934A2.667 2.667 0 0016 10.667v-8A2.667 2.667 0 0013.334 0zm1.333 10.667A1.333 1.333 0 0113.334 12H11.4c-.315 0-.62.112-.86.316L8 14.46l-2.538-2.145A1.334 1.334 0 004.6 12H2.667a1.333 1.333 0 01-1.334-1.333v-8a1.333 1.333 0 011.334-1.334h10.667a1.333 1.333 0 011.333 1.334v8z" fill="#000"/><path d="M4.667 4.667H8a.667.667 0 100-1.334H4.667a.667.667 0 000 1.334zM11.334 6H4.667a.667.667 0 000 1.333h6.667a.667.667 0 100-1.333zm0 2.667H4.667a.667.667 0 000 1.333h6.667a.667.667 0 100-1.333z" fill="#000"/></svg>