<svg width="16" height="16" viewBox="0 0 16 16" fill="none" xmlns="http://www.w3.org/2000/svg">
<path d="M13.3335 0H2.6667C1.95945 0 1.28116 0.280956 0.78106 0.78106C0.280956 1.28116 0 1.95945 0 2.6667V10.6668C0 11.3741 0.280956 12.0524 0.78106 12.5525C1.28116 13.0526 1.95945 13.3335 2.6667 13.3335H4.60006L7.56744 15.8422C7.68782 15.9441 7.84041 16 7.99811 16C8.15581 16 8.30841 15.9441 8.42878 15.8422L11.4002 13.3335H13.3335C14.0408 13.3335 14.7191 13.0526 15.2192 12.5525C15.7193 12.0524 16.0002 11.3741 16.0002 10.6668V2.6667C16.0002 1.95945 15.7193 1.28116 15.2192 0.78106C14.7191 0.280956 14.0408 0 13.3335 0ZM14.6669 10.6668C14.6669 11.0204 14.5264 11.3596 14.2763 11.6096C14.0263 11.8597 13.6871 12.0002 13.3335 12.0002H11.4002C11.085 12.0003 10.7801 12.112 10.5395 12.3155L8.00011 14.4602L5.46208 12.3155C5.22111 12.1117 4.91567 12 4.60006 12.0002H2.6667C2.31308 12.0002 1.97393 11.8597 1.72388 11.6096C1.47383 11.3596 1.33335 11.0204 1.33335 10.6668V2.6667C1.33335 2.31308 1.47383 1.97393 1.72388 1.72388C1.97393 1.47383 2.31308 1.33335 2.6667 1.33335H13.3335C13.6871 1.33335 14.0263 1.47383 14.2763 1.72388C14.5264 1.97393 14.6669 2.31308 14.6669 2.6667V10.6668Z" fill="black"/>
<path d="M4.66673 4.66673H8.00011C8.17693 4.66673 8.3465 4.59649 8.47152 4.47147C8.59655 4.34644 8.66679 4.17687 8.66679 4.00006C8.66679 3.82324 8.59655 3.65367 8.47152 3.52865C8.3465 3.40362 8.17693 3.33338 8.00011 3.33338H4.66673C4.48992 3.33338 4.32035 3.40362 4.19532 3.52865C4.0703 3.65367 4.00006 3.82324 4.00006 4.00006C4.00006 4.17687 4.0703 4.34644 4.19532 4.47147C4.32035 4.59649 4.48992 4.66673 4.66673 4.66673Z" fill="black"/>
<path d="M11.3335 6.00008H4.66673C4.48992 6.00008 4.32035 6.07032 4.19532 6.19535C4.0703 6.32038 4.00006 6.48995 4.00006 6.66676C4.00006 6.84357 4.0703 7.01315 4.19532 7.13817C4.32035 7.2632 4.48992 7.33344 4.66673 7.33344H11.3335C11.5103 7.33344 11.6799 7.2632 11.8049 7.13817C11.9299 7.01315 12.0002 6.84357 12.0002 6.66676C12.0002 6.48995 11.9299 6.32038 11.8049 6.19535C11.6799 6.07032 11.5103 6.00008 11.3335 6.00008Z" fill="black"/>
<path d="M11.3335 8.66679H4.66673C4.48992 8.66679 4.32035 8.73703 4.19532 8.86205C4.0703 8.98708 4.00006 9.15665 4.00006 9.33347C4.00006 9.51028 4.0703 9.67985 4.19532 9.80488C4.32035 9.9299 4.48992 10.0001 4.66673 10.0001H11.3335C11.5103 10.0001 11.6799 9.9299 11.8049 9.80488C11.9299 9.67985 12.0002 9.51028 12.0002 9.33347C12.0002 9.15665 11.9299 8.98708 11.8049 8.86205C11.6799 8.73703 11.5103 8.66679 11.3335 8.66679Z" fill="black"/>
</svg>
