<svg width="18" height="14" fill="none" xmlns="http://www.w3.org/2000/svg"><path d="M17.45 5.067C16.287 3.175 13.642 0 9 0 4.358 0 1.713 3.175.55 5.067a3.674 3.674 0 000 3.866C1.713 10.826 4.358 14 9 14c4.642 0 7.287-3.175 8.45-5.067a3.674 3.674 0 000-3.866zm-1.278 3.082c-.999 1.623-3.26 4.353-7.172 4.353-3.913 0-6.173-2.73-7.172-4.353a2.184 2.184 0 010-2.298C2.827 4.228 5.088 1.498 9 1.498c3.913 0 6.173 2.727 7.172 4.353a2.184 2.184 0 010 2.298z" fill="#000"/><path d="M9 3.255a3.751 3.751 0 00-3.463 2.312 3.742 3.742 0 002.732 5.107 3.752 3.752 0 003.848-1.593 3.743 3.743 0 00-3.116-5.826zm0 5.992a2.25 2.25 0 01-2.205-2.685A2.246 2.246 0 019.86 4.924 2.249 2.249 0 0111.25 7 2.246 2.246 0 019 9.247z" fill="#000"/></svg>