<svg width="18" height="14" viewBox="0 0 18 14" fill="none" xmlns="http://www.w3.org/2000/svg">
<path d="M17.4501 5.06667C16.2873 3.17453 13.6423 0 9 0C4.35772 0 1.7127 3.17453 0.549881 5.06667C0.19041 5.64757 0 6.31704 0 7C0 7.68297 0.19041 8.35243 0.549881 8.93333C1.7127 10.8255 4.35772 14 9 14C13.6423 14 16.2873 10.8255 17.4501 8.93333C17.8096 8.35243 18 7.68297 18 7C18 6.31704 17.8096 5.64757 17.4501 5.06667ZM16.1718 8.14907C15.1732 9.77154 12.9128 12.5019 9 12.5019C5.0872 12.5019 2.82679 9.77154 1.82816 8.14907C1.61459 7.80378 1.50147 7.4059 1.50147 7C1.50147 6.5941 1.61459 6.19622 1.82816 5.85094C2.82679 4.22846 5.0872 1.49813 9 1.49813C12.9128 1.49813 15.1732 4.22547 16.1718 5.85094C16.3854 6.19622 16.4985 6.5941 16.4985 7C16.4985 7.4059 16.3854 7.80378 16.1718 8.14907Z" fill="black"/>
<path d="M9.00057 3.25488C8.25916 3.25488 7.53441 3.47454 6.91795 3.88608C6.30149 4.29762 5.82102 4.88256 5.5373 5.56693C5.25358 6.2513 5.17934 7.00436 5.32398 7.73088C5.46862 8.4574 5.82564 9.12475 6.3499 9.64854C6.87415 10.1723 7.54209 10.529 8.26925 10.6736C8.99641 10.8181 9.75013 10.7439 10.4351 10.4604C11.1201 10.177 11.7055 9.6969 12.1174 9.08099C12.5293 8.46507 12.7492 7.74096 12.7492 7.0002C12.748 6.00725 12.3527 5.0553 11.6499 4.35317C10.9472 3.65105 9.99439 3.25607 9.00057 3.25488ZM9.00057 9.24739C8.55572 9.24739 8.12087 9.1156 7.751 8.86867C7.38112 8.62175 7.09284 8.27078 6.92261 7.86016C6.75237 7.44954 6.70783 6.99771 6.79462 6.5618C6.8814 6.12588 7.09561 5.72547 7.41016 5.4112C7.72472 5.09692 8.12548 4.8829 8.56178 4.79619C8.99807 4.70948 9.4503 4.75398 9.86129 4.92407C10.2723 5.09415 10.6235 5.38218 10.8707 5.75173C11.1178 6.12128 11.2497 6.55575 11.2497 7.0002C11.2497 7.59619 11.0128 8.16778 10.591 8.58921C10.1692 9.01064 9.59708 9.24739 9.00057 9.24739Z" fill="black"/>
</svg>
