<svg width="21" height="20" viewBox="0 0 21 20" fill="#013F7D" xmlns="http://www.w3.org/2000/svg">
<path d="M10.1015 0.897037C10.3396 0.47327 10.9527 0.47327 11.1909 0.897038L13.6382 5.25179C13.8982 5.71451 14.3513 6.03684 14.8735 6.13172L19.8447 7.03513C20.3373 7.12465 20.5262 7.72283 20.1807 8.07748L16.7442 11.6048C16.3634 11.9956 16.183 12.5394 16.2554 13.0803L16.9032 17.9256C16.9677 18.4075 16.472 18.7777 16.0224 18.5706L11.3931 16.4381C10.9192 16.2197 10.3732 16.2197 9.89922 16.4381L5.26995 18.5706C4.8203 18.7777 4.32466 18.4075 4.3891 17.9256L5.03698 13.0803C5.10931 12.5394 4.92889 11.9956 4.54811 11.6048L1.11167 8.07748C0.76615 7.72283 0.955053 7.12465 1.44766 7.03513L6.41884 6.13172C6.94099 6.03684 7.39409 5.71451 7.65414 5.25179L10.1015 0.897037Z" stroke="#013F7D" stroke-width="1.15842"/>
</svg>
