<svg xmlns="http://www.w3.org/2000/svg" viewBox="0 0 337.3 338"><style>.st2{fill:#494949}</style><g id="Слой_1"><path class="st2" d="M270.2 268c-1.1 0-2.1-.3-3.1-.8-7.8-4.3-16.3-7.9-25.1-10.7-9.4-3-19.3-5.1-29.3-6.2-1.6-.2-3.2-1-4.2-2.3l-10.3-12-14.6 15c-2.2 2.3-5.8 2.6-8.4.8l-16.4-11.7-16.3 12.2c-2.6 1.9-6.2 1.7-8.5-.6l-15.2-15.4-11.3 12.7c-1.1 1.2-2.6 2-4.3 2.1-9.5.8-18.8 2.7-27.7 5.5-8.4 2.7-16.5 6.3-23.8 10.6-3.1 1.8-7.1.8-8.9-2.3-1.8-3.1-.8-7.1 2.3-8.9 8.2-4.8 17.1-8.8 26.5-11.8 9-2.9 18.4-4.8 27.9-5.8l14.2-16c1.2-1.3 2.9-2.1 4.7-2.2 1.8 0 3.5.7 4.8 1.9l16.1 16.3 15.6-11.6c2.3-1.7 5.4-1.7 7.7-.1l15.7 11.2 15.7-16.1c1.3-1.3 3-2 4.9-2 1.8.1 3.6.9 4.7 2.3l13.3 15.6c10 1.3 19.8 3.4 29.2 6.4 9.6 3 18.8 7 27.4 11.7 3.1 1.7 4.3 5.7 2.6 8.8-1.4 2.2-3.6 3.4-5.9 3.4zM120 119.9h-.2c-1.8-.1-3.6-.9-4.7-2.3L101.8 102c-10-1.3-19.8-3.4-29.2-6.4-9.6-3-18.8-7-27.4-11.7-3.1-1.7-4.3-5.7-2.6-8.8 1.7-3.1 5.7-4.3 8.8-2.6 7.8 4.3 16.3 7.9 25.1 10.7 9.4 3 19.3 5.1 29.3 6.2 1.6.2 3.2 1 4.2 2.3l10.3 12.1 14.6-15c2.2-2.3 5.8-2.6 8.4-.8l16.4 11.7L176 87.5c2.6-1.9 6.2-1.7 8.5.6l15.2 15.4L211 90.8c1.1-1.2 2.6-2 4.3-2.1 9.5-.8 18.8-2.7 27.7-5.5 8.4-2.7 16.5-6.3 23.8-10.6 3.1-1.8 7.1-.8 8.9 2.3 1.8 3.1.8 7.1-2.3 8.9-8.2 4.8-17.1 8.8-26.5 11.8-9 2.9-18.4 4.8-27.9 5.8l-14.2 16c-1.2 1.3-2.9 2.1-4.7 2.2-1.8 0-3.5-.7-4.8-1.9l-16.1-16.3-15.6 11.6c-2.3 1.7-5.4 1.7-7.7.1l-15.7-11.2-15.7 16.1c-1.1 1.2-2.7 1.9-4.5 1.9zM162.5 182.2h-57.1c0 5.9 0 11.7.1 17.6L77 171.3l28.5-28.5V159h57"/><path class="st2" d="M105.5 204.9c-1.3 0-2.6-.5-3.5-1.5l-28.5-28.5c-2-2-2-5.1 0-7.1l28.5-28.5c1.4-1.4 3.6-1.9 5.4-1.1 1.9.8 3.1 2.6 3.1 4.6V154h52c2.8 0 5 2.2 5 5s-2.2 5-5 5h-57c-2.8 0-5-2.2-5-5v-4.1l-16.4 16.4 16.4 16.4v-5.5c0-1.3.5-2.6 1.5-3.5s2.2-1.5 3.5-1.5h57.1c2.8 0 5 2.2 5 5s-2.2 5-5 5h-52.1v12.6c0 2-1.2 3.9-3.1 4.6-.6.3-1.3.5-1.9.5z"/><g><path class="st2" d="M159.3 158.9h57.1c0-5.9 0-11.7-.1-17.6l28.5 28.5-28.5 28.5v-16.2h-57"/><path class="st2" d="M216.3 203.4c-.6 0-1.3-.1-1.9-.4-1.9-.8-3.1-2.6-3.1-4.6v-11.2h-52c-2.8 0-5-2.2-5-5s2.2-5 5-5h57c2.8 0 5 2.2 5 5v4.1l16.4-16.4-16.4-16.4v5.5c0 1.3-.5 2.6-1.5 3.5s-2.2 1.5-3.5 1.5h-57.1c-2.8 0-5-2.2-5-5s2.2-5 5-5h52.1v-12.6c0-2 1.2-3.9 3.1-4.6 1.9-.8 4-.4 5.5 1.1l28.5 28.5c2 2 2 5.1 0 7.1L219.9 202c-1 .8-2.3 1.4-3.6 1.4z"/></g></g></svg>