<svg width="26" height="19" viewBox="0 0 26 19" fill="none" xmlns="http://www.w3.org/2000/svg">
<path d="M10.4069 18.2564C8.87072 18.2564 7.57871 18.0674 6.77515 17.9571C4.89229 17.6892 3.86026 17.3426 3.25365 17.1062C1.91437 16.5863 0.24422 15.9482 0.0236342 14.5931C-0.0551465 14.1047 0.0630246 13.5926 0.378148 13.0727C0.488441 12.8836 0.732661 12.8284 0.921735 12.9387C1.11081 13.049 1.16596 13.2932 1.05566 13.4823C0.842954 13.8368 0.756295 14.1677 0.803564 14.4671C0.953247 15.3731 2.38706 15.9245 3.53726 16.3657C4.11236 16.5863 5.08924 16.9093 6.88544 17.1693C7.78354 17.2953 9.28038 17.5159 11.0214 17.4529C15.0235 17.3111 18.0329 15.8142 19.4825 15.0973C21.1526 14.2701 22.7361 13.2381 24.1936 12.0328C24.4536 11.6625 24.6426 11.2528 24.7608 10.8117C24.9656 10.0317 24.8632 9.33845 24.745 8.90516C24.6899 8.69245 24.8159 8.47974 25.0287 8.41672C25.2414 8.36157 25.4541 8.48762 25.5171 8.70033C25.6589 9.22816 25.7771 10.0632 25.5329 11.0165C25.391 11.5679 25.1468 12.08 24.8159 12.5448L24.7844 12.5842L24.745 12.6157C23.2325 13.8762 21.5781 14.9476 19.8449 15.8142C18.348 16.5548 15.2283 18.1068 11.0608 18.2486C10.8324 18.2486 10.6196 18.2564 10.4069 18.2564Z" fill="#494949"/>
<path d="M6.4364 16.3736C5.79827 16.2475 5.15227 16.1136 4.50627 15.9639C3.86026 15.8142 3.21426 15.6567 2.57614 15.4282C2.26101 15.31 1.93801 15.1682 1.63077 14.9949C1.32352 14.8137 1.03203 14.5931 0.787813 14.2938C0.669642 14.1441 0.567226 13.9786 0.480568 13.7975C0.464811 13.7502 0.441177 13.7108 0.425421 13.6635L0.378153 13.5217C0.34664 13.4272 0.330884 13.3248 0.315128 13.2302C0.259981 12.8284 0.330884 12.4424 0.433299 12.0958C0.653885 11.4025 1.00052 10.8195 1.33928 10.2444C1.68591 9.67721 2.05618 9.13363 2.41857 8.58216C2.59977 8.31431 2.78884 8.03857 2.9858 7.76284C3.18275 7.49499 3.3797 7.22713 3.59241 6.95928C4.00995 6.43145 4.44324 5.92725 4.90805 5.44669C5.37285 4.95825 5.85342 4.49344 6.35761 4.05227L6.74364 3.72926L7.12179 3.41414C7.37389 3.20143 7.64174 2.9966 7.91747 2.79177C8.46106 2.38211 9.07555 2.01972 9.71368 1.75187C10.3518 1.47613 11.0136 1.2713 11.6911 1.14526C12.3686 1.01133 13.054 0.956182 13.7079 0.924669C14.3854 0.885279 15.0629 0.901035 15.7325 0.948303C16.41 0.995572 17.0797 1.09799 17.7414 1.23979C18.0723 1.3107 18.4032 1.38948 18.7341 1.49189C19.0492 1.58643 19.3643 1.68096 19.6873 1.78338C20.3254 1.98821 20.9714 2.22455 21.5859 2.54755C21.8932 2.70511 22.1926 2.88631 22.484 3.08326L22.6967 3.24082L22.807 3.31961L22.9095 3.40626L23.1143 3.5717C23.1773 3.62685 23.2403 3.68987 23.3112 3.7529C23.8233 4.24134 24.2645 4.80856 24.5954 5.43093C24.9341 6.0533 25.1626 6.72294 25.328 7.37682C25.3674 7.54226 25.4068 7.7077 25.4462 7.86526C25.4856 8.0307 25.5171 8.18038 25.5565 8.3537C25.6274 8.69245 25.6825 9.03909 25.7062 9.40148C25.7298 9.76387 25.7141 10.1499 25.6116 10.5438C25.5565 10.7408 25.4856 10.9141 25.3989 11.0874C25.3123 11.2607 25.2099 11.4261 25.0996 11.5758C24.879 11.8831 24.6111 12.1431 24.3354 12.3715C24.1936 12.4897 24.0675 12.5763 23.9336 12.6866L23.7367 12.8363L23.5318 12.986C22.9882 13.3799 22.421 13.7344 21.838 14.0653C20.6721 14.7271 19.451 15.2707 18.1905 15.7039C17.5602 15.9245 16.9221 16.1136 16.284 16.279C15.638 16.4445 14.992 16.5863 14.3381 16.7045C14.0072 16.7596 13.6842 16.8069 13.3533 16.8541C13.1879 16.8778 13.0225 16.8935 12.857 16.9093L12.731 16.9172L12.6601 16.925H12.5971L12.3528 16.9329C11.6989 16.9566 11.0293 16.9644 10.3676 16.9329C9.7058 16.9014 9.04404 16.8384 8.39016 16.7439C7.7284 16.6336 7.07452 16.5075 6.4364 16.3736ZM6.53881 15.8694C7.81506 16.1372 9.09131 16.3342 10.3833 16.3657C11.0293 16.3815 11.6674 16.3736 12.3213 16.3263L12.5655 16.3106L12.6207 16.3027H12.6758L12.794 16.2869C12.9516 16.2712 13.1091 16.2475 13.2667 16.2239C13.5818 16.1766 13.9048 16.1215 14.2199 16.0585C16.7488 15.5464 19.191 14.6089 21.3811 13.2854C21.9326 12.9545 22.4604 12.6 22.9646 12.214L23.1537 12.0722L23.3427 11.9225C23.4609 11.8201 23.5948 11.7255 23.7051 11.6231C23.9336 11.4261 24.1306 11.2213 24.2802 10.9929C24.359 10.8826 24.4299 10.7644 24.4851 10.6383C24.5402 10.5202 24.5875 10.3862 24.619 10.2681C24.682 10.0239 24.6978 9.74812 24.6741 9.45663C24.6584 9.16514 24.6032 8.86577 24.5402 8.55853C24.5087 8.40884 24.4693 8.2434 24.4378 8.09372C24.3984 7.93616 24.3669 7.78648 24.3196 7.62891C24.1621 7.0223 23.9572 6.43932 23.6658 5.91149C23.5239 5.64364 23.3585 5.39154 23.1773 5.1552C22.9882 4.91885 22.7992 4.69039 22.5786 4.48556C22.5234 4.43829 22.4683 4.38315 22.4131 4.328L22.1532 4.11529L22.0586 4.04439L21.8774 3.91046C21.6253 3.74502 21.3654 3.57958 21.0896 3.43778C20.546 3.15417 19.9552 2.93358 19.3486 2.73663C19.0413 2.64209 18.7341 2.54755 18.419 2.45302C18.1196 2.36636 17.8123 2.28758 17.5051 2.22455C16.8906 2.09062 16.2604 2.00397 15.6301 1.9567C14.9999 1.90943 14.3696 1.90155 13.7394 1.93306C13.0934 1.96458 12.471 2.01972 11.8565 2.13789C11.2499 2.25606 10.659 2.43726 10.0918 2.68148C9.5246 2.9257 9.00465 3.23295 8.50045 3.60322C8.24835 3.79229 7.99625 3.98924 7.75203 4.19407L7.37389 4.50132L7.01149 4.80856C6.53093 5.2261 6.06613 5.66727 5.61707 6.1242C5.16802 6.58113 4.74261 7.06169 4.34083 7.55801C4.136 7.81011 3.94692 8.06221 3.74997 8.31431C3.5609 8.57428 3.3797 8.83426 3.19063 9.10211C2.81248 9.63782 2.44221 10.1657 2.0877 10.7014C1.76469 11.2528 1.42594 11.8043 1.22111 12.3479C1.11869 12.6236 1.06355 12.8915 1.0793 13.1436C1.08718 13.2066 1.08718 13.2696 1.11081 13.3326L1.13445 13.4272C1.14233 13.4587 1.15808 13.4902 1.16596 13.5217C1.21323 13.6399 1.27625 13.7581 1.35503 13.8684C1.5126 14.0889 1.73318 14.278 1.98528 14.4435C2.23738 14.6089 2.51311 14.7507 2.8046 14.8689C3.38758 15.1131 4.00995 15.2864 4.64019 15.4518C5.26256 15.6015 5.90069 15.7355 6.53881 15.8694Z" fill="#494949"/>
<path d="M17.2687 15.2549C17.9068 15.0501 18.5371 14.8058 19.1201 14.4828C19.703 14.1598 20.2466 13.7659 20.6878 13.2775C20.7981 13.1593 20.9005 13.0254 21.0108 12.8915C21.1211 12.7575 21.2314 12.6236 21.3496 12.4897C21.578 12.2297 21.8223 11.9697 22.0822 11.7334C22.5943 11.2528 23.1536 10.8274 23.7445 10.4571C23.7997 10.4256 23.8627 10.4414 23.9021 10.4965C23.9336 10.5438 23.9178 10.6147 23.8706 10.6462C23.3112 11.0401 22.7913 11.4813 22.3186 11.9776C22.0822 12.2218 21.8616 12.4818 21.6489 12.7497C21.5465 12.8836 21.4441 13.0175 21.3417 13.1593C21.2393 13.2932 21.1369 13.4429 21.0266 13.5847C20.5696 14.1441 20.0024 14.601 19.4037 14.987C18.7971 15.3652 18.1511 15.6645 17.4893 15.9166C17.316 15.9797 17.119 15.893 17.056 15.7197C16.993 15.5464 17.0797 15.3494 17.253 15.2864C17.253 15.2549 17.253 15.2549 17.2687 15.2549Z" fill="#494949"/>
</svg>
