<svg width="26" height="19" fill="none" xmlns="http://www.w3.org/2000/svg"><path d="M10.407 18.256c-1.536 0-2.828-.189-3.632-.299-1.883-.268-2.915-.614-3.521-.85-1.34-.52-3.01-1.159-3.23-2.514-.08-.488.039-1 .354-1.52a.396.396 0 11.678.41c-.213.354-.3.685-.252.984.15.906 1.583 1.457 2.733 1.899.575.22 1.552.543 3.348.803.899.126 2.395.347 4.136.284 4.002-.142 7.012-1.639 8.462-2.356a24.403 24.403 0 004.71-3.064c.26-.37.45-.78.568-1.221a3.714 3.714 0 00-.016-1.907.404.404 0 01.284-.488.404.404 0 01.488.283 4.59 4.59 0 01.016 2.317 4.608 4.608 0 01-.717 1.528l-.032.04-.039.03a25.42 25.42 0 01-4.9 3.2c-1.497.74-4.617 2.292-8.784 2.434-.229 0-.441.007-.654.007z" fill="#494949"/><path d="M6.436 16.374a60.5 60.5 0 01-1.93-.41c-.646-.15-1.292-.307-1.93-.536a6.763 6.763 0 01-.945-.433 3.08 3.08 0 01-.843-.701 2.63 2.63 0 01-.307-.497c-.016-.047-.04-.086-.056-.133l-.047-.142c-.031-.095-.047-.197-.063-.292-.055-.402.016-.788.118-1.134.22-.694.568-1.277.906-1.852.347-.567.717-1.11 1.08-1.662.18-.268.37-.543.567-.82.197-.267.394-.535.606-.803a20.1 20.1 0 011.316-1.512c.465-.489.945-.954 1.45-1.395l.386-.323.378-.315c.252-.213.52-.417.795-.622a8.474 8.474 0 011.797-1.04 9.25 9.25 0 011.977-.607 13.768 13.768 0 012.017-.22 15.77 15.77 0 012.024.023c.678.048 1.348.15 2.01.292.33.07.661.15.992.252.315.094.63.189.953.291.638.205 1.284.442 1.899.765.307.157.607.338.898.535l.213.158.11.079.103.086.204.166c.063.055.126.118.197.18a6.648 6.648 0 011.284 1.679c.34.622.568 1.292.733 1.946l.118.488c.04.166.071.315.11.489.071.338.127.685.15 1.047.024.363.008.749-.094 1.143a2.99 2.99 0 01-.213.543 3.367 3.367 0 01-.3.489c-.22.307-.488.567-.764.795-.141.119-.268.205-.401.316l-.197.15-.205.149a18.11 18.11 0 01-1.694 1.08 21.599 21.599 0 01-3.648 1.638 24 24 0 01-1.906.575 27.22 27.22 0 01-1.946.425c-.33.056-.654.103-.985.15-.165.024-.33.04-.496.055l-.126.008-.07.008h-.064l-.244.008a23.89 23.89 0 01-1.985 0 20.736 20.736 0 01-1.978-.19 47.778 47.778 0 01-1.954-.37zm.103-.505c1.276.268 2.552.465 3.844.497.646.015 1.284.008 1.938-.04l.245-.015.055-.008h.055l.118-.016c.158-.016.315-.04.473-.063.315-.047.638-.102.953-.166a22.528 22.528 0 007.161-2.773c.552-.33 1.08-.685 1.584-1.071l.189-.142.189-.15c.118-.102.252-.197.362-.299.229-.197.426-.402.575-.63a2.331 2.331 0 00.339-.725c.063-.244.079-.52.055-.811a6.188 6.188 0 00-.134-.898c-.031-.15-.07-.316-.102-.465-.04-.158-.071-.308-.118-.465-.158-.607-.363-1.19-.654-1.718a5.402 5.402 0 00-.489-.756 6.053 6.053 0 00-.598-.67c-.056-.047-.11-.102-.166-.157l-.26-.213-.094-.07-.182-.135a8.672 8.672 0 00-.787-.472c-.544-.284-1.135-.504-1.741-.701-.308-.095-.615-.19-.93-.284a13.601 13.601 0 00-2.789-.496 15.09 15.09 0 00-1.89-.024c-.647.032-1.269.087-1.883.205a8.63 8.63 0 00-1.765.543 8.041 8.041 0 00-1.592.922c-.252.19-.504.386-.748.591l-.378.307-.363.308c-.48.417-.945.858-1.394 1.315-.449.457-.874.938-1.276 1.434-.205.252-.394.504-.591.756-.19.26-.37.52-.56.788a64.666 64.666 0 00-1.102 1.6c-.323.55-.662 1.102-.867 1.646a1.959 1.959 0 00-.142.796c.008.063.008.126.032.189l.023.094c.008.032.024.063.032.095.047.118.11.236.189.346.158.22.378.41.63.575.252.166.528.308.82.426.583.244 1.205.417 1.835.583.623.15 1.26.284 1.899.417z" fill="#494949"/><path d="M17.269 15.255c.638-.205 1.268-.45 1.851-.772.583-.323 1.127-.717 1.568-1.206.11-.118.213-.252.323-.385.11-.134.22-.268.339-.402a10.832 10.832 0 012.395-2.033c.055-.031.118-.016.157.04a.112.112 0 01-.031.15 10.413 10.413 0 00-2.222 2.103c-.102.134-.205.268-.307.41-.103.133-.205.283-.315.425-.457.56-1.025 1.016-1.623 1.402-.607.378-1.253.678-1.915.93a.338.338 0 01-.433-.197.338.338 0 01.197-.434c0-.031 0-.031.016-.031z" fill="#494949"/></svg>