<svg width="28" height="21" fill="none" xmlns="http://www.w3.org/2000/svg"><path d="M18.234 16.478c-.75 0-1.45-.042-2.09-.085L16 16.386a22.896 22.896 0 01-8.767-2.355.54.54 0 01-.295-.379 13.592 13.592 0 01-.261-3.827c.135-1.784.303-4.005 1.896-5.83 2.209-2.515 5.893-2.726 7.663-2.827.287-.016.573-.025.86-.025 0 0 .168 0 .328.009 5.884.15 8.11 2.574 8.203 2.675 1.382 1.547 1.593 3.39 1.846 5.526a15.38 15.38 0 01-.034 3.786.568.568 0 01-.22.37 15.29 15.29 0 01-4.5 2.297c-1.661.538-3.162.673-4.485.673zM7.966 13.163a21.67 21.67 0 008.11 2.128l.143.009c1.67.11 3.734.244 6.196-.539a14.083 14.083 0 003.987-2.002 14.24 14.24 0 000-3.28c-.236-2.036-.421-3.643-1.576-4.93-.017-.017-2.049-2.17-7.41-2.313a5.83 5.83 0 01-.303-.009c-.262 0-.523.009-.793.026-1.745.1-4.999.286-6.904 2.456-1.357 1.548-1.509 3.567-1.635 5.19a12.484 12.484 0 00.185 3.264z" fill="#494949"/><path d="M12.822 20.002c-.784 0-1.534-.05-2.276-.1-2.462-.169-4.763-.699-6.837-1.574C1.787 17.521-.025 16.755 0 15.46c.034-1.405 2.217-2.28 4.746-3.29a22.33 22.33 0 012.032-.706.549.549 0 11.312 1.051c-.65.194-1.307.421-1.94.673-1.053.421-2.14.858-2.933 1.296-1.028.572-1.112.909-1.12 1.001 0 .067.05.337.783.782.599.362 1.442.715 2.25 1.06 1.957.825 4.14 1.33 6.483 1.49 1.846.125 3.752.26 6.002-.48 1.34-.438 2.386-1.035 3.018-1.397a19.753 19.753 0 003.229-2.305.55.55 0 11.725.825 20.62 20.62 0 01-3.414 2.43c-.624.354-1.78 1.019-3.22 1.49-1.51.488-2.858.622-4.131.622zm2.706-18.305A1.68 1.68 0 0116.944.461c.759-.084 1.5.395 1.762 1.152" fill="#494949"/></svg>