<svg width="28" height="21" viewBox="0 0 28 21" fill="none" xmlns="http://www.w3.org/2000/svg">
<path d="M18.2338 16.4776C17.4835 16.4776 16.7839 16.4356 16.1432 16.3935L15.9999 16.3851C12.9483 16.1916 9.99794 15.4009 7.23299 14.0297C7.08126 13.9539 6.97167 13.8194 6.93795 13.6511C6.6682 12.3893 6.58391 11.1022 6.67663 9.82353C6.81151 8.04013 6.9801 5.8193 8.57332 3.99384C10.7819 1.47858 14.4657 1.26827 16.2359 1.16732C16.5225 1.1505 16.8091 1.14209 17.0958 1.14209C17.0958 1.14209 17.2643 1.14209 17.4245 1.1505C23.3085 1.30192 25.5339 3.72465 25.6266 3.82559C27.0091 5.37345 27.2198 7.21573 27.4727 9.35245C27.616 10.6059 27.6076 11.8761 27.439 13.138C27.4221 13.281 27.3379 13.4156 27.2198 13.5081C25.8374 14.526 24.3284 15.2999 22.7184 15.8046C21.0577 16.343 19.5572 16.4776 18.2338 16.4776ZM7.96638 13.1632C10.529 14.3998 13.2518 15.1148 16.0758 15.2915L16.2191 15.2999C17.8881 15.4093 19.9534 15.5439 22.4149 14.7615C23.8311 14.3157 25.1714 13.6427 26.4022 12.7594C26.5286 11.6658 26.5286 10.5638 26.4022 9.47863C26.1661 7.44286 25.9807 5.83612 24.8258 4.54905C24.8089 4.53222 22.7774 2.37869 17.4161 2.23568C17.2643 2.23568 17.1126 2.22727 17.1126 2.22727C16.8513 2.22727 16.59 2.23568 16.3202 2.2525C14.5753 2.35345 11.3214 2.53852 9.41629 4.70888C8.0591 6.25674 7.90737 8.27568 7.78092 9.89924C7.69663 10.9844 7.76407 12.0864 7.96638 13.1632Z" fill="#494949"/>
<path d="M12.8218 20.0024C12.0379 20.0024 11.2876 19.9519 10.5458 19.9015C8.08435 19.7332 5.78304 19.2032 3.70933 18.3284C1.78736 17.5208 -0.0250276 16.7553 0.000261577 15.4598C0.0339804 14.0549 2.21728 13.1801 4.74619 12.1706C5.41214 11.9014 6.09494 11.6659 6.77775 11.464C7.06436 11.3798 7.37626 11.5397 7.46056 11.8341C7.54485 12.1201 7.38469 12.4314 7.08965 12.5155C6.44056 12.709 5.78304 12.9361 5.15081 13.1885C4.0971 13.6091 3.00967 14.0465 2.21728 14.484C1.18885 15.056 1.10455 15.3925 1.09612 15.485C1.09612 15.5523 1.1467 15.8215 1.88009 16.2674C2.4786 16.6291 3.32157 16.9824 4.13082 17.3273C6.08651 18.1517 8.26981 18.6564 10.6133 18.8163C12.4594 18.9425 14.3645 19.0771 16.6152 18.3368C17.9555 17.8993 19.0008 17.3021 19.6331 16.9403C20.7795 16.2842 21.8669 15.5103 22.8616 14.6354C23.0892 14.4335 23.4349 14.4587 23.6372 14.6859C23.8395 14.913 23.8142 15.2579 23.5866 15.4598C22.5329 16.3851 21.3864 17.2011 20.1726 17.8909C19.5488 18.2442 18.3939 18.9088 16.9524 19.3799C15.4435 19.8678 14.0947 20.0024 12.8218 20.0024Z" fill="#494949"/>
<path d="M15.5278 1.69731C15.7133 1.02433 16.2781 0.536421 16.944 0.460711C17.7027 0.376588 18.4445 0.856087 18.7058 1.61319" fill="#494949"/>
</svg>
