<svg width="26" height="21" viewBox="0 0 26 21" fill="none" xmlns="http://www.w3.org/2000/svg">
<path d="M4.38679 11.1408L3.2932 10.9885C3.46275 9.77874 3.70012 8.55206 3.99683 7.35923C4.59024 4.95664 4.78522 4.15295 5.44646 3.34927C5.73469 2.99396 6.25181 2.46099 7.3793 1.85188C12.169 -0.72837 17.6454 1.03127 17.8743 1.10741C19.0781 1.50502 20.3243 1.91956 21.172 3.10393C21.6637 3.8061 21.7739 4.44905 21.9604 5.52344C22.0282 5.9126 22.0961 6.34405 22.2063 6.87702C22.4521 8.13753 22.7319 9.38959 23.0201 10.6078L21.9519 10.8616C21.6552 9.62646 21.3839 8.35749 21.1296 7.08851C21.0194 6.53862 20.9431 6.09871 20.8838 5.7011C20.7142 4.68592 20.6379 4.22909 20.2819 3.72996C19.6461 2.83322 18.6712 2.51174 17.5437 2.13951C17.3318 2.07183 12.2877 0.456006 7.92186 2.80784C6.96391 3.32389 6.54852 3.75534 6.31963 4.03451C5.83642 4.6267 5.66687 5.26119 5.09041 7.61302C4.78522 8.77202 4.55633 9.96486 4.38679 11.1408Z" fill="#494949"/>
<path d="M12.7201 14.8293C10.7533 14.8293 9.17655 14.5163 8.35424 14.3471C6.66724 14.0087 5.48041 13.4757 4.49703 12.6128C4.08164 12.249 3.70863 11.8345 3.39497 11.3692L4.30205 10.7432C4.57333 11.1323 4.88699 11.4792 5.23456 11.7837C6.07382 12.5197 7.07416 12.9681 8.58313 13.2642C10.4736 13.6449 15.5007 14.6431 20.2904 11.6737C20.9347 11.2761 21.5535 10.8108 22.1215 10.3117L22.8506 11.1323C22.2317 11.6737 21.5705 12.1729 20.8669 12.6043C18.0354 14.364 15.1022 14.8293 12.7201 14.8293Z" fill="#494949"/>
<path d="M12.4827 20.1167C12.4234 20.1167 12.364 20.1167 12.3047 20.1167C10.2955 20.1167 6.10772 20.1082 2.50483 17.511C1.75882 16.9696 -0.224891 15.5399 0.0209532 13.8141C0.156591 12.9004 0.877169 12.1983 1.64013 11.4623C2.2166 10.9039 2.86936 10.4217 3.57298 10.0241L4.11553 10.98C3.4882 11.3269 2.92022 11.7583 2.4031 12.249C1.77577 12.8497 1.19083 13.4165 1.11454 13.9664C1.01281 14.6685 1.69948 15.5653 3.14911 16.6143C6.45529 19.0084 10.4058 19.0084 12.3047 19.0084C13.8221 19.0084 15.8991 19.0084 18.4169 18.1455C22.0876 16.885 24.7495 14.5755 24.6139 13.6956C24.5206 13.5349 24.0883 13.0527 23.6305 12.5451C23.1303 11.9868 22.6217 11.4369 22.113 10.9124L22.9014 10.151C23.427 10.6924 23.9441 11.2508 24.4528 11.8176C25.3599 12.8327 25.6057 13.1119 25.6735 13.408C26.1822 15.4553 21.9943 18.0778 18.7729 19.1945C16.1873 20.0828 13.9832 20.1167 12.4827 20.1167Z" fill="#494949"/>
<path d="M13.2457 5.44731C11.9317 5.44731 10.5923 5.34579 9.50718 5.15122C7.57433 4.81282 6.56552 4.23755 6.42141 3.40003C6.37054 3.10394 6.43836 2.79938 6.61639 2.49483L7.34544 2.92628C7.26915 3.05318 7.23524 3.17162 7.25219 3.26467C7.30306 3.56923 7.96429 4.02606 9.65129 4.32215C10.9992 4.55903 12.754 4.65209 14.3478 4.57595C14.7123 4.55903 16.0093 4.48289 17.264 4.25447C18.951 3.94146 19.5953 3.51847 19.6377 3.24775C19.6546 3.12086 19.5529 2.92628 19.3409 2.71479L19.9513 2.1226C20.3582 2.53713 20.5363 2.96012 20.4769 3.36619C20.3582 4.16988 19.3833 4.71976 17.4166 5.08354C16.1111 5.32887 14.7716 5.40501 14.3902 5.42193C14.0171 5.43885 13.6357 5.44731 13.2457 5.44731Z" fill="#494949"/>
</svg>
