<svg width="26" height="21" fill="none" xmlns="http://www.w3.org/2000/svg"><path d="M4.387 11.14l-1.094-.152c.17-1.21.407-2.436.704-3.629.593-2.402.788-3.206 1.45-4.01.288-.355.805-.888 1.932-1.497 4.79-2.58 10.266-.82 10.495-.745 1.204.398 2.45.813 3.298 1.997.492.702.602 1.345.788 2.42.068.389.136.82.246 1.353.246 1.26.526 2.513.814 3.73l-1.068.255a102.216 102.216 0 01-.822-3.773 27.9 27.9 0 01-.246-1.388c-.17-1.015-.246-1.472-.602-1.971-.636-.897-1.61-1.218-2.738-1.59-.212-.068-5.256-1.684-9.622.668-.958.516-1.373.947-1.602 1.227-.484.592-.653 1.226-1.23 3.578a31.662 31.662 0 00-.703 3.528z" fill="#494949"/><path d="M12.72 14.83c-1.967 0-3.543-.314-4.366-.483-1.687-.338-2.874-.871-3.857-1.734a6.443 6.443 0 01-1.102-1.244l.907-.626c.271.39.585.736.933 1.04.839.737 1.84 1.185 3.348 1.481 1.89.38 6.918 1.38 11.707-1.59a13.695 13.695 0 001.832-1.362l.729.82c-.62.542-1.28 1.04-1.984 1.472-2.832 1.76-5.765 2.225-8.147 2.225z" fill="#494949"/><path d="M12.483 20.117h-.178c-2.01 0-6.197-.009-9.8-2.606-.746-.541-2.73-1.971-2.484-3.697.136-.914.856-1.616 1.62-2.352a9.48 9.48 0 011.932-1.438l.543.956a8.393 8.393 0 00-1.713 1.269c-.627.6-1.212 1.167-1.288 1.717-.102.703.584 1.6 2.034 2.648 3.306 2.394 7.257 2.394 9.156 2.394 1.517 0 3.594 0 6.112-.863 3.67-1.26 6.332-3.57 6.197-4.45-.093-.16-.526-.642-.983-1.15a56.65 56.65 0 00-1.518-1.633l.788-.761c.526.541 1.043 1.1 1.552 1.667.907 1.015 1.153 1.294 1.22 1.59.51 2.047-3.679 4.67-6.9 5.787-2.586.888-4.79.922-6.29.922zm.763-14.67c-1.314 0-2.654-.101-3.739-.296-1.933-.338-2.941-.913-3.086-1.751-.05-.296.017-.6.195-.905l.73.431c-.077.127-.11.246-.094.339.051.304.712.761 2.4 1.057 1.347.237 3.102.33 4.696.254a24.114 24.114 0 002.916-.322c1.687-.313 2.331-.736 2.374-1.006.017-.127-.085-.322-.297-.533l.61-.592c.407.414.585.837.526 1.243-.119.804-1.094 1.354-3.06 1.718a23.55 23.55 0 01-4.171.363z" fill="#494949"/></svg>