<svg width="26" height="19" viewBox="0 0 26 19" fill="none" xmlns="http://www.w3.org/2000/svg">
<path d="M10.892 18.0446C8.68963 18.0446 5.95049 17.7531 3.2666 16.6818C1.21422 15.8625 0.219602 14.996 0.0301512 13.8774C-0.1593 12.7352 0.582716 11.7899 1.17475 11.0337C2.28777 9.62361 3.81128 8.57591 5.69789 7.92996L6.02943 8.89888C4.32437 9.48181 2.96664 10.4192 1.97992 11.6717C1.45893 12.3334 0.922149 13.0188 1.04056 13.712C1.15896 14.4288 1.98781 15.0748 3.64551 15.7365C8.42914 17.6428 13.4259 16.9496 14.8468 16.6897C16.8834 16.3194 20.7356 15.2796 23.6484 12.4989C24.193 11.979 24.7377 11.3645 24.6903 10.7422C24.6035 9.67875 22.8906 8.63893 20.4356 8.14265L20.6408 7.14221C23.6405 7.74878 25.5823 9.09582 25.7086 10.6634C25.7955 11.7111 25.0771 12.554 24.3588 13.2394C21.2565 16.2091 17.1833 17.312 15.0283 17.698C14.3337 17.8161 12.8181 18.0446 10.892 18.0446Z" fill="#494949"/>
<path d="M12.4313 13.7986C10.6078 13.7986 8.2002 13.5544 6.21096 12.4989C6.06098 12.4201 5.61893 12.1838 5.33475 11.6796C5.05847 11.1755 5.09794 10.6792 5.11372 10.435C5.20845 9.25336 5.42158 7.90632 5.50841 7.38641C5.70576 6.17328 5.83995 5.38554 6.0373 4.7002C6.10834 4.46388 6.37673 3.64462 6.98455 2.87263C8.3186 1.18686 10.592 0.950539 11.263 0.911152C12.747 0.832378 13.6943 1.29715 14.531 1.6989C15.3362 2.09277 15.9756 2.39999 17.0018 2.21093C17.0333 2.20305 17.0728 2.19517 17.1123 2.1873C17.6254 2.08489 18.5726 1.89583 19.2831 2.47876C19.6304 2.76235 19.7646 3.11683 19.9619 3.66826C20.2145 4.39298 20.4435 5.14921 20.6487 5.91333C20.6487 5.9212 20.6566 5.93696 20.6566 5.94483L20.704 6.19691C20.9329 7.37853 21.1144 8.31594 21.2881 9.08006V9.08793C21.3512 9.38727 21.4933 10.0096 21.2013 10.6555C21.0355 11.0179 20.8145 11.2227 20.5303 11.4827C19.9935 11.979 19.4094 12.2547 18.8016 12.5383C18.8016 12.5383 18.6516 12.6091 18.5253 12.6643C17.4991 13.1054 16.3703 13.4205 15.1625 13.6096C15.0836 13.6253 13.9627 13.7986 12.4313 13.7986ZM7.79761 3.50283C7.40292 3.99911 7.14243 4.59779 7.03191 4.98379C6.85036 5.61398 6.72406 6.37022 6.52671 7.55183C6.43988 8.06387 6.22675 9.37152 6.13992 10.5137C6.12413 10.6871 6.10834 10.947 6.23464 11.1833C6.36884 11.4197 6.58986 11.5378 6.69248 11.593C10.0473 13.3733 14.9652 12.6013 15.0204 12.5934C16.1413 12.4201 17.1833 12.1286 18.1385 11.719C18.249 11.6717 18.3832 11.6087 18.3832 11.6087C18.9436 11.3409 19.4331 11.1203 19.8514 10.7264C20.1119 10.4901 20.2066 10.3956 20.2777 10.2302C20.4277 9.89931 20.3487 9.53695 20.2935 9.3085V9.30062C20.1198 8.52076 19.9383 7.57546 19.7093 6.38597L19.662 6.14965C19.4725 5.41705 19.2436 4.69232 19.0068 3.99911C18.8331 3.50283 18.7621 3.36104 18.6516 3.26651C18.32 2.9908 17.6964 3.11683 17.3254 3.18773C17.278 3.19561 17.2386 3.20349 17.1991 3.21136C15.8414 3.46344 14.9494 3.03018 14.089 2.61268C13.2996 2.22668 12.5497 1.86432 11.3261 1.92734C10.7657 1.96673 8.86327 2.16367 7.79761 3.50283Z" fill="#494949"/>
<path d="M9.38425 6.16539C8.86326 6.16539 8.4291 6.03935 8.0502 5.74788C7.41081 5.25948 7.05559 4.40872 7.00033 3.20347C6.99244 2.9829 7.15821 2.80172 7.37923 2.79384C7.59236 2.78597 7.78181 2.95139 7.78971 3.17196C7.83707 4.13301 8.08178 4.78684 8.52383 5.12557C9.22638 5.66123 10.4341 5.29099 12.8259 4.55839C13.3785 4.39296 13.9942 4.20391 14.6889 3.99909C16.1019 3.58947 17.5227 3.20347 18.9199 2.86474C19.1331 2.8096 19.3462 2.94352 19.3936 3.15621C19.4488 3.3689 19.3146 3.58159 19.1015 3.62885C17.7201 3.96758 16.3071 4.3457 14.902 4.75533C14.2152 4.95226 13.5916 5.1492 13.047 5.31462C11.4051 5.81878 10.2605 6.16539 9.38425 6.16539Z" fill="#494949"/>
<path d="M12.4944 11.3645C9.56583 11.3645 7.15823 10.4822 5.77681 9.8284C5.57947 9.73387 5.49264 9.49754 5.58736 9.30061C5.68209 9.10367 5.9189 9.01702 6.11625 9.11155C7.90024 9.95444 11.5235 11.2148 15.7072 10.1829C17.3412 9.78113 18.8805 9.07216 20.2935 8.0796C20.475 7.95357 20.7198 8.00083 20.8461 8.17413C20.9724 8.35532 20.925 8.59952 20.7513 8.72555C19.2594 9.77325 17.6254 10.5216 15.8967 10.947C14.7126 11.2463 13.568 11.3645 12.4944 11.3645Z" fill="#494949"/>
</svg>
