<svg width="26" height="19" fill="none" xmlns="http://www.w3.org/2000/svg"><path d="M10.892 18.045c-2.202 0-4.942-.292-7.625-1.363C1.214 15.862.22 14.996.03 13.877c-.19-1.142.553-2.087 1.145-2.843C2.288 9.624 3.81 8.576 5.698 7.93l.331.969c-1.705.583-3.062 1.52-4.05 2.773-.52.661-1.057 1.347-.938 2.04.118.717.947 1.363 2.605 2.024 4.783 1.907 9.78 1.214 11.2.954 2.037-.37 5.89-1.41 8.802-4.191.545-.52 1.09-1.135 1.042-1.757-.087-1.063-1.8-2.103-4.254-2.6l.205-1c3 .607 4.941 1.954 5.068 3.521.087 1.048-.632 1.891-1.35 2.576-3.103 2.97-7.176 4.073-9.33 4.459-.695.118-2.21.347-4.137.347z" fill="#494949"/><path d="M12.431 13.799c-1.823 0-4.23-.245-6.22-1.3a2.106 2.106 0 01-.876-.82c-.277-.504-.237-1-.221-1.244.094-1.182.308-2.529.394-3.049.198-1.213.332-2 .53-2.686.07-.236.339-1.055.947-1.827C8.319 1.187 10.592.95 11.263.91c1.484-.079 2.431.386 3.268.788.805.394 1.445.701 2.47.512.032-.008.072-.016.111-.024.513-.102 1.46-.291 2.171.292.347.283.482.638.679 1.19.253.724.482 1.48.687 2.244 0 .008.008.024.008.032l.047.252c.229 1.182.41 2.119.584 2.883v.008c.063.3.205.922-.087 1.568-.166.362-.387.567-.67.827-.537.496-1.122.772-1.73 1.055 0 0-.15.071-.276.126a13.99 13.99 0 01-3.362.946c-.08.015-1.2.189-2.732.189zM7.798 3.503a4.582 4.582 0 00-.766 1.48c-.182.631-.308 1.387-.505 2.569-.087.512-.3 1.82-.387 2.962-.016.173-.032.433.095.67.134.236.355.354.457.409 3.355 1.78 8.273 1.008 8.328 1a12.884 12.884 0 003.119-.874c.11-.047.244-.11.244-.11.56-.268 1.05-.489 1.468-.883.26-.236.356-.33.427-.496.15-.33.07-.693.016-.921V9.3c-.174-.78-.356-1.726-.585-2.915l-.047-.236A29.707 29.707 0 0019.007 4c-.174-.497-.245-.639-.355-.733-.332-.276-.956-.15-1.327-.08l-.126.024c-1.358.252-2.25-.18-3.11-.598-.79-.386-1.54-.749-2.763-.686-.56.04-2.463.237-3.528 1.576z" fill="#494949"/><path d="M9.384 6.165c-.52 0-.955-.126-1.334-.417-.64-.489-.994-1.34-1.05-2.545a.396.396 0 01.79-.032c.047.962.292 1.616.734 1.955.702.535 1.91.165 4.302-.568.553-.165 1.168-.354 1.863-.559a99.357 99.357 0 014.23-1.134.386.386 0 01.475.291.386.386 0 01-.292.473c-1.382.339-2.795.717-4.2 1.126-.687.197-1.31.394-1.855.56-1.642.504-2.787.85-3.663.85zm3.11 5.199c-2.928 0-5.336-.882-6.717-1.536a.397.397 0 11.34-.716c1.783.842 5.407 2.103 9.59 1.07a13.606 13.606 0 004.587-2.102.401.401 0 01.552.094.4.4 0 01-.095.552 14.424 14.424 0 01-4.854 2.221 13.82 13.82 0 01-3.403.418z" fill="#494949"/></svg>