<svg width="28" height="15" viewBox="0 0 28 15" fill="none" xmlns="http://www.w3.org/2000/svg">
<path d="M4.8762 12.3689C4.80985 12.3688 4.7441 12.3564 4.68239 12.3323C3.65158 11.9589 2.70524 11.3887 1.89734 10.6542C1.193 10.0067 0.12783 9.03065 0.0112282 7.79001C-0.217248 5.4317 3.10275 3.59486 4.35544 2.90449C7.8464 0.977373 11.3145 0.880082 13.1801 0.824822C15.0166 0.773453 19.3222 0.648922 23.5664 2.98077C24.8222 3.66802 27.7609 5.28226 27.5639 7.3954C27.4749 8.35585 26.758 9.1186 26.1206 9.79418L26.1025 9.8152C25.3459 10.6112 24.4385 11.2528 23.4317 11.7034C23.3028 11.7622 23.156 11.7697 23.0218 11.7243C22.8875 11.679 22.7761 11.5842 22.7108 11.4598C22.6806 11.3988 22.6633 11.3324 22.6599 11.2646C22.6565 11.1968 22.6671 11.129 22.6909 11.0653C22.7148 11.0017 22.7515 10.9434 22.7988 10.8942C22.846 10.8449 22.903 10.8057 22.966 10.7788C23.8451 10.3882 24.6369 9.82921 25.2957 9.13416L25.3178 9.11315C25.8653 8.52941 26.4318 7.92699 26.4901 7.30356C26.6256 5.83876 23.917 4.34905 23.0251 3.8626C19.0457 1.6763 14.9583 1.79461 13.2132 1.84364C11.3208 1.89812 8.14736 1.98919 4.89826 3.78322C3.91345 4.32804 0.918832 5.97808 1.07877 7.69583C1.16228 8.55665 2.01788 9.3412 2.64186 9.91249C3.34564 10.5515 4.16992 11.0474 5.06765 11.3718C5.32292 11.4536 5.47733 11.6972 5.4277 11.9493C5.40157 12.0728 5.33164 12.1831 5.23053 12.2601C5.12941 12.3372 5.00375 12.3752 4.8762 12.3689Z" fill="#494949"/>
<path d="M13.4693 14.8073H13.3795C10.343 14.799 7.33094 14.2713 4.47676 13.2476C4.38572 13.2165 4.30907 13.1541 4.26088 13.0717L3.26425 11.3812C3.23945 11.336 3.22404 11.2865 3.21894 11.2354C3.21385 11.1843 3.21917 11.1327 3.23459 11.0836C3.25001 11.0346 3.27522 10.9891 3.30873 10.9498C3.34224 10.9106 3.38338 10.8783 3.4297 10.855C3.52415 10.8047 3.63434 10.7915 3.73822 10.8181C3.8421 10.8446 3.93198 10.909 3.98986 10.9982L4.91007 12.5634C7.62829 13.5191 10.4911 14.0115 13.3763 14.0197H13.4598C16.7373 14.0228 19.9809 13.4025 23.0007 12.193L23.5569 10.6052C23.5947 10.5043 23.6707 10.4218 23.769 10.3753C23.8672 10.3288 23.9799 10.3219 24.0832 10.3561C24.1341 10.3706 24.1814 10.3951 24.2224 10.4282C24.2633 10.4613 24.2971 10.5023 24.3215 10.5487C24.346 10.595 24.3607 10.6458 24.3646 10.6979C24.3686 10.7501 24.3619 10.8024 24.3448 10.8519L23.7381 12.6094C23.7191 12.6628 23.6887 12.7116 23.649 12.7526C23.6094 12.7935 23.5613 12.8256 23.5081 12.8468C20.3242 14.144 16.9133 14.8097 13.4693 14.8073ZM12.3364 3.9778C12.2071 3.62755 12.9588 2.74961 13.9247 2.82277C14.7031 2.88348 15.3491 3.54271 15.2388 3.88362C15.0505 4.46425 12.5333 4.52184 12.3364 3.9778Z" fill="#494949"/>
<path d="M13.2999 13.8282C10.2186 13.8327 7.16349 13.2689 4.29162 12.1657C4.22841 12.1416 4.1707 12.1053 4.12184 12.0589C4.07299 12.0125 4.03396 11.957 4.00705 11.8956C3.98014 11.8341 3.96587 11.768 3.96509 11.7011C3.96431 11.6342 3.97702 11.5677 4.00248 11.5057C4.05941 11.3799 4.16257 11.2801 4.29112 11.2265C4.41967 11.1729 4.56402 11.1695 4.695 11.217C7.43851 12.2701 10.3566 12.8093 13.2999 12.8071H13.3338C16.6541 12.7974 19.9363 12.1067 22.9723 10.7788C23.059 10.7384 23.1547 10.7208 23.2502 10.7278C23.3458 10.7347 23.4378 10.766 23.5175 10.8185C23.5958 10.8681 23.6587 10.9381 23.6994 11.0208C23.7401 11.1034 23.7571 11.1955 23.7484 11.287C23.7374 11.3791 23.7017 11.4666 23.6449 11.5403C23.5881 11.6141 23.5123 11.6715 23.4254 11.7065C20.2475 13.096 16.8121 13.8185 13.3369 13.8282H13.2999Z" fill="#494949"/>
<path d="M26.472 4.99973C26.6745 5.18809 26.8501 5.40446 26.9951 5.63795C27.1582 5.89947 27.2535 6.19757 27.2748 6.50189C27.2843 6.81477 27.207 7.12455 27.0503 7.39851C26.9137 7.64254 26.7393 7.86393 26.5334 8.05464C26.1559 8.40009 25.7336 8.69453 25.2776 8.93025C24.8466 9.16141 24.3976 9.36533 23.9359 9.54123C23.0299 9.88516 22.1013 10.1676 21.1564 10.3865C19.2786 10.8339 17.3616 11.1015 15.4318 11.1858C14.4659 11.2232 13.5032 11.2045 12.5396 11.1344C10.6226 10.9898 8.72932 10.6236 6.89863 10.0432C6.88127 10.0385 6.86506 10.0304 6.85096 10.0193C6.83685 10.0083 6.82515 9.99454 6.81655 9.97892C6.80794 9.9633 6.80261 9.94613 6.80088 9.92843C6.79914 9.91073 6.80104 9.89287 6.80645 9.87591C6.82772 9.80586 6.90808 9.76694 6.98135 9.78796C8.80716 10.2727 10.6815 10.5572 12.5704 10.6363C14.4536 10.7001 16.3385 10.5665 18.1933 10.2378C19.1229 10.0822 20.0392 9.88213 20.9413 9.63618C21.8382 9.39954 22.7174 9.10176 23.5727 8.74501C23.9901 8.57038 24.3961 8.37022 24.7883 8.1457C25.1634 7.93945 25.5084 7.68649 25.8126 7.3954C25.9457 7.26776 26.0568 7.12143 26.1395 6.96343C26.21 6.83954 26.2428 6.69821 26.234 6.55637C26.2189 6.40875 26.166 6.26735 26.0804 6.14542C25.9782 5.99 25.8552 5.84889 25.7149 5.7259C25.6639 5.68048 25.6229 5.62524 25.5943 5.56358C25.5658 5.50192 25.5503 5.43514 25.5488 5.36735C25.5473 5.29955 25.5599 5.23218 25.5857 5.16936C25.6116 5.10655 25.6502 5.04961 25.6991 5.00207C25.8004 4.90389 25.9358 4.84761 26.0777 4.84471C26.2196 4.84182 26.3572 4.89253 26.4625 4.9865L26.472 4.99973Z" fill="#494949"/>
</svg>
