<svg width="28" height="15" fill="none" xmlns="http://www.w3.org/2000/svg"><path d="M4.876 12.369a.535.535 0 01-.194-.037 8.385 8.385 0 01-2.785-1.678C1.193 10.007.127 9.031.011 7.79c-.228-2.358 3.092-4.195 4.344-4.886C7.846.977 11.315.88 13.18.824c1.837-.05 6.142-.175 10.386 2.157 1.256.687 4.195 2.301 3.998 4.414-.09.96-.806 1.724-1.443 2.4l-.018.02a8.442 8.442 0 01-2.671 1.888.558.558 0 01-.721-.243.496.496 0 01.255-.681c.88-.39 1.67-.95 2.33-1.645l.022-.02c.547-.585 1.114-1.187 1.172-1.81.136-1.465-2.573-2.955-3.465-3.441-3.98-2.187-8.067-2.068-9.812-2.02-1.892.055-5.066.146-8.315 1.94-.985.545-3.98 2.195-3.82 3.913.084.86.94 1.645 1.564 2.216a7.298 7.298 0 002.426 1.46c.255.082.41.325.36.577a.528.528 0 01-.552.42z" fill="#494949"/><path d="M13.47 14.807h-.09a26.589 26.589 0 01-8.903-1.56.4.4 0 01-.216-.175l-.997-1.69a.382.382 0 01.166-.527.43.43 0 01.56.143l.92 1.565a25.749 25.749 0 008.466 1.457h.084A25.611 25.611 0 0023 12.193l.557-1.588a.424.424 0 01.526-.25.393.393 0 01.239.194.38.38 0 01.023.303l-.607 1.757a.398.398 0 01-.23.238 26.561 26.561 0 01-10.039 1.96zm-1.134-10.83c-.129-.35.623-1.227 1.589-1.154.778.06 1.424.72 1.314 1.06-.189.581-2.706.639-2.903.095z" fill="#494949"/><path d="M13.3 13.828a25.023 25.023 0 01-9.008-1.662.51.51 0 01-.327-.465.5.5 0 01.037-.195.557.557 0 01.693-.289 23.966 23.966 0 008.605 1.59h.034c3.32-.01 6.602-.7 9.638-2.028a.561.561 0 01.545.04.502.502 0 01.231.468.515.515 0 01-.323.42 25.364 25.364 0 01-10.088 2.121H13.3z" fill="#494949"/><path d="M26.472 5c.202.188.378.404.523.638.163.261.258.56.28.864a1.7 1.7 0 01-.225.897 2.676 2.676 0 01-.517.656c-.377.345-.8.64-1.255.875-.431.231-.88.435-1.342.611a21.51 21.51 0 01-2.78.845 30.43 30.43 0 01-5.724.8 24.852 24.852 0 01-8.533-1.143.133.133 0 01-.098-.115.13.13 0 01.005-.052.141.141 0 01.175-.088c1.826.485 3.7.77 5.59.848a26.99 26.99 0 005.622-.398c.93-.156 1.846-.356 2.748-.602a20.265 20.265 0 002.632-.891 10.96 10.96 0 001.215-.6 4.89 4.89 0 001.025-.75c.133-.127.244-.274.327-.432a.731.731 0 00.094-.407.87.87 0 00-.154-.41 2.072 2.072 0 00-.365-.42.498.498 0 01-.13-.557.498.498 0 01.114-.167.56.56 0 01.763-.015l.01.013z" fill="#494949"/></svg>