<svg width="23" height="23" viewBox="0 0 23 23" fill="none" xmlns="http://www.w3.org/2000/svg">
<path d="M1.19519 14.2575C1.11172 14.258 1.02898 14.2419 0.95181 14.2101C0.874639 14.1782 0.804583 14.1314 0.745731 14.0722C0.686879 14.013 0.640411 13.9426 0.609041 13.8653C0.57767 13.7879 0.562026 13.7051 0.563021 13.6216C0.574243 13.1363 0.610715 12.6537 0.69862 12.1796C0.745378 11.9084 0.863209 11.2697 1.30087 10.2251C1.54864 9.61954 1.83669 9.03125 2.16309 8.46418C2.41558 8.00782 2.43709 7.97135 2.4081 7.78806C2.39688 7.70109 2.36789 7.60196 2.3389 7.48507C2.23697 7.09826 2.16845 6.70342 2.1341 6.30489C2.1154 6.04585 2.09763 5.80457 2.09763 5.57078V5.5605C2.09763 5.52309 2.12662 4.50843 2.58391 3.52932C3.31054 1.99097 5.19209 1.35225 6.56865 0.877189C7.92745 0.413347 9.00569 0.288035 10.054 0.172075H10.0727C11.3539 0.0261888 12.3732 -0.0991231 13.732 0.113159C14.7513 0.270267 15.4387 0.54053 16.7021 1.0343C18.507 1.73941 19.5918 2.16585 20.0967 3.18892C20.2894 3.5873 20.5344 4.35133 20.5522 5.18362C20.5522 5.40619 20.5335 5.582 20.5157 5.80457L20.4942 5.94017C20.4287 6.51062 20.3483 6.86786 20.2894 7.11942C20.2604 7.26624 20.2352 7.36069 20.2239 7.45608C20.1949 7.73663 20.2707 7.86474 20.5344 8.2519C20.815 8.65776 21.1918 9.20951 21.4658 10.1961C21.6594 10.8937 21.7361 11.5586 21.7763 11.9093C21.8352 12.4312 21.8642 12.9717 21.8642 13.5057C21.8642 13.8517 21.5827 14.1229 21.232 14.1229H21.2208C21.1381 14.1225 21.0563 14.1057 20.9801 14.0734C20.904 14.0412 20.835 13.9941 20.7772 13.9349C20.7194 13.8757 20.674 13.8056 20.6436 13.7287C20.6131 13.6518 20.5983 13.5696 20.5999 13.487C20.5999 13.0007 20.5812 12.5191 20.5232 12.044C20.4867 11.7223 20.4175 11.1238 20.2529 10.5244C20.1016 9.95387 19.8412 9.41812 19.4861 8.94673C19.1868 8.51188 18.8754 8.05832 18.9633 7.30271C18.982 7.13812 19.011 6.99223 19.0475 6.82764C19.1064 6.58637 19.1756 6.28712 19.2345 5.78307L19.2523 5.64747C19.2738 5.44641 19.2925 5.32951 19.2925 5.20233C19.2813 4.53743 19.0774 3.95669 18.9708 3.74066C18.6903 3.17021 17.9328 2.86067 16.2457 2.20325C14.9926 1.70949 14.4194 1.48692 13.5384 1.35225C12.3442 1.16896 11.4493 1.27557 10.2186 1.41023H10.1999C9.17028 1.52713 8.20893 1.64402 6.97825 2.06017C5.74664 2.47352 4.21952 2.99908 3.71546 4.06236C3.50196 4.53859 3.3771 5.04976 3.34701 5.57078C3.34701 5.76436 3.35823 5.96916 3.376 6.18145C3.41621 6.64529 3.49289 6.92584 3.55181 7.17833C3.59202 7.32048 3.62101 7.45608 3.63878 7.60196C3.72668 8.22291 3.52188 8.58108 3.25162 9.07391C3.05804 9.42086 2.79526 9.89686 2.4558 10.7002C2.07612 11.6278 1.96951 12.1684 1.93304 12.3909C1.85414 12.7967 1.81499 13.2092 1.81614 13.6226C1.81866 13.7055 1.80443 13.7881 1.7743 13.8654C1.74418 13.9427 1.69878 14.0131 1.64081 14.0725C1.58285 14.1318 1.51351 14.1789 1.43695 14.2109C1.36038 14.2428 1.27816 14.2581 1.19519 14.2575Z" fill="#494949"/>
<path d="M11.4895 22.5132C10.4122 22.5132 5.87102 22.4552 2.51377 21.4938C2.26128 21.4181 1.47668 21.2058 0.863208 20.5194C0.476049 20.0845 0.0701878 19.357 0.0187537 17.2865C-0.0280046 15.2189 -0.0579299 13.9583 0.844504 13.2934C1.73572 12.6247 2.84295 13.0484 4.00817 13.4944C4.30742 13.6113 4.6179 13.7282 4.95081 13.8451C8.65407 15.0908 14.0135 14.9954 17.9739 13.6113C18.1376 13.5524 18.3134 13.487 18.478 13.429C19.6395 13.0016 20.9618 12.5078 21.8352 13.2644C22.2691 13.6403 22.2916 14.0172 22.3393 15.1487C22.358 15.5761 22.3795 16.1643 22.4262 16.9499L22.4449 17.2968C22.5216 18.506 22.5618 19.1167 22.1457 19.8218C21.7062 20.5596 21.0497 20.9253 20.5821 21.1404C17.8636 22.3785 12.7202 22.5029 11.7121 22.5132H11.4895ZM1.60105 14.2977C1.23166 14.5689 1.24288 15.606 1.2831 17.2566C1.32985 19.1456 1.68896 19.5403 1.80585 19.6787C2.1341 20.0434 2.5437 20.1902 2.86446 20.2856C6.43399 21.3049 11.6541 21.2535 11.7046 21.2535C12.2965 21.246 17.5241 21.1478 20.0593 19.9966C20.3885 19.8433 20.8047 19.6207 21.0562 19.1821C21.2713 18.8174 21.262 18.4882 21.1843 17.3735L21.1656 17.0275C21.1233 16.4179 21.0943 15.8074 21.0787 15.1964C21.0562 14.7326 21.0385 14.3267 21.0095 14.2108C20.6878 13.9508 19.6684 14.3277 18.9241 14.6082C18.7482 14.6737 18.5724 14.7326 18.3976 14.8018C14.1968 16.2812 8.50164 16.3766 4.55243 15.0431C4.21818 14.9317 3.88787 14.8088 3.56209 14.6746C2.68958 14.338 1.93304 14.0462 1.60105 14.2977Z" fill="#494949"/>
</svg>
