<svg width="23" height="23" fill="none" xmlns="http://www.w3.org/2000/svg"><path d="M1.195 14.258a.629.629 0 01-.632-.636 9.05 9.05 0 01.136-1.442c.046-.272.164-.91.602-1.955.248-.605.536-1.194.862-1.76.253-.457.274-.494.245-.677-.011-.087-.04-.186-.07-.303a6.986 6.986 0 01-.204-1.18c-.019-.26-.036-.5-.036-.734v-.01c0-.038.029-1.053.486-2.032C3.31 1.991 5.192 1.352 6.569.877 7.927.413 9.006.288 10.054.172h.019c1.28-.146 2.3-.271 3.659-.059 1.02.157 1.707.428 2.97.921 1.805.705 2.89 1.132 3.395 2.155.192.398.437 1.162.455 1.995 0 .222-.018.398-.036.62l-.022.136c-.065.57-.146.928-.205 1.18-.029.146-.054.24-.065.336-.03.28.047.409.31.796.281.406.658.958.932 1.944.193.698.27 1.363.31 1.713.06.522.088 1.063.088 1.597a.62.62 0 01-.632.617h-.011a.624.624 0 01-.621-.636c0-.486-.019-.968-.077-1.443a9.94 9.94 0 00-.27-1.52 4.568 4.568 0 00-.767-1.577c-.3-.435-.61-.889-.523-1.644a4.43 4.43 0 01.084-.475c.06-.242.129-.54.188-1.045l.017-.136c.022-.2.04-.317.04-.445a3.79 3.79 0 00-.321-1.461c-.28-.57-1.038-.88-2.725-1.538-1.253-.494-1.827-.716-2.708-.85-1.194-.184-2.089-.077-3.32.057H10.2c-1.03.117-1.991.234-3.222.65-1.231.414-2.758.94-3.263 2.002a4.292 4.292 0 00-.368 1.509c0 .193.011.398.029.61.04.464.117.745.176.997.04.142.069.278.087.424.088.62-.117.98-.387 1.472-.194.347-.457.823-.796 1.626-.38.928-.486 1.468-.523 1.69a6.36 6.36 0 00-.117 1.233.617.617 0 01-.62.635z" fill="#494949"/><path d="M11.49 22.513c-1.078 0-5.619-.058-8.976-1.02-.253-.075-1.037-.287-1.65-.974-.388-.434-.794-1.162-.845-3.232-.047-2.068-.077-3.329.826-3.994.89-.668 1.998-.245 3.163.201.3.117.61.234.943.351 3.703 1.246 9.063 1.15 13.023-.234.164-.059.34-.124.504-.182 1.162-.427 2.484-.921 3.357-.165.434.376.457.753.504 1.885.019.427.04 1.015.087 1.8l.019.348c.077 1.209.117 1.82-.3 2.525-.439.738-1.095 1.103-1.563 1.318-2.718 1.238-7.862 1.363-8.87 1.373h-.223zM1.6 14.298c-.37.27-.358 1.308-.318 2.959.047 1.889.406 2.283.523 2.422.328.364.738.511 1.058.607 3.57 1.019 8.79.967 8.84.967.592-.007 5.82-.105 8.355-1.256.33-.154.746-.376.997-.815.215-.365.206-.694.128-1.808l-.018-.346a39.96 39.96 0 01-.087-1.832c-.023-.463-.04-.87-.07-.985-.321-.26-1.34.117-2.085.397-.176.066-.352.125-.526.194-4.201 1.48-9.896 1.575-13.846.241a15.307 15.307 0 01-.99-.368c-.872-.337-1.629-.629-1.96-.377z" fill="#494949"/></svg>