<svg width="41" height="41" viewBox="0 0 41 41" fill="none" xmlns="http://www.w3.org/2000/svg">
<path d="M10.902 11.8591C10.7845 11.8608 10.6679 11.8392 10.5588 11.7955C10.4497 11.7519 10.3504 11.6871 10.2665 11.6049L6.62388 7.9483C6.45702 7.78144 6.36328 7.55514 6.36328 7.31917C6.36328 7.0832 6.45702 6.85689 6.62388 6.69004C6.79073 6.52318 7.01704 6.42944 7.25301 6.42944C7.48898 6.42944 7.71528 6.52318 7.88214 6.69004L11.5311 10.3403C11.6582 10.4647 11.745 10.6244 11.7804 10.7987C11.8158 10.973 11.7982 11.1539 11.7298 11.318C11.6614 11.4822 11.5454 11.6221 11.3967 11.7197C11.248 11.8172 11.0734 11.868 10.8956 11.8654L10.902 11.8591Z" fill="#494949"/>
<path d="M34.3152 35.0938C34.0815 35.0945 33.8569 35.0032 33.6899 34.8396L30.0397 31.2338C29.9562 31.1517 29.8898 31.054 29.8441 30.9462C29.7984 30.8383 29.7744 30.7226 29.7735 30.6055C29.7716 30.3691 29.8637 30.1416 30.0295 29.973C30.1953 29.8045 30.4214 29.7087 30.6578 29.7068C30.8942 29.7049 31.1218 29.797 31.2903 29.9629L34.9405 33.5686C35.0669 33.6924 35.1535 33.8512 35.1893 34.0245C35.225 34.1978 35.2082 34.3779 35.1411 34.5416C35.0739 34.7053 34.9595 34.8453 34.8124 34.9437C34.6653 35.042 34.4922 35.0943 34.3152 35.0938V35.0938Z" fill="#494949"/>
<path d="M20.7647 7.54158C20.5287 7.54158 20.3024 7.44785 20.1356 7.281C19.9687 7.11415 19.875 6.88786 19.875 6.6519V1.6824C19.875 1.44645 19.9687 1.22015 20.1356 1.05331C20.3024 0.886458 20.5287 0.792725 20.7647 0.792725C21.0006 0.792725 21.2269 0.886458 21.3938 1.05331C21.5606 1.22015 21.6544 1.44645 21.6544 1.6824V6.6519C21.6544 6.88786 21.5606 7.11415 21.3938 7.281C21.2269 7.44785 21.0006 7.54158 20.7647 7.54158V7.54158Z" fill="#494949"/>
<path d="M39.8947 21.6849H34.9151C34.6791 21.6849 34.4528 21.5911 34.286 21.4243C34.1191 21.2574 34.0254 21.0312 34.0254 20.7952C34.0254 20.5592 34.1191 20.3329 34.286 20.1661C34.4528 19.9993 34.6791 19.9055 34.9151 19.9055H39.8947C40.1307 19.9055 40.357 19.9993 40.5238 20.1661C40.6907 20.3329 40.7844 20.5592 40.7844 20.7952C40.7844 21.0312 40.6907 21.2574 40.5238 21.4243C40.357 21.5911 40.1307 21.6849 39.8947 21.6849V21.6849Z" fill="#494949"/>
<path d="M6.69663 21.6595H1.68265C1.44669 21.6595 1.2204 21.5658 1.05355 21.3989C0.886703 21.2321 0.792969 21.0058 0.792969 20.7698C0.792969 20.5338 0.886703 20.3076 1.05355 20.1407C1.2204 19.9739 1.44669 19.8801 1.68265 19.8801H6.69663C6.93259 19.8801 7.15888 19.9739 7.32573 20.1407C7.49258 20.3076 7.58631 20.5338 7.58631 20.7698C7.58631 21.0058 7.49258 21.2321 7.32573 21.3989C7.15888 21.5658 6.93259 21.6595 6.69663 21.6595V21.6595Z" fill="#494949"/>
<path d="M20.7725 40.7318C20.5365 40.7318 20.3102 40.6381 20.1434 40.4712C19.9765 40.3044 19.8828 40.0781 19.8828 39.8421V34.7481C19.8828 34.5121 19.9765 34.2858 20.1434 34.119C20.3102 33.9521 20.5365 33.8584 20.7725 33.8584C21.0085 33.8584 21.2347 33.9521 21.4016 34.119C21.5684 34.2858 21.6622 34.5121 21.6622 34.7481V39.8421C21.6622 40.0781 21.5684 40.3044 21.4016 40.4712C21.2347 40.6381 21.0085 40.7318 20.7725 40.7318V40.7318Z" fill="#494949"/>
<path d="M30.6755 11.8032C30.4982 11.8045 30.3246 11.7528 30.1769 11.6547C30.0292 11.5567 29.9141 11.4167 29.8465 11.2528C29.7789 11.0889 29.7618 10.9086 29.7974 10.7349C29.833 10.5612 29.9197 10.4021 30.0464 10.2781L33.6051 6.71933C33.7719 6.55248 33.9982 6.45874 34.2342 6.45874C34.4702 6.45874 34.6965 6.55248 34.8633 6.71933C35.0302 6.88619 35.1239 7.1125 35.1239 7.34847C35.1239 7.58444 35.0302 7.81074 34.8633 7.9776L31.3046 11.5363C31.2225 11.6201 31.1247 11.6868 31.0167 11.7326C30.9087 11.7784 30.7928 11.8024 30.6755 11.8032V11.8032Z" fill="#494949"/>
<path d="M7.28152 35.2067C7.10369 35.2093 6.92917 35.1586 6.78048 35.061C6.63178 34.9634 6.51575 34.8235 6.44734 34.6593C6.37894 34.4952 6.36131 34.3143 6.39673 34.14C6.43214 33.9657 6.51898 33.806 6.64604 33.6816L10.2531 30.0746C10.3357 29.9919 10.4338 29.9264 10.5417 29.8817C10.6496 29.837 10.7653 29.814 10.8822 29.814C10.999 29.814 11.1147 29.837 11.2227 29.8817C11.3306 29.9264 11.4287 29.9919 11.5113 30.0746C11.5939 30.1572 11.6595 30.2553 11.7042 30.3632C11.7489 30.4712 11.7719 30.5868 11.7719 30.7037C11.7719 30.8205 11.7489 30.9362 11.7042 31.0442C11.6595 31.1521 11.5939 31.2502 11.5113 31.3328L7.90938 34.9462C7.74283 35.1127 7.51705 35.2064 7.28152 35.2067Z" fill="#494949"/>
<path d="M15.4354 7.98269C15.2558 7.98278 15.0805 7.92856 14.9324 7.82716C14.7843 7.72577 14.6703 7.58194 14.6054 7.41457L13.3001 4.04522C13.215 3.82511 13.2208 3.5802 13.3163 3.36437C13.4117 3.14854 13.589 2.97947 13.8091 2.89436C14.0293 2.80925 14.2742 2.81506 14.49 2.91052C14.7058 3.00598 14.8749 3.18327 14.96 3.40338L16.264 6.76637C16.3163 6.90122 16.3349 7.04677 16.3182 7.19043C16.3016 7.33408 16.2502 7.47151 16.1684 7.59081C16.0867 7.71011 15.9771 7.80769 15.8491 7.87509C15.7212 7.94249 15.5787 7.97768 15.4341 7.97761L15.4354 7.98269Z" fill="#494949"/>
<path d="M27.4607 38.7034C27.2822 38.7034 27.1078 38.6497 26.9603 38.5492C26.8127 38.4488 26.6988 38.3064 26.6332 38.1403L25.3152 34.799C25.2642 34.689 25.2361 34.5697 25.2328 34.4485C25.2294 34.3273 25.2509 34.2067 25.2959 34.0941C25.3409 33.9815 25.4084 33.8793 25.4943 33.7937C25.5802 33.7081 25.6827 33.641 25.7955 33.5965C25.9083 33.552 26.029 33.531 26.1502 33.5349C26.2714 33.5387 26.3906 33.5673 26.5003 33.6188C26.6101 33.6704 26.7081 33.7438 26.7885 33.8346C26.8688 33.9254 26.9297 34.0317 26.9675 34.147L28.2855 37.4883C28.3388 37.6232 28.3582 37.7691 28.3422 37.9133C28.3262 38.0574 28.2751 38.1955 28.1936 38.3154C28.112 38.4353 28.0023 38.5335 27.8742 38.6013C27.746 38.6692 27.6031 38.7046 27.4581 38.7047L27.4607 38.7034Z" fill="#494949"/>
<path d="M26.7819 8.06025C26.6339 8.0602 26.4882 8.0232 26.3581 7.95261C26.2279 7.88202 26.1175 7.78007 26.0367 7.65599C25.9559 7.53192 25.9074 7.38965 25.8955 7.24208C25.8836 7.09451 25.9087 6.9463 25.9685 6.81088L27.3742 3.63346C27.4694 3.41755 27.6465 3.24832 27.8665 3.16299C28.0865 3.07766 28.3314 3.08322 28.5473 3.17845C28.7632 3.27367 28.9325 3.45077 29.0178 3.67077C29.1031 3.89077 29.0976 4.13565 29.0023 4.35156L27.5966 7.52898C27.5271 7.68706 27.413 7.82146 27.2683 7.9158C27.1237 8.01014 26.9547 8.06033 26.7819 8.06025V8.06025Z" fill="#494949"/>
<path d="M37.5776 29.1072C37.4537 29.1071 37.3312 29.0812 37.2179 29.031L34.0303 27.6227C33.9234 27.5755 33.8268 27.5077 33.7461 27.4231C33.6655 27.3386 33.6022 27.239 33.56 27.13C33.5178 27.021 33.4975 26.9047 33.5002 26.7879C33.503 26.6711 33.5287 26.5559 33.5759 26.449C33.6232 26.3421 33.691 26.2455 33.7755 26.1648C33.8601 26.0842 33.9597 26.0209 34.0687 25.9787C34.1777 25.9365 34.2939 25.9162 34.4108 25.9189C34.5276 25.9217 34.6428 25.9474 34.7497 25.9946L37.9373 27.4029C38.1245 27.485 38.2777 27.6291 38.3711 27.8109C38.4645 27.9928 38.4925 28.2012 38.4503 28.4013C38.4081 28.6013 38.2982 28.7807 38.1393 28.9092C37.9804 29.0378 37.782 29.1077 37.5776 29.1072V29.1072Z" fill="#494949"/>
<path d="M7.21959 15.6631C7.09612 15.6628 6.97407 15.6369 6.86118 15.5868L3.64943 14.1735C3.54253 14.1263 3.44598 14.0585 3.36529 13.9739C3.2846 13.8894 3.22135 13.7897 3.17916 13.6808C3.09395 13.4606 3.09967 13.2157 3.19506 12.9998C3.29046 12.7839 3.46771 12.6147 3.68783 12.5295C3.90795 12.4443 4.1529 12.45 4.3688 12.5454L7.57928 13.9638C7.76348 14.0477 7.91356 14.1919 8.00476 14.3726C8.09596 14.5533 8.12282 14.7597 8.08091 14.9577C8.03899 15.1557 7.93081 15.3335 7.77422 15.4618C7.61763 15.59 7.42199 15.661 7.21959 15.6631V15.6631Z" fill="#494949"/>
<path d="M13.3855 38.4058C13.2374 38.4057 13.0917 38.3687 12.9616 38.2981C12.8314 38.2275 12.721 38.1256 12.6402 38.0015C12.5594 37.8774 12.5109 37.7352 12.499 37.5876C12.4871 37.44 12.5122 37.2918 12.572 37.1564L14.0121 33.8938C14.1074 33.6779 14.2847 33.5088 14.5048 33.4235C14.7249 33.3383 14.9699 33.3441 15.1858 33.4394C15.4017 33.5348 15.5709 33.7121 15.6561 33.9322C15.7413 34.1523 15.7356 34.3973 15.6402 34.6132L14.1989 37.8745C14.1294 38.0324 14.0155 38.1666 13.8711 38.261C13.7267 38.3553 13.558 38.4056 13.3855 38.4058Z" fill="#494949"/>
<path d="M34.5293 16.3721C34.3185 16.3765 34.113 16.3059 33.9494 16.1728C33.7858 16.0398 33.6748 15.8529 33.6361 15.6456C33.5975 15.4383 33.6338 15.224 33.7385 15.041C33.8432 14.8579 34.0095 14.718 34.2078 14.6462L37.4932 13.3752C37.7113 13.2986 37.9506 13.3099 38.1604 13.4067C38.3703 13.5034 38.5343 13.678 38.6177 13.8936C38.7011 14.1091 38.6974 14.3486 38.6073 14.5614C38.5172 14.7742 38.3479 14.9437 38.1351 15.0338L34.856 16.3111C34.7519 16.3518 34.6411 16.3725 34.5293 16.3721V16.3721Z" fill="#494949"/>
<path d="M3.68175 28.3234C3.47398 28.3236 3.27268 28.2512 3.11275 28.1185C2.95283 27.9859 2.84436 27.8015 2.80618 27.5972C2.76799 27.393 2.80248 27.1819 2.90367 27.0004C3.00487 26.8189 3.16638 26.6786 3.36019 26.6038L6.69014 25.3137C6.79921 25.2715 6.91554 25.2512 7.03247 25.2539C7.1494 25.2566 7.26465 25.2824 7.37163 25.3296C7.47862 25.3769 7.57524 25.4448 7.656 25.5294C7.73675 25.614 7.80005 25.7137 7.84228 25.8228C7.8845 25.9318 7.90483 26.0482 7.90211 26.1651C7.89938 26.282 7.87365 26.3973 7.82638 26.5042C7.77911 26.6112 7.71124 26.7079 7.62662 26.7886C7.54201 26.8694 7.44233 26.9327 7.33325 26.9749L4.00331 28.2637C3.90073 28.3033 3.79171 28.3235 3.68175 28.3234V28.3234Z" fill="#494949"/>
<path d="M20.8203 31.5502C18.6949 31.5502 16.6173 30.92 14.8501 29.7392C13.0829 28.5584 11.7056 26.8801 10.8922 24.9165C10.0789 22.9529 9.86607 20.7923 10.2807 18.7077C10.6953 16.6232 11.7188 14.7084 13.2217 13.2056C14.7245 11.7027 16.6393 10.6792 18.7238 10.2646C20.8084 9.84995 22.969 10.0628 24.9326 10.8761C26.8962 11.6894 28.5745 13.0668 29.7553 14.834C30.9361 16.6012 31.5664 18.6788 31.5664 20.8042C31.5633 23.6533 30.4302 26.3848 28.4156 28.3994C26.4009 30.4141 23.6694 31.5472 20.8203 31.5502V31.5502ZM20.8203 11.8387C19.0468 11.8387 17.3132 12.3646 15.8387 13.3499C14.3641 14.3352 13.2148 15.7356 12.5361 17.374C11.8575 19.0125 11.6799 20.8154 12.0259 22.5548C12.3719 24.2941 13.2259 25.8918 14.4799 27.1459C15.7339 28.3999 17.3316 29.2539 19.071 29.5999C20.8103 29.9458 22.6132 29.7683 24.2517 29.0896C25.8901 28.4109 27.2906 27.2616 28.2758 25.7871C29.2611 24.3125 29.787 22.5789 29.787 20.8054C29.7836 18.4286 28.8378 16.1501 27.1568 14.4696C25.4759 12.7892 23.1971 11.844 20.8203 11.8413V11.8387Z" fill="#494949"/>
</svg>
