<svg width="41" height="41" fill="none" xmlns="http://www.w3.org/2000/svg"><path d="M10.902 11.86a.888.888 0 01-.635-.255L6.624 7.948A.89.89 0 117.882 6.69l3.65 3.65a.889.889 0 01-.636 1.525l.006-.006zm23.413 23.234a.89.89 0 01-.625-.254l-3.65-3.606a.89.89 0 111.25-1.271l3.65 3.606a.89.89 0 01-.625 1.525zM20.765 7.542a.89.89 0 01-.89-.89v-4.97a.89.89 0 111.78 0v4.97a.89.89 0 01-.89.89zm19.13 14.143h-4.98a.89.89 0 010-1.78h4.98a.89.89 0 010 1.78zM6.697 21.66H1.683a.89.89 0 110-1.78h5.014a.89.89 0 010 1.78zm14.076 19.072a.89.89 0 01-.89-.89v-5.094a.89.89 0 111.78 0v5.094a.89.89 0 01-.89.89zm9.902-28.929a.89.89 0 01-.629-1.525l3.56-3.559a.89.89 0 111.257 1.259l-3.558 3.558a.889.889 0 01-.63.267zM7.282 35.207a.89.89 0 01-.636-1.525l3.607-3.607a.888.888 0 011.451.97.89.89 0 01-.193.288L7.91 34.946a.89.89 0 01-.627.26zm8.153-27.224a.89.89 0 01-.83-.568L13.3 4.045a.89.89 0 111.66-.642l1.304 3.363a.889.889 0 01-.83 1.212l.001.005zm12.025 30.72a.889.889 0 01-.827-.563l-1.318-3.34a.891.891 0 011.185-1.18.891.891 0 01.468.528l1.317 3.341a.89.89 0 01-.827 1.217l.003-.002zM26.782 8.06a.89.89 0 01-.814-1.25l1.406-3.177a.89.89 0 111.628.719l-1.405 3.177a.889.889 0 01-.815.531zm10.796 21.047a.89.89 0 01-.36-.076l-3.188-1.408a.889.889 0 11.72-1.628l3.187 1.408a.89.89 0 01-.36 1.704zM7.22 15.663a.889.889 0 01-.359-.076L3.65 14.174a.889.889 0 01.039-1.644.89.89 0 01.68.015l3.211 1.419a.89.89 0 01-.36 1.7zm6.166 22.743a.89.89 0 01-.814-1.25l1.44-3.262a.89.89 0 111.628.72l-1.441 3.26a.89.89 0 01-.813.532zM34.53 16.372a.89.89 0 01-.322-1.726l3.285-1.27a.89.89 0 01.642 1.658l-3.279 1.277a.888.888 0 01-.327.061zM3.682 28.323a.89.89 0 01-.322-1.72l3.33-1.29a.892.892 0 01.643 1.662l-3.33 1.289a.89.89 0 01-.321.06zM20.82 31.55a10.746 10.746 0 1110.746-10.746A10.758 10.758 0 0120.82 31.55zm0-19.711a8.966 8.966 0 108.967 8.966 8.977 8.977 0 00-8.967-8.964v-.002z" fill="#494949"/></svg>