<svg width="26" height="25" viewBox="0 0 26 25" fill="none" xmlns="http://www.w3.org/2000/svg">
<path d="M6.32734 6.92702C6.25381 6.92808 6.18081 6.91456 6.11253 6.88725C6.04426 6.85994 5.98207 6.81938 5.92955 6.76791L3.64945 4.47905C3.545 4.37461 3.48633 4.23295 3.48633 4.08525C3.48633 3.93754 3.545 3.79588 3.64945 3.69144C3.75389 3.587 3.89555 3.52832 4.04326 3.52832C4.19096 3.52832 4.33262 3.587 4.43706 3.69144L6.72114 5.97632C6.80067 6.05422 6.85503 6.15416 6.8772 6.26326C6.89937 6.37236 6.88833 6.48559 6.84552 6.58835C6.8027 6.69112 6.73007 6.77869 6.63699 6.83976C6.54392 6.90084 6.43467 6.93262 6.32336 6.931L6.32734 6.92702Z" fill="white"/>
<path d="M20.9841 21.4709C20.8378 21.4713 20.6971 21.4142 20.5926 21.3118L18.3078 19.0547C18.2555 19.0033 18.2139 18.9421 18.1853 18.8747C18.1567 18.8072 18.1417 18.7347 18.1411 18.6614C18.1399 18.5134 18.1976 18.371 18.3014 18.2655C18.4052 18.16 18.5467 18.1001 18.6947 18.0989C18.8427 18.0977 18.9851 18.1554 19.0906 18.2592L21.3755 20.5162C21.4546 20.5937 21.5088 20.6931 21.5312 20.8016C21.5535 20.9101 21.543 21.0228 21.501 21.1252C21.459 21.2277 21.3874 21.3154 21.2953 21.3769C21.2032 21.4385 21.0948 21.4712 20.9841 21.4709V21.4709Z" fill="white"/>
<path d="M12.5017 4.22448C12.354 4.22448 12.2124 4.1658 12.1079 4.06136C12.0035 3.95693 11.9448 3.81528 11.9448 3.66758V0.556899C11.9448 0.4092 12.0035 0.267551 12.1079 0.163112C12.2124 0.0586731 12.354 0 12.5017 0C12.6494 0 12.7911 0.0586731 12.8955 0.163112C12.9999 0.267551 13.0586 0.4092 13.0586 0.556899V3.66758C13.0586 3.81528 12.9999 3.95693 12.8955 4.06136C12.7911 4.1658 12.6494 4.22448 12.5017 4.22448V4.22448Z" fill="white"/>
<path d="M24.4757 13.0777H21.3587C21.211 13.0777 21.0693 13.019 20.9649 12.9146C20.8604 12.8101 20.8018 12.6685 20.8018 12.5208C20.8018 12.3731 20.8604 12.2314 20.9649 12.127C21.0693 12.0225 21.211 11.9639 21.3587 11.9639H24.4757C24.6234 11.9639 24.765 12.0225 24.8695 12.127C24.9739 12.2314 25.0326 12.3731 25.0326 12.5208C25.0326 12.6685 24.9739 12.8101 24.8695 12.9146C24.765 13.019 24.6234 13.0777 24.4757 13.0777V13.0777Z" fill="white"/>
<path d="M3.69542 13.0618H0.556899C0.4092 13.0618 0.267551 13.0031 0.163112 12.8987C0.0586731 12.7942 0 12.6526 0 12.5049C0 12.3572 0.0586731 12.2155 0.163112 12.1111C0.267551 12.0067 0.4092 11.948 0.556899 11.948H3.69542C3.84312 11.948 3.98477 12.0067 4.08921 12.1111C4.19365 12.2155 4.25232 12.3572 4.25232 12.5049C4.25232 12.6526 4.19365 12.7942 4.08921 12.8987C3.98477 13.0031 3.84312 13.0618 3.69542 13.0618V13.0618Z" fill="white"/>
<path d="M12.5061 25C12.3584 25 12.2168 24.9413 12.1123 24.8368C12.0079 24.7324 11.9492 24.5908 11.9492 24.4431V21.2544C11.9492 21.1067 12.0079 20.9651 12.1123 20.8606C12.2168 20.7562 12.3584 20.6975 12.5061 20.6975C12.6538 20.6975 12.7955 20.7562 12.8999 20.8606C13.0043 20.9651 13.063 21.1067 13.063 21.2544V24.4431C13.063 24.5908 13.0043 24.7324 12.8999 24.8368C12.7955 24.9413 12.6538 25 12.5061 25V25Z" fill="white"/>
<path d="M18.7055 6.89203C18.5945 6.89284 18.4858 6.86048 18.3934 6.79909C18.3009 6.73771 18.2289 6.6501 18.1866 6.54751C18.1443 6.44492 18.1336 6.33202 18.1559 6.22331C18.1782 6.11459 18.2324 6.01501 18.3117 5.93735L20.5393 3.70975C20.6437 3.60531 20.7854 3.54663 20.9331 3.54663C21.0808 3.54663 21.2225 3.60531 21.3269 3.70975C21.4314 3.8142 21.49 3.95585 21.49 4.10356C21.49 4.25126 21.4314 4.39292 21.3269 4.49737L19.0993 6.72496C19.0479 6.77739 18.9867 6.81914 18.9191 6.84782C18.8515 6.87649 18.7789 6.89151 18.7055 6.89203V6.89203Z" fill="white"/>
<path d="M4.06207 21.5416C3.95075 21.5433 3.84151 21.5115 3.74843 21.4504C3.65536 21.3893 3.58273 21.3018 3.53991 21.199C3.49709 21.0962 3.48606 20.983 3.50822 20.8739C3.53039 20.7648 3.58475 20.6649 3.66428 20.587L5.92211 18.3291C5.97383 18.2774 6.03522 18.2364 6.10279 18.2084C6.17036 18.1804 6.24278 18.166 6.31592 18.166C6.38905 18.166 6.46147 18.1804 6.52904 18.2084C6.59661 18.2364 6.65801 18.2774 6.70972 18.3291C6.76144 18.3809 6.80246 18.4422 6.83045 18.5098C6.85844 18.5774 6.87284 18.6498 6.87284 18.7229C6.87284 18.7961 6.85844 18.8685 6.83045 18.9361C6.80246 19.0036 6.76144 19.065 6.70972 19.1167L4.45508 21.3786C4.35083 21.4828 4.20949 21.5414 4.06207 21.5416Z" fill="white"/>
<path d="M9.16506 4.50063C9.0527 4.50068 8.94295 4.46674 8.85023 4.40327C8.75751 4.3398 8.68616 4.24977 8.64555 4.14501L7.8285 2.03595C7.77522 1.89817 7.77886 1.74487 7.83862 1.60977C7.89837 1.47467 8.00935 1.36884 8.14713 1.31556C8.28491 1.26228 8.43821 1.26592 8.57331 1.32568C8.70841 1.38543 8.81424 1.49641 8.86752 1.63419L9.68377 3.73927C9.71649 3.82367 9.72814 3.91478 9.71771 4.0047C9.70728 4.09463 9.67509 4.18065 9.62392 4.25533C9.57275 4.33 9.50415 4.39108 9.42405 4.43327C9.34396 4.47546 9.25479 4.49749 9.16426 4.49744L9.16506 4.50063Z" fill="white"/>
<path d="M16.6926 23.7302C16.5809 23.7301 16.4718 23.6965 16.3794 23.6337C16.287 23.5708 16.2157 23.4816 16.1747 23.3777L15.3497 21.2862C15.3177 21.2173 15.3001 21.1427 15.2981 21.0668C15.296 20.9909 15.3094 20.9154 15.3376 20.845C15.3657 20.7745 15.408 20.7105 15.4618 20.6569C15.5156 20.6034 15.5797 20.5614 15.6503 20.5335C15.7209 20.5056 15.7965 20.4925 15.8724 20.4949C15.9482 20.4973 16.0228 20.5152 16.0915 20.5475C16.1602 20.5797 16.2216 20.6257 16.2719 20.6825C16.3222 20.7394 16.3603 20.8059 16.3839 20.878L17.2089 22.9696C17.2423 23.054 17.2545 23.1454 17.2444 23.2356C17.2344 23.3258 17.2025 23.4122 17.1514 23.4873C17.1003 23.5624 17.0317 23.6238 16.9515 23.6663C16.8712 23.7087 16.7818 23.7309 16.691 23.731L16.6926 23.7302Z" fill="white"/>
<path d="M16.2676 4.54919C16.175 4.54916 16.0838 4.526 16.0023 4.48181C15.9208 4.43763 15.8517 4.37381 15.8011 4.29615C15.7506 4.21848 15.7202 4.12943 15.7127 4.03706C15.7053 3.94468 15.721 3.85191 15.7585 3.76715L16.6384 1.77822C16.698 1.64308 16.8088 1.53715 16.9465 1.48373C17.0843 1.43032 17.2375 1.4338 17.3727 1.49341C17.5078 1.55301 17.6138 1.66387 17.6672 1.80158C17.7206 1.93929 17.7171 2.09257 17.6575 2.22772L16.7776 4.21664C16.7341 4.31559 16.6626 4.39972 16.5721 4.45877C16.4815 4.51782 16.3757 4.54924 16.2676 4.54919V4.54919Z" fill="white"/>
<path d="M23.026 17.7237C22.9485 17.7236 22.8718 17.7073 22.8009 17.6759L20.8056 16.7944C20.7387 16.7649 20.6782 16.7224 20.6277 16.6695C20.5772 16.6166 20.5376 16.5542 20.5112 16.486C20.4848 16.4178 20.4721 16.345 20.4738 16.2719C20.4755 16.1987 20.4916 16.1266 20.5212 16.0597C20.5507 15.9928 20.5932 15.9324 20.6461 15.8819C20.699 15.8314 20.7614 15.7918 20.8296 15.7654C20.8978 15.7389 20.9706 15.7262 21.0437 15.7279C21.1169 15.7296 21.1889 15.7457 21.2559 15.7753L23.2512 16.6568C23.3683 16.7082 23.4642 16.7984 23.5227 16.9122C23.5812 17.0261 23.5987 17.1565 23.5723 17.2818C23.5459 17.407 23.4771 17.5192 23.3776 17.5997C23.2781 17.6802 23.154 17.724 23.026 17.7237V17.7237Z" fill="white"/>
<path d="M4.02226 9.30814C3.94498 9.30797 3.86857 9.29171 3.79791 9.2604L1.78751 8.37573C1.72059 8.34616 1.66015 8.30371 1.60964 8.25078C1.55913 8.19786 1.51955 8.1355 1.49313 8.06728C1.4398 7.9295 1.44338 7.77617 1.50309 7.64102C1.5628 7.50588 1.67376 7.39999 1.81154 7.34665C1.94932 7.29331 2.10265 7.29689 2.2378 7.35661L4.24741 8.24446C4.36271 8.29698 4.45666 8.38724 4.51374 8.50034C4.57083 8.61345 4.58764 8.74264 4.5614 8.86659C4.53517 8.99054 4.46745 9.10184 4.36943 9.18212C4.27141 9.26239 4.14895 9.30685 4.02226 9.30814V9.30814Z" fill="white"/>
<path d="M7.8819 23.5442C7.78923 23.5441 7.69803 23.521 7.61657 23.4768C7.5351 23.4326 7.46596 23.3688 7.41539 23.2911C7.36483 23.2134 7.33445 23.1244 7.327 23.032C7.31955 22.9396 7.33527 22.8469 7.37274 22.7621L8.27412 20.7199C8.33383 20.5847 8.44478 20.4788 8.58257 20.4255C8.72035 20.3722 8.87368 20.3758 9.00883 20.4355C9.14397 20.4952 9.24986 20.6061 9.3032 20.7439C9.35654 20.8817 9.35295 21.035 9.29324 21.1702L8.39107 23.2116C8.34757 23.3104 8.27628 23.3945 8.18588 23.4535C8.09549 23.5126 7.98987 23.544 7.8819 23.5442Z" fill="white"/>
<path d="M21.1169 9.75213C20.9849 9.75488 20.8562 9.71067 20.7538 9.62737C20.6514 9.54408 20.5819 9.42712 20.5578 9.29735C20.5336 9.16758 20.5563 9.03345 20.6218 8.91886C20.6874 8.80428 20.7915 8.7167 20.9156 8.67175L22.9721 7.87618C23.1086 7.82825 23.2584 7.83532 23.3898 7.89588C23.5211 7.95644 23.6238 8.06574 23.676 8.20064C23.7282 8.33555 23.7259 8.48548 23.6695 8.6187C23.6131 8.75191 23.5071 8.85796 23.3739 8.9144L21.3213 9.71394C21.2562 9.7394 21.1868 9.75236 21.1169 9.75213V9.75213Z" fill="white"/>
<path d="M1.80854 17.2328C1.67848 17.2329 1.55248 17.1876 1.45237 17.1046C1.35226 17.0215 1.28437 16.9061 1.26047 16.7783C1.23656 16.6504 1.25815 16.5182 1.32149 16.4047C1.38484 16.2911 1.48593 16.2032 1.60726 16.1564L3.69165 15.3489C3.75992 15.3224 3.83274 15.3097 3.90593 15.3114C3.97912 15.3131 4.05126 15.3292 4.11823 15.3588C4.1852 15.3884 4.24568 15.4309 4.29623 15.4839C4.34678 15.5368 4.3864 15.5992 4.41283 15.6675C4.43927 15.7358 4.45199 15.8086 4.45028 15.8818C4.44858 15.955 4.43247 16.0271 4.40288 16.0941C4.3733 16.1611 4.33081 16.2215 4.27785 16.2721C4.22488 16.3226 4.16248 16.3623 4.09421 16.3887L2.00982 17.1954C1.94561 17.2202 1.87736 17.2329 1.80854 17.2328V17.2328Z" fill="white"/>
<path d="M12.5356 19.2527C11.2052 19.2527 9.90474 18.8581 8.79856 18.119C7.69239 17.3799 6.83023 16.3294 6.32111 15.1002C5.812 13.8711 5.67879 12.5186 5.93833 11.2138C6.19788 9.909 6.83852 8.71045 7.77924 7.76972C8.71997 6.829 9.91852 6.18836 11.2233 5.92881C12.5282 5.66927 13.8807 5.80247 15.1098 6.31159C16.3389 6.82071 17.3894 7.68287 18.1285 8.78904C18.8677 9.89521 19.2622 11.1957 19.2622 12.5261C19.2603 14.3095 18.551 16.0193 17.2899 17.2804C16.0289 18.5415 14.319 19.2508 12.5356 19.2527V19.2527ZM12.5356 6.91416C11.4255 6.91416 10.3404 7.24334 9.41735 7.86008C8.49434 8.47681 7.77494 9.3534 7.35013 10.379C6.92531 11.4046 6.81416 12.5331 7.03073 13.6219C7.2473 14.7107 7.78186 15.7108 8.56682 16.4957C9.35177 17.2807 10.3519 17.8152 11.4406 18.0318C12.5294 18.2484 13.6579 18.1372 14.6835 17.7124C15.7091 17.2876 16.5857 16.5682 17.2025 15.6452C17.8192 14.7222 18.1484 13.637 18.1484 12.5269C18.1463 11.0391 17.5542 9.61287 16.502 8.56098C15.4498 7.5091 14.0234 6.91743 12.5356 6.91575V6.91416Z" fill="white"/>
</svg>
