<svg width="26" height="25" fill="none" xmlns="http://www.w3.org/2000/svg"><path d="M6.327 6.927a.557.557 0 01-.397-.16L3.65 4.48a.557.557 0 11.787-.788l2.284 2.285a.557.557 0 01-.398.955l.004-.004zM20.984 21.47a.557.557 0 01-.391-.158l-2.285-2.257a.558.558 0 11.783-.796l2.284 2.257a.557.557 0 01-.39.955zM12.502 4.224a.557.557 0 01-.557-.556V.557a.557.557 0 011.114 0v3.11a.557.557 0 01-.557.557zm11.974 8.854h-3.117a.557.557 0 010-1.114h3.117a.557.557 0 110 1.114zm-20.781-.016H.557a.557.557 0 010-1.114h3.138a.557.557 0 010 1.114zM12.506 25a.557.557 0 01-.557-.557v-3.189a.557.557 0 011.114 0v3.19a.557.557 0 01-.557.556zm6.2-18.108a.557.557 0 01-.394-.955l2.227-2.227a.557.557 0 11.788.787l-2.228 2.228a.557.557 0 01-.393.167zM4.062 21.542a.556.556 0 01-.398-.955l2.258-2.258a.557.557 0 01.788.788l-2.255 2.262a.557.557 0 01-.393.163zM9.165 4.5a.557.557 0 01-.52-.355L7.83 2.036a.557.557 0 111.039-.402l.816 2.105a.557.557 0 01-.52.758l.001.004zm7.528 19.23a.558.558 0 01-.518-.352l-.825-2.092a.555.555 0 01.742-.739.557.557 0 01.292.331l.825 2.092a.555.555 0 01-.518.761h.002zm-.425-19.18a.557.557 0 01-.51-.783l.88-1.989a.557.557 0 111.02.45l-.88 1.989a.557.557 0 01-.51.332zm6.758 13.174a.558.558 0 01-.225-.048l-1.995-.882a.557.557 0 11.45-1.019l1.995.882a.557.557 0 01-.225 1.067zM4.022 9.308a.557.557 0 01-.224-.048l-2.01-.884a.557.557 0 11.45-1.02l2.01.888a.557.557 0 01-.226 1.064zm3.86 14.236a.558.558 0 01-.51-.782l.902-2.042a.557.557 0 111.02.45l-.903 2.042a.557.557 0 01-.51.332zM21.117 9.752a.557.557 0 01-.201-1.08l2.056-.796a.557.557 0 01.402 1.038l-2.053.8a.556.556 0 01-.204.038zM1.809 17.233a.557.557 0 01-.202-1.077l2.085-.807a.556.556 0 11.402 1.04l-2.084.806a.556.556 0 01-.201.038zm10.727 2.02a6.727 6.727 0 116.726-6.727 6.734 6.734 0 01-6.726 6.727zm0-12.339a5.613 5.613 0 105.612 5.613 5.62 5.62 0 00-5.612-5.611v-.002z" fill="#fff"/></svg>