<svg width="41" height="41" fill="none" xmlns="http://www.w3.org/2000/svg"><path d="M19.236 20.62a.79.79 0 01-.573-.237L6.056 7.763a.819.819 0 010-1.146.819.819 0 011.145 0l12.607 12.608a.82.82 0 010 1.145.783.783 0 01-.572.25z" fill="#494949"/><path d="M7.561 13.525a.81.81 0 01-.809-.784.808.808 0 01.784-.834l3.66-.1V8.173a.807.807 0 111.617.001v4.43a.81.81 0 01-.784.809l-4.443.124c-.012-.012-.025-.012-.025-.012zm8.017 7.953a.831.831 0 01-.585-.25L11.88 18.03a.815.815 0 01.585-1.381H16.1l.15-3.697a.812.812 0 01.51-.722.808.808 0 01.859.175l3.161 3.111a.807.807 0 01.012 1.145.808.808 0 01-1.145.013l-1.866-1.83-.112 2.651a.8.8 0 01-.81.772h-2.501l1.767 1.817a.82.82 0 01-.012 1.145.665.665 0 01-.535.249zm18.294 13.591a.81.81 0 01-.572-.237l-14.624-14.45a.808.808 0 01-.012-1.145.807.807 0 011.144-.012l14.637 14.462a.808.808 0 01.012 1.145.818.818 0 01-.585.237z" fill="#494949"/><path d="M28.51 34.098a.807.807 0 01-.809-.809v-4.43a.81.81 0 01.784-.81l4.444-.124a.808.808 0 01.833.784.808.808 0 01-.784.834l-3.659.1v3.634a.81.81 0 01-.809.821zm-5.055-4.828a.79.79 0 01-.573-.237l-3.161-3.112a.807.807 0 01-.013-1.145.808.808 0 011.145-.012l1.867 1.83.112-2.652a.8.8 0 01.81-.771h2.5l-1.766-1.817a.819.819 0 01.012-1.146.819.819 0 011.145.013l3.112 3.198a.815.815 0 01-.585 1.381h-3.635l-.149 3.697a.812.812 0 01-.51.722c-.112.025-.212.05-.311.05zm-3.222-6.336a.807.807 0 01-.81-.809V1.602a.81.81 0 111.619 0v20.523a.808.808 0 01-.81.809z" fill="#494949"/><path d="M20.22 10.04a.823.823 0 01-.56-.224l-3.224-3.062a.808.808 0 01-.025-1.145.808.808 0 011.145-.025l2.651 2.514 2.577-2.576a.819.819 0 011.145 0 .82.82 0 010 1.145l-3.137 3.137a.868.868 0 01-.572.236zm3.322 8.29a.805.805 0 01-.81-.797l-.024-2.614-1.954 1.792a.8.8 0 01-1.12-.025l-1.767-1.767-.038 2.539a.805.805 0 01-.809.796h-.012a.8.8 0 01-.797-.821l.063-4.456a.79.79 0 01.51-.734.805.805 0 01.871.174l2.576 2.577 2.713-2.502a.826.826 0 01.872-.15.789.789 0 01.485.735l.037 4.43a.778.778 0 01-.796.822c.012 0 .012 0 0 0zm15.87 3.247H18.864a.807.807 0 01-.81-.809c0-.448.362-.809.81-.809h20.548c.448 0 .809.361.809.81a.807.807 0 01-.81.808z" fill="#494949"/><path d="M34.932 24.69a.79.79 0 01-.572-.237l-3.137-3.137a.815.815 0 01-.012-1.132l3.062-3.224a.808.808 0 011.144-.025.808.808 0 01.025 1.145l-2.514 2.651 2.577 2.577a.819.819 0 010 1.145.868.868 0 01-.573.236zm-11.426.198a.805.805 0 01-.809-.796c0-.448.349-.81.797-.822l2.614-.025-1.793-1.954a.8.8 0 01.025-1.12l1.768-1.767-2.54-.038a.8.8 0 01-.796-.82.816.816 0 01.821-.797l4.456.062a.79.79 0 01.734.51.805.805 0 01-.174.871l-2.576 2.577 2.501 2.713a.826.826 0 01.15.871.787.787 0 01-.735.485l-4.443.05zm-4.593-3.336H1.09a.807.807 0 01-.809-.808c0-.448.361-.81.81-.81h17.834c.448 0 .81.361.81.81a.818.818 0 01-.822.808z" fill="#494949"/><path d="M5.572 24.664a.79.79 0 01-.573-.236.819.819 0 010-1.145l2.576-2.577-2.514-2.65a.808.808 0 01.025-1.146.808.808 0 011.145.025l3.062 3.224a.815.815 0 01-.013 1.132l-3.136 3.137a.79.79 0 01-.572.236zm11.425.199l-4.443-.037a.806.806 0 01-.585-1.357l2.502-2.713-2.577-2.576a.805.805 0 01-.174-.871.83.83 0 01.734-.51l4.456-.063c.448 0 .81.349.822.797a.816.816 0 01-.797.821l-2.539.037 1.767 1.768a.812.812 0 01.025 1.12l-1.792 1.954 2.614.025a.803.803 0 11-.012 1.605zm3.247 15.869a.807.807 0 01-.808-.81V22.089a.807.807 0 111.618 0v17.835a.808.808 0 01-.81.809z" fill="#494949"/><path d="M23.356 36.251a.79.79 0 01-.572-.236l-2.577-2.577-2.65 2.514a.808.808 0 01-1.146-.024.808.808 0 01.025-1.145l3.224-3.062a.816.816 0 011.132.012l3.137 3.137a.819.819 0 010 1.145.868.868 0 01-.573.236zm-4.095-13.665a.79.79 0 01-.573-.237.819.819 0 010-1.145l14.5-14.512a.819.819 0 011.145 0 .82.82 0 010 1.145l-14.5 14.512a.868.868 0 01-.572.237z" fill="#494949"/><path d="M32.79 13.45h-4.43a.81.81 0 01-.81-.784l-.124-4.443a.808.808 0 01.784-.834.808.808 0 01.834.784l.1 3.66h3.634c.448 0 .809.36.809.808a.797.797 0 01-.797.81zM6.679 35.168a.79.79 0 01-.573-.236.819.819 0 010-1.145l12.608-12.608a.819.819 0 011.145 0 .819.819 0 010 1.145L7.251 34.932a.81.81 0 01-.572.236z" fill="#494949"/><path d="M12.043 34.198a.807.807 0 01-.808-.81v-3.633l-3.66-.1a.808.808 0 01-.784-.834.808.808 0 01.834-.784l4.443.124a.81.81 0 01.784.81v4.43c0 .436-.36.797-.809.797zm5.053-4.854a.83.83 0 01-.809-.797l-.062-4.455c0-.449.348-.81.796-.822a.807.807 0 01.822.797l.037 2.539 1.767-1.768a.812.812 0 011.12-.025l1.954 1.793.025-2.614a.8.8 0 01.822-.797.8.8 0 01.796.822l-.037 4.43a.806.806 0 01-1.357.585l-2.725-2.501-2.577 2.576a.82.82 0 01-.572.237z" fill="#494949"/></svg>