<svg width="25" height="25" fill="none" xmlns="http://www.w3.org/2000/svg"><path d="M11.865 12.41a.495.495 0 01-.358-.148l-7.892-7.9a.513.513 0 010-.716.513.513 0 01.717 0l7.891 7.891a.513.513 0 010 .717.49.49 0 01-.358.156z" fill="#fff"/><path d="M4.557 7.97a.507.507 0 01-.015-1.013l2.29-.062V4.62a.505.505 0 111.013 0v2.774a.507.507 0 01-.49.506l-2.782.078c-.008-.008-.016-.008-.016-.008zm5.018 4.978a.52.52 0 01-.366-.156L7.26 10.79a.51.51 0 01.366-.865h2.275l.093-2.314a.506.506 0 01.857-.343l1.98 1.948a.505.505 0 01.007.717.505.505 0 01-.717.008l-1.168-1.145-.07 1.659a.5.5 0 01-.507.483H8.811l1.107 1.137a.513.513 0 01-.008.717.416.416 0 01-.335.156zm11.452 8.508a.508.508 0 01-.358-.148l-9.154-9.045a.506.506 0 01-.008-.717.505.505 0 01.717-.008l9.162 9.053a.506.506 0 01.008.717.512.512 0 01-.366.148z" fill="#fff"/><path d="M17.67 20.848a.505.505 0 01-.507-.507v-2.773c0-.273.218-.499.49-.507l2.782-.077a.506.506 0 11.031 1.012l-2.29.063v2.275a.507.507 0 01-.506.514zm-3.163-3.023a.495.495 0 01-.359-.148l-1.979-1.948a.506.506 0 01-.007-.716.506.506 0 01.716-.008l1.169 1.145.07-1.66a.5.5 0 01.506-.482h1.566l-1.106-1.138a.513.513 0 01.008-.716.513.513 0 01.717.007l1.947 2.002a.51.51 0 01-.366.865h-2.275l-.093 2.314a.509.509 0 01-.32.452c-.07.015-.132.031-.194.031zm-2.019-3.965a.505.505 0 01-.507-.507V.506a.505.505 0 111.013 0v12.847c0 .28-.226.507-.506.507z" fill="#fff"/><path d="M12.48 5.789a.515.515 0 01-.35-.14l-2.018-1.917a.506.506 0 01-.016-.717.506.506 0 01.717-.016l1.66 1.574 1.612-1.612a.513.513 0 01.717 0 .513.513 0 010 .716L12.839 5.64a.543.543 0 01-.359.149zm2.08 5.188a.504.504 0 01-.506-.499l-.015-1.636-1.224 1.122a.5.5 0 01-.7-.015l-1.107-1.107-.023 1.59c0 .28-.234.498-.507.498h-.008a.5.5 0 01-.498-.514l.039-2.789c0-.202.125-.382.32-.46a.504.504 0 01.545.11l1.612 1.612 1.699-1.566a.517.517 0 01.545-.093.492.492 0 01.304.46l.023 2.773a.487.487 0 01-.498.514c.007 0 .007 0 0 0zm9.934 2.033H11.63a.505.505 0 110-1.012h12.863a.505.505 0 110 1.012z" fill="#fff"/><path d="M21.688 14.958a.495.495 0 01-.358-.148l-1.963-1.963a.51.51 0 01-.008-.709l1.916-2.018a.506.506 0 01.717-.015c.203.194.21.514.016.716l-1.574 1.66 1.613 1.613a.513.513 0 010 .716.543.543 0 01-.359.148zm-7.151.125a.504.504 0 01-.507-.499.51.51 0 01.499-.514l1.636-.015-1.122-1.224a.501.501 0 01.016-.7l1.106-1.107-1.59-.023a.5.5 0 01-.498-.515.51.51 0 01.514-.498l2.79.039c.202 0 .381.124.459.32a.504.504 0 01-.11.545l-1.612 1.612 1.566 1.699a.517.517 0 01.093.545.492.492 0 01-.46.304l-2.78.03zm-2.875-2.088H.506a.505.505 0 110-1.013H11.67a.505.505 0 11-.008 1.013z" fill="#fff"/><path d="M3.311 14.943a.495.495 0 01-.358-.148.513.513 0 010-.717l1.612-1.613-1.573-1.66a.506.506 0 01.015-.716.506.506 0 01.717.016l1.916 2.017a.51.51 0 01-.007.71l-1.964 1.963a.495.495 0 01-.358.148zm7.152.124l-2.781-.023a.505.505 0 01-.367-.85l1.566-1.698-1.612-1.612a.504.504 0 01-.11-.546.52.52 0 01.46-.32l2.79-.038a.51.51 0 01.513.499.51.51 0 01-.498.514l-1.59.023 1.107 1.106a.508.508 0 01.015.701l-1.121 1.224 1.636.015a.502.502 0 11-.008 1.005zM12.496 25a.505.505 0 01-.507-.506V13.33a.505.505 0 111.013 0v11.164c0 .28-.226.506-.506.506z" fill="#fff"/><path d="M14.444 22.195a.495.495 0 01-.359-.148l-1.613-1.612-1.659 1.573a.506.506 0 01-.717-.015.506.506 0 01.016-.717l2.018-1.916a.51.51 0 01.709.007l1.963 1.963a.513.513 0 010 .717.543.543 0 01-.358.148zm-2.564-8.554a.494.494 0 01-.358-.148.513.513 0 010-.717l9.076-9.084a.513.513 0 01.717 0 .513.513 0 010 .717l-9.076 9.084a.543.543 0 01-.359.148z" fill="#fff"/><path d="M20.35 7.923h-2.774a.507.507 0 01-.507-.49l-.078-2.782a.506.506 0 111.013-.031l.063 2.29h2.274c.28 0 .507.226.507.507 0 .28-.218.506-.499.506zM4.004 21.517a.495.495 0 01-.358-.148.513.513 0 010-.716l7.892-7.892a.513.513 0 01.717 0 .513.513 0 010 .717l-7.892 7.891a.507.507 0 01-.359.148z" fill="#fff"/><path d="M7.362 20.91a.505.505 0 01-.506-.507V18.13l-2.29-.063a.506.506 0 11.03-1.013l2.782.078c.272.008.49.234.49.507v2.773a.504.504 0 01-.506.499zm3.163-3.038a.52.52 0 01-.506-.499l-.04-2.789a.505.505 0 111.013-.016l.024 1.59 1.106-1.107a.508.508 0 01.701-.015l1.223 1.122.016-1.636a.5.5 0 01.514-.499.5.5 0 01.498.514l-.023 2.774a.505.505 0 01-.849.366l-1.706-1.566-1.613 1.613a.514.514 0 01-.358.148z" fill="#fff"/></svg>