<svg width="25" height="25" viewBox="0 0 25 25" fill="none" xmlns="http://www.w3.org/2000/svg">
<path d="M11.8651 12.41C11.7326 12.41 11.608 12.3633 11.5067 12.262L3.61482 4.36232C3.42006 4.16755 3.42006 3.84035 3.61482 3.64559C3.80959 3.45082 4.13679 3.45082 4.33156 3.64559L12.2234 11.5374C12.4182 11.7322 12.4182 12.0594 12.2234 12.2542C12.1299 12.3555 11.9975 12.41 11.8651 12.41Z" fill="white"/>
<path d="M4.55737 7.97011C4.2847 7.97011 4.05877 7.75197 4.05098 7.4793C4.04319 7.19884 4.26133 6.96512 4.54179 6.95733L6.83222 6.89501V4.62016C6.83222 4.3397 7.05815 4.11377 7.33861 4.11377C7.61907 4.11377 7.845 4.3397 7.845 4.62016V7.39361C7.845 7.66628 7.62686 7.8922 7.35419 7.89999L4.57295 7.9779C4.56516 7.97011 4.55737 7.97011 4.55737 7.97011Z" fill="white"/>
<path d="M9.57475 12.948C9.44231 12.948 9.30987 12.8934 9.20859 12.7922L7.26094 10.79C7.12071 10.6419 7.08176 10.4238 7.15967 10.2368C7.23757 10.0499 7.42455 9.92522 7.6271 9.92522H9.90195L9.99544 7.61141C10.0032 7.40886 10.1279 7.23746 10.3149 7.15956C10.5018 7.08944 10.7122 7.12839 10.8524 7.26863L12.8312 9.21627C13.0338 9.41104 13.0338 9.73045 12.839 9.93301C12.6442 10.1356 12.3248 10.1356 12.1223 9.9408L10.9537 8.79558L10.8836 10.455C10.8758 10.7276 10.6499 10.938 10.3772 10.938H8.81127L9.91753 12.0754C10.1123 12.278 10.1045 12.5974 9.90974 12.7922C9.82405 12.9012 9.6994 12.948 9.57475 12.948Z" fill="white"/>
<path d="M21.0275 21.4556C20.9029 21.4556 20.7704 21.4089 20.6691 21.3076L11.5152 12.2627C11.3127 12.0679 11.3127 11.7485 11.5074 11.546C11.7022 11.3434 12.0216 11.3434 12.2242 11.5382L21.3859 20.5908C21.5884 20.7856 21.5884 21.105 21.3937 21.3076C21.2924 21.4089 21.16 21.4556 21.0275 21.4556Z" fill="white"/>
<path d="M17.6695 20.8477C17.389 20.8477 17.1631 20.6218 17.1631 20.3413V17.5679C17.1631 17.2952 17.3812 17.0693 17.6539 17.0615L20.4351 16.9836C20.7156 16.9758 20.9493 17.1939 20.9571 17.4744C20.9649 17.7549 20.7468 17.9886 20.4663 17.9964L18.1759 18.0587V20.3336C18.1759 20.6218 17.9499 20.8477 17.6695 20.8477Z" fill="white"/>
<path d="M14.5067 17.825C14.3742 17.825 14.2496 17.7783 14.1483 17.677L12.1695 15.7293C11.967 15.5346 11.967 15.2152 12.1617 15.0126C12.3565 14.8101 12.6759 14.8101 12.8784 15.0048L14.047 16.15L14.1172 14.4906C14.1249 14.218 14.3509 14.0076 14.6235 14.0076H16.1894L15.0832 12.8702C14.8884 12.6676 14.8962 12.3482 15.091 12.1535C15.2935 11.9587 15.6129 11.9665 15.8077 12.1613L17.7554 14.1634C17.8956 14.3115 17.9345 14.5296 17.8566 14.7166C17.7787 14.9035 17.5918 15.0282 17.3892 15.0282H15.1143L15.0209 17.342C15.0131 17.5446 14.8884 17.7159 14.7014 17.7939C14.6313 17.8094 14.569 17.825 14.5067 17.825Z" fill="white"/>
<path d="M12.4878 13.8595C12.2074 13.8595 11.9814 13.6335 11.9814 13.3531V0.506388C11.9814 0.225927 12.2074 0 12.4878 0C12.7683 0 12.9942 0.225927 12.9942 0.506388V13.3531C12.9942 13.6335 12.7683 13.8595 12.4878 13.8595Z" fill="white"/>
<path d="M12.4803 5.78851C12.3557 5.78851 12.231 5.74177 12.1298 5.64828L10.112 3.73179C9.90944 3.53703 9.90165 3.21762 10.0964 3.01506C10.2912 2.81251 10.6106 2.80471 10.8131 2.99948L12.4725 4.57318L14.0852 2.96053C14.28 2.76576 14.6072 2.76576 14.8019 2.96053C14.9967 3.15529 14.9967 3.4825 14.8019 3.67726L12.8387 5.64049C12.7374 5.73397 12.605 5.78851 12.4803 5.78851Z" fill="white"/>
<path d="M14.5605 10.977C14.2801 10.977 14.0541 10.7511 14.0541 10.4784L14.0386 8.84239L12.8154 9.96423C12.6129 10.1512 12.3091 10.1434 12.1143 9.94865L11.008 8.84239L10.9847 10.4317C10.9847 10.7121 10.7509 10.9303 10.4783 10.9303H10.4705C10.19 10.9303 9.96408 10.6965 9.97188 10.4161L10.0108 7.62706C10.0108 7.4245 10.1355 7.24532 10.3302 7.16741C10.5172 7.08951 10.7354 7.13625 10.8756 7.27648L12.4882 8.88913L14.1866 7.32322C14.3346 7.19078 14.5449 7.15183 14.7319 7.22974C14.9189 7.30764 15.0358 7.48683 15.0358 7.68938L15.0591 10.4628C15.0747 10.7511 14.8488 10.977 14.5605 10.977C14.5683 10.977 14.5683 10.977 14.5605 10.977Z" fill="white"/>
<path d="M24.4936 13.0103H11.6314C11.3509 13.0103 11.125 12.7844 11.125 12.5039C11.125 12.2235 11.3509 11.9976 11.6314 11.9976H24.4936C24.7741 11.9976 25 12.2235 25 12.5039C25 12.7844 24.7741 13.0103 24.4936 13.0103Z" fill="white"/>
<path d="M21.6884 14.9582C21.5559 14.9582 21.4313 14.9115 21.33 14.8102L19.3668 12.847C19.172 12.6522 19.172 12.3406 19.359 12.1381L21.2755 10.1203C21.4702 9.91774 21.7897 9.90995 21.9922 10.1047C22.1948 10.2995 22.2026 10.6189 22.0078 10.8214L20.4341 12.4808L22.0468 14.0935C22.2415 14.2883 22.2415 14.6155 22.0468 14.8102C21.9455 14.9037 21.813 14.9582 21.6884 14.9582Z" fill="white"/>
<path d="M14.5367 15.0828C14.2562 15.0828 14.0303 14.8569 14.0303 14.5842C14.0303 14.3038 14.2484 14.0779 14.5289 14.0701L16.1649 14.0545L15.043 12.8314C14.8561 12.6288 14.8639 12.325 15.0586 12.1302L16.1649 11.0239L14.5756 11.0006C14.2952 11.0006 14.0692 10.7669 14.077 10.4864C14.0848 10.2059 14.3107 9.98779 14.5912 9.98779L17.3802 10.0267C17.5828 10.0267 17.762 10.1514 17.8399 10.3462C17.9178 10.5331 17.871 10.7513 17.7308 10.8915L16.1182 12.5042L17.6841 14.2025C17.8165 14.3505 17.8555 14.5609 17.7775 14.7478C17.6996 14.9348 17.5205 15.0517 17.3179 15.0517L14.5367 15.0828Z" fill="white"/>
<path d="M11.6625 12.9947H0.506388C0.225927 12.9947 0 12.7688 0 12.4883C0 12.2079 0.225927 11.9819 0.506388 11.9819H11.6703C11.9508 11.9819 12.1767 12.2079 12.1767 12.4883C12.1767 12.7688 11.943 12.9947 11.6625 12.9947Z" fill="white"/>
<path d="M3.31108 14.9426C3.17864 14.9426 3.05399 14.8959 2.95271 14.7946C2.75795 14.5998 2.75795 14.2726 2.95271 14.0779L4.56537 12.4652L2.99167 10.8058C2.7969 10.6033 2.80469 10.2839 3.00725 10.0891C3.2098 9.89432 3.52922 9.90211 3.72398 10.1047L5.64047 12.1224C5.82744 12.325 5.82744 12.6366 5.63268 12.8314L3.66945 14.7946C3.56817 14.8959 3.44352 14.9426 3.31108 14.9426Z" fill="white"/>
<path d="M10.4628 15.0672L7.68157 15.0439C7.47901 15.0439 7.29983 14.9192 7.22192 14.74C7.14402 14.5531 7.17518 14.3427 7.31541 14.1947L8.88132 12.4963L7.26867 10.8837C7.12844 10.7435 7.08169 10.5253 7.1596 10.3383C7.23751 10.1514 7.41669 10.0267 7.61924 10.0189L10.4083 9.97998C10.6887 9.97998 10.9147 10.1981 10.9225 10.4786C10.9225 10.759 10.7043 10.985 10.4239 10.9928L8.83458 11.0161L9.94084 12.1224C10.1356 12.3172 10.1356 12.621 9.95642 12.8235L8.83458 14.0467L10.4706 14.0622C10.7511 14.0622 10.977 14.296 10.9692 14.5764C10.9692 14.8413 10.7433 15.0672 10.4628 15.0672Z" fill="white"/>
<path d="M12.4956 24.9999C12.2152 24.9999 11.9893 24.774 11.9893 24.4935V13.3296C11.9893 13.0492 12.2152 12.8232 12.4956 12.8232C12.7761 12.8232 13.002 13.0492 13.002 13.3296V24.4935C13.002 24.774 12.7761 24.9999 12.4956 24.9999Z" fill="white"/>
<path d="M14.4436 22.1953C14.3111 22.1953 14.1865 22.1485 14.0852 22.0472L12.4725 20.4346L10.8131 22.0083C10.6106 22.2031 10.2912 22.1953 10.0964 21.9927C9.90165 21.7901 9.90944 21.4707 10.112 21.276L12.1298 19.3595C12.3323 19.1725 12.6439 19.1725 12.8387 19.3673L14.8019 21.3305C14.9967 21.5253 14.9967 21.8525 14.8019 22.0472C14.7006 22.1407 14.5682 22.1953 14.4436 22.1953Z" fill="white"/>
<path d="M11.8804 13.641C11.748 13.641 11.6233 13.5943 11.5221 13.493C11.3273 13.2983 11.3273 12.971 11.5221 12.7763L20.5981 3.69246C20.7928 3.4977 21.1201 3.4977 21.3148 3.69246C21.5096 3.88722 21.5096 4.21443 21.3148 4.40919L12.2388 13.493C12.1375 13.5865 12.0051 13.641 11.8804 13.641Z" fill="white"/>
<path d="M20.3492 7.92312H17.5757C17.303 7.92312 17.0771 7.70499 17.0693 7.43232L16.9914 4.65108C16.9836 4.37062 17.2018 4.1369 17.4822 4.12911C17.7627 4.12132 17.9964 4.33945 18.0042 4.61992L18.0665 6.91035H20.3414C20.6218 6.91035 20.8478 7.13628 20.8478 7.41674C20.8478 7.6972 20.6296 7.92312 20.3492 7.92312Z" fill="white"/>
<path d="M4.00444 21.5174C3.872 21.5174 3.74735 21.4707 3.64607 21.3694C3.45131 21.1747 3.45131 20.8474 3.64607 20.6527L11.5379 12.7608C11.7327 12.5661 12.0599 12.5661 12.2547 12.7608C12.4494 12.9556 12.4494 13.2828 12.2547 13.4776L4.36281 21.3694C4.26153 21.4707 4.12909 21.5174 4.00444 21.5174Z" fill="white"/>
<path d="M7.36205 20.9098C7.08159 20.9098 6.85566 20.6838 6.85566 20.4034V18.1285L4.56523 18.0662C4.28477 18.0584 4.06663 17.8247 4.07442 17.5442C4.08221 17.2638 4.31593 17.0456 4.59639 17.0534L7.37763 17.1313C7.6503 17.1391 7.86844 17.365 7.86844 17.6377V20.4112C7.86844 20.6838 7.64251 20.9098 7.36205 20.9098Z" fill="white"/>
<path d="M10.5248 17.8717C10.4625 17.8717 10.3924 17.8561 10.3379 17.8327C10.1509 17.7548 10.0262 17.5757 10.0184 17.3731L9.97949 14.5841C9.97949 14.3036 10.1976 14.0777 10.4781 14.0699C10.7586 14.0621 10.9845 14.288 10.9923 14.5685L11.0156 16.1578L12.1219 15.0515C12.3167 14.8567 12.6205 14.8567 12.8231 15.0359L14.0462 16.1578L14.0618 14.5217C14.0618 14.2413 14.2955 14.0154 14.5759 14.0231C14.8564 14.0231 15.0823 14.2569 15.0745 14.5373L15.0512 17.3108C15.0512 17.5133 14.9265 17.6925 14.7473 17.7704C14.5604 17.8483 14.35 17.8172 14.202 17.6769L12.4959 16.111L10.8832 17.7237C10.7897 17.8172 10.6573 17.8717 10.5248 17.8717Z" fill="white"/>
</svg>
