<svg width="41" height="41" viewBox="0 0 41 41" fill="none" xmlns="http://www.w3.org/2000/svg">
<path d="M19.2359 20.6191C19.0243 20.6191 18.8252 20.5444 18.6634 20.3826L6.05563 7.76242C5.74448 7.45127 5.74448 6.92854 6.05563 6.61739C6.36678 6.30625 6.8895 6.30625 7.20065 6.61739L19.8084 19.2251C20.1195 19.5363 20.1195 20.059 19.8084 20.3702C19.659 20.532 19.4475 20.6191 19.2359 20.6191Z" fill="#494949"/>
<path d="M7.56126 13.525C7.12565 13.525 6.76472 13.1765 6.75228 12.7409C6.73983 12.2928 7.08832 11.9195 7.53637 11.907L11.1955 11.8075V8.17324C11.1955 7.72519 11.5564 7.36426 12.0045 7.36426C12.4525 7.36426 12.8134 7.72519 12.8134 8.17324V12.604C12.8134 13.0396 12.465 13.4005 12.0294 13.413L7.58615 13.5374C7.57371 13.525 7.56126 13.525 7.56126 13.525Z" fill="#494949"/>
<path d="M15.5777 21.4778C15.3661 21.4778 15.1545 21.3907 14.9927 21.2289L11.8812 18.0303C11.6572 17.7938 11.595 17.4453 11.7194 17.1466C11.8439 16.8479 12.1426 16.6488 12.4662 16.6488H16.1004L16.2498 12.9523C16.2622 12.6287 16.4613 12.3549 16.76 12.2305C17.0587 12.1184 17.3948 12.1807 17.6188 12.4047L20.7801 15.5162C21.1037 15.8273 21.1037 16.3376 20.7925 16.6612C20.4814 16.9848 19.9711 16.9848 19.6475 16.6737L17.7806 14.8441L17.6686 17.4951C17.6561 17.9307 17.2952 18.2667 16.8596 18.2667H14.358L16.1253 20.0838C16.4364 20.4074 16.424 20.9177 16.1129 21.2289C15.9759 21.4031 15.7768 21.4778 15.5777 21.4778Z" fill="#494949"/>
<path d="M33.8724 35.0687C33.6733 35.0687 33.4617 34.994 33.2999 34.8322L18.6759 20.3825C18.3523 20.0713 18.3523 19.561 18.6635 19.2374C18.9746 18.9138 19.4849 18.9138 19.8085 19.225L34.4449 33.6872C34.7685 33.9983 34.7685 34.5086 34.4574 34.8322C34.2956 34.994 34.084 35.0687 33.8724 35.0687Z" fill="#494949"/>
<path d="M28.5102 34.0981C28.0621 34.0981 27.7012 33.7371 27.7012 33.2891V28.8583C27.7012 28.4227 28.0497 28.0618 28.4853 28.0493L32.9285 27.9249C33.3765 27.9124 33.7499 28.2609 33.7623 28.709C33.7748 29.157 33.4263 29.5304 32.9783 29.5429L29.3191 29.6424V33.2766C29.3191 33.7371 28.9582 34.0981 28.5102 34.0981Z" fill="#494949"/>
<path d="M23.4546 29.2691C23.243 29.2691 23.0439 29.1944 22.8821 29.0326L19.7208 25.9211C19.3972 25.61 19.3972 25.0997 19.7084 24.7761C20.0195 24.4525 20.5298 24.4525 20.8534 24.7636L22.7203 26.5932L22.8323 23.9422C22.8448 23.5066 23.2057 23.1706 23.6413 23.1706H26.1429L24.3756 21.3535C24.0645 21.0299 24.0769 20.5196 24.3881 20.2084C24.7117 19.8973 25.2219 19.9097 25.5331 20.2209L28.6446 23.4195C28.8686 23.656 28.9308 24.0044 28.8064 24.3031C28.6819 24.6018 28.3832 24.801 28.0596 24.801H24.4254L24.276 28.4974C24.2636 28.821 24.0645 29.0948 23.7658 29.2193C23.6538 29.2442 23.5542 29.2691 23.4546 29.2691Z" fill="#494949"/>
<path d="M20.2328 22.934C19.7848 22.934 19.4238 22.5731 19.4238 22.1251V1.60171C19.4238 1.15366 19.7848 0.792725 20.2328 0.792725C20.6809 0.792725 21.0418 1.15366 21.0418 1.60171V22.1251C21.0418 22.5731 20.6809 22.934 20.2328 22.934Z" fill="#494949"/>
<path d="M20.2198 10.0401C20.0207 10.0401 19.8215 9.96538 19.6597 9.81603L16.4362 6.75433C16.1126 6.44318 16.1002 5.9329 16.4113 5.6093C16.7225 5.28571 17.2328 5.27326 17.5564 5.58441L20.2073 8.09849L22.7837 5.52218C23.0948 5.21103 23.6175 5.21103 23.9287 5.52218C24.2398 5.83333 24.2398 6.35606 23.9287 6.66721L20.7923 9.80358C20.6305 9.95293 20.4189 10.0401 20.2198 10.0401Z" fill="#494949"/>
<path d="M23.5419 18.3291C23.0939 18.3291 22.7329 17.9682 22.7329 17.5326L22.708 14.9189L20.754 16.7112C20.4304 17.0099 19.945 16.9974 19.6339 16.6863L17.8666 14.9189L17.8292 17.4579C17.8292 17.906 17.4558 18.2544 17.0202 18.2544H17.0078C16.5597 18.2544 16.1988 17.8811 16.2112 17.433L16.2735 12.9774C16.2735 12.6538 16.4726 12.3675 16.7838 12.2431C17.0825 12.1186 17.431 12.1933 17.655 12.4173L20.2313 14.9936L22.9445 12.492C23.181 12.2804 23.517 12.2182 23.8157 12.3426C24.1144 12.4671 24.3011 12.7533 24.3011 13.0769L24.3384 17.5077C24.3633 17.9682 24.0024 18.3291 23.5419 18.3291C23.5544 18.3291 23.5544 18.3291 23.5419 18.3291Z" fill="#494949"/>
<path d="M39.4119 21.5774H18.8637C18.4156 21.5774 18.0547 21.2165 18.0547 20.7685C18.0547 20.3204 18.4156 19.9595 18.8637 19.9595H39.4119C39.86 19.9595 40.2209 20.3204 40.2209 20.7685C40.2209 21.2165 39.86 21.5774 39.4119 21.5774Z" fill="#494949"/>
<path d="M34.9321 24.6891C34.7205 24.6891 34.5214 24.6144 34.3596 24.4526L31.2232 21.3162C30.9121 21.0051 30.9121 20.5072 31.2108 20.1837L34.2725 16.9602C34.5836 16.6366 35.0939 16.6241 35.4175 16.9353C35.7411 17.2464 35.7535 17.7567 35.4424 18.0803L32.9283 20.7313L35.5046 23.3076C35.8158 23.6187 35.8158 24.1415 35.5046 24.4526C35.3428 24.602 35.1312 24.6891 34.9321 24.6891Z" fill="#494949"/>
<path d="M23.5063 24.8882C23.0582 24.8882 22.6973 24.5272 22.6973 24.0916C22.6973 23.6436 23.0458 23.2827 23.4938 23.2702L26.1075 23.2453L24.3152 21.2913C24.0165 20.9677 24.029 20.4823 24.3401 20.1712L26.1075 18.4038L23.5685 18.3665C23.1204 18.3665 22.7595 17.9931 22.7719 17.5451C22.7844 17.097 23.1453 16.7485 23.5934 16.7485L28.049 16.8108C28.3726 16.8108 28.6589 17.0099 28.7833 17.321C28.9078 17.6198 28.8331 17.9682 28.6091 18.1923L26.0328 20.7686L28.5344 23.4818C28.746 23.7183 28.8082 24.0543 28.6838 24.353C28.5593 24.6517 28.273 24.8384 27.9495 24.8384L23.5063 24.8882Z" fill="#494949"/>
<path d="M18.9128 21.5525H1.09024C0.642182 21.5525 0.28125 21.1916 0.28125 20.7436C0.28125 20.2955 0.642182 19.9346 1.09024 19.9346H18.9253C19.3733 19.9346 19.7342 20.2955 19.7342 20.7436C19.7342 21.1916 19.3609 21.5525 18.9128 21.5525Z" fill="#494949"/>
<path d="M5.5715 24.6642C5.35992 24.6642 5.16078 24.5895 4.99899 24.4277C4.68784 24.1166 4.68784 23.5938 4.99899 23.2827L7.5753 20.7064L5.06122 18.0554C4.75007 17.7318 4.76251 17.2215 5.08611 16.9104C5.4097 16.5992 5.91999 16.6117 6.23113 16.9353L9.29283 20.1587C9.59154 20.4823 9.59154 20.9802 9.28039 21.2913L6.14401 24.4277C5.98222 24.5895 5.78308 24.6642 5.5715 24.6642Z" fill="#494949"/>
<path d="M16.9972 24.8633L12.554 24.8259C12.2304 24.8259 11.9441 24.6268 11.8197 24.3405C11.6952 24.0418 11.745 23.7058 11.969 23.4693L14.4707 20.7561L11.8944 18.1798C11.6703 17.9558 11.5957 17.6073 11.7201 17.3086C11.8446 17.0099 12.1308 16.8108 12.4544 16.7983L16.9101 16.7361C17.3581 16.7361 17.7191 17.0846 17.7315 17.5326C17.7315 17.9807 17.383 18.3416 16.935 18.3541L14.396 18.3914L16.1633 20.1587C16.4745 20.4699 16.4745 20.9553 16.1882 21.2789L14.396 23.2329L17.0096 23.2578C17.4577 23.2578 17.8186 23.6311 17.8062 24.0792C17.8062 24.5023 17.4452 24.8633 16.9972 24.8633Z" fill="#494949"/>
<path d="M20.2445 40.7316C19.7965 40.7316 19.4355 40.3706 19.4355 39.9226V22.0876C19.4355 21.6395 19.7965 21.2786 20.2445 21.2786C20.6926 21.2786 21.0535 21.6395 21.0535 22.0876V39.9226C21.0535 40.3706 20.6926 40.7316 20.2445 40.7316Z" fill="#494949"/>
<path d="M23.3562 36.2511C23.1446 36.2511 22.9455 36.1764 22.7837 36.0146L20.2073 33.4383L17.5564 35.9524C17.2328 36.2636 16.7225 36.2511 16.4113 35.9275C16.1002 35.6039 16.1126 35.0936 16.4362 34.7825L19.6597 31.7208C19.9833 31.4221 20.4812 31.4221 20.7923 31.7332L23.9287 34.8696C24.2398 35.1808 24.2398 35.7035 23.9287 36.0146C23.7669 36.164 23.5553 36.2511 23.3562 36.2511Z" fill="#494949"/>
<path d="M19.261 22.5856C19.0494 22.5856 18.8502 22.5109 18.6884 22.3491C18.3773 22.0379 18.3773 21.5152 18.6884 21.2041L33.188 6.6921C33.4991 6.38095 34.0218 6.38095 34.333 6.6921C34.6441 7.00325 34.6441 7.52598 34.333 7.83713L19.8335 22.3491C19.6717 22.4984 19.4601 22.5856 19.261 22.5856Z" fill="#494949"/>
<path d="M32.7903 13.4502H28.3595C27.9239 13.4502 27.563 13.1017 27.5506 12.6661L27.4261 8.22287C27.4137 7.77482 27.7621 7.40144 28.2102 7.389C28.6583 7.37655 29.0316 7.72504 29.0441 8.17309L29.1436 11.8322H32.7779C33.2259 11.8322 33.5868 12.1931 33.5868 12.6412C33.5868 13.0892 33.2384 13.4502 32.7903 13.4502Z" fill="#494949"/>
<path d="M6.67892 35.1684C6.46734 35.1684 6.26821 35.0937 6.10641 34.9319C5.79526 34.6208 5.79526 34.098 6.10641 33.7869L18.7141 21.1792C19.0253 20.868 19.548 20.868 19.8592 21.1792C20.1703 21.4903 20.1703 22.013 19.8592 22.3242L7.25143 34.9319C7.08964 35.0937 6.87806 35.1684 6.67892 35.1684Z" fill="#494949"/>
<path d="M12.0435 34.1977C11.5955 34.1977 11.2345 33.8368 11.2345 33.3887V29.7545L7.57543 29.6549C7.12738 29.6425 6.77889 29.2691 6.79134 28.821C6.80378 28.373 7.17716 28.0245 7.62522 28.0369L12.0684 28.1614C12.504 28.1738 12.8525 28.5348 12.8525 28.9704V33.4011C12.8525 33.8368 12.4916 34.1977 12.0435 34.1977Z" fill="#494949"/>
<path d="M17.0958 29.3437C16.9963 29.3437 16.8842 29.3188 16.7971 29.2814C16.4984 29.157 16.2993 28.8707 16.2868 28.5471L16.2246 24.0915C16.2246 23.6434 16.5731 23.2825 17.0211 23.2701C17.4692 23.2576 17.8301 23.6185 17.8426 24.0666L17.8799 26.6056L19.6472 24.8382C19.9584 24.5271 20.4438 24.5271 20.7674 24.8134L22.7214 26.6056L22.7463 23.9919C22.7463 23.5439 23.1197 23.1829 23.5677 23.1954C24.0158 23.1954 24.3767 23.5688 24.3643 24.0168L24.3269 28.4476C24.3269 28.7712 24.1278 29.0574 23.8415 29.1819C23.5428 29.3063 23.2068 29.2566 22.9703 29.0325L20.2446 26.5309L17.6683 29.1072C17.519 29.2566 17.3074 29.3437 17.0958 29.3437Z" fill="#494949"/>
</svg>
