<svg width="83" height="33" fill="none" xmlns="http://www.w3.org/2000/svg"><path d="M15.268 26.805H12.79c0-5.567.1-11.142.029-16.708 0 0-1.634 1.841-2.933 3.234l-1.352-1.746 4.623-5.531h2.112v20.751zm17.646-5.549c0 .917-.164 1.74-.493 2.47a5.01 5.01 0 01-1.38 1.83c-.601.502-1.334.885-2.197 1.15-.864.255-1.836.383-2.916.383-1.042 0-2.018-.085-2.93-.255-.9-.161-1.657-.402-2.267-.724v-2.527c.32.152.681.303 1.085.455a16.061 16.061 0 002.69.667c.479.066.953.099 1.422.099 1.502 0 2.61-.284 3.324-.852.723-.567 1.085-1.381 1.085-2.441 0-.511-.07-.956-.212-1.334-.131-.379-.37-.724-.718-1.036-.338-.322-.793-.63-1.366-.923a23.25 23.25 0 00-2.17-.98 13.472 13.472 0 01-2.182-1.078 6.61 6.61 0 01-1.521-1.334 5.111 5.111 0 01-.887-1.675c-.188-.625-.282-1.334-.282-2.13 0-.832.15-1.575.45-2.228a4.554 4.554 0 011.268-1.646 5.64 5.64 0 011.944-1.036c.76-.237 1.596-.355 2.507-.355 1.117 0 2.122.109 3.014.326a11.66 11.66 0 012.38.81l-.944 2.214a12.809 12.809 0 00-2.084-.71 9.132 9.132 0 00-2.394-.312c-1.146 0-2.033.27-2.662.809-.63.53-.944 1.249-.944 2.157 0 .54.07 1.008.211 1.405.141.388.376.743.704 1.065.329.312.76.61 1.296.894.545.274 1.211.568 2 .88.854.34 1.601.69 2.24 1.05.647.36 1.187.767 1.62 1.221.431.454.755.98.97 1.576.226.596.339 1.3.339 2.115zm8.491 5.549h-2.62V6.054h12.831v2.328H41.405v7.324h9.676v2.328h-9.676v8.771zm21.209 0L56.375 8.637h-.112c.056.7.103 1.396.14 2.087.038.596.066 1.225.085 1.887.028.653.042 1.25.042 1.789v12.405h-2.422V6.054h3.887l5.802 16.919h.085l5.83-16.92H73.6v20.752h-2.62v-12.59c0-.492.01-1.055.028-1.689.02-.634.043-1.24.07-1.816.038-.672.071-1.354.1-2.044h-.113l-6.296 18.14h-2.155z" fill="#000"/><rect x=".5" y=".922" width="81.133" height="31" rx="8.5" stroke="#000"/></svg>