<svg width="51" height="44" viewBox="0 0 51 44" fill="none" xmlns="http://www.w3.org/2000/svg">
<path fill-rule="evenodd" clip-rule="evenodd" d="M48.8791 42.839C49.0961 42.9475 49.3131 43.0126 49.5518 43.0126C50.0508 43.0126 50.5281 42.7522 50.8319 42.2749C51.2008 41.6023 50.9404 40.7343 50.2678 40.3655C48.4018 39.3457 46.4056 38.4778 44.3226 37.8269C42.2831 37.1759 40.1567 36.7203 37.9869 36.4382L35.1012 33.0534C34.8625 32.7496 34.4719 32.5761 34.0814 32.5544C33.6691 32.5544 33.3003 32.7062 33.0182 32.9883L29.6117 36.4816L26.2052 34.0515C25.7061 33.7043 25.0335 33.7043 24.5345 34.0732L21.1496 36.5901L17.6563 33.0534C17.3743 32.793 17.0054 32.6412 16.6148 32.6412C16.2243 32.6629 15.8554 32.8364 15.5951 33.1185L12.514 36.5901C10.4527 36.8071 8.41317 37.2193 6.46039 37.8486C4.42082 38.4995 2.48973 39.3674 0.710535 40.4089C0.0379103 40.7994 -0.179065 41.6673 0.211491 42.34C0.602047 43.0126 1.46995 43.2296 2.14257 42.839C3.7265 41.906 5.484 41.1249 7.30659 40.5391C9.23768 39.9315 11.2555 39.5193 13.3168 39.3457C13.6857 39.324 14.0111 39.1504 14.2498 38.8901L16.7016 36.1345L19.9997 39.4759C20.4987 39.9749 21.2798 40.0183 21.844 39.6061L25.3807 36.959L28.9391 39.4976C29.5032 39.8881 30.2843 39.8231 30.7617 39.324L33.9295 36.0694L36.1644 38.6731C36.3813 38.9551 36.7285 39.1287 37.0756 39.1721C39.2454 39.4108 41.3935 39.8664 43.433 40.5174C45.3424 41.1249 47.1867 41.906 48.8791 42.839ZM16.9186 10.8785H16.962C17.3526 10.8785 17.6997 10.7266 17.9384 10.4662L21.3449 6.97294L24.7514 9.40307C25.2505 9.75023 25.9231 9.75023 26.4221 9.38137L29.807 6.86445L33.3003 10.4012C33.5823 10.6615 33.9512 10.8134 34.3418 10.8134C34.7323 10.7917 35.1012 10.6181 35.3615 10.3361L38.4426 6.86445C40.5039 6.64748 42.5434 6.23522 44.4962 5.60599C46.5358 4.95507 48.4669 4.08716 50.2461 3.04568C50.9187 2.65513 51.1357 1.78722 50.7451 1.1146C50.3546 0.441974 49.4867 0.224997 48.814 0.615553C47.2301 1.54855 45.4726 2.32966 43.65 2.91549C41.7189 3.52303 39.7011 3.93528 37.6398 4.10886C37.2709 4.13056 36.9455 4.30414 36.7068 4.56451L34.255 7.3201L30.9569 3.97868C30.4579 3.47963 29.6768 3.43624 29.1126 3.84849L25.5759 6.49559L22.0175 3.95698C21.4534 3.56642 20.6723 3.63152 20.1949 4.13056L17.0271 7.38519L14.7923 4.75979C14.5753 4.47772 14.2281 4.30414 13.881 4.26074C11.7112 4.02207 9.56314 3.56642 7.52357 2.91549C5.61418 2.30796 3.76989 1.52685 2.07748 0.593856C1.40486 0.224998 0.536954 0.485368 0.168096 1.15799C-0.200763 1.83062 0.0596084 2.69852 0.732233 3.06738C2.59822 4.08716 4.5944 4.95507 6.67736 5.60599C8.71694 6.25692 10.8433 6.71257 13.0131 6.99464L15.8988 10.3795C16.1375 10.6832 16.5281 10.8568 16.9186 10.8785ZM25.461 25.4808H14.9004V28.2147C14.9004 28.6486 14.6401 29.0609 14.2278 29.2127C14.0976 29.2778 13.9457 29.3212 13.8156 29.3212C13.5335 29.3212 13.2514 29.2127 13.0561 28.9958L6.87234 22.812C6.43839 22.378 6.43839 21.7054 6.87234 21.2714L13.0561 15.0876C13.3599 14.7839 13.8373 14.6754 14.2278 14.849C14.6401 15.0225 14.9004 15.4131 14.9004 15.847V18.2772H26.1832C26.1927 18.2772 26.2022 18.2773 26.2117 18.2775H36.7721V15.5436C36.7721 15.1097 37.0325 14.6974 37.4447 14.5455C37.857 14.372 38.3126 14.4587 38.6381 14.7842L44.8219 20.968C45.2559 21.402 45.2559 22.0746 44.8219 22.5085L38.6381 28.6924C38.4211 28.8659 38.1391 28.9961 37.857 28.9961C37.7268 28.9961 37.5749 28.9744 37.4447 28.9093C37.0325 28.7357 36.7721 28.3452 36.7721 27.9112V25.4811H25.4894C25.4799 25.4811 25.4704 25.481 25.461 25.4808Z" fill="#1C1C1E"/>
</svg>
