<svg width="234" height="292" fill="none" xmlns="http://www.w3.org/2000/svg"><g clip-path="url(#clip0_2028_20591)"><path d="M24.26 291.421c7.802-10.555 8.261-17.439 54.613-16.063 0-10.096-3.442-18.357-5.966-21.569-3.212-4.131-58.284 22.487-51.4-23.865.77-5.177-11.474-9.637-4.59-14.686-3.212-1.376-3.671-3.671-3.671-3.671s4.13-16.98 1.836-17.898c-7.435-2.974-16.98-2.754-13.924-13.163 2-6.792 14.383-33.648 14.383-36.402 0-5.507-9.39-11.978-8.261-16.521 6.425-25.701-2.754-73.558 58.743-90.869 16.366-4.59 35.007-8.94 60.579-6.425 7.159 1.689 38.339 12.391 50.483 38.55 11.932 25.7 11.014 105.555-20.193 130.337-2.754 14.686-1.836 21.111-1.377 25.241.743 6.645 19.11 39.936 28.454 40.386 9.637.459 44.057 20.193 44.057 20.193" fill="#fff"/><path d="M24.26 291.421c4.91-7.26 8.04-11.785 16.99-14.052 12.28-3.011 25.085-2.579 37.632-2.469l-.478.459a44.121 44.121 0 00-2.184-13.768 25.944 25.944 0 00-3.745-7.618c-1.404-.579-3.332.064-4.855.238-11.327 2.175-23.443 5.939-35.017 2.607-11.932-3.571-13.29-16.402-11.556-27.013a4.288 4.288 0 00-.918-2.965c-1.579-2.349-4.314-4.194-5.507-6.984-.863-1.965.477-4.012 2.029-5.021l.091.789a6.576 6.576 0 01-3.947-4.002v-.202a111.432 111.432 0 002.36-12.74c.1-1.532.394-3.185-.157-4.515-3.671-1.717-8.022-1.836-11.601-4.03-4.709-2.671-3.672-8.215-1.937-12.409 1.028-2.754 2.148-5.397 3.268-8.078l6.8-15.98c1.102-2.671 2.231-5.342 3.15-8.049a4.692 4.692 0 00-.13-3.892c-1.743-4.002-5.167-6.838-7.159-10.822a5.34 5.34 0 01-.569-3.451l.248-1.055c2.68-12.74 2.754-25.93 5.847-38.624 5.507-24.782 21.478-40.771 45.168-49.069 22.029-7.49 45.434-11.4 68.638-8.903 16.356 4.59 31.877 13.437 42.937 26.471a53.45 53.45 0 0111.419 22.736c3.864 16.604 4.258 33.804 3.074 50.739-1.991 23.736-8.169 54.714-26.673 69.528-1.533 8.261-2.505 16.678-1.386 25.03a23.78 23.78 0 001.763 5.397 123.741 123.741 0 007.15 13.768c3.745 6.012 12.024 19.725 18.963 20.927 5.874.744 11.234 3.543 16.576 5.911 9.408 4.47 18.541 9.445 27.536 14.686-4.543-2.524-9.178-4.947-13.768-7.343-6.93-3.561-13.914-7.04-21.156-9.903-3.011-1.129-6.04-2.323-9.243-2.58-4.645-.706-7.912-5.048-10.84-8.343a110.423 110.423 0 01-8.904-12.85 123.663 123.663 0 01-7.324-13.823 24.07 24.07 0 01-1.836-5.691c-1.202-8.508-.156-17.164 1.423-25.544 19.064-15.87 24.544-45.627 26.618-69.216 1.184-16.806.798-33.96-3.02-50.418a52.52 52.52 0 00-11.161-22.36c-10.858-12.85-26.288-21.633-42.378-26.15a147.48 147.48 0 00-51.4 4.04c-22.488 5.13-44.975 15.135-55.467 36.98-7.985 15.668-8.224 33.53-10.803 50.565-.303 1.772-.652 3.598-1.092 5.351a4.413 4.413 0 00.505 2.836c1.239 2.506 3.23 4.663 4.92 7.04 1.404 2.066 3.249 4.59 2.753 7.279a92.365 92.365 0 01-3.424 9.179l-6.718 16.081c-1.102 2.671-2.203 5.351-3.194 8.049-1.478 3.617-2.644 8.665 1.496 10.886 3.442 1.946 7.535 2.662 11.188 4.195 1.13.652.918 2.295.918 3.359a89.174 89.174 0 01-2.533 15.062v-.202a5.797 5.797 0 003.405 3.341l.725.331-.633.459c-6.425 4.809 5.645 8.866 4.773 14.364-2.203 14.264 1.294 26.462 17.816 27.206 10.647.707 20.854-2.992 31.317-4.296.688 0 1.836-.064 2.387.817a28.298 28.298 0 013.671 7.646 45.417 45.417 0 012.24 14.493h-.478c-12.501-.294-25.26-.918-37.522 1.882-8.958 2.083-12.116 6.59-17.081 13.703z" fill="#000"/><path d="M93.099 144.563c.21-1.615 1.56-2.873 2.56-4.075 4.443-4.874 11.933-7.719 17.752-3.424 4.084 2.891 6.645 7.407 8.655 11.868 3.213 4.901 3.222 12.024 2.066 17.853-.799 4.47-2.24 8.756-3.351 13.116a37.833 37.833 0 01-4.892 12.85c-6.636 10.803-15.603 8.206-22.79-.45 12.657 11.987 19.642 5.7 24.387-8.674 1.836-5.654 3.672-11.39 5.058-17.145 1.211-5.645 1.578-11.933-1.46-17.027a35.614 35.614 0 00-4.699-8.462c-4.222-5.71-10.73-7.279-16.815-3.397a19.996 19.996 0 00-5.407 4.828 4.482 4.482 0 00-1.064 2.148v-.009z" fill="#000"/><path d="M145.877 59.66s13.768-3.67 20.193 5.508c5.599 7.994-6.425 13.768-6.425 13.768L144.959 67.92l.918-8.26z" fill="#fff"/><path d="M145.529 59.358a2.33 2.33 0 01.863-.284c4.727-.918 9.812-.836 14.263 1.165a14.58 14.58 0 014.167 2.9c6.719 6.242 1.689 12.85-4.965 16.22l-.257.128-.239-.174-14.686-11.015-.22-.165c.331-2.937.698-5.874 1.074-8.784v.01zm.698.606c-.239 2.69-.496 5.342-.79 8.013l-.183-.44 14.685 11.014h-.486c4.865-2.433 10.308-7.738 6.177-13.218 0-.22-.395-.578-.514-.752a12.842 12.842 0 00-4.764-3.617c-4.286-1.9-9.178-1.918-13.767-.917 0 0-.395.1-.441.1a.122.122 0 00.083-.101v-.082z" fill="#000"/><path d="M150.466 37.632l.918 22.029c2.754 3.671 6.425 9.178 3.671 17.439-2.753 6.425-13.767-2.754-20.192-10.096-6.426-7.344-3.672-17.44-3.672-17.44l19.275-11.932z" fill="#fff"/><path d="M150.685 37.228c.212-.284.257-.358.257-.1 0 .257.065.835.083 1.064.542 6.847.597 14.567.817 21.45l-.092-.256a31.984 31.984 0 012.589 3.965 16.53 16.53 0 012.065 9.178c-.367 2.442-.45 5.682-3.048 6.839-5.286 1.55-12.85-6.16-16.365-9.583-5.856-5.323-7.921-12.666-6.141-20.349 6.315-4.295 13.282-8.206 19.835-12.244v.036zm-.431.808c-6.003 3.672-13.373 8.72-18.715 11.62-1.707 7.417.266 14.521 5.957 19.68 2.753 2.863 14.181 13.95 17.191 7.608 2.157-6.112.34-12.152-3.754-17.118v-.147l-.293-5.37c-.303-4.588-.588-9.912-.597-14.483v-1c0-.285.064-.34.239-.79h-.028z" fill="#000"/><path d="M124.168 93.393l-.303 17.696 46.811 16.522h25.856s-42.708-32.667-72.364-34.218z" fill="#909090" stroke="#000" stroke-width=".918" stroke-miterlimit="10"/><path d="M166.592 128.794l-.202-20.716.918.918.201 19.789-.917.009z" fill="#000"/><path d="M8.196 109.225c8.261 0 44.829 3.048 86.28 10.097 23.038 3.919 45.755 13.621 64.25 17.439 20.707 4.268 36.035 2.414 38.55 1.836 12.85 6.425 17.495 5.507 17.495 5.507s4.534-5.507 5.452-6.425c.651-.652-6.425-5.507-6.425-5.507s-9.179-6.425-12.85-7.343c-3.672-.918-19.404-.404-25.701-1.588-21.065-3.919-70.675-21.974-94.494-25.03-21.817-2.8-59.66-7.343-69.757-5.507a56.486 56.486 0 00-2.8 16.521z" fill="#ADADAD" stroke="#000" stroke-width=".918" stroke-miterlimit="10"/><path d="M146.664 115.191l-.918-.036.854-19.266.918.027-.854 19.275zm-125.151-5.029l-.918-.037.918-17.44.917.037-.917 17.44zM45.379 94.31h-.918v18.358h.918V94.31zm24.782 2.754h-.918v18.357h.918V97.063zm25.7 3.671h-.918v18.358h.918v-18.358zm23.717 24.782h-.918l1.065-18.146.771.707-.918 17.439zm22.175-11.509h-.918v18.164h.918v-18.164zm22.03 23.561h-.918v-17.558l.835.486.083 17.072zm21.386 1.946l-.918-.027.542-15.659.917.028-.541 15.658z" fill="#000"/><path d="M228.025 43.296h-8.16c-3.314 8.104-18.917 25.544-31.767 23.708-14.686 18.357-26.472 27.747-35.797 33.961-2.754 1.836-9.491 3.479-13.768.918a6.431 6.431 0 01-3.029-6.572 11.02 11.02 0 01.835-3.038 18.295 18.295 0 012.231-3.8 28.574 28.574 0 012.753-3.112c7.343-7.343 13.291-10.004 17.798-13.235 3.313-2.368 12.051-20.524-7.701-28.986-6.425-2.754-15.035 10.28-15.604 15.603-.633 6.003 3.35 17.146 3.672 22.947.211 3.625-2.754 20.193-8.261 11.932-5.507-8.26-10.097-14.686-11.015-18.357-1.606-6.425 1.194-29.207 7.343-39.468 2.754-4.59.918-12.85 1.836-17.44.918-4.59 13.768-16.521 18.357-16.521C162.434 1.836 225.767 0 225.767 0" fill="#fff"/><path d="M228.024 43.295l-8.15.46.422-.285a29.065 29.065 0 01-2.589 4.589c-4.956 7.178-11.39 13.603-19.275 17.44a18.86 18.86 0 01-10.372 1.927l.423-.165c-10.179 12.767-21.735 24.672-35.402 33.795a14.947 14.947 0 01-5.838 2.332c-6.93 1.533-14.319-2.047-11.85-10.097 1.313-4.103 4.278-7.27 7.261-10.041a65.594 65.594 0 019.775-7.517c2.148-1.396 4.341-2.662 6.425-4.14a11.006 11.006 0 002.469-3.506c3.671-7.343 2.432-16.338-4.479-21.258a25.1 25.1 0 00-5.232-3.002 4.59 4.59 0 00-2.662-.504c-4.864 1.046-8.077 5.755-10.5 9.803a17.806 17.806 0 00-2.102 5.507 23.274 23.274 0 00.34 5.938c.853 6.076 3.157 11.933 3.295 18.146a34.612 34.612 0 01-.918 6.15c-.725 2.47-1.928 7.884-5.351 7.48a4.709 4.709 0 01-2.653-2.092c-3.864-6.067-8.554-11.675-11.207-18.412-2.084-9.877 1.836-30.18 6.627-39.129 3.91-5.709.973-13.061 2.754-19.385 2.588-5.104 7.085-8.977 11.482-12.501a22.701 22.701 0 015.388-3.176 8.389 8.389 0 013.185-.35h3.056C176.844.983 201.314-.027 225.775 0c-25.479 1.413-50.996 1.918-76.513 2.322h-1.533c-2.404.293-4.46 1.927-6.425 3.322-4.24 3.406-8.618 7.197-11.142 12.08-1.515 5.855.917 12.538-2.038 18.146-2.192 4-3.832 8.28-4.874 12.721-1.891 7.83-3.212 16.017-2.854 24.067.137 4.102 2.68 7.462 4.736 10.849 2.212 3.405 4.525 6.801 6.792 10.151 4.589 6.499 6.93-8.05 7.031-10.968-.221-8.114-4.232-15.907-3.672-24.177.982-6.067 9.601-19.201 16.806-15.668 10.95 4.59 15.439 14.925 10.216 25.783a11.734 11.734 0 01-2.809 3.92c-2.092 1.496-4.323 2.753-6.425 4.176a66.623 66.623 0 00-9.619 7.343c-2.9 2.698-5.764 5.727-6.985 9.536-2.239 7.224 4.489 10.051 10.611 8.729a14.028 14.028 0 005.452-2.157c13.649-9.06 25.204-20.927 35.42-33.695a17.992 17.992 0 0010.097-1.835c8.618-4.167 17.439-12.905 21.413-21.588l.157-.303h.275l8.151.459-.019.082z" fill="#000"/><path d="M159.047 72.126c3.314-2.368 12.052-20.524-7.7-28.986-6.426-2.754-15.035 10.28-15.604 15.603-.633 6.003 3.35 17.146 3.671 22.947.211 3.625-2.753 20.193-8.26 11.932-5.508-8.26-10.097-14.686-11.015-18.357-1.606-6.425 1.193-29.207 7.343-39.468 2.754-4.59.918-12.85 1.836-17.44.918-4.59 13.768-16.521 18.357-16.521C162.361 1.836 225.693 0 225.693 0" fill="#fff"/><path d="M158.818 71.758c2.065-1.836 3.249-4.846 3.983-7.517a15.892 15.892 0 00-4.259-15.98 24.84 24.84 0 00-7.342-4.672 5.006 5.006 0 00-3.956.193c-3.938 1.835-6.692 5.672-8.83 9.39-1.432 2.56-2.451 5.259-2.12 8.26.458 5.92 2.349 11.648 3.341 17.522 1.202 3.488-1.341 20.735-7.114 16.852-1.322-.918-3.157-4.185-4.103-5.507-1.661-2.478-3.332-4.957-4.929-7.49-1.597-2.533-3.322-5.14-3.882-8.197-.817-6.039.082-12.014.918-17.962 1.294-7.343 3.038-14.814 6.755-21.359 2.689-5.507.459-11.767 1.836-17.577 1.836-4.222 5.36-7.343 8.655-10.408a34.61 34.61 0 017.407-5.177 9.09 9.09 0 014.535-.716h4.47C178.047 1.009 201.912.32 225.776.036c-11.932.523-23.864.982-35.797 1.313-13.4.394-26.847.752-40.257.918a8.261 8.261 0 00-4.204.651 33.688 33.688 0 00-7.196 5.067c-3.167 2.928-6.636 6.085-8.408 10.096-1.239 5.746.918 12.199-1.835 17.724l-1.047 1.965c-4.121 8.682-5.791 18.43-6.636 27.967a39.224 39.224 0 00.138 8.811c.514 2.846 2.285 5.388 3.763 7.857 2.286 3.672 5.021 7.563 7.416 11.17 3.626 5.563 5.884-2.643 6.536-5.709.524-2.127.759-4.317.697-6.507a99.674 99.674 0 00-2.157-10.895c-.771-3.672-1.707-7.398-1.514-11.189a16.312 16.312 0 012.258-6.498c2.239-3.993 5.094-7.912 9.298-9.867a6.055 6.055 0 014.736-.193 26.02 26.02 0 017.646 4.883c4.589 4.194 6.177 11.014 4.497 16.907-.863 2.965-1.946 5.883-4.36 8.031l-.532-.743v-.037z" fill="#000"/><path d="M208.29 152.365s-2.753 15.604 7.343 29.372c10.097 13.768 12.85-6.425 12.85-6.425l-20.193-22.947z" fill="#fff"/><path d="M208.419 152.806a.26.26 0 00.23-.074c.055 0 .073-.174.055-.101v.202a38.323 38.323 0 00.468 12.657 38.722 38.722 0 008.261 17.614c6.59 7.857 9.757-1.936 10.674-7.848l.111.358c-6.655-7.526-13.126-15.098-19.725-22.808h-.074zm-.248-.918c6.866 7.59 13.851 15.356 20.634 23.121l.138.156v.211c-4.424 25.379-18.679 3.038-20.625-9.73a46.296 46.296 0 01-.514-12.932.918.918 0 01.367-.79v-.036z" fill="#000"/><path d="M233.992 150.53s-22.029-11.014-25.7-19.275c-3.185-7.169-11.014-9.179-14.686-6.425-3.671 2.753.918 24.782 6.425 28.454 5.507 3.671 12.85 4.589 14.686 11.014 1.836 6.425 0 12.85-4.589 14.686-4.59 1.836-8.261-7.343-10.097-10.097-3.671-5.507-4.589-3.671-3.671-15.603.918-11.933-7.196-21.46-11.933-10.097-4.589 11.015-4.46 37.633-3.965 50.942.294 7.801 9.968 12.409 10.391 17.898.917 11.932 42.221 8.261 42.221 8.261" fill="#fff"/><path d="M233.99 150.529c-8.26-3.836-16.439-8.462-23.029-14.887a16.026 16.026 0 01-2.827-3.736 16.816 16.816 0 00-2.34-3.782c-2.754-3.221-8.05-5.507-11.933-2.937-3.029 3.672.542 16.999 2.304 21.276 1.129 2.662 2.378 5.608 5.049 7.013 5.011 2.983 12.602 4.589 14.07 11.188 1.139 4.452.836 9.959-2.707 13.328-1.221 1.083-2.882 2.065-4.59 1.615a7.642 7.642 0 01-3.827-2.919c-1.928-2.395-3.148-5.305-4.791-7.811-.836-1.266-1.836-2.377-2.69-3.726-1.698-2.754-1.129-6.196-1.046-9.243.44-4.47.44-9.078-1.551-13.19-2.442-5.149-6.352-5.681-8.858-.174-3.451 8.389-3.754 17.761-4.304 26.746-.267 6.077-.303 12.171-.202 18.257.064 1.477.091 5.378.211 6.829l.119 1.083.275 1.055c.918 2.855 2.883 5.195 4.856 7.417 1.973 2.221 4.507 4.543 5.048 7.783.56 5.884 9.748 7.15 14.484 7.912 9.041 1.239 18.22 1.101 27.325.606v.11c-6.076.586-12.181.819-18.284.698-6.122-.184-12.327-.542-18.146-2.671-2.946-1.093-6.04-3.103-6.297-6.545-.495-2.9-2.955-5.094-4.828-7.278-2.056-2.295-4.13-4.746-5.066-7.766a17.304 17.304 0 01-.533-4.644c-.321-13.713-.403-27.536 1.836-41.139 1.028-4.405 1.707-9.61 5.507-12.666 5.122-3.047 8.463 4.387 9.179 8.408.521 3.051.589 6.162.202 9.233-.064 2.882-.652 6.067.918 8.647a52.304 52.304 0 015.03 7.71c1.532 2.496 4.102 7.636 7.609 6.122a7.79 7.79 0 004.047-4.782c1.267-4.021.992-9.179-1.835-12.538a13.354 13.354 0 00-3.479-2.681c-2.919-1.643-6.269-2.817-9.179-4.736-2.239-1.679-3.396-4.378-4.442-6.875-1.772-4.212-5.893-19.587-1.707-22.505 4.286-2.607 9.839-.212 12.85 3.249a17.567 17.567 0 012.45 3.965c2.213 3.919 6.058 6.654 9.638 9.307 4.938 3.525 10.188 6.609 15.439 9.711l.045-.037z" fill="#000"/><path d="M233.991 150.53s-22.029-11.014-25.701-19.275c-3.185-7.169-11.014-9.179-14.685-6.425-3.672 2.753.917 24.782 6.425 28.454 5.507 3.671 12.85 4.589 14.685 11.014" fill="#fff"/><path d="M233.991 150.529a85.965 85.965 0 01-21.303-13.153 22.683 22.683 0 01-4.241-4.773c-.991-1.836-1.836-3.671-3.35-5.085-2.68-2.68-7.205-4.433-10.73-2.496-2.561 1.477-1.239 8.71-.918 11.317a49.284 49.284 0 003.534 11.813c.854 1.735 1.836 3.671 3.442 4.763 5.03 3.406 12.804 4.59 14.686 11.253l-.918.257c-1.138-4.102-5.159-6.067-8.784-7.7-2.754-1.359-6.205-2.534-7.921-5.296-2.836-4.507-4.204-9.748-5.186-14.897a29.432 29.432 0 01-.413-9.537 4.484 4.484 0 011.083-2.414c3.882-3.038 9.637-1.01 12.786 2.194 1.578 1.459 2.487 3.451 3.478 5.305 3.442 5.122 8.95 8.518 14.025 11.932 3.497 2.249 7.068 4.397 10.648 6.535l.082-.018zM19.34 99.817h-2.754l-.275 1.836c.19-.033.384-.049.578-.046a3.013 3.013 0 011.542.385 2.056 2.056 0 011.028 1.836 2.493 2.493 0 01-.822 1.783 2.488 2.488 0 01-1.858.631 3.485 3.485 0 01-1.781-.44l.248-.735c.467.256.99.392 1.524.395a1.589 1.589 0 001.184-.409 1.57 1.57 0 00.514-1.142c0-.918-.625-1.588-2.056-1.588-.332.003-.664.03-.992.082l.46-3.432h3.423l.037.844zm6.094.046l-1.239.67-.183-.734 1.56-.835h.826v7.15h-.918l-.046-6.25zm21.763 8.086v-.596l.762-.734c1.836-1.735 2.653-2.662 2.662-3.745a1.276 1.276 0 00-1.423-1.395c-.56.02-1.095.234-1.514.605l-.312-.679a3.128 3.128 0 012.028-.734 2.018 2.018 0 011.564.548 2.009 2.009 0 01.62 1.535c0 1.322-.917 2.387-2.46 3.846l-.578.523h3.222v.799l-4.57.027zm114.657 11.428v-.514l.643-.624c1.56-1.487 2.267-2.277 2.276-3.194a1.1 1.1 0 00-.32-.887 1.096 1.096 0 00-.411-.254 1.101 1.101 0 00-.48-.053c-.48.018-.938.203-1.294.524l-.267-.588a2.682 2.682 0 011.726-.615 1.718 1.718 0 011.836 1.772c0 1.129-.817 2.037-2.102 3.276l-.487.45h2.754v.689l-3.874.018zm-18.411-11.757l-1.064.569-.156-.624 1.331-.716h.706v6.103h-.817v-5.332zm-71.233 2.891a3.277 3.277 0 001.588.45c1.24 0 1.625-.79 1.615-1.386 0-1.001-.917-1.432-1.835-1.432h-.533v-.725h.533c.706 0 1.597-.368 1.597-1.212 0-.569-.358-1.074-1.248-1.074a2.596 2.596 0 00-1.432.468l-.257-.707a3.409 3.409 0 011.835-.55c1.414 0 2.047.835 2.047 1.707a1.782 1.782 0 01-1.322 1.689 1.835 1.835 0 011.598 1.836c0 1.147-.918 2.147-2.607 2.147a3.667 3.667 0 01-1.836-.477l.257-.734zm28.462 4.782v-1.946H97.35v-.68l3.194-4.589h1.046v4.443h1.001v.761h-1.001v1.946l-.918.065zm0-2.754v-3.515a16.9 16.9 0 01-.596 1.064l-1.744 2.433 2.34.018zm-57.468-10.886H40.45l-.275 1.836c.19-.033.384-.049.578-.046a3.013 3.013 0 011.542.385 2.054 2.054 0 011.028 1.836 2.492 2.492 0 01-.822 1.782 2.476 2.476 0 01-1.858.632 3.476 3.476 0 01-1.78-.441l.247-.734c.467.256.991.392 1.524.395a1.59 1.59 0 001.184-.409 1.57 1.57 0 00.514-1.142c0-.918-.624-1.588-2.056-1.588-.332.003-.664.03-.992.082l.46-3.432h3.423l.037.844zm24.782 2.754h-2.754l-.275 1.836a3.03 3.03 0 01.578-.046 3.012 3.012 0 011.542.385 2.055 2.055 0 011.028 1.836 2.493 2.493 0 01-.822 1.782 2.476 2.476 0 01-1.858.632 3.476 3.476 0 01-1.78-.441l.247-.734c.468.256.991.392 1.524.395a1.59 1.59 0 001.184-.409 1.57 1.57 0 00.514-1.142c0-.918-.624-1.588-2.056-1.588-.332.003-.663.03-.991.082l.459-3.433h3.423l.037.845zm25.7 2.754h-2.753l-.276 1.836a3.03 3.03 0 01.579-.046 3.012 3.012 0 011.541.385 2.048 2.048 0 011.028 1.836 2.493 2.493 0 01-.821 1.782 2.476 2.476 0 01-1.859.632 3.486 3.486 0 01-1.78-.441l.248-.734c.467.256.99.392 1.523.395a1.59 1.59 0 001.184-.409 1.58 1.58 0 00.514-1.142c0-.918-.624-1.588-2.056-1.588-.332.003-.663.03-.991.082l.459-3.433h3.424l.036.845zm23.866 6.425h-2.753l-.276 1.835c.191-.033.385-.048.579-.046a3.024 3.024 0 011.542.386 2.044 2.044 0 011.028 1.836 2.49 2.49 0 01-2.68 2.414 3.496 3.496 0 01-1.781-.441l.248-.734c.467.256.991.391 1.523.394a1.574 1.574 0 001.698-1.551c0-.918-.624-1.588-2.056-1.588a6.715 6.715 0 00-.991.083l.459-3.433h3.424l.036.845zm8.259 1.836h-2.753l-.276 1.835c.191-.033.385-.048.579-.046a3.016 3.016 0 011.542.386 2.044 2.044 0 011.028 1.836 2.49 2.49 0 01-2.681 2.414 3.492 3.492 0 01-1.78-.441l.248-.734c.467.256.99.391 1.523.394a1.574 1.574 0 001.698-1.551c0-.918-.624-1.588-2.056-1.588a6.715 6.715 0 00-.991.083l.459-3.433h3.424l.036.845zm13.769 4.588h-2.754l-.275 1.836c.191-.033.384-.048.578-.046a3.004 3.004 0 011.542.386 2.041 2.041 0 011.028 1.836 2.473 2.473 0 01-.228.975 2.476 2.476 0 01-1.458 1.314 2.484 2.484 0 01-.994.124 3.488 3.488 0 01-1.781-.44l.248-.734a3.22 3.22 0 001.524.394 1.57 1.57 0 001.184-.408 1.586 1.586 0 00.514-1.143c0-.918-.624-1.588-2.056-1.588a6.703 6.703 0 00-.991.083l.458-3.433h3.424l.037.844zm8.078.744a3.517 3.517 0 00-.725.046 2.887 2.887 0 00-1.681.844 2.887 2.887 0 00-.807 1.699 2.178 2.178 0 013.545.169c.25.392.369.854.338 1.318a2.384 2.384 0 01-.649 1.767 2.382 2.382 0 01-1.728.747c-1.524 0-2.524-1.184-2.524-3.047a4.488 4.488 0 011.211-3.222 3.845 3.845 0 012.286-1.055c.233-.037.47-.056.706-.055l.028.789zm-.275 4.131a1.47 1.47 0 00-.868-1.523 1.439 1.439 0 00-.61-.12 1.595 1.595 0 00-1.386.917.821.821 0 00-.11.432c0 1.175.56 2.047 1.569 2.047.845-.037 1.405-.735 1.405-1.753zm13.308.633h-2.753l-.276 1.836c.191-.033.385-.049.578-.046a3.002 3.002 0 011.542.386 2.041 2.041 0 011.028 1.835 2.49 2.49 0 01-1.686 2.29 2.481 2.481 0 01-.994.124 3.482 3.482 0 01-1.78-.44l.247-.735c.468.256.991.392 1.524.395a1.574 1.574 0 001.698-1.551c0-.918-.624-1.588-2.056-1.588a6.715 6.715 0 00-.991.083l.459-3.433h3.423l.037.844zm8.637.064v.633l-3.111 6.517h-1.01l3.112-6.333h-3.507v-.799l4.516-.018zm14.307 3.607h-2.753l-.276 1.836a3.12 3.12 0 01.579-.046 3.013 3.013 0 011.542.385 2.046 2.046 0 011.028 1.836 2.495 2.495 0 01-.822 1.783 2.495 2.495 0 01-1.858.631 3.485 3.485 0 01-1.781-.44l.248-.735c.467.256.991.392 1.523.395a1.592 1.592 0 001.185-.409 1.58 1.58 0 00.513-1.142c0-.918-.624-1.588-2.056-1.588-.332.003-.663.03-.991.083l.459-3.433h3.424l.036.844z" fill="#000"/><path d="M187.5 133.668a2.04 2.04 0 011.423-1.909 1.77 1.77 0 01-1.138-1.606 2.016 2.016 0 01.694-1.432 2.018 2.018 0 011.518-.478 1.846 1.846 0 011.434.418 1.84 1.84 0 01.649 1.345 1.833 1.833 0 01-1.175 1.679 1.988 1.988 0 011.441 1.836 2.193 2.193 0 01-.77 1.56 2.198 2.198 0 01-1.662.515c-1.496.018-2.414-.9-2.414-1.928zm3.855 0c0-.863-.606-1.285-1.579-1.56a1.558 1.558 0 00-1.285 1.477 1.343 1.343 0 00.411 1.003 1.332 1.332 0 001.021.365 1.285 1.285 0 001.045-.323 1.304 1.304 0 00.424-1.008l-.037.046zm-2.662-3.57c0 .716.533 1.101 1.359 1.321a1.403 1.403 0 001.119-1.312 1.109 1.109 0 00-1.211-1.166 1.143 1.143 0 00-1.23 1.111l-.037.046z" fill="#000"/></g><defs><clipPath id="clip0_2028_20591"><path fill="#fff" d="M0 0h234v291.422H0z"/></clipPath></defs></svg>