<svg width="51" height="44" fill="none" xmlns="http://www.w3.org/2000/svg"><path fill-rule="evenodd" clip-rule="evenodd" d="M48.88 42.839c.216.108.433.174.672.174.499 0 .976-.26 1.28-.738a1.421 1.421 0 00-.564-1.91 32.895 32.895 0 00-5.945-2.538 36.191 36.191 0 00-6.336-1.389L35.1 33.053c-.239-.303-.63-.477-1.02-.499-.412 0-.78.152-1.063.434l-3.406 3.494-3.407-2.43a1.434 1.434 0 00-1.67.021L21.15 36.59l-3.494-3.537a1.535 1.535 0 00-1.041-.412c-.39.022-.76.195-1.02.477l-3.081 3.472c-2.061.217-4.1.63-6.054 1.259-2.04.65-3.97 1.518-5.75 2.56a1.412 1.412 0 00-.499 1.931c.391.673 1.259.89 1.932.499a25.789 25.789 0 015.164-2.3 27.832 27.832 0 016.01-1.193c.369-.022.694-.196.933-.456l2.452-2.755L20 39.475c.499.5 1.28.543 1.844.131l3.537-2.647 3.558 2.539a1.42 1.42 0 001.823-.174l3.167-3.255 2.235 2.604c.217.282.564.456.912.5 2.17.238 4.318.693 6.357 1.344a30.453 30.453 0 015.446 2.322zm-31.961-31.96h.043c.39 0 .738-.152.976-.413l3.407-3.493 3.406 2.43c.5.347 1.172.347 1.671-.022l3.385-2.517 3.493 3.537c.282.26.651.412 1.042.412.39-.021.76-.195 1.02-.477l3.08-3.472a30.027 30.027 0 006.054-1.258c2.04-.65 3.97-1.519 5.75-2.56.673-.39.89-1.259.5-1.931a1.412 1.412 0 00-1.932-.5 25.79 25.79 0 01-5.164 2.3 27.834 27.834 0 01-6.01 1.194 1.374 1.374 0 00-.933.456L34.255 7.32l-3.298-3.34a1.418 1.418 0 00-1.844-.13l-3.537 2.647-3.559-2.539a1.418 1.418 0 00-1.822.174l-3.168 3.254-2.235-2.625a1.375 1.375 0 00-.911-.5 32.792 32.792 0 01-6.357-1.345A30.457 30.457 0 012.077.594a1.421 1.421 0 00-1.909.564 1.421 1.421 0 00.564 1.91 32.898 32.898 0 005.945 2.538c2.04.65 4.166 1.107 6.336 1.389L15.9 10.38c.239.303.63.477 1.02.498zM25.46 25.48H14.9v2.734c0 .434-.26.846-.673.998a.973.973 0 01-.412.108c-.283 0-.565-.108-.76-.325l-6.184-6.184a1.074 1.074 0 010-1.54l6.184-6.184c.304-.304.781-.413 1.172-.239.412.174.672.564.672.998v2.43h21.872v-2.733c0-.434.26-.847.673-.998a1.07 1.07 0 011.193.238l6.184 6.184a1.074 1.074 0 010 1.54l-6.184 6.184c-.217.174-.499.304-.781.304a.94.94 0 01-.412-.087 1.082 1.082 0 01-.673-.998v-2.43h-11.31z" fill="#1C1C1E"/></svg>