<svg width="234" height="292" viewBox="0 0 234 292" fill="none" xmlns="http://www.w3.org/2000/svg">
<g clip-path="url(#clip0_2028_20591)">
<path d="M24.2604 291.421C32.0622 280.866 32.5211 273.982 78.8732 275.358C78.8732 265.262 75.4312 257.001 72.9071 253.789C69.6946 249.658 14.6228 276.276 21.5068 229.924C22.2778 224.747 10.0335 220.287 16.9174 215.238C13.7049 213.862 13.246 211.567 13.246 211.567C13.246 211.567 17.3764 194.587 15.0817 193.669C7.64703 190.695 -1.89874 190.915 1.15774 180.506C3.15868 173.714 15.5407 146.858 15.5407 144.104C15.5407 138.597 6.15092 132.126 7.27989 127.583C13.7049 101.882 4.5263 54.025 66.0231 36.7141C82.3886 32.1248 101.03 27.7741 126.602 30.289C133.761 31.9779 164.941 42.6802 177.085 68.8393C189.017 94.5395 188.099 174.394 156.892 199.176C154.138 213.862 155.056 220.287 155.515 224.417C156.258 231.062 174.625 264.353 183.969 264.803C193.606 265.262 228.026 284.996 228.026 284.996" fill="white"/>
<path d="M24.2596 291.421C29.1702 284.161 32.3001 279.636 41.2493 277.369C53.5303 274.358 66.3345 274.79 78.8817 274.9L78.4044 275.359C78.4104 270.683 77.673 266.035 76.2199 261.591C75.3981 258.863 74.1329 256.289 72.475 253.973C71.0707 253.394 69.1431 254.037 67.6195 254.211C56.2931 256.386 44.1773 260.15 32.603 256.818C20.6708 253.247 19.3124 240.416 21.0471 229.805C21.1222 228.737 20.7948 227.679 20.1293 226.84C18.5505 224.491 15.8153 222.646 14.6221 219.856C13.7593 217.891 15.0994 215.844 16.6506 214.835L16.7423 215.624C15.8298 215.29 15.0026 214.758 14.3202 214.066C13.6378 213.374 13.1171 212.539 12.7955 211.622V211.531V211.42C13.8282 207.223 14.6158 202.969 15.1544 198.68C15.2554 197.148 15.5491 195.495 14.9984 194.165C11.327 192.448 6.97628 192.329 3.39661 190.135C-1.31202 187.464 -0.274835 181.92 1.45993 177.726C2.48793 174.972 3.60772 172.329 4.72752 169.648L11.5289 153.668C12.6303 150.997 13.7593 148.326 14.6772 145.619C14.9357 144.999 15.058 144.33 15.0358 143.659C15.0137 142.988 14.8475 142.329 14.5487 141.727C12.8047 137.725 9.38108 134.889 7.38932 130.905C6.81771 129.852 6.61727 128.636 6.82025 127.454L7.06807 126.399C9.74823 113.659 9.82166 100.469 12.9149 87.7751C18.422 62.9928 34.3929 47.0036 58.0829 38.7061C80.1116 31.2163 103.517 27.3062 126.721 29.8028C143.077 34.3921 158.598 43.2403 169.658 56.274C175.239 62.8231 179.156 70.6225 181.077 79.0095C184.941 95.6136 185.335 112.814 184.151 129.749C182.16 153.485 175.982 184.463 157.478 199.277C155.945 207.538 154.973 215.955 156.092 224.307C156.462 226.17 157.054 227.982 157.855 229.704C159.948 234.438 162.336 239.037 165.005 243.472C168.75 249.484 177.029 263.197 183.968 264.399C189.842 265.143 195.202 267.942 200.544 270.31C209.952 274.78 219.085 279.755 228.08 284.996C223.537 282.472 218.902 280.049 214.312 277.653C207.382 274.092 200.398 270.613 193.156 267.75C190.145 266.621 187.116 265.427 183.913 265.17C179.268 264.464 176.001 260.122 173.073 256.827C169.805 252.76 166.83 248.465 164.169 243.977C161.439 239.529 158.992 234.912 156.845 230.154C155.999 228.341 155.382 226.429 155.009 224.463C153.807 215.955 154.853 207.299 156.432 198.919C175.496 183.049 180.976 153.292 183.05 129.703C184.234 112.897 183.848 95.7421 180.03 79.2848C178.163 71.0423 174.334 63.3722 168.869 56.9257C158.011 44.0756 142.581 35.2916 126.491 30.7758C109.254 29.0934 91.8543 30.4605 75.0909 34.8144C52.6033 39.9452 30.1156 49.9499 19.6244 71.7951C11.639 87.463 11.4004 105.325 8.82119 122.36C8.51829 124.132 8.1695 125.958 7.72893 127.711C7.57535 128.687 7.7531 129.685 8.23375 130.547C9.47287 133.053 11.4646 135.21 13.1535 137.587C14.5578 139.653 16.4027 142.177 15.9071 144.866C14.9291 147.984 13.7863 151.048 12.4835 154.045L5.7647 170.126C4.66327 172.797 3.56183 175.477 2.57054 178.175C1.09278 181.792 -0.0729046 186.84 4.06666 189.061C7.50864 191.007 11.6023 191.723 15.2554 193.256C16.3844 193.908 16.1733 195.551 16.1733 196.615C15.7612 201.699 14.9136 206.738 13.64 211.677V211.475C13.9383 212.242 14.3962 212.936 14.9833 213.512C15.5704 214.088 16.2732 214.533 17.0452 214.816L17.7704 215.147L17.137 215.606C10.712 220.415 22.7819 224.472 21.9099 229.97C19.707 244.234 23.2041 256.432 39.7256 257.176C50.3728 257.883 60.5795 254.184 71.0431 252.88C71.7315 252.88 72.8788 252.816 73.4296 253.697C75.0305 256.047 76.2683 258.624 77.101 261.343C78.6278 266.021 79.3841 270.916 79.3406 275.836H78.8633C66.362 275.542 53.6037 274.918 41.3411 277.718C32.3827 279.801 29.2253 284.308 24.2596 291.421Z" fill="black"/>
<path d="M93.0986 144.563C93.3097 142.948 94.659 141.69 95.6595 140.488C100.102 135.614 107.592 132.769 113.411 137.064C117.495 139.955 120.056 144.471 122.066 148.932C125.279 153.833 125.288 160.956 124.132 166.785C123.333 171.255 121.892 175.541 120.781 179.901C119.949 184.447 118.291 188.802 115.889 192.751C109.253 203.554 100.286 200.957 93.0986 192.301C105.756 204.288 112.741 198.001 117.486 183.627C119.322 177.973 121.158 172.237 122.544 166.482C123.755 160.837 124.122 154.549 121.084 149.455C119.91 146.434 118.329 143.586 116.385 140.993C112.163 135.283 105.655 133.714 99.5696 137.596C97.4881 138.863 95.6559 140.499 94.1634 142.424C93.6199 143.03 93.2518 143.773 93.0986 144.572V144.563Z" fill="black"/>
<path d="M145.877 59.6608C145.877 59.6608 159.645 55.9893 166.07 65.1679C171.669 73.1625 159.645 78.9359 159.645 78.9359L144.959 67.9215L145.877 59.6608Z" fill="white"/>
<path d="M145.529 59.3582C145.795 59.2077 146.088 59.111 146.392 59.0737C151.119 58.1558 156.204 58.2384 160.655 60.2394C162.203 60.9553 163.614 61.937 164.822 63.1398C171.541 69.3813 166.511 75.9899 159.857 79.3585L159.6 79.487L159.361 79.3126L144.675 68.2982L144.455 68.133C144.786 65.1958 145.153 62.2587 145.529 59.349V59.3582ZM146.227 59.964C145.988 62.6534 145.731 65.306 145.437 67.977L145.254 67.5364L159.939 78.5507H159.453C164.318 76.1184 169.761 70.8132 165.63 65.3335C165.63 65.1132 165.235 64.7553 165.116 64.5809C163.835 63.0175 162.203 61.7785 160.352 60.9645C156.066 59.0645 151.174 59.0461 146.585 60.0466C146.585 60.0466 146.19 60.1476 146.144 60.1476C146.166 60.1406 146.186 60.1273 146.2 60.1094C146.215 60.0915 146.224 60.0696 146.227 60.0466V59.964Z" fill="black"/>
<path d="M150.466 37.6318L151.384 59.6605C154.138 63.332 157.809 68.8392 155.055 77.0999C152.302 83.525 141.288 74.3464 134.863 67.0035C128.437 59.6605 131.191 49.5641 131.191 49.5641L150.466 37.6318Z" fill="white"/>
<path d="M150.685 37.2285C150.897 36.944 150.942 36.8705 150.942 37.1275C150.942 37.3845 151.007 37.9628 151.025 38.1923C151.567 45.0395 151.622 52.7587 151.842 59.6427L151.75 59.3857C152.71 60.6417 153.575 61.967 154.339 63.3509C155.902 66.1456 156.619 69.3345 156.404 72.5295C156.037 74.971 155.954 78.2111 153.356 79.3676C148.07 80.9188 140.506 73.2087 136.991 69.7851C131.135 64.4615 129.07 57.1186 130.85 49.4361C137.165 45.1405 144.132 41.2304 150.685 37.1918V37.2285ZM150.254 38.0362C144.251 41.7077 136.881 46.7559 131.539 49.6564C129.832 57.0727 131.805 64.177 137.496 69.3353C140.249 72.1991 151.677 83.2869 154.687 76.9444C156.844 70.8315 155.027 64.7919 150.933 59.8263V59.6794L150.64 54.3099C150.337 49.7206 150.052 44.397 150.043 39.826V38.8256C150.043 38.541 150.107 38.486 150.282 38.0362H150.254Z" fill="black"/>
<path d="M124.168 93.3926L123.865 111.089L170.676 127.611H196.532C196.532 127.611 153.824 94.9438 124.168 93.3926Z" fill="#909090" stroke="black" stroke-width="0.917863" stroke-miterlimit="10"/>
<path d="M166.592 128.794L166.39 108.078L167.308 108.996L167.509 128.785L166.592 128.794Z" fill="black"/>
<path d="M8.19629 109.225C16.4571 109.225 53.0247 112.273 94.4754 119.322C117.514 123.241 140.231 132.943 158.726 136.761C179.433 141.029 194.761 139.175 197.276 138.597C210.126 145.022 214.771 144.104 214.771 144.104C214.771 144.104 219.305 138.597 220.223 137.679C220.874 137.027 213.798 132.172 213.798 132.172C213.798 132.172 204.619 125.747 200.948 124.829C197.276 123.911 181.544 124.425 175.247 123.241C154.182 119.322 104.572 101.267 80.7533 98.211C58.9357 95.4115 21.0923 90.8681 10.9958 92.7038C9.24637 98.0412 8.30283 103.61 8.19629 109.225Z" fill="#ADADAD" stroke="black" stroke-width="0.917863" stroke-miterlimit="10"/>
<path d="M146.664 115.191L145.746 115.155L146.6 95.8887L147.518 95.9162L146.664 115.191Z" fill="black"/>
<path d="M21.5126 110.162L20.5947 110.125L21.5126 92.6855L22.4305 92.7223L21.5126 110.162Z" fill="black"/>
<path d="M45.3788 94.3105H44.4609V112.668H45.3788V94.3105Z" fill="black"/>
<path d="M70.161 97.0635H69.2432V115.421H70.161V97.0635Z" fill="black"/>
<path d="M95.8612 100.735H94.9434V119.093H95.8612V100.735Z" fill="black"/>
<path d="M119.578 125.517H118.66L119.725 107.371L120.496 108.078L119.578 125.517Z" fill="black"/>
<path d="M141.753 114.008H140.835V132.172H141.753V114.008Z" fill="black"/>
<path d="M163.783 137.569H162.865V120.011L163.7 120.497L163.783 137.569Z" fill="black"/>
<path d="M185.169 139.515L184.251 139.488L184.793 123.829L185.71 123.857L185.169 139.515Z" fill="black"/>
<path d="M228.025 43.2956H219.865C216.551 51.4003 200.948 68.8397 188.098 67.004C173.412 85.3613 161.626 94.751 152.301 100.965C149.547 102.801 142.81 104.444 138.533 101.883C137.426 101.218 136.546 100.236 136.005 99.0638C135.465 97.8916 135.29 96.5838 135.504 95.3109C135.635 94.2634 135.917 93.2402 136.339 92.2728C136.927 90.9207 137.676 89.6448 138.57 88.4728C139.411 87.3702 140.331 86.3303 141.323 85.3613C148.666 78.0184 154.614 75.3566 159.121 72.1257C162.434 69.7576 171.172 51.6023 151.42 43.1396C144.995 40.386 136.385 53.4196 135.816 58.7432C135.183 64.7461 139.166 75.8889 139.488 81.6898C139.699 85.3154 136.734 101.883 131.227 93.622C125.72 85.3613 121.13 78.9362 120.212 75.2648C118.606 68.8397 121.406 46.0584 127.555 35.7967C130.309 31.2073 128.473 22.9466 129.391 18.3573C130.309 13.7679 143.159 1.83573 147.748 1.83573C162.434 1.83573 225.767 0 225.767 0" fill="white"/>
<path d="M228.024 43.2952L219.874 43.7541L220.296 43.4696C219.574 45.0745 218.707 46.6106 217.707 48.0589C212.751 55.2366 206.317 61.6616 198.432 65.4983C195.229 67.1142 191.631 67.7829 188.06 67.4258L188.483 67.2606C178.304 80.0281 166.748 91.9327 153.081 101.056C151.322 102.239 149.332 103.033 147.243 103.388C140.313 104.921 132.924 101.341 135.393 93.2912C136.706 89.1883 139.671 86.0217 142.654 83.2498C145.669 80.4426 148.942 77.9257 152.429 75.7325C154.577 74.3373 156.77 73.0707 158.854 71.5929C159.899 70.5972 160.738 69.4059 161.323 68.0867C164.994 60.7438 163.755 51.7487 156.844 46.8289C155.227 45.6217 153.47 44.6139 151.612 43.8275C150.796 43.3952 149.868 43.2193 148.95 43.3227C144.086 44.3691 140.873 49.0777 138.45 53.1255C137.448 54.8318 136.738 56.693 136.348 58.6327C136.207 60.6186 136.321 62.6144 136.688 64.5712C137.541 70.6475 139.845 76.5035 139.983 82.7174C139.862 84.7907 139.555 86.8489 139.065 88.8671C138.34 91.3361 137.137 96.7515 133.714 96.3477C132.601 96.0023 131.656 95.2567 131.061 94.2549C127.197 88.1879 122.507 82.5797 119.854 75.8426C117.77 65.9664 121.69 45.6633 126.481 36.7141C130.391 31.005 127.454 23.6529 129.235 17.3288C131.823 12.2255 136.32 8.35213 140.717 4.82753C142.358 3.5254 144.171 2.45666 146.105 1.65173C147.134 1.33193 148.216 1.21351 149.29 1.30294H152.346C176.844 0.981688 201.314 -0.0279601 225.775 -0.000424176C200.296 1.41308 174.779 1.91791 149.262 2.32177H147.729C145.325 2.61548 143.269 4.24928 141.304 5.64443C137.064 9.04971 132.686 12.8405 130.162 17.7235C128.647 23.5795 131.079 30.2615 128.124 35.8697C125.932 39.8705 124.292 44.15 123.25 48.5913C121.359 56.4206 120.038 64.608 120.396 72.6576C120.533 76.7605 123.076 80.1198 125.132 83.5068C127.344 86.912 129.657 90.3081 131.924 93.6583C136.513 100.157 138.854 85.6087 138.955 82.6899C138.734 74.576 134.723 66.7833 135.283 58.5133C136.265 52.4463 144.884 39.3117 152.089 42.8454C163.039 47.4347 167.528 57.7699 162.305 68.6282C161.65 70.1148 160.694 71.4493 159.496 72.5475C157.404 74.0436 155.173 75.3011 153.071 76.7237C149.649 78.8743 146.429 81.3321 143.452 84.0667C140.552 86.7652 137.688 89.7941 136.467 93.6032C134.228 100.827 140.956 103.654 147.078 102.332C149.027 102.005 150.885 101.27 152.53 100.175C166.179 91.1158 177.734 79.2479 187.95 66.4804C191.423 66.8617 194.931 66.2238 198.047 64.6447C206.665 60.4776 215.486 51.7395 219.46 43.0565L219.617 42.7536H219.892L228.043 43.2126L228.024 43.2952Z" fill="black"/>
<path d="M159.047 72.1257C162.361 69.7576 171.099 51.6023 151.347 43.1396C144.921 40.386 136.312 53.4196 135.743 58.7432C135.11 64.7461 139.093 75.8889 139.414 81.6898C139.625 85.3154 136.661 101.883 131.154 93.622C125.646 85.3613 121.057 78.9362 120.139 75.2648C118.533 68.8397 121.332 46.0584 127.482 35.7967C130.236 31.2073 128.4 22.9466 129.318 18.3573C130.236 13.7679 143.086 1.83573 147.675 1.83573C162.361 1.83573 225.693 0 225.693 0" fill="white"/>
<path d="M158.818 71.7579C160.883 69.9222 162.067 66.9116 162.801 64.2406C163.626 61.4427 163.665 58.4718 162.913 55.6533C162.162 52.8347 160.65 50.2772 158.542 48.2607C156.389 46.2835 153.903 44.7019 151.2 43.5887C150.562 43.3499 149.882 43.2438 149.202 43.2769C148.521 43.3101 147.855 43.4817 147.244 43.7815C143.306 45.6172 140.552 49.4539 138.414 53.1712C136.982 55.7321 135.963 58.4306 136.294 61.432C136.752 67.3522 138.643 73.0797 139.635 78.954C140.837 82.4419 138.294 99.6885 132.521 95.806C131.199 94.8881 129.364 91.6205 128.418 90.2988C126.757 87.8206 125.086 85.3423 123.489 82.809C121.892 80.2757 120.167 77.669 119.607 74.6125C118.79 68.573 119.689 62.5977 120.525 56.6499C121.819 49.307 123.563 41.8356 127.28 35.2912C129.969 29.7841 127.739 23.5242 129.116 17.7142C130.952 13.492 134.476 10.3713 137.771 7.30561C140.003 5.26357 142.494 3.52314 145.178 2.12886C146.604 1.50609 148.165 1.25959 149.713 1.41293H154.183C178.047 1.00907 201.912 0.32067 225.776 0.0361328C213.844 0.559315 201.912 1.01825 189.979 1.34868C176.579 1.74336 163.132 2.10132 149.722 2.26654C148.288 2.11305 146.838 2.33773 145.518 2.91822C142.908 4.28513 140.489 5.98853 138.322 7.98483C135.155 10.9128 131.686 14.0703 129.914 18.0813C128.675 23.8271 130.832 30.2797 128.079 35.8053L127.032 37.7695C122.911 46.4525 121.241 56.2002 120.396 65.7368C120.111 68.6698 120.157 71.6256 120.534 74.5483C121.048 77.3936 122.819 79.9361 124.297 82.4052C126.583 86.0766 129.318 89.9683 131.713 93.5755C135.339 99.1378 137.597 90.9321 138.249 87.8664C138.773 85.7385 139.008 83.5495 138.946 81.3588C138.43 77.6899 137.71 74.0526 136.789 70.4638C136.018 66.7923 135.082 63.0658 135.275 59.275C135.557 56.973 136.327 54.7575 137.533 52.7765C139.772 48.7838 142.627 44.8646 146.831 42.9095C147.567 42.5607 148.365 42.3638 149.179 42.3307C149.993 42.2976 150.805 42.4289 151.567 42.7168C154.382 43.8842 156.97 45.537 159.213 47.5998C163.802 51.7944 165.39 58.6141 163.71 64.5068C162.847 67.4715 161.764 70.3903 159.35 72.5381L158.818 71.7947V71.7579Z" fill="black"/>
<path d="M208.29 152.365C208.29 152.365 205.537 167.969 215.633 181.737C225.73 195.505 228.483 175.312 228.483 175.312L208.29 152.365Z" fill="white"/>
<path d="M208.419 152.806C208.461 152.813 208.503 152.81 208.543 152.797C208.583 152.785 208.619 152.762 208.649 152.732C208.704 152.732 208.722 152.558 208.704 152.631V152.833C208.157 157.049 208.315 161.326 209.172 165.49C210.382 171.969 213.225 178.031 217.433 183.104C224.023 190.961 227.19 181.168 228.107 175.256L228.218 175.614C221.563 168.088 215.092 160.516 208.493 152.806H208.419ZM208.171 151.888C215.037 159.478 222.022 167.244 228.805 175.009L228.943 175.165V175.376C224.519 200.755 210.264 178.414 208.318 165.646C207.542 161.381 207.369 157.027 207.804 152.714C207.795 152.562 207.824 152.411 207.888 152.273C207.952 152.135 208.05 152.015 208.171 151.924V151.888Z" fill="black"/>
<path d="M233.992 150.53C233.992 150.53 211.963 139.516 208.292 131.255C205.107 124.086 197.278 122.076 193.606 124.83C189.935 127.583 194.524 149.612 200.031 153.284C205.538 156.955 212.881 157.873 214.717 164.298C216.553 170.723 214.717 177.148 210.128 178.984C205.538 180.82 201.867 171.641 200.031 168.887C196.36 163.38 195.442 165.216 196.36 153.284C197.278 141.351 189.164 131.824 184.427 143.187C179.838 154.202 179.967 180.82 180.462 194.129C180.756 201.93 190.43 206.538 190.853 212.027C191.77 223.959 233.074 220.288 233.074 220.288" fill="white"/>
<path d="M233.99 150.529C225.73 146.693 217.551 142.067 210.961 135.642C209.841 134.542 208.888 133.283 208.134 131.906C207.525 130.547 206.738 129.276 205.794 128.124C203.04 124.903 197.744 122.617 193.861 125.187C190.832 128.859 194.403 142.186 196.165 146.463C197.294 149.125 198.543 152.071 201.214 153.476C206.225 156.459 213.816 158.065 215.284 164.664C216.423 169.116 216.12 174.623 212.577 177.992C211.356 179.075 209.695 180.057 207.987 179.607C206.431 179.072 205.088 178.048 204.16 176.688C202.232 174.293 201.012 171.383 199.369 168.877C198.533 167.611 197.533 166.5 196.679 165.151C194.981 162.397 195.55 158.955 195.633 155.908C196.073 151.438 196.073 146.83 194.082 142.718C191.64 137.569 187.73 137.037 185.224 142.544C181.773 150.933 181.47 160.305 180.92 169.29C180.653 175.367 180.617 181.461 180.718 187.547C180.782 189.024 180.809 192.925 180.929 194.376L181.048 195.459L181.323 196.514C182.241 199.369 184.206 201.709 186.179 203.931C188.152 206.152 190.686 208.474 191.227 211.714C191.787 217.598 200.975 218.864 205.711 219.626C214.752 220.865 223.931 220.727 233.036 220.232V220.342C226.96 220.928 220.855 221.161 214.752 221.04C208.63 220.856 202.425 220.498 196.606 218.369C193.66 217.276 190.566 215.266 190.309 211.824C189.814 208.924 187.354 206.73 185.481 204.546C183.425 202.251 181.351 199.8 180.415 196.78C180.028 195.264 179.849 193.701 179.882 192.136C179.561 178.423 179.479 164.6 181.718 150.997C182.746 146.592 183.425 141.387 187.225 138.331C192.347 135.284 195.688 142.718 196.404 146.739C196.925 149.79 196.993 152.901 196.606 155.972C196.542 158.854 195.954 162.039 197.524 164.619C199.424 167.036 201.107 169.616 202.554 172.329C204.086 174.825 206.656 179.965 210.163 178.451C211.132 177.977 211.992 177.308 212.688 176.484C213.385 175.661 213.903 174.702 214.21 173.669C215.477 169.648 215.202 164.49 212.375 161.131C211.371 160.051 210.196 159.146 208.896 158.45C205.977 156.807 202.627 155.633 199.717 153.714C197.478 152.035 196.321 149.336 195.275 146.839C193.503 142.627 189.382 127.252 193.568 124.334C197.854 121.727 203.407 124.122 206.418 127.583C207.407 128.79 208.231 130.123 208.868 131.548C211.081 135.467 214.926 138.202 218.506 140.855C223.444 144.38 228.694 147.464 233.945 150.566L233.99 150.529Z" fill="black"/>
<path d="M233.991 150.53C233.991 150.53 211.962 139.516 208.29 131.255C205.105 124.086 197.276 122.076 193.605 124.83C189.933 127.583 194.522 149.612 200.03 153.284C205.537 156.955 212.88 157.873 214.715 164.298" fill="white"/>
<path d="M233.991 150.529C226.286 147.208 219.109 142.776 212.688 137.376C211.056 135.993 209.629 134.386 208.447 132.603C207.456 130.767 206.611 128.932 205.097 127.518C202.417 124.838 197.892 123.085 194.367 125.022C191.806 126.499 193.128 133.732 193.449 136.339C194.128 140.409 195.315 144.378 196.983 148.152C197.837 149.887 198.819 151.823 200.425 152.915C205.455 156.321 213.229 157.505 215.111 164.168L214.193 164.425C213.055 160.323 209.034 158.358 205.409 156.725C202.655 155.366 199.204 154.191 197.488 151.429C194.652 146.922 193.284 141.681 192.302 136.532C191.646 133.396 191.507 130.175 191.889 126.995C191.999 126.1 192.376 125.259 192.972 124.581C196.854 121.543 202.609 123.571 205.758 126.775C207.336 128.234 208.245 130.226 209.236 132.08C212.678 137.202 218.186 140.598 223.261 144.012C226.758 146.261 230.329 148.409 233.909 150.547L233.991 150.529Z" fill="black"/>
<path d="M19.3395 99.8171H16.5859L16.3106 101.653C16.5015 101.62 16.6951 101.604 16.8888 101.607C17.4281 101.595 17.9607 101.728 18.4309 101.992C18.7523 102.177 19.0177 102.445 19.1988 102.768C19.3798 103.091 19.4697 103.458 19.4589 103.828C19.4499 104.165 19.3725 104.497 19.2312 104.804C19.0899 105.11 18.8877 105.385 18.637 105.611C18.3863 105.836 18.0923 106.009 17.7728 106.117C17.4533 106.226 17.1151 106.268 16.7787 106.242C16.1565 106.257 15.5417 106.105 14.998 105.802L15.2459 105.067C15.7132 105.323 16.2368 105.459 16.7695 105.462C16.9844 105.478 17.2003 105.45 17.4039 105.38C17.6076 105.31 17.7947 105.199 17.9538 105.053C18.1129 104.908 18.2405 104.732 18.3289 104.535C18.4172 104.339 18.4644 104.126 18.4676 103.911C18.4676 102.993 17.8434 102.323 16.4116 102.323C16.0795 102.326 15.7482 102.353 15.4203 102.405L15.8792 98.9727H19.3028L19.3395 99.8171Z" fill="black"/>
<path d="M25.4344 99.8634L24.1953 100.533L24.0117 99.7991L25.5721 98.9639H26.3982V106.114H25.4803L25.4344 99.8634Z" fill="black"/>
<path d="M47.1973 107.949V107.353L47.9591 106.619C49.7948 104.884 50.6117 103.957 50.6209 102.874C50.6402 102.683 50.6164 102.491 50.5513 102.311C50.4862 102.131 50.3815 101.968 50.2449 101.834C50.1082 101.7 49.9432 101.599 49.762 101.537C49.5809 101.476 49.3882 101.456 49.1982 101.479C48.6384 101.499 48.103 101.713 47.6837 102.084L47.3717 101.405C47.9394 100.928 48.6583 100.667 49.4001 100.671C49.6847 100.646 49.9713 100.682 50.2409 100.776C50.5105 100.871 50.7568 101.021 50.9635 101.219C51.1702 101.416 51.3325 101.655 51.4397 101.92C51.5468 102.184 51.5962 102.469 51.5846 102.754C51.5846 104.076 50.6668 105.141 49.1248 106.6L48.5465 107.123H51.7682V107.922L47.1973 107.949Z" fill="black"/>
<path d="M161.854 119.377V118.863L162.497 118.239C164.057 116.752 164.764 115.962 164.773 115.045C164.789 114.882 164.769 114.718 164.714 114.565C164.658 114.412 164.569 114.273 164.453 114.158C164.337 114.044 164.196 113.957 164.042 113.904C163.888 113.851 163.724 113.833 163.562 113.851C163.082 113.869 162.624 114.054 162.268 114.375L162.001 113.787C162.486 113.386 163.097 113.168 163.727 113.172C163.967 113.155 164.208 113.189 164.434 113.271C164.66 113.353 164.866 113.482 165.039 113.649C165.212 113.816 165.348 114.018 165.438 114.241C165.529 114.464 165.571 114.703 165.563 114.944C165.563 116.073 164.746 116.981 163.461 118.22L162.974 118.67H165.728V119.359L161.854 119.377Z" fill="black"/>
<path d="M143.443 107.62L142.379 108.189L142.223 107.565L143.554 106.849H144.26V112.952H143.443V107.62Z" fill="black"/>
<path d="M72.2101 110.511C72.6924 110.794 73.239 110.949 73.798 110.961C75.0371 110.961 75.4226 110.171 75.4135 109.575C75.4135 108.574 74.4956 108.143 73.5777 108.143H73.0454V107.418H73.5777C74.2845 107.418 75.1748 107.05 75.1748 106.206C75.1748 105.637 74.8169 105.132 73.9265 105.132C73.4135 105.143 72.9152 105.306 72.4947 105.6L72.2377 104.893C72.7842 104.538 73.4214 104.347 74.0734 104.343C75.4869 104.343 76.1202 105.178 76.1202 106.05C76.1133 106.437 75.9806 106.811 75.7421 107.116C75.5036 107.42 75.1724 107.639 74.7985 107.739C75.2429 107.797 75.6507 108.016 75.9449 108.354C76.2391 108.692 76.3994 109.126 76.3956 109.575C76.3956 110.722 75.4777 111.722 73.7889 111.722C73.1457 111.727 72.5127 111.562 71.9531 111.245L72.2101 110.511Z" fill="black"/>
<path d="M100.672 115.293V113.347H97.3496V112.667L100.544 108.078H101.59V112.521H102.591V113.282H101.59V115.228L100.672 115.293ZM100.672 112.539V110.152C100.672 109.776 100.672 109.4 100.672 109.024C100.452 109.446 100.278 109.758 100.076 110.088L98.3317 112.521L100.672 112.539Z" fill="black"/>
<path d="M43.2038 101.653H40.4502L40.1748 103.489C40.3658 103.456 40.5593 103.44 40.7531 103.443C41.2924 103.431 41.8249 103.564 42.2951 103.828C42.6166 104.013 42.882 104.281 43.063 104.604C43.2441 104.927 43.334 105.294 43.3231 105.664C43.3142 106.001 43.2367 106.333 43.0954 106.64C42.9541 106.946 42.752 107.221 42.5013 107.446C42.2506 107.672 41.9565 107.845 41.637 107.953C41.3176 108.062 40.9794 108.104 40.643 108.078C40.0207 108.093 39.4059 107.941 38.8623 107.637L39.1101 106.903C39.5774 107.159 40.101 107.295 40.6338 107.298C40.8486 107.314 41.0645 107.286 41.2682 107.216C41.4719 107.146 41.659 107.035 41.8181 106.889C41.9771 106.744 42.1048 106.568 42.1931 106.371C42.2815 106.175 42.3287 105.962 42.3318 105.747C42.3318 104.829 41.7077 104.159 40.2758 104.159C39.9438 104.162 39.6124 104.189 39.2845 104.241L39.7435 100.809H43.1671L43.2038 101.653Z" fill="black"/>
<path d="M67.986 104.407H65.2324L64.9571 106.243C65.148 106.209 65.3416 106.194 65.5353 106.197C66.0746 106.185 66.6072 106.318 67.0773 106.582C67.3988 106.767 67.6642 107.035 67.8453 107.358C68.0263 107.681 68.1162 108.048 68.1053 108.418C68.0964 108.755 68.0189 109.087 67.8777 109.394C67.7364 109.7 67.5342 109.975 67.2835 110.2C67.0328 110.426 66.7387 110.599 66.4193 110.707C66.0998 110.816 65.7616 110.858 65.4252 110.832C64.803 110.847 64.1881 110.695 63.6445 110.391L63.8924 109.657C64.3597 109.913 64.8833 110.049 65.416 110.052C65.6308 110.068 65.8467 110.04 66.0504 109.97C66.2541 109.9 66.4412 109.789 66.6003 109.643C66.7594 109.498 66.887 109.322 66.9754 109.125C67.0637 108.929 67.1109 108.716 67.1141 108.501C67.1141 107.583 66.4899 106.913 65.058 106.913C64.726 106.916 64.3947 106.943 64.0667 106.995L64.5257 103.562H67.9493L67.986 104.407Z" fill="black"/>
<path d="M93.6862 107.161H90.9326L90.6573 108.997C90.8482 108.963 91.0418 108.948 91.2355 108.951C91.7748 108.939 92.3074 109.072 92.7775 109.336C93.099 109.52 93.3644 109.789 93.5455 110.112C93.7265 110.435 93.8164 110.802 93.8055 111.172C93.7966 111.509 93.7191 111.841 93.5779 112.148C93.4366 112.454 93.2344 112.728 92.9837 112.954C92.733 113.18 92.4389 113.353 92.1195 113.461C91.8 113.57 91.4618 113.612 91.1254 113.586C90.5032 113.601 89.8883 113.448 89.3447 113.145L89.5926 112.411C90.0599 112.667 90.5835 112.803 91.1162 112.806C91.331 112.822 91.5469 112.794 91.7506 112.724C91.9543 112.654 92.1414 112.542 92.3005 112.397C92.4596 112.252 92.5872 112.075 92.6756 111.879C92.7639 111.682 92.8111 111.47 92.8142 111.255C92.8142 110.337 92.1901 109.667 90.7582 109.667C90.4262 109.67 90.0949 109.697 89.7669 109.749L90.2259 106.316H93.6495L93.6862 107.161Z" fill="black"/>
<path d="M117.552 113.586H114.799L114.523 115.421C114.714 115.388 114.908 115.373 115.102 115.375C115.641 115.364 116.174 115.497 116.644 115.761C116.965 115.945 117.231 116.213 117.412 116.537C117.593 116.86 117.683 117.226 117.672 117.597C117.663 117.934 117.585 118.266 117.444 118.572C117.303 118.879 117.101 119.153 116.85 119.379C116.599 119.605 116.305 119.777 115.986 119.886C115.666 119.994 115.328 120.037 114.992 120.011C114.369 120.025 113.755 119.873 113.211 119.57L113.459 118.836C113.926 119.092 114.45 119.227 114.982 119.23C115.197 119.247 115.413 119.219 115.617 119.149C115.82 119.078 116.008 118.967 116.167 118.822C116.326 118.677 116.453 118.5 116.542 118.304C116.63 118.107 116.677 117.895 116.68 117.679C116.68 116.761 116.056 116.091 114.624 116.091C114.292 116.094 113.961 116.122 113.633 116.174L114.092 112.741H117.516L117.552 113.586Z" fill="black"/>
<path d="M125.811 115.422H123.058L122.782 117.257C122.973 117.224 123.167 117.209 123.361 117.211C123.9 117.199 124.432 117.333 124.903 117.597C125.224 117.781 125.489 118.049 125.67 118.373C125.852 118.696 125.941 119.062 125.931 119.433C125.922 119.77 125.844 120.102 125.703 120.408C125.562 120.715 125.359 120.989 125.109 121.215C124.858 121.441 124.564 121.613 124.244 121.722C123.925 121.83 123.587 121.873 123.25 121.847C122.628 121.861 122.013 121.709 121.47 121.406L121.718 120.672C122.185 120.928 122.708 121.063 123.241 121.066C123.456 121.083 123.672 121.055 123.876 120.985C124.079 120.914 124.266 120.803 124.425 120.658C124.585 120.513 124.712 120.336 124.801 120.14C124.889 119.943 124.936 119.731 124.939 119.515C124.939 118.597 124.315 117.927 122.883 117.927C122.551 117.93 122.22 117.958 121.892 118.01L122.351 114.577H125.775L125.811 115.422Z" fill="black"/>
<path d="M139.58 120.01H136.826L136.551 121.846C136.742 121.813 136.935 121.798 137.129 121.8C137.668 121.788 138.201 121.921 138.671 122.186C138.993 122.37 139.258 122.638 139.439 122.961C139.62 123.285 139.71 123.651 139.699 124.022C139.69 124.359 139.613 124.691 139.471 124.997C139.33 125.304 139.128 125.578 138.877 125.804C138.627 126.03 138.332 126.202 138.013 126.311C137.694 126.419 137.355 126.462 137.019 126.435C136.397 126.45 135.782 126.298 135.238 125.995L135.486 125.261C135.953 125.516 136.477 125.652 137.01 125.655C137.225 125.672 137.44 125.644 137.644 125.574C137.848 125.503 138.035 125.392 138.194 125.247C138.353 125.101 138.481 124.925 138.569 124.729C138.657 124.532 138.705 124.32 138.708 124.104C138.708 123.186 138.084 122.516 136.652 122.516C136.32 122.519 135.988 122.547 135.661 122.599L136.119 119.166H139.543L139.58 120.01Z" fill="black"/>
<path d="M147.658 120.754C147.415 120.744 147.172 120.76 146.933 120.8C146.294 120.886 145.702 121.183 145.252 121.644C144.801 122.104 144.517 122.702 144.445 123.343C144.732 122.977 145.129 122.712 145.577 122.588C146.025 122.464 146.501 122.487 146.935 122.653C147.37 122.819 147.739 123.121 147.99 123.512C148.24 123.904 148.359 124.366 148.328 124.83C148.345 125.153 148.297 125.476 148.185 125.78C148.074 126.084 147.902 126.362 147.679 126.597C147.457 126.833 147.189 127.02 146.892 127.149C146.595 127.277 146.274 127.344 145.951 127.344C144.427 127.344 143.427 126.16 143.427 124.297C143.406 123.707 143.503 123.118 143.71 122.565C143.918 122.012 144.234 121.506 144.638 121.075C145.26 120.477 146.065 120.105 146.924 120.02C147.157 119.983 147.394 119.964 147.63 119.965L147.658 120.754ZM147.383 124.885C147.409 124.677 147.39 124.465 147.328 124.265C147.265 124.065 147.16 123.881 147.02 123.725C146.88 123.569 146.707 123.445 146.515 123.362C146.323 123.278 146.114 123.237 145.905 123.242C145.612 123.253 145.327 123.344 145.083 123.506C144.838 123.668 144.643 123.894 144.519 124.159C144.443 124.291 144.405 124.44 144.409 124.591C144.409 125.766 144.969 126.638 145.978 126.638C146.823 126.601 147.383 125.903 147.383 124.885Z" fill="black"/>
<path d="M160.691 125.518H157.938L157.662 127.354C157.853 127.321 158.047 127.305 158.24 127.308C158.78 127.296 159.312 127.429 159.782 127.694C160.104 127.878 160.369 128.146 160.55 128.469C160.731 128.793 160.821 129.159 160.81 129.529C160.801 129.867 160.724 130.199 160.583 130.505C160.441 130.811 160.239 131.086 159.989 131.312C159.738 131.537 159.444 131.71 159.124 131.819C158.805 131.927 158.467 131.97 158.13 131.943C157.508 131.958 156.893 131.806 156.35 131.503L156.597 130.768C157.065 131.024 157.588 131.16 158.121 131.163C158.336 131.179 158.552 131.152 158.755 131.081C158.959 131.011 159.146 130.9 159.305 130.755C159.464 130.609 159.592 130.433 159.68 130.236C159.769 130.04 159.816 129.827 159.819 129.612C159.819 128.694 159.195 128.024 157.763 128.024C157.431 128.027 157.1 128.055 156.772 128.107L157.231 124.674H160.654L160.691 125.518Z" fill="black"/>
<path d="M169.328 125.582V126.215L166.217 132.732H165.207L168.319 126.399H164.812V125.6L169.328 125.582Z" fill="black"/>
<path d="M183.635 129.189H180.882L180.606 131.025C180.797 130.992 180.991 130.976 181.185 130.979C181.724 130.967 182.257 131.1 182.727 131.364C183.048 131.549 183.314 131.817 183.495 132.14C183.676 132.463 183.766 132.83 183.755 133.2C183.746 133.538 183.668 133.869 183.527 134.176C183.386 134.482 183.184 134.757 182.933 134.983C182.682 135.208 182.388 135.381 182.069 135.489C181.749 135.598 181.411 135.64 181.075 135.614C180.452 135.629 179.838 135.477 179.294 135.174L179.542 134.439C180.009 134.695 180.533 134.831 181.065 134.834C181.28 134.85 181.496 134.822 181.7 134.752C181.903 134.682 182.091 134.571 182.25 134.425C182.409 134.28 182.536 134.104 182.625 133.907C182.713 133.711 182.76 133.498 182.763 133.283C182.763 132.365 182.139 131.695 180.707 131.695C180.375 131.698 180.044 131.725 179.716 131.778L180.175 128.345H183.599L183.635 129.189Z" fill="black"/>
<path d="M187.5 133.668C187.507 133.241 187.648 132.827 187.903 132.484C188.159 132.141 188.515 131.888 188.923 131.759C188.595 131.634 188.313 131.414 188.11 131.128C187.907 130.843 187.794 130.503 187.785 130.153C187.797 129.879 187.865 129.612 187.984 129.365C188.104 129.119 188.272 128.9 188.479 128.721C188.686 128.543 188.928 128.408 189.189 128.326C189.45 128.244 189.724 128.216 189.997 128.243C190.252 128.209 190.511 128.228 190.758 128.3C191.005 128.371 191.234 128.495 191.431 128.661C191.627 128.827 191.787 129.032 191.898 129.264C192.01 129.496 192.072 129.749 192.08 130.006C192.074 130.371 191.958 130.726 191.749 131.025C191.54 131.324 191.246 131.554 190.905 131.685C191.308 131.801 191.664 132.041 191.923 132.37C192.182 132.7 192.33 133.103 192.346 133.521C192.331 133.82 192.254 134.112 192.122 134.38C191.989 134.649 191.804 134.887 191.576 135.081C191.348 135.275 191.084 135.421 190.798 135.509C190.512 135.598 190.211 135.627 189.914 135.596C188.418 135.614 187.5 134.696 187.5 133.668ZM191.355 133.668C191.355 132.805 190.749 132.383 189.776 132.108C189.426 132.17 189.107 132.351 188.873 132.62C188.639 132.889 188.505 133.229 188.491 133.585C188.486 133.772 188.519 133.958 188.59 134.131C188.661 134.304 188.767 134.459 188.902 134.588C189.037 134.717 189.198 134.817 189.374 134.879C189.55 134.942 189.737 134.967 189.923 134.953C190.11 134.979 190.301 134.963 190.481 134.907C190.662 134.851 190.828 134.757 190.968 134.63C191.107 134.503 191.218 134.347 191.291 134.173C191.365 133.999 191.399 133.811 191.392 133.622L191.355 133.668ZM188.693 130.098C188.693 130.814 189.226 131.199 190.052 131.419C190.358 131.356 190.634 131.193 190.837 130.955C191.04 130.718 191.157 130.419 191.171 130.107C191.18 129.947 191.154 129.788 191.096 129.64C191.037 129.491 190.947 129.357 190.832 129.247C190.717 129.136 190.58 129.051 190.429 128.999C190.279 128.946 190.119 128.926 189.96 128.941C189.805 128.929 189.65 128.948 189.503 128.998C189.356 129.047 189.22 129.127 189.105 129.231C188.99 129.335 188.897 129.461 188.833 129.602C188.768 129.744 188.733 129.896 188.73 130.052L188.693 130.098Z" fill="black"/>
</g>
<defs>
<clipPath id="clip0_2028_20591">
<rect width="234" height="291.422" fill="white"/>
</clipPath>
</defs>
</svg>
