<svg width="83" height="33" viewBox="0 0 83 33" fill="none" xmlns="http://www.w3.org/2000/svg">
<path d="M15.2683 26.8053H12.7895C12.7895 21.2382 12.8893 15.6632 12.8177 10.0969C12.8177 10.0969 11.1842 11.9385 9.88527 13.3308L8.5332 11.585L13.1557 6.05393H15.2683V26.8053Z" fill="black"/>
<path d="M32.9139 21.2555C32.9139 22.1734 32.7496 22.9966 32.421 23.7253C32.1017 24.4444 31.6416 25.0547 31.0407 25.5563C30.4398 26.0578 29.7074 26.441 28.8436 26.706C27.9798 26.9614 27.008 27.0892 25.9282 27.0892C24.886 27.0892 23.9095 27.004 22.9988 26.8337C22.0974 26.6728 21.3415 26.4315 20.7312 26.1098V23.5833C21.0505 23.7347 21.412 23.8861 21.8157 24.0375C22.2288 24.1795 22.6607 24.3072 23.1114 24.4208C23.5621 24.5343 24.0269 24.6289 24.5057 24.7046C24.9846 24.7709 25.4588 24.804 25.9282 24.804C27.4305 24.804 28.5385 24.5201 29.2521 23.9524C29.975 23.3846 30.3365 22.5708 30.3365 21.511C30.3365 21 30.2661 20.5553 30.1253 20.1768C29.9938 19.7983 29.7544 19.4529 29.407 19.1406C29.069 18.8189 28.6136 18.5114 28.0408 18.218C27.4681 17.9152 26.7451 17.5888 25.8719 17.2387C25.0362 16.9075 24.3086 16.5479 23.6889 16.1599C23.0786 15.7625 22.5715 15.3178 22.1678 14.8257C21.7734 14.3337 21.4777 13.7754 21.2805 13.1508C21.0927 12.5263 20.9988 11.8166 20.9988 11.0218C20.9988 10.1891 21.1491 9.44626 21.4495 8.79334C21.75 8.14042 22.1725 7.5916 22.7171 7.14686C23.2617 6.69265 23.9095 6.34727 24.6607 6.11071C25.4212 5.87414 26.2569 5.75586 27.1676 5.75586C28.285 5.75586 29.2896 5.86468 30.1816 6.08232C31.0736 6.29049 31.867 6.56018 32.5618 6.89137L31.6182 9.1056C31.0079 8.83119 30.3131 8.59463 29.5337 8.39591C28.7638 8.18774 27.9657 8.08365 27.1395 8.08365C25.994 8.08365 25.1067 8.35333 24.4776 8.8927C23.8485 9.4226 23.5339 10.1418 23.5339 11.0502C23.5339 11.5895 23.6044 12.0579 23.7452 12.4553C23.8861 12.8433 24.1208 13.1982 24.4494 13.5199C24.778 13.8322 25.2099 14.1302 25.7451 14.4141C26.2897 14.6885 26.9564 14.9819 27.7451 15.2941C28.5995 15.6348 29.346 15.9849 29.9844 16.3445C30.6323 16.704 31.1722 17.1109 31.6041 17.5651C32.036 18.0193 32.3599 18.5445 32.5759 19.1406C32.8012 19.7368 32.9139 20.4417 32.9139 21.2555Z" fill="black"/>
<path d="M41.4049 26.8053H38.7852V6.05393H51.6161V8.38172H41.4049V15.7057H51.0809V18.0335H41.4049V26.8053Z" fill="black"/>
<path d="M62.6143 26.8053L56.3751 8.63721H56.2625C56.3188 9.33744 56.3657 10.0329 56.4033 10.7237C56.4409 11.3198 56.469 11.9491 56.4878 12.6115C56.516 13.2644 56.5301 13.8605 56.5301 14.3999V26.8053H54.1076V6.05393H57.9948L63.7974 22.973H63.8819L69.7127 6.05393H73.5999V26.8053H70.9802V14.2154C70.9802 13.7233 70.9896 13.1603 71.0084 12.5263C71.0272 11.8923 71.0507 11.2867 71.0788 10.7095C71.1164 10.0377 71.1493 9.35636 71.1774 8.6656H71.0647L64.7692 26.8053H62.6143Z" fill="black"/>
<rect x="0.5" y="0.921875" width="81.1333" height="31" rx="8.5" stroke="black"/>
</svg>
