<svg width="26" height="31" fill="none" xmlns="http://www.w3.org/2000/svg"><path d="M1.795 28.96l1.536 1.896H2.248L.87 29.181v1.675H0v-3.571h.87v1.618h.01l1.094-1.618h.95L1.796 28.96zm3.987-.816l.56 1.382H5.274l.508-1.382zm.489-.86H5.269L3.87 30.857h.915l.26-.706h1.55l.284.706h.931l-1.54-3.571zm6.013 3.572h-.722l-1.917-2.208v2.208h-.86v-3.571h.788l1.856 2.103v-2.103h.854l.001 3.571zm4.614-2.55l-.055-.026a2.917 2.917 0 00-1.236-.299c-.778 0-1.266.43-1.266 1.121 0 .618.478 1.058 1.146 1.058.213 0 .424-.043.62-.126v-.42h-.498v-.666h1.378v1.472c-.345.299-.9.482-1.484.482-1.206 0-2.06-.76-2.06-1.832 0-1.095.844-1.834 2.095-1.834.302 0 .603.04.895.12.16.044.318.102.469.174l-.004.776zm4.36.791c0 .63-.457 1.084-1.088 1.084-.656 0-1.099-.44-1.099-1.09 0-.67.427-1.094 1.089-1.094.67.002 1.103.43 1.098 1.1zm.895-.02c0-1.038-.87-1.841-1.988-1.841-1.118 0-1.988.802-1.988 1.84 0 1.026.864 1.828 1.973 1.828 1.133 0 2.003-.792 2.003-1.828zm3.845 1.779h-2.644v-3.571h.874v2.906H26l-.002.665zM2.08 21.447a1.66 1.66 0 01-.93-.284 1.7 1.7 0 01-.255-2.594 1.667 1.667 0 011.822-.366c.305.127.566.343.75.62a1.697 1.697 0 01-.207 2.129 1.665 1.665 0 01-1.18.495zm0-3.175c-.293 0-.578.087-.821.25a1.502 1.502 0 00-.224 2.292 1.472 1.472 0 001.609.323 1.499 1.499 0 00.478-2.428 1.47 1.47 0 00-1.043-.436v-.001z" fill="#003468"/><path d="M1.95 18.74c.365 0 .596.199.596.52a.469.469 0 01-.303.46c.06.038.113.088.156.145.095.114.177.237.247.368.062.105.112.183.152.238l.08.112.016.022h-.31l-.019-.024-.064-.1a2.299 2.299 0 00-.061-.098 6.261 6.261 0 00-.174-.276 1.048 1.048 0 00-.228-.263c-.06-.046-.1-.052-.217-.052h-.07v.812h-.257v-1.867l.457.002zm-.196.816h.1c.062 0 .125-.003.186-.012a.288.288 0 00.234-.231.293.293 0 00-.132-.303c-.067-.032-.15-.043-.309-.043h-.08v.588z" fill="#003468"/><path fill-rule="evenodd" clip-rule="evenodd" d="M23.919 0a.867.867 0 01.198.358c.044.178.084.36.057.544-.04.273-.086.545-.14.815-.038.198-.096.393-.139.591a9.878 9.878 0 00-.112.583.196.196 0 00.066.19c.067.051.13.108.188.169.14.155.278.313.412.473a168.92 168.92 0 011.4 1.731c.085.113.13.251.13.393.008.176.001.354-.02.53-.019.118-.05.234-.093.346a.316.316 0 01-.085.132c-.161.148-.365.24-.582.263-.225.022-.392-.095-.521-.269a1.054 1.054 0 00-.495-.384c-.113-.04-.198.014-.205.134-.021.372-.038.745-.067 1.117-.02.268-.052.535-.088.801-.031.226-.074.449-.114.673-.04.224-.08.446-.128.668-.04.191-.092.38-.14.57-.043.17-.085.34-.132.51-.052.19-.11.378-.168.567-.052.173-.11.344-.164.516-.016.049.01.074.048.1.194.127.387.253.577.385.182.135.322.318.404.53a4.8 4.8 0 01.186.537c.056.184.098.373.143.561.062.25-.084.53-.334.663-.25.134-.425.008-.544-.213l-.091-.175-.026.005v.221c0 .412-.208.693-.558.88a.314.314 0 01-.305-.004.774.774 0 01-.287-.26c-.076-.113-.043-.225 0-.339.03-.074.056-.149.078-.226a.365.365 0 00-.063-.303 1.313 1.313 0 00-.365-.36c-.161-.106-.241-.068-.32.105-.098.214-.166.44-.248.662-.104.282-.205.566-.316.846-.111.28-.23.566-.354.845-.184.43-.43.83-.727 1.188-.078.092-.17.174-.239.272a.427.427 0 00-.067.207c-.044.54-.061 1.082-.052 1.623.007.273.023.547.045.82.027.333.06.666.1.998a.698.698 0 00.083.23.24.24 0 00.235.136c.494-.004.99-.005 1.481-.005.22 0 .439-.005.658.005.256.013.513.025.767.06.292.034.572.137.816.302.167.12.313.267.358.476.055.27.015.45-.264.6a1.691 1.691 0 01-.762.189c-.165.005-.33 0-.495 0a.39.39 0 00-.01.026l.131.157c.138.173.209.369.156.589a.6.6 0 01-.3.39.704.704 0 01-.359.092c-.708.004-1.417.005-2.125.008-.2 0-.399.008-.599.01l-2.81.02c-.27 0-.493-.122-.69-.299a1.671 1.671 0 01-.475-.75 1.145 1.145 0 01-.039-.264c-.022-.289-.04-.579-.056-.87-.009-.155-.009-.31-.018-.465-.024-.392-.045-.784-.078-1.175a7.374 7.374 0 00-.098-.764 1.671 1.671 0 00-.246-.599.126.126 0 00-.12-.063c-.14 0-.279 0-.416-.006a1.647 1.647 0 01-.602-.156.083.083 0 00-.074.006c-.306.232-.61.465-.914.699-.36.275-.718.553-1.08.826-.322.242-.64.49-.972.717a32.64 32.64 0 01-1.413.925c-.333.204-.68.389-1.032.56a16.811 16.811 0 01-1.975.779c-.252.082-.508.152-.763.226-.244.07-.487.143-.733.206-.234.06-.469.11-.706.162-.225.05-.449.105-.678.144a8.88 8.88 0 01-.763.098c-.296.025-.595.04-.893.04a4.843 4.843 0 01-.82-.046c-.316-.052-.606-.19-.797-.473-.17-.25-.128-.544.176-.683.176-.08.359-.145.546-.194.246-.07.498-.122.748-.177.173-.038.349-.065.521-.103.194-.043.387-.093.58-.14.183-.044.368-.087.55-.135.207-.054.412-.111.616-.17.21-.063.422-.124.63-.194.227-.075.456-.15.678-.243.325-.136.648-.277.964-.433.486-.242.952-.524 1.394-.841a8.285 8.285 0 001.36-1.202c.332-.364.6-.783.793-1.239.123-.295.227-.598.325-.902.06-.183.09-.375.133-.563.038-.165.075-.33.11-.495.036-.175.068-.351.103-.526l.083-.427c.024-.125.045-.252.068-.378.026-.135.052-.27.081-.405.024-.118.048-.237.074-.355.034-.158.069-.316.107-.473.043-.171.087-.342.133-.511.053-.183.1-.368.162-.547.084-.246.172-.49.272-.73a8.499 8.499 0 011.542-2.447c.319-.354.67-.678 1.05-.965a6.56 6.56 0 011.603-.89c.237-.09.48-.165.725-.227.276-.07.555-.128.834-.172.16-.017.322-.02.483-.009.368.007.736.027 1.104.024.2 0 .405-.03.563-.182.078-.076.149-.158.231-.23.168-.141.342-.275.51-.415a.144.144 0 00.047-.096c0-.27-.004-.54-.008-.809-.006-.41-.015-.82-.017-1.231a.374.374 0 00-.087-.238c-.113-.148-.263-.254-.406-.368-.185-.147-.376-.288-.551-.446a12.85 12.85 0 01-.72-.695 2.176 2.176 0 01-.45-.696.688.688 0 01-.036-.125c-.029-.157.048-.227.19-.263.157-.033.32-.036.479-.008.33.046.654.118.973.214.342.094.673.224.987.39.116.059.234.111.355.158a.176.176 0 00.19-.027 1.6 1.6 0 01.564-.313c.114-.034.231-.06.35-.076.116-.017.234-.018.35-.033a.092.092 0 00.06-.052c.205-.509.454-.998.744-1.462.14-.219.305-.42.553-.526l.094-.044.234-.007zm-.892 6.788c.003-.146.003-.145-.108-.157a32.648 32.648 0 01-.522-.05c-.04-.003-.055.012-.063.05-.027.147-.055.295-.086.442-.052.247-.1.497-.161.742-.06.236-.128.47-.205.7-.11.328-.22.658-.348.979a11.813 11.813 0 01-.76 1.559c-.028.049-.013.068.03.088.076.035.15.073.226.11.238.119.477.236.715.356.033.017.052.024.07-.02.132-.316.27-.624.394-.94.088-.226.159-.46.23-.692.052-.168.094-.34.138-.51.035-.138.066-.277.099-.415.027-.12.055-.24.079-.36.03-.145.055-.29.08-.436.025-.146.052-.3.074-.451.027-.197.05-.394.073-.591.015-.144.032-.291.045-.404zm-5.195 16.388v-.07a4.017 4.017 0 01.056-1.006c.043-.235.067-.473.087-.713.036-.408-.044-.806-.128-1.202a9.09 9.09 0 00-.208-.804c-.052-.165-.078-.214-.242-.16h-.014c-.176.04-.332.115-.432.274a.94.94 0 00-.122.464c-.008.175-.007.35 0 .526.008.21.027.416.043.623.014.172.032.343.048.514.012.14.02.28.036.42.026.234.052.467.086.7.005.094.04.185.1.258.193.21.437.195.69.176zm1.993-8.805c.105-.118.209-.229.313-.343.156-.177.313-.358.465-.537.028-.031.035-.052-.013-.075a50.434 50.434 0 01-1.01-.525c-.049-.027-.07-.014-.1.022-.11.131-.221.261-.334.39-.08.093-.164.184-.25.28.284.292.595.556.93.788zm4.123-9.902a.268.268 0 00-.086-.203c-.163-.17-.374-.237-.598-.27a.081.081 0 00-.098.072.077.077 0 00.007.045.622.622 0 00.123.223c.148.154.346.21.552.232.09.01.1-.005.1-.099z" fill="#003468"/></svg>