<svg width="26" height="31" viewBox="0 0 26 31" fill="none" xmlns="http://www.w3.org/2000/svg">
<path d="M1.79516 28.9609L3.33081 30.8562H2.24799L0.869707 29.1807V30.8562H0V27.2849H0.869707V28.9031H0.879605L1.97389 27.2849H2.92488L1.79516 28.9609Z" fill="#003468"/>
<path d="M5.78247 28.1439L6.34212 29.5261H5.27389L5.78247 28.1439ZM6.27074 27.2849H5.26869L3.8706 30.8562H4.78563L5.04618 30.1496H6.5959L6.88041 30.8562H7.81108L6.27074 27.2849Z" fill="#003468"/>
<path d="M12.2842 30.8562H11.5625L9.64485 28.6481V30.8562H8.78454V27.2849H9.57294L11.4291 29.3878V27.2849H12.2831L12.2842 30.8562Z" fill="#003468"/>
<path d="M16.8985 28.3064L16.8428 28.2801C16.4573 28.0907 16.0354 27.9888 15.6068 27.9814C14.8288 27.9814 14.3405 28.411 14.3405 29.1023C14.3405 29.7201 14.8189 30.1596 15.4869 30.1596C15.7 30.1593 15.9108 30.1166 16.1075 30.0339V29.6133H15.6088V28.9483H16.9871V30.4204C16.6416 30.719 16.0867 30.9025 15.5025 30.9025C14.2967 30.9025 13.4427 30.1428 13.4427 29.0697C13.4427 27.9751 14.2868 27.2365 15.5375 27.2365C15.8398 27.2362 16.1409 27.2767 16.4327 27.3569C16.5939 27.4 16.7509 27.4579 16.9017 27.5298L16.8985 28.3064Z" fill="#003468"/>
<path d="M21.2582 29.0966C21.2582 29.7275 20.8007 30.1807 20.1697 30.1807C19.5136 30.1807 19.0712 29.7406 19.0712 29.0913C19.0712 28.4215 19.4985 27.9973 20.1598 27.9973C20.8309 27.9994 21.2634 28.4268 21.2582 29.0966ZM22.1529 29.0761C22.1529 28.0393 21.2832 27.236 20.165 27.236C19.0467 27.236 18.1765 28.0377 18.1765 29.0761C18.1765 30.1018 19.041 30.9035 20.1499 30.9035C21.2832 30.9035 22.1529 30.1123 22.1529 29.0761Z" fill="#003468"/>
<path d="M25.9984 30.8562H23.3539V27.2849H24.2283V30.1911H26L25.9984 30.8562Z" fill="#003468"/>
<path d="M2.07936 21.447C1.74884 21.4472 1.42568 21.3485 1.15075 21.1634C0.875818 20.9784 0.661467 20.7152 0.534792 20.4072C0.408118 20.0992 0.374807 19.7602 0.439086 19.4331C0.503364 19.106 0.662337 18.8055 0.895903 18.5695C1.12947 18.3336 1.42715 18.1728 1.75127 18.1075C2.0754 18.0423 2.41143 18.0755 2.71686 18.2029C3.0223 18.3303 3.28343 18.5462 3.46723 18.8234C3.65103 19.1005 3.74923 19.4265 3.74944 19.7599C3.74916 20.2069 3.57319 20.6356 3.2601 20.9518C2.94702 21.2681 2.5224 21.4462 2.07936 21.447ZM2.07936 18.2716C1.7873 18.2714 1.50174 18.3586 1.25881 18.5221C1.01588 18.6857 0.826504 18.9183 0.714642 19.1905C0.602779 19.4627 0.573457 19.7623 0.630385 20.0513C0.687313 20.3403 0.827926 20.6058 1.03444 20.8141C1.24096 21.0225 1.50411 21.1644 1.79057 21.2218C2.07703 21.2793 2.37394 21.2497 2.64373 21.1368C2.91352 21.024 3.14406 20.8329 3.30619 20.5878C3.46833 20.3427 3.55476 20.0546 3.55455 19.7599C3.55372 19.3656 3.39799 18.9877 3.12147 18.709C2.84495 18.4303 2.47021 18.2736 2.07936 18.2731V18.2716Z" fill="#003468"/>
<path d="M1.95058 18.7391C2.31535 18.7391 2.54566 18.9388 2.54566 19.2595C2.5505 19.3588 2.52372 19.457 2.46924 19.5398C2.41476 19.6225 2.33544 19.6856 2.24291 19.7196C2.30317 19.7584 2.3561 19.8077 2.39923 19.8652C2.49369 19.9791 2.57645 20.1024 2.64623 20.2332C2.70772 20.3384 2.75827 20.4157 2.7984 20.4709L2.87811 20.5834L2.89427 20.6049H2.5837L2.56546 20.5807L2.50137 20.4814C2.49094 20.463 2.46958 20.4288 2.43988 20.3831C2.37318 20.2711 2.30491 20.1638 2.26635 20.107C2.20534 20.0072 2.1282 19.9183 2.03812 19.8442C1.97716 19.7979 1.93756 19.7916 1.82083 19.7916H1.75152V20.6044H1.49411V18.737L1.95058 18.7391ZM1.75361 19.5555H1.85418C1.91637 19.5566 1.97856 19.5529 2.04021 19.5445C2.09788 19.5344 2.15113 19.5068 2.19288 19.4655C2.23464 19.4241 2.2629 19.3708 2.27394 19.3128C2.28497 19.2548 2.27824 19.1948 2.25464 19.1408C2.23104 19.0868 2.19168 19.0413 2.14182 19.0103C2.07512 18.9777 1.99279 18.9667 1.83334 18.9667H1.75361V19.5555Z" fill="#003468"/>
<path fill-rule="evenodd" clip-rule="evenodd" d="M23.919 0C24.0125 0.101617 24.0804 0.224402 24.117 0.358025C24.1608 0.536251 24.2014 0.717629 24.1738 0.902164C24.1332 1.1745 24.0878 1.44683 24.0347 1.71706C23.9961 1.91526 23.9383 2.11031 23.895 2.30799C23.8518 2.50567 23.8137 2.69494 23.783 2.89051C23.7757 2.92526 23.778 2.96135 23.7896 2.99488C23.8011 3.02842 23.8216 3.05814 23.8486 3.08083C23.9155 3.13214 23.9784 3.18856 24.0367 3.24959C24.1774 3.40521 24.3148 3.56293 24.4489 3.72276C24.6667 3.98563 24.8814 4.24849 25.0956 4.51557C25.3478 4.82716 25.5991 5.13998 25.8496 5.45402C25.9336 5.56746 25.9793 5.70513 25.9799 5.84674C25.987 6.0235 25.9801 6.20054 25.959 6.37616C25.9401 6.49459 25.9091 6.61071 25.8663 6.72263C25.8494 6.77339 25.82 6.81898 25.7808 6.85511C25.6196 7.00323 25.4156 7.09535 25.1988 7.11798C24.9737 7.13953 24.8074 7.02282 24.6777 6.84933C24.5552 6.6737 24.3827 6.5397 24.1832 6.46501C24.0696 6.42453 23.9846 6.47868 23.9779 6.59855C23.957 6.97077 23.9398 7.34352 23.9112 7.71574C23.8903 7.98387 23.8591 8.25095 23.8226 8.5175C23.7918 8.74251 23.7486 8.96595 23.7085 9.18992C23.6683 9.41388 23.6282 9.63627 23.5808 9.85813C23.5401 10.049 23.4891 10.2377 23.4411 10.4275C23.3984 10.5979 23.3557 10.7682 23.3088 10.9375C23.2567 11.1273 23.1988 11.3165 23.141 11.5053C23.0889 11.6777 23.0316 11.8491 22.9769 12.021C22.9612 12.0699 22.9873 12.0952 23.0253 12.1204C23.2186 12.2476 23.412 12.3743 23.6022 12.5063C23.7836 12.6407 23.9236 12.8243 24.006 13.0357C24.0787 13.2109 24.141 13.3903 24.1925 13.573C24.2478 13.7575 24.2895 13.9463 24.3353 14.134C24.3968 14.3848 24.2514 14.6634 24.0008 14.7974C23.7501 14.9315 23.5756 14.8048 23.4573 14.584L23.3656 14.4089L23.3401 14.4142C23.3401 14.4878 23.3401 14.5614 23.3401 14.635C23.3401 15.0467 23.1316 15.3279 22.782 15.5146C22.735 15.54 22.6824 15.553 22.6291 15.5524C22.5758 15.5517 22.5235 15.5375 22.4771 15.5109C22.3614 15.4503 22.2628 15.3611 22.1905 15.2517C22.1139 15.1381 22.1473 15.0256 22.1905 14.9121C22.22 14.8383 22.2458 14.763 22.2676 14.6865C22.28 14.6344 22.2809 14.5802 22.27 14.5278C22.2592 14.4753 22.2371 14.426 22.2051 14.3832C22.1082 14.2399 21.9843 14.1174 21.8404 14.0225C21.6788 13.9174 21.5986 13.9552 21.5194 14.1277C21.4224 14.3416 21.3542 14.5688 21.2718 14.7901C21.1676 15.0719 21.0665 15.3558 20.9556 15.6355C20.8446 15.9152 20.7252 16.2017 20.6017 16.4809C20.4176 16.9103 20.1728 17.3105 19.8748 17.669C19.7966 17.761 19.7049 17.8431 19.6361 17.9414C19.5964 18.0034 19.5734 18.0748 19.5694 18.1485C19.5253 18.6881 19.5079 19.2296 19.5173 19.7709C19.5236 20.0443 19.5403 20.3182 19.5622 20.5906C19.5886 20.9239 19.6217 21.2569 19.6617 21.5895C19.676 21.6702 19.7042 21.7478 19.7451 21.8187C19.7659 21.8627 19.7995 21.8993 19.8413 21.9237C19.8832 21.948 19.9314 21.9591 19.9796 21.9554C20.4735 21.9507 20.9696 21.9501 21.461 21.9496C21.6804 21.9496 21.8998 21.9454 22.1186 21.9554C22.375 21.9675 22.6324 21.9796 22.8862 22.0159C23.1782 22.0487 23.458 22.1518 23.7022 22.3166C23.8695 22.4364 24.0149 22.5842 24.0597 22.7929C24.1149 23.0621 24.0748 23.2424 23.7955 23.3938C23.5597 23.5154 23.299 23.5798 23.0342 23.582C22.869 23.5873 22.7038 23.582 22.5386 23.582C22.5355 23.5904 22.5324 23.5989 22.5298 23.6078C22.573 23.6604 22.6173 23.7129 22.66 23.7655C22.7981 23.938 22.8685 24.1335 22.8164 24.3538C22.7967 24.4367 22.7597 24.5144 22.7078 24.5817C22.6559 24.6489 22.5905 24.7043 22.5157 24.7439C22.4064 24.806 22.2826 24.8378 22.1572 24.8359C21.449 24.8396 20.7403 24.8407 20.0322 24.8438C19.8326 24.8438 19.633 24.8517 19.4335 24.8533C18.4955 24.861 17.5587 24.868 16.6232 24.8743C16.3522 24.8743 16.1297 24.7523 15.9322 24.5752C15.7097 24.3728 15.5458 24.1133 15.4581 23.8244C15.4349 23.7386 15.4218 23.6504 15.419 23.5615C15.3974 23.272 15.3789 22.982 15.3632 22.6914C15.3544 22.5363 15.3544 22.3807 15.345 22.2256C15.321 21.8339 15.3002 21.4418 15.2668 21.0506C15.2475 20.7944 15.2148 20.5394 15.1689 20.2867C15.1265 20.0729 15.043 19.8696 14.9229 19.6884C14.911 19.6675 14.8935 19.6505 14.8723 19.6393C14.8512 19.6282 14.8273 19.6233 14.8036 19.6253C14.6639 19.6253 14.5243 19.6253 14.3867 19.6185C14.1782 19.6055 13.974 19.5529 13.7848 19.4634C13.7729 19.4587 13.76 19.4567 13.7472 19.4578C13.7344 19.4588 13.722 19.4627 13.7108 19.4692C13.405 19.7005 13.1012 19.9345 12.7969 20.1679C12.4373 20.4434 12.0788 20.721 11.7166 20.9938C11.3951 21.2362 11.0773 21.4838 10.7453 21.7114C10.2805 22.0295 9.81102 22.3423 9.33162 22.6357C8.99864 22.8402 8.65159 23.0248 8.29986 23.1951C7.95802 23.3612 7.60421 23.5047 7.25039 23.6446C6.94607 23.765 6.63603 23.8712 6.32494 23.9737C6.07325 24.0573 5.81687 24.1272 5.56206 24.2014C5.31819 24.2718 5.07485 24.3444 4.82941 24.4069C4.59545 24.4674 4.36043 24.5168 4.12281 24.5694C3.89823 24.6188 3.67416 24.6745 3.4454 24.7129C3.19267 24.7555 2.93733 24.7907 2.682 24.8112C2.3855 24.8359 2.08692 24.8517 1.78938 24.8517C1.51535 24.8595 1.24116 24.844 0.969705 24.8054C0.653404 24.7529 0.362634 24.6146 0.171915 24.3323C0.00204008 24.0825 0.0442544 23.7876 0.347528 23.6488C0.524059 23.5693 0.706692 23.5045 0.893628 23.4548C1.1401 23.3859 1.39178 23.3328 1.6419 23.2776C1.81491 23.2398 1.99051 23.213 2.16299 23.1751C2.35736 23.132 2.54965 23.0821 2.74245 23.0353C2.92639 22.9906 3.11085 22.9485 3.29375 22.9001C3.49976 22.8458 3.70472 22.7889 3.90864 22.7293C4.11968 22.6672 4.33125 22.6057 4.53969 22.5358C4.76636 22.4606 4.9946 22.3854 5.2171 22.2934C5.54174 22.1573 5.86481 22.0159 6.18059 21.8597C6.66686 21.6175 7.133 21.3362 7.57451 21.0185C8.07002 20.6695 8.52608 20.2666 8.93454 19.8172C9.26675 19.4526 9.53497 19.0336 9.72765 18.578C9.85063 18.2831 9.95537 17.9803 10.0533 17.6759C10.1122 17.4929 10.1435 17.301 10.1862 17.1128C10.2237 16.9482 10.2612 16.7837 10.2951 16.6181C10.3316 16.443 10.3639 16.2669 10.3993 16.0924C10.4269 15.9504 10.4551 15.8079 10.4822 15.6654C10.5056 15.5398 10.5265 15.4131 10.5504 15.2869C10.5765 15.1518 10.6025 15.0172 10.6312 14.8821C10.6552 14.7638 10.6786 14.645 10.7047 14.5267C10.7391 14.369 10.774 14.2113 10.8125 14.0535C10.8548 13.8827 10.8985 13.7123 10.9454 13.543C10.9975 13.3601 11.0455 13.175 11.107 12.9963C11.1909 12.7502 11.2789 12.5052 11.3785 12.2655C11.5445 11.8635 11.741 11.4751 11.9662 11.1036C12.2431 10.6456 12.5629 10.2155 12.9214 9.81923C13.24 9.46454 13.5916 9.14149 13.9714 8.8545C14.462 8.48392 15.0015 8.18433 15.5743 7.96442C15.8114 7.8747 16.0534 7.79871 16.2991 7.73678C16.5748 7.66633 16.8541 7.6085 17.1328 7.56486C17.2935 7.54837 17.4553 7.54555 17.6164 7.55644C17.9843 7.56275 18.3517 7.58274 18.7195 7.58011C18.9207 7.58011 19.125 7.55066 19.2829 7.3982C19.361 7.32249 19.4319 7.24048 19.5142 7.16845C19.6815 7.02703 19.856 6.89349 20.0244 6.75312C20.0515 6.72828 20.0681 6.69381 20.0707 6.65691C20.0707 6.38721 20.0666 6.1175 20.0629 5.84832C20.0572 5.43772 20.0478 5.02764 20.0457 4.61704C20.0453 4.53006 20.0147 4.44599 19.9592 4.3794C19.8456 4.23115 19.6961 4.12495 19.5528 4.01139C19.3683 3.86365 19.1771 3.72328 19.002 3.56503C18.755 3.3416 18.5116 3.11185 18.2829 2.87001C18.0895 2.66958 17.9363 2.43342 17.8316 2.17446C17.8157 2.134 17.8037 2.0921 17.7957 2.04933C17.7675 1.89161 17.8436 1.82169 17.9853 1.78646C18.1432 1.75325 18.3058 1.75022 18.4647 1.77752C18.7941 1.82424 19.1195 1.89594 19.4381 1.99202C19.7801 2.08563 20.1111 2.21643 20.4251 2.38212C20.5406 2.44081 20.659 2.49345 20.7799 2.53984C20.8108 2.55405 20.8451 2.55903 20.8787 2.55418C20.9124 2.54934 20.9439 2.53487 20.9696 2.5125C21.1349 2.37102 21.3269 2.26479 21.534 2.20022C21.6485 2.16642 21.7654 2.14094 21.8836 2.12398C21.9998 2.10663 22.1181 2.10558 22.2343 2.09139C22.2475 2.08765 22.2598 2.08099 22.2701 2.0719C22.2805 2.06281 22.2887 2.0515 22.2942 2.03881C22.499 1.53034 22.7478 1.04109 23.0378 0.576734C23.1785 0.358027 23.3432 0.156143 23.5912 0.0509952C23.623 0.0373259 23.6537 0.0215497 23.685 0.0073547L23.919 0ZM23.0269 6.78835C23.03 6.64166 23.03 6.64272 22.9185 6.63062C22.7448 6.61555 22.5711 6.59908 22.3974 6.5812C22.3573 6.57752 22.3416 6.5933 22.3343 6.63115C22.3067 6.77836 22.2786 6.92608 22.2479 7.07277C22.1957 7.32039 22.1483 7.5696 22.0868 7.81512C22.0269 8.05065 21.9586 8.28459 21.882 8.51486C21.7726 8.84345 21.6627 9.17257 21.5345 9.4938C21.3196 10.0316 21.0657 10.5526 20.7747 11.0526C20.7461 11.102 20.7607 11.121 20.8034 11.1409C20.8795 11.1762 20.9545 11.2145 21.0295 11.2519C21.2682 11.3696 21.5069 11.4869 21.745 11.6067C21.7783 11.6236 21.7971 11.6309 21.8159 11.5868C21.9467 11.2713 22.0858 10.9632 22.2088 10.6467C22.2968 10.4207 22.3677 10.1872 22.4391 9.95487C22.4912 9.78664 22.5329 9.61525 22.5767 9.44491C22.6116 9.30716 22.6434 9.16836 22.6757 9.03009C22.7033 8.91022 22.7309 8.79036 22.7549 8.66944C22.7841 8.52486 22.8096 8.37976 22.8346 8.23413C22.8596 8.0885 22.8867 7.93393 22.9086 7.78304C22.9357 7.58641 22.9581 7.38874 22.9815 7.19158C22.9972 7.04753 23.0139 6.90085 23.0269 6.78835ZM17.8316 23.1762C17.8316 23.1483 17.8316 23.1267 17.8316 23.1057C17.8081 22.7694 17.827 22.4315 17.8879 22.1C17.9306 21.865 17.9546 21.6268 17.9754 21.3871C18.0109 20.9791 17.9306 20.5806 17.8472 20.1852C17.7904 19.9145 17.7201 19.6458 17.6388 19.3814C17.5867 19.2158 17.5607 19.1674 17.397 19.2205C17.3923 19.2208 17.3876 19.2208 17.383 19.2205C17.2068 19.2605 17.0505 19.3362 16.9505 19.4949C16.8705 19.6363 16.8287 19.7964 16.829 19.9592C16.8207 20.1337 16.8217 20.3088 16.829 20.4849C16.8374 20.6952 16.8556 20.9008 16.8718 21.1084C16.8858 21.2798 16.9041 21.4507 16.9197 21.6221C16.9322 21.7619 16.9406 21.9023 16.9557 22.0427C16.9817 22.2761 17.0078 22.5095 17.0416 22.7419C17.0467 22.8364 17.0816 22.9269 17.1412 23C17.335 23.2098 17.5794 23.1951 17.8316 23.1762ZM19.8253 14.3711C19.9295 14.2533 20.0337 14.1424 20.138 14.0283C20.2943 13.8506 20.4506 13.6703 20.6033 13.4915C20.6309 13.4595 20.6382 13.439 20.5903 13.4163C20.2526 13.2439 19.9128 13.0699 19.5804 12.8906C19.5314 12.8643 19.5106 12.8769 19.4803 12.9127C19.3702 13.0441 19.2587 13.1745 19.1458 13.3038C19.0656 13.3964 18.9822 13.4868 18.8952 13.583C19.1797 13.8749 19.4912 14.1388 19.8253 14.3711ZM23.9482 4.4693C23.9492 4.43115 23.942 4.39322 23.9272 4.35811C23.9123 4.323 23.8902 4.29153 23.8622 4.26584C23.6986 4.09655 23.488 4.02926 23.264 3.99666C23.2491 3.99351 23.2336 3.99463 23.2192 3.99989C23.2049 4.00514 23.1924 4.01432 23.1829 4.0264C23.1735 4.03848 23.1676 4.05297 23.1659 4.06824C23.1642 4.08352 23.1668 4.09897 23.1733 4.11286C23.1984 4.19491 23.2401 4.27081 23.2958 4.33577C23.4443 4.49034 23.6418 4.54607 23.8476 4.56762C23.9372 4.57761 23.9482 4.56289 23.9482 4.4693Z" fill="#003468"/>
</svg>
