<svg width="26" height="20" viewBox="0 0 26 20" fill="none" xmlns="http://www.w3.org/2000/svg">
<path d="M4.68114 19.8865V18.5625C4.6889 18.4512 4.67284 18.3394 4.63401 18.2348C4.59519 18.1301 4.53449 18.0349 4.45598 17.9556C4.37747 17.8762 4.28294 17.8146 4.1787 17.7746C4.07446 17.7347 3.96291 17.7174 3.85148 17.724C3.70564 17.7145 3.55992 17.7443 3.42952 17.8103C3.29912 17.8763 3.1888 17.976 3.11006 18.0991C3.0383 17.9797 2.93567 17.8818 2.81295 17.8158C2.69024 17.7498 2.55199 17.7181 2.41278 17.724C2.29142 17.7179 2.17058 17.7436 2.06221 17.7986C1.95384 17.8536 1.86171 17.9359 1.79493 18.0374V17.777H1.33594V19.8865H1.79932V18.717C1.7893 18.6448 1.79539 18.5713 1.81715 18.5018C1.8389 18.4323 1.87579 18.3684 1.92515 18.3148C1.97452 18.2612 2.03514 18.2193 2.10266 18.1919C2.17018 18.1645 2.24293 18.1524 2.31567 18.1565C2.62018 18.1565 2.77466 18.3551 2.77466 18.7126V19.8865H3.23805V18.717C3.22878 18.645 3.23539 18.5718 3.25743 18.5026C3.27946 18.4334 3.31638 18.3698 3.36559 18.3164C3.4148 18.263 3.47511 18.221 3.54228 18.1934C3.60944 18.1658 3.68184 18.1532 3.75439 18.1565C4.06771 18.1565 4.21775 18.3551 4.21775 18.7126V19.8865H4.68114ZM11.5392 17.777H10.789V17.1371H10.3256V17.777H9.89753V18.1962H10.3256V19.1583C10.3256 19.6482 10.5154 19.9395 11.0582 19.9395C11.261 19.9401 11.4598 19.8835 11.6319 19.7762L11.4995 19.3834C11.3765 19.4568 11.2368 19.4978 11.0935 19.5026C10.864 19.5026 10.789 19.3613 10.789 19.1495V18.1962H11.5392V17.777ZM15.4537 17.724C15.3418 17.7207 15.2311 17.7477 15.1333 17.8021C15.0354 17.8564 14.954 17.9362 14.8977 18.033V17.777H14.4431V19.8865H14.9021V18.7037C14.9021 18.3551 15.0521 18.1609 15.3523 18.1609C15.4504 18.1596 15.5479 18.1776 15.6391 18.2139L15.7803 17.7814C15.6755 17.7439 15.5651 17.7245 15.4537 17.724ZM9.53567 17.9447C9.27587 17.7902 8.97716 17.7136 8.67509 17.724C8.14109 17.724 7.79688 17.98 7.79688 18.3992C7.79688 18.7435 8.05283 18.9553 8.52501 19.0215L8.74127 19.0524C8.99281 19.0877 9.11199 19.1539 9.11199 19.273C9.11199 19.4363 8.94426 19.529 8.63095 19.529C8.37891 19.5363 8.13176 19.4586 7.92924 19.3083L7.71301 19.6658C7.98035 19.8525 8.30058 19.9485 8.62654 19.9395C9.23555 19.9395 9.58859 19.6526 9.58859 19.251C9.58859 18.8803 9.31059 18.6861 8.85162 18.6199L8.63539 18.589C8.43677 18.5625 8.27791 18.5228 8.27791 18.3816C8.27791 18.2271 8.42791 18.1345 8.6795 18.1345C8.9105 18.1379 9.13681 18.2002 9.33707 18.3154L9.53567 17.9447ZM21.8308 17.724C21.7189 17.7207 21.6082 17.7477 21.5103 17.8021C21.4124 17.8564 21.3311 17.9362 21.2747 18.033V17.777H20.8202V19.8865H21.2791V18.7037C21.2791 18.3551 21.4292 18.1609 21.7293 18.1609C21.8275 18.1596 21.925 18.1776 22.0162 18.2139L22.1574 17.7814C22.0526 17.7439 21.9421 17.7245 21.8308 17.724ZM15.9171 18.8317C15.911 18.9803 15.9361 19.1286 15.9907 19.2669C16.0454 19.4052 16.1283 19.5306 16.2344 19.635C16.3404 19.7393 16.467 19.8203 16.6062 19.8727C16.7454 19.9252 16.894 19.9479 17.0425 19.9395C17.3181 19.9533 17.5888 19.8636 17.8016 19.6879L17.5809 19.3172C17.4222 19.4381 17.2288 19.5047 17.0293 19.5069C16.8573 19.4965 16.6957 19.4208 16.5776 19.2953C16.4595 19.1699 16.3938 19.004 16.3938 18.8317C16.3938 18.6594 16.4595 18.4936 16.5776 18.3681C16.6957 18.2426 16.8573 18.167 17.0293 18.1565C17.2288 18.1588 17.4222 18.2253 17.5809 18.3463L17.8016 17.9756C17.5888 17.7999 17.3181 17.7102 17.0425 17.724C16.894 17.7156 16.7454 17.7383 16.6062 17.7908C16.4671 17.8432 16.3404 17.9242 16.2344 18.0285C16.1284 18.1328 16.0454 18.2582 15.9907 18.3965C15.9361 18.5349 15.911 18.6831 15.9171 18.8317ZM20.2156 18.8317V17.777H19.7566V18.033C19.6783 17.932 19.5769 17.8513 19.4609 17.7975C19.345 17.7438 19.2179 17.7186 19.0902 17.724C18.8058 17.738 18.5377 17.8608 18.3413 18.067C18.145 18.2732 18.0355 18.547 18.0355 18.8318C18.0355 19.1165 18.145 19.3903 18.3413 19.5965C18.5377 19.8027 18.8058 19.9255 19.0902 19.9395C19.2179 19.9449 19.345 19.9197 19.4609 19.866C19.5769 19.8122 19.6783 19.7315 19.7566 19.6305V19.8865H20.2156V18.8317ZM18.5077 18.8317C18.5148 18.7072 18.5582 18.5875 18.6325 18.4874C18.7068 18.3873 18.8088 18.3112 18.9259 18.2683C19.043 18.2255 19.1701 18.2178 19.2915 18.2464C19.4128 18.2749 19.5232 18.3383 19.609 18.4288C19.6948 18.5193 19.7522 18.6329 19.7741 18.7557C19.7961 18.8784 19.7817 19.0049 19.7326 19.1195C19.6836 19.2341 19.602 19.3319 19.4981 19.4007C19.3941 19.4696 19.2723 19.5065 19.1476 19.5069C19.0602 19.5081 18.9735 19.4912 18.893 19.4572C18.8125 19.4232 18.7399 19.3729 18.6797 19.3095C18.6196 19.2461 18.5733 19.1709 18.5437 19.0886C18.514 19.0064 18.5018 18.9189 18.5077 18.8317ZM12.9691 17.724C12.6829 17.7391 12.4136 17.8644 12.2178 18.0737C12.022 18.283 11.9149 18.56 11.9189 18.8466C11.9229 19.1332 12.0377 19.4071 12.2393 19.6109C12.4408 19.8146 12.7135 19.9324 13 19.9395C13.3149 19.9505 13.6228 19.8453 13.865 19.6437L13.6399 19.304C13.4656 19.4436 13.2498 19.5213 13.0265 19.5246C12.8748 19.5374 12.7242 19.4906 12.6064 19.3942C12.4886 19.2978 12.4129 19.1594 12.3954 19.0082H13.9621C13.9665 18.9509 13.9709 18.8935 13.9709 18.8317C13.9665 18.1742 13.5605 17.724 12.9691 17.724ZM12.9603 18.1345C13.0989 18.1318 13.233 18.1841 13.3331 18.2801C13.4332 18.376 13.4911 18.5078 13.4943 18.6464H12.3998C12.4079 18.5048 12.471 18.3719 12.5758 18.2762C12.6805 18.1806 12.8185 18.1297 12.9603 18.1345ZM24.4743 18.8317V16.9297H24.0153V18.033C23.937 17.932 23.8356 17.8513 23.7197 17.7975C23.6037 17.7438 23.4766 17.7186 23.3489 17.724C23.0645 17.738 22.7964 17.8608 22.6 18.067C22.4037 18.2732 22.2942 18.547 22.2942 18.8318C22.2942 19.1165 22.4037 19.3903 22.6 19.5965C22.7964 19.8028 23.0645 19.9255 23.3489 19.9395C23.4766 19.9449 23.6037 19.9197 23.7197 19.866C23.8356 19.8122 23.937 19.7315 24.0153 19.6305V19.8865H24.4743V18.8317ZM25.2394 19.5808C25.2679 19.5806 25.2961 19.5862 25.3224 19.5973C25.3477 19.6078 25.3707 19.623 25.3903 19.6422C25.4097 19.6613 25.4252 19.684 25.436 19.709C25.447 19.7347 25.4527 19.7624 25.4527 19.7903C25.4527 19.8183 25.447 19.846 25.436 19.8717C25.4251 19.8966 25.4096 19.9192 25.3903 19.9382C25.3707 19.9574 25.3476 19.9727 25.3224 19.9834C25.2962 19.9946 25.2679 20.0003 25.2394 20.0001C25.1974 20.0006 25.1562 19.9886 25.121 19.9658C25.0858 19.9429 25.058 19.9102 25.0413 19.8717C25.0303 19.846 25.0246 19.8183 25.0246 19.7903C25.0246 19.7624 25.0303 19.7347 25.0413 19.709C25.0521 19.684 25.0675 19.6614 25.0868 19.6422C25.1063 19.6229 25.1295 19.6076 25.1549 19.5973C25.1817 19.5862 25.2104 19.5806 25.2394 19.5808ZM25.2394 19.9539C25.2611 19.9541 25.2827 19.9497 25.3026 19.941C25.3218 19.9327 25.3392 19.9209 25.354 19.9061C25.3845 19.8753 25.4016 19.8338 25.4016 19.7904C25.4016 19.7471 25.3845 19.7056 25.354 19.6748C25.3393 19.6601 25.3218 19.6483 25.3026 19.6402C25.2826 19.6317 25.2611 19.6274 25.2394 19.6276C25.2173 19.6274 25.1953 19.6317 25.1749 19.6402C25.1554 19.6482 25.1377 19.66 25.1228 19.6748C25.0923 19.7056 25.0752 19.7471 25.0752 19.7904C25.0752 19.8338 25.0923 19.8753 25.1228 19.9061C25.1377 19.921 25.1554 19.9328 25.1749 19.941C25.1953 19.9497 25.2172 19.954 25.2394 19.9539ZM25.2517 19.6923C25.2724 19.6909 25.2928 19.6969 25.3096 19.709C25.3162 19.7145 25.3215 19.7215 25.3251 19.7294C25.3286 19.7373 25.3302 19.7459 25.3299 19.7545C25.3301 19.7619 25.3288 19.7693 25.326 19.7761C25.3232 19.783 25.319 19.7891 25.3137 19.7943C25.3009 19.8056 25.2847 19.8124 25.2677 19.8136L25.3314 19.8871H25.2816L25.2225 19.8141H25.2034V19.8871H25.1618V19.6923H25.2517ZM25.2034 19.7288V19.7807H25.2512C25.2604 19.7812 25.2695 19.7789 25.2775 19.7742C25.2807 19.7721 25.2833 19.7691 25.285 19.7657C25.2867 19.7622 25.2875 19.7583 25.2872 19.7545C25.2874 19.7507 25.2866 19.7469 25.2849 19.7435C25.2832 19.7401 25.2806 19.7373 25.2775 19.7352C25.2695 19.7306 25.2604 19.7283 25.2512 19.7288H25.2034ZM22.7664 18.8317C22.7735 18.7072 22.8169 18.5876 22.8913 18.4875C22.9656 18.3874 23.0676 18.3112 23.1847 18.2684C23.3018 18.2255 23.4288 18.2179 23.5502 18.2464C23.6716 18.275 23.782 18.3384 23.8677 18.4289C23.9535 18.5194 24.0109 18.633 24.0328 18.7557C24.0548 18.8784 24.0404 19.0049 23.9913 19.1195C23.9422 19.2342 23.8607 19.3319 23.7568 19.4008C23.6528 19.4696 23.531 19.5065 23.4063 19.5069C23.3189 19.5081 23.2322 19.4912 23.1517 19.4572C23.0712 19.4232 22.9986 19.3729 22.9385 19.3095C22.8783 19.246 22.832 19.1708 22.8024 19.0886C22.7728 19.0064 22.7605 18.9189 22.7664 18.8317ZM7.26728 18.8317V17.777H6.80829V18.033C6.72995 17.932 6.62857 17.8513 6.51264 17.7975C6.3967 17.7438 6.26957 17.7186 6.1419 17.724C5.8575 17.738 5.58937 17.8608 5.39302 18.067C5.19668 18.2732 5.08716 18.547 5.08716 18.8318C5.08716 19.1165 5.19668 19.3903 5.39302 19.5965C5.58937 19.8027 5.8575 19.9255 6.1419 19.9395C6.26957 19.9449 6.3967 19.9197 6.51264 19.866C6.62857 19.8122 6.72995 19.7315 6.80829 19.6305V19.8865H7.26728V18.8317ZM5.55939 18.8317C5.56652 18.7072 5.60992 18.5876 5.68425 18.4875C5.75857 18.3874 5.86057 18.3112 5.97766 18.2684C6.09475 18.2255 6.22182 18.2179 6.34319 18.2464C6.46456 18.275 6.57494 18.3384 6.6607 18.4289C6.74646 18.5194 6.80386 18.633 6.82582 18.7557C6.84778 18.8785 6.83333 19.0049 6.78427 19.1195C6.73522 19.2342 6.65368 19.3319 6.54973 19.4008C6.44578 19.4696 6.32396 19.5065 6.19928 19.5069C6.11189 19.5081 6.0252 19.4912 5.94468 19.4572C5.86416 19.4232 5.79156 19.3729 5.73144 19.3095C5.67132 19.246 5.625 19.1708 5.59539 19.0886C5.56578 19.0064 5.55352 18.9189 5.55939 18.8317Z" fill="white"/>
<path d="M16.3267 1.69287H9.375V14.1853H16.3267V1.69287Z" fill="#FF5F00"/>
<path d="M9.82005 7.94483C9.81895 6.74172 10.0916 5.55413 10.6173 4.47196C11.143 3.38979 11.9081 2.4414 12.8545 1.69861C11.6825 0.777368 10.2749 0.204464 8.79269 0.0453745C7.31045 -0.113715 5.81337 0.147432 4.47254 0.798964C3.1317 1.4505 2.00123 2.46613 1.21032 3.72977C0.419422 4.99341 0 6.45408 0 7.94483C0 9.43558 0.419422 10.8963 1.21032 12.1599C2.00123 13.4235 3.1317 14.4392 4.47254 15.0907C5.81337 15.7422 7.31045 16.0034 8.79269 15.8443C10.2749 15.6852 11.6825 15.1123 12.8545 14.1911C11.9081 13.4483 11.143 12.4999 10.6173 11.4177C10.0916 10.3355 9.81896 9.14794 9.82005 7.94483Z" fill="#EB001B"/>
<path d="M25.7018 7.94483C25.7018 9.43555 25.2825 10.8962 24.4916 12.1599C23.7007 13.4235 22.5703 14.4391 21.2295 15.0907C19.8887 15.7422 18.3916 16.0034 16.9094 15.8443C15.4272 15.6852 14.0197 15.1123 12.8477 14.1911C13.7933 13.4475 14.5577 12.499 15.0833 11.417C15.609 10.335 15.8821 9.14775 15.8821 7.94483C15.8821 6.74191 15.609 5.55469 15.0833 4.47269C14.5577 3.39069 13.7933 2.44215 12.8477 1.69861C14.0197 0.777365 15.4272 0.20446 16.9094 0.0453731C18.3916 -0.113714 19.8887 0.147437 21.2295 0.798976C22.5703 1.45052 23.7007 2.46615 24.4916 3.7298C25.2825 4.99344 25.7018 6.4541 25.7018 7.94483Z" fill="#F79E1B"/>
<path d="M24.9544 12.8626V12.6068H25.0576V12.5547H24.7949V12.6068H24.8981V12.8626H24.9544ZM25.4643 12.8626V12.5542H25.3838L25.2912 12.7663L25.1986 12.5542H25.1181V12.8626H25.1749V12.63L25.2617 12.8305H25.3207L25.4075 12.6295V12.8626H25.4643Z" fill="#F79E1B"/>
</svg>
