<svg width="26" height="20" fill="none" xmlns="http://www.w3.org/2000/svg"><path d="M4.681 19.887v-1.325a.785.785 0 00-.83-.838.817.817 0 00-.74.375.775.775 0 00-.698-.375.697.697 0 00-.618.313v-.26h-.46v2.11H1.8v-1.17a.493.493 0 01.517-.56c.304 0 .459.198.459.556v1.174h.463v-1.17a.497.497 0 01.516-.56c.314 0 .464.198.464.556v1.174h.463zm6.858-2.11h-.75v-.64h-.463v.64h-.428v.42h.428v.961c0 .49.19.781.732.781.203.001.402-.055.574-.163l-.133-.393a.848.848 0 01-.405.12c-.23 0-.305-.142-.305-.354v-.953h.75v-.419zm3.915-.053a.621.621 0 00-.556.309v-.256h-.455v2.11h.46v-1.183c0-.349.15-.543.45-.543a.749.749 0 01.286.053l.141-.433a.982.982 0 00-.326-.057zm-5.918.22a1.577 1.577 0 00-.86-.22c-.535 0-.88.256-.88.675 0 .345.257.556.729.622l.216.031c.252.036.371.102.371.221 0 .163-.168.256-.481.256-.252.007-.5-.07-.702-.22l-.216.357c.267.186.588.282.914.273.609 0 .962-.286.962-.688 0-.37-.278-.565-.737-.631l-.217-.031c-.198-.026-.357-.066-.357-.207 0-.155.15-.248.402-.248.23.004.457.066.657.181l.199-.37zm12.295-.22a.622.622 0 00-.556.309v-.256h-.455v2.11h.46v-1.183c0-.349.15-.543.45-.543a.749.749 0 01.286.053l.141-.433a.983.983 0 00-.326-.057zm-5.914 1.108a1.066 1.066 0 001.126 1.107c.275.014.546-.075.759-.251l-.221-.37a.927.927 0 01-.552.189.676.676 0 010-1.35.92.92 0 01.552.19l.22-.371a1.105 1.105 0 00-.758-.252 1.066 1.066 0 00-1.126 1.108zm4.299 0v-1.055h-.46v.256a.8.8 0 00-.666-.309 1.11 1.11 0 000 2.215.801.801 0 00.667-.308v.256h.459v-1.055zm-1.708 0a.639.639 0 11.385.625.635.635 0 01-.385-.625zm-5.539-1.108A1.109 1.109 0 0013 19.939c.315.012.623-.094.865-.295l-.225-.34a1 1 0 01-.614.22.586.586 0 01-.63-.516h1.566c.005-.057.009-.114.009-.176-.005-.658-.41-1.108-1.002-1.108zm-.009.41a.524.524 0 01.534.512H12.4a.543.543 0 01.56-.512zm11.514.698V16.93h-.459v1.103a.8.8 0 00-.666-.309 1.11 1.11 0 000 2.215.802.802 0 00.666-.308v.256h.46v-1.055zm.765.749a.21.21 0 01.151.061.211.211 0 01.063.148.207.207 0 01-.13.193.213.213 0 01-.298-.193.207.207 0 01.13-.193.217.217 0 01.084-.016zm0 .373a.165.165 0 00.115-.048.164.164 0 00-.051-.266.164.164 0 00-.18.035.164.164 0 00.116.279zm.013-.262a.089.089 0 01.058.017.057.057 0 01.02.046.053.053 0 01-.016.04.078.078 0 01-.046.019l.063.073h-.05l-.058-.073h-.02v.073h-.041v-.195h.09zm-.049.037v.052h.048c.01 0 .018-.002.026-.007a.022.022 0 00.01-.02.022.022 0 00-.01-.019.048.048 0 00-.026-.006h-.048zm-2.437-.897a.638.638 0 11.64.675.632.632 0 01-.64-.675zm-15.499 0v-1.055h-.459v.256a.8.8 0 00-.666-.309 1.11 1.11 0 000 2.215.802.802 0 00.666-.308v.256h.46v-1.055zm-1.708 0a.638.638 0 11.386.625.633.633 0 01-.386-.625z" fill="#fff"/><path d="M16.327 1.693H9.375v12.492h6.952V1.693z" fill="#FF5F00"/><path d="M9.82 7.945a7.931 7.931 0 013.034-6.246 7.945 7.945 0 100 12.492A7.931 7.931 0 019.82 7.945z" fill="#EB001B"/><path d="M25.702 7.945a7.945 7.945 0 01-12.854 6.246 7.946 7.946 0 000-12.492 7.944 7.944 0 0112.854 6.246zm-.748 4.918v-.256h.104v-.052h-.263v.052h.103v.256h.056zm.51 0v-.309h-.08l-.093.212-.092-.212h-.08v.309h.056v-.233l.087.2h.059l.086-.2v.233h.057z" fill="#F79E1B"/></svg>