<svg width="23" height="22" fill="none" xmlns="http://www.w3.org/2000/svg"><path d="M3.774 21.733c-.72 0-1.334-.45-1.584-1.077a1.859 1.859 0 01-.885-.022 1.78 1.78 0 01-1.12-.899A1.79 1.79 0 01.1 18.351a1.87 1.87 0 01.42-.685 1.717 1.717 0 01-.128-1.89c.25-.436.657-.721 1.113-.821 0-.007-.007-.021-.007-.029a1.687 1.687 0 01.164-1.298c.228-.4.592-.678 1.035-.8.014-.006.035-.006.05-.013a1.7 1.7 0 01.15-1.349c.228-.4.592-.678 1.034-.799.014-.007.036-.007.05-.014a1.7 1.7 0 01.15-1.349c.25-.435.656-.72 1.113-.82 0-.007-.007-.022-.007-.029A1.687 1.687 0 015.4 7.157a1.69 1.69 0 011.034-.8c.015-.007.036-.007.05-.014a1.7 1.7 0 01.15-1.348c.228-.4.592-.678 1.035-.8.014-.006.035-.006.05-.013-.008-.015-.008-.036-.015-.05a1.687 1.687 0 01.164-1.299 1.69 1.69 0 011.035-.799c.221-.057.442-.079.663-.05a1.93 1.93 0 01.436-.878C10.337.721 10.786.5 11.243.5c.457 0 .906.221 1.242.614.213.25.363.556.428.877.214-.028.428-.014.642.043a1.687 1.687 0 011.198 2.148c.443.107.85.385 1.092.813a1.7 1.7 0 01.15 1.348c.442.107.842.386 1.084.814.229.392.286.856.164 1.298 0 .007-.007.022-.007.029.022.007.043.007.064.014a1.687 1.687 0 011.2 2.148 1.71 1.71 0 011.09.813 1.7 1.7 0 01.15 1.348 1.71 1.71 0 011.242 2.14c.021.008.043.008.064.015.45.114.828.4 1.056.8.35.613.278 1.355-.128 1.883.192.2.342.442.435.713a1.76 1.76 0 01-.136 1.42 1.78 1.78 0 01-1.141.835 1.833 1.833 0 01-.835-.007 1.64 1.64 0 01-.378.556c-.321.321-.75.5-1.206.5a1.7 1.7 0 01-1.248-.543l-.036.036c-.321.321-.75.5-1.206.5-.492 0-.935-.207-1.248-.543l-.036.036a1.697 1.697 0 01-2.412-.007l-.021-.022c-.021.022-.036.043-.057.057-.086.086-.557.521-1.227.5-.45-.014-.87-.243-1.185-.592a1.092 1.092 0 00-.085.092 1.704 1.704 0 01-2.455-.042l-.035.035c-.321.321-.75.5-1.206.5-.485 0-.92-.2-1.234-.528l-.043.043c-.314.363-.75.549-1.206.549zm-1.249-2.176c.079 0 .15.021.222.057.15.078.242.235.242.407 0 .428.364.784.785.784a.79.79 0 00.556-.235.766.766 0 00.229-.55v-.035a.463.463 0 01.928-.007v.035a.797.797 0 00.784.764.77.77 0 00.55-.228.766.766 0 00.228-.55.463.463 0 11.927 0c0 .421.357.785.785.785.207 0 .4-.078.55-.228a.766.766 0 00.228-.55c0-.242.185-.442.42-.463a.468.468 0 01.5.378c.093.485.436.856.806.87.3.007.536-.228.536-.228a.813.813 0 00.228-.557v-.035c0-.257.207-.457.457-.464.256 0 .463.2.47.45v.035a.777.777 0 001.556-.021.463.463 0 11.927 0c0 .42.357.785.785.785.207 0 .4-.079.55-.229a.766.766 0 00.228-.55.463.463 0 11.927 0c0 .422.357.786.785.786.207 0 .4-.079.55-.229a.766.766 0 00.228-.55.45.45 0 01.25-.406.462.462 0 01.477.029c.207.143.45.185.7.128a.812.812 0 00.542-.392.814.814 0 00.057-.67.888.888 0 00-.478-.536.465.465 0 01-.271-.4.48.48 0 01.228-.428.793.793 0 00.293-1.07.771.771 0 00-.485-.364.812.812 0 00-.621.086.466.466 0 11-.435-.82.789.789 0 00.27-1.056.796.796 0 00-1.07-.293.467.467 0 01-.634-.171.466.466 0 01.17-.635c.372-.214.5-.7.293-1.07a.797.797 0 00-1.07-.293.466.466 0 01-.635-.171.466.466 0 01.171-.635.793.793 0 00.293-1.07.771.771 0 00-.485-.364.812.812 0 00-.621.085.466.466 0 11-.435-.82.754.754 0 00.342-.464.778.778 0 00-.071-.592.796.796 0 00-1.07-.293.466.466 0 01-.635-.17.467.467 0 01.17-.636.796.796 0 00.293-1.07.798.798 0 00-1.07-.293.466.466 0 01-.635-.17.466.466 0 01.171-.636.793.793 0 00.293-1.07.771.771 0 00-.485-.364.804.804 0 00-.614.086.468.468 0 01-.699-.471c.043-.3-.043-.607-.235-.835-.157-.178-.357-.285-.543-.285-.185 0-.385.107-.542.285a1.032 1.032 0 00-.235.835.45.45 0 01-.2.45.47.47 0 01-.492.02l-.036-.02a.78.78 0 00-.592-.08.781.781 0 00-.186 1.428c.15.085.236.242.236.406a.466.466 0 01-.7.4.78.78 0 00-.592-.078.781.781 0 00-.178 1.434c.15.085.235.242.235.406a.466.466 0 01-.7.4.78.78 0 00-.591-.079.781.781 0 00-.185 1.427.466.466 0 01-.464.806l-.029-.014a.783.783 0 00-1.07.293.783.783 0 00.293 1.07c.15.086.235.243.235.407a.466.466 0 01-.7.4.78.78 0 00-.591-.08.781.781 0 00-.179 1.435c.15.085.236.242.236.406a.466.466 0 01-.7.4.78.78 0 00-.592-.078.78.78 0 00-.185 1.427c.221.128.3.413.171.635a.466.466 0 01-.635.17l-.036-.02a.791.791 0 00-1.07.292.791.791 0 00.293 1.07c.15.086.242.25.235.421a.466.466 0 01-.271.4.917.917 0 00-.478.527.855.855 0 00.036.664.892.892 0 001.262.321c.143.007.229-.014.314-.014z" fill="#fff"/><path d="M11.957 7.121h-.007a1.638 1.638 0 01-1.306-.72c-.414-.635-.207-1.292-.164-1.42a.46.46 0 01.592-.278.46.46 0 01.279.592.687.687 0 00.071.592c.185.285.535.3.55.3a.463.463 0 01.449.478.466.466 0 01-.464.456zm1.642 3.831h-.008a1.638 1.638 0 01-1.305-.72c-.414-.635-.207-1.292-.164-1.42a.46.46 0 01.592-.278.46.46 0 01.278.592.687.687 0 00.072.592c.185.286.535.3.549.3a.463.463 0 01.45.478.466.466 0 01-.464.456zm2.581 3.832h-.006a1.639 1.639 0 01-1.306-.721c-.414-.635-.207-1.292-.164-1.42a.46.46 0 01.592-.278.46.46 0 01.278.592.687.687 0 00.072.592c.185.286.535.3.549.3a.463.463 0 01.45.478.466.466 0 01-.464.457zm2.74 3.902h-.006a1.639 1.639 0 01-1.306-.72c-.414-.635-.207-1.292-.164-1.42a.46.46 0 01.592-.278.46.46 0 01.278.592.686.686 0 00.072.592c.185.285.535.3.55.3a.463.463 0 01.449.478.466.466 0 01-.464.456zM8.839 11.302h-.007a1.638 1.638 0 01-1.306-.72c-.414-.636-.207-1.292-.164-1.42a.46.46 0 01.592-.279.46.46 0 01.278.593.686.686 0 00.072.592c.185.285.535.3.55.3a.463.463 0 01.449.477.47.47 0 01-.464.457zm2.969 3.625H11.8a1.638 1.638 0 01-1.305-.721c-.414-.635-.207-1.291-.164-1.42a.46.46 0 01.592-.278.46.46 0 01.278.592.687.687 0 00.072.592c.185.286.535.3.549.3a.463.463 0 01.45.478.466.466 0 01-.464.457zm-5.344 0h-.007a1.638 1.638 0 01-1.306-.721c-.414-.635-.207-1.291-.164-1.42a.46.46 0 01.592-.278.46.46 0 01.278.592.687.687 0 00.072.592c.185.286.535.3.55.3a.463.463 0 01.449.478.466.466 0 01-.464.457zM4.53 18.979h-.007a1.639 1.639 0 01-1.305-.72c-.414-.636-.207-1.292-.165-1.42a.46.46 0 01.593-.279.46.46 0 01.278.592.687.687 0 00.071.592c.186.286.535.3.55.3a.463.463 0 01.45.478.466.466 0 01-.465.457zm4.631-.478h-.007a1.638 1.638 0 01-1.306-.72c-.413-.635-.207-1.292-.164-1.42a.46.46 0 01.592-.278.46.46 0 01.279.592.687.687 0 00.071.592c.186.285.535.3.55.3a.463.463 0 01.449.478.47.47 0 01-.464.456zm5.543.478h-.007a1.639 1.639 0 01-1.306-.72c-.414-.636-.207-1.292-.164-1.42a.46.46 0 01.592-.279.46.46 0 01.279.592.686.686 0 00.071.592c.185.286.535.3.55.3a.463.463 0 01.449.478.466.466 0 01-.464.457z" fill="#fff"/></svg>