<svg width="23" height="23" fill="none" xmlns="http://www.w3.org/2000/svg"><path d="M2.46 10.274c-.956 0-1.553-.24-1.823-.729-.394-.721.153-1.596.481-2.12 1.1-1.758 2.901-2.64 4.279-3.07.81-1.079 1.348-1.436 1.837-1.217.547.24.496 1.05.474 1.349a.474.474 0 11-.948-.059c.007-.087.007-.16.007-.218-.153.145-.379.393-.707.838a.47.47 0 01-.248.175c-1.239.364-2.915 1.137-3.9 2.711-.145.226-.575.926-.451 1.167.153.284 1.428.444 4.206-.314a.48.48 0 01.583.328.474.474 0 01-.328.583c-.94.255-1.823.438-2.559.525a8.154 8.154 0 01-.904.051z" fill="#fff"/><path d="M4.282 7.235a.386.386 0 100-.773.386.386 0 000 .773z" fill="#fff"/><path d="M15.215 19.379c-1.669 0-2.937-.89-3.477-1.349-1.618.882-3.564.787-4.95-.277-1.348-1.035-1.617-2.566-1.676-3.28-.568-.262-1.713-.933-2.135-2.333-.358-1.18.029-2.208.204-2.602a.471.471 0 01.627-.233c.24.11.342.394.233.627-.131.291-.416 1.057-.16 1.931.393 1.32 1.69 1.779 1.836 1.83a.48.48 0 01.328.46c0 .189.015 1.85 1.312 2.85 1.16.889 2.836.91 4.17.043a.475.475 0 01.598.066c.065.073 1.676 1.706 3.885 1.224 1.633-.357 2.47-1.618 2.69-1.997a.467.467 0 01.357-.233c1.392-.153 2.522-1.123 2.755-2.347.233-1.24-.554-2.23-.722-2.42a.475.475 0 010-.62c1-1.18 1.225-2.77.57-4.046-.708-1.4-2.188-1.778-2.48-1.836a.476.476 0 01-.378-.46 2.618 2.618 0 00-1.808-2.463 2.632 2.632 0 00-2.96 1.027.473.473 0 01-.721.073C11.695 1.476 9.355 1.017 7.489 1.87 5.557 2.76 4.9 4.654 4.748 5.208a.468.468 0 01-.583.328.468.468 0 01-.328-.583c.182-.656.955-2.886 3.258-3.943 2.07-.948 4.614-.547 6.487.976a3.584 3.584 0 013.703-.984 3.562 3.562 0 012.45 2.989c.685.211 2.048.802 2.791 2.252.773 1.51.584 3.353-.451 4.79.364.532.94 1.603.692 2.9-.299 1.568-1.655 2.807-3.353 3.084-.394.605-1.407 1.866-3.186 2.252-.357.08-.692.11-1.013.11z" fill="#fff"/><path d="M5.434 22.9a.415.415 0 01-.131-.022.471.471 0 01-.328-.583l1.48-5.183a.471.471 0 01.583-.328c.255.073.4.335.328.583l-1.48 5.183a.464.464 0 01-.452.35zm3.951-.015a.465.465 0 01-.467-.409l-.62-4.307a.481.481 0 01.402-.54.481.481 0 01.539.401l.62 4.308a.482.482 0 01-.401.54c-.03.007-.051.007-.073.007zm5.663.087a.562.562 0 01-.11-.014.465.465 0 01-.35-.569l.861-3.652a.465.465 0 01.569-.35.469.469 0 01.35.569l-.86 3.652a.467.467 0 01-.46.364zm4.446 0a.475.475 0 01-.459-.35l-1.305-4.774a.478.478 0 01.336-.583c.255-.073.51.08.583.335l1.305 4.775a.478.478 0 01-.336.583.828.828 0 01-.123.014z" fill="#fff"/></svg>