<svg width="37" height="35" viewBox="0 0 37 35" fill="none" xmlns="http://www.w3.org/2000/svg">
<path d="M6.45016 34.2103C5.29614 34.2103 4.3135 33.4905 3.91359 32.485C3.45655 32.5878 2.96523 32.5764 2.49677 32.4507C1.70837 32.2336 1.05709 31.708 0.702886 31.011C0.360107 30.3369 0.314403 29.5256 0.565774 28.7944C0.714312 28.3716 0.942832 28.006 1.23991 27.6975C0.588627 26.852 0.474367 25.6522 1.03424 24.6696C1.43415 23.9726 2.08543 23.5156 2.8167 23.3556C2.8167 23.3442 2.80527 23.3213 2.80527 23.3099C2.61103 22.6015 2.70244 21.8702 3.06807 21.2304C3.4337 20.5905 4.01643 20.1449 4.72484 19.9507C4.74769 19.9392 4.78197 19.9392 4.80482 19.9278C4.58772 19.2308 4.65628 18.4539 5.04476 17.7683C5.4104 17.1284 5.99312 16.6828 6.70153 16.4886C6.72439 16.4772 6.75866 16.4772 6.78152 16.4657C6.56442 15.7687 6.63298 14.9918 7.02146 14.3062C7.42137 13.6092 8.07265 13.1522 8.80392 12.9922C8.80392 12.9808 8.79249 12.958 8.79249 12.9465C8.59825 12.2381 8.68966 11.5069 9.05529 10.867C9.42092 10.2271 10.0036 9.78153 10.7121 9.58728C10.7349 9.57586 10.7692 9.57586 10.792 9.56443C10.5749 8.86745 10.6435 8.09048 11.032 7.40492C11.3976 6.76506 11.9803 6.31945 12.6888 6.12521C12.7116 6.11378 12.7459 6.11378 12.7687 6.10236C12.7573 6.0795 12.7573 6.04523 12.7459 6.02237C12.5516 5.31396 12.6431 4.5827 13.0087 3.94284C13.3743 3.30299 13.957 2.85737 14.6655 2.66313C15.0197 2.57172 15.3739 2.53745 15.7281 2.58315C15.8309 2.06898 16.0708 1.58909 16.4251 1.17775C16.9621 0.560749 17.6819 0.206543 18.4132 0.206543C19.1444 0.206543 19.8643 0.560749 20.4013 1.18918C20.7441 1.58909 20.984 2.08041 21.0869 2.59458C21.4296 2.54887 21.7724 2.57172 22.1152 2.66313C22.835 2.84595 23.4406 3.30299 23.8062 3.94284C24.1947 4.6284 24.2519 5.40537 24.0348 6.10236C24.7432 6.27375 25.3945 6.71936 25.7829 7.40492C26.1714 8.09048 26.24 8.86745 26.0229 9.56443C26.7313 9.73582 27.3712 10.1814 27.7596 10.867C28.1253 11.4954 28.2167 12.2381 28.0224 12.9465C28.0224 12.958 28.011 12.9808 28.011 12.9922C28.0453 13.0037 28.0796 13.0037 28.1138 13.0151C28.8337 13.1979 29.4393 13.6549 29.8049 14.2948C30.1934 14.9804 30.2505 15.7573 30.0334 16.4543C30.7418 16.6257 31.3931 17.0713 31.7816 17.7569C32.1701 18.4424 32.2386 19.2194 32.0215 19.9164C32.73 20.0878 33.3698 20.5334 33.7583 21.2189C34.1468 21.8931 34.2039 22.6586 34.0097 23.3442C34.0439 23.3556 34.0782 23.3556 34.1125 23.367C34.8323 23.5499 35.4379 24.0069 35.8035 24.6467C36.3634 25.6294 36.2492 26.8177 35.5979 27.6632C35.9064 27.9831 36.1463 28.3716 36.2949 28.8058C36.5462 29.5714 36.4663 30.394 36.0778 31.0796C35.6893 31.7537 35.0266 32.2336 34.2496 32.4164C33.804 32.5193 33.347 32.5078 32.9128 32.405C32.7757 32.7364 32.57 33.0449 32.3072 33.2962C31.793 33.8104 31.1075 34.096 30.3762 34.096C29.5878 34.096 28.8794 33.7647 28.3766 33.2277C28.3538 33.2505 28.3309 33.2734 28.3195 33.2848C27.8053 33.799 27.1198 34.0846 26.3885 34.0846C25.6001 34.0846 24.8917 33.7533 24.389 33.2162C24.3661 33.2391 24.3433 33.2619 24.3318 33.2734C23.8177 33.7875 23.1321 34.0732 22.4009 34.0732C21.6696 34.0732 20.984 33.7875 20.4699 33.2619C20.4584 33.2505 20.447 33.2391 20.4356 33.2277C20.4013 33.2619 20.3785 33.2962 20.3442 33.3191C20.2071 33.4562 19.4529 34.1532 18.3789 34.1189C17.6591 34.096 16.9849 33.7304 16.4822 33.1705C16.4365 33.2162 16.3908 33.2619 16.3451 33.3191C15.8309 33.8332 15.1453 34.1189 14.4141 34.1189C13.6257 34.1189 12.9173 33.7875 12.4145 33.2505C12.3917 33.2734 12.3688 33.2962 12.3574 33.3077C11.8432 33.8218 11.1577 34.1075 10.4264 34.1075C9.64944 34.1075 8.95245 33.7875 8.44971 33.2619C8.42686 33.2848 8.40401 33.3077 8.38115 33.3305C7.87841 33.9132 7.18143 34.2103 6.45016 34.2103ZM4.45061 30.7254C4.5763 30.7254 4.69056 30.7597 4.80482 30.8168C5.04476 30.9425 5.1933 31.1938 5.1933 31.4681C5.1933 32.1536 5.77603 32.7249 6.45016 32.7249C6.78152 32.7249 7.10144 32.5878 7.34139 32.3479C7.58134 32.1079 7.70702 31.7994 7.70702 31.4681C7.70702 31.4452 7.70702 31.4338 7.70702 31.4109C7.70702 30.9996 8.03837 30.6682 8.43828 30.6682C8.84962 30.6568 9.18097 30.9882 9.1924 31.3995C9.1924 31.4224 9.1924 31.4338 9.1924 31.4566C9.21525 32.1193 9.77513 32.6792 10.4493 32.6792C10.7806 32.6792 11.0891 32.5535 11.3291 32.3136C11.569 32.0736 11.6947 31.7651 11.6947 31.4338C11.6947 31.0225 12.026 30.6911 12.4374 30.6911C12.8487 30.6911 13.1801 31.0225 13.1801 31.4338C13.1801 32.1079 13.7514 32.6906 14.4369 32.6906C14.7683 32.6906 15.0768 32.565 15.3167 32.325C15.5567 32.0851 15.6824 31.7766 15.6824 31.4452C15.6824 31.0567 15.9794 30.7368 16.3565 30.7025C16.7336 30.6682 17.0878 30.931 17.1563 31.3081C17.3049 32.0851 17.8533 32.6792 18.4475 32.7021C18.9273 32.7135 19.3044 32.3364 19.3044 32.3364C19.6358 32.0051 19.67 31.5823 19.67 31.4452C19.67 31.4224 19.67 31.4109 19.67 31.3881C19.67 30.9768 20.0014 30.6568 20.4013 30.6454C20.8126 30.6454 21.144 30.9653 21.1554 31.3652C21.1554 31.3767 21.1554 31.3995 21.1554 31.4224C21.1668 31.7423 21.2925 32.0394 21.521 32.2679C21.761 32.5078 22.0695 32.6335 22.4009 32.6335C22.7322 32.6335 23.0407 32.5078 23.2807 32.2679C23.5206 32.0279 23.6463 31.7194 23.6463 31.3881C23.6463 30.9768 23.9776 30.6454 24.389 30.6454C24.8003 30.6454 25.1317 30.9768 25.1317 31.3881C25.1317 32.0622 25.703 32.6449 26.3885 32.6449C26.7199 32.6449 27.0284 32.5193 27.2683 32.2793C27.5083 32.0394 27.634 31.7309 27.634 31.3995C27.634 30.9882 27.9653 30.6568 28.3766 30.6568C28.788 30.6568 29.1193 30.9882 29.1193 31.3995C29.1193 32.0736 29.6906 32.6564 30.3762 32.6564C30.7076 32.6564 31.0161 32.5307 31.256 32.2907C31.4959 32.0508 31.6216 31.7423 31.6216 31.4109C31.6216 31.1367 31.7702 30.8853 32.0215 30.7597C32.2615 30.634 32.5586 30.6454 32.7871 30.8054C33.1184 31.0339 33.5069 31.1024 33.9068 31.011C34.2839 30.931 34.5924 30.7025 34.7752 30.3826C34.958 30.0627 34.9923 29.6742 34.8666 29.3086C34.7409 28.9201 34.4667 28.623 34.1011 28.4516C33.8497 28.3373 33.6783 28.086 33.6669 27.8117C33.6555 27.5375 33.7926 27.2747 34.0325 27.1262C34.6267 26.7834 34.8438 25.995 34.501 25.4123C34.341 25.1266 34.0668 24.921 33.724 24.8296C33.4041 24.7496 33.0613 24.7839 32.7757 24.9438C32.7642 24.9552 32.7414 24.9667 32.73 24.9667C32.3757 25.1723 31.9301 25.0467 31.7245 24.6925C31.5188 24.3382 31.6331 23.8926 31.9873 23.6755C31.9987 23.6641 32.0215 23.6527 32.033 23.6527C32.6043 23.3099 32.7985 22.5444 32.4672 21.9616C32.1358 21.3675 31.3474 21.1618 30.7533 21.4932C30.399 21.6988 29.942 21.5732 29.7363 21.2189C29.5307 20.8647 29.6564 20.4077 30.0106 20.202C30.6047 19.8593 30.8104 19.0823 30.479 18.4881C30.1363 17.894 29.3593 17.6883 28.7651 18.0197C28.4109 18.2253 27.9539 18.0997 27.7482 17.7454C27.5425 17.3912 27.6682 16.9342 28.0224 16.7285C28.6166 16.3858 28.8337 15.5974 28.4909 15.0146C28.3309 14.729 28.0567 14.5233 27.7139 14.4319C27.394 14.3519 27.0512 14.3862 26.7656 14.5462C26.7542 14.5576 26.7313 14.569 26.7199 14.569C26.3657 14.7747 25.9201 14.649 25.7144 14.2948C25.5087 13.9406 25.623 13.495 25.9772 13.2779C25.9886 13.2665 26.0115 13.255 26.0229 13.255C26.2971 13.0836 26.4914 12.8323 26.5713 12.5123C26.6627 12.1924 26.617 11.8496 26.4571 11.564C26.1257 10.9698 25.3373 10.7642 24.7432 11.0955C24.389 11.3012 23.9319 11.1755 23.7263 10.8213C23.5206 10.4671 23.6463 10.01 24.0005 9.80438C24.5946 9.4616 24.8003 8.68463 24.469 8.09048C24.1262 7.49633 23.3492 7.29066 22.7551 7.62201C22.4009 7.82768 21.9438 7.702 21.7381 7.34779C21.5325 6.99358 21.6582 6.53654 22.0124 6.33088C22.6065 5.9881 22.8236 5.1997 22.4808 4.61698C22.3209 4.33133 22.0466 4.12566 21.7039 4.03425C21.3725 3.94284 21.0183 3.99997 20.7212 4.17136C20.4699 4.3199 20.1614 4.30848 19.9214 4.14851C19.6815 3.98855 19.5558 3.7029 19.6015 3.41725C19.67 2.93736 19.5329 2.44604 19.2244 2.08041C18.9731 1.79476 18.6531 1.62337 18.356 1.62337C18.059 1.62337 17.739 1.79476 17.4877 2.08041C17.1792 2.44604 17.0306 2.92593 17.1106 3.41725C17.1563 3.7029 17.0306 3.97712 16.7907 4.13709C16.5507 4.29705 16.2537 4.30848 16.0023 4.17136L15.9452 4.13709C15.6595 3.9657 15.3167 3.93142 14.9968 4.0114C14.6769 4.10281 14.4027 4.30848 14.2427 4.59413C14.0713 4.87978 14.037 5.22255 14.117 5.54248C14.2084 5.86241 14.4141 6.13663 14.6997 6.2966C14.9397 6.43371 15.0768 6.68508 15.0768 6.94788C15.0768 7.07357 15.0425 7.19925 14.974 7.31351C14.7683 7.66772 14.3112 7.7934 13.957 7.58774C13.6714 7.41635 13.3286 7.38207 13.0087 7.46205C12.6888 7.55346 12.4145 7.75913 12.2546 8.04478C11.9118 8.65035 12.1175 9.41589 12.723 9.75867C12.963 9.89579 13.1001 10.1472 13.1001 10.41C13.1001 10.5356 13.0658 10.6613 12.9973 10.7756C12.7916 11.1298 12.3345 11.2555 11.9803 11.0498C11.6947 10.8784 11.3519 10.8441 11.032 10.9241C10.7121 11.0155 10.4378 11.2212 10.2779 11.5069C10.1065 11.7925 10.0722 12.1353 10.1522 12.4552C10.2436 12.7751 10.4493 13.0494 10.7349 13.2093C11.0891 13.415 11.2148 13.872 11.0091 14.2262C10.8035 14.5804 10.3464 14.7061 9.99222 14.5005L9.94652 14.4776C9.34094 14.1348 8.5754 14.3405 8.23262 14.9461C7.88984 15.5517 8.09551 16.3172 8.70108 16.66C8.94103 16.7971 9.07814 17.0485 9.07814 17.3113C9.07814 17.4369 9.04386 17.5626 8.97531 17.6769C8.76964 18.0311 8.3126 18.1568 7.95839 17.9511C7.67274 17.7797 7.32996 17.7454 7.01004 17.8254C6.69011 17.9168 6.41588 18.1225 6.25592 18.4082C5.91314 19.0137 6.11881 19.7793 6.72439 20.1221C6.96433 20.2592 7.10144 20.5105 7.10144 20.7733C7.10144 20.899 7.06717 21.0247 6.99861 21.139C6.79294 21.4932 6.3359 21.6189 5.9817 21.4132C5.69605 21.2418 5.35327 21.2075 5.03334 21.2875C4.71341 21.3789 4.43919 21.5846 4.27922 21.8702C4.10783 22.1559 4.07355 22.4987 4.15354 22.8186C4.24494 23.1385 4.45061 23.4127 4.73626 23.5727C5.09047 23.7784 5.21615 24.2354 5.01049 24.5896C4.80482 24.9438 4.34778 25.0695 3.99357 24.8638L3.93644 24.8296C3.34229 24.4868 2.56532 24.7039 2.22254 25.298C1.87976 25.8922 2.09686 26.6691 2.69101 27.0119C2.93096 27.149 3.07949 27.4118 3.06807 27.6861C3.05664 27.9603 2.88525 28.2117 2.63388 28.3259C2.26825 28.4973 2.00545 28.7944 1.86834 29.1714C1.74265 29.5256 1.7655 29.9141 1.92547 30.2341C2.09686 30.5654 2.40536 30.8054 2.78242 30.9196C3.18233 31.0339 3.60509 30.9653 3.94787 30.7482C4.17639 30.7597 4.3135 30.7254 4.45061 30.7254Z" fill="#494949"/>
<path d="M19.5555 10.8101H19.544C18.9156 10.7987 18.0015 10.4902 17.4531 9.65606C16.7904 8.63915 17.1217 7.58796 17.1903 7.38229C17.3274 6.9938 17.7502 6.79956 18.1386 6.93667C18.5271 7.07379 18.7214 7.49655 18.5843 7.88503C18.5728 7.90788 18.4014 8.3992 18.6985 8.83339C18.9956 9.29043 19.5555 9.31328 19.5783 9.31328C19.9897 9.32471 20.3096 9.66749 20.2982 10.0788C20.2867 10.4902 19.9554 10.8101 19.5555 10.8101Z" fill="#494949"/>
<path d="M22.1844 16.9458H22.1729C21.5445 16.9344 20.6304 16.6259 20.082 15.7918C19.4193 14.7749 19.7506 13.7237 19.8192 13.518C19.9563 13.1295 20.3791 12.9353 20.7676 13.0724C21.156 13.2095 21.3503 13.6323 21.2132 14.0208C21.2017 14.0436 21.0303 14.5349 21.3274 14.9691C21.6245 15.4262 22.1844 15.449 22.2072 15.449C22.6186 15.4604 22.9385 15.8032 22.9271 16.2146C22.9156 16.6259 22.5843 16.9458 22.1844 16.9458Z" fill="#494949"/>
<path d="M26.3211 23.0811H26.3097C25.6812 23.0697 24.7672 22.7612 24.2187 21.9271C23.556 20.9101 23.8874 19.859 23.9559 19.6533C24.093 19.2648 24.5158 19.0706 24.9043 19.2077C25.2928 19.3448 25.487 19.7675 25.3499 20.156C25.3385 20.1789 25.1671 20.6702 25.4641 21.1044C25.7612 21.5614 26.3211 21.5843 26.3439 21.5843C26.7553 21.5957 27.0752 21.9385 27.0638 22.3498C27.0524 22.7612 26.721 23.0811 26.3211 23.0811Z" fill="#494949"/>
<path d="M30.7078 29.3313H30.6964C30.068 29.3199 29.1539 29.0114 28.6054 28.1773C27.9427 27.1604 28.2741 26.1092 28.3426 25.9035C28.4797 25.515 28.9025 25.3208 29.291 25.4579C29.6795 25.595 29.8737 26.0178 29.7366 26.4063C29.7252 26.4291 29.5538 26.9204 29.8509 27.3546C30.1479 27.8117 30.7078 27.8345 30.7307 27.8345C31.142 27.8459 31.4619 28.1887 31.4505 28.6001C31.4391 29.0114 31.1077 29.3313 30.7078 29.3313Z" fill="#494949"/>
<path d="M14.5633 17.5056H14.5519C13.9234 17.4942 13.0093 17.1857 12.4609 16.3516C11.7982 15.3347 12.1295 14.2835 12.1981 14.0778C12.3352 13.6894 12.758 13.4951 13.1465 13.6322C13.5349 13.7693 13.7292 14.1921 13.5921 14.5806C13.5806 14.6034 13.4093 15.0948 13.7063 15.5289C14.0034 15.986 14.5633 16.0088 14.5861 16.0088C14.9975 16.0203 15.3174 16.363 15.306 16.7744C15.2945 17.1743 14.9632 17.5056 14.5633 17.5056Z" fill="#494949"/>
<path d="M19.3152 23.3098H19.3038C18.6754 23.2984 17.7613 22.9899 17.2129 22.1558C16.5501 21.1389 16.8815 20.0877 16.9501 19.882C17.0872 19.4936 17.5099 19.2993 17.8984 19.4364C18.2869 19.5735 18.4811 19.9963 18.344 20.3848C18.3326 20.4076 18.1612 20.899 18.4583 21.3331C18.7554 21.7902 19.3152 21.813 19.3381 21.813C19.7494 21.8245 20.0693 22.1672 20.0579 22.5786C20.0465 22.9899 19.7151 23.3098 19.3152 23.3098Z" fill="#494949"/>
<path d="M10.7566 23.3098H10.7452C10.1168 23.2984 9.2027 22.9899 8.65426 22.1558C7.99155 21.1389 8.3229 20.0877 8.39146 19.882C8.52857 19.4936 8.95133 19.2993 9.33982 19.4364C9.7283 19.5735 9.92254 19.9963 9.78543 20.3848C9.774 20.4076 9.60261 20.899 9.89969 21.3331C10.1968 21.7902 10.7566 21.813 10.7795 21.813C11.1908 21.8245 11.5108 22.1672 11.4993 22.5786C11.4879 22.9899 11.1566 23.3098 10.7566 23.3098Z" fill="#494949"/>
<path d="M7.66094 29.8001H7.64951C7.02108 29.7886 6.107 29.4802 5.55855 28.6461C4.89585 27.6291 5.2272 26.5779 5.29576 26.3723C5.43287 25.9838 5.85563 25.7896 6.24411 25.9267C6.6326 26.0638 6.82684 26.4865 6.68973 26.875C6.6783 26.8979 6.50691 27.3892 6.80399 27.8234C7.10106 28.2804 7.66094 28.3033 7.68379 28.3033C8.09512 28.3147 8.41505 28.6575 8.40363 29.0688C8.3922 29.4801 8.06085 29.8001 7.66094 29.8001Z" fill="#494949"/>
<path d="M15.077 29.0345H15.0655C14.4371 29.023 13.523 28.7145 12.9746 27.8804C12.3119 26.8635 12.6432 25.8123 12.7118 25.6067C12.8489 25.2182 13.2716 25.0239 13.6601 25.161C14.0486 25.2982 14.2429 25.7209 14.1057 26.1094C14.0943 26.1322 13.9229 26.6236 14.22 27.0578C14.5171 27.5148 15.077 27.5376 15.0998 27.5376C15.5111 27.5491 15.8311 27.8919 15.8196 28.3032C15.7968 28.7145 15.4769 29.0345 15.077 29.0345Z" fill="#494949"/>
<path d="M23.9539 29.8001H23.9425C23.3141 29.7886 22.4 29.4802 21.8515 28.6461C21.1888 27.6291 21.5202 26.5779 21.5887 26.3723C21.7258 25.9838 22.1486 25.7896 22.5371 25.9267C22.9256 26.0638 23.1198 26.4865 22.9827 26.875C22.9713 26.8979 22.7999 27.3892 23.097 27.8234C23.394 28.2804 23.9539 28.3033 23.9768 28.3033C24.3881 28.3147 24.708 28.6575 24.6966 29.0688C24.6852 29.4801 24.3538 29.8001 23.9539 29.8001Z" fill="#494949"/>
</svg>
