<svg width="37" height="37" fill="none" xmlns="http://www.w3.org/2000/svg"><path d="M5.634 17.009a.852.852 0 01-.693-.36c-2.412-3.503-2.63-8.007-.564-11.215 1.347-2.066 3.631-3.555 6.262-4.081 2.72-.539 5.557-.013 7.995 1.463a.826.826 0 01.282 1.142.826.826 0 01-1.142.282C13.642 1.738 8.15 2.688 5.801 6.332c-1.707 2.656-1.501 6.416.54 9.368a.826.826 0 01-.219 1.155.785.785 0 01-.488.154z" fill="#494949"/><path d="M26.513 16.56a.83.83 0 01-.68-.36c-.27-.372-.167-.898.206-1.167 1.09-.77 3.695-2.939 4.17-6.48.128-.938.385-2.888-.757-4.467-1.655-2.297-5.646-2.913-8.393-1.308-2.951 1.745-3.272 5.35-3.298 5.749a.834.834 0 01-.885.782.834.834 0 01-.783-.885c.026-.5.424-4.902 4.12-7.084 3.49-2.053 8.43-1.232 10.586 1.771 1.528 2.118 1.194 4.594 1.053 5.66-.565 4.196-3.593 6.724-4.864 7.622a.74.74 0 01-.475.167z" fill="#494949"/><path d="M31.326 28.674a.852.852 0 01-.693-.36.838.838 0 01.218-1.155 7.023 7.023 0 001.514-1.373c1.566-1.912 2.31-4.94 1.887-7.725-.296-1.925-1.091-3.4-2.246-4.158-.629-.41-1.425-.641-2.361-.667a.833.833 0 01-.809-.86.833.833 0 01.86-.808c1.245.025 2.336.346 3.234.937 1.553 1.026 2.618 2.9 2.977 5.3.488 3.22-.398 6.775-2.246 9.034a8.687 8.687 0 01-1.86 1.694.893.893 0 01-.475.14zM3.042 27.57a.833.833 0 01-.68-.346C-.14 23.759-.692 19.627.912 16.432c.667-1.322 1.694-2.451 3.028-3.337a.83.83 0 011.155.231.83.83 0 01-.23 1.155c-1.091.732-1.926 1.63-2.465 2.695-1.334 2.63-.82 6.095 1.31 9.06a.84.84 0 01-.193 1.168.74.74 0 01-.475.166z" fill="#494949"/><path d="M19.005 36.001h-3.644a.833.833 0 01-.834-.834v-2.759a11.73 11.73 0 01-2.49.5h-.051c-3.645.334-6.352-.461-8.046-2.36-.821-.924-1.155-1.836-1.386-2.503-.988-2.746-.565-5.3-.026-6.955a.836.836 0 011.63.256c0 .668.154 1.245.462 1.707.565.886 1.591 1.168 2.99 1.553.77.218 1.655.462 2.592.847.821.334 1.63.757 2.4 1.258a14.156 14.156 0 01-.372-1.925c-.244-1.977 0-3.555.27-5.377.217-1.412.525-2.81.923-4.184a.854.854 0 01.757-.603.86.86 0 01.822.514 13.69 13.69 0 001.283 2.386 9.16 9.16 0 001.399 1.656c.333.32.705.693 1.18 1.27.732.911 2.964 3.67 2.618 7.02a6.72 6.72 0 01-.205 1.129c4.17-.539 7.391-2.515 8.354-5.197a5.798 5.798 0 00.308-2.374.855.855 0 01.603-.86.822.822 0 01.962.398c.565 1.026 1.746 3.721.693 6.737-.975 2.759-3.22 4.004-4.568 4.748-2.875 1.591-5.826 1.655-7.764 1.45v1.668c-.025.45-.398.834-.86.834zm-2.81-1.668h1.976v-1.796c0-.244.116-.488.295-.642a.819.819 0 01.68-.18c1.579.283 4.684.526 7.649-1.116 1.206-.668 3.041-1.681 3.798-3.85a5.952 5.952 0 00.321-2.156c-1.553 3.298-5.646 5.505-10.87 5.8a.858.858 0 01-.744-.372.841.841 0 01-.05-.834 5.668 5.668 0 00.551-1.886c.27-2.67-1.63-5.03-2.259-5.813-.397-.5-.705-.796-1.039-1.117-.475-.462-.963-.937-1.63-1.925-.14-.205-.27-.423-.41-.641a28.5 28.5 0 00-.334 1.835c-.27 1.77-.488 3.182-.27 4.927.18 1.476.642 2.94 1.36 4.325.193.36.09.809-.243 1.052a.836.836 0 01-1.078-.064c-1.335-1.283-2.798-2.258-4.35-2.9-.847-.346-1.643-.565-2.4-.783-1.347-.372-2.618-.718-3.529-1.72a8.448 8.448 0 00.488 2.99c.218.604.462 1.284 1.065 1.964 1.309 1.489 3.554 2.092 6.647 1.81h.051a10.424 10.424 0 003.144-.809.83.83 0 011.168.757v3.144h.013z" fill="#494949"/></svg>