<svg width="26" height="20" viewBox="0 0 26 20" fill="none" xmlns="http://www.w3.org/2000/svg">
<path d="M14.9942 19.4605L7.00652 19.4378C6.96878 19.4378 6.92348 19.4303 6.88573 19.4227C6.16095 19.2415 5.64757 18.5771 5.67021 17.8524C5.68531 17.2484 6.05525 16.7274 6.58374 16.4783L5.92691 14.8853C5.74571 14.908 5.55697 14.923 5.36822 14.9381H5.35312C4.40185 14.991 1.87268 15.1193 0.883659 13.5943C-0.256356 11.8125 1.48764 9.27582 1.69148 8.99648C2.25772 8.2113 3.02779 7.56957 3.94887 7.12414C4.17536 6.24081 4.65855 5.0555 5.67776 4.01363C7.79925 1.83175 10.6455 1.8695 11.4684 1.92989C11.6194 1.94499 11.7629 2.02804 11.8459 2.15639C11.929 2.28473 11.9441 2.45083 11.8912 2.59427C11.3703 3.94568 10.6229 5.1612 9.65649 6.21061C9.16576 6.74665 8.62973 7.22983 8.04839 7.66017C8.17674 7.74322 8.31263 7.84136 8.44098 7.96216C8.62972 8.13581 8.80337 8.3321 8.93927 8.55104C10.57 7.47143 12.4046 6.7844 14.2619 6.5428C15.8322 6.33896 17.9914 6.06717 20.0827 7.36573C20.7471 7.78097 22.9365 9.33622 23.231 12.0617C23.6311 15.7837 20.2413 18.0638 19.8562 18.3053C18.8219 18.9622 17.5913 19.3548 16.3078 19.4303C16.3003 19.4303 16.2927 19.4303 16.2852 19.4303L14.9942 19.4605C15.0017 19.4605 14.9942 19.4605 14.9942 19.4605ZM15.3037 11.6389C15.5604 11.6389 15.7718 11.8352 15.7945 12.0919C15.8171 12.3637 15.6133 12.5977 15.3415 12.6204C13.8919 12.7261 12.7066 13.8057 12.533 15.1797C12.3367 16.7123 13.4616 18.1846 15.0395 18.479L16.255 18.4639C17.3724 18.3959 18.4293 18.0562 19.3202 17.49C19.4561 17.4069 22.5893 15.3685 22.2495 12.1749C22.0004 9.88735 20.128 8.55859 19.5618 8.20375C17.7649 7.08639 15.8926 7.32798 14.3902 7.51672C12.4801 7.75832 10.6833 8.48309 9.04496 9.66841C8.92417 9.75901 8.76562 9.78165 8.61463 9.74391C8.47118 9.69861 8.35038 9.59291 8.29753 9.44947C8.22204 9.24562 8.07104 8.95118 7.78415 8.68694C7.48216 8.4076 7.14997 8.2868 6.93103 8.23395C6.74228 8.18865 6.59129 8.03011 6.56109 7.83381C6.53089 7.63752 6.62149 7.44123 6.78758 7.34308C7.58786 6.84479 8.31263 6.24081 8.94682 5.54623C9.67159 4.75351 10.2605 3.86263 10.7135 2.88871C9.64139 2.92646 7.82945 3.22845 6.39499 4.69311C5.43617 5.67458 5.02848 6.7995 4.86239 7.57712C4.82464 7.72812 4.71894 7.85646 4.5755 7.91686C3.72237 8.2868 3.00514 8.85303 2.49931 9.56271C2.48421 9.58536 0.921408 11.7974 1.72923 13.0507C2.40871 14.1001 4.52265 13.9944 5.32293 13.9491H5.33802C5.61737 13.934 5.89671 13.9038 6.1685 13.851C6.39499 13.8132 6.62149 13.934 6.71208 14.1454L7.72375 16.6293C7.78415 16.7803 7.76905 16.9464 7.67845 17.0823C7.58786 17.2182 7.44441 17.3012 7.27832 17.3088C6.94613 17.3163 6.67433 17.5806 6.66678 17.8826C6.65923 18.1393 6.84043 18.3733 7.09712 18.4563L12.8953 18.4714C11.9441 17.6259 11.4005 16.3575 11.5666 15.0514C11.8006 13.2168 13.3634 11.7748 15.2811 11.6389C15.2735 11.6465 15.2886 11.6389 15.3037 11.6389Z" fill="white"/>
<path d="M22.9893 13.451C22.7326 13.451 22.5137 13.2471 22.4986 12.9829C22.4835 12.7111 22.6949 12.4846 22.9667 12.4695C23.6235 12.4317 24.1973 12.0467 24.4238 11.4729C24.7031 10.7632 24.303 10.114 24.2577 10.046C24.1595 9.89502 23.7971 9.40428 23.1478 9.32124C22.5741 9.24574 22.1362 9.54018 22.0154 9.63078C21.7964 9.79687 21.4944 9.75157 21.3284 9.54018C21.1623 9.32878 21.2076 9.01924 21.419 8.85315C21.6681 8.66441 22.3551 8.23407 23.2762 8.34731C24.3483 8.48321 24.9296 9.27594 25.0806 9.50998C25.2014 9.69872 25.7827 10.6953 25.3297 11.8278C24.9673 12.7564 24.0538 13.3906 23.012 13.4434C23.0044 13.451 22.9969 13.451 22.9893 13.451Z" fill="white"/>
<path d="M4.52988 11.1408C4.89263 11.1408 5.18671 10.8467 5.18671 10.484C5.18671 10.1212 4.89263 9.82715 4.52988 9.82715C4.16712 9.82715 3.87305 10.1212 3.87305 10.484C3.87305 10.8467 4.16712 11.1408 4.52988 11.1408Z" fill="white"/>
<path d="M4.00197 8.13583C3.76037 8.13583 3.55653 7.96218 3.51878 7.72059C3.38289 6.82217 3.36024 5.46321 4.03972 4.04385C5.33828 1.32593 8.17699 0.623802 8.73567 0.510556C8.98482 0.457707 9.22641 0.608703 9.30191 0.842746C9.4378 1.27308 9.47555 1.71097 9.4076 2.14886C9.3774 2.37535 9.31701 2.59429 9.23396 2.80569C9.13581 3.05483 8.84892 3.18317 8.59978 3.07748C8.35064 2.97933 8.22229 2.69244 8.32799 2.4433C8.38083 2.29985 8.42613 2.15641 8.44123 2.01296C8.46388 1.87706 8.46388 1.74117 8.45633 1.59772C7.55791 1.86951 5.81391 2.61694 4.93059 4.46664C4.36436 5.6595 4.37946 6.81462 4.50025 7.56959C4.538 7.83384 4.35681 8.09053 4.09256 8.12828C4.04727 8.13583 4.02462 8.13583 4.00197 8.13583Z" fill="white"/>
</svg>
