<svg width="37" height="37" viewBox="0 0 37 37" fill="none" xmlns="http://www.w3.org/2000/svg">
<path d="M3.94449 15.8599C2.41525 15.8599 1.45802 15.4746 1.0261 14.6925C0.395726 13.5368 1.27124 12.136 1.79655 11.2955C3.55926 8.48217 6.44263 7.06967 8.64893 6.38093C9.94469 4.65325 10.8085 4.08124 11.5907 4.43145C12.4662 4.81668 12.3845 6.11244 12.3494 6.59106C12.3261 7.01131 11.9642 7.32649 11.544 7.30315C11.1237 7.2798 10.8085 6.91792 10.8319 6.49767C10.8436 6.35759 10.8436 6.24085 10.8436 6.14746C10.5984 6.38093 10.2365 6.77784 9.71122 7.48992C9.61783 7.61833 9.47775 7.72339 9.31432 7.77009C7.32982 8.35377 4.6449 9.59116 3.06897 12.1126C2.8355 12.4745 2.14676 13.5952 2.34521 13.9804C2.59035 14.4357 4.63323 14.6925 9.08085 13.4785C9.48943 13.3734 9.898 13.6069 10.0147 14.0038C10.1315 14.4123 9.88633 14.8209 9.48943 14.9376C7.98354 15.3462 6.57104 15.6381 5.39201 15.7781C4.8667 15.8365 4.38808 15.8599 3.94449 15.8599Z" fill="#494949"/>
<path d="M6.86284 10.992C7.20454 10.992 7.48154 10.715 7.48154 10.3733C7.48154 10.0316 7.20454 9.75464 6.86284 9.75464C6.52114 9.75464 6.24414 10.0316 6.24414 10.3733C6.24414 10.715 6.52114 10.992 6.86284 10.992Z" fill="#494949"/>
<path d="M24.3736 30.4401C21.7003 30.4401 19.6691 29.016 18.8053 28.2805C16.2138 29.693 13.0969 29.5413 10.879 27.8369C8.71935 26.1793 8.28743 23.7278 8.19404 22.5838C7.2835 22.1636 5.45076 21.0896 4.77369 18.8483C4.20169 16.9572 4.82038 15.3112 5.10055 14.6808C5.27565 14.2956 5.73092 14.1322 6.10447 14.3073C6.4897 14.4824 6.65313 14.9376 6.47803 15.3112C6.2679 15.7781 5.81264 17.0039 6.22121 18.4047C6.85158 20.5176 8.92947 21.253 9.16295 21.3348C9.47813 21.4398 9.68826 21.7317 9.68826 22.0702C9.68826 22.3737 9.7116 25.0353 11.7895 26.6345C13.6456 28.0587 16.3305 28.0937 18.4668 26.7046C18.7703 26.5061 19.1672 26.5528 19.424 26.8097C19.5291 26.9264 22.1089 29.5413 25.646 28.7708C28.2609 28.1988 29.6033 26.1793 29.9535 25.5723C30.0703 25.3621 30.2921 25.2221 30.5255 25.1987C32.7552 24.9536 34.5646 23.401 34.9382 21.4398C35.3117 19.4553 34.051 17.8677 33.7825 17.5642C33.5373 17.284 33.5373 16.8638 33.7825 16.5719C35.3817 14.6808 35.7436 12.136 34.693 10.0931C33.5607 7.8518 31.1909 7.24478 30.724 7.15139C30.3738 7.08135 30.1286 6.77783 30.117 6.41595C30.0936 4.60655 28.9263 3.01895 27.2219 2.47029C25.4709 1.90996 23.5214 2.58703 22.4825 4.11626C22.3541 4.30304 22.1556 4.41978 21.9338 4.44312C21.712 4.46647 21.4902 4.39643 21.3268 4.233C18.7353 1.76988 14.988 1.03445 11.9996 2.40025C8.90613 3.82442 7.85551 6.85955 7.61036 7.74674C7.49363 8.15531 7.08505 8.38878 6.67648 8.27205C6.2679 8.15531 6.03443 7.74674 6.15117 7.33816C6.44301 6.28754 7.6804 2.71544 11.3692 1.02277C14.6845 -0.49479 18.7586 0.147256 21.7587 2.58703C23.2529 0.976078 25.576 0.334032 27.6889 1.0111C29.8368 1.69984 31.3544 3.57928 31.6112 5.79726C32.7085 6.13579 34.8915 7.08135 36.0822 9.40438C37.3196 11.8208 37.016 14.7742 35.3584 17.0739C35.9421 17.9261 36.8643 19.6421 36.4674 21.72C35.9888 24.2298 33.8175 26.2143 31.0976 26.6579C30.4672 27.6268 28.8446 29.6463 25.9962 30.265C25.4242 30.3934 24.8872 30.4401 24.3736 30.4401Z" fill="#494949"/>
<path d="M8.70689 36.0786C8.63685 36.0786 8.56681 36.0669 8.49677 36.0435C8.08819 35.9268 7.85472 35.5066 7.97146 35.1097L10.3412 26.8098C10.4579 26.4012 10.8782 26.1677 11.2751 26.2844C11.6836 26.4012 11.9171 26.8214 11.8004 27.2183L9.43065 35.5182C9.33726 35.8684 9.03375 36.0786 8.70689 36.0786Z" fill="#494949"/>
<path d="M15.0339 36.0552C14.6604 36.0552 14.3335 35.7867 14.2868 35.4015L13.2945 28.5024C13.2362 28.0821 13.528 27.7086 13.9366 27.6385C14.3568 27.5802 14.7304 27.872 14.8004 28.2806L15.7927 35.1797C15.8511 35.5999 15.5592 35.9735 15.1506 36.0435C15.1039 36.0552 15.0689 36.0552 15.0339 36.0552Z" fill="#494949"/>
<path d="M24.1047 36.1951C24.0463 36.1951 23.988 36.1834 23.9296 36.1717C23.521 36.0784 23.2642 35.6698 23.3693 35.2612L24.7467 29.4128C24.8401 29.0042 25.2487 28.7474 25.6573 28.8524C26.0659 28.9575 26.3227 29.3544 26.2176 29.763L24.8401 35.6114C24.7584 35.9616 24.4549 36.1951 24.1047 36.1951Z" fill="#494949"/>
<path d="M31.2251 36.1954C30.8866 36.1954 30.5831 35.9736 30.4897 35.6351L28.4001 27.9889C28.295 27.5803 28.5285 27.1718 28.9371 27.055C29.3457 26.9383 29.7542 27.1834 29.871 27.592L31.9605 35.2382C32.0656 35.6468 31.8321 36.0553 31.4236 36.1721C31.3535 36.1837 31.2835 36.1954 31.2251 36.1954Z" fill="#494949"/>
</svg>
