<svg width="23" height="23" viewBox="0 0 23 23" fill="none" xmlns="http://www.w3.org/2000/svg">
<path d="M2.45936 10.2742C1.50446 10.2742 0.90674 10.0337 0.637036 9.54528C0.243413 8.82364 0.790111 7.94892 1.11813 7.42409C2.21882 5.66737 4.01928 4.78536 5.39695 4.35529C6.20607 3.27648 6.74548 2.9193 7.23386 3.13798C7.78056 3.37853 7.72953 4.18764 7.70767 4.4865C7.69309 4.74892 7.46712 4.94573 7.2047 4.93115C6.94229 4.91657 6.74548 4.6906 6.76006 4.42819C6.76734 4.34071 6.76734 4.26782 6.76734 4.20951C6.61427 4.35529 6.3883 4.60313 6.06028 5.04778C6.00197 5.12796 5.9145 5.19356 5.81245 5.22272C4.57326 5.58719 2.89672 6.35985 1.91266 7.93434C1.76688 8.16031 1.33681 8.86009 1.46073 9.10063C1.6138 9.38492 2.88943 9.54528 5.66666 8.78719C5.92178 8.72159 6.17691 8.86737 6.2498 9.11521C6.3227 9.37034 6.16962 9.62546 5.92178 9.69836C4.98146 9.95348 4.09946 10.1357 3.36324 10.2232C3.03522 10.2596 2.73636 10.2742 2.45936 10.2742Z" fill="white"/>
<path d="M4.28184 7.23458C4.49521 7.23458 4.66817 7.06161 4.66817 6.84825C4.66817 6.63488 4.49521 6.46191 4.28184 6.46191C4.06848 6.46191 3.89551 6.63488 3.89551 6.84825C3.89551 7.06161 4.06848 7.23458 4.28184 7.23458Z" fill="white"/>
<path d="M15.2153 19.3787C13.5461 19.3787 12.2777 18.4894 11.7383 18.0302C10.1201 18.9122 8.17386 18.8175 6.78889 17.7532C5.44037 16.7181 5.17067 15.1874 5.11235 14.473C4.54379 14.2106 3.39937 13.54 2.97659 12.1405C2.61941 10.9596 3.00574 9.93179 3.18069 9.53817C3.29003 9.29762 3.57431 9.19557 3.80757 9.30491C4.04811 9.41425 4.15016 9.69853 4.04082 9.93179C3.90962 10.2234 3.62533 10.9887 3.88046 11.8635C4.27408 13.1828 5.57158 13.642 5.71737 13.6931C5.91418 13.7587 6.04538 13.9409 6.04538 14.1523C6.04538 14.3418 6.05996 16.0038 7.35746 17.0024C8.51646 17.8917 10.193 17.9136 11.5269 17.0462C11.7165 16.9222 11.9643 16.9514 12.1247 17.1118C12.1903 17.1847 13.8012 18.8175 16.0099 18.3364C17.6427 17.9792 18.4809 16.7181 18.6996 16.3391C18.7725 16.2079 18.911 16.1204 19.0568 16.1058C20.4491 15.9528 21.5789 14.9833 21.8122 13.7587C22.0454 12.5195 21.2582 11.5281 21.0905 11.3386C20.9374 11.1637 20.9374 10.9013 21.0905 10.719C22.0892 9.53817 22.3151 7.9491 21.6591 6.67347C20.952 5.27392 19.4723 4.89488 19.1807 4.83656C18.962 4.79283 18.809 4.60331 18.8017 4.37734C18.7871 3.24749 18.0582 2.25615 16.9939 1.91355C15.9005 1.56366 14.6832 1.98644 14.0345 2.94134C13.9543 3.05797 13.8304 3.13087 13.6919 3.14544C13.5534 3.16002 13.4149 3.11629 13.3128 3.01424C11.6946 1.47619 9.35473 1.01697 7.48867 1.86982C5.557 2.75911 4.90096 4.65433 4.74789 5.20832C4.67499 5.46344 4.41987 5.60923 4.16474 5.53634C3.90962 5.46344 3.76383 5.20832 3.83672 4.95319C4.01896 4.29716 4.79162 2.06663 7.09505 1.00968C9.16521 0.0620672 11.7092 0.462979 13.5825 1.98644C14.5156 0.98052 15.9661 0.579608 17.2855 1.00239C18.6267 1.43246 19.5743 2.60604 19.7347 3.991C20.4199 4.20239 21.783 4.79283 22.5265 6.2434C23.2992 7.75229 23.1097 9.59648 22.0746 11.0325C22.439 11.5646 23.0149 12.6361 22.7671 13.9336C22.4682 15.5008 21.1124 16.74 19.414 17.017C19.0204 17.622 18.0071 18.8831 16.2285 19.2694C15.8714 19.3496 15.5361 19.3787 15.2153 19.3787Z" fill="white"/>
<path d="M5.43404 22.8996C5.39031 22.8996 5.34657 22.8923 5.30284 22.8778C5.04771 22.8049 4.90193 22.5425 4.97482 22.2946L6.45455 17.1119C6.52744 16.8568 6.78986 16.711 7.03769 16.7839C7.29282 16.8568 7.4386 17.1192 7.36571 17.367L5.88598 22.5497C5.82767 22.7684 5.63815 22.8996 5.43404 22.8996Z" fill="white"/>
<path d="M9.3847 22.8847C9.15144 22.8847 8.94734 22.7171 8.91818 22.4765L8.29859 18.1686C8.26214 17.9061 8.44437 17.6729 8.6995 17.6292C8.96192 17.5927 9.19517 17.7749 9.23891 18.0301L9.8585 22.338C9.89495 22.6005 9.71272 22.8337 9.45759 22.8775C9.42843 22.8847 9.40656 22.8847 9.3847 22.8847Z" fill="white"/>
<path d="M15.0482 22.9722C15.0117 22.9722 14.9753 22.965 14.9388 22.9577C14.6837 22.8994 14.5233 22.6442 14.5889 22.3891L15.4491 18.7372C15.5074 18.482 15.7625 18.3217 16.0176 18.3873C16.2728 18.4529 16.4331 18.7007 16.3675 18.9558L15.5074 22.6078C15.4564 22.8265 15.2668 22.9722 15.0482 22.9722Z" fill="white"/>
<path d="M19.4945 22.9723C19.2831 22.9723 19.0936 22.8338 19.0353 22.6224L17.7305 17.8479C17.6649 17.5928 17.8107 17.3377 18.0658 17.2648C18.321 17.1919 18.5761 17.345 18.649 17.6001L19.9538 22.3746C20.0194 22.6297 19.8736 22.8848 19.6184 22.9577C19.5747 22.965 19.531 22.9723 19.4945 22.9723Z" fill="white"/>
</svg>
