<svg width="35" height="39" viewBox="0 0 35 39" fill="none" xmlns="http://www.w3.org/2000/svg">
<path d="M14.2931 3.11142C14.5261 4.86578 14.7043 6.92167 14.6906 9.22427C14.6769 11.5269 14.485 13.5965 14.2246 15.3508C15.6089 15.0082 17.4044 14.6929 19.5288 14.6792C21.5984 14.6655 23.3802 14.9396 24.7508 15.2549C24.4355 13.6102 24.1751 11.568 24.1477 9.22427C24.1203 6.85315 24.3533 4.78355 24.6411 3.11142C23.3528 2.74136 21.5573 2.38501 19.4192 2.38501C17.3222 2.39872 15.5678 2.75507 14.2931 3.11142Z" stroke="#494949" stroke-width="1.98903" stroke-miterlimit="10" stroke-linecap="round" stroke-linejoin="round"/>
<path d="M14.2246 15.3511C14.485 16.8313 14.6769 18.5994 14.6906 20.6004C14.7043 22.7797 14.4987 24.6848 14.2246 26.2747C15.6089 25.9321 17.4044 25.6168 19.5288 25.6031C21.5984 25.5894 23.3802 25.8635 24.7508 26.1788C24.4218 24.7259 24.134 22.8208 24.1477 20.6004C24.1614 18.4897 24.4355 16.6668 24.7508 15.2551" stroke="#494949" stroke-width="1.98903" stroke-miterlimit="10" stroke-linecap="round" stroke-linejoin="round"/>
<path d="M14.2246 26.2747C14.4987 27.6315 14.7317 29.2077 14.8277 30.9621C14.951 33.388 14.7728 35.5125 14.4987 37.2394C15.7049 36.8693 17.4181 36.4993 19.4877 36.4719C21.6806 36.4445 23.5035 36.8419 24.7508 37.212C24.4492 35.5536 24.2299 33.4977 24.2711 31.1266C24.2985 29.2488 24.5041 27.5767 24.7508 26.1787" stroke="#494949" stroke-width="1.98903" stroke-miterlimit="10" stroke-linecap="round" stroke-linejoin="round"/>
<path d="M24.752 16.2968C25.6703 15.9678 28.1236 14.9399 29.6724 12.2672C31.5501 9.04634 31.3719 4.75638 29.2612 1.20654C28.6993 2.12484 27.4383 4.45485 27.4383 7.68945C27.4383 10.4581 28.3429 12.5139 28.8363 13.4734" stroke="#494949" stroke-width="1.98903" stroke-miterlimit="10" stroke-linecap="round" stroke-linejoin="round"/>
<path d="M24.669 16.9409C25.601 16.8861 27.8213 16.8724 30.1513 18.243C32.0016 19.3394 33.0707 20.7923 33.5778 21.6009C32.5088 21.7517 29.9732 21.9573 27.3142 20.5319C25.8888 19.778 24.8883 18.8049 24.2715 18.0785" stroke="#494949" stroke-width="1.98903" stroke-miterlimit="10" stroke-linecap="round" stroke-linejoin="round"/>
<path d="M14.5264 28.9062C13.4025 28.3305 11.8126 27.3437 10.2364 25.699C8.60539 23.9995 7.63227 22.2725 7.07033 21.0801C7.02921 20.2303 6.83733 18.5308 5.79568 16.7764C4.4662 14.515 2.56107 13.5418 1.83466 13.2129C1.77984 13.816 1.67019 15.9678 3.02708 18.0785C4.45249 20.2852 6.52209 20.9293 7.05662 21.0801" stroke="#494949" stroke-width="1.98903" stroke-miterlimit="10" stroke-linecap="round" stroke-linejoin="round"/>
<path d="M9.27585 24.6301C9.02915 23.5199 8.7002 21.4503 9.26215 18.9969C9.63221 17.3796 10.249 16.1324 10.7561 15.3237C11.1399 16.0776 11.88 17.8319 11.7566 20.1482C11.6196 22.862 10.3997 24.7123 9.90633 25.3839" stroke="#494949" stroke-width="1.98903" stroke-miterlimit="10" stroke-linecap="round" stroke-linejoin="round"/>
<path d="M13.0343 28.3579C11.8968 28.4813 10.2246 28.8239 8.37433 29.7422C6.71591 30.5646 5.50979 31.5788 4.71484 32.3463C5.42755 32.5519 7.97686 33.155 10.6769 31.757C12.5135 30.7976 13.5552 29.3722 14.0212 28.6457" stroke="#494949" stroke-width="1.98903" stroke-miterlimit="10" stroke-linecap="round" stroke-linejoin="round"/>
</svg>
