<svg width="20" height="21" fill="none" xmlns="http://www.w3.org/2000/svg"><path d="M3.168 14.186a.442.442 0 01-.391-.243 5.919 5.919 0 01-.614-3.339 5.538 5.538 0 011.322-3.042c1.936-2.212 4.782-1.882 5.1-1.835a.437.437 0 01.37.5.437.437 0 01-.499.37c-.108-.013-2.657-.35-4.317 1.545-1.059 1.228-1.39 2.975-.91 4.573a15.4 15.4 0 013.25-3.966 15.68 15.68 0 012.578-1.814.434.434 0 01.593.168.44.44 0 01-.168.594 14.283 14.283 0 00-2.429 1.706 14.511 14.511 0 00-3.487 4.533.439.439 0 01-.398.25zm13.585.007s-.006 0 0 0a.443.443 0 01-.404-.264 13.368 13.368 0 00-2.651-3.959 13.447 13.447 0 00-2.833-2.246.439.439 0 01.445-.756 14.552 14.552 0 013.015 2.388 14.173 14.173 0 012.354 3.258c.432-1.72.02-3.514-1.153-4.701-1.37-1.39-3.231-1.383-3.764-1.35a.438.438 0 11-.054-.876c.627-.04 2.813-.047 4.445 1.605 1.646 1.66 2.044 4.324.992 6.637a.424.424 0 01-.392.264z" fill="#fff"/><path d="M19.566 8.034a.444.444 0 01-.203-.047 13.185 13.185 0 00-4.56-1.41 13.255 13.255 0 00-3.014-.007.44.44 0 01-.486-.384.44.44 0 01.384-.486 13.872 13.872 0 013.218.007c1.24.148 2.455.459 3.622.93-.965-1.362-2.422-2.232-3.966-2.306-1.565-.074-2.766.674-3.346 1.133a.439.439 0 01-.614-.074.439.439 0 01.075-.614c.674-.533 2.077-1.403 3.925-1.322 2.273.108 4.378 1.666 5.363 3.973a.425.425 0 01-.108.492.414.414 0 01-.29.115zM.436 7.555a.414.414 0 01-.283-.108.431.431 0 01-.128-.472C.78 4.69 2.797 3.076 5.043 2.968c2.422-.114 4.047 1.565 4.35 1.903a.438.438 0 01-.033.62.438.438 0 01-.62-.034c-.257-.283-1.633-1.706-3.656-1.612-1.545.075-2.961 1.005-3.778 2.402a12.195 12.195 0 013.92-.837 12.13 12.13 0 013.406.33.439.439 0 01.323.527.439.439 0 01-.526.324 11.383 11.383 0 00-3.163-.31c-1.612.074-3.17.485-4.634 1.22a.344.344 0 01-.196.054zm9.329 11.022a3.687 3.687 0 01-1.76-.452.438.438 0 01-.21-.512c.48-1.586.81-3.225.985-4.87.196-1.788.21-3.596.047-5.383a.444.444 0 01.398-.479.444.444 0 01.48.398 28.182 28.182 0 01-.965 10.219c.31.121.708.216 1.18.189a2.788 2.788 0 001.214-.351c.128-.668.23-1.342.297-2.017.25-2.603-.007-5.248-.755-7.858a.43.43 0 01.303-.54.43.43 0 01.54.304c.775 2.718 1.045 5.47.782 8.182a21.873 21.873 0 01-.344 2.293.45.45 0 01-.189.277c-.377.243-.991.54-1.8.58-.068.013-.135.02-.203.02z" fill="#fff"/><path d="M9.063 5.606a.445.445 0 01-.432-.35c-.33-1.653.304-3.373 1.626-4.378 1.43-1.086 3.44-1.174 4.991-.21a.442.442 0 01-.087.79 6.097 6.097 0 00-3.805 3.797.439.439 0 11-.83-.29 7.007 7.007 0 013.407-3.94 3.52 3.52 0 00-3.143.547c-1.052.803-1.565 2.179-1.302 3.508a.447.447 0 01-.344.52c-.027 0-.054.006-.081.006zm1.909 7.325c-.169 0-.33-.027-.493-.074a.438.438 0 01.257-.836.788.788 0 00.776-.182.438.438 0 01.62.013.438.438 0 01-.014.62 1.672 1.672 0 01-1.146.46zm-.142 1.882c-.175 0-.343-.02-.512-.054a.433.433 0 01-.33-.52.433.433 0 01.519-.33c.189.04.378.047.567.013a1.49 1.49 0 00.553-.209.435.435 0 01.6.142.435.435 0 01-.142.6c-.27.169-.566.277-.877.324-.128.027-.25.034-.377.034zm-.23 1.794c-.175 0-.35-.013-.518-.04a.438.438 0 11.148-.864c.25.041.499.041.749 0 .222-.04.438-.107.64-.209a.438.438 0 01.392.783c-.284.142-.58.236-.89.29-.176.027-.345.04-.52.04z" fill="#fff"/><path d="M9.428 20.553a46.74 46.74 0 01-8.661-.81.448.448 0 01-.35-.343.428.428 0 01.181-.452 18.156 18.156 0 014.371-2.186 18.458 18.458 0 013.562-.83.435.435 0 01.492.378.435.435 0 01-.378.493 17.223 17.223 0 00-3.392.796c-1.12.384-2.2.876-3.218 1.483 3.062.5 6.165.688 9.234.56a48.82 48.82 0 004.304-.377 4.407 4.407 0 00-1.16-1.417c-.965-.775-2.017-.937-2.557-.971a.436.436 0 01.047-.87 5.38 5.38 0 013.056 1.16 5.34 5.34 0 011.66 2.307.44.44 0 01-.345.587 47.542 47.542 0 01-4.964.472c-.62.006-1.248.02-1.882.02z" fill="#fff"/></svg>