<svg width="20" height="21" viewBox="0 0 20 21" fill="none" xmlns="http://www.w3.org/2000/svg">
<path d="M3.16801 14.1857C3.00613 14.1857 2.85099 14.0913 2.77679 13.9429C2.25067 12.9041 2.03482 11.7507 2.16298 10.604C2.29114 9.45733 2.74981 8.40508 3.48504 7.56193C5.4209 5.34951 8.26737 5.68003 8.58439 5.72724C8.82722 5.76097 8.9891 5.98356 8.95537 6.22639C8.92165 6.46921 8.69906 6.6311 8.45623 6.59737C8.34831 6.58388 5.79863 6.24662 4.13932 8.14202C3.08033 9.36964 2.74981 11.1166 3.22872 12.7152C4.0921 11.2111 5.18482 9.87553 6.47989 8.74908C7.26908 8.06107 8.13921 7.45401 9.05655 6.93463C9.26565 6.81322 9.53546 6.89416 9.65013 7.10326C9.76479 7.31236 9.6906 7.58217 9.4815 7.69684C8.61137 8.18249 7.7952 8.75583 7.05323 9.40336C5.60977 10.658 4.43611 12.1824 3.56598 13.9361C3.49178 14.0913 3.33664 14.1857 3.16801 14.1857Z" fill="white"/>
<path d="M16.7533 14.1925C16.7533 14.1925 16.7466 14.1925 16.7533 14.1925C16.5779 14.1925 16.4228 14.0913 16.3486 13.9294C15.7011 12.4522 14.8107 11.1167 13.6977 9.97001C12.8613 9.09988 11.9103 8.34442 10.8648 7.72387C10.6557 7.60246 10.5882 7.33265 10.7096 7.12355C10.831 6.91445 11.1008 6.847 11.3099 6.96841C12.4162 7.62944 13.4347 8.43211 14.325 9.3562C15.2626 10.3275 16.0518 11.4202 16.6791 12.6141C17.1108 10.8941 16.6993 9.09988 15.5257 7.91273C14.1564 6.52323 12.2947 6.52997 11.7619 6.5637C11.519 6.57719 11.3099 6.39507 11.2965 6.15224C11.283 5.90942 11.4651 5.70032 11.7079 5.68683C12.3352 5.64635 14.5206 5.63961 16.153 7.29218C17.7988 8.95149 18.1968 11.6158 17.1445 13.9294C17.0771 14.0913 16.9219 14.1925 16.7533 14.1925Z" fill="white"/>
<path d="M19.5657 8.03397C19.4983 8.03397 19.4308 8.02048 19.3634 7.98676C17.9266 7.23804 16.3955 6.76588 14.8036 6.57702C13.8053 6.46235 12.7936 6.4556 11.7885 6.57027C11.5457 6.59725 11.3299 6.42188 11.3029 6.1858C11.2759 5.94297 11.4513 5.72712 11.6874 5.70014C12.7598 5.57873 13.8391 5.57873 14.9048 5.70689C16.1459 5.85528 17.3601 6.16556 18.527 6.63772C17.5624 5.2752 16.1054 4.40507 14.5608 4.33087C12.9959 4.25668 11.7953 5.00539 11.2152 5.46406C11.0263 5.61246 10.7498 5.57873 10.6014 5.38987C10.453 5.201 10.4867 4.92445 10.6756 4.77605C11.3501 4.24319 12.7531 3.37306 14.6013 3.454C16.8744 3.56192 18.9789 5.12006 19.9637 7.42691C20.0379 7.59554 19.9974 7.79789 19.8558 7.91931C19.7816 7.9935 19.6736 8.03397 19.5657 8.03397Z" fill="white"/>
<path d="M0.436225 7.55521C0.335047 7.55521 0.23387 7.52149 0.152928 7.44729C0.0180241 7.33262 -0.0359373 7.14376 0.0247693 6.97513C0.780229 4.68851 2.79704 3.07642 5.04318 2.96849C7.4647 2.85383 9.09028 4.53337 9.39382 4.87063C9.5557 5.05275 9.54221 5.3293 9.36009 5.49119C9.17797 5.65307 8.90142 5.63958 8.73953 5.45746C8.48322 5.17417 7.1072 3.75093 5.08365 3.84537C3.53901 3.91956 2.12252 4.8504 1.30635 6.24665C2.56095 5.75425 3.87626 5.47095 5.2253 5.41025C6.36523 5.35629 7.51191 5.47095 8.63161 5.74076C8.86769 5.79472 9.00934 6.03755 8.95538 6.26688C8.90142 6.50296 8.65859 6.64461 8.42926 6.59065C7.3905 6.34108 6.32476 6.23316 5.26577 6.28037C3.65367 6.35457 2.09554 6.76603 0.631835 7.50125C0.571128 7.54172 0.503677 7.55521 0.436225 7.55521Z" fill="white"/>
<path d="M9.76507 18.5771C8.99612 18.5771 8.38906 18.3343 8.00458 18.1252C7.82246 18.024 7.73478 17.8149 7.79548 17.6126C8.27439 16.0274 8.6049 14.3884 8.78028 12.7425C8.97589 10.9551 8.98938 9.14736 8.82749 7.35989C8.80726 7.11706 8.98263 6.90796 9.22546 6.88098C9.46829 6.86075 9.67739 7.03612 9.70437 7.27895C9.873 9.12713 9.85276 10.9955 9.65041 12.837C9.48178 14.4086 9.1715 15.9735 8.73981 17.4979C9.05009 17.6193 9.44805 17.7137 9.92021 17.6868C10.4328 17.6598 10.8443 17.4979 11.1343 17.336C11.2625 16.6682 11.3637 15.9937 11.4311 15.3192C11.6807 12.7156 11.4244 10.0714 10.6757 7.46107C10.6082 7.22499 10.7431 6.98216 10.9792 6.92145C11.2153 6.854 11.4581 6.98891 11.5188 7.22499C12.2945 9.94329 12.5643 12.6953 12.3013 15.4069C12.2271 16.1758 12.1124 16.9448 11.9573 17.7002C11.9303 17.8149 11.8628 17.9161 11.7684 17.9768C11.3907 18.2196 10.7768 18.5164 9.96743 18.5569C9.89998 18.5704 9.83253 18.5771 9.76507 18.5771Z" fill="white"/>
<path d="M9.063 5.60589C8.86064 5.60589 8.67852 5.46424 8.63131 5.25514C8.30079 3.60258 8.93484 1.88256 10.2569 0.877525C11.6869 -0.208448 13.6969 -0.296136 15.2483 0.668424C15.39 0.756112 15.4709 0.924741 15.4507 1.09337C15.4304 1.262 15.3158 1.40365 15.1606 1.45761C14.3242 1.74091 13.5485 2.21307 12.9145 2.82014C12.0309 3.67003 11.5789 4.60761 11.3564 5.25514C11.2754 5.48448 11.0258 5.60589 10.7965 5.52495C10.5672 5.44401 10.4458 5.19444 10.5267 4.9651C10.8909 3.91285 11.5048 2.94829 12.3074 2.18609C12.7863 1.72742 13.3394 1.3362 13.933 1.02592C12.8673 0.70215 11.6869 0.891015 10.7898 1.57228C9.73751 2.37495 9.22488 3.75097 9.48794 5.07977C9.53516 5.31585 9.38002 5.54519 9.14394 5.59915C9.11696 5.59915 9.08998 5.60589 9.063 5.60589Z" fill="white"/>
<path d="M10.9718 12.9314C10.8032 12.9314 10.6413 12.9044 10.4794 12.8572C10.2501 12.783 10.1152 12.5402 10.1894 12.3108C10.2636 12.0815 10.5064 11.9466 10.7357 12.0208C10.8234 12.0478 10.9583 12.0748 11.1202 12.041C11.3023 12.0073 11.4305 11.9129 11.5114 11.8387C11.6868 11.67 11.9634 11.6768 12.132 11.8522C12.3006 12.0275 12.2939 12.3041 12.1185 12.4727C11.9566 12.6211 11.6868 12.8235 11.2956 12.8977C11.1877 12.9179 11.0797 12.9314 10.9718 12.9314Z" fill="white"/>
<path d="M10.8308 14.8127C10.6554 14.8127 10.4868 14.7925 10.3182 14.7587C10.0821 14.7048 9.93368 14.4754 9.98764 14.2394C10.0416 14.0033 10.2709 13.8549 10.507 13.9088C10.6959 13.9493 10.8848 13.9561 11.0736 13.9223C11.2692 13.8886 11.4581 13.8212 11.6267 13.7132C11.8358 13.5851 12.1056 13.6525 12.227 13.8549C12.3552 14.064 12.2877 14.3338 12.0854 14.4552C11.8156 14.6238 11.5188 14.7318 11.2085 14.779C11.0804 14.806 10.9589 14.8127 10.8308 14.8127Z" fill="white"/>
<path d="M10.6009 16.6074C10.4255 16.6074 10.2501 16.5939 10.0815 16.5669C9.84539 16.5264 9.68351 16.3038 9.72398 16.061C9.76445 15.8249 9.98704 15.6631 10.2299 15.7035C10.4794 15.744 10.729 15.744 10.9786 15.7035C11.2012 15.6631 11.417 15.5956 11.6194 15.4944C11.8352 15.3865 12.0983 15.4742 12.2062 15.69C12.3141 15.9059 12.2264 16.1689 12.0106 16.2769C11.7273 16.4185 11.4305 16.5129 11.1202 16.5669C10.9449 16.5939 10.7762 16.6074 10.6009 16.6074Z" fill="white"/>
<path d="M9.42777 20.553C6.53409 20.553 3.62692 20.2832 0.766969 19.7435C0.591594 19.7098 0.456691 19.5749 0.41622 19.3995C0.375749 19.2242 0.449946 19.0488 0.59834 18.9476C1.95412 18.0235 3.42457 17.2883 4.96921 16.7622C6.12264 16.371 7.32328 16.0877 8.53066 15.9325C8.77349 15.8988 8.98934 16.0674 9.02306 16.3102C9.05679 16.5531 8.88816 16.7689 8.64533 16.8026C7.49191 16.951 6.35197 17.2208 5.25251 17.5986C4.13281 17.983 3.05358 18.4754 2.03506 19.0825C5.09737 19.5817 8.20015 19.7705 11.2692 19.6424C12.6992 19.5817 14.1426 19.4535 15.5726 19.2646C15.3365 18.8127 14.9723 18.2933 14.4125 17.8481C13.4479 17.0725 12.3956 16.9106 11.856 16.8768C11.6132 16.8633 11.4311 16.6542 11.4446 16.4182C11.4581 16.1753 11.6672 15.9932 11.9033 16.0067C12.544 16.0404 13.7986 16.236 14.9588 17.1669C15.9031 17.9223 16.382 18.8397 16.6181 19.4737C16.6653 19.5951 16.6519 19.7368 16.5844 19.8515C16.517 19.9661 16.4023 20.0403 16.2741 20.0606C14.635 20.3034 12.9622 20.4653 11.3097 20.5327C10.6891 20.5395 10.0618 20.553 9.42777 20.553Z" fill="white"/>
</svg>
