<svg width="37" height="35" fill="none" xmlns="http://www.w3.org/2000/svg"><path d="M6.45 34.21a2.734 2.734 0 01-2.536-1.725 2.977 2.977 0 01-1.417-.034 2.85 2.85 0 01-1.794-1.44 2.868 2.868 0 01-.137-2.217c.148-.422.377-.788.674-1.096a2.75 2.75 0 01-.206-3.028 2.716 2.716 0 011.783-1.314c0-.012-.012-.035-.012-.046a2.702 2.702 0 01.263-2.08 2.704 2.704 0 011.657-1.28c.023-.01.057-.01.08-.022a2.721 2.721 0 01.24-2.16 2.704 2.704 0 011.657-1.28c.022-.01.057-.01.08-.022a2.721 2.721 0 01.24-2.16 2.716 2.716 0 011.782-1.314c0-.011-.012-.034-.012-.046a2.702 2.702 0 01.263-2.079 2.704 2.704 0 011.657-1.28c.023-.011.057-.011.08-.023a2.721 2.721 0 01.24-2.16 2.704 2.704 0 011.657-1.279c.023-.011.057-.011.08-.023-.012-.022-.012-.057-.023-.08a2.702 2.702 0 01.263-2.08 2.704 2.704 0 011.656-1.279 2.794 2.794 0 011.063-.08 3.08 3.08 0 01.697-1.405c.537-.617 1.257-.971 1.988-.971.731 0 1.451.354 1.988.982.343.4.583.891.686 1.406a2.613 2.613 0 011.028.068 2.701 2.701 0 011.92 3.44 2.73 2.73 0 011.988 3.462 2.716 2.716 0 011.737 1.302c.365.628.457 1.371.262 2.08 0 .011-.011.034-.011.045.034.012.069.012.103.023a2.7 2.7 0 011.92 3.44 2.73 2.73 0 011.988 3.462 2.74 2.74 0 011.988 3.428c.034.01.068.01.102.022a2.7 2.7 0 011.691 1.28 2.73 2.73 0 01-.205 3.016c.308.32.548.709.697 1.143a2.82 2.82 0 01-.217 2.274 2.849 2.849 0 01-1.828 1.336 2.933 2.933 0 01-1.337-.011c-.137.331-.343.64-.606.891-.514.514-1.2.8-1.93.8a2.726 2.726 0 01-2-.868l-.057.057c-.515.514-1.2.8-1.931.8a2.725 2.725 0 01-2-.869l-.057.057c-.514.514-1.2.8-1.931.8a2.678 2.678 0 01-1.965-.845c-.035.034-.058.068-.092.091-.137.137-.891.834-1.965.8-.72-.023-1.394-.389-1.897-.949a1.7 1.7 0 00-.137.15c-.514.513-1.2.799-1.93.799a2.726 2.726 0 01-2-.868l-.058.057c-.514.514-1.2.8-1.93.8-.778 0-1.475-.32-1.977-.846a40.32 40.32 0 01-.069.069c-.503.582-1.2.88-1.93.88zm-2-3.485c.126 0 .24.035.355.092a.73.73 0 01.388.651c0 .686.583 1.257 1.257 1.257.332 0 .651-.137.891-.377s.366-.549.366-.88v-.057a.74.74 0 01.731-.743.741.741 0 01.754.732v.057a1.277 1.277 0 001.257 1.222c.332 0 .64-.126.88-.365.24-.24.366-.549.366-.88a.741.741 0 111.485 0c0 .674.571 1.257 1.257 1.257.331 0 .64-.126.88-.366s.365-.548.365-.88c0-.388.297-.708.675-.742a.749.749 0 01.8.605c.148.777.696 1.371 1.29 1.394.48.012.857-.366.857-.366.332-.33.366-.754.366-.89v-.058c0-.411.331-.731.731-.743.412 0 .743.32.754.72v.057a1.248 1.248 0 002.126.846c.24-.24.365-.549.365-.88a.742.742 0 111.486 0c0 .674.571 1.257 1.256 1.257.332 0 .64-.126.88-.366s.366-.548.366-.88c0-.41.331-.742.743-.742a.74.74 0 01.742.742c0 .675.572 1.257 1.257 1.257.332 0 .64-.125.88-.365s.366-.549.366-.88a.72.72 0 01.4-.651.74.74 0 01.765.045c.331.229.72.297 1.12.206a1.3 1.3 0 00.868-.628c.183-.32.217-.709.092-1.074a1.421 1.421 0 00-.766-.857.745.745 0 01-.434-.64.769.769 0 01.365-.686c.595-.343.812-1.131.469-1.714a1.235 1.235 0 00-.777-.582 1.3 1.3 0 00-.948.114.087.087 0 01-.046.023.734.734 0 01-1.005-.274.746.746 0 01.308-1.04 1.263 1.263 0 00.434-1.691c-.331-.595-1.12-.8-1.714-.469a.747.747 0 01-1.017-.274.747.747 0 01.275-1.017c.594-.343.8-1.12.468-1.714a1.277 1.277 0 00-1.714-.468.747.747 0 01-1.017-.275.747.747 0 01.274-1.017c.595-.342.812-1.13.469-1.713a1.235 1.235 0 00-.777-.583 1.3 1.3 0 00-.948.114.087.087 0 01-.046.023.734.734 0 01-1.006-.274.746.746 0 01.309-1.04c.274-.171.468-.423.548-.743.092-.32.046-.662-.114-.948-.331-.594-1.12-.8-1.714-.469a.747.747 0 01-1.017-.274A.747.747 0 0124 9.804c.595-.342.8-1.12.469-1.714a1.277 1.277 0 00-1.714-.468.747.747 0 01-1.017-.274.747.747 0 01.274-1.017c.595-.343.812-1.131.469-1.714a1.235 1.235 0 00-.777-.583 1.288 1.288 0 00-.983.137.75.75 0 01-.8-.022.74.74 0 01-.32-.732 1.707 1.707 0 00-.377-1.337c-.25-.285-.57-.457-.868-.457-.297 0-.617.172-.868.457a1.653 1.653 0 00-.377 1.337.721.721 0 01-.32.72.754.754 0 01-.789.034l-.057-.034a1.25 1.25 0 00-.948-.126 1.251 1.251 0 00-.88 1.531c.091.32.297.595.583.755.24.137.377.388.377.65a.71.71 0 01-.103.367.747.747 0 01-1.017.274 1.25 1.25 0 00-.948-.126 1.25 1.25 0 00-.286 2.297c.24.137.377.388.377.651a.71.71 0 01-.103.366.747.747 0 01-1.017.274 1.25 1.25 0 00-.948-.126 1.25 1.25 0 00-.88 1.531c.092.32.297.594.583.754.354.206.48.663.274 1.017a.747.747 0 01-1.017.274l-.045-.022a1.254 1.254 0 00-1.714.468A1.254 1.254 0 008.7 16.66c.24.137.377.389.377.651a.71.71 0 01-.103.366.747.747 0 01-1.017.274 1.25 1.25 0 00-.948-.126 1.25 1.25 0 00-.286 2.297c.24.137.377.389.377.651a.71.71 0 01-.1.367.747.747 0 01-1.017.274 1.25 1.25 0 00-.949-.125 1.251 1.251 0 00-.88 1.53c.092.32.298.595.583.755.354.205.48.662.274 1.017a.747.747 0 01-1.016.274l-.058-.034a1.267 1.267 0 00-1.713.468 1.267 1.267 0 00.468 1.714c.24.137.388.4.377.674a.745.745 0 01-.434.64 1.468 1.468 0 00-.766.845c-.125.355-.103.743.057 1.063.172.331.48.571.857.686.4.114.823.045 1.166-.172.228.012.366-.023.503-.023z" fill="#494949"/><path d="M19.555 10.81h-.011c-.628-.011-1.543-.32-2.09-1.154-.664-1.017-.332-2.068-.264-2.274a.737.737 0 01.949-.445c.388.137.582.56.445.948-.011.023-.183.514.114.948.298.457.857.48.88.48a.742.742 0 01.72.766.746.746 0 01-.742.731zm2.629 6.136h-.011c-.628-.012-1.543-.32-2.091-1.154-.663-1.017-.331-2.068-.263-2.274a.737.737 0 01.949-.446c.388.138.582.56.445.949-.011.023-.183.514.114.948.297.457.857.48.88.48a.742.742 0 01.72.766.746.746 0 01-.743.73zm4.137 6.135h-.011c-.629-.011-1.543-.32-2.091-1.154-.663-1.017-.332-2.068-.263-2.274a.737.737 0 01.948-.445c.389.137.583.56.446.948-.012.023-.183.514.114.948.297.457.857.48.88.48a.742.742 0 01.72.766.746.746 0 01-.743.731zm4.387 6.25h-.012c-.628-.011-1.542-.32-2.09-1.154-.663-1.017-.332-2.068-.263-2.273a.737.737 0 01.948-.446c.389.137.583.56.446.948-.012.023-.183.514.114.949.297.457.857.48.88.48a.742.742 0 01.72.765.746.746 0 01-.743.731zM14.563 17.506h-.011c-.629-.012-1.543-.32-2.091-1.154-.663-1.017-.332-2.069-.263-2.274a.738.738 0 01.948-.446c.389.137.583.56.446.949-.011.022-.183.514.114.948.297.457.857.48.88.48a.742.742 0 01.72.765.754.754 0 01-.743.732zm4.752 5.804h-.011c-.629-.012-1.543-.32-2.091-1.154-.663-1.017-.332-2.068-.263-2.274a.737.737 0 01.948-.446c.389.137.583.56.446.949-.011.023-.183.514.114.948.297.457.857.48.88.48a.742.742 0 01.72.766.746.746 0 01-.743.73zm-8.558 0h-.012c-.628-.012-1.542-.32-2.09-1.154-.663-1.017-.332-2.068-.264-2.274a.737.737 0 01.949-.446c.388.137.583.56.445.949-.011.023-.182.514.115.948.297.457.857.48.88.48a.742.742 0 01.72.766.746.746 0 01-.743.73zM7.66 29.8h-.01c-.629-.011-1.543-.32-2.091-1.154-.663-1.017-.332-2.068-.263-2.274a.737.737 0 01.948-.445c.389.137.583.56.446.948-.012.023-.183.514.114.948.297.457.857.48.88.48a.742.742 0 01.72.766.746.746 0 01-.743.731zm7.417-.765h-.011c-.629-.012-1.543-.32-2.091-1.155-.663-1.017-.332-2.068-.263-2.273a.737.737 0 01.948-.446c.389.137.583.56.446.948-.012.023-.183.515.114.949.297.457.857.48.88.48a.742.742 0 01.72.765c-.023.412-.343.732-.743.732zm8.877.765h-.012c-.628-.011-1.542-.32-2.09-1.154-.663-1.017-.332-2.068-.263-2.274a.737.737 0 01.948-.445c.389.137.583.56.446.948-.012.023-.183.514.114.948.297.457.857.48.88.48a.742.742 0 01.72.766.746.746 0 01-.743.731z" fill="#494949"/></svg>