<svg width="21" height="24" fill="none" xmlns="http://www.w3.org/2000/svg"><path d="M8.297 1.69a27.245 27.245 0 01-.043 7.643 14.106 14.106 0 016.573-.06 21.378 21.378 0 01-.376-3.767c-.017-1.48.128-2.772.308-3.817a11.871 11.871 0 00-3.261-.453c-1.31.008-2.405.23-3.2.453z" stroke="#fff" stroke-miterlimit="10" stroke-linecap="round" stroke-linejoin="round"/><path d="M8.254 9.332a20.063 20.063 0 010 6.821 14.105 14.105 0 016.573-.06 15.388 15.388 0 01-.376-3.483c.008-1.318.18-2.456.376-3.338m-6.573 6.881c.172.848.317 1.832.377 2.927A18.9 18.9 0 018.426 23a11.082 11.082 0 016.402-.017 19.423 19.423 0 01-.3-3.8c.017-1.173.145-2.217.3-3.09m-.001-6.17c.574-.206 2.106-.847 3.073-2.516 1.172-2.012 1.06-4.69-.257-6.907a7.801 7.801 0 00-1.138 4.048c0 1.729.564 3.013.873 3.612" stroke="#fff" stroke-miterlimit="10" stroke-linecap="round" stroke-linejoin="round"/><path d="M14.775 10.325a6.036 6.036 0 013.424.813 6.4 6.4 0 012.14 2.097c-.668.094-2.251.223-3.912-.668a6.498 6.498 0 01-1.9-1.532m-6.084 6.761a10.07 10.07 0 01-2.68-2.002 10.835 10.835 0 01-1.976-2.884 5.837 5.837 0 00-.796-2.688A5.51 5.51 0 00.517 7.997a4.922 4.922 0 00.745 3.038 4.465 4.465 0 002.516 1.875" stroke="#fff" stroke-miterlimit="10" stroke-linecap="round" stroke-linejoin="round"/><path d="M5.164 15.126a7.977 7.977 0 01-.008-3.517 7.503 7.503 0 01.933-2.294c.24.47.702 1.566.624 3.013a6.072 6.072 0 01-1.155 3.269m1.952 1.857a8.693 8.693 0 00-2.91.864 9.124 9.124 0 00-2.285 1.627c.445.128 2.037.505 3.723-.368 1.147-.6 1.797-1.49 2.088-1.943" stroke="#fff" stroke-miterlimit="10" stroke-linecap="round" stroke-linejoin="round"/></svg>