<svg width="23" height="23" fill="none" xmlns="http://www.w3.org/2000/svg"><path d="M3.514 10.992a.532.532 0 01-.432-.225c-1.507-2.187-1.643-5-.353-7.003.841-1.29 2.268-2.22 3.91-2.548 1.7-.337 3.47-.008 4.993.913a.516.516 0 01.176.713.516.516 0 01-.713.177c-2.58-1.563-6.01-.97-7.476 1.306-1.066 1.659-.938 4.006.336 5.85.16.24.104.56-.136.72a.49.49 0 01-.305.097z" fill="#fff"/><path d="M16.551 10.711a.526.526 0 01-.297-.954c.682-.48 2.309-1.834 2.605-4.046.08-.585.24-1.803-.473-2.788-1.033-1.435-3.525-1.82-5.24-.818-1.843 1.09-2.044 3.342-2.06 3.59a.52.52 0 11-1.041-.064c.016-.312.264-3.06 2.572-4.423 2.18-1.282 5.265-.77 6.61 1.106.954 1.322.746 2.868.658 3.534-.353 2.62-2.244 4.198-3.037 4.76a.462.462 0 01-.297.103z" fill="#fff"/><path d="M19.557 18.276a.532.532 0 01-.433-.224.523.523 0 01.136-.722c.36-.24.673-.528.946-.857.977-1.194 1.442-3.085 1.178-4.824-.185-1.202-.681-2.123-1.403-2.596-.392-.257-.89-.4-1.474-.417a.52.52 0 11.032-1.042c.777.016 1.458.217 2.02.585.969.641 1.634 1.811 1.858 3.31.305 2.011-.248 4.23-1.402 5.641a5.46 5.46 0 01-1.162 1.058.559.559 0 01-.296.088zm-17.661-.69a.52.52 0 01-.425-.216C-.09 15.206-.436 12.626.566 10.631c.416-.825 1.057-1.53 1.89-2.083a.518.518 0 01.722.144c.16.24.096.56-.144.721-.681.457-1.202 1.018-1.539 1.683-.833 1.643-.513 3.806.818 5.657a.525.525 0 01-.12.73.462.462 0 01-.297.103z" fill="#fff"/><path d="M11.864 22.852H9.588a.52.52 0 01-.52-.521v-1.723a7.332 7.332 0 01-1.555.313H7.48c-2.276.208-3.967-.289-5.024-1.475-.513-.577-.722-1.146-.866-1.563-.617-1.714-.352-3.309-.016-4.343a.522.522 0 011.018.16c0 .417.096.778.288 1.066.353.553.994.73 1.867.97.481.136 1.034.288 1.619.529a8.914 8.914 0 011.498.785 8.84 8.84 0 01-.232-1.202c-.152-1.234 0-2.22.168-3.357a21.04 21.04 0 01.577-2.613.534.534 0 01.473-.376.537.537 0 01.513.32c.216.521.489 1.026.801 1.49.353.522.593.762.874 1.035.208.2.44.432.737.793.457.569 1.85 2.291 1.635 4.383-.024.24-.065.473-.129.705 2.604-.337 4.616-1.57 5.217-3.245.16-.457.232-.954.192-1.483a.534.534 0 01.377-.537.514.514 0 01.6.249c.353.64 1.09 2.324.433 4.207-.609 1.723-2.01 2.5-2.852 2.965-1.795.993-3.638 1.033-4.848.905v1.042a.55.55 0 01-.537.52zm-1.755-1.042h1.234v-1.122a.54.54 0 01.184-.4.512.512 0 01.425-.113c.986.177 2.925.329 4.776-.697.753-.417 1.899-1.05 2.372-2.404.16-.465.216-.93.2-1.346-.97 2.06-3.526 3.438-6.787 3.622a.536.536 0 01-.465-.233.525.525 0 01-.032-.52 3.54 3.54 0 00.345-1.178c.168-1.667-1.018-3.141-1.41-3.63a6.294 6.294 0 00-.65-.697 6.715 6.715 0 01-1.017-1.202c-.088-.129-.169-.265-.257-.4-.08.376-.152.76-.208 1.145-.168 1.106-.305 1.987-.168 3.077.112.922.4 1.835.85 2.7a.514.514 0 01-.153.658.522.522 0 01-.673-.04c-.834-.802-1.747-1.41-2.717-1.812-.529-.216-1.025-.352-1.498-.488-.841-.233-1.635-.45-2.204-1.074a5.29 5.29 0 00.305 1.867c.136.377.288.801.665 1.226.817.93 2.22 1.306 4.15 1.13h.033a6.506 6.506 0 001.963-.505.518.518 0 01.73.473v1.963h.007z" fill="#fff"/></svg>