<svg width="41" height="32" viewBox="0 0 41 32" fill="none" xmlns="http://www.w3.org/2000/svg">
<path d="M23.417 31.1724L10.625 31.1361C10.5646 31.1361 10.492 31.1241 10.4316 31.112C9.27088 30.8218 8.44871 29.7578 8.48498 28.5971C8.50916 27.6298 9.10161 26.7956 9.94795 26.3966L8.89607 23.8455C8.60589 23.8817 8.30362 23.9059 8.00136 23.9301H7.97717C6.45375 24.0147 2.40337 24.2203 0.819494 21.778C-1.0062 18.9246 1.78675 14.8621 2.1132 14.4147C3.02 13.1573 4.25325 12.1296 5.72831 11.4163C6.09103 10.0016 6.86483 8.10341 8.49707 6.43489C11.8946 2.94069 16.4527 3.00114 17.7706 3.09787C18.0124 3.12205 18.2422 3.25504 18.3752 3.46059C18.5082 3.66613 18.5323 3.93212 18.4477 4.16184C17.6134 6.32608 16.4165 8.27268 14.8689 9.95328C14.083 10.8117 13.2245 11.5855 12.2935 12.2747C12.4991 12.4077 12.7167 12.5649 12.9223 12.7583C13.2245 13.0364 13.5026 13.3508 13.7202 13.7014C16.3318 11.9724 19.2699 10.8722 22.2442 10.4853C24.759 10.1588 28.217 9.72356 31.5661 11.8032C32.6301 12.4681 36.1364 14.9588 36.6079 19.3236C37.2487 25.2843 31.82 28.9356 31.2034 29.3225C29.5469 30.3744 27.5762 31.0032 25.5207 31.1241C25.5087 31.1241 25.4966 31.1241 25.4845 31.1241L23.417 31.1724C23.417 31.1724 23.4291 31.1724 23.417 31.1724ZM23.9127 18.6465C24.3238 18.6465 24.6623 18.9608 24.6986 19.3719C24.7348 19.8072 24.4084 20.182 23.9731 20.2183C21.6517 20.3875 19.7535 22.1165 19.4754 24.317C19.161 26.7714 20.9626 29.1291 23.4895 29.6006L25.4361 29.5764C27.2255 29.4676 28.9182 28.9236 30.3449 28.0168C30.5626 27.8838 35.5802 24.6193 35.0361 19.5049C34.6371 15.8414 31.6386 13.7135 30.7318 13.1452C27.8542 11.3558 24.8558 11.7427 22.4497 12.045C19.3908 12.4319 16.5132 13.5926 13.8895 15.4908C13.6961 15.6359 13.4422 15.6722 13.2003 15.6117C12.9706 15.5392 12.7772 15.3699 12.6925 15.1402C12.5716 14.8137 12.3298 14.3422 11.8704 13.919C11.3867 13.4717 10.8548 13.2782 10.5041 13.1936C10.2019 13.121 9.96004 12.8671 9.91168 12.5528C9.86332 12.2384 10.0084 11.9241 10.2744 11.7669C11.556 10.9689 12.7167 10.0016 13.7323 8.8893C14.893 7.61978 15.8361 6.19308 16.5616 4.63338C14.8447 4.69383 11.9429 5.17746 9.64569 7.52305C8.11017 9.09484 7.45727 10.8964 7.19128 12.1417C7.13083 12.3835 6.96156 12.589 6.73183 12.6858C5.36559 13.2782 4.21697 14.185 3.4069 15.3215C3.38272 15.3578 0.879947 18.9004 2.17365 20.9074C3.26181 22.588 6.6472 22.4188 7.92881 22.3462H7.95299C8.40035 22.322 8.8477 22.2737 9.28297 22.189C9.64569 22.1286 10.0084 22.322 10.1535 22.6606L11.7736 26.6384C11.8704 26.8802 11.8462 27.1462 11.7011 27.3639C11.556 27.5815 11.3263 27.7145 11.0603 27.7266C10.5283 27.7387 10.093 28.1618 10.081 28.6455C10.0689 29.0566 10.359 29.4314 10.7701 29.5644L20.0558 29.5885C18.5323 28.2344 17.6618 26.2031 17.9278 24.1115C18.3026 21.1734 20.8054 18.8641 23.8764 18.6465C23.8643 18.6586 23.8885 18.6465 23.9127 18.6465Z" fill="#494949"/>
<path d="M36.2218 21.548C35.8107 21.548 35.4601 21.2215 35.4359 20.7984C35.4117 20.3631 35.7503 20.0004 36.1855 19.9762C37.2374 19.9157 38.1563 19.2991 38.519 18.3802C38.9664 17.2437 38.3256 16.2039 38.253 16.0951C38.0958 15.8533 37.5155 15.0674 36.4757 14.9344C35.5568 14.8135 34.8555 15.285 34.6621 15.4301C34.3115 15.6961 33.8278 15.6235 33.5618 15.285C33.2958 14.9465 33.3684 14.4507 33.7069 14.1848C34.1059 13.8825 35.2062 13.1933 36.6812 13.3747C38.3981 13.5923 39.3291 14.8618 39.5709 15.2366C39.7644 15.5389 40.6953 17.1349 39.9699 18.9485C39.3895 20.4356 37.9266 21.4512 36.2581 21.5359C36.246 21.548 36.2339 21.548 36.2218 21.548Z" fill="#494949"/>
<path d="M6.65931 17.8486C7.24025 17.8486 7.7112 17.3777 7.7112 16.7968C7.7112 16.2158 7.24025 15.7449 6.65931 15.7449C6.07837 15.7449 5.60742 16.2158 5.60742 16.7968C5.60742 17.3777 6.07837 17.8486 6.65931 17.8486Z" fill="#494949"/>
<path d="M5.81412 13.0364C5.42722 13.0364 5.10077 12.7583 5.04032 12.3714C4.82269 10.9326 4.78641 8.75625 5.87457 6.4832C7.95417 2.13056 12.5003 1.00613 13.395 0.824766C13.794 0.740131 14.1809 0.981945 14.3018 1.35676C14.5194 2.04592 14.5799 2.74718 14.471 3.44844C14.4227 3.81116 14.326 4.16179 14.193 4.50033C14.0358 4.89932 13.5763 5.10487 13.1773 4.9356C12.7784 4.77842 12.5728 4.31897 12.7421 3.91998C12.8267 3.69026 12.8993 3.46053 12.9234 3.23081C12.9597 3.01318 12.9597 2.79555 12.9476 2.56582C11.5088 3.00109 8.71588 4.19806 7.30127 7.16028C6.39447 9.07061 6.41865 10.9205 6.61211 12.1295C6.67256 12.5527 6.38238 12.9638 5.95921 13.0243C5.88666 13.0363 5.85039 13.0364 5.81412 13.0364Z" fill="#494949"/>
</svg>
