<svg width="26" height="20" fill="none" xmlns="http://www.w3.org/2000/svg"><path d="M14.994 19.46l-7.987-.022a.656.656 0 01-.121-.015c-.725-.181-1.238-.846-1.216-1.57a1.571 1.571 0 01.914-1.375l-.657-1.593c-.181.023-.37.038-.559.053h-.015c-.951.053-3.48.181-4.47-1.344-1.14-1.781.605-4.318.808-4.598A5.965 5.965 0 013.95 7.124a6.89 6.89 0 011.729-3.11c2.121-2.182 4.968-2.145 5.79-2.084a.514.514 0 01.378.226.498.498 0 01.045.438 11.303 11.303 0 01-2.235 3.617 11.221 11.221 0 01-1.608 1.45c.129.082.265.18.393.301.189.174.362.37.498.589a12.646 12.646 0 015.323-2.008c1.57-.204 3.73-.476 5.82.823.665.415 2.854 1.97 3.149 4.696.4 3.722-2.99 6.002-3.375 6.243a7.454 7.454 0 01-3.548 1.125h-.023l-1.29.03c.007 0 0 0 0 0zm.31-7.821a.491.491 0 01.038.982c-1.45.105-2.635 1.185-2.809 2.559-.196 1.532.929 3.005 2.507 3.299l1.215-.015a6.446 6.446 0 003.065-.974c.136-.083 3.27-2.121 2.93-5.315-.25-2.288-2.122-3.616-2.688-3.971-1.797-1.118-3.67-.876-5.172-.687-1.91.241-3.707.966-5.345 2.151a.508.508 0 01-.43.076.492.492 0 01-.317-.295 1.979 1.979 0 00-.514-.762c-.302-.28-.634-.4-.853-.453a.493.493 0 01-.37-.4.485.485 0 01.227-.49c.8-.5 1.525-1.103 2.159-1.798a10.454 10.454 0 001.767-2.657c-1.073.037-2.885.34-4.319 1.804a5.905 5.905 0 00-1.533 2.884.5.5 0 01-.287.34c-.853.37-1.57.936-2.076 1.646-.015.022-1.578 2.234-.77 3.488.68 1.05 2.794.943 3.594.898h.015a6.09 6.09 0 00.83-.098.502.502 0 01.544.294l1.012 2.484a.484.484 0 01-.046.453.501.501 0 01-.4.227c-.332.007-.604.272-.611.574-.008.256.173.49.43.573l5.798.015c-.95-.845-1.495-2.113-1.328-3.42.234-1.834 1.796-3.276 3.714-3.412-.008.008.008 0 .023 0z" fill="#fff"/><path d="M22.99 13.451a.49.49 0 01-.023-.982c.657-.037 1.23-.422 1.457-.996.28-.71-.121-1.359-.166-1.427-.098-.151-.46-.642-1.11-.725-.574-.075-1.012.22-1.133.31a.491.491 0 01-.687-.09.492.492 0 01.091-.688c.25-.189.936-.619 1.857-.506 1.072.136 1.654.929 1.805 1.163.12.189.702 1.185.249 2.318-.363.928-1.276 1.563-2.318 1.615-.008.008-.015.008-.023.008zM4.53 11.14a.657.657 0 100-1.313.657.657 0 000 1.314zm-.528-3.004a.487.487 0 01-.483-.415c-.136-.899-.159-2.258.52-3.677C5.34 1.326 8.178.624 8.737.51a.491.491 0 01.566.332c.136.43.174.868.106 1.306a2.81 2.81 0 01-.174.657.484.484 0 01-.634.271.484.484 0 01-.272-.634 1.8 1.8 0 00.113-.43c.023-.136.023-.272.015-.415-.898.272-2.642 1.019-3.525 2.869A5.309 5.309 0 004.5 7.57a.493.493 0 01-.408.558c-.046.008-.068.008-.091.008z" fill="#fff"/></svg>