<svg width="35" height="39" fill="none" xmlns="http://www.w3.org/2000/svg"><path d="M14.293 3.111a44.26 44.26 0 01.398 6.113 43.63 43.63 0 01-.466 6.127 22.592 22.592 0 015.304-.672 22.67 22.67 0 015.222.576 34.224 34.224 0 01-.603-6.03 33.633 33.633 0 01.493-6.114 19.009 19.009 0 00-5.222-.726c-2.097.014-3.851.37-5.126.726zm-.068 12.24c.26 1.48.452 3.248.466 5.25a32.132 32.132 0 01-.466 5.674 22.592 22.592 0 015.304-.672 22.67 22.67 0 015.222.576 24.644 24.644 0 01-.603-5.579c.013-2.11.288-3.933.603-5.345" stroke="#494949" stroke-width="1.989" stroke-miterlimit="10" stroke-linecap="round" stroke-linejoin="round"/><path d="M14.225 26.275c.274 1.357.507 2.933.603 4.687a30.27 30.27 0 01-.33 6.277c1.207-.37 2.92-.74 4.99-.767a17.75 17.75 0 015.263.74 31.083 31.083 0 01-.48-6.085c.027-1.878.233-3.55.48-4.948m.001-9.882c.918-.33 3.372-1.357 4.92-4.03 1.878-3.22 1.7-7.51-.41-11.06a12.494 12.494 0 00-1.824 6.482c0 2.77.905 4.825 1.398 5.784m-4.167 3.467c.932-.054 3.152-.068 5.482 1.303a10.247 10.247 0 013.427 3.358c-1.07.15-3.605.356-6.264-1.07a10.408 10.408 0 01-3.043-2.453" stroke="#494949" stroke-width="1.989" stroke-miterlimit="10" stroke-linecap="round" stroke-linejoin="round"/><path d="M14.526 28.906a16.13 16.13 0 01-4.29-3.207A17.351 17.351 0 017.07 21.08a9.338 9.338 0 00-1.274-4.304 8.826 8.826 0 00-3.961-3.563c-.055.603-.165 2.755 1.192 4.865a7.15 7.15 0 004.03 3.002" stroke="#494949" stroke-width="1.989" stroke-miterlimit="10" stroke-linecap="round" stroke-linejoin="round"/><path d="M9.276 24.63c-.247-1.11-.576-3.18-.014-5.633.37-1.617.987-2.865 1.494-3.673a9.641 9.641 0 011 4.824 9.724 9.724 0 01-1.85 5.236m3.128 2.974a13.92 13.92 0 00-4.66 1.384 14.615 14.615 0 00-3.66 2.604c.714.206 3.263.809 5.963-.589 1.837-.96 2.878-2.385 3.344-3.111" stroke="#494949" stroke-width="1.989" stroke-miterlimit="10" stroke-linecap="round" stroke-linejoin="round"/></svg>