<svg width="37" height="37" fill="none" xmlns="http://www.w3.org/2000/svg"><path d="M3.944 15.86c-1.529 0-2.486-.385-2.918-1.167-.63-1.156.245-2.557.77-3.397C3.56 8.482 6.444 7.07 8.65 6.38c1.296-1.728 2.16-2.3 2.942-1.95.875.386.793 1.681.758 2.16a.759.759 0 01-.805.712.759.759 0 01-.712-.805c.012-.14.012-.257.012-.35-.246.233-.607.63-1.133 1.342a.754.754 0 01-.397.28c-1.984.584-4.67 1.821-6.245 4.343-.233.362-.922 1.482-.724 1.867.245.456 2.288.713 6.736-.502a.768.768 0 01.934.526.758.758 0 01-.526.934c-1.505.408-2.918.7-4.097.84-.525.058-1.004.082-1.448.082z" fill="#494949"/><path d="M6.863 10.992a.619.619 0 100-1.237.619.619 0 000 1.237z" fill="#494949"/><path d="M24.374 30.44c-2.674 0-4.705-1.424-5.569-2.16-2.591 1.413-5.708 1.261-7.926-.443-2.16-1.658-2.592-4.11-2.685-5.253-.91-.42-2.743-1.494-3.42-3.736-.572-1.89.046-3.537.327-4.167a.755.755 0 011.003-.374c.386.175.55.63.374 1.004-.21.467-.665 1.693-.257 3.094.63 2.113 2.708 2.848 2.942 2.93a.768.768 0 01.525.735c0 .304.024 2.965 2.101 4.564 1.857 1.425 4.542 1.46 6.678.07a.761.761 0 01.957.106c.105.116 2.685 2.731 6.222 1.96 2.615-.571 3.957-2.59 4.307-3.198a.748.748 0 01.573-.373c2.23-.245 4.039-1.798 4.412-3.76.374-1.984-.887-3.571-1.156-3.875a.761.761 0 010-.992c1.6-1.891 1.962-4.436.911-6.479-1.132-2.241-3.502-2.848-3.969-2.942a.762.762 0 01-.607-.735 4.193 4.193 0 00-2.895-3.946c-1.751-.56-3.7.117-4.74 1.646a.758.758 0 01-.548.327.74.74 0 01-.607-.21C18.735 1.77 14.988 1.034 12 2.4 8.906 3.824 7.856 6.86 7.61 7.747a.75.75 0 01-.934.525.75.75 0 01-.525-.934c.292-1.05 1.53-4.623 5.218-6.315 3.316-1.518 7.39-.876 10.39 1.564 1.494-1.61 3.817-2.253 5.93-1.576a5.704 5.704 0 013.922 4.786c1.098.339 3.28 1.284 4.471 3.607 1.238 2.417.934 5.37-.724 7.67.584.852 1.506 2.568 1.11 4.646-.48 2.51-2.65 4.494-5.37 4.938-.63.969-2.253 2.988-5.102 3.607a7.329 7.329 0 01-1.622.175z" fill="#494949"/><path d="M8.707 36.079a.66.66 0 01-.21-.035.754.754 0 01-.526-.934l2.37-8.3a.755.755 0 01.934-.526.755.755 0 01.525.934l-2.37 8.3a.744.744 0 01-.723.56zm6.327-.024a.745.745 0 01-.747-.654l-.993-6.899a.771.771 0 01.643-.863.771.771 0 01.863.642l.993 6.899a.771.771 0 01-.642.864c-.047.011-.082.011-.117.011zm9.071.14c-.059 0-.117-.012-.175-.023a.745.745 0 01-.56-.91l1.377-5.85a.745.745 0 01.91-.56c.409.105.666.502.56.911l-1.377 5.848a.749.749 0 01-.735.584zm7.12 0a.76.76 0 01-.735-.56L28.4 27.99a.766.766 0 01.537-.934.756.756 0 01.934.537l2.09 7.646a.766.766 0 01-.537.934c-.07.012-.14.023-.199.023z" fill="#494949"/></svg>