<svg width="23" height="22" viewBox="0 0 23 22" fill="none" xmlns="http://www.w3.org/2000/svg">
<path d="M3.774 21.7329C3.05339 21.7329 2.4398 21.2835 2.19009 20.6556C1.9047 20.7198 1.5979 20.7127 1.30538 20.6342C0.813084 20.4986 0.406405 20.1704 0.185228 19.7352C-0.0288133 19.3143 -0.0573522 18.8077 0.0996118 18.3511C0.192363 18.0871 0.335058 17.8588 0.520561 17.6661C0.113881 17.1382 0.042534 16.389 0.392136 15.7754C0.641851 15.3402 1.04853 15.0548 1.50515 14.955C1.50515 14.9478 1.49802 14.9335 1.49802 14.9264C1.37673 14.4841 1.43381 14.0274 1.66212 13.6279C1.89043 13.2283 2.2543 12.9501 2.69665 12.8288C2.71092 12.8217 2.73233 12.8217 2.7466 12.8145C2.61104 12.3793 2.65384 11.8942 2.89642 11.4661C3.12474 11.0665 3.48861 10.7883 3.93096 10.667C3.94523 10.6598 3.96663 10.6598 3.9809 10.6527C3.84534 10.2175 3.88815 9.73233 4.13073 9.30425C4.38045 8.86903 4.78713 8.58364 5.24375 8.48376C5.24375 8.47662 5.23661 8.46235 5.23661 8.45522C5.11532 8.01287 5.1724 7.55624 5.40071 7.1567C5.62902 6.75715 5.9929 6.4789 6.43525 6.35761C6.44952 6.35047 6.47092 6.35047 6.48519 6.34334C6.34963 5.90812 6.39244 5.42296 6.63502 4.99488C6.86333 4.59533 7.2272 4.31708 7.66956 4.19579C7.68383 4.18865 7.70523 4.18865 7.7195 4.18152C7.71236 4.16725 7.71236 4.14584 7.70523 4.13157C7.58394 3.68922 7.64102 3.2326 7.86933 2.83306C8.09764 2.43351 8.46151 2.15526 8.90386 2.03397C9.12504 1.97689 9.34622 1.95548 9.56739 1.98402C9.63161 1.66296 9.78144 1.3633 10.0026 1.10645C10.3379 0.721176 10.7874 0.5 11.2441 0.5C11.7007 0.5 12.1502 0.721176 12.4855 1.11359C12.6995 1.3633 12.8494 1.6701 12.9136 1.99116C13.1276 1.96262 13.3417 1.97689 13.5557 2.03397C14.0052 2.14812 14.3833 2.43351 14.6116 2.83306C14.8542 3.26114 14.8899 3.7463 14.7543 4.18152C15.1967 4.28854 15.6034 4.56679 15.846 4.99488C16.0885 5.42296 16.1313 5.90812 15.9958 6.34334C16.4381 6.45036 16.8377 6.72861 17.0803 7.1567C17.3086 7.54911 17.3656 8.01287 17.2444 8.45522C17.2444 8.46235 17.2372 8.47662 17.2372 8.48376C17.2586 8.49089 17.28 8.49089 17.3014 8.49803C17.7509 8.61218 18.1291 8.89757 18.3574 9.29712C18.6 9.7252 18.6356 10.2104 18.5001 10.6456C18.9424 10.7526 19.3491 11.0309 19.5917 11.4589C19.8343 11.887 19.8771 12.3722 19.7415 12.8074C20.1839 12.9144 20.5834 13.1927 20.826 13.6208C21.0686 14.0417 21.1042 14.5197 20.983 14.9478C21.0044 14.955 21.0258 14.955 21.0472 14.9621C21.4967 15.0762 21.8748 15.3616 22.1031 15.7612C22.4527 16.3748 22.3814 17.1168 21.9747 17.6447C22.1673 17.8445 22.3171 18.0871 22.4099 18.3582C22.5669 18.8362 22.5169 19.3499 22.2743 19.778C22.0318 20.199 21.6179 20.4986 21.1328 20.6128C20.8545 20.677 20.5691 20.6699 20.298 20.6057C20.2124 20.8126 20.084 21.0052 19.9199 21.1622C19.5988 21.4832 19.1707 21.6616 18.7141 21.6616C18.2218 21.6616 17.7795 21.4547 17.4655 21.1194C17.4513 21.1336 17.437 21.1479 17.4299 21.155C17.1088 21.4761 16.6807 21.6545 16.2241 21.6545C15.7318 21.6545 15.2894 21.4476 14.9755 21.1122C14.9612 21.1265 14.947 21.1408 14.9398 21.1479C14.6188 21.469 14.1907 21.6473 13.7341 21.6473C13.2775 21.6473 12.8494 21.469 12.5283 21.1408C12.5212 21.1336 12.514 21.1265 12.5069 21.1194C12.4855 21.1408 12.4712 21.1622 12.4498 21.1764C12.3642 21.2621 11.8933 21.6973 11.2226 21.6759C10.7732 21.6616 10.3522 21.4333 10.0383 21.0837C10.0097 21.1122 9.98121 21.1408 9.95267 21.1764C9.63161 21.4975 9.20352 21.6759 8.7469 21.6759C8.2546 21.6759 7.81225 21.469 7.49832 21.1336C7.48405 21.1479 7.46978 21.1622 7.46265 21.1693C7.14159 21.4904 6.7135 21.6687 6.25688 21.6687C5.77172 21.6687 5.3365 21.469 5.02257 21.1408C5.0083 21.155 4.99403 21.1693 4.97976 21.1836C4.66584 21.5474 4.23062 21.7329 3.774 21.7329ZM2.52542 19.5569C2.6039 19.5569 2.67525 19.5783 2.7466 19.6139C2.89642 19.6924 2.98918 19.8494 2.98918 20.0206C2.98918 20.4487 3.35305 20.8054 3.774 20.8054C3.9809 20.8054 4.18068 20.7198 4.3305 20.57C4.48033 20.4202 4.55882 20.2275 4.55882 20.0206C4.55882 20.0063 4.55882 19.9992 4.55882 19.9849C4.55882 19.7281 4.76572 19.5212 5.01544 19.5212C5.27229 19.514 5.47919 19.7209 5.48633 19.9778C5.48633 19.9921 5.48633 19.9992 5.48633 20.0135C5.5006 20.4273 5.8502 20.7769 6.27115 20.7769C6.47806 20.7769 6.67069 20.6984 6.82052 20.5486C6.97035 20.3987 7.04883 20.2061 7.04883 19.9992C7.04883 19.7424 7.25574 19.5354 7.51259 19.5354C7.76944 19.5354 7.97635 19.7424 7.97635 19.9992C7.97635 20.4202 8.33309 20.784 8.76117 20.784C8.96808 20.784 9.16071 20.7055 9.31054 20.5557C9.46037 20.4059 9.53885 20.2132 9.53885 20.0063C9.53885 19.7638 9.72436 19.564 9.9598 19.5426C10.1952 19.5212 10.4164 19.6853 10.4592 19.9207C10.552 20.4059 10.8945 20.7769 11.2655 20.7912C11.5651 20.7983 11.8006 20.5628 11.8006 20.5628C12.0075 20.3559 12.0289 20.092 12.0289 20.0063C12.0289 19.9921 12.0289 19.9849 12.0289 19.9707C12.0289 19.7138 12.2358 19.514 12.4855 19.5069C12.7423 19.5069 12.9493 19.7067 12.9564 19.9564C12.9564 19.9635 12.9564 19.9778 12.9564 19.9921C12.9635 20.1918 13.042 20.3773 13.1847 20.52C13.3345 20.6699 13.5272 20.7484 13.7341 20.7484C13.941 20.7484 14.1336 20.6699 14.2834 20.52C14.4333 20.3702 14.5118 20.1776 14.5118 19.9707C14.5118 19.7138 14.7187 19.5069 14.9755 19.5069C15.2324 19.5069 15.4393 19.7138 15.4393 19.9707C15.4393 20.3916 15.796 20.7555 16.2241 20.7555C16.431 20.7555 16.6236 20.677 16.7735 20.5272C16.9233 20.3773 17.0018 20.1847 17.0018 19.9778C17.0018 19.7209 17.2087 19.514 17.4655 19.514C17.7224 19.514 17.9293 19.7209 17.9293 19.9778C17.9293 20.3987 18.286 20.7626 18.7141 20.7626C18.921 20.7626 19.1137 20.6841 19.2635 20.5343C19.4133 20.3845 19.4918 20.1918 19.4918 19.9849C19.4918 19.8137 19.5845 19.6567 19.7415 19.5783C19.8913 19.4998 20.0768 19.5069 20.2195 19.6068C20.4264 19.7495 20.669 19.7923 20.9187 19.7352C21.1542 19.6853 21.3468 19.5426 21.461 19.3428C21.5751 19.143 21.5965 18.9005 21.5181 18.6721C21.4396 18.4296 21.2683 18.2441 21.04 18.137C20.8831 18.0657 20.776 17.9087 20.7689 17.7375C20.7618 17.5663 20.8474 17.4022 20.9972 17.3094C21.3682 17.0954 21.5038 16.6031 21.2897 16.2392C21.1899 16.0608 21.0186 15.9324 20.8046 15.8753C20.6048 15.8254 20.3908 15.8468 20.2124 15.9467C20.2053 15.9538 20.191 15.9609 20.1839 15.9609C19.9627 16.0894 19.6844 16.0109 19.556 15.7897C19.4276 15.5685 19.4989 15.2903 19.7201 15.1547C19.7272 15.1476 19.7415 15.1405 19.7486 15.1405C20.1054 14.9264 20.2267 14.4484 20.0198 14.0845C19.8129 13.7135 19.3206 13.5851 18.9496 13.792C18.7284 13.9204 18.443 13.8419 18.3146 13.6208C18.1861 13.3996 18.2646 13.1142 18.4858 12.9858C18.8568 12.7717 18.9852 12.2866 18.7783 11.9156C18.5643 11.5446 18.0791 11.4161 17.7081 11.623C17.4869 11.7515 17.2015 11.673 17.0731 11.4518C16.9447 11.2306 17.0232 10.9452 17.2444 10.8168C17.6154 10.6028 17.7509 10.1105 17.5369 9.7466C17.437 9.56824 17.2658 9.43981 17.0517 9.38273C16.8519 9.33279 16.6379 9.35419 16.4595 9.45408C16.4524 9.46122 16.4381 9.46835 16.431 9.46835C16.2098 9.59677 15.9316 9.51829 15.8031 9.29712C15.6747 9.07594 15.7461 8.79768 15.9672 8.66213C15.9744 8.65499 15.9886 8.64786 15.9958 8.64786C16.167 8.54084 16.2883 8.38387 16.3382 8.1841C16.3953 7.98433 16.3668 7.77028 16.2669 7.59192C16.06 7.22091 15.5677 7.09249 15.1967 7.29939C14.9755 7.42782 14.6901 7.34934 14.5617 7.12816C14.4333 6.90698 14.5118 6.62159 14.7329 6.49317C15.1039 6.27913 15.2324 5.79397 15.0255 5.42296C14.8114 5.05195 14.3263 4.92353 13.9552 5.13044C13.7341 5.25886 13.4487 5.18038 13.3203 4.9592C13.1918 4.73803 13.2703 4.45264 13.4915 4.32421C13.8625 4.11017 13.9981 3.61788 13.784 3.254C13.6841 3.07564 13.5129 2.94721 13.2989 2.89013C13.0919 2.83306 12.8708 2.86873 12.6853 2.97575C12.5283 3.0685 12.3357 3.06137 12.1858 2.96148C12.036 2.86159 11.9575 2.68323 11.9861 2.50486C12.0289 2.2052 11.9433 1.89841 11.7506 1.6701C11.5937 1.49173 11.3939 1.38471 11.2084 1.38471C11.0229 1.38471 10.8231 1.49173 10.6661 1.6701C10.4735 1.89841 10.3808 2.19806 10.4307 2.50486C10.4592 2.68323 10.3808 2.85446 10.2309 2.95435C10.0811 3.05423 9.89559 3.06137 9.73863 2.97575L9.70295 2.95435C9.52458 2.84732 9.31054 2.82592 9.11077 2.87586C8.911 2.93294 8.73976 3.06137 8.63988 3.23973C8.53286 3.4181 8.51145 3.63214 8.5614 3.83192C8.61847 4.03169 8.7469 4.20292 8.92527 4.30281C9.0751 4.38843 9.16071 4.54539 9.16071 4.70949C9.16071 4.78797 9.13931 4.86645 9.0965 4.9378C8.96808 5.15898 8.68269 5.23746 8.46151 5.10903C8.28314 5.00201 8.0691 4.98061 7.86933 5.03055C7.66956 5.08763 7.49832 5.21605 7.39844 5.39442C7.18439 5.77256 7.31282 6.25059 7.69096 6.46463C7.84079 6.55025 7.92641 6.70721 7.92641 6.87131C7.92641 6.94979 7.905 7.02827 7.86219 7.09962C7.73377 7.3208 7.44838 7.39928 7.2272 7.27085C7.04883 7.16383 6.83479 7.14243 6.63502 7.19237C6.43525 7.24945 6.26401 7.37787 6.16413 7.55624C6.05711 7.73461 6.0357 7.94865 6.08565 8.14843C6.14272 8.3482 6.27115 8.51943 6.44952 8.61932C6.67069 8.74774 6.74918 9.03313 6.62075 9.25431C6.49233 9.47548 6.20694 9.55397 5.98576 9.42554L5.95722 9.41127C5.57908 9.19723 5.10105 9.32565 4.88701 9.7038C4.67297 10.0819 4.8014 10.56 5.17954 10.774C5.32937 10.8596 5.41498 11.0166 5.41498 11.1807C5.41498 11.2592 5.39358 11.3376 5.35077 11.409C5.22234 11.6302 4.93696 11.7087 4.71578 11.5802C4.53741 11.4732 4.32337 11.4518 4.1236 11.5017C3.92382 11.5588 3.75259 11.6872 3.65271 11.8656C3.43866 12.2438 3.56709 12.7218 3.94523 12.9358C4.09506 13.0214 4.18068 13.1784 4.18068 13.3425C4.18068 13.421 4.15927 13.4995 4.11646 13.5708C3.98804 13.792 3.70265 13.8705 3.48147 13.742C3.3031 13.635 3.08906 13.6136 2.88929 13.6636C2.68952 13.7206 2.51828 13.8491 2.4184 14.0274C2.31138 14.2058 2.28997 14.4198 2.33992 14.6196C2.39699 14.8194 2.52542 14.9906 2.70379 15.0905C2.92496 15.2189 3.00345 15.5043 2.87502 15.7255C2.7466 15.9467 2.46121 16.0252 2.24003 15.8967L2.20436 15.8753C1.83335 15.6613 1.34819 15.7969 1.13415 16.1679C0.920105 16.5389 1.05567 17.024 1.42667 17.2381C1.5765 17.3237 1.66925 17.4878 1.66212 17.659C1.65498 17.8302 1.54796 17.9872 1.391 18.0586C1.16269 18.1656 0.998587 18.3511 0.912971 18.5865C0.834489 18.8077 0.848758 19.0503 0.948644 19.2501C1.05567 19.457 1.2483 19.6068 1.48375 19.6781C1.73346 19.7495 1.99745 19.7067 2.21149 19.5711C2.35419 19.5783 2.4398 19.5569 2.52542 19.5569Z" fill="white"/>
<path d="M11.9571 7.12135H11.9499C11.5575 7.11421 10.9867 6.92158 10.6443 6.40074C10.2305 5.76575 10.4374 5.10935 10.4802 4.98093C10.5658 4.73835 10.8298 4.61706 11.0724 4.70268C11.3149 4.78829 11.4362 5.05228 11.3506 5.29486C11.3435 5.30913 11.2365 5.61592 11.422 5.88704C11.6075 6.17243 11.9571 6.1867 11.9713 6.1867C12.2282 6.19383 12.428 6.40787 12.4208 6.66472C12.4137 6.92158 12.2068 7.12135 11.9571 7.12135Z" fill="white"/>
<path d="M13.5987 10.9524H13.5915C13.1991 10.9453 12.6283 10.7526 12.2859 10.2318C11.8721 9.5968 12.079 8.94041 12.1218 8.81198C12.2074 8.5694 12.4714 8.44811 12.714 8.53373C12.9565 8.61935 13.0778 8.88333 12.9922 9.12591C12.9851 9.14018 12.8781 9.44697 13.0636 9.71809C13.2491 10.0035 13.5987 10.0178 13.6129 10.0178C13.8698 10.0249 14.0696 10.2389 14.0624 10.4958C14.0553 10.7526 13.8484 10.9524 13.5987 10.9524Z" fill="white"/>
<path d="M16.1807 14.7835H16.1736C15.7812 14.7763 15.2104 14.5837 14.8679 14.0628C14.4541 13.4279 14.661 12.7715 14.7038 12.643C14.7894 12.4005 15.0534 12.2792 15.296 12.3648C15.5386 12.4504 15.6599 12.7144 15.5742 12.957C15.5671 12.9712 15.4601 13.278 15.6456 13.5491C15.8311 13.8345 16.1807 13.8488 16.195 13.8488C16.4518 13.8559 16.6516 14.07 16.6445 14.3268C16.6373 14.5837 16.4304 14.7835 16.1807 14.7835Z" fill="white"/>
<path d="M18.9209 18.6863H18.9138C18.5214 18.6792 17.9506 18.4865 17.6081 17.9657C17.1943 17.3307 17.4012 16.6743 17.444 16.5459C17.5297 16.3033 17.7936 16.182 18.0362 16.2676C18.2788 16.3532 18.4001 16.6172 18.3145 16.8598C18.3073 16.8741 18.2003 17.1809 18.3858 17.452C18.5713 17.7374 18.9209 17.7516 18.9352 17.7516C19.1921 17.7588 19.3918 17.9728 19.3847 18.2297C19.3776 18.4865 19.1706 18.6863 18.9209 18.6863Z" fill="white"/>
<path d="M8.8389 11.302H8.83177C8.43936 11.2949 7.86858 11.1022 7.52611 10.5814C7.1123 9.94641 7.3192 9.29002 7.36201 9.16159C7.44763 8.91901 7.71161 8.79772 7.95419 8.88334C8.19677 8.96896 8.31806 9.23294 8.23245 9.47552C8.22531 9.48979 8.11829 9.79658 8.3038 10.0677C8.4893 10.3531 8.8389 10.3674 8.85317 10.3674C9.11002 10.3745 9.30979 10.5885 9.30266 10.8454C9.29552 11.0951 9.08862 11.302 8.8389 11.302Z" fill="white"/>
<path d="M11.8077 14.9265H11.8005C11.4081 14.9194 10.8373 14.7267 10.4949 14.2059C10.081 13.5709 10.288 12.9145 10.3308 12.7861C10.4164 12.5435 10.6804 12.4222 10.9229 12.5079C11.1655 12.5935 11.2868 12.8575 11.2012 13.1C11.1941 13.1143 11.087 13.4211 11.2725 13.6922C11.458 13.9776 11.8076 13.9919 11.8219 13.9919C12.0788 13.999 12.2785 14.2131 12.2714 14.4699C12.2643 14.7268 12.0574 14.9265 11.8077 14.9265Z" fill="white"/>
<path d="M6.4639 14.9265H6.45677C6.06436 14.9194 5.49358 14.7267 5.15111 14.2059C4.7373 13.5709 4.9442 12.9145 4.98701 12.7861C5.07263 12.5435 5.33661 12.4222 5.57919 12.5079C5.82177 12.5935 5.94307 12.8575 5.85745 13.1C5.85031 13.1143 5.74329 13.4211 5.9288 13.6922C6.1143 13.9776 6.4639 13.9919 6.47817 13.9919C6.73502 13.999 6.93479 14.2131 6.92766 14.4699C6.92052 14.7268 6.71362 14.9265 6.4639 14.9265Z" fill="white"/>
<path d="M4.53031 18.9788H4.52317C4.13076 18.9716 3.55998 18.779 3.21752 18.2582C2.8037 17.6232 3.01061 16.9668 3.05342 16.8384C3.13903 16.5958 3.40302 16.4745 3.6456 16.5601C3.88818 16.6457 4.00947 16.9097 3.92385 17.1523C3.91672 17.1665 3.8097 17.4733 3.9952 17.7445C4.1807 18.0299 4.53031 18.0441 4.54458 18.0441C4.80143 18.0513 5.0012 18.2653 4.99406 18.5221C4.98693 18.779 4.78002 18.9788 4.53031 18.9788Z" fill="white"/>
<path d="M9.16117 18.5012H9.15403C8.76162 18.4941 8.19084 18.3015 7.84838 17.7806C7.43456 17.1456 7.64147 16.4892 7.68428 16.3608C7.76989 16.1182 8.03388 15.9969 8.27646 16.0826C8.51904 16.1682 8.64033 16.4322 8.55471 16.6747C8.54758 16.689 8.44056 16.9958 8.62606 17.2669C8.81156 17.5523 9.16117 17.5666 9.17543 17.5666C9.43228 17.5737 9.63206 17.7878 9.62492 18.0446C9.61065 18.3015 9.41088 18.5012 9.16117 18.5012Z" fill="white"/>
<path d="M14.7041 18.9788H14.697C14.3046 18.9716 13.7338 18.779 13.3913 18.2582C12.9775 17.6232 13.1844 16.9668 13.2272 16.8384C13.3129 16.5958 13.5768 16.4745 13.8194 16.5601C14.062 16.6457 14.1833 16.9097 14.0977 17.1523C14.0905 17.1665 13.9835 17.4733 14.169 17.7445C14.3545 18.0299 14.7041 18.0441 14.7184 18.0441C14.9753 18.0513 15.175 18.2653 15.1679 18.5221C15.1608 18.779 14.9538 18.9788 14.7041 18.9788Z" fill="white"/>
</svg>
