<svg width="41" height="32" fill="none" xmlns="http://www.w3.org/2000/svg"><path d="M23.417 31.172l-12.792-.036c-.06 0-.133-.012-.193-.024-1.161-.29-1.983-1.354-1.947-2.515.024-.967.617-1.801 1.463-2.2l-1.052-2.551c-.29.036-.592.06-.895.084h-.024c-1.523.085-5.574.29-7.158-2.152-1.825-2.853.968-6.916 1.294-7.363.907-1.258 2.14-2.285 3.615-2.999.363-1.414 1.137-3.313 2.77-4.981C11.894 2.94 16.452 3 17.77 3.098a.823.823 0 01.604.363.798.798 0 01.073.7 18.104 18.104 0 01-3.58 5.792 18.024 18.024 0 01-2.575 2.322c.206.133.424.29.63.483.302.278.58.593.797.943 2.612-1.729 5.55-2.829 8.524-3.216 2.515-.326 5.973-.761 9.322 1.318 1.064.665 4.57 3.156 5.042 7.52.64 5.961-4.788 9.613-5.405 10-1.656 1.051-3.627 1.68-5.682 1.801h-.037l-2.067.048s.012 0 0 0zm.496-12.526a.786.786 0 01.06 1.572c-2.321.17-4.22 1.898-4.498 4.099-.314 2.454 1.488 4.812 4.014 5.284l1.947-.025c1.79-.108 3.482-.652 4.909-1.56.218-.132 5.235-3.397 4.691-8.511-.399-3.664-3.397-5.791-4.304-6.36-2.878-1.79-5.876-1.402-8.282-1.1-3.06.387-5.937 1.548-8.56 3.446a.813.813 0 01-.69.12.789.789 0 01-.507-.47 3.17 3.17 0 00-.823-1.222 3.082 3.082 0 00-1.366-.725.79.79 0 01-.592-.641.777.777 0 01.362-.786 16.461 16.461 0 003.458-2.878 16.742 16.742 0 002.83-4.256c-1.717.06-4.62.544-6.916 2.89-1.536 1.572-2.189 3.373-2.455 4.619a.8.8 0 01-.46.544c-1.365.592-2.514 1.499-3.324 2.636-.024.036-2.527 3.578-1.233 5.585 1.088 1.681 4.473 1.512 5.755 1.44h.024a9.733 9.733 0 001.33-.158.804.804 0 01.87.472l1.62 3.977a.775.775 0 01-.072.726.803.803 0 01-.64.363c-.533.012-.968.435-.98.918-.012.412.278.786.69.92l9.285.023c-1.524-1.354-2.394-3.385-2.128-5.477.375-2.938 2.877-5.247 5.948-5.465-.012.013.012 0 .037 0z" fill="#494949"/><path d="M36.222 21.548a.793.793 0 01-.786-.75.785.785 0 01.75-.822c1.051-.06 1.97-.677 2.333-1.596.447-1.136-.193-2.176-.266-2.285-.157-.242-.737-1.028-1.777-1.16-.92-.122-1.62.35-1.814.495a.787.787 0 01-1.1-.145.788.788 0 01.145-1.1c.399-.303 1.5-.992 2.974-.81 1.717.217 2.648 1.487 2.89 1.862.193.302 1.124 1.898.399 3.711-.58 1.488-2.043 2.503-3.712 2.588-.012.012-.024.012-.036.012zM6.66 17.849a1.052 1.052 0 100-2.104 1.052 1.052 0 000 2.104zm-.846-4.813a.78.78 0 01-.774-.665c-.217-1.438-.254-3.615.835-5.888 2.08-4.352 6.625-5.477 7.52-5.658a.787.787 0 01.907.532c.217.689.278 1.39.169 2.091a4.497 4.497 0 01-.278 1.052.775.775 0 01-1.016.436.775.775 0 01-.435-1.016c.085-.23.157-.46.181-.69.037-.217.037-.434.025-.664C11.508 3 8.716 4.198 7.3 7.16c-.907 1.91-.882 3.76-.689 4.97.06.423-.23.834-.653.894a.763.763 0 01-.145.012z" fill="#494949"/></svg>