<svg width="33" height="33" fill="none" xmlns="http://www.w3.org/2000/svg"><path d="M5.88 22.725a.709.709 0 01-.626-.389 9.478 9.478 0 01-.983-5.347 8.868 8.868 0 012.117-4.871c3.1-3.544 7.659-3.014 8.166-2.939a.7.7 0 01.594.8.7.7 0 01-.799.594c-.173-.022-4.256-.562-6.913 2.473C5.74 15.012 5.21 17.81 5.977 20.37a24.66 24.66 0 015.207-6.351 25.105 25.105 0 014.126-2.906.695.695 0 01.951.27.704.704 0 01-.27.95 22.878 22.878 0 00-3.889 2.733 23.237 23.237 0 00-5.585 7.26.703.703 0 01-.637.4zm21.757.011s-.011 0 0 0a.709.709 0 01-.649-.422 21.41 21.41 0 00-4.245-6.34 21.537 21.537 0 00-4.537-3.597.703.703 0 01.713-1.21 23.31 23.31 0 014.829 3.824 22.698 22.698 0 013.77 5.217c.691-2.754.032-5.628-1.848-7.529-2.192-2.225-5.174-2.214-6.027-2.16a.702.702 0 11-.086-1.404c1.004-.066 4.504-.076 7.118 2.57 2.636 2.658 3.273 6.924 1.588 10.63a.679.679 0 01-.627.42z" fill="#494949"/><path d="M32.141 12.873a.711.711 0 01-.324-.075 21.114 21.114 0 00-7.302-2.258 21.232 21.232 0 00-4.829-.01.704.704 0 01-.778-.616.704.704 0 01.616-.778 22.216 22.216 0 015.153.01 22.6 22.6 0 015.8 1.491c-1.544-2.182-3.877-3.575-6.351-3.694-2.506-.119-4.429 1.08-5.358 1.815a.703.703 0 01-.983-.12.703.703 0 01.119-.982c1.08-.853 3.327-2.247 6.287-2.117 3.64.173 7.01 2.668 8.587 6.362a.68.68 0 01-.172.789.662.662 0 01-.465.183zm-30.636-.766a.664.664 0 01-.453-.173.69.69 0 01-.206-.756c1.21-3.662 4.44-6.244 8.037-6.417 3.878-.183 6.481 2.506 6.968 3.046a.702.702 0 01-.055.994.702.702 0 01-.993-.054c-.41-.454-2.614-2.733-5.855-2.582-2.474.12-4.742 1.61-6.05 3.846a19.531 19.531 0 016.277-1.34 19.381 19.381 0 015.455.53.703.703 0 01.518.842.703.703 0 01-.842.519 18.23 18.23 0 00-5.066-.497 18.31 18.31 0 00-7.421 1.955.55.55 0 01-.314.087zm14.94 17.65a5.905 5.905 0 01-2.82-.723.701.701 0 01-.335-.821 42.674 42.674 0 001.578-7.8c.313-2.862.334-5.757.075-8.62a.71.71 0 01.637-.766.71.71 0 01.767.637 45.138 45.138 0 01-1.545 16.365 4.451 4.451 0 001.891.303 4.465 4.465 0 001.944-.562c.206-1.07.368-2.15.476-3.23.4-4.17-.011-8.404-1.21-12.584a.689.689 0 01.486-.865.689.689 0 01.864.486c1.242 4.354 1.674 8.76 1.253 13.103a35.02 35.02 0 01-.55 3.673.72.72 0 01-.303.443 5.87 5.87 0 01-2.884.929 1.65 1.65 0 01-.324.032z" fill="#494949"/><path d="M15.32 8.985a.713.713 0 01-.691-.562c-.53-2.646.486-5.4 2.603-7.01 2.29-1.74 5.509-1.88 7.994-.335a.708.708 0 01-.141 1.264 9.766 9.766 0 00-3.597 2.182 9.919 9.919 0 00-2.495 3.9.703.703 0 11-1.329-.465 11.222 11.222 0 012.852-4.45 11.42 11.42 0 012.603-1.859c-1.707-.518-3.597-.216-5.034.875C16.4 3.811 15.58 6.015 16 8.142a.716.716 0 01-.55.832c-.044 0-.087.01-.13.01zm3.058 11.731c-.27 0-.53-.043-.789-.119a.702.702 0 01-.464-.875.702.702 0 01.875-.464 1.262 1.262 0 001.242-.292.701.701 0 01.994.022c.27.28.259.724-.022.994-.26.237-.691.561-1.318.68a2.818 2.818 0 01-.518.054zm-.227 3.014c-.28 0-.55-.033-.82-.087a.694.694 0 01-.53-.831.694.694 0 01.832-.53c.302.065.605.076.907.022.313-.054.616-.162.886-.335a.697.697 0 01.961.227.697.697 0 01-.227.961 3.69 3.69 0 01-1.404.519 2.88 2.88 0 01-.605.054zm-.366 2.874c-.28 0-.561-.022-.832-.065a.7.7 0 11.238-1.383c.4.065.8.065 1.2 0a3.809 3.809 0 001.025-.335.701.701 0 01.627 1.253 5.128 5.128 0 01-1.426.465c-.28.043-.55.065-.832.065z" fill="#494949"/><path d="M15.904 32.923c-4.634 0-9.29-.432-13.87-1.297a.717.717 0 01-.561-.55.685.685 0 01.291-.724 29.078 29.078 0 017-3.5 29.555 29.555 0 015.704-1.329.697.697 0 01.788.605.697.697 0 01-.605.789c-1.847.237-3.672.67-5.433 1.274a27.48 27.48 0 00-5.153 2.377 73 73 0 0014.788.896 78.047 78.047 0 006.892-.604 7.057 7.057 0 00-1.858-2.269c-1.545-1.242-3.23-1.502-4.094-1.556a.699.699 0 01-.659-.734.699.699 0 01.735-.659c1.026.054 3.035.367 4.893 1.858a8.553 8.553 0 012.657 3.694.703.703 0 01-.55.94 75.527 75.527 0 01-7.95.756c-.995.011-2 .033-3.015.033z" fill="#494949"/></svg>