<svg width="23" height="23" viewBox="0 0 23 23" fill="none" xmlns="http://www.w3.org/2000/svg">
<path d="M3.51435 10.9918C3.34607 10.9918 3.18581 10.9117 3.08164 10.7674C1.57518 8.57987 1.43896 5.76727 2.72906 3.764C3.57044 2.47389 4.99677 1.54437 6.63945 1.21583C8.33823 0.879284 10.1091 1.20782 11.6316 2.12933C11.88 2.28157 11.9601 2.6021 11.8079 2.84249C11.6556 3.0909 11.3351 3.17103 11.0947 3.01878C8.51451 1.45623 5.08491 2.04919 3.61852 4.32491C2.55278 5.98362 2.68098 8.33146 3.95507 10.1745C4.11533 10.4149 4.05924 10.7354 3.81884 10.8956C3.72269 10.9678 3.61852 10.9918 3.51435 10.9918Z" fill="white"/>
<path d="M16.5514 10.7115C16.3911 10.7115 16.2229 10.6313 16.1267 10.4871C15.9584 10.2547 16.0225 9.92619 16.2549 9.75791C16.936 9.27713 18.5627 7.92291 18.8592 5.7113C18.9393 5.12634 19.0996 3.90835 18.3864 2.92274C17.3527 1.4884 14.8606 1.10377 13.1458 2.10541C11.3028 3.19519 11.1025 5.44687 11.0865 5.69527C11.0705 5.98375 10.8221 6.2001 10.5336 6.18407C10.2451 6.16805 10.0288 5.91964 10.0448 5.63117C10.0608 5.31866 10.3092 2.57017 12.617 1.20794C14.7965 -0.0741519 17.8816 0.438686 19.2278 2.31375C20.1813 3.63591 19.973 5.18244 19.8849 5.84752C19.5323 8.4678 17.6412 10.0464 16.8479 10.6073C16.7598 10.6794 16.6556 10.7115 16.5514 10.7115Z" fill="white"/>
<path d="M19.5567 18.2759C19.3884 18.2759 19.2282 18.1958 19.124 18.0515C18.9637 17.8111 19.0278 17.4906 19.2602 17.3304C19.6208 17.09 19.9333 16.8015 20.2058 16.473C21.1834 15.279 21.6481 13.3879 21.3837 11.6491C21.1994 10.4471 20.7026 9.5256 19.9814 9.05283C19.5888 8.79641 19.0919 8.65217 18.507 8.63615C18.2185 8.62814 17.9941 8.38774 18.0022 8.09927C18.0102 7.8108 18.2506 7.58643 18.539 7.59445C19.3163 7.61047 19.9974 7.8108 20.5583 8.1794C21.5279 8.82045 22.193 9.99036 22.4174 11.4888C22.7219 13.5001 22.169 15.7197 21.0151 17.13C20.6865 17.5307 20.2939 17.8913 19.8532 18.1878C19.765 18.2438 19.6609 18.2759 19.5567 18.2759Z" fill="white"/>
<path d="M1.89591 17.5864C1.73564 17.5864 1.57538 17.5143 1.47121 17.3701C-0.0913414 15.2065 -0.435904 12.6263 0.565732 10.6311C0.982413 9.80571 1.62346 9.10056 2.45682 8.54765C2.69721 8.38739 3.01774 8.4515 3.178 8.69189C3.33826 8.93228 3.27416 9.25281 3.03376 9.41307C2.35265 9.86981 1.8318 10.4307 1.49525 11.0958C0.661889 12.7385 0.982413 14.902 2.31259 16.7531C2.48086 16.9854 2.42477 17.314 2.19239 17.4823C2.10425 17.5544 2.00008 17.5864 1.89591 17.5864Z" fill="white"/>
<path d="M11.864 22.8516H9.58825C9.29978 22.8516 9.0674 22.6193 9.0674 22.3308V20.608C8.56257 20.7682 8.04172 20.8724 7.51286 20.9205H7.48081C5.20509 21.1288 3.51433 20.632 2.4566 19.4461C1.94376 18.8691 1.73542 18.3002 1.59118 17.8835C0.974175 16.1687 1.23861 14.5741 1.57516 13.5404C1.65529 13.3 1.89568 13.1478 2.1521 13.1878C2.40852 13.2279 2.59282 13.4443 2.59282 13.7007C2.59282 14.1174 2.68898 14.478 2.88129 14.7664C3.23387 15.3193 3.87492 15.4956 4.74834 15.736C5.22913 15.8722 5.78203 16.0245 6.36699 16.2649C6.87982 16.4732 7.38465 16.7376 7.86543 17.0502C7.76126 16.6575 7.68113 16.2488 7.63306 15.8482C7.48081 14.6142 7.63306 13.6286 7.80133 12.4907C7.93755 11.6093 8.12987 10.7358 8.37827 9.87844C8.44238 9.67009 8.62668 9.51785 8.85104 9.50182C9.07541 9.49381 9.27574 9.62202 9.36388 9.82234C9.58024 10.3432 9.85268 10.848 10.1652 11.3128C10.5178 11.8336 10.7582 12.074 11.0386 12.3465C11.247 12.5468 11.4793 12.7792 11.7758 13.1398C12.2326 13.7087 13.6268 15.4315 13.4105 17.5229C13.3865 17.7633 13.3464 17.9957 13.2823 18.2281C15.8865 17.8915 17.8978 16.6575 18.4988 14.9828C18.6591 14.526 18.7312 14.0292 18.6911 13.5004C18.6751 13.26 18.8354 13.0356 19.0677 12.9635C19.3001 12.8914 19.5485 12.9955 19.6687 13.2119C20.0213 13.8529 20.7585 15.5357 20.1014 17.4188C19.4924 19.1416 18.0901 19.9188 17.2488 20.3836C15.4538 21.3772 13.6108 21.4173 12.4008 21.2891V22.3308C12.3848 22.6112 12.1524 22.8516 11.864 22.8516ZM10.1091 21.8099H11.3431V20.6881C11.3431 20.5358 11.4152 20.3836 11.5274 20.2874C11.6476 20.1913 11.7999 20.1432 11.9521 20.1753C12.9377 20.3515 14.8769 20.5038 16.7279 19.4781C17.4811 19.0614 18.627 18.4284 19.0998 17.0742C19.2601 16.6094 19.3161 16.1447 19.3001 15.728C18.3305 17.7874 15.7744 19.1656 12.513 19.3499C12.3287 19.3579 12.1524 19.2698 12.0483 19.1175C11.9441 18.9653 11.9361 18.765 12.0162 18.5967C12.2005 18.212 12.3207 17.8194 12.3608 17.4188C12.5291 15.752 11.3431 14.2776 10.9505 13.7888C10.7021 13.4763 10.5098 13.292 10.3014 13.0917C10.0049 12.8032 9.70043 12.5067 9.28375 11.8897C9.19561 11.7615 9.11548 11.6253 9.02733 11.4891C8.9472 11.8657 8.87508 12.2503 8.81899 12.6349C8.65072 13.7407 8.51449 14.6222 8.65072 15.712C8.7629 16.6335 9.05137 17.547 9.50011 18.4124C9.6203 18.6367 9.5562 18.9172 9.34786 19.0695C9.13952 19.2217 8.85906 19.2057 8.67476 19.0294C7.8414 18.2281 6.9279 17.6191 5.95832 17.2184C5.42945 17.0021 4.93264 16.8659 4.45987 16.7296C3.6185 16.4972 2.8252 16.2809 2.25627 15.6559C2.24826 16.2408 2.32839 16.8739 2.56077 17.5229C2.69699 17.8995 2.84924 18.3242 3.22585 18.7489C4.04319 19.6784 5.44548 20.0551 7.37664 19.8788H7.40869C8.08179 19.8147 8.73886 19.6464 9.3719 19.3739C9.53216 19.3018 9.71646 19.3179 9.86871 19.414C10.0129 19.5102 10.1011 19.6704 10.1011 19.8467V21.8099H10.1091Z" fill="white"/>
</svg>
