<svg width="33" height="33" viewBox="0 0 33 33" fill="none" xmlns="http://www.w3.org/2000/svg">
<path d="M5.88011 22.7253C5.62086 22.7253 5.37241 22.574 5.25359 22.3364C4.41102 20.6729 4.06535 18.8257 4.27059 16.9893C4.47583 15.153 5.21038 13.4678 6.38781 12.1176C9.48803 8.57446 14.0465 9.10376 14.5542 9.17938C14.9431 9.23339 15.2024 9.58986 15.1483 9.97874C15.0943 10.3676 14.7379 10.6269 14.349 10.5729C14.1762 10.5513 10.0929 10.0111 7.43562 13.0465C5.73968 15.0125 5.21038 17.8103 5.97733 20.3704C7.36 17.9615 9.10995 15.8227 11.184 14.0187C12.4478 12.9169 13.8413 11.9447 15.3104 11.113C15.6452 10.9185 16.0773 11.0482 16.261 11.383C16.4446 11.7179 16.3258 12.15 15.9909 12.3336C14.5974 13.1114 13.2904 14.0295 12.1021 15.0665C9.79049 17.0757 7.91091 19.517 6.51744 22.3256C6.39861 22.574 6.15016 22.7253 5.88011 22.7253Z" fill="#494949"/>
<path d="M27.6365 22.7358C27.6365 22.7358 27.6257 22.7358 27.6365 22.7358C27.3556 22.7358 27.1072 22.5738 26.9883 22.3145C25.9513 19.9489 24.5255 17.81 22.7431 15.9737C21.4036 14.5802 19.8805 13.3704 18.2062 12.3766C17.8713 12.1821 17.7633 11.75 17.9578 11.4152C18.1522 11.0803 18.5843 10.9723 18.9191 11.1667C20.6907 12.2253 22.3218 13.5108 23.7477 14.9907C25.2492 16.5462 26.513 18.2961 27.5176 20.2081C28.209 17.4536 27.5501 14.5802 25.6705 12.679C23.4776 10.4538 20.4963 10.4646 19.6429 10.5186C19.254 10.5402 18.9191 10.2485 18.8975 9.85967C18.8759 9.47079 19.1676 9.13592 19.5565 9.11432C20.5611 9.0495 24.061 9.0387 26.6751 11.6852C29.3108 14.3426 29.9481 18.6094 28.263 22.3145C28.155 22.5738 27.9065 22.7358 27.6365 22.7358Z" fill="#494949"/>
<path d="M32.1411 12.8734C32.033 12.8734 31.925 12.8518 31.817 12.7978C29.5161 11.5987 27.0641 10.8426 24.5147 10.5401C22.916 10.3565 21.2957 10.3457 19.6862 10.5293C19.2973 10.5725 18.9516 10.2917 18.9084 9.91358C18.8652 9.5247 19.1461 9.17904 19.5242 9.13583C21.2417 8.94139 22.97 8.94139 24.6768 9.14663C26.6644 9.38428 28.6088 9.88118 30.4775 10.6373C28.9328 8.45529 26.5996 7.06182 24.1259 6.94299C21.6198 6.82417 19.697 8.02321 18.768 8.75775C18.4655 8.9954 18.0227 8.94139 17.785 8.63893C17.5474 8.33647 17.6014 7.89358 17.9038 7.65593C18.984 6.80256 21.2309 5.40909 24.1907 5.53871C27.831 5.71155 31.2013 8.20684 32.7784 11.9012C32.8972 12.1712 32.8324 12.4953 32.6056 12.6897C32.4867 12.8086 32.3139 12.8734 32.1411 12.8734Z" fill="#494949"/>
<path d="M1.50524 12.1066C1.34321 12.1066 1.18117 12.0526 1.05155 11.9338C0.835505 11.7502 0.749088 11.4477 0.846308 11.1776C2.05615 7.51572 5.28599 4.934 8.8831 4.76117C12.7611 4.57753 15.3644 7.26727 15.8505 7.80738C16.1097 8.09903 16.0881 8.54192 15.7965 8.80117C15.5048 9.06042 15.0619 9.03882 14.8027 8.74716C14.3922 8.29347 12.1886 6.01422 8.94792 6.16545C6.47423 6.28427 4.20577 7.77497 2.89871 10.011C4.90791 9.22246 7.01433 8.76877 9.17476 8.67155C11.0003 8.58513 12.8367 8.76877 14.6298 9.20085C15.0079 9.28727 15.2348 9.67615 15.1483 10.0434C15.0619 10.4215 14.6731 10.6483 14.3058 10.5619C12.6422 10.1622 10.9355 9.98941 9.23957 10.065C6.65786 10.1838 4.16257 10.8428 1.8185 12.0202C1.72128 12.085 1.61326 12.1066 1.50524 12.1066Z" fill="#494949"/>
<path d="M16.4446 29.7574C15.2132 29.7574 14.241 29.3685 13.6252 29.0336C13.3336 28.8716 13.1932 28.5367 13.2904 28.2127C14.0573 25.6742 14.5866 23.0493 14.8675 20.4135C15.1808 17.551 15.2024 14.656 14.9431 11.7934C14.9107 11.4045 15.1916 11.0697 15.5804 11.0265C15.9693 10.9941 16.3042 11.2749 16.3474 11.6638C16.6174 14.6236 16.585 17.6158 16.261 20.5648C15.9909 23.0817 15.494 25.5878 14.8027 28.029C15.2996 28.2235 15.9369 28.3747 16.6931 28.3315C17.514 28.2883 18.1729 28.029 18.6374 27.7698C18.8427 26.7004 19.0047 25.6202 19.1127 24.54C19.5124 20.3703 19.1019 16.1359 17.9029 11.9555C17.7949 11.5774 18.0109 11.1885 18.389 11.0913C18.7671 10.9833 19.1559 11.1993 19.2532 11.5774C20.4954 15.9306 20.9275 20.3379 20.5062 24.6804C20.3874 25.9118 20.2037 27.1433 19.9553 28.3531C19.9121 28.5367 19.8041 28.6988 19.6528 28.796C19.0479 29.1849 18.0649 29.6602 16.7687 29.725C16.6606 29.7466 16.5526 29.7574 16.4446 29.7574Z" fill="#494949"/>
<path d="M15.3199 8.98495C14.9958 8.98495 14.7042 8.7581 14.6286 8.42324C14.0993 5.77671 15.1147 3.02217 17.2319 1.41265C19.5219 -0.326498 22.741 -0.466926 25.2255 1.07778C25.4523 1.21821 25.5819 1.48826 25.5495 1.75832C25.5171 2.02837 25.3335 2.25521 25.085 2.34163C23.7456 2.79532 22.5033 3.55147 21.4879 4.52366C20.0729 5.88473 19.3491 7.38623 18.9926 8.42324C18.863 8.79051 18.4633 8.98495 18.0961 8.85532C17.7288 8.7257 17.5344 8.32602 17.664 7.95875C18.2473 6.27361 19.2303 4.72891 20.5157 3.50826C21.2827 2.77372 22.1685 2.14719 23.1191 1.65029C21.4123 1.13179 19.5219 1.43425 18.0853 2.52527C16.4001 3.81072 15.5792 6.01436 16.0004 8.14238C16.0761 8.52046 15.8276 8.88773 15.4495 8.97415C15.4063 8.97415 15.3631 8.98495 15.3199 8.98495Z" fill="#494949"/>
<path d="M18.3776 20.7162C18.1075 20.7162 17.8483 20.673 17.589 20.5974C17.2217 20.4785 17.0057 20.0897 17.1245 19.7224C17.2434 19.3551 17.6322 19.1391 17.9995 19.2579C18.1399 19.3011 18.356 19.3443 18.6152 19.2903C18.9069 19.2363 19.1121 19.0851 19.2417 18.9662C19.5226 18.6962 19.9655 18.707 20.2355 18.9878C20.5056 19.2687 20.4948 19.7116 20.2139 19.9816C19.9547 20.2193 19.5226 20.5433 18.8961 20.6622C18.7232 20.6946 18.5504 20.7162 18.3776 20.7162Z" fill="#494949"/>
<path d="M18.1512 23.7298C17.8704 23.7298 17.6003 23.6974 17.3303 23.6434C16.9522 23.557 16.7145 23.1897 16.8009 22.8116C16.8874 22.4336 17.2546 22.1959 17.6327 22.2823C17.9352 22.3471 18.2376 22.3579 18.5401 22.3039C18.8534 22.2499 19.1558 22.1419 19.4259 21.9691C19.7607 21.7638 20.1928 21.8718 20.3873 22.1959C20.5925 22.5308 20.4845 22.9629 20.1604 23.1573C19.7283 23.4274 19.253 23.6002 18.7561 23.6758C18.5509 23.719 18.3565 23.7298 18.1512 23.7298Z" fill="#494949"/>
<path d="M17.7853 26.6036C17.5045 26.6036 17.2236 26.582 16.9535 26.5388C16.5755 26.474 16.3162 26.1175 16.381 25.7287C16.4458 25.3506 16.8023 25.0913 17.1912 25.1561C17.5909 25.221 17.9905 25.221 18.3902 25.1561C18.7467 25.0913 19.0924 24.9833 19.4164 24.8213C19.7621 24.6484 20.1834 24.7889 20.3562 25.1345C20.5291 25.4802 20.3886 25.9015 20.043 26.0743C19.5893 26.3012 19.114 26.4524 18.6171 26.5388C18.3362 26.582 18.0662 26.6036 17.7853 26.6036Z" fill="#494949"/>
<path d="M15.9043 32.9227C11.2702 32.9227 6.61443 32.4906 2.03432 31.6264C1.75346 31.5724 1.53742 31.3564 1.47261 31.0755C1.4078 30.7947 1.52662 30.5138 1.76427 30.3518C3.9355 28.8719 6.29036 27.6945 8.76406 26.8519C10.6112 26.2254 12.534 25.7717 14.4676 25.5232C14.8565 25.4692 15.2021 25.7393 15.2561 26.1282C15.3102 26.517 15.0401 26.8627 14.6512 26.9167C12.8041 27.1544 10.9785 27.5864 9.21774 28.1914C7.42459 28.8071 5.69625 29.5956 4.06512 30.5678C8.9693 31.3672 13.9383 31.6697 18.8533 31.4644C21.1433 31.3672 23.455 31.162 25.745 30.8595C25.3669 30.1357 24.7836 29.304 23.8871 28.591C22.3423 27.3488 20.6572 27.0895 19.793 27.0355C19.4042 27.0139 19.1125 26.6791 19.1341 26.301C19.1557 25.9121 19.4906 25.6205 19.8687 25.6421C20.8949 25.6961 22.9041 26.0093 24.762 27.5C26.2743 28.7099 27.0413 30.179 27.4194 31.1944C27.495 31.3888 27.4734 31.6156 27.3653 31.7993C27.2573 31.9829 27.0737 32.1017 26.8684 32.1341C24.2435 32.523 21.5646 32.7823 18.9181 32.8903C17.9243 32.9011 16.9197 32.9227 15.9043 32.9227Z" fill="#494949"/>
</svg>
