<svg width="21" height="24" viewBox="0 0 21 24" fill="none" xmlns="http://www.w3.org/2000/svg">
<path d="M8.29719 1.68943C8.44268 2.78491 8.55394 4.06867 8.54538 5.50648C8.53682 6.94428 8.417 8.2366 8.25439 9.33208C9.11879 9.11812 10.2399 8.92127 11.5665 8.91271C12.8588 8.90416 13.9714 9.07532 14.8272 9.27217C14.6304 8.24516 14.4678 6.96996 14.4507 5.50648C14.4336 4.02587 14.579 2.73356 14.7588 1.68943C13.9543 1.45836 12.8331 1.23584 11.498 1.23584C10.1886 1.2444 9.09312 1.46692 8.29719 1.68943Z" stroke="white" stroke-miterlimit="10" stroke-linecap="round" stroke-linejoin="round"/>
<path d="M8.25439 9.33237C8.417 10.2567 8.53682 11.3607 8.54538 12.6102C8.55394 13.971 8.42556 15.1606 8.25439 16.1534C9.11879 15.9394 10.2399 15.7426 11.5665 15.734C12.8588 15.7255 13.9714 15.8967 14.8272 16.0935C14.6218 15.1863 14.4421 13.9967 14.4507 12.6102C14.4592 11.2922 14.6304 10.154 14.8272 9.27246" stroke="white" stroke-miterlimit="10" stroke-linecap="round" stroke-linejoin="round"/>
<path d="M8.25439 16.1532C8.42556 17.0005 8.57106 17.9847 8.63096 19.0801C8.70799 20.595 8.59673 21.9215 8.42556 22.9999C9.1787 22.7688 10.2485 22.5377 11.5408 22.5206C12.9102 22.5035 14.0484 22.7517 14.8272 22.9828C14.639 21.9472 14.502 20.6634 14.5277 19.1828C14.5448 18.0103 14.6732 16.9662 14.8272 16.0933" stroke="white" stroke-miterlimit="10" stroke-linecap="round" stroke-linejoin="round"/>
<path d="M14.8271 9.92279C15.4006 9.71738 16.9325 9.07551 17.8996 7.40662C19.0721 5.3954 18.9609 2.71662 17.6429 0.5C17.292 1.07341 16.5046 2.52834 16.5046 4.54812C16.5046 6.27691 17.0694 7.56067 17.3775 8.15976" stroke="white" stroke-miterlimit="10" stroke-linecap="round" stroke-linejoin="round"/>
<path d="M14.7755 10.3251C15.3575 10.2909 16.744 10.2823 18.1989 11.1381C19.3543 11.8228 20.0218 12.73 20.3385 13.2349C19.6709 13.3291 18.0876 13.4575 16.4273 12.5674C15.5372 12.0967 14.9125 11.489 14.5273 11.0354" stroke="white" stroke-miterlimit="10" stroke-linecap="round" stroke-linejoin="round"/>
<path d="M8.44256 17.7964C7.74078 17.437 6.748 16.8208 5.76379 15.7938C4.74534 14.7325 4.13769 13.6542 3.7868 12.9096C3.76112 12.379 3.64131 11.3177 2.99087 10.2223C2.16071 8.81012 0.97109 8.20247 0.517496 7.99707C0.483262 8.37364 0.414795 9.71731 1.26208 11.0353C2.15215 12.4132 3.44446 12.8154 3.77824 12.9096" stroke="white" stroke-miterlimit="10" stroke-linecap="round" stroke-linejoin="round"/>
<path d="M5.16441 15.1263C5.01036 14.4331 4.80496 13.1408 5.15585 11.6088C5.38693 10.5989 5.77206 9.82013 6.08872 9.31519C6.32835 9.7859 6.79051 10.8814 6.71348 12.3277C6.6279 14.0223 5.8662 15.1777 5.5581 15.597" stroke="white" stroke-miterlimit="10" stroke-linecap="round" stroke-linejoin="round"/>
<path d="M7.50988 17.4541C6.79954 17.5311 5.75541 17.7451 4.60003 18.3185C3.56447 18.832 2.81133 19.4653 2.31494 19.9446C2.75998 20.073 4.35184 20.4495 6.03784 19.5766C7.18466 18.9775 7.8351 18.0874 8.12609 17.6338" stroke="white" stroke-miterlimit="10" stroke-linecap="round" stroke-linejoin="round"/>
</svg>
