<svg width="37" height="37" viewBox="0 0 37 37" fill="none" xmlns="http://www.w3.org/2000/svg">
<path d="M5.63437 17.0088C5.36489 17.0088 5.10823 16.8805 4.94141 16.6495C2.52887 13.1462 2.31071 8.6419 4.37677 5.43373C5.7242 3.36767 8.00842 1.87908 10.6391 1.35294C13.3596 0.813972 16.1957 1.34011 18.6339 2.81587C19.0317 3.05969 19.16 3.573 18.9162 3.95798C18.6724 4.35579 18.1591 4.48411 17.7741 4.24029C13.642 1.73792 8.14958 2.68754 5.8012 6.33202C4.09445 8.98838 4.29978 12.7484 6.34017 15.6999C6.59682 16.0848 6.507 16.5982 6.12202 16.8548C5.96802 16.9703 5.8012 17.0088 5.63437 17.0088Z" fill="#494949"/>
<path d="M26.5133 16.5598C26.2566 16.5598 25.9871 16.4315 25.8331 16.2005C25.5636 15.8284 25.6663 15.3022 26.0385 15.0327C27.1292 14.2628 29.7343 12.0941 30.2091 8.55224C30.3374 7.61546 30.594 5.66489 29.4519 4.08648C27.7965 1.78943 23.8056 1.17346 21.0594 2.77755C18.1079 4.52279 17.787 8.12877 17.7614 8.52658C17.7357 8.98856 17.3379 9.33504 16.8759 9.30937C16.414 9.28371 16.0675 8.88589 16.0931 8.42392C16.1188 7.92344 16.5166 3.52184 20.2124 1.34029C23.7029 -0.71294 28.6435 0.108351 30.7994 3.11119C32.3265 5.22858 31.9928 7.70529 31.8516 8.7704C31.287 12.9667 28.2585 15.4947 26.9881 16.393C26.8469 16.5085 26.6801 16.5598 26.5133 16.5598Z" fill="#494949"/>
<path d="M31.3258 28.6737C31.0563 28.6737 30.7997 28.5453 30.6328 28.3143C30.3762 27.9294 30.4789 27.4161 30.851 27.1594C31.4285 26.7744 31.9289 26.3125 32.3653 25.7863C33.9308 23.8742 34.6751 20.8457 34.2517 18.061C33.9565 16.1361 33.1609 14.6604 32.0059 13.9033C31.3771 13.4926 30.5815 13.2616 29.6447 13.236C29.1828 13.2231 28.8234 12.8382 28.8363 12.3762C28.8491 11.9142 29.2341 11.5549 29.6961 11.5677C30.9408 11.5934 32.0316 11.9142 32.9299 12.5045C34.4826 13.5311 35.5478 15.4047 35.9071 17.8044C36.3947 21.0254 35.5093 24.58 33.6614 26.8386C33.1352 27.4802 32.5064 28.0577 31.8006 28.5325C31.6595 28.6223 31.4926 28.6737 31.3258 28.6737Z" fill="#494949"/>
<path d="M3.04208 27.5703C2.78543 27.5703 2.52877 27.4548 2.36195 27.2238C-0.14042 23.759 -0.692225 19.6269 0.911858 16.4316C1.57916 15.1098 2.60577 13.9805 3.94037 13.0951C4.32535 12.8384 4.83865 12.9411 5.09531 13.3261C5.35196 13.711 5.2493 14.2244 4.86432 14.481C3.77354 15.2125 2.93942 16.1108 2.40045 17.1759C1.06585 19.8066 1.57916 23.2714 3.70938 26.2357C3.97887 26.6079 3.88904 27.134 3.51689 27.4035C3.37573 27.519 3.20891 27.5703 3.04208 27.5703Z" fill="#494949"/>
<path d="M19.0053 36.0014H15.3609C14.8989 36.0014 14.5267 35.6292 14.5267 35.1672V32.4082C13.7183 32.6649 12.8842 32.8317 12.0372 32.9087H11.9859C8.34139 33.2423 5.6337 32.4467 3.93979 30.5475C3.1185 29.6235 2.78485 28.7124 2.55386 28.0451C1.56574 25.2989 1.98922 22.7452 2.52819 21.0898C2.65652 20.7048 3.0415 20.461 3.45215 20.5252C3.86279 20.5893 4.15794 20.9358 4.15794 21.3465C4.15794 22.0138 4.31193 22.5912 4.61992 23.0532C5.18456 23.9387 6.21117 24.221 7.60993 24.606C8.37989 24.8241 9.26534 25.0679 10.2021 25.4529C11.0234 25.7866 11.8319 26.21 12.6018 26.7105C12.435 26.0817 12.3067 25.4273 12.2297 24.7856C11.9859 22.8094 12.2297 21.231 12.4992 19.4087C12.7173 17.9971 13.0253 16.5984 13.4231 15.2253C13.5258 14.8916 13.8209 14.6478 14.1803 14.6222C14.5396 14.6093 14.8604 14.8146 15.0015 15.1355C15.348 15.9696 15.7843 16.778 16.2848 17.5223C16.8495 18.3565 17.2344 18.7414 17.6836 19.1777C18.0172 19.4986 18.3894 19.8707 18.8642 20.4482C19.5956 21.3593 21.8285 24.1183 21.482 27.4676C21.4435 27.8526 21.3794 28.2248 21.2767 28.5969C25.4473 28.058 28.6683 26.0817 29.6308 23.3997C29.8874 22.6682 30.0029 21.8726 29.9388 21.0257C29.9131 20.6407 30.1698 20.2814 30.5419 20.1659C30.9141 20.0504 31.3119 20.2172 31.5044 20.5637C32.069 21.5903 33.2496 24.2851 32.1973 27.3008C31.222 30.0598 28.9763 31.3046 27.6289 32.0489C24.7544 33.6402 21.8029 33.7043 19.8651 33.499V35.1672C19.8395 35.6164 19.4673 36.0014 19.0053 36.0014ZM16.195 34.3331H18.1712V32.5366C18.1712 32.2927 18.2867 32.0489 18.4664 31.8949C18.6589 31.7409 18.9027 31.6639 19.1465 31.7153C20.7249 31.9976 23.8304 32.2414 26.7948 30.5988C28.001 29.9315 29.8361 28.9177 30.5932 26.749C30.8499 26.0047 30.9397 25.2604 30.9141 24.5931C29.3613 27.8911 25.2677 30.0983 20.0448 30.3935C19.7496 30.4063 19.4673 30.2652 19.3005 30.0213C19.1337 29.7775 19.1208 29.4567 19.2492 29.1872C19.5443 28.5713 19.7368 27.9425 19.801 27.3008C20.0704 24.6316 18.1712 22.2704 17.5424 21.4876C17.1446 20.9872 16.8366 20.692 16.503 20.3712C16.0282 19.9092 15.5405 19.4344 14.8732 18.4463C14.7321 18.241 14.6037 18.0228 14.4626 17.8047C14.3342 18.4078 14.2188 19.0238 14.1289 19.6397C13.8594 21.4106 13.6413 22.8222 13.8594 24.5675C14.0391 26.0432 14.5011 27.5061 15.2197 28.8921C15.4122 29.2514 15.3095 29.7005 14.9759 29.9444C14.6422 30.1882 14.1931 30.1625 13.8979 29.8802C12.5633 28.5969 11.1004 27.6216 9.54766 26.98C8.70071 26.6335 7.90508 26.4154 7.14795 26.1972C5.80052 25.8251 4.53009 25.4786 3.61897 24.4776C3.60614 25.4144 3.73446 26.4282 4.10661 27.4676C4.32477 28.0708 4.56859 28.7509 5.17172 29.431C6.48066 30.9196 8.72637 31.5228 11.819 31.2405H11.8704C12.9483 31.1378 14.0006 30.8683 15.0144 30.432C15.271 30.3165 15.5662 30.3422 15.81 30.4962C16.041 30.6502 16.1822 30.9068 16.1822 31.1891V34.3331H16.195Z" fill="#494949"/>
</svg>
