<svg width="56" height="16" fill="none" xmlns="http://www.w3.org/2000/svg"><path fill-rule="evenodd" clip-rule="evenodd" d="M49.715 0h-10.63c.572 3.543 4 6.857 7.772 6.857h8.458c.114-.343.114-.8.114-1.143 0-3.2-2.515-5.714-5.715-5.714z" fill="url(#a)"/><path fill-rule="evenodd" clip-rule="evenodd" d="M40 7.429V16h5.143v-4.57h4.571c2.515 0 4.686-1.715 5.372-4H40zM21.715 0v16h4.571s1.143 0 1.715-1.143l4-8h.571V16h5.143V0h-4.572s-1.142.114-1.714 1.143l-4 8h-.571V0h-5.143zM0 16V0h5.143s1.486 0 2.286 2.286c2.057 6.057 2.285 6.857 2.285 6.857S10.171 7.657 12 2.286C12.8 0 14.286 0 14.286 0h5.143v16h-5.143V7.429h-.572L10.857 16H8.571L5.714 7.429h-.571V16H0z" fill="#4DB45F"/><defs><linearGradient id="a" x1="39.056" y1="3.429" x2="55.429" y2="3.429" gradientUnits="userSpaceOnUse"><stop stop-color="#00B4E6"/><stop offset="1" stop-color="#088CCB"/></linearGradient></defs></svg>