<svg width="9" height="9" viewBox="0 0 9 9" fill="none" xmlns="http://www.w3.org/2000/svg">
<path d="M5.25 0.237783C5.25 0.109746 5.15855 0 5.03051 0H3.98778C3.85975 0 3.75 0.109746 3.75 0.237783V3.75H0.219492C0.091455 3.75 0 3.84145 0 3.96949V5.01222C0 5.14025 0.091455 5.25 0.219492 5.25H3.75V8.76222C3.75 8.89025 3.85975 9 3.98778 9H5.03051C5.15855 9 5.25 8.89025 5.25 8.76222V5.25H8.78018C8.90821 5.25 8.99967 5.14025 8.99967 5.01222C8.99967 5.01222 8.99967 4.09753 8.99967 3.96949C8.99967 3.84145 8.90821 3.75 8.78018 3.75C8.65214 3.75 5.25 3.75 5.25 3.75V0.237783Z" fill="#636366"/>
</svg>
