<svg width="12" height="12" viewBox="0 0 12 12" fill="none" xmlns="http://www.w3.org/2000/svg">
<path d="M7 0.317044C7 0.146328 6.87806 0 6.70734 0H5.31704C5.14633 0 5 0.146328 5 0.317044V5H0.292656C0.12194 5 0 5.12194 0 5.29266V6.68296C0 6.85367 0.12194 7 0.292656 7H5V11.683C5 11.8537 5.14633 12 5.31704 12H6.70734C6.87806 12 7 11.8537 7 11.683V7H11.7069C11.8776 7 11.9996 6.85367 11.9996 6.68296C11.9996 6.68296 11.9996 5.46337 11.9996 5.29266C11.9996 5.12194 11.8776 5 11.7069 5C11.5362 5 7 5 7 5V0.317044Z" fill="#636366"/>
</svg>
