<svg width="23" height="19" fill="none" xmlns="http://www.w3.org/2000/svg"><path d="M22.36 18.79a.652.652 0 01-.296-.076 13.444 13.444 0 00-2.403-1.025c-.9-.287-1.847-.488-2.804-.593a.606.606 0 01-.402-.22l-.986-1.149-1.398 1.436a.625.625 0 01-.804.076l-1.57-1.12-1.56 1.168a.626.626 0 01-.814-.057l-1.455-1.474-1.081 1.215a.606.606 0 01-.412.201c-.91.077-1.8.259-2.652.527-.804.258-1.579.603-2.278 1.015a.623.623 0 01-.632-1.072 12.59 12.59 0 012.537-1.13 13.17 13.17 0 012.67-.555l1.36-1.532a.664.664 0 01.45-.21c.172 0 .335.067.46.181l1.54 1.56 1.494-1.11a.633.633 0 01.737-.01l1.503 1.073 1.503-1.541a.65.65 0 01.469-.192c.172.01.344.086.45.22l1.273 1.494a15.95 15.95 0 012.795.612c.919.288 1.8.67 2.623 1.12a.627.627 0 01.249.843.67.67 0 01-.565.325zM7.983 4.613h-.019a.619.619 0 01-.45-.22L6.241 2.9a15.97 15.97 0 01-2.795-.613c-.92-.287-1.8-.67-2.623-1.12A.627.627 0 01.574.325a.627.627 0 01.843-.25c.746.412 1.56.757 2.402 1.025.9.287 1.848.488 2.805.594a.604.604 0 01.402.22l.986 1.158 1.397-1.436a.625.625 0 01.804-.076l1.57 1.12 1.56-1.168a.626.626 0 01.814.057l1.455 1.474 1.082-1.215a.606.606 0 01.412-.201c.909-.077 1.8-.259 2.651-.527A11.38 11.38 0 0022.035.085a.623.623 0 01.632 1.073 12.63 12.63 0 01-2.537 1.13c-.861.277-1.76.459-2.67.554L16.1 4.374a.665.665 0 01-.45.21.677.677 0 01-.459-.181l-1.541-1.56-1.493 1.11a.633.633 0 01-.737.01L9.917 2.89 8.414 4.431a.577.577 0 01-.43.182zm4.069 5.964H6.586c0 .565 0 1.12.01 1.685l-2.73-2.728 2.728-2.729v1.551h5.457" fill="#fff"/><path d="M6.595 12.75a.449.449 0 01-.335-.144L3.532 9.878a.474.474 0 010-.68L6.26 6.47a.477.477 0 01.814.335v1.073h4.978c.268 0 .478.21.478.478s-.21.479-.478.479H6.595a.474.474 0 01-.478-.479v-.392l-1.57 1.57 1.57 1.57v-.527c0-.124.048-.249.143-.335a.506.506 0 01.335-.144h5.466c.268 0 .479.211.479.479s-.21.479-.479.479H7.074v1.206a.468.468 0 01-.297.44.43.43 0 01-.182.048z" fill="#fff"/><path d="M11.745 8.346h5.465c0-.564 0-1.12-.01-1.684l2.73 2.728-2.728 2.728v-1.55h-5.456" fill="#fff"/><path d="M17.201 12.606a.413.413 0 01-.182-.038.477.477 0 01-.296-.44v-1.072h-4.978a.474.474 0 01-.479-.48c0-.267.211-.478.479-.478h5.456c.268 0 .479.21.479.479v.392l1.57-1.57-1.57-1.57v.527a.45.45 0 01-.144.335.506.506 0 01-.335.144h-5.466a.474.474 0 01-.478-.479c0-.268.21-.479.479-.479h4.987V6.671c0-.191.114-.373.296-.44a.472.472 0 01.527.105l2.728 2.728a.474.474 0 010 .68l-2.728 2.728a.572.572 0 01-.345.134z" fill="#fff"/></svg>