<svg width="24" height="23" viewBox="0 0 24 23" fill="none" xmlns="http://www.w3.org/2000/svg">
<path d="M4.35156 5.95948C4.72359 5.18475 5.20897 4.46977 5.79172 3.83809C6.70668 2.85451 7.83601 2.095 9.09203 1.61854C10.2539 1.17462 11.1622 1.1217 12.3855 1.04657C13.5115 0.980839 15.072 0.903155 16.9441 1.44012C17.7782 1.67915 18.9426 2.01379 20.1027 2.89137C23.3057 5.33117 23.4927 9.70114 23.497 9.92481C23.5405 11.5118 23.1026 11.2907 22.8302 14.7481C22.7235 16.1063 22.6791 16.9497 22.3556 18.2934C21.9783 19.8599 21.6436 21.1737 20.6226 21.6483C20.2861 21.7939 19.9203 21.8593 19.5541 21.8396C19.188 21.8199 18.8314 21.7156 18.5123 21.5348C16.5216 20.3764 17.7628 16.8575 15.4605 14.3451C14.8918 13.7354 14.1977 13.256 13.4261 12.94" stroke="white" stroke-linecap="round" stroke-linejoin="round"/>
<path d="M2.0293 12.3621C3.80665 13.4872 4.62191 14.6798 5.03851 15.5531C5.90243 17.3663 5.80682 19.0899 7.26575 20.3064C7.55822 20.5592 7.91112 20.7322 8.29016 20.8083V20.8083C8.29016 20.8083 8.89627 20.9902 9.72348 20.5522C10.3373 20.2287 11.179 16.9992 11.6255 12.473" stroke="white" stroke-linecap="round" stroke-linejoin="round"/>
<path d="M11.2931 12.3756C11.171 12.3406 8.57669 11.574 6.18383 11.6927C3.43499 11.8293 2.57705 12.8477 1.74471 12.2049C0.802254 11.4827 0.785181 9.49277 1.51934 8.16445C2.64107 6.14294 5.35235 5.93208 6.65421 5.82708C7.39093 5.76989 12.2031 5.47964 13.8814 8.46665C14.8469 10.1842 14.5149 12.5148 13.7687 12.8272C13.4111 12.9809 12.6991 12.776 11.2931 12.3756Z" stroke="white" stroke-linecap="round" stroke-linejoin="round"/>
<path d="M14.5859 11.3908C16.3506 11.8711 18.1954 11.9825 20.0051 11.7177C21.1521 11.5456 22.2715 11.2232 23.3344 10.759" stroke="white" stroke-linecap="round" stroke-linejoin="round"/>
</svg>
