<svg width="38" height="31" fill="none" xmlns="http://www.w3.org/2000/svg"><path d="M36.03 30.858c-.169 0-.322-.046-.476-.123a21.602 21.602 0 00-3.864-1.647 23.262 23.262 0 00-4.509-.954.975.975 0 01-.646-.354l-1.586-1.847-2.247 2.309c-.338.354-.892.4-1.293.123l-2.524-1.8-2.508 1.877c-.4.292-.955.262-1.309-.092l-2.339-2.37-1.74 1.954a.975.975 0 01-.661.323 19.74 19.74 0 00-4.263.847 18.29 18.29 0 00-3.663 1.631 1.001 1.001 0 01-1.016-1.724 20.306 20.306 0 014.078-1.816 21.292 21.292 0 014.295-.892l2.185-2.463c.185-.2.446-.323.723-.338.277 0 .54.107.74.292l2.477 2.509 2.401-1.786a1.017 1.017 0 011.185-.015l2.417 1.724 2.416-2.478c.2-.2.462-.308.754-.308a.995.995 0 01.723.354l2.047 2.4c1.54.201 3.048.524 4.494.986a23.339 23.339 0 014.218 1.8c.477.262.661.878.4 1.355-.216.339-.554.523-.908.523zM12.915 8.064h-.031a.995.995 0 01-.724-.354l-2.047-2.4a25.677 25.677 0 01-4.494-.986 23.336 23.336 0 01-4.217-1.8 1.008 1.008 0 01-.4-1.355 1.008 1.008 0 011.354-.4A21.6 21.6 0 006.22 2.416a23.26 23.26 0 004.51.954.978.978 0 01.646.354l1.585 1.863 2.247-2.31c.338-.353.893-.4 1.293-.122l2.524 1.8 2.508-1.877c.4-.293.955-.262 1.309.092l2.34 2.37 1.738-1.954c.17-.185.4-.308.662-.323a19.745 19.745 0 004.263-.847c1.293-.416 2.54-.97 3.663-1.631a1.001 1.001 0 011.016 1.723 20.304 20.304 0 01-4.078 1.816 21.292 21.292 0 01-4.294.893L25.965 7.68c-.185.2-.446.323-.723.338a1.09 1.09 0 01-.74-.292l-2.477-2.509-2.401 1.786a1.017 1.017 0 01-1.185.015l-2.417-1.724-2.416 2.478a.928.928 0 01-.692.292zm6.541 9.589h-8.788c0 .908 0 1.8.015 2.708l-4.386-4.386 4.386-4.386v2.493h8.773" fill="#494949"/><path d="M10.683 21.147a.72.72 0 01-.538-.231l-4.387-4.387a.762.762 0 010-1.092l4.387-4.387a.762.762 0 01.83-.169c.293.123.478.4.478.708v1.724h8.003c.431 0 .77.338.77.77 0 .43-.339.769-.77.769h-8.773a.762.762 0 01-.77-.77v-.63L7.39 15.974 9.914 18.5v-.847c0-.2.077-.4.23-.539a.814.814 0 01.54-.23h8.787c.431 0 .77.338.77.769 0 .43-.339.77-.77.77h-8.018v1.939c0 .308-.185.6-.477.708a.691.691 0 01-.293.077z" fill="#494949"/><path d="M18.96 14.066h8.79c0-.908 0-1.8-.016-2.708l4.386 4.386-4.386 4.387v-2.494H18.96" fill="#494949"/><path d="M27.735 20.916a.668.668 0 01-.292-.062.768.768 0 01-.477-.708v-1.724h-8.003a.762.762 0 01-.77-.77c0-.43.339-.769.77-.769h8.772c.431 0 .77.339.77.77v.63l2.524-2.523-2.524-2.524v.846c0 .2-.077.4-.23.539a.814.814 0 01-.54.23h-8.788a.762.762 0 01-.77-.769c0-.43.34-.77.77-.77h8.019v-1.939c0-.307.185-.6.477-.708a.759.759 0 01.846.17l4.387 4.386a.762.762 0 010 1.093L28.289 20.7a.92.92 0 01-.554.216z" fill="#494949"/></svg>