<svg width="39" height="37" fill="none" xmlns="http://www.w3.org/2000/svg"><path d="M6.82 10.013a13.912 13.912 0 012.316-3.41 14.057 14.057 0 015.306-3.57c1.868-.713 3.329-.798 5.296-.92 1.81-.105 4.32-.23 7.33.634 1.34.384 3.212.922 5.078 2.333 5.15 3.923 5.45 10.95 5.457 11.309.07 2.551-.634 2.196-1.072 7.755-.171 2.184-.243 3.54-.763 5.7-.607 2.519-1.145 4.631-2.786 5.394a3.813 3.813 0 01-3.393-.182c-3.201-1.863-1.205-7.52-4.907-11.56a9.284 9.284 0 00-3.271-2.26" stroke="#494949" stroke-width="2.167" stroke-linecap="round" stroke-linejoin="round"/><path d="M3.086 20.307c2.858 1.81 4.168 3.727 4.838 5.131 1.39 2.915 1.236 5.687 3.581 7.643.47.406 1.038.684 1.647.807v0s.975.292 2.305-.412c.987-.52 2.34-5.713 3.058-12.99" stroke="#494949" stroke-width="2.167" stroke-linecap="round" stroke-linejoin="round"/><path d="M17.981 20.33c-.196-.057-4.367-1.29-8.215-1.099-4.42.22-5.799 1.857-7.137.824-1.515-1.161-1.543-4.36-.362-6.496 1.803-3.25 6.163-3.59 8.256-3.759 1.184-.092 8.922-.558 11.62 4.244 1.552 2.762 1.018 6.51-.181 7.011-.575.248-1.72-.082-3.98-.726z" stroke="#494949" stroke-width="2.167" stroke-linecap="round" stroke-linejoin="round"/><path d="M23.275 18.746c2.838.772 5.804.951 8.713.525a21.264 21.264 0 005.354-1.541" stroke="#494949" stroke-width="2.167" stroke-linecap="round" stroke-linejoin="round"/></svg>