<svg width="26" height="20" fill="none" xmlns="http://www.w3.org/2000/svg"><path d="M2.803 12.61a4.848 4.848 0 01-1.476-1.41 4.69 4.69 0 01-.749-1.925 6.53 6.53 0 01.005-2.047A8.5 8.5 0 011.605 4.36a7.277 7.277 0 012.072-2.274c.137-.1.277-.196.417-.287l.209-.135.212-.133c.291-.178.592-.339.901-.482C6.03.764 6.666.535 7.318.364A12.349 12.349 0 018.801.061c.1-.012.18-.02.268-.026.087-.007.169-.015.255-.02.67-.03 1.34-.015 2.008.046 1.324.123 2.631.389 3.897.794a20.974 20.974 0 016.912 3.814l.382.318c.064.051.132.116.197.173.066.057.129.122.192.185.251.254.476.533.672.832.2.304.362.63.484.972.13.355.202.728.216 1.106a2.712 2.712 0 01-.242 1.164c-.08.173-.174.34-.283.497a5.08 5.08 0 01-.323.423 8.612 8.612 0 01-1.503 1.403 9.297 9.297 0 01-.858.564l-.116.065-.107.058-.213.116-.428.231c-.573.308-1.159.606-1.76.879a17.99 17.99 0 01-3.771 1.238 19.803 19.803 0 01-5.908.35 28.286 28.286 0 01-1.945-.264 17.49 17.49 0 01-1.932-.419 9.94 9.94 0 01-.947-.317 21.434 21.434 0 01-.91-.375 7.674 7.674 0 01-.898-.459c-.15-.09-.293-.19-.429-.3-.07-.053-.135-.118-.202-.177a1.548 1.548 0 01-.185-.206 1.78 1.78 0 01-.159-.238c-.023-.042-.048-.08-.069-.127l-.054-.136-.026-.069-.017-.071-.033-.144a1.548 1.548 0 01-.02-.291c.022-.37.142-.729.347-1.038a.258.258 0 01.442.265 1.573 1.573 0 00-.242.782c.005.26.104.51.278.705.195.214.425.394.68.53.27.151.55.284.838.398.29.118.595.23.892.338.297.108.593.196.897.274a16.86 16.86 0 001.863.357c.636.088 1.271.168 1.899.21.63.044 1.263.056 1.895.035a18.944 18.944 0 003.746-.5 17.02 17.02 0 003.547-1.26 37.31 37.31 0 001.697-.874l.424-.23.212-.115.105-.057.096-.053c.262-.153.515-.32.758-.502a7.554 7.554 0 001.32-1.238c.183-.208.339-.439.462-.688.052-.113.092-.232.118-.354a1.46 1.46 0 00.035-.361 2.574 2.574 0 00-.159-.787 3.533 3.533 0 00-.376-.758 4.319 4.319 0 00-.533-.673 4.673 4.673 0 00-.159-.152c-.055-.05-.104-.096-.166-.147l-.364-.303a19.951 19.951 0 00-6.58-3.623 17.706 17.706 0 00-3.678-.753 13.564 13.564 0 00-2.09-.032 5.371 5.371 0 00-.214.02l-.456.072c-.305.053-.61.116-.91.195-.6.15-1.185.352-1.748.605a8.054 8.054 0 00-.81.42l-.2.122-.2.126a9.48 9.48 0 00-.383.258 6.68 6.68 0 00-1.33 1.217c-.382.471-.702.99-.953 1.543a7.812 7.812 0 00-.573 1.74 5.768 5.768 0 00-.08 1.806c.036.297.102.59.196.874.092.285.216.558.368.815.316.52.734.97 1.229 1.324a.258.258 0 01-.283.428z" fill="#fff"/><path d="M11.805 13.052c.605.01 1.21-.016 1.813-.075a14.937 14.937 0 001.793-.282 16.1 16.1 0 003.44-1.204 15.686 15.686 0 001.603-.884c.517-.32 1.01-.679 1.471-1.075.226-.195.436-.408.63-.635.189-.22.342-.47.453-.739a1.74 1.74 0 00.104-.411c.02-.145.027-.29.022-.436a2.944 2.944 0 00-.172-.865.143.143 0 01.267-.1c.238.598.326 1.281.114 1.933a3.14 3.14 0 01-.48.861 6.314 6.314 0 01-.649.715c-.465.43-.963.822-1.49 1.174-.52.357-1.06.683-1.618.976a16.734 16.734 0 01-3.526 1.39c-.615.16-1.24.283-1.87.368a16.94 16.94 0 01-1.901.152.43.43 0 01-.02-.86l.016-.003zm-1.323 5.617a22.007 22.007 0 01-6.113-.892.517.517 0 11.288-.992c2.98.868 7.542 1.51 12.353-.351 2.889-1.118 5.509-3.019 7.576-5.49a.518.518 0 01.794.662c-2.179 2.607-4.944 4.608-7.995 5.79a19.02 19.02 0 01-6.903 1.273z" fill="#fff"/><path d="M1.485 16.257l4.73-.138-1.601 1.311.345 2.04-3.474-3.213z" fill="#fff"/></svg>