<svg width="23" height="19" viewBox="0 0 23 19" fill="none" xmlns="http://www.w3.org/2000/svg">
<path d="M22.3608 18.7901C22.2555 18.7901 22.1598 18.7614 22.0641 18.7136C21.3174 18.302 20.5038 17.9574 19.6614 17.6893C18.7616 17.4022 17.8139 17.2011 16.8567 17.0958C16.7035 17.0767 16.5504 17.0001 16.4547 16.8757L15.4687 15.727L14.0711 17.1628C13.8605 17.383 13.5159 17.4117 13.2671 17.2394L11.6972 16.1195L10.1369 17.2873C9.88802 17.4692 9.54342 17.45 9.32325 17.2299L7.86825 15.7557L6.78657 16.9714C6.68128 17.0863 6.53769 17.1628 6.37496 17.1724C5.46559 17.249 4.57536 17.4309 3.72342 17.6989C2.91934 17.9574 2.14398 18.302 1.4452 18.7136C1.14846 18.8859 0.765561 18.7901 0.593258 18.4934C0.420956 18.1967 0.516679 17.8138 0.813422 17.6415C1.59836 17.182 2.4503 16.7991 3.3501 16.5119C4.21161 16.2343 5.11141 16.0525 6.02079 15.9567L7.38006 14.4252C7.49493 14.3007 7.65766 14.2241 7.82996 14.2146C8.00226 14.2146 8.16499 14.2816 8.28944 14.3964L9.83059 15.9567L11.3239 14.8463C11.544 14.6836 11.8408 14.6836 12.0609 14.8368L13.5638 15.9089L15.0667 14.3677C15.1911 14.2433 15.3538 14.1763 15.5357 14.1763C15.708 14.1858 15.8803 14.2624 15.9856 14.3964L17.2587 15.8897C18.216 16.0142 19.1541 16.2152 20.0539 16.5024C20.9728 16.7895 21.8535 17.1724 22.6767 17.6223C22.9734 17.785 23.0883 18.1679 22.9256 18.4647C22.7916 18.6753 22.581 18.7901 22.3608 18.7901Z" fill="white"/>
<path d="M7.98317 4.61317C7.97359 4.61317 7.97359 4.61317 7.96402 4.61317C7.79172 4.6036 7.61942 4.52702 7.51412 4.39301L6.241 2.89972C5.28376 2.77528 4.34567 2.57426 3.44587 2.28709C2.52692 1.99992 1.64626 1.61702 0.823041 1.16712C0.526298 1.00439 0.411429 0.621498 0.574159 0.324755C0.736889 0.0280114 1.11978 -0.0868568 1.41653 0.0758733C2.16317 0.487485 2.97682 0.832089 3.81919 1.10012C4.71899 1.38729 5.66666 1.58831 6.62389 1.6936C6.77705 1.71275 6.93021 1.78933 7.02593 1.91377L8.01188 3.07202L9.40945 1.63617C9.62004 1.416 9.96464 1.38729 10.2135 1.55959L11.7834 2.67955L13.3437 1.51173C13.5926 1.32985 13.9372 1.349 14.1573 1.56916L15.6123 3.0433L16.694 1.82762C16.7993 1.71275 16.9429 1.63617 17.1056 1.6266C18.015 1.55002 18.9052 1.36814 19.7572 1.10012C20.5612 0.841662 21.3366 0.497057 22.0354 0.0854455C22.3321 -0.0868569 22.715 0.00886696 22.8873 0.30561C23.0596 0.602353 22.9639 0.985248 22.6672 1.15755C21.8822 1.61702 21.0303 1.99992 20.1305 2.28709C19.269 2.56469 18.3692 2.74656 17.4598 2.84229L16.1005 4.37386C15.9857 4.4983 15.8229 4.57488 15.6506 4.58445C15.4783 4.58445 15.3156 4.51745 15.1912 4.40258L13.65 2.84229L12.1567 3.95268C11.9366 4.11541 11.6398 4.11541 11.4196 3.96225L9.91678 2.89015L8.41392 4.4313C8.30863 4.54616 8.15547 4.61317 7.98317 4.61317Z" fill="white"/>
<path d="M12.0516 10.5769C10.2328 10.5769 8.40449 10.5769 6.58574 10.5769C6.58574 11.1417 6.58574 11.6969 6.59531 12.2617C5.68594 11.3523 4.77656 10.4429 3.86719 9.53354C4.77656 8.62417 5.68594 7.71479 6.59531 6.80542C6.59531 7.32233 6.59531 7.83923 6.59531 8.35614C8.41406 8.35614 10.2328 8.35614 12.0516 8.35614" fill="white"/>
<path d="M6.59541 12.7499C6.47097 12.7499 6.34653 12.7021 6.26038 12.6063L3.53226 9.87822C3.34081 9.68677 3.34081 9.39003 3.53226 9.19858L6.26038 6.47046C6.39439 6.33644 6.60498 6.28858 6.77729 6.36516C6.95916 6.44174 7.07403 6.61404 7.07403 6.80549V7.87759H12.0517C12.3197 7.87759 12.5303 8.08819 12.5303 8.35621C12.5303 8.62424 12.3197 8.83483 12.0517 8.83483H6.59541C6.32739 8.83483 6.11679 8.62424 6.11679 8.35621V7.96374L4.54693 9.53361L6.11679 11.1035V10.577C6.11679 10.4526 6.16466 10.3281 6.26038 10.242C6.3561 10.1558 6.47097 10.0984 6.59541 10.0984H12.0612C12.3293 10.0984 12.5398 10.309 12.5398 10.577C12.5398 10.845 12.3293 11.0556 12.0612 11.0556H7.07403V12.2617C7.07403 12.4532 6.95916 12.6351 6.77729 12.7021C6.71985 12.7308 6.65285 12.7499 6.59541 12.7499Z" fill="white"/>
<path d="M11.7446 8.34636C13.5634 8.34636 15.3917 8.34636 17.2104 8.34636C17.2104 7.78159 17.2104 7.22639 17.2009 6.66162C18.1102 7.571 19.0196 8.48037 19.929 9.38974C19.0196 10.2991 18.1102 11.2085 17.2009 12.1179C17.2009 11.601 17.2009 11.0841 17.2009 10.5671C15.3821 10.5671 13.5634 10.5671 11.7446 10.5671" fill="white"/>
<path d="M17.2013 12.6062C17.1438 12.6062 17.0768 12.5967 17.0194 12.5679C16.8375 12.4914 16.7227 12.3191 16.7227 12.1276V11.0555H11.745C11.477 11.0555 11.2664 10.8449 11.2664 10.5769C11.2664 10.3089 11.477 10.0983 11.745 10.0983H17.2013C17.4693 10.0983 17.6799 10.3089 17.6799 10.5769V10.9694L19.2498 9.39948L17.6799 7.82962V8.3561C17.6799 8.48054 17.632 8.60498 17.5363 8.69113C17.4406 8.77728 17.3257 8.83472 17.2013 8.83472H11.7355C11.4674 8.83472 11.2568 8.62412 11.2568 8.3561C11.2568 8.08807 11.4674 7.87748 11.7355 7.87748H16.7227V6.67136C16.7227 6.47992 16.8375 6.29804 17.0194 6.23103C17.2013 6.15446 17.4023 6.19274 17.5459 6.33633L20.274 9.06445C20.4654 9.2559 20.4654 9.55264 20.274 9.74409L17.5459 12.4722C17.4502 12.5488 17.3257 12.6062 17.2013 12.6062Z" fill="white"/>
</svg>
