<svg width="23" height="20" viewBox="0 0 23 20" fill="none" xmlns="http://www.w3.org/2000/svg">
<path d="M22.0339 16.248H0.466061C0.207935 16.248 0 16.0401 0 15.782C0 15.5239 0.207935 15.3159 0.466061 15.3159H22.0339C22.2921 15.3159 22.5 15.5239 22.5 15.782C22.5 16.0401 22.2921 16.248 22.0339 16.248Z" fill="white"/>
<path d="M20.4924 19.0654H2.01489C1.75676 19.0654 1.54883 18.8575 1.54883 18.5994C1.54883 18.3412 1.75676 18.1333 2.01489 18.1333H20.4924C20.7505 18.1333 20.9585 18.3412 20.9585 18.5994C20.9585 18.8575 20.7505 19.0654 20.4924 19.0654Z" fill="white"/>
<path d="M3.77856 19.0659C3.52043 19.0659 3.3125 18.858 3.3125 18.5999V15.782C3.3125 15.5239 3.52043 15.3159 3.77856 15.3159C4.03669 15.3159 4.24462 15.5239 4.24462 15.782V18.5999C4.24462 18.858 4.03669 19.0659 3.77856 19.0659Z" fill="white"/>
<path d="M18.7209 19.0659C18.4628 19.0659 18.2549 18.858 18.2549 18.5999V15.782C18.2549 15.5239 18.4628 15.3159 18.7209 15.3159C18.9791 15.3159 19.187 15.5239 19.187 15.782V18.5999C19.187 18.858 18.9791 19.0659 18.7209 19.0659Z" fill="white"/>
<path d="M11.2717 18.9719C11.0136 18.9719 10.8057 18.764 10.8057 18.5059V15.8816C10.8057 15.6235 11.0136 15.4155 11.2717 15.4155C11.5299 15.4155 11.7378 15.6235 11.7378 15.8816V18.5059C11.7378 18.764 11.5299 18.9719 11.2717 18.9719Z" fill="white"/>
<path d="M15.1871 19.0659C14.929 19.0659 14.721 18.858 14.721 18.5999L14.7139 15.782C14.7139 15.5239 14.9218 15.3159 15.1799 15.3159C15.4381 15.3159 15.646 15.5239 15.646 15.782L15.6532 18.5999C15.6532 18.858 15.4452 19.0659 15.1871 19.0659Z" fill="white"/>
<path d="M7.36352 18.8648C7.1054 18.8648 6.89746 18.6569 6.89746 18.3988V15.7888C6.89746 15.5307 7.1054 15.3228 7.36352 15.3228C7.62165 15.3228 7.82958 15.5307 7.82958 15.7888V18.3988C7.82958 18.6569 7.62165 18.8648 7.36352 18.8648Z" fill="white"/>
<path d="M3.88602 5.95123C3.54902 5.95123 3.21202 5.85085 2.95389 5.65009C2.28707 5.11949 2.4233 4.17303 2.54519 3.34129C2.68143 2.402 3.01125 1.49139 3.53468 0.630967C3.62072 0.494734 3.77129 0.408691 3.92904 0.408691C4.09395 0.408691 4.23735 0.494734 4.3234 0.630967C4.85399 1.48422 5.18382 2.39483 5.30571 3.33412C5.41326 4.15152 5.53516 5.07647 4.8755 5.62141C4.6102 5.83651 4.24452 5.95123 3.88602 5.95123ZM3.53468 4.91873C3.7211 5.06213 4.10112 5.04779 4.29472 4.89005C4.56001 4.67494 4.47397 4.05114 4.3951 3.44884C4.3234 2.91108 4.17282 2.38049 3.94338 1.86424C3.70676 2.38766 3.54902 2.92542 3.47015 3.47036C3.3841 4.05831 3.29089 4.72513 3.53468 4.91873Z" fill="white"/>
<path d="M11.1209 13.7882C9.56497 13.7882 8.23132 12.5837 8.06641 11.0134C8.06641 10.999 8.06641 10.9775 8.06641 10.9632V0.466061C8.06641 0.207935 8.27434 0 8.53247 0C8.79059 0 8.99853 0.207935 8.99853 0.466061V10.9345C9.12759 12.0459 10.0812 12.8848 11.1854 12.8561C12.2466 12.8274 13.1285 12.0029 13.2504 10.9345L13.315 5.32027C13.315 5.06214 13.5301 4.86138 13.7882 4.86138C14.0463 4.86138 14.2543 5.07648 14.2471 5.33461L14.1826 10.9704C14.1826 10.9847 14.1826 10.999 14.1826 11.0134C14.0248 12.555 12.7485 13.7452 11.2141 13.7882C11.1783 13.7882 11.1496 13.7882 11.1209 13.7882Z" fill="white"/>
<path d="M17.3304 3.64229C16.4413 3.64229 15.71 2.9181 15.71 2.02183C15.71 1.12555 16.4341 0.401367 17.3304 0.401367C18.2267 0.401367 18.9509 1.12555 18.9509 2.02183C18.9509 2.9181 18.2267 3.64229 17.3304 3.64229ZM17.3304 1.34066C16.9504 1.34066 16.6421 1.64898 16.6421 2.029C16.6421 2.40902 16.9504 2.71733 17.3304 2.71733C17.7104 2.71733 18.0188 2.40902 18.0188 2.029C18.0188 1.64898 17.7104 1.34066 17.3304 1.34066Z" fill="white"/>
<path d="M2.86025 13.6233C2.01417 13.6233 1.33301 12.935 1.33301 12.0961C1.33301 11.25 2.02134 10.5688 2.86025 10.5688C3.69917 10.5688 4.3875 11.2572 4.3875 12.0961C4.3875 12.9422 3.70634 13.6233 2.86025 13.6233ZM2.86025 11.501C2.53043 11.501 2.26513 11.7663 2.26513 12.0961C2.26513 12.4259 2.53043 12.6912 2.86025 12.6912C3.19008 12.6912 3.45538 12.4259 3.45538 12.0961C3.45538 11.7663 3.19008 11.501 2.86025 11.501Z" fill="white"/>
<path d="M19.7249 13.0069C19.3879 13.0069 19.0509 12.9065 18.7928 12.7058C18.1259 12.1752 18.2622 11.2287 18.3841 10.397C18.5203 9.45766 18.8501 8.54705 19.3735 7.68663C19.4596 7.5504 19.6102 7.46436 19.7679 7.46436C19.9328 7.46436 20.0762 7.5504 20.1623 7.68663C20.6929 8.53988 21.0227 9.45049 21.1446 10.3898C21.2521 11.2072 21.374 12.1321 20.7144 12.6771C20.4491 12.8993 20.0834 13.0069 19.7249 13.0069ZM19.7751 8.92707C19.5385 9.45049 19.3807 9.98826 19.3018 10.5332C19.2158 11.114 19.1226 11.7808 19.3735 11.9744C19.56 12.1178 19.94 12.1035 20.1336 11.9457C20.3989 11.7306 20.3128 11.1068 20.234 10.5045C20.1551 9.96675 20.0045 9.43615 19.7751 8.92707Z" fill="white"/>
<path d="M12.3754 7.19163C12.2535 7.19163 12.1388 7.14861 12.0456 7.0554C11.8663 6.87615 11.8663 6.575 12.0456 6.39575L13.4438 4.99756C13.5298 4.91152 13.6517 4.86133 13.7736 4.86133C13.8955 4.86133 14.0174 4.91152 14.1034 5.00473L15.4586 6.39575C15.6378 6.58217 15.6378 6.87615 15.4514 7.0554C15.265 7.23465 14.971 7.23465 14.7917 7.04823L13.7664 5.98704L12.7052 7.04823C12.612 7.14144 12.4973 7.19163 12.3754 7.19163Z" fill="white"/>
</svg>
