<svg width="26" height="20" viewBox="0 0 26 20" fill="none" xmlns="http://www.w3.org/2000/svg">
<path d="M2.80276 12.6109C2.21619 12.2509 1.713 11.7702 1.32668 11.2007C1.13252 10.9123 0.971049 10.6032 0.845243 10.2792C0.722596 9.9543 0.633161 9.61786 0.57831 9.27498C0.472322 8.5968 0.47393 7.90616 0.583076 7.22848C0.688596 6.55582 0.878649 5.89918 1.14872 5.27415C1.28225 4.96047 1.43453 4.65512 1.60473 4.35974C1.77787 4.06194 1.97194 3.77681 2.18547 3.5065C2.61562 2.96717 3.1173 2.48901 3.67665 2.08524C3.81409 1.98593 3.95391 1.88901 4.09373 1.79844L4.30267 1.66339L4.51479 1.52992C4.80599 1.35225 5.10704 1.19125 5.41649 1.04769C6.02912 0.764231 6.66555 0.535339 7.31839 0.363675C7.64252 0.274697 7.97143 0.204785 8.30112 0.14123C8.46795 0.111835 8.62843 0.0856184 8.80162 0.0617851C8.90013 0.0490739 8.98117 0.0419239 9.06856 0.0347739C9.15594 0.0276239 9.23777 0.0204739 9.32437 0.0157072C9.9938 -0.0154107 10.6646 -0.000280219 11.3319 0.0609906C12.6561 0.183617 13.963 0.450001 15.2295 0.855437C17.754 1.67762 20.0994 2.97165 22.1412 4.66878L22.5233 4.98656C22.5869 5.0382 22.6552 5.10255 22.7203 5.15975C22.7855 5.21695 22.849 5.28209 22.9118 5.34485C23.1631 5.59917 23.3883 5.8781 23.5839 6.17743C23.7833 6.48085 23.9457 6.80704 24.0677 7.14904C24.1976 7.50397 24.2705 7.8772 24.2838 8.25491C24.2892 8.45638 24.2703 8.65778 24.2274 8.85471C24.1863 9.04898 24.1239 9.23813 24.0415 9.41877C23.9621 9.5924 23.8677 9.75881 23.7595 9.91609C23.6591 10.0625 23.5512 10.2036 23.4361 10.3387C22.9929 10.8647 22.4883 11.3357 21.933 11.7417C21.6576 11.9454 21.3712 12.1337 21.075 12.3058L20.959 12.3709L20.8518 12.4289L20.6389 12.5449L20.2107 12.7761C19.6379 13.0836 19.0524 13.3815 18.451 13.6548C17.2434 14.2052 15.9786 14.6203 14.6797 14.8925C13.3865 15.1664 12.0691 15.3101 10.7472 15.3215C10.088 15.329 9.42875 15.3025 8.77223 15.2421C8.11601 15.1817 7.46695 15.0832 6.82663 14.9791C6.17549 14.876 5.53069 14.7363 4.89533 14.5604C4.57755 14.4707 4.25977 14.3658 3.94756 14.2426C3.63534 14.1195 3.34298 14.0043 3.03871 13.8677C2.72946 13.7348 2.42931 13.5816 2.14019 13.4093C1.99069 13.3191 1.84737 13.219 1.71119 13.1098C1.64128 13.0557 1.57613 12.9906 1.5094 12.9318C1.44267 12.873 1.38229 12.7999 1.32429 12.7261C1.265 12.651 1.21187 12.5713 1.16541 12.4877C1.14237 12.4456 1.11694 12.4083 1.09629 12.3614L1.04227 12.2248L1.01605 12.1564L0.998572 12.0849L0.965999 11.9411C0.950202 11.8448 0.943552 11.7472 0.946138 11.6496C0.967878 11.2791 1.08769 10.921 1.29331 10.612C1.3285 10.5535 1.38551 10.5113 1.45181 10.4947C1.51811 10.4782 1.58826 10.4887 1.64684 10.5238C1.70541 10.559 1.74761 10.616 1.76415 10.6823C1.78069 10.7486 1.77021 10.8188 1.73502 10.8774C1.58669 11.112 1.50309 11.3817 1.49272 11.6591C1.49838 11.9196 1.597 12.1696 1.77077 12.3638C1.96569 12.5783 2.19598 12.7578 2.45161 12.8945C2.72176 13.045 3.00147 13.1777 3.28896 13.2917C3.57893 13.4101 3.884 13.5221 4.18112 13.6301C4.47825 13.7382 4.77378 13.8264 5.07805 13.9042C5.69184 14.0581 6.31382 14.1772 6.94103 14.2609C7.57659 14.3491 8.21214 14.4293 8.83976 14.4714C9.4706 14.5155 10.1033 14.5269 10.7353 14.5056C11.9975 14.464 13.2523 14.2964 14.4811 14.0051C15.7064 13.7178 16.8961 13.2955 18.0283 12.7459C18.5979 12.4742 19.1604 12.1779 19.7253 11.872L20.1487 11.6424L20.3608 11.5272L20.4665 11.47L20.5618 11.4168C20.8237 11.2637 21.077 11.0963 21.3205 10.9155C21.8082 10.5571 22.251 10.1412 22.6393 9.67697C22.8235 9.46938 22.979 9.23798 23.1017 8.98898C23.1541 8.8759 23.1938 8.75732 23.22 8.63545C23.2467 8.51689 23.2584 8.39545 23.255 8.27397C23.2436 8.00484 23.1899 7.73918 23.0961 7.48668C23.0016 7.2199 22.8755 6.96544 22.7203 6.72878C22.5654 6.48733 22.3868 6.26192 22.1872 6.05588C22.1343 6.00292 22.0813 5.95234 22.0284 5.90414C21.9727 5.85489 21.9235 5.80801 21.8623 5.75717L21.4977 5.45448C19.5539 3.84104 17.3214 2.61143 14.9189 1.83102C13.7227 1.45026 12.4894 1.19779 11.2398 1.07788C10.6208 1.01986 9.99864 1.00447 9.37759 1.0318C9.29815 1.03578 9.22506 1.04054 9.15038 1.0461C9.07571 1.05166 8.99706 1.05961 8.93588 1.06676L8.47987 1.13826C8.1748 1.19069 7.87053 1.25425 7.56944 1.3329C6.97016 1.48287 6.3853 1.68545 5.82165 1.93827C5.54383 2.06266 5.27329 2.20271 5.01132 2.35773L4.81191 2.48008L4.61251 2.6056C4.48063 2.68902 4.35431 2.77561 4.22879 2.8638C3.73281 3.2076 3.28571 3.61702 2.89968 4.08089C2.51739 4.55238 2.197 5.07087 1.94635 5.6237C1.68758 6.17915 1.49506 6.76311 1.37276 7.36354C1.25145 7.95781 1.22464 8.56749 1.29331 9.17011C1.32949 9.46714 1.39496 9.75986 1.48874 10.044C1.58095 10.3286 1.70459 10.6019 1.85737 10.8591C2.17272 11.3791 2.5906 11.8294 3.08558 12.1826C3.13659 12.2225 3.17071 12.2801 3.18115 12.344C3.19159 12.4079 3.17757 12.4733 3.1419 12.5273C3.10622 12.5814 3.05151 12.6199 2.98866 12.6354C2.92581 12.6509 2.85943 12.6421 2.80276 12.6109Z" fill="white"/>
<path d="M11.8047 13.0518C12.41 13.0611 13.0152 13.0361 13.6177 12.9772C14.2205 12.9196 14.8193 12.8254 15.4107 12.6951C16.5992 12.4254 17.7533 12.0216 18.8507 11.4915C19.4018 11.2283 19.9371 10.933 20.4539 10.6073C20.9712 10.2874 21.4631 9.92804 21.9252 9.53243C22.1507 9.33675 22.361 9.12429 22.5544 8.89688C22.7437 8.67611 22.8968 8.42674 23.008 8.15804C23.0594 8.02562 23.0943 7.88742 23.1121 7.74652C23.1319 7.6023 23.1391 7.45663 23.1335 7.31116C23.1201 7.0158 23.0622 6.72416 22.9619 6.44601C22.9554 6.42848 22.9523 6.40983 22.953 6.39113C22.9536 6.37242 22.9579 6.35402 22.9656 6.33698C22.9734 6.31993 22.9844 6.30459 22.9981 6.29181C23.0118 6.27903 23.0278 6.26907 23.0454 6.26249C23.0629 6.25592 23.0815 6.25287 23.1002 6.2535C23.119 6.25413 23.1374 6.25845 23.1544 6.26619C23.1714 6.27394 23.1868 6.28497 23.1996 6.29864C23.2123 6.31232 23.2223 6.32838 23.2289 6.34591C23.4672 6.94413 23.5554 7.62735 23.3433 8.2788C23.2298 8.58955 23.0675 8.88025 22.8626 9.13998C22.6651 9.39449 22.4484 9.63352 22.2144 9.85498C21.7489 10.2842 21.2509 10.6768 20.7248 11.0292C20.2045 11.3858 19.6639 11.7118 19.1057 12.0055C17.9868 12.6004 16.804 13.0663 15.58 13.3942C14.9646 13.555 14.3401 13.6781 13.7098 13.7629C13.0795 13.8494 12.4448 13.9003 11.8087 13.9154C11.6972 13.9139 11.5907 13.8693 11.5114 13.7908C11.4322 13.7124 11.3865 13.6062 11.3839 13.4948C11.3813 13.3833 11.4221 13.2752 11.4976 13.1932C11.5732 13.1111 11.6776 13.0616 11.7889 13.055L11.8047 13.0518Z" fill="white"/>
<path d="M10.4821 18.6687C8.41251 18.6603 6.35447 18.3599 4.36881 17.7766C4.30245 17.7587 4.24031 17.7279 4.18603 17.6857C4.13175 17.6436 4.08643 17.591 4.05273 17.5311C4.01902 17.4713 3.9976 17.4053 3.98973 17.337C3.98186 17.2687 3.98769 17.1996 4.00688 17.1336C4.02607 17.0676 4.05824 17.0061 4.10149 16.9527C4.14475 16.8994 4.19823 16.8551 4.25879 16.8227C4.31936 16.7902 4.38579 16.7702 4.4542 16.7637C4.52261 16.7573 4.59163 16.7645 4.65719 16.7851C7.63716 17.6526 12.1989 18.2945 17.01 16.4339C19.8986 15.3162 22.5187 13.415 24.5859 10.9435C24.6294 10.8914 24.6827 10.8483 24.7429 10.8167C24.803 10.7852 24.8688 10.7658 24.9365 10.7597C25.0041 10.7536 25.0723 10.7608 25.1372 10.781C25.202 10.8013 25.2622 10.8341 25.3144 10.8776C25.3665 10.9211 25.4096 10.9744 25.4412 11.0346C25.4727 11.0948 25.4921 11.1605 25.4982 11.2282C25.5044 11.2958 25.4971 11.364 25.4769 11.4289C25.4566 11.4937 25.4238 11.5539 25.3803 11.6061C23.2012 14.2135 20.4365 16.2139 17.385 17.3968C15.1829 18.2453 12.842 18.6767 10.4821 18.6687Z" fill="white"/>
<path d="M1.48535 16.2574L6.21548 16.1191L4.61388 17.43L4.95867 19.4709L1.48535 16.2574Z" fill="white"/>
</svg>
