<svg width="39" height="37" viewBox="0 0 39 37" fill="none" xmlns="http://www.w3.org/2000/svg">
<path d="M6.82031 10.0131C7.41847 8.76748 8.19889 7.61791 9.13585 6.60227C10.607 5.02082 12.4228 3.79965 14.4422 3.03357C16.3103 2.31983 17.7707 2.23473 19.7376 2.11394C21.5481 2.00825 24.0571 1.88335 27.0672 2.7467C28.4082 3.13102 30.2804 3.66907 32.1457 5.08008C37.2957 9.00291 37.5963 16.0291 37.6031 16.3888C37.6731 18.9404 36.969 18.5849 36.5311 24.1438C36.3596 26.3276 36.2882 27.6837 35.768 29.8441C35.1613 32.3628 34.6233 34.4752 32.9816 35.2384C32.4405 35.4723 31.8524 35.5776 31.2637 35.5459C30.675 35.5143 30.1016 35.3465 29.5886 35.0558C26.3878 33.1932 28.3835 27.5355 24.6817 23.496C23.7673 22.5155 22.6514 21.7448 21.4108 21.2367" stroke="#494949" stroke-width="2.16667" stroke-linecap="round" stroke-linejoin="round"/>
<path d="M3.08594 20.3074C5.94364 22.1164 7.25446 24.0339 7.92427 25.4381C9.31332 28.3534 9.15959 31.1247 11.5053 33.0806C11.9756 33.4871 12.543 33.7652 13.1524 33.8877V33.8877C13.1524 33.8877 14.127 34.18 15.457 33.4759C16.4439 32.9557 17.7972 27.7632 18.5151 20.4858" stroke="#494949" stroke-width="2.16667" stroke-linecap="round" stroke-linejoin="round"/>
<path d="M17.9813 20.3294C17.785 20.2731 13.6138 19.0406 9.76643 19.2313C5.34673 19.451 3.96729 21.0884 2.62902 20.0549C1.1137 18.8937 1.08624 15.6942 2.26666 13.5585C4.07023 10.3082 8.42954 9.96919 10.5227 9.80036C11.7073 9.7084 19.4445 9.24172 22.143 14.0444C23.6953 16.806 23.1614 20.5531 21.9618 21.0555C21.3867 21.3026 20.2419 20.9731 17.9813 20.3294Z" stroke="#494949" stroke-width="2.16667" stroke-linecap="round" stroke-linejoin="round"/>
<path d="M23.2754 18.7457C26.1127 19.5181 29.0789 19.697 31.9885 19.2714C33.8327 18.9946 35.6325 18.4763 37.3416 17.73" stroke="#494949" stroke-width="2.16667" stroke-linecap="round" stroke-linejoin="round"/>
</svg>
