<svg width="24" height="23" fill="none" xmlns="http://www.w3.org/2000/svg"><path d="M4.352 5.96a8.652 8.652 0 011.44-2.122 8.742 8.742 0 013.3-2.22c1.162-.443 2.07-.496 3.293-.571 1.127-.066 2.687-.144 4.56.393.833.24 1.998.574 3.158 1.451 3.203 2.44 3.39 6.81 3.394 7.034.044 1.587-.394 1.366-.667 4.823-.106 1.358-.15 2.202-.474 3.545-.378 1.567-.712 2.88-1.733 3.355a2.37 2.37 0 01-2.11-.113c-1.991-1.159-.75-4.677-3.053-7.19a5.775 5.775 0 00-2.034-1.405" stroke="#fff" stroke-linecap="round" stroke-linejoin="round"/><path d="M2.03 12.362c1.777 1.125 2.592 2.318 3.009 3.191.863 1.813.768 3.537 2.227 4.753.292.253.645.426 1.024.502v0s.606.182 1.433-.256c.614-.323 1.456-3.553 1.902-8.079" stroke="#fff" stroke-linecap="round" stroke-linejoin="round"/><path d="M11.293 12.376c-.122-.035-2.716-.802-5.11-.683-2.748.136-3.606 1.155-4.438.512-.943-.722-.96-2.712-.226-4.04 1.122-2.022 3.833-2.233 5.135-2.338.737-.057 5.55-.347 7.227 2.64.966 1.717.634 4.048-.112 4.36-.358.154-1.07-.051-2.476-.451z" stroke="#fff" stroke-linecap="round" stroke-linejoin="round"/><path d="M14.586 11.39c1.765.481 3.61.592 5.42.328a13.22 13.22 0 003.328-.959" stroke="#fff" stroke-linecap="round" stroke-linejoin="round"/></svg>