<svg width="38" height="31" viewBox="0 0 38 31" fill="none" xmlns="http://www.w3.org/2000/svg">
<path d="M36.0307 30.8583C35.8614 30.8583 35.7075 30.8122 35.5536 30.7352C34.3531 30.0734 33.0449 29.5193 31.6905 29.0884C30.2438 28.6267 28.7201 28.3035 27.181 28.1342C26.9347 28.1034 26.6885 27.9802 26.5346 27.7802L24.9493 25.9333L22.7022 28.2419C22.3636 28.5959 21.8096 28.642 21.4094 28.365L18.8853 26.5643L16.3766 28.442C15.9764 28.7344 15.4224 28.7036 15.0684 28.3496L12.729 25.9794L10.9898 27.9341C10.8205 28.1188 10.5896 28.2419 10.328 28.2573C8.86586 28.3804 7.43451 28.6728 6.06472 29.1038C4.77189 29.5193 3.52523 30.0734 2.4017 30.7352C1.92458 31.0122 1.30895 30.8583 1.03191 30.3812C0.754879 29.9041 0.908788 29.2885 1.3859 29.0114C2.64795 28.2727 4.01774 27.657 5.46448 27.1953C6.84966 26.749 8.2964 26.4565 9.75853 26.3026L11.944 23.8401C12.1287 23.64 12.3904 23.5169 12.6674 23.5015C12.9444 23.5015 13.2061 23.6092 13.4062 23.7939L15.8841 26.3026L18.2851 24.5173C18.639 24.2557 19.1162 24.2557 19.4702 24.5019L21.8865 26.2257L24.3029 23.7478C24.503 23.5477 24.7646 23.4399 25.057 23.4399C25.3341 23.4553 25.6111 23.5785 25.7804 23.7939L27.8274 26.1949C29.3665 26.395 30.8748 26.7182 32.3215 27.1799C33.799 27.6416 35.215 28.2573 36.5386 28.9806C37.0157 29.2423 37.2004 29.8579 36.9388 30.335C36.7233 30.6736 36.3847 30.8583 36.0307 30.8583Z" fill="#494949"/>
<path d="M12.9146 8.06447C12.8992 8.06447 12.8992 8.06447 12.8838 8.06447C12.6068 8.04908 12.3297 7.92596 12.1604 7.71048L10.1134 5.30951C8.57435 5.10943 7.06604 4.78622 5.6193 4.3245C4.14178 3.86277 2.72582 3.24714 1.40221 2.52377C0.925095 2.26212 0.740404 1.64649 1.00205 1.16937C1.26369 0.692255 1.87933 0.507565 2.35644 0.769209C3.55693 1.43102 4.86515 1.98509 6.21955 2.41603C7.66629 2.87776 9.18998 3.20096 10.7291 3.37026C10.9753 3.40105 11.2216 3.52417 11.3755 3.72425L12.9607 5.58655L15.2078 3.27792C15.5464 2.92393 16.1005 2.87776 16.5006 3.15479L19.0247 4.95552L21.5334 3.07784C21.9336 2.78541 22.4877 2.81619 22.8417 3.17018L25.1811 5.54037L26.9202 3.58574C27.0895 3.40105 27.3204 3.27792 27.5821 3.26253C29.0442 3.1394 30.4755 2.84697 31.8453 2.41603C33.1381 2.00048 34.3848 1.44641 35.5083 0.7846C35.9855 0.507564 36.6011 0.661473 36.8781 1.13859C37.1552 1.61571 37.0013 2.23134 36.5241 2.50838C35.2621 3.24714 33.8923 3.86277 32.4456 4.3245C31.0604 4.77083 29.6136 5.06326 28.1515 5.21717L25.966 7.6797C25.7813 7.87978 25.5197 8.00291 25.2426 8.0183C24.9656 8.0183 24.704 7.91056 24.5039 7.72587L22.026 5.21717L19.625 7.0025C19.271 7.26415 18.7939 7.26415 18.4399 7.01789L16.0235 5.29412L13.6072 7.77205C13.4379 7.95674 13.1916 8.06447 12.9146 8.06447Z" fill="#494949"/>
<path d="M19.4561 17.6526C16.5318 17.6526 13.5921 17.6526 10.6679 17.6526C10.6679 18.5607 10.6679 19.4533 10.6833 20.3614C9.22114 18.8993 7.75901 17.4371 6.29688 15.975C7.75901 14.5129 9.22114 13.0508 10.6833 11.5886C10.6833 12.4197 10.6833 13.2508 10.6833 14.0819C13.6075 14.0819 16.5318 14.0819 19.4561 14.0819" fill="#494949"/>
<path d="M10.6833 21.1467C10.4832 21.1467 10.2831 21.0698 10.1446 20.9159L5.75821 16.5295C5.45039 16.2217 5.45039 15.7445 5.75821 15.4367L10.1446 11.0503C10.3601 10.8349 10.6987 10.7579 10.9757 10.881C11.2681 11.0042 11.4528 11.2812 11.4528 11.589V13.3128H19.4561C19.887 13.3128 20.2256 13.6514 20.2256 14.0823C20.2256 14.5133 19.887 14.8519 19.4561 14.8519H10.6833C10.2523 14.8519 9.91374 14.5133 9.91374 14.0823V13.4513L7.38964 15.9754L9.91374 18.4995V17.653C9.91374 17.4529 9.99069 17.2528 10.1446 17.1143C10.2985 16.9758 10.4832 16.8835 10.6833 16.8835H19.4715C19.9024 16.8835 20.241 17.2221 20.241 17.653C20.241 18.0839 19.9024 18.4225 19.4715 18.4225H11.4528V20.3618C11.4528 20.6696 11.2681 20.962 10.9757 21.0698C10.8834 21.1159 10.7756 21.1467 10.6833 21.1467Z" fill="#494949"/>
<path d="M18.9609 14.0665C21.8852 14.0665 24.8249 14.0665 27.7491 14.0665C27.7491 13.1584 27.7491 12.2657 27.7337 11.3577C29.1959 12.8198 30.658 14.2819 32.1201 15.7441C30.658 17.2062 29.1959 18.6683 27.7337 20.1305C27.7337 19.2993 27.7337 18.4682 27.7337 17.6371C24.8095 17.6371 21.8852 17.6371 18.9609 17.6371" fill="#494949"/>
<path d="M27.7355 20.9157C27.6431 20.9157 27.5354 20.9003 27.443 20.8542C27.1506 20.731 26.9659 20.454 26.9659 20.1462V18.4224H18.9627C18.5317 18.4224 18.1931 18.0838 18.1931 17.6529C18.1931 17.2219 18.5317 16.8833 18.9627 16.8833H27.7355C28.1664 16.8833 28.505 17.2219 28.505 17.6529V18.2839L31.0291 15.7598L28.505 13.2357V14.0822C28.505 14.2823 28.428 14.4823 28.2741 14.6209C28.1202 14.7594 27.9355 14.8517 27.7355 14.8517H18.9473C18.5163 14.8517 18.1777 14.5131 18.1777 14.0822C18.1777 13.6512 18.5163 13.3126 18.9473 13.3126H26.9659V11.3734C26.9659 11.0656 27.1506 10.7732 27.443 10.6654C27.7355 10.5423 28.0587 10.6039 28.2895 10.8347L32.6759 15.2211C32.9837 15.5289 32.9837 16.006 32.6759 16.3139L28.2895 20.7003C28.1356 20.8234 27.9355 20.9157 27.7355 20.9157Z" fill="#494949"/>
</svg>
