<svg width="37" height="32" fill="none" xmlns="http://www.w3.org/2000/svg"><path d="M35.859 26.77H1.18a.748.748 0 01-.75-.748c0-.415.335-.75.75-.75h34.678a.749.749 0 110 1.499zm-2.479 4.532H3.671a.748.748 0 01-.75-.75c0-.415.335-.749.75-.749h29.71a.749.749 0 11-.001 1.499z" fill="#494949"/><path d="M6.507 31.302a.748.748 0 01-.75-.75v-4.53a.749.749 0 111.5 0v4.53c0 .415-.335.75-.75.75zm24.026 0a.748.748 0 01-.75-.75v-4.53a.748.748 0 111.499 0v4.53c0 .415-.334.75-.75.75zm-11.979-.151a.748.748 0 01-.75-.749v-4.22a.749.749 0 111.5.001v4.22a.748.748 0 01-.75.748zm6.295.151a.748.748 0 01-.75-.75l-.011-4.53a.748.748 0 111.499 0l.011 4.53c0 .415-.334.75-.75.75zm-12.579-.323a.748.748 0 01-.748-.75v-4.196a.749.749 0 111.499 0v4.197a.748.748 0 01-.75.749zM6.68 10.216c-.543 0-1.084-.161-1.5-.484-1.072-.853-.852-2.375-.657-3.712.22-1.51.75-2.975 1.591-4.358a.76.76 0 01.634-.358c.266 0 .496.139.635.358.853 1.372 1.383 2.836 1.579 4.346.173 1.314.369 2.801-.692 3.678-.426.345-1.014.53-1.59.53zm-.566-1.66c.3.23.911.207 1.222-.046.427-.346.289-1.35.162-2.317a9.28 9.28 0 00-.726-2.548 9.593 9.593 0 00-.761 2.582c-.139.945-.289 2.018.103 2.329zm12.197 14.261c-2.501 0-4.646-1.937-4.91-4.462V1.397a.749.749 0 111.499 0v16.831c.207 1.787 1.74 3.136 3.515 3.09 1.707-.046 3.125-1.372 3.32-3.09l.104-9.027c0-.415.346-.737.761-.737a.74.74 0 01.738.76l-.104 9.062v.069c-.253 2.479-2.306 4.392-4.773 4.462h-.15zm9.986-16.313a2.61 2.61 0 01-2.606-2.606 2.603 2.603 0 012.606-2.605 2.603 2.603 0 012.605 2.605 2.603 2.603 0 01-2.605 2.606zm0-3.701a1.107 1.107 0 100 2.214 1.107 1.107 0 000-2.214zM5.03 22.552a2.458 2.458 0 01-2.456-2.456A2.458 2.458 0 015.03 17.64a2.465 2.465 0 012.455 2.456 2.45 2.45 0 01-2.455 2.456zm0-3.413a.954.954 0 00-.957.957c0 .53.426.957.957.957.53 0 .957-.427.957-.957a.954.954 0 00-.957-.957zm27.116 2.421c-.542 0-1.084-.161-1.499-.484-1.072-.853-.853-2.375-.657-3.712.22-1.51.75-2.975 1.591-4.358a.76.76 0 01.634-.358c.265 0 .496.139.634.358.854 1.372 1.384 2.836 1.58 4.346.173 1.314.369 2.802-.692 3.678-.427.357-1.015.53-1.59.53zm.08-6.56a9.597 9.597 0 00-.76 2.583c-.138.934-.288 2.006.115 2.317.3.23.911.207 1.222-.046.427-.346.289-1.35.162-2.317A9.524 9.524 0 0032.227 15z" fill="#494949"/><path d="M20.328 12.21a.732.732 0 01-.53-.219.759.759 0 010-1.06l2.248-2.249a.76.76 0 01.53-.219c.197 0 .392.081.53.23l2.18 2.238c.288.3.288.772-.012 1.06a.748.748 0 01-1.06-.011l-1.649-1.707-1.706 1.707a.744.744 0 01-.53.23z" fill="#494949"/></svg>