<svg width="41" height="32" viewBox="0 0 41 32" fill="none" xmlns="http://www.w3.org/2000/svg">
<path d="M3.92904 20.9233C2.98592 20.3446 2.17687 19.5717 1.55573 18.656C1.24356 18.1923 0.983936 17.6953 0.78166 17.1742C0.584461 16.6519 0.440665 16.111 0.352472 15.5597C0.18206 14.4693 0.184647 13.3588 0.360136 12.2692C0.529796 11.1877 0.83537 10.1319 1.26961 9.12697C1.4843 8.62264 1.72914 8.13168 2.0028 7.65675C2.28118 7.17793 2.59321 6.71949 2.93654 6.28488C3.62815 5.41772 4.43477 4.64891 5.33412 3.99971C5.5551 3.84004 5.77991 3.68421 6.00472 3.53859L6.34066 3.32144L6.68172 3.10685C7.14992 2.82118 7.63396 2.56231 8.1315 2.3315C9.11652 1.87574 10.1398 1.50771 11.1895 1.2317C11.7106 1.08864 12.2394 0.976235 12.7695 0.874048C13.0378 0.826786 13.2958 0.784634 13.5743 0.746313C13.7327 0.725876 13.8629 0.71438 14.0035 0.702884C14.144 0.691388 14.2755 0.679891 14.4148 0.672227C15.4911 0.622195 16.5696 0.646522 17.6426 0.745036C19.7717 0.9422 21.8729 1.3705 23.9093 2.02238C27.9683 3.34432 31.7393 5.42492 35.0222 8.15364L35.6366 8.66457C35.7388 8.7476 35.8486 8.85107 35.9533 8.94303C36.0581 9.035 36.1603 9.13975 36.2612 9.24066C36.6653 9.64956 37.0273 10.098 37.3418 10.5793C37.6625 11.0672 37.9236 11.5916 38.1197 12.1415C38.3285 12.7122 38.4458 13.3123 38.4672 13.9196C38.4759 14.2435 38.4454 14.5673 38.3765 14.884C38.3104 15.1963 38.2101 15.5004 38.0776 15.7909C37.9499 16.0701 37.7982 16.3376 37.6241 16.5905C37.4627 16.8259 37.2892 17.0527 37.1042 17.27C36.3916 18.1157 35.5802 18.8731 34.6875 19.5258C34.2447 19.8533 33.7841 20.1561 33.308 20.4328L33.1215 20.5375L32.949 20.6307L32.6067 20.8172L31.9182 21.1889C30.9973 21.6833 30.0558 22.1623 29.0889 22.6017C27.1473 23.4867 25.1138 24.1542 23.0253 24.5918C20.946 25.0321 18.8278 25.2632 16.7025 25.2816C15.6425 25.2936 14.5826 25.251 13.527 25.1538C12.4719 25.0567 11.4283 24.8983 10.3988 24.731C9.35186 24.5653 8.31513 24.3406 7.29356 24.0579C6.78263 23.9135 6.27169 23.7449 5.76969 23.5469C5.26769 23.3489 4.79763 23.1637 4.30841 22.944C3.81119 22.7303 3.32859 22.4841 2.86373 22.207C2.62335 22.062 2.39292 21.9011 2.17397 21.7254C2.06156 21.6386 1.95682 21.5338 1.84952 21.4393C1.74222 21.3448 1.64514 21.2273 1.5519 21.1085C1.45657 20.9878 1.37114 20.8597 1.29643 20.7253C1.25939 20.6576 1.21851 20.5975 1.1853 20.5222L1.09844 20.3025L1.05629 20.1926L1.02819 20.0777L0.975816 19.8465C0.950416 19.6915 0.939724 19.5346 0.943883 19.3777C0.978836 18.782 1.17148 18.2062 1.50208 17.7095C1.55866 17.6153 1.65033 17.5474 1.75693 17.5208C1.86353 17.4942 1.97632 17.5111 2.0705 17.5677C2.16468 17.6242 2.23253 17.7159 2.25912 17.8225C2.28571 17.9291 2.26886 18.0419 2.21229 18.1361V18.1361C1.97379 18.5133 1.83938 18.947 1.8227 19.393C1.8318 19.8119 1.99037 20.2137 2.26977 20.526C2.58316 20.8709 2.95343 21.1596 3.36445 21.3793C3.7988 21.6213 4.24853 21.8347 4.71077 22.0179C5.177 22.2083 5.6675 22.3884 6.14523 22.5621C6.62296 22.7358 7.09813 22.8776 7.58735 23.0028C8.57422 23.2502 9.57427 23.4416 10.5827 23.5763C11.6046 23.7181 12.6265 23.8471 13.6356 23.9148C14.6499 23.9856 15.6671 24.0039 16.6833 23.9697C18.7127 23.9029 20.7303 23.6333 22.706 23.165C24.6761 22.7031 26.5889 22.0241 28.4094 21.1404C29.3252 20.7035 30.2296 20.2271 31.1378 19.7353L31.8186 19.3662L32.1596 19.181L32.3295 19.089L32.4828 19.0034C32.9038 18.7572 33.3111 18.4881 33.7027 18.1974C34.4868 17.6211 35.1987 16.9525 35.8231 16.206C36.1193 15.8723 36.3693 15.5002 36.5665 15.0998C36.6508 14.918 36.7147 14.7274 36.7568 14.5314C36.7997 14.3408 36.8186 14.1455 36.813 13.9502C36.7946 13.5175 36.7084 13.0904 36.5575 12.6844C36.4057 12.2554 36.2028 11.8463 35.9533 11.4658C35.7043 11.0776 35.4172 10.7152 35.0963 10.3839C35.0111 10.2987 34.9259 10.2174 34.8408 10.1399C34.7514 10.0607 34.6722 9.98535 34.5738 9.9036L33.9875 9.41693C30.8623 6.82277 27.2728 4.84575 23.4098 3.59096C21.4865 2.97876 19.5036 2.57284 17.4944 2.38004C16.4993 2.28675 15.4989 2.262 14.5003 2.30595C14.3726 2.31234 14.2551 2.32 14.135 2.32894C14.015 2.33788 13.8885 2.35066 13.7901 2.36215L13.0569 2.47712C12.5664 2.56142 12.0772 2.66361 11.5931 2.79007C10.6296 3.0312 9.6892 3.35691 8.78295 3.7634C8.33625 3.96341 7.90126 4.18858 7.48006 4.43784L7.15944 4.63455L6.83883 4.83637C6.62679 4.97049 6.42369 5.10972 6.22187 5.25151C5.42442 5.80429 4.70555 6.46257 4.08487 7.2084C3.4702 7.96649 2.95508 8.80013 2.55206 9.689C2.13601 10.5821 1.82646 11.521 1.62982 12.4864C1.43478 13.4419 1.39167 14.4222 1.50208 15.3911C1.56026 15.8686 1.66551 16.3393 1.81631 16.7962C1.96456 17.2537 2.16335 17.6932 2.409 18.1067C2.91603 18.9427 3.58793 19.6668 4.38377 20.2348C4.46579 20.2988 4.52065 20.3915 4.53743 20.4942C4.55421 20.5969 4.53168 20.7021 4.47432 20.789C4.41696 20.8758 4.32899 20.9379 4.22794 20.9628C4.12688 20.9876 4.02016 20.9735 3.92904 20.9233V20.9233Z" fill="#494949"/>
<path d="M18.4034 21.6324C19.3765 21.6473 20.3497 21.6072 21.3183 21.5124C22.2876 21.4199 23.2504 21.2684 24.2013 21.0589C26.1122 20.6252 27.9677 19.976 29.7322 19.1237C30.6183 18.7004 31.479 18.2257 32.3098 17.7021C33.1417 17.1877 33.9326 16.6099 34.6755 15.9738C35.038 15.6592 35.3762 15.3176 35.6871 14.9519C35.9915 14.597 36.2377 14.196 36.4165 13.764C36.499 13.5511 36.5552 13.3289 36.5838 13.1023C36.6157 12.8704 36.6272 12.6362 36.6183 12.4023C36.5967 11.9275 36.5036 11.4585 36.3424 11.0113C36.3319 10.9831 36.3269 10.9532 36.328 10.9231C36.329 10.893 36.3359 10.8634 36.3484 10.836C36.3608 10.8086 36.3786 10.7839 36.4005 10.7634C36.4225 10.7428 36.4484 10.7268 36.4765 10.7163C36.5047 10.7057 36.5347 10.7008 36.5648 10.7018C36.5949 10.7028 36.6245 10.7097 36.6519 10.7222C36.6793 10.7347 36.7039 10.7524 36.7245 10.7744C36.745 10.7964 36.761 10.8222 36.7716 10.8504C37.1548 11.8122 37.2966 12.9107 36.9555 13.9582C36.7731 14.4578 36.5122 14.9252 36.1828 15.3428C35.8651 15.752 35.5167 16.1363 35.1404 16.4924C34.392 17.1826 33.5913 17.8137 32.7454 18.3803C31.9089 18.9538 31.0397 19.4779 30.1422 19.9502C28.3432 20.9066 26.4414 21.6556 24.4733 22.183C23.484 22.4414 22.4799 22.6393 21.4665 22.7757C20.453 22.9148 19.4325 22.9967 18.4098 23.0209V23.0209C18.2305 23.0186 18.0592 22.9468 17.9318 22.8206C17.8044 22.6945 17.7309 22.5239 17.7267 22.3446C17.7226 22.1654 17.7882 21.9916 17.9096 21.8597C18.031 21.7278 18.1989 21.6482 18.3778 21.6376L18.4034 21.6324Z" fill="#494949"/>
<path d="M16.2762 30.6635C12.9486 30.6499 9.63964 30.167 6.447 29.229C6.3403 29.2004 6.24039 29.1507 6.15312 29.083C6.06585 29.0152 5.99299 28.9307 5.93879 28.8344C5.88459 28.7382 5.85016 28.632 5.8375 28.5223C5.82484 28.4125 5.83421 28.3014 5.86507 28.1953C5.89593 28.0892 5.94765 27.9903 6.0172 27.9045C6.08675 27.8186 6.17273 27.7475 6.27011 27.6954C6.36749 27.6432 6.47431 27.6109 6.5843 27.6006C6.6943 27.5902 6.80526 27.6019 6.91068 27.6349C11.702 29.0298 19.0365 30.0619 26.7721 27.0703C31.4165 25.2731 35.6292 22.2164 38.9529 18.2426C39.0228 18.1587 39.1086 18.0894 39.2053 18.0387C39.302 17.988 39.4078 17.9568 39.5166 17.947C39.6253 17.9371 39.735 17.9488 39.8392 17.9813C39.9435 18.0139 40.0403 18.0666 40.1242 18.1366C40.2081 18.2065 40.2773 18.2923 40.3281 18.389C40.3788 18.4857 40.41 18.5915 40.4198 18.7003C40.4296 18.809 40.418 18.9187 40.3854 19.0229C40.3529 19.1272 40.3002 19.224 40.2302 19.3079C36.7265 23.5001 32.2813 26.7165 27.375 28.6185C23.8343 29.9828 20.0706 30.6763 16.2762 30.6635V30.6635Z" fill="#494949"/>
<path d="M1.81055 26.7865L9.41586 26.5642L6.84073 28.6718L7.3951 31.9533L1.81055 26.7865Z" fill="#494949"/>
</svg>
