<svg width="37" height="32" viewBox="0 0 37 32" fill="none" xmlns="http://www.w3.org/2000/svg">
<path d="M35.8588 26.7709H1.18099C0.765968 26.7709 0.431641 26.4366 0.431641 26.0216C0.431641 25.6065 0.765968 25.2722 1.18099 25.2722H35.8588C36.2738 25.2722 36.6081 25.6065 36.6081 26.0216C36.6081 26.4366 36.2738 26.7709 35.8588 26.7709Z" fill="#494949"/>
<path d="M33.3802 31.3017H3.67123C3.2562 31.3017 2.92188 30.9674 2.92188 30.5523C2.92188 30.1373 3.2562 29.803 3.67123 29.803H33.3802C33.7952 29.803 34.1296 30.1373 34.1296 30.5523C34.1296 30.9674 33.7952 31.3017 33.3802 31.3017Z" fill="#494949"/>
<path d="M6.50717 31.3016C6.09214 31.3016 5.75781 30.9673 5.75781 30.5523V26.0216C5.75781 25.6065 6.09214 25.2722 6.50717 25.2722C6.92219 25.2722 7.25652 25.6065 7.25652 26.0216V30.5523C7.25652 30.9673 6.92219 31.3016 6.50717 31.3016Z" fill="#494949"/>
<path d="M30.5326 31.3016C30.1175 31.3016 29.7832 30.9673 29.7832 30.5523V26.0216C29.7832 25.6065 30.1175 25.2722 30.5326 25.2722C30.9476 25.2722 31.2819 25.6065 31.2819 26.0216V30.5523C31.2819 30.9673 30.9476 31.3016 30.5326 31.3016Z" fill="#494949"/>
<path d="M18.554 31.1515C18.139 31.1515 17.8047 30.8172 17.8047 30.4021V26.1827C17.8047 25.7677 18.139 25.4333 18.554 25.4333C18.9691 25.4333 19.3034 25.7677 19.3034 26.1827V30.4021C19.3034 30.8172 18.9691 31.1515 18.554 31.1515Z" fill="#494949"/>
<path d="M24.8488 31.3016C24.4337 31.3016 24.0994 30.9673 24.0994 30.5523L24.0879 26.0216C24.0879 25.6065 24.4222 25.2722 24.8372 25.2722C25.2523 25.2722 25.5866 25.6065 25.5866 26.0216L25.5981 30.5523C25.5981 30.9673 25.2638 31.3016 24.8488 31.3016Z" fill="#494949"/>
<path d="M12.2708 30.979C11.8558 30.979 11.5215 30.6447 11.5215 30.2297V26.0333C11.5215 25.6183 11.8558 25.2839 12.2708 25.2839C12.6859 25.2839 13.0202 25.6183 13.0202 26.0333V30.2297C13.0202 30.6447 12.6859 30.979 12.2708 30.979Z" fill="#494949"/>
<path d="M6.67932 10.216C6.13748 10.216 5.59564 10.0546 5.18062 9.73179C4.10846 8.87868 4.32751 7.35691 4.52349 6.0196C4.74253 4.50937 5.27284 3.04525 6.11443 1.66183C6.25277 1.44279 6.49487 1.30444 6.74849 1.30444C7.01365 1.30444 7.24422 1.44279 7.38256 1.66183C8.23567 3.03372 8.76598 4.49784 8.96197 6.00808C9.1349 7.32233 9.33088 8.8095 8.27026 9.68567C7.8437 10.0315 7.25575 10.216 6.67932 10.216ZM6.11443 8.55588C6.41417 8.78645 7.02518 8.76339 7.33645 8.50976C7.763 8.16391 7.62466 7.16093 7.49785 6.19253C7.38256 5.32789 7.14046 4.47478 6.77155 3.64473C6.39111 4.48631 6.13748 5.35095 6.01067 6.22712C5.87233 7.17246 5.72246 8.24461 6.11443 8.55588Z" fill="#494949"/>
<path d="M18.3115 22.8165C15.8099 22.8165 13.6655 20.8798 13.4004 18.355C13.4004 18.332 13.4004 18.2974 13.4004 18.2743V1.39657C13.4004 0.981544 13.7347 0.647217 14.1497 0.647217C14.5648 0.647217 14.8991 0.981544 14.8991 1.39657V18.2282C15.1066 20.0151 16.6399 21.364 18.4153 21.3178C20.1215 21.2717 21.5395 19.9459 21.7355 18.2282L21.8393 9.20137C21.8393 8.78635 22.1851 8.46355 22.6001 8.46355C23.0152 8.46355 23.3495 8.8094 23.338 9.22443L23.2342 18.2858C23.2342 18.3089 23.2342 18.332 23.2342 18.355C22.9806 20.8336 20.9285 22.7474 18.4614 22.8165C18.4038 22.8165 18.3577 22.8165 18.3115 22.8165Z" fill="#494949"/>
<path d="M28.2969 6.50361C26.8673 6.50361 25.6914 5.33923 25.6914 3.89817C25.6914 2.4571 26.8558 1.29272 28.2969 1.29272C29.7379 1.29272 30.9023 2.4571 30.9023 3.89817C30.9023 5.33923 29.7379 6.50361 28.2969 6.50361ZM28.2969 2.80296C27.6858 2.80296 27.1901 3.29869 27.1901 3.9097C27.1901 4.52071 27.6858 5.01643 28.2969 5.01643C28.9079 5.01643 29.4036 4.52071 29.4036 3.9097C29.4036 3.29869 28.9079 2.80296 28.2969 2.80296Z" fill="#494949"/>
<path d="M5.02979 22.5515C3.66943 22.5515 2.57422 21.4448 2.57422 20.096C2.57422 18.7356 3.68096 17.6404 5.02979 17.6404C6.37863 17.6404 7.48537 18.7471 7.48537 20.096C7.48537 21.4563 6.39016 22.5515 5.02979 22.5515ZM5.02979 19.1391C4.49948 19.1391 4.07293 19.5656 4.07293 20.096C4.07293 20.6263 4.49948 21.0528 5.02979 21.0528C5.5601 21.0528 5.98666 20.6263 5.98666 20.096C5.98666 19.5656 5.5601 19.1391 5.02979 19.1391Z" fill="#494949"/>
<path d="M32.1461 21.56C31.6043 21.56 31.0624 21.3986 30.6474 21.0758C29.5753 20.2227 29.7943 18.7009 29.9903 17.3636C30.2093 15.8534 30.7396 14.3892 31.5812 13.0058C31.7196 12.7868 31.9617 12.6484 32.2153 12.6484C32.4804 12.6484 32.711 12.7868 32.8494 13.0058C33.7025 14.3777 34.2328 15.8418 34.4288 17.3521C34.6017 18.6663 34.7977 20.1535 33.7371 21.0297C33.3105 21.387 32.7225 21.56 32.1461 21.56ZM32.2268 15.0003C31.8464 15.8418 31.5928 16.7065 31.4659 17.5826C31.3276 18.5165 31.1777 19.5886 31.5812 19.8999C31.881 20.1304 32.492 20.1074 32.8032 19.8538C33.2298 19.5079 33.0915 18.5049 32.9646 17.5365C32.8378 16.6719 32.5957 15.8188 32.2268 15.0003Z" fill="#494949"/>
<path d="M20.3285 12.2101C20.1325 12.2101 19.9481 12.141 19.7982 11.9911C19.51 11.7029 19.51 11.2187 19.7982 10.9305L22.0463 8.68242C22.1846 8.54408 22.3806 8.46338 22.5766 8.46338C22.7725 8.46338 22.9685 8.54408 23.1069 8.69395L25.2858 10.9305C25.574 11.2302 25.574 11.7029 25.2742 11.9911C24.9745 12.2793 24.5018 12.2793 24.2136 11.9796L22.565 10.2734L20.8588 11.9796C20.7089 12.1294 20.5245 12.2101 20.3285 12.2101Z" fill="#494949"/>
</svg>
