<svg width="23" height="20" fill="none" xmlns="http://www.w3.org/2000/svg"><path d="M22.034 16.248H.466a.465.465 0 110-.932h21.568a.465.465 0 110 .932zm-1.542 2.817H2.015a.465.465 0 110-.932h18.477a.465.465 0 110 .932z" fill="#fff"/><path d="M3.779 19.066a.465.465 0 01-.466-.466v-2.818a.465.465 0 11.932 0V18.6a.465.465 0 01-.466.466zm14.941 0a.465.465 0 01-.465-.466v-2.818a.465.465 0 11.932 0V18.6a.465.465 0 01-.466.466zm-7.448-.094a.465.465 0 01-.466-.466v-2.624a.465.465 0 11.932 0v2.624a.465.465 0 01-.466.466zm3.915.094a.465.465 0 01-.466-.466l-.007-2.818a.465.465 0 11.932 0l.007 2.818a.465.465 0 01-.466.466zm-7.823-.201a.465.465 0 01-.467-.466v-2.61a.465.465 0 11.933 0v2.61a.465.465 0 01-.466.466zM3.886 5.951c-.337 0-.674-.1-.932-.3-.667-.532-.53-1.478-.409-2.31.136-.939.466-1.85.99-2.71a.473.473 0 01.394-.222c.165 0 .308.086.394.222.531.853.86 1.764.983 2.703.107.818.23 1.742-.43 2.287-.266.216-.631.33-.99.33zM3.535 4.92c.186.143.566.129.76-.029.265-.215.179-.839.1-1.441a5.772 5.772 0 00-.452-1.585A5.966 5.966 0 003.47 3.47c-.086.588-.18 1.255.065 1.449zm7.585 8.868c-1.555 0-2.889-1.204-3.054-2.775V.466a.465.465 0 11.933 0v10.469c.129 1.11 1.082 1.95 2.186 1.921 1.062-.029 1.944-.853 2.065-1.921l.065-5.615c0-.258.215-.459.473-.459a.46.46 0 01.46.474l-.065 5.635v.043a3.086 3.086 0 01-2.969 2.775h-.093zm6.21-10.146c-.889 0-1.62-.724-1.62-1.62 0-.896.724-1.62 1.62-1.62.897 0 1.62.724 1.62 1.62 0 .896-.723 1.62-1.62 1.62zm0-2.301a.688.688 0 100 1.377.688.688 0 000-1.377zM2.86 13.623a1.528 1.528 0 010-3.054c.84 0 1.528.688 1.528 1.527 0 .846-.682 1.527-1.528 1.527zm0-2.122a.594.594 0 00-.595.595c0 .33.265.595.595.595.33 0 .595-.265.595-.595a.594.594 0 00-.595-.595zm16.865 1.506c-.337 0-.674-.1-.932-.301-.667-.53-.53-1.477-.409-2.309.136-.94.466-1.85.99-2.71a.473.473 0 01.394-.223c.165 0 .308.086.394.223.53.853.86 1.763.983 2.703.107.817.229 1.742-.43 2.287-.266.222-.632.33-.99.33zm.05-4.08a5.968 5.968 0 00-.473 1.606c-.086.581-.18 1.248.072 1.441.186.144.566.13.76-.028.265-.215.179-.84.1-1.441a5.927 5.927 0 00-.459-1.578z" fill="#fff"/><path d="M12.375 7.192a.455.455 0 01-.33-.137.472.472 0 010-.66l1.399-1.397a.473.473 0 01.33-.137.45.45 0 01.33.144l1.355 1.39a.465.465 0 01-.008.66.465.465 0 01-.66-.007l-1.025-1.061-1.06 1.061a.463.463 0 01-.33.144z" fill="#fff"/></svg>