<svg width="41" height="32" fill="none" xmlns="http://www.w3.org/2000/svg"><path d="M3.929 20.923a7.792 7.792 0 01-2.373-2.267 7.538 7.538 0 01-.774-1.482 8.268 8.268 0 01-.43-1.614c-.17-1.09-.167-2.201.008-3.29.17-1.082.475-2.138.91-3.143.214-.504.46-.995.733-1.47.278-.48.59-.938.934-1.372A12.201 12.201 0 015.334 4c.221-.16.446-.316.67-.461l.337-.218.34-.214c.469-.286.953-.545 1.45-.776a18.464 18.464 0 013.059-1.1 20.91 20.91 0 011.58-.357c.268-.047.526-.09.804-.128.159-.02.289-.032.43-.043.14-.012.271-.023.41-.03a23.413 23.413 0 013.229.072 29.5 29.5 0 016.266 1.277 33.722 33.722 0 0111.113 6.132l.615.51c.102.084.212.187.316.279.105.092.207.197.308.298.404.409.766.857 1.08 1.338a7.32 7.32 0 01.779 1.563c.209.57.326 1.17.347 1.778a4.06 4.06 0 01-.09.964 4.362 4.362 0 01-.3.907c-.127.28-.279.547-.453.8a8.21 8.21 0 01-.52.679 13.85 13.85 0 01-2.416 2.256c-.443.327-.904.63-1.38.907l-.187.105-.172.093-.342.186-.689.372c-.92.494-1.862.973-2.83 1.413a28.918 28.918 0 01-6.063 1.99 31.912 31.912 0 01-9.498.562 45.515 45.515 0 01-3.128-.423 28.132 28.132 0 01-3.105-.673 16.058 16.058 0 01-1.524-.511c-.502-.198-.972-.383-1.462-.603a12.33 12.33 0 01-1.444-.737 6.308 6.308 0 01-.69-.482c-.112-.086-.217-.191-.324-.286a2.476 2.476 0 01-.298-.33 2.86 2.86 0 01-.256-.384c-.037-.067-.077-.128-.11-.203l-.088-.22-.042-.11-.028-.114-.052-.232a2.49 2.49 0 01-.032-.468 3.367 3.367 0 01.558-1.669.414.414 0 11.71.427 2.537 2.537 0 00-.39 1.257c.01.419.168.82.448 1.133.313.345.683.634 1.094.853.435.242.885.456 1.347.639.466.19.957.37 1.434.544.478.174.953.316 1.442.44.987.248 1.987.44 2.996.574 1.022.142 2.043.271 3.053.339a29.78 29.78 0 003.047.055 30.458 30.458 0 006.023-.805 27.365 27.365 0 005.703-2.025c.916-.437 1.82-.913 2.729-1.405l.68-.369.342-.185.17-.092.153-.086a13.37 13.37 0 001.22-.806 12.129 12.129 0 002.12-1.991c.296-.334.546-.706.743-1.106.085-.182.149-.373.19-.569.044-.19.063-.386.057-.58a4.138 4.138 0 00-.256-1.267 5.674 5.674 0 00-.604-1.218 6.942 6.942 0 00-.857-1.082 7.565 7.565 0 00-.255-.244c-.09-.08-.169-.155-.267-.236l-.587-.487A32.076 32.076 0 0023.41 3.59a28.468 28.468 0 00-5.916-1.211 21.806 21.806 0 00-2.994-.074 12.98 12.98 0 00-.71.056l-.733.115c-.49.084-.98.187-1.464.313a16.88 16.88 0 00-2.81.973c-.447.2-.882.426-1.303.675l-.32.197-.321.201c-.212.134-.415.274-.617.416a10.741 10.741 0 00-2.137 1.956A11.439 11.439 0 002.552 9.69a12.562 12.562 0 00-.922 2.797 9.274 9.274 0 00-.128 2.905 7.3 7.3 0 00.314 1.405c.149.458.347.897.593 1.31a7.205 7.205 0 001.975 2.129.414.414 0 01-.455.688z" fill="#494949"/><path d="M18.403 21.632a25.86 25.86 0 002.915-.12c.97-.092 1.932-.244 2.883-.453a25.892 25.892 0 005.531-1.935 25.24 25.24 0 002.578-1.422 19.005 19.005 0 002.365-1.728 9.48 9.48 0 001.012-1.022c.305-.355.55-.756.73-1.188.082-.213.138-.435.167-.662.032-.232.043-.466.034-.7a4.737 4.737 0 00-.276-1.39.229.229 0 01.43-.162c.383.962.525 2.06.184 3.108a5.01 5.01 0 01-.773 1.385c-.318.409-.666.793-1.043 1.15-.748.69-1.549 1.32-2.395 1.887a26.091 26.091 0 01-2.603 1.57 26.92 26.92 0 01-5.669 2.233 25.39 25.39 0 01-3.006.593c-1.014.139-2.034.22-3.057.245a.692.692 0 01-.032-1.383l.025-.006zm-2.127 9.031a35.382 35.382 0 01-9.829-1.434.83.83 0 11.464-1.594c4.791 1.395 12.126 2.427 19.861-.565 4.645-1.797 8.857-4.854 12.18-8.827a.83.83 0 111.278 1.065c-3.503 4.192-7.949 7.409-12.855 9.31a30.582 30.582 0 01-11.099 2.046z" fill="#494949"/><path d="M1.81 26.787l7.606-.223-2.575 2.108.554 3.281-5.584-5.166z" fill="#494949"/></svg>