<svg width="10" height="10" viewBox="0 0 10 10" fill="none" xmlns="http://www.w3.org/2000/svg">
<path fill-rule="evenodd" clip-rule="evenodd" d="M5 10C7.76143 10 10 7.76137 10 5C10 2.23863 7.76143 0 5 0C2.23857 0 0 2.23863 0 5C0 7.76137 2.23857 10 5 10ZM7.21511 2.78493C7.3989 2.96861 7.3989 3.2666 7.21511 3.45043L5.66552 5L7.21511 6.54958C7.39888 6.7334 7.39888 7.03139 7.21511 7.21507C7.03134 7.3989 6.73338 7.3989 6.54959 7.21507L5 5.6655L3.45041 7.21507C3.26664 7.3989 2.96868 7.3989 2.78489 7.21507C2.60112 7.03139 2.60112 6.7334 2.78489 6.54958L4.33448 5L2.78489 3.45043C2.60112 3.2666 2.60112 2.96861 2.78489 2.78493C2.96866 2.6011 3.26662 2.6011 3.45041 2.78493L5 4.3345L6.54959 2.78493C6.73338 2.6011 7.03134 2.6011 7.21511 2.78493Z" fill="#636366"/>
</svg>
