<svg width="19" height="18" viewBox="0 0 19 18" fill="none" xmlns="http://www.w3.org/2000/svg">
<path d="M9.57227 1.62225C11.9753 1.62225 12.2603 1.63125 13.2098 1.67475C15.6488 1.78575 16.788 2.943 16.899 5.364C16.9425 6.31275 16.9508 6.59775 16.9508 9.00075C16.9508 11.4045 16.9418 11.6888 16.899 12.6375C16.7873 15.0562 15.651 16.2157 13.2098 16.3267C12.2603 16.3702 11.9768 16.3792 9.57227 16.3792C7.16927 16.3792 6.88427 16.3702 5.93552 16.3267C3.49052 16.215 2.35727 15.0525 2.24627 12.6368C2.20277 11.688 2.19377 11.4037 2.19377 9C2.19377 6.597 2.20352 6.31275 2.24627 5.36325C2.35802 2.943 3.49427 1.785 5.93552 1.674C6.88502 1.63125 7.16927 1.62225 9.57227 1.62225ZM9.57227 0C7.12802 0 6.82202 0.0105 5.86202 0.054C2.59352 0.204 0.777016 2.0175 0.627016 5.289C0.582766 6.24975 0.572266 6.55575 0.572266 9C0.572266 11.4443 0.582766 11.751 0.626266 12.711C0.776266 15.9795 2.58977 17.796 5.86127 17.946C6.82202 17.9895 7.12802 18 9.57227 18C12.0165 18 12.3233 17.9895 13.2833 17.946C16.5488 17.796 18.3698 15.9825 18.5175 12.711C18.5618 11.751 18.5723 11.4443 18.5723 9C18.5723 6.55575 18.5618 6.24975 18.5183 5.28975C18.3713 2.02425 16.5555 0.20475 13.284 0.05475C12.3233 0.0105 12.0165 0 9.57227 0ZM9.57227 4.3785C7.02002 4.3785 4.95077 6.44775 4.95077 9C4.95077 11.5522 7.02002 13.6222 9.57227 13.6222C12.1245 13.6222 14.1938 11.553 14.1938 9C14.1938 6.44775 12.1245 4.3785 9.57227 4.3785ZM9.57227 12C7.91552 12 6.57227 10.6575 6.57227 9C6.57227 7.34325 7.91552 6 9.57227 6C11.229 6 12.5723 7.34325 12.5723 9C12.5723 10.6575 11.229 12 9.57227 12ZM14.3768 3.11625C13.7798 3.11625 13.296 3.6 13.296 4.19625C13.296 4.7925 13.7798 5.27625 14.3768 5.27625C14.973 5.27625 15.456 4.7925 15.456 4.19625C15.456 3.6 14.973 3.11625 14.3768 3.11625Z" fill="white"/>
</svg>
