<svg width="19" height="18" fill="none" xmlns="http://www.w3.org/2000/svg"><path d="M9.572 1.622c2.403 0 2.688.01 3.638.053 2.439.11 3.578 1.268 3.689 3.689.043.949.052 1.234.052 3.637 0 2.404-.01 2.688-.052 3.636-.112 2.42-1.248 3.579-3.69 3.69-.949.043-1.232.052-3.637.052-2.403 0-2.688-.009-3.636-.052-2.445-.112-3.579-1.275-3.69-3.69-.043-.949-.052-1.233-.052-3.637 0-2.403.01-2.687.052-3.637.112-2.42 1.248-3.578 3.69-3.689.949-.043 1.233-.052 3.636-.052zm0-1.622c-2.444 0-2.75.01-3.71.054C2.594.204.777 2.018.627 5.289.583 6.249.572 6.556.572 9s.01 2.751.054 3.711c.15 3.268 1.964 5.085 5.235 5.235.961.043 1.267.054 3.711.054 2.445 0 2.751-.01 3.711-.054 3.266-.15 5.087-1.964 5.234-5.235.045-.96.055-1.267.055-3.711s-.01-2.75-.054-3.71C18.371 2.024 16.555.205 13.284.055 12.324.01 12.016 0 9.572 0zm0 4.378a4.622 4.622 0 100 9.244 4.622 4.622 0 000-9.244zm0 7.622a3 3 0 110-6 3 3 0 010 6zm4.805-8.884a1.08 1.08 0 100 2.161 1.08 1.08 0 000-2.16z" fill="#fff"/></svg>