<svg width="22" height="18" viewBox="0 0 22 18" fill="none" xmlns="http://www.w3.org/2000/svg">
<path fill-rule="evenodd" clip-rule="evenodd" d="M16.3303 17.811C16.6063 18.0064 16.962 18.0553 17.2792 17.9353C17.5963 17.8144 17.8295 17.5435 17.8997 17.2153C18.6446 13.7147 20.4515 4.85441 21.1295 1.67012C21.1809 1.43012 21.0952 1.18069 20.9066 1.02041C20.718 0.86012 20.4566 0.813835 20.2235 0.900406C16.6295 2.23069 5.56118 6.38355 1.03718 8.05755C0.750035 8.16383 0.563178 8.43983 0.572607 8.74241C0.582892 9.04583 0.786892 9.30898 1.08089 9.39726C3.10975 10.0041 5.77289 10.8484 5.77289 10.8484C5.77289 10.8484 7.01746 14.607 7.66632 16.5184C7.74775 16.7584 7.93546 16.947 8.18318 17.0121C8.43003 17.0764 8.69403 17.0087 8.87832 16.8347C9.92061 15.8507 11.532 14.3293 11.532 14.3293C11.532 14.3293 14.5938 16.5741 16.3303 17.811ZM6.89318 10.3735L8.33232 15.1204L8.65203 12.1144C8.65203 12.1144 14.2123 7.09926 17.382 4.24069C17.4746 4.15669 17.4875 4.01612 17.4103 3.91755C17.334 3.81898 17.1935 3.79583 17.088 3.86269C13.4143 6.20869 6.89318 10.3735 6.89318 10.3735Z" fill="white"/>
</svg>
