<svg width="22" height="18" fill="none" xmlns="http://www.w3.org/2000/svg"><path fill-rule="evenodd" clip-rule="evenodd" d="M16.33 17.811c.276.195.632.244.95.124a.995.995 0 00.62-.72c.745-3.5 2.552-12.36 3.23-15.545a.67.67 0 00-.223-.65.686.686 0 00-.683-.12C16.629 2.23 5.56 6.384 1.037 8.058a.709.709 0 00-.464.684.71.71 0 00.508.655c2.029.607 4.692 1.451 4.692 1.451s1.244 3.759 1.893 5.67a.75.75 0 00.517.494.743.743 0 00.695-.177l2.654-2.506s3.062 2.245 4.798 3.482zm-9.437-7.438l1.44 4.747.319-3.006 8.73-7.873a.238.238 0 00.028-.323.244.244 0 00-.322-.055l-10.195 6.51z" fill="#fff"/></svg>