<svg width="21" height="13" viewBox="0 0 21 13" fill="none" xmlns="http://www.w3.org/2000/svg">
<path d="M11.2817 12.4236C11.8037 12.4236 12.0171 12.0756 12.0111 11.6393C11.9846 9.99614 12.6231 9.11157 13.776 10.2644C15.0514 11.5399 15.3154 12.4236 16.8643 12.4236H19.6071C20.2997 12.4236 20.5723 12.2007 20.5723 11.851C20.5723 11.1113 19.3543 9.80585 18.3223 8.84757C16.8771 7.50614 16.8094 7.47443 18.054 5.85957C19.5977 3.85471 21.6171 1.28585 19.8309 1.28585H16.4186C15.7569 1.28585 15.7089 1.65871 15.4731 2.21414C14.6203 4.22585 12.9994 6.83157 12.384 6.433C11.7403 6.01728 12.0351 4.37071 12.084 1.92357C12.0969 1.27728 12.0934 0.834139 11.106 0.604425C10.5669 0.480139 10.0423 0.428711 9.55543 0.428711C7.60714 0.428711 6.26314 1.24557 7.02686 1.38785C8.37343 1.639 8.244 4.55243 7.93028 5.81071C7.38343 8.00157 5.328 4.07585 4.47171 2.12071C4.26514 1.651 4.20171 1.28585 3.46457 1.28585H0.674571C0.252857 1.28585 0 1.423 0 1.72814C0 2.24414 2.53714 7.48814 4.95943 10.1024C7.32171 12.6524 9.65657 12.4236 11.2817 12.4236Z" fill="white"/>
</svg>
