<svg width="21" height="13" fill="none" xmlns="http://www.w3.org/2000/svg"><path d="M11.282 12.424c.522 0 .735-.348.73-.785-.027-1.643.611-2.527 1.764-1.375 1.275 1.276 1.54 2.16 3.088 2.16h2.743c.693 0 .965-.223.965-.573 0-.74-1.218-2.045-2.25-3.003-1.445-1.342-1.513-1.374-.268-2.988 1.544-2.005 3.563-4.574 1.777-4.574h-3.412c-.662 0-.71.373-.946.928C14.62 4.226 13 6.832 12.384 6.433c-.644-.416-.349-2.062-.3-4.51.013-.646.01-1.089-.978-1.319A6.917 6.917 0 009.556.43c-1.949 0-3.293.817-2.53.959 1.347.251 1.218 3.164.904 4.423C7.383 8 5.328 4.076 4.472 2.12c-.207-.47-.27-.835-1.007-.835H.675c-.422 0-.675.137-.675.442 0 .516 2.537 5.76 4.96 8.374 2.362 2.55 4.697 2.322 6.322 2.322z" fill="#fff"/></svg>