<svg width="20" height="21" viewBox="0 0 20 21" fill="none" xmlns="http://www.w3.org/2000/svg">
<path d="M8.76024 0.50636C9.30276 -0.168787 10.3307 -0.168787 10.8732 0.50636L12.6766 2.7506C12.9327 3.06937 13.3191 3.25543 13.728 3.25695L16.607 3.26763C17.4731 3.27084 18.114 4.07449 17.9244 4.9196L17.2942 7.72879C17.2047 8.1278 17.3001 8.5459 17.5539 8.86655L19.3406 11.1241C19.8781 11.8033 19.6493 12.8054 18.8704 13.1841L16.2811 14.4429C15.9134 14.6216 15.646 14.9569 15.5535 15.3553L14.9025 18.1597C14.7066 19.0034 13.7805 19.4494 12.9988 19.0765L10.4002 17.8369C10.0311 17.6609 9.60229 17.6609 9.23321 17.8369L6.63468 19.0765C5.85295 19.4494 4.92684 19.0034 4.73098 18.1597L4.07994 15.3553C3.98746 14.9569 3.72008 14.6216 3.35231 14.4429L0.763049 13.1841C-0.0158924 12.8054 -0.244623 11.8033 0.292874 11.1241L2.07956 8.86655C2.33333 8.5459 2.42876 8.1278 2.33924 7.72879L1.70901 4.9196C1.51942 4.07449 2.16031 3.27084 3.02641 3.26763L5.90542 3.25695C6.31434 3.25543 6.70072 3.06937 6.95687 2.7506L8.76024 0.50636Z" fill="#D45151"/>
<path d="M6.43087 15.8703L13.4092 5.56351L12.8947 5.22584L5.90025 15.5326L6.43087 15.8703ZM6.68814 5.38663C5.72338 5.38663 4.99982 5.75646 4.51744 6.4961C4.22802 6.95704 4.0833 7.49301 4.0833 8.10402C4.0833 9.22957 4.47992 10.0335 5.27317 10.5159C5.68051 10.7625 6.13608 10.8857 6.6399 10.8857C7.61537 10.8857 8.33894 10.5105 8.81059 9.76018C9.10002 9.29924 9.24473 8.76327 9.24473 8.15226C9.24473 6.9624 8.82131 6.14236 7.97447 5.69214C7.58857 5.48847 7.15979 5.38663 6.68814 5.38663ZM6.67206 10.5641C6.1468 10.5641 5.8145 10.2318 5.67515 9.56723C5.60011 9.22421 5.56259 8.75255 5.56259 8.15226C5.56259 6.82304 5.78234 6.04588 6.22184 5.82077C6.35047 5.75646 6.49519 5.7243 6.65598 5.7243C7.17051 5.7243 7.49746 6.04588 7.63681 6.68905C7.71185 7.05351 7.74936 7.52517 7.74936 8.10402C7.74936 9.58331 7.47066 10.3926 6.91324 10.532C6.82749 10.5534 6.74709 10.5641 6.67206 10.5641ZM12.9108 10.0335C11.946 10.0335 11.2225 10.4033 10.7401 11.143C10.4507 11.6039 10.306 12.1399 10.306 12.7509C10.306 13.8765 10.7026 14.6804 11.4958 15.1628C11.9032 15.4093 12.3587 15.5326 12.8626 15.5326C13.838 15.5326 14.5616 15.1574 15.0332 14.4071C15.3227 13.9461 15.4674 13.4102 15.4674 12.7992C15.4674 11.6093 15.044 10.7893 14.1971 10.339C13.8112 10.1354 13.3824 10.0335 12.9108 10.0335ZM12.8947 15.211C12.3695 15.211 12.0372 14.8787 11.8978 14.2141C11.8228 13.8604 11.7852 13.3887 11.7852 12.7992C11.7852 11.4699 12.005 10.6928 12.4445 10.4677C12.5731 10.4033 12.7178 10.3712 12.8786 10.3712C13.3932 10.3712 13.7201 10.6928 13.8595 11.3359C13.9345 11.7004 13.972 12.1721 13.972 12.7509C13.972 14.2302 13.6933 15.0395 13.1359 15.1789C13.0501 15.2003 12.9697 15.211 12.8947 15.211Z" fill="white"/>
</svg>
