<svg width="20" height="21" fill="none" xmlns="http://www.w3.org/2000/svg"><path d="M8.76.506a1.355 1.355 0 012.113 0l1.804 2.245c.256.318.642.504 1.051.506l2.879.01a1.355 1.355 0 011.317 1.653l-.63 2.809c-.09.399.006.817.26 1.138l1.787 2.257c.537.68.308 1.681-.47 2.06l-2.59 1.259a1.355 1.355 0 00-.727.912l-.652 2.805a1.355 1.355 0 01-1.903.916l-2.599-1.24a1.356 1.356 0 00-1.167 0l-2.598 1.24a1.355 1.355 0 01-1.904-.916l-.651-2.805a1.355 1.355 0 00-.728-.912L.763 13.184a1.355 1.355 0 01-.47-2.06L2.08 8.867c.253-.321.349-.74.26-1.138l-.631-2.81a1.355 1.355 0 011.317-1.651l2.88-.011a1.355 1.355 0 001.05-.506L8.76.506z" fill="#D45151"/><path d="M6.43 15.87l6.98-10.306-.515-.338L5.9 15.533l.53.337zm.258-10.483c-.965 0-1.688.37-2.17 1.11-.29.46-.435.996-.435 1.607 0 1.126.397 1.93 1.19 2.412.408.246.863.37 1.367.37.975 0 1.699-.375 2.17-1.126.29-.46.435-.997.435-1.608 0-1.19-.424-2.01-1.27-2.46a2.713 2.713 0 00-1.287-.305zm-.016 5.177c-.525 0-.857-.332-.997-.997-.075-.343-.112-.814-.112-1.415 0-1.329.22-2.106.659-2.331a.957.957 0 01.434-.097c.515 0 .841.322.98.965.076.365.113.836.113 1.415 0 1.48-.278 2.289-.836 2.428a.999.999 0 01-.24.032zm6.239-.53c-.965 0-1.688.37-2.17 1.109-.29.46-.435.997-.435 1.608 0 1.126.397 1.93 1.19 2.412.407.246.863.37 1.367.37.975 0 1.699-.376 2.17-1.126.29-.46.434-.997.434-1.608 0-1.19-.423-2.01-1.27-2.46a2.714 2.714 0 00-1.286-.306zm-.016 5.177c-.525 0-.858-.332-.997-.997-.075-.354-.113-.825-.113-1.415 0-1.33.22-2.106.66-2.331a.956.956 0 01.434-.097c.514 0 .841.322.98.965.075.364.113.836.113 1.415 0 1.48-.279 2.289-.836 2.428a1 1 0 01-.241.032z" fill="#fff"/></svg>