<svg width="25" height="17" viewBox="0 0 25 17" fill="none" xmlns="http://www.w3.org/2000/svg">
<path d="M7.75603 16.508C5.45561 16.508 3.72839 15.973 2.76543 15.568C1.74132 15.1476 0.342732 14.5668 0.0523144 13.2752C-0.245746 11.9607 0.747788 10.4016 2.57436 9.29341C2.80364 9.15585 3.10934 9.22463 3.25455 9.46155C3.39212 9.69083 3.32334 9.99653 3.08642 10.1417C1.64961 11.013 0.816571 12.1899 1.01528 13.0612C1.19106 13.8484 2.2763 14.2993 3.13991 14.6585C4.38565 15.1782 7.0147 15.9425 10.5761 15.2393C13.1593 14.7349 15.6508 13.5427 17.7831 11.7925C17.9971 11.6168 18.3028 11.6473 18.4786 11.8613C18.6543 12.0753 18.6238 12.381 18.4098 12.5568C16.1552 14.4063 13.5109 15.6673 10.7672 16.2099C9.68195 16.4239 8.67313 16.508 7.75603 16.508Z" fill="white"/>
<path d="M12.3947 13.4126C8.18363 13.4126 4.59162 12.2739 3.11661 11.0281C2.63512 10.6154 2.36763 10.1951 2.33706 9.75945C2.32942 9.69831 2.32942 9.62953 2.32942 9.5531C2.32942 9.33911 2.32942 9.07926 2.1995 8.75063C2.06957 8.42965 1.90908 8.26151 1.6798 8.03223C1.53459 7.87938 1.36646 7.71124 1.19832 7.48961C0.640414 6.74064 0.395851 5.82353 0.403494 5.25034C0.418779 3.45433 2.90261 2.26973 4.09486 1.70418L4.12543 1.6889C7.67922 -0.000109911 11.1795 -0.0459654 12.517 0.0151751C12.5399 0.0151751 12.6545 0.0228175 12.8074 0.03046C15.3447 0.183311 18.2107 0.83293 20.4882 1.76532C22.4447 2.56779 24.8215 3.94346 24.9896 5.92288C25.089 7.05398 24.4241 8.07045 24.1413 8.49843C23.3465 9.70596 22.2154 10.3174 21.5123 10.5925L20.962 11.6242C20.9085 11.7312 20.8168 11.8153 20.7022 11.8535C18.6234 12.6483 16.4911 13.1451 14.3512 13.3209C13.671 13.3897 13.029 13.4126 12.3947 13.4126ZM11.8062 1.00107C10.2624 1.00107 7.41173 1.2227 4.53813 2.59072L4.50756 2.60601C3.57516 3.04928 1.39703 4.08102 1.38939 5.25798C1.38939 5.59425 1.54224 6.30501 1.98551 6.89349C2.11543 7.06163 2.24535 7.19919 2.38292 7.33676C2.65041 7.60425 2.9179 7.87938 3.12425 8.38379C3.32296 8.8882 3.32296 9.3009 3.3306 9.54546C3.3306 9.59896 3.3306 9.64482 3.3306 9.66774C3.34588 9.82059 3.50638 10.0422 3.76623 10.2562C5.08839 11.372 9.20774 12.7553 14.2518 12.3274C16.2389 12.1592 18.226 11.7083 20.1595 10.9823L20.7098 9.95052C20.7709 9.84352 20.8627 9.75945 20.9849 9.7136C21.5428 9.51489 22.5899 9.01812 23.3006 7.94052C23.5299 7.59661 24.0573 6.78649 23.9885 5.99931C23.7668 3.57661 17.7521 1.33734 12.731 1.03164C12.5934 1.02399 12.4864 1.01635 12.4558 1.01635C12.2801 1.00871 12.0584 1.00107 11.8062 1.00107Z" fill="white"/>
<path d="M14.1525 11.7922C13.1972 11.7922 12.2343 11.7387 11.2789 11.624C8.88681 11.3413 6.18134 11.0203 3.43001 9.1937C2.52055 8.58994 1.67986 7.87154 0.930892 7.06907C0.74747 6.87036 0.755113 6.55701 0.953819 6.36595C1.15253 6.18253 1.46587 6.19017 1.65694 6.38888C2.35241 7.13785 3.13195 7.80275 3.97264 8.36066C6.5329 10.0573 9.00145 10.3477 11.3936 10.6305C13.9997 10.9362 16.6669 10.8063 19.1126 10.2484C19.7851 10.0955 20.45 9.90446 21.0996 9.69047C21.3595 9.6064 21.6423 9.74397 21.7263 10.0038C21.8104 10.2637 21.6728 10.5464 21.413 10.6305C20.7328 10.8598 20.0297 11.0508 19.3342 11.2113C17.6758 11.5935 15.918 11.7922 14.1525 11.7922Z" fill="white"/>
</svg>
