<svg width="41" height="28" fill="none" xmlns="http://www.w3.org/2000/svg"><path d="M11.686 27.395a26.871 26.871 0 01-3.823-.584c-.16-.04-.319-.066-.478-.106l-.465-.132a10.67 10.67 0 01-.929-.293 6.57 6.57 0 01-.464-.172c-.16-.053-.306-.12-.465-.173-.305-.132-.61-.252-.903-.411-.597-.306-1.168-.637-1.699-1.075l-.199-.173a2.54 2.54 0 01-.2-.186l-.092-.093-.093-.106c-.066-.066-.12-.146-.186-.239l-.093-.133-.066-.12-.12-.238a7.514 7.514 0 01-.212-.478 5.337 5.337 0 01-.173-.491l-.04-.133-.013-.04v-.013l-.013-.04-.013-.066c-.013-.093-.04-.186-.053-.266A9.32 9.32 0 01.8 20.586c0-.704.093-1.394.252-2.058.013-.026.013-.053.027-.093l.013-.04c1.102-2.442 2.509-4.765 4.234-6.836a33.889 33.889 0 012.761-2.934 36.274 36.274 0 013.093-2.588 33.545 33.545 0 013.372-2.217 30.625 30.625 0 013.637-1.765A25.561 25.561 0 0126.09.289c1.314-.08 2.668-.133 4.022-.04s2.734.319 4.062.77c1.327.465 2.602 1.182 3.637 2.204a8.608 8.608 0 011.34 1.686c.373.61.691 1.247.93 1.898.491 1.314.757 2.721.717 4.155-.027.716-.106 1.433-.345 2.164-.12.358-.279.703-.425 1.008-.16.306-.292.584-.425.85a8.916 8.916 0 00-.557 1.712c-.04.146-.067.306-.093.452-.027.146-.067.305-.093.464-.053.319-.12.664-.213 1.022-.093.359-.212.73-.398 1.089a4.04 4.04 0 01-.717.995 3.87 3.87 0 01-1.008.717 5.347 5.347 0 01-1.129.372l.106-.027a4.414 4.414 0 01-.85.213c-.145.026-.291.04-.424.053-.133.013-.239.027-.358.04a7.515 7.515 0 00-1.354.345c-.452.16-.89.345-1.315.557a2.265 2.265 0 00-.305.173c-.106.066-.199.133-.305.186-.2.12-.438.279-.677.411-.943.545-1.938.943-2.92 1.288-.983.345-1.979.65-2.96.956-.97.305-1.992.597-3.014.823a27.246 27.246 0 01-3.093.49 28.035 28.035 0 01-6.24.08zm.066-.862c1.01.08 2.018.133 3.04.12a28.986 28.986 0 003.027-.2 22.94 22.94 0 002.973-.544 28.972 28.972 0 002.894-.89c.97-.331 1.938-.663 2.867-1.048.93-.372 1.845-.784 2.655-1.301.213-.133.385-.252.624-.412.106-.08.226-.146.332-.225.12-.08.239-.146.358-.213a9.007 9.007 0 011.5-.69c.253-.093.518-.186.784-.265.265-.08.544-.146.823-.2.146-.026.278-.04.411-.066.12-.013.226-.04.332-.053.2-.04.411-.106.624-.186.026-.013.053-.013.08-.026h.026c.531-.107.982-.346 1.314-.69.332-.346.531-.81.677-1.368.067-.279.12-.584.173-.903.026-.159.053-.332.093-.504a5.59 5.59 0 01.106-.505c.16-.677.385-1.367.677-2.017.146-.319.319-.624.465-.903.146-.279.265-.53.358-.783.173-.518.252-1.115.279-1.7.04-1.194-.186-2.402-.61-3.544-.439-1.128-1.063-2.19-1.9-3-.835-.836-1.897-1.433-3.039-1.831-1.155-.399-2.39-.598-3.637-.677-1.261-.08-2.522-.04-3.837.04a23.645 23.645 0 00-7.38 1.672 25.522 25.522 0 00-3.425 1.672 30.024 30.024 0 00-3.173 2.124 31.23 31.23 0 00-2.92 2.51c-.465.437-.903.902-1.354 1.353-.438.465-.863.943-1.288 1.42-.411.492-.823.983-1.208 1.487a25.29 25.29 0 00-1.101 1.554 34.287 34.287 0 00-1.952 3.305l.04-.12a6.828 6.828 0 00-.305 1.7 6.2 6.2 0 00.026.85c0 .066.014.132.027.198v.08l.026.106c.04.133.08.279.12.412.04.132.093.265.146.398.026.066.053.133.08.186l.04.093.04.066c.012.04.066.093.105.146l.054.08.066.08c.053.052.093.105.146.145l.16.146c.424.385.928.717 1.446 1.01 1.049.596 2.23 1.008 3.425 1.327 1.221.278 2.456.464 3.69.584z" fill="#494949"/><path d="M35.578 16.311a3.802 3.802 0 00-.796 1.222 3.38 3.38 0 00-.2.69 3.331 3.331 0 00-.052.717c0 .159-.12.292-.279.292h-.026c-.73 0-1.46.093-2.15.305a9.854 9.854 0 00-1.979.903c-.318.185-.61.398-.902.61-.146.107-.293.226-.439.345-.146.12-.305.253-.464.372a10.4 10.4 0 01-2.058 1.208c-.358.16-.716.319-1.062.465l-.53.212c-.173.066-.346.146-.545.212-.73.293-1.487.505-2.257.69a22.13 22.13 0 01-2.296.426c-.77.106-1.54.172-2.323.212-.77.04-1.54.053-2.31.053h-1.155c-.385 0-.77-.013-1.155-.027-1.54-.066-3.093-.212-4.62-.57a18.902 18.902 0 01-2.243-.664c-.73-.279-1.446-.57-2.137-1.009a5.274 5.274 0 01-.942-.783 3.369 3.369 0 01-.65-1.062 3.46 3.46 0 01-.213-1.208c0-.412.066-.81.186-1.195.026-.106.146-.159.252-.133.106.027.16.133.133.24-.16.716-.133 1.46.159 2.097.146.318.345.597.584.85.252.238.531.45.85.637.624.358 1.327.61 2.044.85.703.238 1.434.41 2.164.557 1.46.279 2.96.411 4.473.425h1.128l1.142-.014c.757-.013 1.513-.04 2.257-.08 1.5-.106 2.987-.265 4.433-.623a17.029 17.029 0 002.124-.65c.173-.067.346-.133.531-.2l.531-.212c.345-.146.704-.28 1.036-.438a12.075 12.075 0 001.911-1.05c.146-.105.292-.211.438-.33l.478-.36a8.734 8.734 0 011.022-.623c.704-.372 1.434-.69 2.217-.876a7.566 7.566 0 012.376-.173l-.318.292c.04-.557.186-1.102.438-1.58a4.08 4.08 0 01.451-.676 3.75 3.75 0 01.571-.558c.066-.053.146-.04.2.026.026.054.012.133-.028.186z" fill="#494949"/></svg>