<svg width="25" height="19" fill="none" xmlns="http://www.w3.org/2000/svg"><path d="M7.227 17.86c-.28-.082-.551-.156-.823-.23a12.773 12.773 0 00-.823-.181 9.189 9.189 0 00-1.243-.157c-.14-.008-.288-.016-.436-.032h.033-.083l-.057-.009-.107-.008-.222-.025-.437-.049a12.295 12.295 0 01-.88-.148 4.064 4.064 0 01-.89-.305 2.27 2.27 0 01-.79-.642l.305.157c-.494-.182-.255-.19-.321-.173l-.008-.017-.025-.033-.041-.057a1.53 1.53 0 01-.066-.116c-.041-.082-.083-.156-.115-.246a3.451 3.451 0 01-.157-.519c-.008-.09-.025-.181-.033-.272A.753.753 0 010 14.667v-.264c0-.04.008-.082.008-.123l.025-.247c.09-.659.28-1.276.51-1.86.47-1.186 1.112-2.272 1.836-3.293.19-.255.379-.502.568-.75l.593-.724c.205-.23.42-.46.625-.691.214-.23.436-.445.65-.667.108-.115.215-.222.33-.33l.329-.32c.222-.214.445-.428.675-.634.453-.42.93-.831 1.432-1.218.996-.766 2.1-1.424 3.268-1.91.568-.239 1.16-.47 1.77-.65.61-.181 1.235-.321 1.869-.395l.238-.025.24-.025c.155-.016.32-.016.477-.033A9.24 9.24 0 0115.92.5c.156 0 .304 0 .47.008.625.008 1.259.058 1.892.165.634.107 1.26.272 1.869.51.6.239 1.185.56 1.712.955l.387.313.354.346c.23.238.453.502.634.782.37.568.609 1.193.79 1.802a20.9 20.9 0 01.428 1.828l.173.905.082.437.017.107c0 .024.008.024.008.04l.017.058.049.239c.123.634.206 1.268.197 1.926a6.66 6.66 0 01-.082.988 4.76 4.76 0 01-.272.988c-.065.165-.148.32-.23.477-.099.157-.181.288-.288.428-.214.28-.486.544-.799.75l-.115.074c-.033.016-.066.04-.115.065-.082.05-.181.09-.272.124a3.409 3.409 0 01-.51.14c-.321.066-.634.107-.947.148l-.452.05a6.678 6.678 0 00-.429.065 5.373 5.373 0 00-1.588.535 6.132 6.132 0 00-.379.214c-.14.082-.28.165-.42.23-.56.297-1.136.536-1.712.766-.576.223-1.16.428-1.753.61-.296.09-.593.172-.906.246-.304.074-.609.124-.922.181-.617.1-1.234.173-1.852.206l-.469.025-.47.008-.468-.008-.47-.025c-.617-.082-1.234-.173-1.852-.346zm.157-.535c1.136.305 2.338.37 3.531.264.593-.05 1.194-.14 1.778-.255a11.238 11.238 0 001.72-.477 22.76 22.76 0 001.672-.668 15.204 15.204 0 001.596-.798l.37-.222c.124-.083.273-.173.413-.255a5.926 5.926 0 011.843-.684c.157-.033.321-.057.478-.082l.46-.066c.297-.041.593-.09.865-.148.132-.033.264-.066.37-.107.05-.017.091-.041.14-.066l.091-.05.082-.049c.198-.131.37-.296.527-.502.041-.05.074-.107.115-.164l.033-.05.025-.04.05-.083c.065-.107.123-.223.172-.346.198-.477.28-1.037.297-1.605a8.603 8.603 0 00-.157-1.712c-.016-.074-.033-.14-.04-.206l-.01-.05a.194.194 0 01-.016-.065l-.024-.116-.083-.46c-.057-.297-.107-.601-.164-.898a19.082 19.082 0 00-.404-1.737c-.164-.56-.37-1.086-.675-1.539a3.795 3.795 0 00-.518-.634l-.305-.296-.329-.264c-.897-.683-1.992-1.078-3.136-1.267-.576-.09-1.153-.14-1.754-.148-.148 0-.296 0-.452-.009-.149 0-.289 0-.437.009-.148.008-.288.008-.436.024l-.214.017-.214.024c-.576.075-1.144.198-1.704.363a14.36 14.36 0 00-1.663.617 13.21 13.21 0 00-3.029 1.786c-.93.725-1.778 1.572-2.626 2.445-.206.214-.42.428-.617.65a43.88 43.88 0 01-.601.667l-.576.683c-.181.239-.362.47-.544.708l-.263.362c-.082.124-.181.24-.255.363-.165.247-.33.493-.478.749a12.92 12.92 0 00-.823 1.555 7.734 7.734 0 00-.543 1.63l-.033.206c-.008.033-.008.066-.016.099l-.009.099-.008.099c0 .032-.008.065 0 .098l.008.181c.017.124.041.247.09.363a.78.78 0 00.075.172c.016.025.025.058.041.083l.025.04.008.017.008.009c-.057.016.181.016-.304-.157l.304.157c.132.18.297.337.519.452.214.124.46.214.716.28.255.074.535.124.815.173.14.025.28.05.412.066.065.008.14.016.205.025l.107.008.05.008h.057c.14.017.28.025.42.041.14.017.296.025.445.05.296.04.576.098.864.148.288.057.568.123.856.197.255.124.535.206.807.288z" fill="#fff"/><path d="M22.324 11.473a5.187 5.187 0 00-1.25.658c-.19.14-.371.288-.536.453-.082.082-.156.164-.247.255-.09.09-.18.173-.271.263a13.93 13.93 0 01-1.136.955 17.67 17.67 0 01-1.219.848c-.831.535-1.712.988-2.634 1.367-.115.049-.23.09-.346.131l-.354.124c-.115.04-.238.074-.354.115l-.353.107c-.116.041-.24.066-.363.099l-.362.09a5.753 5.753 0 01-.362.083l-.362.074c-.972.18-1.968.288-2.98.23-.123-.008-.255-.016-.379-.033l-.189-.024c-.066-.009-.123-.025-.19-.033l-.189-.033-.189-.041-.181-.042-.173-.04c-.47-.116-.938-.223-1.408-.314-.238-.049-.477-.09-.707-.14l-.182-.032-.172-.025a5.2 5.2 0 00-.354-.041c-.486-.05-.972-.116-1.45-.173-.238-.033-.485-.058-.724-.09a7.19 7.19 0 01-.732-.14 8.345 8.345 0 01-1.408-.478c-.066-.025-.09-.099-.057-.165a.122.122 0 01.156-.066 7.97 7.97 0 002.09.461l.725.05 1.457.107c.124.008.247.016.37.033l.19.024.181.025a30.854 30.854 0 012.174.395l.18.041c.058.017.116.025.173.033l.173.033.173.025.173.025.173.016c.115.017.23.017.345.025.939.041 1.885-.082 2.824-.264l.354-.074c.115-.024.239-.05.354-.082l.345-.082c.116-.033.23-.058.346-.09l.338-.108a4.15 4.15 0 00.337-.107l.338-.123c.115-.042.222-.083.329-.124.889-.345 1.737-.79 2.56-1.268a19.432 19.432 0 002.363-1.63c.09-.073.18-.148.271-.23.082-.074.181-.165.28-.247a5.24 5.24 0 01.617-.436 4.574 4.574 0 011.392-.543c.049-.009.098.016.106.066-.008.049-.032.09-.074.107z" fill="#fff"/></svg>