<svg width="41" height="28" fill="none" xmlns="http://www.w3.org/2000/svg"><path d="M16.986 27.193c-2.39 0-4.399-.294-5.649-.465-2.928-.417-4.534-.956-5.477-1.324-2.083-.808-4.681-1.801-5.024-3.909-.123-.76.06-1.556.551-2.365a.615.615 0 111.054.637c-.331.552-.466 1.067-.392 1.532.233 1.41 2.463 2.267 4.252 2.953.894.344 2.414.846 5.208 1.25 1.397.196 3.725.54 6.433.442 6.225-.221 10.906-2.55 13.161-3.665a37.954 37.954 0 007.328-4.766 5.98 5.98 0 00.882-1.9 5.776 5.776 0 00-.024-2.965.629.629 0 01.441-.76c.33-.086.662.11.76.441.22.821.404 2.12.024 3.603-.22.858-.6 1.654-1.115 2.377l-.049.061-.061.05a39.544 39.544 0 01-7.622 4.975c-2.329 1.152-7.181 3.566-13.664 3.786-.355 0-.686.012-1.017.012z" fill="#494949"/><path d="M10.811 24.265a94.127 94.127 0 01-3.002-.637c-1.005-.233-2.01-.478-3.002-.834a10.51 10.51 0 01-1.47-.674c-.479-.281-.932-.625-1.312-1.09a4.082 4.082 0 01-.478-.772c-.024-.074-.061-.135-.086-.209l-.073-.22c-.05-.147-.074-.306-.098-.454-.086-.624.024-1.225.183-1.764.344-1.078.883-1.985 1.41-2.88.539-.882 1.115-1.728 1.679-2.585.281-.417.575-.846.882-1.275.306-.416.613-.833.943-1.25A31.266 31.266 0 018.434 7.27a34.17 34.17 0 012.255-2.17l.6-.502.588-.49c.392-.33.809-.65 1.238-.968a13.184 13.184 0 012.794-1.618 14.388 14.388 0 013.075-.943c1.054-.209 2.12-.294 3.138-.343A24.53 24.53 0 0125.27.27c1.054.074 2.095.233 3.125.454.514.11 1.029.233 1.544.392.49.147.98.294 1.482.453.993.319 1.998.687 2.954 1.189.478.245.943.527 1.397.833l.33.245.172.123.16.135.318.257c.098.086.196.184.306.282.797.76 1.483 1.642 1.998 2.61.527.968.882 2.01 1.14 3.027.06.257.122.514.183.76.061.257.11.49.172.76.11.526.196 1.065.233 1.629a5.568 5.568 0 01-.147 1.777 4.667 4.667 0 01-.331.845c-.135.27-.294.527-.466.76-.343.478-.76.883-1.189 1.238-.22.184-.416.318-.625.49l-.306.233-.319.233a28.146 28.146 0 01-2.634 1.678 33.622 33.622 0 01-5.674 2.55c-.98.342-1.973.636-2.965.894a42.96 42.96 0 01-3.027.662 66.42 66.42 0 01-1.532.232 15.57 15.57 0 01-.772.086l-.196.012-.11.013h-.098l-.38.012a37.02 37.02 0 01-3.088 0 32.22 32.22 0 01-3.076-.294 74.186 74.186 0 01-3.039-.576zm.16-.784c1.985.416 3.97.723 5.98.772a31.02 31.02 0 003.014-.062l.38-.024.085-.012h.087l.183-.025c.245-.024.49-.061.735-.098.49-.073.993-.16 1.483-.257 3.934-.797 7.732-2.255 11.139-4.314a26.29 26.29 0 002.463-1.666l.294-.22.294-.234c.184-.159.392-.306.564-.465.355-.307.662-.625.895-.98a3.629 3.629 0 00.527-1.127c.097-.38.122-.81.085-1.263-.024-.454-.11-.92-.208-1.397-.05-.233-.11-.49-.16-.723-.06-.245-.11-.478-.183-.723-.245-.944-.564-1.85-1.017-2.671a8.394 8.394 0 00-.76-1.177c-.294-.368-.588-.723-.931-1.041-.086-.074-.172-.16-.258-.246l-.27-.22-.134-.11-.147-.11-.282-.209a13.5 13.5 0 00-1.225-.735c-.846-.441-1.765-.785-2.709-1.09-.477-.148-.955-.295-1.445-.442a18.51 18.51 0 00-1.422-.355 21.156 21.156 0 00-2.916-.417 23.469 23.469 0 00-2.941-.037c-1.005.05-1.973.135-2.93.319-.943.184-1.862.465-2.744.845a12.51 12.51 0 00-2.475 1.434c-.393.294-.785.6-1.165.92l-.588.477-.563.478a38.73 38.73 0 00-2.17 2.046 31.08 31.08 0 00-1.984 2.23c-.32.393-.613.785-.92 1.177-.294.404-.575.809-.87 1.225-.588.834-1.164 1.655-1.715 2.488-.503.858-1.03 1.715-1.348 2.561-.16.429-.245.846-.22 1.238.012.098.012.196.048.294l.037.147c.012.049.037.098.05.147.073.184.17.367.293.54.245.342.588.636.98.894a7.37 7.37 0 001.275.661c.907.38 1.875.65 2.855.907.968.233 1.96.441 2.953.65z" fill="#494949"/><path d="M27.66 22.525c.992-.319 1.973-.698 2.88-1.2.906-.503 1.752-1.116 2.438-1.876.172-.184.33-.392.502-.6.172-.209.344-.417.527-.625.356-.404.736-.809 1.14-1.177a16.856 16.856 0 012.586-1.985c.085-.049.183-.024.245.062a.174.174 0 01-.05.232 16.2 16.2 0 00-3.455 3.272c-.16.209-.319.417-.478.637-.16.209-.319.442-.49.662-.71.87-1.593 1.581-2.525 2.181-.943.589-1.948 1.054-2.977 1.446a.527.527 0 01-.674-.306.526.526 0 01.306-.674c0-.049 0-.049.025-.049z" fill="#494949"/></svg>