<svg width="25" height="18" fill="none" xmlns="http://www.w3.org/2000/svg"><path d="M6.803 16.997a16.793 16.793 0 01-2.39-.365c-.099-.025-.198-.041-.298-.066l-.29-.083c-.2-.05-.39-.116-.581-.183-.1-.033-.19-.066-.29-.108-.1-.033-.191-.074-.29-.107-.192-.083-.382-.158-.565-.258a5.72 5.72 0 01-1.062-.672l-.124-.107a1.673 1.673 0 01-.125-.117l-.058-.058-.058-.066c-.041-.042-.075-.091-.116-.15l-.058-.082-.042-.075-.074-.15a4.117 4.117 0 01-.241-.605l-.025-.083-.008-.025v-.008L.1 13.604l-.009-.041c-.008-.059-.025-.117-.033-.167A5.825 5.825 0 010 12.742c0-.44.058-.871.158-1.286.008-.017.008-.033.016-.058l.009-.025A18.639 18.639 0 012.829 7.1a21.18 21.18 0 013.659-3.45 20.963 20.963 0 012.107-1.386c.73-.415 1.494-.789 2.273-1.104A15.976 15.976 0 0115.805.056c.821-.05 1.668-.083 2.514-.025.846.058 1.709.199 2.539.481.83.29 1.626.738 2.273 1.377.323.315.605.672.838 1.054.232.382.431.78.58 1.186.308.822.473 1.701.449 2.597-.017.448-.067.896-.216 1.352a5.49 5.49 0 01-.266.631c-.1.19-.182.365-.265.531a5.54 5.54 0 00-.349 1.07c-.024.091-.041.191-.058.282-.016.092-.041.191-.058.29-.033.2-.074.415-.133.64a3.215 3.215 0 01-.248.68c-.117.224-.266.44-.448.622a2.421 2.421 0 01-.63.448 3.345 3.345 0 01-.706.232l.066-.016a2.753 2.753 0 01-.53.133c-.092.016-.183.024-.266.033-.083.008-.15.016-.224.025a4.705 4.705 0 00-.847.215 7.17 7.17 0 00-.82.349c-.067.033-.134.066-.192.108-.066.041-.124.083-.19.116-.125.074-.274.174-.424.257-.589.34-1.21.589-1.825.805-.614.216-1.236.406-1.85.597a22.81 22.81 0 01-1.883.514 17.05 17.05 0 01-1.933.308 17.525 17.525 0 01-3.9.05zm.042-.539c.63.05 1.26.083 1.9.075.63-.009 1.26-.05 1.891-.125a14.327 14.327 0 001.859-.34 18.12 18.12 0 001.808-.556 30.403 30.403 0 001.792-.655c.581-.233 1.154-.49 1.66-.813.132-.083.24-.158.39-.258.066-.05.14-.09.207-.14.075-.05.15-.092.224-.133.299-.175.614-.316.938-.432.157-.058.323-.116.489-.166a5.2 5.2 0 01.514-.124c.092-.017.175-.025.258-.042.074-.008.14-.024.207-.033.125-.025.257-.066.39-.116.017-.008.033-.008.05-.016h.016a1.55 1.55 0 00.822-.432c.207-.216.331-.506.423-.854.041-.175.075-.366.108-.565.016-.1.033-.207.058-.315a7.048 7.048 0 01.49-1.576c.09-.2.198-.39.29-.564.09-.175.165-.332.224-.49.107-.324.157-.697.174-1.062a5.828 5.828 0 00-.382-2.215c-.274-.705-.663-1.369-1.186-1.875-.523-.523-1.187-.896-1.9-1.145-.722-.249-1.494-.373-2.273-.423-.789-.05-1.577-.025-2.398.025a14.79 14.79 0 00-4.613 1.045 15.91 15.91 0 00-2.14 1.045c-.69.399-1.353.847-1.983 1.328a19.512 19.512 0 00-1.826 1.568c-.29.274-.564.564-.846.846-.274.29-.54.59-.805.888-.257.307-.514.614-.755.93-.24.314-.473.638-.688.97a21.428 21.428 0 00-1.22 2.066l.025-.075a4.268 4.268 0 00-.19 1.062 3.77 3.77 0 00.032.655v.05l.017.067c.025.082.05.174.075.257a3.02 3.02 0 00.14.365l.026.058.025.041c.008.025.041.059.066.092l.033.05.042.05c.033.032.058.066.09.09l.1.092c.266.24.581.448.905.63.655.374 1.394.63 2.14.83.764.174 1.535.29 2.307.365z" fill="#fff"/><path d="M21.737 10.07c-.216.224-.39.49-.498.763-.058.141-.1.29-.124.431-.025.15-.042.3-.034.448 0 .1-.074.183-.174.183h-.016c-.457 0-.913.058-1.344.19a6.159 6.159 0 00-1.237.565c-.199.116-.381.249-.564.382a6.212 6.212 0 00-.274.215 6.517 6.517 0 01-1.576.987c-.224.1-.448.2-.664.291l-.332.133c-.107.041-.215.091-.34.133-.456.182-.929.315-1.41.43-.473.117-.954.2-1.435.266-.482.067-.963.108-1.452.133-.482.025-.963.033-1.444.033h-.722c-.24 0-.48-.008-.722-.016-.962-.042-1.933-.133-2.887-.357a11.807 11.807 0 01-1.402-.415c-.456-.174-.904-.357-1.336-.63a3.296 3.296 0 01-.589-.49 2.105 2.105 0 01-.406-.664 2.162 2.162 0 01-.133-.755c0-.257.042-.506.116-.746.017-.067.091-.1.158-.083.066.016.1.083.083.15-.1.447-.083.912.1 1.31.09.199.215.373.364.53.158.15.332.283.531.4.39.223.83.38 1.278.53.44.15.896.257 1.352.349.913.174 1.85.257 2.796.265h.706l.713-.008a39.33 39.33 0 001.41-.05c.938-.066 1.867-.166 2.772-.39.448-.108.896-.24 1.327-.406.108-.042.216-.083.332-.125l.332-.133c.215-.09.44-.174.647-.274.423-.19.821-.398 1.195-.655.09-.066.182-.133.273-.207l.299-.224c.2-.141.415-.274.639-.39.44-.232.896-.432 1.385-.548.49-.116.996-.15 1.486-.108l-.2.183c.025-.349.116-.689.274-.987a2.51 2.51 0 01.282-.424c.108-.132.233-.248.357-.348.041-.033.091-.025.124.017.017.033.009.082-.016.116z" fill="#fff"/></svg>