<svg width="25" height="17" viewBox="0 0 25 17" fill="none" xmlns="http://www.w3.org/2000/svg">
<path d="M8.26843 16.7391C6.72281 16.7391 4.83909 16.5217 2.93122 15.7811C1.2085 15.1049 0.298834 14.3401 0.0653813 13.3741C-0.224422 12.1586 0.516187 11.0557 0.975042 10.5002C1.16019 10.2829 1.49025 10.2507 1.7076 10.4358C1.92495 10.621 1.95715 10.9511 1.772 11.1684C1.4983 11.4904 0.886491 12.3276 1.07164 13.1326C1.21655 13.7283 1.9652 14.2918 3.30152 14.8151C6.62621 16.1112 9.89455 15.6765 11.1423 15.435C13.6781 14.9359 16.0448 13.841 18.1781 12.1908C18.4035 12.0137 18.7336 12.0539 18.9107 12.2793C19.0878 12.5047 19.0475 12.8348 18.8221 13.0119C16.5681 14.7668 14.0484 15.926 11.3516 16.4573C10.7237 16.57 9.6289 16.7391 8.26843 16.7391Z" fill="white"/>
<path d="M8.99306 14.847C7.77749 14.847 6.92418 14.7423 6.39287 14.6457C4.5333 14.3157 1.71577 13.8085 1.00736 11.8201C0.508252 10.4275 1.28911 9.067 2.11022 7.63408C3.69609 4.86484 5.89377 3.36753 6.61828 2.87647C7.93849 1.97486 10.6916 0.0991868 14.5557 0.00258565C15.6746 -0.0215646 21.3741 0.0428365 23.8052 3.92298L23.8133 3.93908C24.2399 4.61529 25.536 6.68417 24.7552 8.70474C24.4412 9.52585 23.9099 10.0572 23.5315 10.3872C20.3598 13.1725 15.1755 14.1869 13.6621 14.4284C11.7381 14.7423 10.1925 14.847 8.99306 14.847ZM14.8294 1.04105C14.7247 1.04105 14.6442 1.04105 14.5798 1.04105C11.0217 1.1296 8.54225 2.82012 7.20593 3.72978C6.03867 4.52674 4.33205 5.85501 3.01988 8.14929C2.28732 9.4212 1.65942 10.5241 1.99752 11.4659C2.50468 12.8908 4.95996 13.3255 6.58608 13.6153L6.49753 14.1305L6.58608 13.6153C7.57624 13.7924 9.78197 14.0017 13.5011 13.3979C14.5315 13.2289 19.8124 12.2709 22.8473 9.60635C23.1612 9.33265 23.5557 8.93015 23.7811 8.33444C24.3687 6.79687 23.282 5.0661 22.9278 4.49454L22.9197 4.47844C20.9233 1.29865 16.2703 1.04105 14.8294 1.04105Z" fill="white"/>
<path d="M18.0896 12.9229C17.8883 12.9229 17.7112 12.7699 17.6871 12.5687C17.6629 12.3513 17.8159 12.1501 18.0413 12.1179C18.6128 12.0535 19.1844 11.9408 19.7398 11.7959C20.5046 11.5946 21.2613 11.3209 21.9778 10.9748V10.9667L22.3239 10.1617C22.4125 9.96044 22.6459 9.86384 22.8552 9.95239C23.0565 10.0409 23.1531 10.2744 23.0645 10.4837L22.662 11.4256C22.6218 11.5141 22.5574 11.5866 22.4688 11.6268C21.6638 12.0293 20.8105 12.3433 19.9492 12.5767C19.3615 12.7297 18.7497 12.8504 18.1459 12.9148C18.1218 12.9229 18.1057 12.9229 18.0896 12.9229Z" fill="white"/>
<path d="M5.41927 14.3395C5.37097 14.3395 5.31462 14.3315 5.26632 14.3073C4.55791 13.9692 4.0427 13.5104 3.7529 12.9388C2.46488 10.403 5.78957 6.33772 8.19655 4.36545C9.54897 3.25453 11.1026 2.39317 12.8173 1.80551C13.0025 1.74111 13.2118 1.83771 13.2762 2.03092C13.3406 2.22412 13.244 2.42537 13.0508 2.48977C11.4246 3.04523 9.94342 3.86634 8.65541 4.9209C7.33519 5.99961 6.05523 7.44058 5.22607 8.7769C4.53376 9.89586 3.82535 11.4656 4.39691 12.6007C4.61426 13.0274 5.00871 13.3816 5.57222 13.6472C5.74932 13.7358 5.82982 13.9451 5.74127 14.1302C5.68492 14.259 5.55612 14.3395 5.41927 14.3395Z" fill="white"/>
<path d="M9.48388 14.3395C9.33897 14.3395 9.19407 14.251 9.14577 14.098C8.96062 13.5909 8.83182 13.0596 8.75132 12.5283C8.40516 10.1535 9.22627 8.2617 10.0232 6.42628C10.7075 4.84846 11.593 3.33504 12.6395 1.92627C12.7603 1.76527 12.9857 1.73307 13.1467 1.85382C13.3077 1.97457 13.3399 2.19997 13.2191 2.36098C12.2048 3.72144 11.3515 5.18656 10.6833 6.71608C9.92663 8.4549 9.14577 10.2501 9.45973 12.4236C9.53218 12.9066 9.65293 13.3896 9.81393 13.8565C9.87833 14.0417 9.78173 14.251 9.59658 14.3234C9.56438 14.3315 9.52413 14.3395 9.48388 14.3395Z" fill="white"/>
<path d="M17.8633 13.2128C17.8231 13.2128 17.7828 13.2047 17.7426 13.1886C17.5574 13.1242 17.4527 12.9149 17.5252 12.7217C17.7828 12.0053 17.8875 11.2808 17.8392 10.5563C17.7748 9.5661 17.4447 8.80134 16.9617 7.94803C15.7139 5.73426 13.9429 3.69758 12.671 2.38541C12.5341 2.24051 12.5341 2.01511 12.679 1.87021C12.8239 1.73336 13.0493 1.73336 13.1942 1.87826C14.4903 3.22263 16.3096 5.3076 17.5977 7.58578C18.0565 8.39884 18.4832 9.31655 18.5637 10.4999C18.62 11.321 18.4993 12.1502 18.2095 12.9552C18.1531 13.1162 18.0082 13.2128 17.8633 13.2128Z" fill="white"/>
<path d="M22.6941 10.685C22.6136 10.685 22.5331 10.6608 22.4687 10.6045C22.3158 10.4757 22.2916 10.2503 22.4124 10.0973C22.7344 9.70287 22.9115 9.29231 22.9598 8.86566C23.0805 7.62594 21.9213 6.57943 21.229 5.95152C18.8381 3.78605 15.3766 2.88444 12.8811 2.49803C12.6798 2.46583 12.551 2.28068 12.5752 2.08748C12.5993 1.89427 12.7925 1.75742 12.9857 1.78157C15.5698 2.17603 19.1843 3.12594 21.704 5.41217C22.5009 6.12863 23.8292 7.33614 23.6763 8.93811C23.6199 9.50162 23.3864 10.049 22.9759 10.5562C22.9034 10.6447 22.7988 10.685 22.6941 10.685Z" fill="white"/>
<path d="M12.93 2.50634C12.8093 2.50634 12.6885 2.44194 12.6241 2.32924C12.5194 2.16018 12.5758 1.93478 12.7449 1.83013C13.4533 1.39542 14.218 1.07342 15.015 0.864118C16.8826 0.373062 18.5409 0.630664 19.6035 0.936568C19.7967 0.992919 19.9094 1.19417 19.8531 1.38737C19.7967 1.58058 19.5955 1.69328 19.4023 1.63693C18.4282 1.36322 16.9068 1.12172 15.2001 1.56448C14.4756 1.75768 13.7753 2.05553 13.1232 2.44999C13.0588 2.49024 12.9944 2.50634 12.93 2.50634Z" fill="white"/>
<path d="M12.9299 2.50609C12.8897 2.50609 12.8414 2.49804 12.8011 2.48194L10.7403 1.69303C10.5551 1.62058 10.4585 1.41128 10.531 1.22613C10.6034 1.04097 10.8127 0.944372 10.9979 1.01682L13.0587 1.80573C13.2439 1.87818 13.3405 2.08749 13.268 2.27264C13.2197 2.41754 13.0748 2.50609 12.9299 2.50609Z" fill="white"/>
<path d="M3.05228 7.48907C2.96373 7.48907 2.88322 7.45687 2.81077 7.40052C2.65782 7.26367 2.64977 7.03827 2.77857 6.88531C4.05854 5.44435 5.58001 4.26098 7.28663 3.37547C8.83225 2.57046 10.4986 2.03915 12.2294 1.78155C12.4306 1.74935 12.6077 1.8862 12.6399 2.08745C12.6721 2.28871 12.5353 2.46581 12.334 2.49801C10.6838 2.73951 9.0979 3.25472 7.61668 4.01948C5.99056 4.86474 4.5496 5.99175 3.32598 7.36832C3.25353 7.44882 3.14888 7.48907 3.05228 7.48907Z" fill="white"/>
<path d="M11.5209 2.1358C11.4001 1.77355 12.1327 0.879986 13.0745 0.968537C13.8312 1.03294 14.4511 1.7172 14.3384 2.06335C14.1532 2.65906 11.7141 2.69126 11.5209 2.1358Z" fill="white"/>
</svg>
