<svg width="25" height="17" fill="none" xmlns="http://www.w3.org/2000/svg"><path d="M8.268 16.74c-1.545 0-3.429-.218-5.337-.959C1.208 15.105.3 14.341.065 13.374c-.29-1.215.451-2.318.91-2.874a.522.522 0 01.733-.064c.217.185.25.515.064.732-.274.322-.886 1.16-.7 1.965.145.595.893 1.159 2.23 1.682 3.324 1.296 6.593.862 7.84.62 2.536-.5 4.903-1.594 7.036-3.244a.524.524 0 01.733.088.524.524 0 01-.089.733c-2.254 1.755-4.774 2.914-7.47 3.445-.628.113-1.723.282-3.084.282z" fill="#fff"/><path d="M8.993 14.847c-1.216 0-2.069-.105-2.6-.201-1.86-.33-4.677-.838-5.386-2.826-.499-1.393.282-2.753 1.103-4.186 1.586-2.77 3.784-4.266 4.508-4.758C7.938 1.975 10.692.1 14.556.003c1.119-.025 6.818.04 9.25 3.92l.007.016c.427.676 1.723 2.745.942 4.766-.314.82-.845 1.352-1.223 1.682-3.172 2.785-8.357 3.8-9.87 4.041-1.924.314-3.47.419-4.669.419zM14.83 1.041h-.25c-3.557.089-6.037 1.78-7.373 2.689-1.167.797-2.874 2.125-4.186 4.42-.733 1.271-1.36 2.374-1.022 3.316.507 1.425 2.962 1.86 4.588 2.15l-.088.514.088-.515c.99.177 3.196.387 6.915-.217 1.03-.17 6.311-1.127 9.346-3.792.314-.273.709-.676.934-1.272.588-1.537-.499-3.268-.853-3.84l-.008-.016c-1.997-3.18-6.65-3.437-8.09-3.437z" fill="#fff"/><path d="M18.09 12.923a.408.408 0 01-.403-.354.41.41 0 01.354-.451 12.15 12.15 0 001.699-.322 12.444 12.444 0 002.238-.821v-.008l.346-.805a.405.405 0 01.531-.21.405.405 0 01.21.532l-.403.942a.392.392 0 01-.193.2c-.805.403-1.659.717-2.52.95-.588.154-1.2.274-1.803.339-.024.008-.04.008-.056.008zM5.42 14.34a.348.348 0 01-.154-.033c-.708-.338-1.223-.797-1.513-1.368-1.288-2.536 2.037-6.601 4.444-8.574a14.806 14.806 0 014.62-2.56.36.36 0 01.46.226.356.356 0 01-.226.459 14.118 14.118 0 00-4.396 2.43C7.335 6 6.055 7.44 5.226 8.778c-.692 1.119-1.4 2.689-.83 3.824.218.426.613.78 1.176 1.046a.362.362 0 01.17.483.352.352 0 01-.323.21z" fill="#fff"/><path d="M9.484 14.34a.352.352 0 01-.338-.242 8.15 8.15 0 01-.395-1.57c-.346-2.375.475-4.266 1.272-6.102a22.761 22.761 0 012.617-4.5.36.36 0 01.507-.072.36.36 0 01.072.507 22.109 22.109 0 00-2.536 4.355c-.756 1.739-1.537 3.534-1.223 5.708.072.483.193.966.354 1.433a.374.374 0 01-.217.466.473.473 0 01-.113.016z" fill="#fff"/><path d="M17.863 13.213a.323.323 0 01-.12-.024.361.361 0 01-.218-.467 5.292 5.292 0 00.314-2.166c-.064-.99-.394-1.755-.877-2.608-1.248-2.214-3.02-4.25-4.291-5.563a.367.367 0 01.008-.515.367.367 0 01.515.008c1.296 1.345 3.116 3.43 4.404 5.708.459.813.885 1.73.966 2.914a6.012 6.012 0 01-.355 2.455.375.375 0 01-.346.258z" fill="#fff"/><path d="M22.694 10.685a.338.338 0 01-.225-.08.367.367 0 01-.057-.508c.322-.394.5-.805.548-1.231.12-1.24-1.039-2.287-1.731-2.914-2.39-2.166-5.852-3.068-8.348-3.454a.367.367 0 01-.306-.41c.024-.194.218-.33.41-.306 2.585.394 6.2 1.344 8.719 3.63.797.717 2.125 1.924 1.972 3.526-.056.564-.29 1.111-.7 1.618a.358.358 0 01-.282.129z" fill="#fff"/><path d="M12.93 2.506a.365.365 0 01-.185-.676 8.425 8.425 0 012.27-.966c1.868-.49 3.526-.233 4.588.073a.364.364 0 01-.2.7c-.975-.274-2.496-.515-4.203-.073a7.998 7.998 0 00-2.077.886.356.356 0 01-.193.056z" fill="#fff"/><path d="M12.93 2.506a.365.365 0 01-.129-.024l-2.06-.789a.363.363 0 01-.21-.467.363.363 0 01.467-.21l2.06.79a.363.363 0 01.21.467.356.356 0 01-.338.233z" fill="#fff"/><path d="M3.052 7.49a.388.388 0 01-.241-.09.368.368 0 01-.032-.515 15.666 15.666 0 019.45-5.103.357.357 0 01.41.305.357.357 0 01-.305.411c-1.65.242-3.236.757-4.717 1.521a14.941 14.941 0 00-4.291 3.35.373.373 0 01-.274.12z" fill="#fff"/><path d="M11.52 2.136c-.12-.362.613-1.256 1.555-1.167.756.064 1.376.748 1.263 1.094-.185.596-2.624.628-2.817.073z" fill="#fff"/></svg>