<svg width="25" height="17" viewBox="0 0 25 17" fill="none" xmlns="http://www.w3.org/2000/svg">
<path d="M10.1173 16.8709C8.6238 16.8709 7.36776 16.6871 6.58656 16.5799C4.75611 16.3195 3.75281 15.9825 3.16308 15.7527C1.86109 15.2472 0.237422 14.6269 0.0229764 13.3096C-0.0536115 12.8347 0.0612703 12.3369 0.367622 11.8314C0.474845 11.6476 0.712267 11.594 0.896078 11.7012C1.07989 11.8084 1.1335 12.0459 1.02628 12.2297C0.81949 12.5743 0.735244 12.896 0.781196 13.187C0.926713 14.0678 2.32061 14.6039 3.4388 15.0328C3.99789 15.2472 4.94758 15.5612 6.69378 15.814C7.56688 15.9365 9.02205 16.151 10.7146 16.0897C14.6053 15.9518 17.531 14.4967 18.9402 13.7997C20.5638 12.9955 22.1033 11.9922 23.5201 10.8204C23.7729 10.4605 23.9567 10.0622 24.0716 9.63333C24.2707 8.87511 24.1711 8.20114 24.0563 7.77991C24.0026 7.57312 24.1252 7.36633 24.332 7.30506C24.5388 7.25145 24.7455 7.37399 24.8068 7.58078C24.9447 8.09392 25.0596 8.90575 24.8221 9.83246C24.6843 10.3686 24.4469 10.8664 24.1252 11.3183L24.0946 11.3566L24.0563 11.3872C22.5858 12.6126 20.9774 13.6542 19.2925 14.4967C17.8373 15.2166 14.8044 16.7254 10.7529 16.8632C10.5308 16.8632 10.324 16.8709 10.1173 16.8709Z" fill="white"/>
<path d="M6.25766 15.0406C5.6373 14.918 5.00928 14.7878 4.38126 14.6423C3.75324 14.4968 3.12522 14.3436 2.50485 14.1215C2.1985 14.0067 1.88449 13.8688 1.5858 13.7003C1.28711 13.5241 1.00373 13.3097 0.766309 13.0187C0.651427 12.8732 0.551863 12.7123 0.467616 12.5362C0.452299 12.4902 0.429322 12.4519 0.414005 12.406L0.368052 12.2681C0.337417 12.1762 0.322099 12.0766 0.306782 11.9847C0.25317 11.5941 0.322099 11.2189 0.421664 10.8819C0.63611 10.2079 0.973096 9.64114 1.30242 9.08205C1.63941 8.53062 1.99937 8.00216 2.35168 7.46605C2.52783 7.20565 2.71164 6.93759 2.90311 6.66953C3.09458 6.40913 3.28605 6.14874 3.49284 5.88834C3.89875 5.3752 4.31999 4.88504 4.77186 4.41785C5.22372 3.943 5.69091 3.49114 6.18107 3.06224L6.55635 2.74823L6.92398 2.44188C7.16906 2.23509 7.42946 2.03597 7.69751 1.83684C8.22597 1.43858 8.82335 1.08628 9.44372 0.825877C10.0641 0.557819 10.7074 0.35869 11.3661 0.23615C12.0247 0.10595 12.691 0.0523392 13.3267 0.021704C13.9854 -0.0165899 14.644 -0.00127267 15.295 0.0446801C15.9537 0.0906328 16.6047 0.190197 17.248 0.328056C17.5697 0.396985 17.8914 0.473572 18.213 0.573137C18.5194 0.665042 18.8257 0.756948 19.1397 0.856512C19.7601 1.05564 20.3881 1.2854 20.9855 1.59941C21.2842 1.75259 21.5752 1.92874 21.8586 2.12021L22.0654 2.27339L22.1726 2.34998L22.2722 2.43422L22.4713 2.59506C22.5326 2.64867 22.5939 2.70994 22.6628 2.77121C23.1606 3.24605 23.5895 3.79749 23.9112 4.40253C24.2405 5.00758 24.4626 5.65857 24.6234 6.29425C24.6617 6.45509 24.7 6.61592 24.7383 6.7691C24.7766 6.92993 24.8072 7.07545 24.8455 7.24394C24.9145 7.57327 24.9681 7.91026 24.9911 8.26256C25.014 8.61487 24.9987 8.99015 24.8992 9.37309C24.8455 9.56456 24.7766 9.73305 24.6924 9.90154C24.6081 10.07 24.5086 10.2309 24.4013 10.3764C24.1869 10.6751 23.9265 10.9278 23.6584 11.1499C23.5206 11.2648 23.398 11.3491 23.2678 11.4563L23.0764 11.6018L22.8772 11.7473C22.3488 12.1302 21.7973 12.4749 21.2306 12.7966C20.0971 13.4399 18.91 13.9684 17.6846 14.3896C17.0719 14.604 16.4515 14.7878 15.8311 14.9487C15.2031 15.1095 14.5751 15.2474 13.9394 15.3623C13.6178 15.4159 13.3037 15.4618 12.9821 15.5078C12.8212 15.5308 12.6604 15.5461 12.4996 15.5614L12.377 15.569L12.3081 15.5767H12.2468L12.0094 15.5844C11.3737 15.6073 10.7227 15.615 10.0794 15.5844C9.43606 15.5537 8.79272 15.4925 8.15704 15.4006C7.5137 15.2933 6.87802 15.1708 6.25766 15.0406ZM6.35723 14.5504C7.59795 14.8108 8.83867 15.0023 10.0947 15.0329C10.7227 15.0482 11.3431 15.0406 11.9788 14.9946L12.2162 14.9793L12.2698 14.9717H12.2775H12.2928H12.3234L12.4383 14.9563C12.5915 14.941 12.7447 14.918 12.8978 14.8951C13.2042 14.8491 13.5182 14.7955 13.8245 14.7342C16.283 14.2364 18.6572 13.325 20.7864 12.0383C21.3225 11.7167 21.8356 11.372 22.3258 10.9967L22.5096 10.8589L22.6934 10.7134C22.8083 10.6138 22.9385 10.5219 23.0457 10.4223C23.2678 10.2309 23.4593 10.0317 23.6048 9.80964C23.6814 9.70241 23.7503 9.58753 23.8039 9.46499C23.8576 9.35011 23.9035 9.21991 23.9341 9.10503C23.9954 8.86761 24.0107 8.59955 23.9878 8.31617C23.9724 8.0328 23.9188 7.74176 23.8576 7.44307C23.8269 7.29755 23.7886 7.13672 23.758 6.9912C23.7197 6.83803 23.6891 6.69251 23.6431 6.53933C23.4899 5.94961 23.2908 5.38286 23.0074 4.86972C22.8696 4.60932 22.7087 4.36424 22.5326 4.13447C22.3488 3.90471 22.165 3.68261 21.9505 3.48348C21.8969 3.43752 21.8433 3.38391 21.7897 3.3303L21.6212 3.19244L21.5369 3.12351L21.445 3.05458L21.2689 2.92439C21.0238 2.76355 20.7711 2.60272 20.503 2.46486C19.9746 2.18914 19.4001 1.9747 18.8104 1.78323C18.5117 1.69132 18.213 1.59941 17.9067 1.50751C17.6156 1.42326 17.317 1.34667 17.0183 1.2854C16.4209 1.1552 15.8082 1.07096 15.1955 1.02501C14.5828 0.979053 13.9701 0.971394 13.3574 1.00203C12.7293 1.03266 12.1243 1.08628 11.5269 1.20116C10.9372 1.31604 10.3628 1.49219 9.81134 1.72961C9.25991 1.96704 8.75443 2.26573 8.26426 2.62569C8.01918 2.8095 7.7741 3.00097 7.53668 3.2001L7.16906 3.49879L6.81675 3.79749C6.34957 4.2034 5.8977 4.63229 5.46115 5.0765C5.0246 5.52071 4.61102 5.9879 4.22042 6.47041C4.02129 6.71549 3.83748 6.96057 3.64601 7.20565C3.4622 7.45839 3.28605 7.71113 3.10224 7.97153C2.73462 8.49232 2.37465 9.00546 2.03001 9.52626C1.716 10.0624 1.38667 10.5985 1.18754 11.1269C1.08798 11.395 1.03437 11.6554 1.04968 11.9005C1.05734 11.9618 1.05734 12.023 1.08032 12.0843L1.1033 12.1762C1.11095 12.2068 1.12627 12.2375 1.13393 12.2681C1.17988 12.383 1.24115 12.4979 1.31774 12.6051C1.47092 12.8195 1.68536 13.0034 1.93045 13.1642C2.17553 13.325 2.44358 13.4629 2.72696 13.5778C3.29371 13.8152 3.89875 13.9837 4.51146 14.1445C5.1165 14.29 5.73686 14.4202 6.35723 14.5504Z" fill="white"/>
<path d="M16.7883 13.9533C17.4086 13.7541 18.0213 13.5167 18.5881 13.2027C19.1548 12.8887 19.6833 12.5057 20.1122 12.0309C20.2194 11.916 20.319 11.7858 20.4262 11.6556C20.5334 11.5254 20.6406 11.3952 20.7555 11.265C20.9776 11.0123 21.2151 10.7595 21.4678 10.5298C21.9656 10.0626 22.5094 9.64901 23.0838 9.28905C23.1374 9.25842 23.1987 9.27373 23.237 9.32735C23.2676 9.3733 23.2523 9.44223 23.2063 9.47286C22.6626 9.8558 22.1571 10.2847 21.6976 10.7672C21.4678 11.0046 21.2533 11.2574 21.0466 11.5178C20.947 11.648 20.8474 11.7782 20.7479 11.916C20.6483 12.0462 20.5487 12.1917 20.4415 12.3296C19.9973 12.8734 19.4459 13.3176 18.8638 13.6929C18.2741 14.0605 17.6461 14.3515 17.0027 14.5966C16.8342 14.6579 16.6428 14.5736 16.5815 14.4051C16.5202 14.2366 16.6045 14.0452 16.773 13.9839C16.773 13.9533 16.773 13.9533 16.7883 13.9533Z" fill="white"/>
</svg>
