<svg width="41" height="27" fill="none" xmlns="http://www.w3.org/2000/svg"><path d="M12.808 26.613c-3.68 0-6.444-.856-7.985-1.505-1.638-.672-3.876-1.601-4.34-3.668-.478-2.103 1.112-4.598 4.034-6.37a.797.797 0 011.089.268c.22.367.11.856-.27 1.089-2.298 1.393-3.631 3.277-3.313 4.67.281 1.26 2.018 1.982 3.4 2.556 1.992.832 6.199 2.055 11.897.93 4.133-.807 8.12-2.715 11.531-5.515a.783.783 0 011.113.11.782.782 0 01-.11 1.113c-3.607 2.959-7.838 4.976-12.228 5.845-1.736.342-3.35.477-4.818.477z" fill="#494949"/><path d="M20.23 21.66c-6.739 0-12.486-1.822-14.846-3.815-.77-.66-1.198-1.333-1.247-2.03-.012-.098-.012-.208-.012-.33 0-.342 0-.758-.208-1.284-.208-.514-.465-.783-.832-1.15-.232-.244-.501-.513-.77-.868-.893-1.198-1.284-2.665-1.272-3.583.025-2.873 3.999-4.768 5.906-5.673L7 2.902C12.683.2 18.284.126 20.424.224c.037 0 .22.012.465.025 4.06.244 8.645 1.284 12.289 2.775 3.13 1.284 6.933 3.485 7.202 6.653.16 1.81-.905 3.436-1.357 4.12-1.272 1.932-3.082 2.91-4.207 3.35l-.88 1.652a.724.724 0 01-.416.367c-3.326 1.271-6.738 2.066-10.161 2.347a30.78 30.78 0 01-3.13.147zm-.942-19.858c-2.47 0-7.032.354-11.63 2.543l-.048.025c-1.492.709-4.977 2.36-4.99 4.243 0 .538.245 1.675.954 2.617.208.269.416.489.636.709.428.428.856.868 1.186 1.675.318.807.318 1.467.33 1.859v.195c.025.245.282.6.698.942 2.115 1.785 8.706 3.998 16.777 3.314 3.179-.27 6.358-.99 9.452-2.152l.88-1.651a.842.842 0 01.44-.38c.893-.317 2.569-1.112 3.706-2.836.366-.55 1.21-1.847 1.1-3.106-.354-3.876-9.978-7.46-18.012-7.948-.22-.013-.391-.025-.44-.025a23.696 23.696 0 00-1.04-.024z" fill="#494949"/><path d="M23.042 19.068c-1.529 0-3.07-.085-4.598-.269-3.827-.452-8.156-.966-12.558-3.888a22.551 22.551 0 01-3.999-3.4.805.805 0 01.037-1.125.805.805 0 011.125.037 20.661 20.661 0 003.705 3.155c4.096 2.714 8.046 3.179 11.873 3.631 4.17.49 8.438.282 12.35-.611 1.077-.245 2.14-.55 3.18-.893a.794.794 0 01.501 1.504 35.354 35.354 0 01-3.326.93c-2.653.611-5.466.93-8.29.93z" fill="#494949"/></svg>