<svg width="25" height="18" viewBox="0 0 25 18" fill="none" xmlns="http://www.w3.org/2000/svg">
<path d="M6.80318 16.9972C6.00671 16.9309 5.20195 16.8147 4.41377 16.6322C4.31421 16.6073 4.21466 16.5907 4.1151 16.5658L3.82472 16.4829C3.6256 16.4331 3.43478 16.3667 3.24396 16.3003C3.1444 16.2672 3.05314 16.234 2.95358 16.1925C2.85402 16.1593 2.76276 16.1178 2.6632 16.0846C2.47238 16.0017 2.28156 15.927 2.09903 15.8274C1.72569 15.6366 1.36893 15.4292 1.03707 15.1554L0.912622 15.0476C0.871139 15.0144 0.829657 14.9729 0.788174 14.9314L0.730098 14.8733L0.672022 14.807C0.630539 14.7655 0.597353 14.7157 0.55587 14.6576L0.497794 14.5746L0.456311 14.5C0.431421 14.4502 0.406532 14.4004 0.381642 14.3506C0.331863 14.2511 0.29038 14.1515 0.248897 14.052C0.207414 13.9524 0.174228 13.8528 0.141042 13.745L0.116152 13.662L0.107855 13.6371V13.6288L0.0995587 13.604L0.0912623 13.5625C0.0829657 13.5044 0.0663724 13.4463 0.0580759 13.3965C0.0248896 13.1808 0.00829657 12.9568 0 12.7411C0 12.3014 0.0580759 11.87 0.157635 11.4551C0.165931 11.4385 0.165931 11.422 0.174228 11.3971L0.182524 11.3722C0.871139 9.84561 1.75058 8.39371 2.82913 7.09945C3.36841 6.45231 3.94087 5.84666 4.55481 5.2659C5.16876 4.69344 5.8076 4.15416 6.48791 3.64807C7.15994 3.14198 7.86514 2.68567 8.59524 2.26255C9.32534 1.84772 10.0886 1.47437 10.8685 1.1591C12.4366 0.536862 14.1125 0.155221 15.805 0.0556619C16.6263 0.0058825 17.4726 -0.027304 18.3188 0.0307719C19.1651 0.0888479 20.0279 0.22989 20.8576 0.511973C21.6872 0.802353 22.4837 1.25037 23.1308 1.8892C23.4544 2.20447 23.7365 2.56122 23.9688 2.94287C24.2011 3.32451 24.4002 3.72274 24.5495 4.12928C24.8565 4.95063 25.0224 5.83007 24.9976 6.7261C24.981 7.17412 24.9312 7.62213 24.7818 8.07844C24.7072 8.30245 24.6076 8.51816 24.5164 8.70898C24.4168 8.8998 24.3338 9.07403 24.2509 9.23996C24.1015 9.58012 23.9854 9.92857 23.9024 10.3102C23.8775 10.4015 23.8609 10.501 23.8443 10.5923C23.8277 10.6836 23.8028 10.7831 23.7863 10.8827C23.7531 11.0818 23.7116 11.2975 23.6535 11.5215C23.5954 11.7455 23.5208 11.9778 23.4046 12.2018C23.2885 12.4258 23.1391 12.6416 22.9566 12.8241C22.7741 13.0066 22.5584 13.1559 22.3261 13.2721C22.0938 13.3799 21.8532 13.4546 21.6209 13.5044L21.6872 13.4878C21.5213 13.5459 21.3388 13.5957 21.1562 13.6205C21.065 13.6371 20.9737 13.6454 20.8908 13.6537C20.8078 13.662 20.7414 13.6703 20.6667 13.6786C20.393 13.7201 20.1026 13.7948 19.8205 13.8943C19.5384 13.9939 19.2646 14.11 18.9991 14.2428C18.9328 14.276 18.8664 14.3092 18.8083 14.3506C18.7419 14.3921 18.6839 14.4336 18.6175 14.4668C18.493 14.5415 18.3437 14.641 18.1944 14.724C17.6053 15.0641 16.9831 15.313 16.3691 15.5288C15.7552 15.7445 15.1329 15.9353 14.519 16.1261C13.9133 16.3169 13.2745 16.4995 12.6357 16.6405C11.9968 16.7815 11.3497 16.8811 10.7026 16.9475C9.40001 17.1134 8.08915 17.1217 6.80318 16.9972ZM6.84467 16.458C7.47521 16.5078 8.10575 16.5409 8.74458 16.5326C9.37512 16.5243 10.0057 16.4829 10.6362 16.4082C11.2584 16.3335 11.8807 16.2257 12.4946 16.068C13.1086 15.9187 13.6976 15.7279 14.3033 15.5122C14.9089 15.3047 15.5146 15.0973 16.0953 14.8567C16.6761 14.6244 17.2486 14.3672 17.7547 14.0437C17.8874 13.9607 17.9953 13.886 18.1446 13.7865C18.211 13.7367 18.2856 13.6952 18.352 13.6454C18.4267 13.5957 18.5013 13.5542 18.576 13.5127C18.8747 13.3385 19.19 13.1974 19.5135 13.0813C19.6712 13.0232 19.8371 12.9651 20.003 12.9153C20.169 12.8656 20.3432 12.8241 20.5174 12.7909C20.6087 12.7743 20.6916 12.766 20.7746 12.7494C20.8493 12.7411 20.9156 12.7245 20.982 12.7162C21.1065 12.6913 21.2392 12.6498 21.372 12.6001C21.3885 12.5918 21.4051 12.5918 21.4217 12.5835H21.4383C21.7702 12.5171 22.0523 12.3678 22.2597 12.1521C22.4671 11.9363 22.5915 11.646 22.6828 11.2975C22.7243 11.1233 22.7575 10.9325 22.7907 10.7333C22.8073 10.6338 22.8239 10.5259 22.8487 10.4181C22.8653 10.3102 22.8902 10.2024 22.9151 10.1028C23.0147 9.67968 23.1557 9.24826 23.3382 8.84172C23.4295 8.64261 23.5374 8.45179 23.6286 8.27756C23.7199 8.10333 23.7945 7.9457 23.8526 7.78806C23.9605 7.4645 24.0103 7.09115 24.0269 6.7261C24.0517 5.97941 23.9107 5.22442 23.6452 4.51092C23.3714 3.80571 22.9815 3.14198 22.4588 2.63589C21.9361 2.11321 21.2724 1.73986 20.5589 1.49097C19.8371 1.24207 19.0655 1.11762 18.2856 1.06784C17.4975 1.01806 16.7093 1.04295 15.8879 1.09273C14.3116 1.19229 12.7518 1.54075 11.275 2.1381C10.5366 2.42848 9.82313 2.78523 9.13452 3.18347C8.4459 3.5817 7.78218 4.02972 7.15164 4.51092C6.50451 5.00041 5.89886 5.5231 5.3264 6.07897C5.03602 6.35276 4.76223 6.64313 4.48015 6.92522C4.20636 7.2156 3.94087 7.51427 3.67538 7.81295C3.41819 8.11992 3.16099 8.4269 2.92039 8.74217C2.67979 9.05744 2.44749 9.381 2.23178 9.71286C1.78376 10.3766 1.38553 11.0652 1.01218 11.7787L1.03707 11.704C0.929215 12.0525 0.862843 12.4092 0.84625 12.766C0.837953 12.9402 0.84625 13.1228 0.862843 13.297C0.862843 13.3385 0.871139 13.3799 0.879436 13.4214V13.4546C0.879436 13.4629 0.879436 13.4463 0.879436 13.4463V13.4546V13.4712L0.896029 13.5376C0.920919 13.6205 0.945808 13.7118 0.970698 13.7948C0.995588 13.8777 1.02877 13.9607 1.06196 14.0437C1.07855 14.0852 1.09515 14.1266 1.11174 14.1598L1.13663 14.2179L1.16152 14.2594C1.16982 14.2843 1.203 14.3175 1.22789 14.3506L1.26108 14.4004L1.30256 14.4502C1.33575 14.4834 1.36064 14.5166 1.39382 14.5415L1.49338 14.6327C1.75887 14.8733 2.07414 15.0807 2.39771 15.2633C3.05314 15.6366 3.79153 15.8938 4.53822 16.0929C5.30151 16.2672 6.07309 16.3833 6.84467 16.458Z" fill="white"/>
<path d="M21.7368 10.0697C21.5211 10.2937 21.3469 10.5592 21.239 10.833C21.181 10.9741 21.1395 11.1234 21.1146 11.2644C21.0897 11.4138 21.0731 11.5631 21.0814 11.7124C21.0814 11.812 21.0067 11.895 20.9072 11.895H20.8906C20.4343 11.895 19.978 11.953 19.5465 12.0858C19.1151 12.2268 18.7003 12.4177 18.3103 12.65C18.1112 12.7661 17.9287 12.8989 17.7462 13.0316C17.6549 13.098 17.5637 13.1726 17.4724 13.2473C17.3811 13.322 17.2816 13.4049 17.182 13.4796C16.7838 13.7866 16.3358 14.0355 15.896 14.2346C15.672 14.3342 15.448 14.4337 15.2323 14.525L14.9005 14.6577C14.7926 14.6992 14.6847 14.749 14.5603 14.7905C14.104 14.973 13.6311 15.1057 13.1499 15.2219C12.677 15.338 12.1958 15.421 11.7146 15.4874C11.2334 15.5538 10.7522 15.5952 10.2627 15.6201C9.78148 15.645 9.30028 15.6533 8.81908 15.6533H8.09728C7.85667 15.6533 7.61607 15.645 7.37547 15.6367C6.41307 15.5952 5.44237 15.504 4.48827 15.28C4.01537 15.1721 3.54246 15.0311 3.08615 14.8651C2.62984 14.6909 2.18182 14.5084 1.7504 14.2346C1.54299 14.0936 1.33557 13.9359 1.16135 13.7451C0.987119 13.5543 0.846078 13.322 0.754815 13.0814C0.663553 12.8408 0.62207 12.5753 0.62207 12.3264C0.62207 12.0692 0.663553 11.8203 0.738222 11.5797C0.754815 11.5133 0.829484 11.4801 0.895857 11.4967C0.962229 11.5133 0.995416 11.5797 0.978823 11.6461C0.879264 12.0941 0.895857 12.5587 1.07838 12.9569C1.16964 13.156 1.29409 13.3303 1.44343 13.4879C1.60106 13.6372 1.77529 13.77 1.97441 13.8861C2.36435 14.1102 2.80407 14.2678 3.25208 14.4171C3.6918 14.5665 4.14811 14.6743 4.60442 14.7656C5.51704 14.9398 6.45456 15.0228 7.40036 15.0311C7.63267 15.0311 7.87327 15.0311 8.10557 15.0311L8.81908 15.0228C9.29198 15.0145 9.76488 14.9979 10.2295 14.973C11.167 14.9066 12.0962 14.8071 13.0005 14.5831C13.4486 14.4752 13.8966 14.3425 14.328 14.1765C14.4359 14.135 14.5437 14.0936 14.6599 14.0521L14.9917 13.9193C15.2074 13.8281 15.4314 13.7451 15.6389 13.6455C16.062 13.4547 16.4602 13.2473 16.8336 12.9901C16.9248 12.9237 17.0161 12.8574 17.1073 12.7827C17.2069 12.708 17.3065 12.6334 17.406 12.5587C17.6051 12.4177 17.8209 12.2849 18.0449 12.1688C18.4846 11.9365 18.9409 11.7373 19.4304 11.6212C19.9199 11.505 20.426 11.4718 20.9155 11.5133L20.7163 11.6959C20.7412 11.3474 20.8325 11.0072 20.9901 10.7086C21.0731 10.5592 21.1644 10.4099 21.2722 10.2854C21.3801 10.1527 21.5045 10.0365 21.629 9.93698C21.6705 9.9038 21.7202 9.91209 21.7534 9.95357C21.77 9.98676 21.7617 10.0365 21.7368 10.0697Z" fill="white"/>
</svg>
