<svg width="41" height="27" viewBox="0 0 41 27" fill="none" xmlns="http://www.w3.org/2000/svg">
<path d="M12.8081 26.6126C9.12742 26.6126 6.36386 25.7566 4.82312 25.1085C3.18455 24.436 0.946809 23.5066 0.48214 21.4401C0.005244 19.3368 1.5949 16.8423 4.51742 15.0692C4.88426 14.8491 5.37339 14.9592 5.60572 15.3382C5.82583 15.7051 5.71577 16.1942 5.3367 16.4265C3.03782 17.8205 1.70495 19.7037 2.02288 21.0977C2.30413 22.3572 4.04052 23.0786 5.4223 23.6534C7.41548 24.4849 11.622 25.7077 17.3203 24.5827C21.4534 23.7756 25.4397 21.868 28.8514 19.0678C29.1938 18.7866 29.6829 18.8355 29.9641 19.1779C30.2454 19.5202 30.1965 20.0094 29.8541 20.2906C26.2468 23.2498 22.0158 25.2675 17.626 26.1357C15.8896 26.478 14.2755 26.6126 12.8081 26.6126Z" fill="#494949"/>
<path d="M20.2292 21.6601C13.4915 21.6601 7.74425 19.8381 5.38423 17.8449C4.61386 17.1846 4.18587 16.5121 4.13696 15.8151C4.12473 15.7173 4.12473 15.6072 4.12473 15.4849C4.12473 15.1425 4.12473 14.7268 3.91685 14.201C3.70898 13.6874 3.45219 13.4184 3.08534 13.0515C2.85301 12.807 2.58399 12.5379 2.31497 12.1833C1.42232 10.985 1.03102 9.5176 1.04325 8.60049C1.0677 5.72688 5.04184 3.83153 6.94943 2.92664L6.99834 2.90219C12.6844 0.199775 18.2849 0.126406 20.4248 0.224231C20.4615 0.224231 20.6449 0.236459 20.8895 0.248687C24.9492 0.49325 29.5348 1.53264 33.1787 3.02447C36.3091 4.30842 40.1121 6.50948 40.3811 9.67656C40.5401 11.4863 39.4762 13.1127 39.0238 13.7974C37.752 15.7295 35.9423 16.7077 34.8173 17.1479L33.9369 18.7987C33.8513 18.9699 33.7045 19.1044 33.5211 19.1656C30.1951 20.4373 26.7834 21.2321 23.3596 21.5134C22.2713 21.6234 21.2441 21.6601 20.2292 21.6601ZM19.2876 1.80166C16.8175 1.80166 12.2564 2.15627 7.65866 4.34511L7.60974 4.36956C6.11791 5.07879 2.6329 6.72959 2.62067 8.61272C2.62067 9.15076 2.86524 10.288 3.57447 11.2295C3.78234 11.4986 3.99022 11.7187 4.21033 11.9388C4.63831 12.3667 5.0663 12.807 5.39646 13.614C5.71439 14.4211 5.71439 15.0814 5.72661 15.4727C5.72661 15.5583 5.72661 15.6317 5.72661 15.6683C5.75107 15.9129 6.00786 16.2675 6.42362 16.6099C8.53908 18.3952 15.13 20.6085 23.2006 19.9237C26.3799 19.6547 29.5592 18.9332 32.6529 17.7716L33.5333 16.1208C33.6312 15.9496 33.7779 15.8151 33.9736 15.7417C34.8662 15.4238 36.5415 14.629 37.6787 12.9048C38.0455 12.3545 38.8893 11.0583 38.7792 9.79885C38.4246 5.92253 28.8011 2.33969 20.7672 1.85057C20.5471 1.83834 20.3759 1.82611 20.327 1.82611C20.0457 1.81389 19.6911 1.80166 19.2876 1.80166Z" fill="#494949"/>
<path d="M23.0417 19.0681C21.5132 19.0681 19.9725 18.9825 18.444 18.7991C14.6166 18.3466 10.2878 17.833 5.88568 14.9105C4.43053 13.9445 3.08544 12.795 1.88708 11.5111C1.59361 11.1932 1.60584 10.6918 1.92377 10.3861C2.2417 10.0926 2.74305 10.1049 3.04875 10.4228C4.16151 11.6211 5.40878 12.685 6.75387 13.5776C10.8503 16.2923 14.8 16.757 18.6274 17.2094C22.7972 17.6985 27.0648 17.4906 30.9778 16.598C32.0538 16.3534 33.1177 16.0477 34.1571 15.7053C34.5728 15.5708 35.0253 15.7909 35.1598 16.2067C35.2943 16.6224 35.0742 17.0749 34.6584 17.2094C33.5701 17.5762 32.4451 17.8819 31.3324 18.1387C28.6789 18.7501 25.8664 19.0681 23.0417 19.0681Z" fill="#494949"/>
</svg>
