<svg width="41" height="28" viewBox="0 0 41 28" fill="none" xmlns="http://www.w3.org/2000/svg">
<path d="M16.9864 27.1934C14.5969 27.1934 12.5872 26.8993 11.3373 26.7277C8.4086 26.3111 6.80332 25.7719 5.85976 25.4043C3.77657 24.5955 1.1787 23.6029 0.83559 21.4952C0.71305 20.7355 0.896861 19.939 1.38702 19.1302C1.55858 18.8361 1.93846 18.7503 2.23255 18.9219C2.52665 19.0934 2.61243 19.4733 2.44087 19.7674C2.11001 20.3188 1.97522 20.8335 2.04874 21.2992C2.28157 22.7084 4.51181 23.5662 6.3009 24.2524C7.19545 24.5955 8.71495 25.0979 11.5089 25.5023C12.9058 25.6984 15.2341 26.0415 17.9423 25.9435C24.1673 25.7229 28.8484 23.3946 31.1031 22.2795C33.701 20.9928 36.1641 19.3875 38.4311 17.5127C38.8354 16.9367 39.1295 16.2995 39.3133 15.6133C39.632 14.4001 39.4726 13.3218 39.2888 12.6478C39.2031 12.3169 39.3991 11.9861 39.73 11.8881C40.0608 11.8023 40.3917 11.9983 40.4897 12.3292C40.7103 13.1502 40.8941 14.4492 40.5142 15.9319C40.2937 16.7897 39.9138 17.5862 39.3991 18.3092L39.3501 18.3704L39.2888 18.4195C36.9361 20.3801 34.3627 22.0467 31.6668 23.3946C29.3385 24.5465 24.4859 26.9605 18.0035 27.1811C17.6482 27.1811 17.3173 27.1934 16.9864 27.1934Z" fill="#494949"/>
<path d="M10.8111 24.2649C9.81851 24.0688 8.81367 23.8605 7.80884 23.6277C6.80401 23.3949 5.79917 23.1498 4.80659 22.7944C4.31643 22.6106 3.81402 22.39 3.33611 22.1204C2.8582 21.8386 2.4048 21.4955 2.02492 21.0298C1.84111 20.797 1.68181 20.5397 1.54701 20.2578C1.52251 20.1843 1.48574 20.123 1.46124 20.0495L1.38771 19.8289C1.3387 19.6819 1.31419 19.5226 1.28968 19.3755C1.2039 18.7506 1.31419 18.1501 1.47349 17.6109C1.8166 16.5326 2.35578 15.6258 2.88271 14.7312C3.42189 13.8489 3.99783 13.0034 4.56151 12.1456C4.84336 11.729 5.13745 11.3001 5.44381 10.8712C5.75016 10.4546 6.05651 10.0379 6.38737 9.62129C7.03683 8.80027 7.71081 8.01601 8.4338 7.26851C9.15679 6.50876 9.90429 5.78577 10.6885 5.09954L11.289 4.59712L11.8772 4.10696C12.2693 3.7761 12.686 3.4575 13.1148 3.13889C13.9604 2.50168 14.9162 1.93799 15.9088 1.52135C16.9014 1.09246 17.9307 0.773856 18.9845 0.577791C20.0384 0.369472 21.1045 0.283694 22.1216 0.234678C23.1754 0.173407 24.2293 0.197915 25.2709 0.271439C26.3247 0.344964 27.3663 0.504267 28.3957 0.72484C28.9103 0.835127 29.425 0.957667 29.9397 1.11697C30.4298 1.26402 30.92 1.41107 31.4224 1.57037C32.415 1.88898 33.4198 2.2566 34.3756 2.75901C34.8536 3.0041 35.3192 3.28594 35.7726 3.59229L36.1035 3.83737L36.275 3.95991L36.4343 4.09471L36.7529 4.35204C36.851 4.43782 36.949 4.53585 37.0593 4.63389C37.8558 5.39364 38.542 6.27593 39.0567 7.244C39.5836 8.21207 39.939 9.25367 40.1963 10.2708C40.2576 10.5281 40.3189 10.7854 40.3801 11.0305C40.4414 11.2878 40.4904 11.5207 40.5517 11.7903C40.662 12.3172 40.7478 12.8564 40.7845 13.42C40.8213 13.9837 40.7968 14.5842 40.6375 15.1969C40.5517 15.5032 40.4414 15.7728 40.3066 16.0424C40.1718 16.312 40.0125 16.5693 39.841 16.8022C39.4978 17.2801 39.0812 17.6845 38.6523 18.0398C38.4317 18.2236 38.2357 18.3584 38.0274 18.53L37.721 18.7628L37.4024 18.9956C36.5569 19.6084 35.6746 20.1598 34.7678 20.6745C32.9542 21.7038 31.0548 22.5493 29.0941 23.2233C28.1138 23.5664 27.1212 23.8605 26.1287 24.1178C25.1238 24.3752 24.119 24.5958 23.1019 24.7796C22.5872 24.8653 22.0848 24.9389 21.5702 25.0124C21.3128 25.0492 21.0555 25.0737 20.7981 25.0982L20.6021 25.1104L20.4918 25.1227H20.3938L20.0139 25.1349C18.9968 25.1717 17.9552 25.184 16.9259 25.1349C15.8965 25.0859 14.8672 24.9879 13.8501 24.8408C12.8208 24.6693 11.8037 24.4732 10.8111 24.2649ZM10.9704 23.4806C12.9555 23.8973 14.9407 24.2036 16.9504 24.2526C17.9552 24.2771 18.9478 24.2649 19.9649 24.1914L20.3447 24.1669L20.4305 24.1546H20.4428H20.4673H20.5163L20.7001 24.1301C20.9452 24.1056 21.1903 24.0688 21.4354 24.0321C21.9255 23.9585 22.4279 23.8728 22.9181 23.7747C26.8517 22.9782 30.6504 21.52 34.057 19.4613C34.9148 18.9466 35.7359 18.3952 36.5201 17.7948L36.8142 17.5742L37.1083 17.3414C37.2921 17.182 37.5004 17.035 37.672 16.8757C38.0274 16.5693 38.3337 16.2507 38.5665 15.8954C38.6891 15.7238 38.7994 15.54 38.8851 15.3439C38.9709 15.1601 39.0444 14.9518 39.0935 14.768C39.1915 14.3881 39.216 13.9592 39.1792 13.5058C39.1547 13.0524 39.069 12.5868 38.9709 12.1089C38.9219 11.876 38.8606 11.6187 38.8116 11.3859C38.7503 11.1408 38.7013 10.908 38.6278 10.6629C38.3827 9.71932 38.0641 8.81252 37.6107 7.9915C37.3901 7.57486 37.1328 7.18273 36.851 6.81511C36.5569 6.44749 36.2628 6.09212 35.9197 5.77351C35.8339 5.69999 35.7481 5.61421 35.6623 5.52843L35.3927 5.30786L35.2579 5.19757L35.1109 5.08729L34.829 4.87897C34.4369 4.62163 34.0325 4.3643 33.6036 4.14372C32.7581 3.70258 31.8391 3.35946 30.8955 3.05311C30.4176 2.90606 29.9397 2.75901 29.4495 2.61197C28.9839 2.47717 28.506 2.35463 28.028 2.2566C27.0722 2.04828 26.0919 1.91348 25.1116 1.83996C24.1313 1.76644 23.1509 1.75418 22.1706 1.8032C21.1658 1.85221 20.1977 1.93799 19.2419 2.1218C18.2983 2.30561 17.3793 2.58746 16.497 2.96733C15.6147 3.34721 14.8059 3.82512 14.0217 4.40106C13.6295 4.69516 13.2374 5.00151 12.8575 5.32011L12.2693 5.79802L11.7056 6.27593C10.9581 6.9254 10.2351 7.61162 9.53666 8.32236C8.83818 9.03309 8.17646 9.78059 7.55151 10.5526C7.2329 10.9447 6.9388 11.3369 6.63245 11.729C6.33835 12.1334 6.05651 12.5378 5.76241 12.9544C5.17422 13.7877 4.59828 14.6087 4.04684 15.442C3.54443 16.2998 3.0175 17.1575 2.6989 18.0031C2.53959 18.432 2.45381 18.8486 2.47832 19.2407C2.49058 19.3388 2.49058 19.4368 2.52734 19.5348L2.5641 19.6819C2.57636 19.7309 2.60086 19.7799 2.61312 19.8289C2.68664 20.0127 2.78467 20.1965 2.90722 20.3681C3.1523 20.7112 3.49541 21.0053 3.88754 21.2627C4.27967 21.52 4.70856 21.7406 5.16196 21.9244C6.06876 22.3042 7.03683 22.5738 8.01716 22.8312C8.98523 23.064 9.97781 23.2723 10.9704 23.4806Z" fill="#494949"/>
<path d="M27.6597 22.5251C28.6523 22.2065 29.6326 21.8266 30.5394 21.3242C31.4462 20.8217 32.2917 20.209 32.9779 19.4493C33.1495 19.2655 33.3088 19.0572 33.4804 18.8488C33.6519 18.6405 33.8235 18.4322 34.0073 18.2239C34.3626 17.8195 34.7425 17.4151 35.1469 17.0475C35.9434 16.3 36.8135 15.6383 37.7325 15.0623C37.8183 15.0133 37.9163 15.0378 37.9776 15.1236C38.0266 15.1971 38.0021 15.3074 37.9286 15.3564C37.0585 15.9691 36.2498 16.6554 35.5145 17.4274C35.1469 17.8072 34.8038 18.2116 34.4729 18.6283C34.3136 18.8366 34.1543 19.0449 33.995 19.2655C33.8357 19.4738 33.6764 19.7066 33.5049 19.9272C32.7941 20.7972 31.9118 21.508 30.9805 22.1084C30.037 22.6966 29.0321 23.1623 28.0028 23.5544C27.7332 23.6524 27.4268 23.5176 27.3288 23.2481C27.2308 22.9785 27.3656 22.6721 27.6352 22.5741C27.6352 22.5251 27.6352 22.5251 27.6597 22.5251Z" fill="#494949"/>
</svg>
