<svg width="25" height="17" fill="none" xmlns="http://www.w3.org/2000/svg"><path d="M10.117 16.87c-1.493 0-2.75-.183-3.53-.29-1.83-.26-2.834-.597-3.424-.827-1.302-.506-2.926-1.126-3.14-2.443-.077-.475.038-.973.345-1.479a.385.385 0 11.658.399c-.207.344-.29.666-.245.957.146.88 1.54 1.417 2.658 1.846.559.214 1.509.528 3.255.781.873.123 2.328.337 4.02.276 3.891-.138 6.817-1.593 8.226-2.29a23.72 23.72 0 004.58-2.98 3.596 3.596 0 00.536-3.04.393.393 0 01.276-.475.393.393 0 01.475.276 4.45 4.45 0 01.015 2.251 4.477 4.477 0 01-.697 1.486l-.03.039-.039.03a24.72 24.72 0 01-4.764 3.11c-1.455.72-4.488 2.228-8.54 2.366-.221 0-.428.008-.635.008z" fill="#fff"/><path d="M6.258 15.04a58.94 58.94 0 01-1.877-.398c-.628-.145-1.256-.298-1.876-.52a6.56 6.56 0 01-.92-.422 2.995 2.995 0 01-.819-.681 2.554 2.554 0 01-.298-.483c-.016-.046-.039-.084-.054-.13l-.046-.138c-.03-.092-.046-.191-.061-.283-.054-.39.015-.766.115-1.103.214-.674.551-1.24.88-1.8.337-.551.697-1.08 1.05-1.616.176-.26.36-.528.551-.796.192-.26.383-.521.59-.782a19.54 19.54 0 011.279-1.47c.452-.475.919-.927 1.41-1.356l.374-.314.368-.306c.245-.207.505-.406.774-.605A8.238 8.238 0 019.444.826a8.992 8.992 0 011.922-.59c.659-.13 1.325-.184 1.96-.214a15.331 15.331 0 011.969.023c.659.046 1.31.145 1.953.283.322.069.643.146.965.245.306.092.613.184.927.284.62.199 1.248.428 1.845.742.3.154.59.33.874.521l.206.153.108.077.1.084.198.161c.062.054.123.115.192.176a6.464 6.464 0 011.248 1.632c.33.605.552 1.256.712 1.891l.115.475c.039.16.07.306.108.475.069.33.122.666.145 1.019.023.352.008.727-.092 1.11a3.26 3.26 0 01-.497 1.003 4.193 4.193 0 01-.744.774c-.137.115-.26.2-.39.306l-.192.146-.199.145c-.528.383-1.08.728-1.646 1.05a21.011 21.011 0 01-3.546 1.593 23.57 23.57 0 01-1.854.559 27.38 27.38 0 01-1.892.413c-.321.054-.635.1-.957.146-.16.023-.322.038-.482.053l-.123.008-.069.008h-.061l-.238.007c-.635.023-1.286.031-1.93 0a20.175 20.175 0 01-1.922-.183 46.523 46.523 0 01-1.9-.36zm.1-.49c1.24.26 2.48.452 3.737.483a19.47 19.47 0 001.884-.038l.237-.016.054-.007h.053l.115-.016c.153-.015.307-.038.46-.06.306-.047.62-.1.927-.162a21.9 21.9 0 006.961-2.696c.537-.321 1.05-.666 1.54-1.041l.184-.138.183-.146c.115-.1.245-.191.353-.29.222-.192.413-.391.559-.613a2.252 2.252 0 00.33-.705c.06-.237.076-.505.053-.789a6.041 6.041 0 00-.13-.873c-.031-.145-.07-.306-.1-.452-.038-.153-.069-.298-.115-.452-.153-.59-.352-1.156-.636-1.67a5.242 5.242 0 00-.474-.735 5.879 5.879 0 00-.582-.65 2.968 2.968 0 01-.161-.154l-.169-.138-.084-.068-.092-.07-.176-.13a8.437 8.437 0 00-.766-.46 10.898 10.898 0 00-1.693-.68 69.91 69.91 0 00-.903-.276 13.224 13.224 0 00-2.711-.482 14.722 14.722 0 00-1.839-.024c-.628.03-1.233.084-1.83.2a8.392 8.392 0 00-1.716.528 7.818 7.818 0 00-1.547.896c-.245.183-.49.375-.727.574l-.368.299-.352.298c-.467.406-.92.835-1.356 1.28-.436.444-.85.91-1.24 1.393-.2.245-.384.49-.575.736-.184.252-.36.505-.544.766-.367.52-.727 1.033-1.072 1.554-.314.536-.643 1.072-.842 1.6-.1.269-.154.53-.138.774.007.062.007.123.03.184l.023.092c.008.03.023.062.03.092.047.115.108.23.185.337a2.3 2.3 0 00.612.56c.246.16.514.298.797.413.567.237 1.172.406 1.784.567a65.29 65.29 0 001.846.405z" fill="#fff"/><path d="M16.788 13.953c.62-.199 1.233-.436 1.8-.75s1.095-.697 1.524-1.172c.107-.115.207-.245.314-.375.107-.13.215-.26.33-.391a10.53 10.53 0 012.328-1.976c.053-.03.115-.015.153.038a.109.109 0 01-.03.146 10.126 10.126 0 00-2.46 2.443c-.099.13-.198.276-.305.414-.445.543-.996.988-1.578 1.363a10.7 10.7 0 01-1.861.904.329.329 0 01-.422-.192.329.329 0 01.192-.421c0-.03 0-.03.015-.03z" fill="#fff"/></svg>