<svg width="25" height="19" viewBox="0 0 25 19" fill="none" xmlns="http://www.w3.org/2000/svg">
<path d="M7.22736 17.8605C6.94749 17.7782 6.67585 17.7041 6.4042 17.63C6.13256 17.5642 5.86092 17.4983 5.58104 17.4489C5.3094 17.3995 5.02952 17.3501 4.74965 17.3254C4.60971 17.309 4.478 17.3007 4.33807 17.2925C4.19813 17.2843 4.04996 17.276 3.90179 17.2596H3.93472C3.89356 17.2596 3.90179 17.2596 3.89356 17.2596H3.87709H3.8524L3.79478 17.2514L3.68777 17.2431L3.46551 17.2184C3.31734 17.202 3.17741 17.1855 3.02924 17.169C2.74113 17.1279 2.45302 17.0867 2.14845 17.0209C1.85212 16.955 1.54755 16.8562 1.25944 16.7163C0.9631 16.5681 0.683224 16.3541 0.469202 16.0742L0.773772 16.2306C0.279875 16.0495 0.518592 16.0413 0.452739 16.0578L0.444508 16.0413L0.419813 16.0084L0.378655 15.9508C0.35396 15.9096 0.329265 15.8684 0.312802 15.8355C0.271643 15.7532 0.230485 15.6791 0.197559 15.5886C0.131706 15.4239 0.0823162 15.2511 0.0411581 15.07C0.0329265 14.9794 0.0164633 14.8889 0.00823165 14.7983C3.12785e-08 14.7489 0 14.7078 0 14.6666V14.5349V14.4032C0 14.3621 0.00823165 14.3209 0.00823165 14.2797L0.0329265 14.0328C0.123474 13.3743 0.312802 12.7569 0.543287 12.1724C1.01249 10.9871 1.65456 9.90051 2.37894 8.87979C2.56827 8.62461 2.75759 8.37766 2.94692 8.13071L3.5396 7.40633C3.74539 7.17585 3.95941 6.94536 4.1652 6.71487C4.37922 6.48439 4.60148 6.27037 4.8155 6.04811C4.92251 5.93287 5.02952 5.82586 5.14476 5.71885L5.47403 5.39782C5.69628 5.18379 5.91854 4.96977 6.14902 4.76398C6.60176 4.34417 7.0792 3.93259 7.58132 3.5457C8.57735 2.78016 9.68039 2.12163 10.8493 1.63596C11.4173 1.39725 12.0099 1.16676 12.6191 0.985666C13.2282 0.80457 13.8538 0.664633 14.4877 0.590548L14.7264 0.565853L14.9651 0.541158C15.1215 0.524695 15.2861 0.524695 15.4425 0.508232C15.5989 0.500001 15.7636 0.5 15.92 0.5C16.0764 0.5 16.2245 0.500001 16.3892 0.508232C17.0148 0.516464 17.6486 0.565853 18.2824 0.672865C18.9163 0.779876 19.5419 0.944508 20.151 1.18322C20.7519 1.42194 21.3364 1.74297 21.8632 2.13809L22.2501 2.45089L22.604 2.79662C22.8345 3.03534 23.0568 3.29875 23.2379 3.57863C23.6083 4.14661 23.847 4.77221 24.0281 5.38135C24.2092 5.99049 24.3327 6.59963 24.4562 7.20877L24.629 8.11425L24.7113 8.55053L24.7278 8.65754C24.7278 8.68223 24.736 8.68223 24.736 8.6987L24.7525 8.75632C24.7689 8.83863 24.7854 8.91272 24.8019 8.99503C24.9254 9.62887 25.0077 10.2627 24.9994 10.9212C24.9912 11.2505 24.9747 11.5798 24.9171 11.909C24.8595 12.2383 24.7772 12.5758 24.6455 12.8968C24.5796 13.0615 24.4973 13.2179 24.415 13.3743C24.3162 13.5307 24.2339 13.6624 24.1269 13.8023C23.9129 14.0822 23.6412 14.3456 23.3284 14.5514L23.2132 14.6255C23.1802 14.6419 23.1473 14.6666 23.0979 14.6913C23.0156 14.7407 22.9168 14.7819 22.8263 14.8148C22.6452 14.8806 22.4806 14.9218 22.3159 14.9547C21.9949 15.0206 21.6821 15.0617 21.3693 15.1029L20.9166 15.1523C20.7684 15.1688 20.6284 15.1934 20.4885 15.2181C20.2086 15.2675 19.937 15.3334 19.6736 15.4239C19.4102 15.5145 19.1468 15.6215 18.8998 15.7532C18.7763 15.819 18.6529 15.8849 18.5211 15.9672C18.3812 16.0495 18.2413 16.1319 18.1013 16.1977C17.5416 16.494 16.9654 16.7328 16.3892 16.9632C15.8129 17.1855 15.2285 17.3913 14.6358 17.5724C14.3395 17.6629 14.0431 17.7452 13.7303 17.8193C13.4258 17.8934 13.1212 17.9428 12.8084 18.0004C12.191 18.0992 11.5737 18.1733 10.9563 18.2062C10.7999 18.2144 10.6435 18.2227 10.4871 18.2309L10.0179 18.2391L9.54868 18.2309C9.39228 18.2227 9.23588 18.2144 9.07948 18.2062C8.46211 18.1239 7.84474 18.0334 7.22736 17.8605ZM7.38377 17.3254C8.51973 17.63 9.72155 17.6959 10.9151 17.5888C11.5078 17.5395 12.1087 17.4489 12.6932 17.3337C12.9895 17.276 13.2776 17.2102 13.5657 17.1279C13.8456 17.0538 14.1337 16.955 14.4136 16.8562C14.9816 16.6587 15.5413 16.4282 16.0846 16.1895C16.6361 15.9508 17.1712 15.6873 17.6815 15.391C17.805 15.3169 17.9285 15.2428 18.0519 15.1687C18.1754 15.0864 18.3236 14.9959 18.4635 14.9136C18.7516 14.7489 19.048 14.609 19.3608 14.4938C19.6736 14.3785 19.9946 14.2962 20.3074 14.2303C20.4638 14.1974 20.6284 14.1727 20.7848 14.148L21.2458 14.0822C21.5422 14.041 21.8385 13.9916 22.1101 13.934C22.2418 13.9011 22.3735 13.8682 22.4806 13.827C22.5299 13.8105 22.5711 13.7858 22.6205 13.7611L22.711 13.7118L22.7934 13.6624C22.9909 13.5307 23.1638 13.366 23.3202 13.1602C23.3613 13.1108 23.3943 13.0532 23.4354 12.9956L23.4684 12.9462L23.493 12.9051L23.5424 12.8227C23.6083 12.7157 23.6659 12.6005 23.7153 12.477C23.9129 11.9996 23.9952 11.4398 24.0116 10.8718C24.0199 10.3039 23.9622 9.72765 23.8552 9.15967C23.8388 9.08558 23.8223 9.01973 23.8141 8.95388L23.8058 8.90449C23.7976 8.88802 23.7894 8.8551 23.7894 8.83863L23.7647 8.72339L23.6824 8.26242C23.6248 7.96608 23.5754 7.66151 23.5177 7.36517C23.4025 6.7725 23.279 6.18805 23.1144 5.6283C22.9498 5.06855 22.744 4.54173 22.4394 4.08899C22.2912 3.8585 22.1184 3.65271 21.9208 3.45515L21.6162 3.15881L21.287 2.8954C20.3897 2.21218 19.2949 1.81706 18.1507 1.62773C17.5745 1.53718 16.9983 1.48779 16.3974 1.47956C16.2492 1.47956 16.1011 1.47956 15.9447 1.47133C15.7965 1.47133 15.6565 1.47133 15.5084 1.47956C15.3602 1.48779 15.2203 1.48779 15.0721 1.50426L14.8581 1.52072L14.6441 1.54542C14.0678 1.6195 13.4999 1.74298 12.9401 1.90761C12.3804 2.07224 11.8288 2.28626 11.2773 2.52498C10.1907 2.98595 9.17826 3.57863 8.24809 4.31124C7.31791 5.03562 6.47006 5.88348 5.6222 6.75603C5.41641 6.97006 5.20239 7.18408 5.00483 7.40633C4.80727 7.62859 4.60971 7.85084 4.40392 8.07309L3.8277 8.75632C3.64661 8.99503 3.46551 9.22552 3.28442 9.46424L3.021 9.82643C2.93869 9.9499 2.83991 10.0651 2.76582 10.1886C2.60119 10.4356 2.43656 10.6825 2.28839 10.9377C1.97559 11.4398 1.70395 11.9584 1.46523 12.4935C1.22651 13.0285 1.02895 13.58 0.921942 14.1233L0.889015 14.3291C0.880783 14.3621 0.880784 14.395 0.872552 14.4279L0.86432 14.5267L0.856089 14.6255C0.856089 14.6584 0.847857 14.6913 0.856089 14.7242L0.86432 14.9053C0.880784 15.0288 0.905478 15.1523 0.954868 15.2675C0.971331 15.3252 0.996026 15.3828 1.02895 15.4404C1.04542 15.4651 1.05365 15.498 1.07011 15.5227L1.09481 15.5639L1.10304 15.5803L1.11127 15.5886C1.05365 15.605 1.29236 15.605 0.806699 15.4322L1.11127 15.5886C1.24297 15.7697 1.40761 15.9261 1.62986 16.0413C1.84388 16.1648 2.09083 16.2553 2.34601 16.3212C2.60119 16.3953 2.88107 16.4447 3.16094 16.494C3.30088 16.5187 3.44082 16.5434 3.57252 16.5599C3.63838 16.5681 3.71246 16.5764 3.77831 16.5846L3.88533 16.5928L3.93472 16.6011H3.95941H3.97587C3.97587 16.6011 3.99234 16.6011 3.95941 16.6011H3.99234C4.13227 16.6175 4.27221 16.6257 4.41215 16.6422C4.55209 16.6587 4.70849 16.6669 4.85666 16.6916C5.153 16.7328 5.43287 16.7904 5.72098 16.8398C6.00908 16.8974 6.28896 16.9632 6.57707 17.0373C6.83225 17.1608 7.11212 17.2431 7.38377 17.3254Z" fill="white"/>
<path d="M22.3244 11.4725C21.8717 11.6372 21.4519 11.8594 21.0732 12.131C20.8839 12.271 20.7028 12.4192 20.5382 12.5838C20.4558 12.6661 20.3818 12.7484 20.2912 12.839C20.2007 12.9295 20.1101 13.0118 20.0196 13.1024C19.6574 13.4399 19.2787 13.7609 18.8836 14.0572C18.4885 14.3536 18.0851 14.6417 17.6653 14.9051C16.8339 15.4402 15.9531 15.8929 15.0312 16.2716C14.916 16.3209 14.8007 16.3621 14.6855 16.4033L14.3315 16.5267C14.2163 16.5679 14.0928 16.6008 13.9775 16.642L13.6236 16.749C13.5083 16.7901 13.3849 16.8148 13.2614 16.8478L12.8992 16.9383C12.7757 16.9712 12.6605 16.9959 12.537 17.0206L12.1748 17.0947C11.2035 17.2758 10.2075 17.3828 9.19498 17.3252C9.0715 17.317 8.9398 17.3087 8.81632 17.2923L8.627 17.2676C8.56114 17.2593 8.50352 17.2429 8.43767 17.2347L8.24834 17.2017L8.05901 17.1606L7.87792 17.1194L7.70505 17.0783C7.23585 16.963 6.76665 16.856 6.29745 16.7655C6.05873 16.7161 5.82001 16.6749 5.58953 16.6255L5.40843 16.5926C5.35081 16.5844 5.29319 16.5761 5.23557 16.5679C5.12032 16.5514 4.99685 16.535 4.88161 16.5267C4.39594 16.4773 3.91027 16.4115 3.43284 16.3539C3.19412 16.3209 2.94718 16.2963 2.70846 16.2633C2.46151 16.2304 2.21456 16.181 1.97584 16.1234C1.49018 16.0081 1.02098 15.8435 0.568236 15.646C0.502383 15.6213 0.477688 15.5472 0.510615 15.4813C0.53531 15.4237 0.601163 15.3908 0.667016 15.4155C1.11152 15.5801 1.58073 15.7036 2.04993 15.7859C2.28865 15.827 2.51913 15.86 2.75785 15.8764C2.99656 15.8929 3.24351 15.9094 3.48223 15.9258L4.93923 16.0328C5.0627 16.0411 5.18618 16.0493 5.30965 16.0658C5.3755 16.074 5.44136 16.0822 5.49898 16.0905L5.68007 16.1152C5.91879 16.1481 6.16574 16.1892 6.40446 16.2304C6.89012 16.3127 7.36756 16.4033 7.85322 16.5103L8.03432 16.5514C8.09194 16.5679 8.14956 16.5761 8.20718 16.5844L8.38005 16.6173L8.55291 16.642L8.72577 16.6667L8.89864 16.6831C9.01388 16.6996 9.12912 16.6996 9.24437 16.7078C10.1828 16.749 11.1294 16.6255 12.0678 16.4444L12.4218 16.3703C12.537 16.3456 12.6605 16.3209 12.7757 16.288L13.1215 16.2057C13.2367 16.1728 13.3519 16.1481 13.4672 16.1152L13.8047 16.0081C13.9199 15.9752 14.0352 15.9423 14.1422 15.9011L14.4797 15.7777C14.5949 15.7365 14.7019 15.6953 14.8089 15.6542C15.698 15.3085 16.5458 14.8639 17.369 14.3865C18.1921 13.9008 18.9906 13.3576 19.7315 12.7567C19.822 12.6826 19.9125 12.6085 20.0031 12.5262C20.0854 12.4521 20.1842 12.3615 20.283 12.2792C20.4805 12.1146 20.6863 11.9746 20.9003 11.8429C21.3366 11.5878 21.8058 11.3984 22.2915 11.2997C22.3409 11.2914 22.3903 11.3161 22.3985 11.3655C22.3903 11.4149 22.3656 11.4561 22.3244 11.4725Z" fill="white"/>
</svg>
