<svg width="41" height="29" fill="none" xmlns="http://www.w3.org/2000/svg"><path d="M11.964 28.177c-.448-.132-.882-.25-1.317-.37-.434-.104-.87-.21-1.317-.289a14.672 14.672 0 00-1.989-.25c-.224-.013-.46-.026-.698-.053h.053-.132l-.092-.013-.171-.013-.356-.04-.698-.079c-.46-.066-.922-.131-1.41-.237a6.496 6.496 0 01-1.422-.487 3.633 3.633 0 01-1.264-1.027l.487.25c-.79-.29-.408-.303-.513-.277l-.013-.026-.04-.053-.066-.092a3.033 3.033 0 01-.105-.184c-.066-.132-.132-.25-.185-.395a5.519 5.519 0 01-.25-.83c-.013-.145-.04-.29-.052-.435C.4 23.198.4 23.132.4 23.067v-.422c0-.066.014-.132.014-.197l.04-.396C.597 21 .9 20.011 1.27 19.076c.75-1.897 1.778-3.635 2.937-5.268.303-.409.606-.804.908-1.199l.949-1.159c.329-.369.671-.737 1-1.106.343-.37.699-.712 1.041-1.067.171-.184.343-.356.527-.527l.527-.514a39.91 39.91 0 011.08-1.014 33.058 33.058 0 012.291-1.949c1.594-1.225 3.359-2.278 5.23-3.056.908-.382 1.856-.75 2.83-1.04a17.75 17.75 0 012.99-.632l.383-.04.381-.04c.25-.026.514-.026.764-.052.25-.013.514-.013.764-.013s.488 0 .751.013c1.001.013 2.015.092 3.03.263 1.013.172 2.014.435 2.989.817a11.92 11.92 0 012.74 1.528l.619.5.566.553c.369.382.724.804 1.014 1.252.593.908.975 1.91 1.264 2.884.29.975.488 1.95.685 2.924l.277 1.449.131.698.027.171c0 .04.013.04.013.066l.026.092.08.382c.197 1.014.329 2.028.316 3.082-.014.527-.04 1.053-.132 1.58a7.625 7.625 0 01-.435 1.58 8.157 8.157 0 01-.369.765c-.158.25-.29.46-.46.685a5.322 5.322 0 01-1.278 1.198l-.184.119c-.053.026-.106.066-.185.105-.132.079-.29.145-.434.198a5.69 5.69 0 01-.817.224c-.514.105-1.014.17-1.515.237l-.724.079c-.237.026-.461.065-.685.105a8.468 8.468 0 00-1.304.33 8.53 8.53 0 00-1.238.526c-.198.105-.395.21-.606.343-.224.131-.448.263-.671.368-.896.474-1.818.856-2.74 1.225a41.47 41.47 0 01-2.805.975c-.474.145-.949.276-1.45.395-.486.118-.974.197-1.474.29-.988.158-1.976.276-2.963.329l-.751.04-.751.012-.75-.013-.751-.04c-.988-.13-1.976-.276-2.964-.552zm.25-.856c1.818.487 3.74.592 5.65.421.949-.079 1.91-.224 2.845-.408.475-.092.936-.198 1.396-.33.448-.118.91-.276 1.357-.434a36.457 36.457 0 002.674-1.067 24.312 24.312 0 002.555-1.277l.593-.356c.197-.132.434-.277.658-.408a9.5 9.5 0 011.436-.672c.5-.184 1.014-.316 1.514-.421.25-.053.514-.093.764-.132l.738-.106a20.13 20.13 0 001.383-.237c.21-.052.421-.105.592-.17.08-.027.145-.067.224-.106l.145-.08.132-.078c.316-.211.592-.475.843-.804.066-.079.118-.17.184-.263l.053-.08.04-.065.078-.132c.106-.17.198-.355.277-.553.316-.764.448-1.66.474-2.568a13.77 13.77 0 00-.25-2.74c-.027-.118-.053-.224-.066-.329l-.013-.079a.31.31 0 01-.027-.105l-.04-.185-.13-.737c-.093-.474-.172-.962-.264-1.436-.185-.948-.382-1.883-.646-2.779-.263-.895-.592-1.738-1.08-2.463a6.068 6.068 0 00-.83-1.014l-.487-.474-.526-.421c-1.436-1.094-3.188-1.726-5.018-2.029a19.66 19.66 0 00-2.806-.237c-.237 0-.474 0-.724-.013-.237 0-.461 0-.698.013-.237.013-.461.013-.698.04l-.343.026-.342.04c-.922.118-1.83.316-2.726.58-.896.262-1.779.605-2.66.987a21.138 21.138 0 00-4.848 2.858c-1.488 1.159-2.845 2.515-4.201 3.912-.33.342-.672.684-.988 1.04-.316.356-.632.711-.961 1.067l-.922 1.093c-.29.382-.58.75-.87 1.133l-.421.58c-.132.197-.29.381-.408.579-.264.395-.527.79-.764 1.198a20.45 20.45 0 00-1.317 2.49c-.382.855-.698 1.738-.87 2.607l-.052.33c-.013.052-.013.105-.027.157l-.013.159L1.77 23c0 .052-.013.105 0 .158l.013.29a2.2 2.2 0 00.145.579c.027.092.066.184.119.277.026.039.04.092.066.131l.04.066.012.026.013.014c-.092.026.29.026-.487-.25l.487.25c.211.29.475.54.83.724.343.198.738.342 1.146.448.408.118.856.197 1.304.276.224.04.448.08.658.106.106.013.224.026.33.04l.17.012.08.014h.092c.224.026.448.04.672.065.224.027.474.04.711.08.474.065.922.158 1.383.237.46.092.909.197 1.37.316.408.197.856.329 1.29.46z" fill="#494949"/><path d="M36.119 17.956a8.292 8.292 0 00-2.002 1.054 7.54 7.54 0 00-.856.724c-.132.132-.25.263-.396.408-.144.145-.29.277-.434.422-.58.54-1.185 1.053-1.818 1.528a28.54 28.54 0 01-1.949 1.356c-1.33.856-2.74 1.58-4.215 2.186-.184.08-.368.145-.553.211l-.566.198c-.184.066-.382.118-.566.184l-.567.171c-.184.066-.382.106-.58.159l-.579.144a9.202 9.202 0 01-.58.132l-.579.119c-1.554.29-3.147.46-4.767.368-.198-.013-.409-.026-.606-.052l-.303-.04c-.106-.013-.198-.04-.303-.053l-.303-.052-.303-.066-.29-.066-.276-.066a45.906 45.906 0 00-2.252-.5c-.382-.08-.764-.145-1.133-.224l-.29-.053-.276-.04a8.266 8.266 0 00-.567-.065c-.777-.08-1.554-.185-2.318-.277-.382-.052-.777-.092-1.159-.145a11.51 11.51 0 01-1.172-.223 13.336 13.336 0 01-2.252-.764c-.106-.04-.145-.159-.092-.264a.195.195 0 01.25-.105 12.752 12.752 0 003.345.737l1.16.08 2.33.17c.198.014.395.027.593.053l.303.04.29.04c.382.052.777.118 1.159.184.777.131 1.54.276 2.318.448l.29.065c.092.027.184.04.276.053l.277.053.276.04.277.039.276.026c.185.026.37.026.554.04 1.501.065 3.016-.132 4.517-.422l.566-.118c.185-.04.382-.08.567-.132l.553-.132c.184-.052.369-.092.553-.145l.54-.17c.185-.054.369-.106.54-.172l.54-.198c.184-.066.356-.131.527-.197 1.422-.553 2.779-1.265 4.096-2.028a31.079 31.079 0 003.78-2.608c.145-.119.29-.237.435-.37.131-.118.29-.262.447-.394.317-.264.646-.488.988-.698a7.315 7.315 0 012.226-.87c.079-.013.158.027.171.106-.013.079-.053.145-.118.171z" fill="#494949"/></svg>