<svg width="41" height="29" viewBox="0 0 41 29" fill="none" xmlns="http://www.w3.org/2000/svg">
<path d="M11.9642 28.1767C11.5164 28.045 11.0817 27.9264 10.6471 27.8079C10.2125 27.7025 9.77786 27.5972 9.33005 27.5182C8.89543 27.4391 8.44763 27.3601 7.99982 27.3206C7.77592 27.2943 7.5652 27.2811 7.3413 27.2679C7.11739 27.2547 6.88032 27.2416 6.64325 27.2152H6.69594C6.63008 27.2152 6.64325 27.2152 6.63008 27.2152H6.60374H6.56423L6.47203 27.2021L6.30082 27.1889L5.94521 27.1494C5.70814 27.123 5.48424 27.0967 5.24717 27.0704C4.7862 27.0045 4.32523 26.9387 3.83792 26.8333C3.36377 26.7279 2.87646 26.5699 2.41549 26.346C1.94135 26.1089 1.49355 25.7665 1.15111 25.3187L1.63843 25.5689C0.848191 25.2792 1.23014 25.266 1.12477 25.2923L1.1116 25.266L1.07209 25.2133L1.00624 25.1211C0.966726 25.0553 0.927214 24.9894 0.900873 24.9367C0.83502 24.805 0.769167 24.6865 0.716485 24.5416C0.61112 24.2782 0.532097 24.0016 0.466244 23.7119C0.453073 23.567 0.426732 23.4221 0.413561 23.2772C0.400391 23.1982 0.400391 23.1324 0.400391 23.0665V22.8558V22.645C0.400391 22.5792 0.413561 22.5133 0.413561 22.4475L0.453073 22.0524C0.59795 20.9987 0.900873 20.0109 1.26965 19.0758C2.02037 17.1792 3.04768 15.4407 4.20669 13.8076C4.50962 13.3993 4.81254 13.0042 5.11546 12.609L6.06375 11.45C6.39301 11.0813 6.73545 10.7125 7.06471 10.3437C7.40715 9.97493 7.76275 9.63249 8.10519 9.27688C8.27641 9.0925 8.44762 8.92128 8.63201 8.75006L9.15884 8.23641C9.51444 7.89397 9.87005 7.55154 10.2388 7.22227C10.9632 6.55057 11.7271 5.89204 12.5305 5.27302C14.1242 4.04816 15.889 2.99451 17.7592 2.21744C18.668 1.8355 19.6163 1.46672 20.5909 1.17697C21.5655 0.887215 22.5665 0.663315 23.5806 0.54478L23.9626 0.505268L24.3445 0.465755C24.5948 0.439414 24.8582 0.439415 25.1084 0.413074C25.3587 0.399903 25.6221 0.399902 25.8723 0.399902C26.1226 0.399902 26.3596 0.399903 26.623 0.413074C27.624 0.426244 28.6381 0.505268 29.6523 0.676486C30.6664 0.847703 31.6674 1.11111 32.642 1.49306C33.6035 1.87501 34.5386 2.38866 35.3815 3.02085L36.0005 3.52133L36.5668 4.0745C36.9356 4.45645 37.2912 4.8779 37.581 5.32571C38.1737 6.23448 38.5556 7.23544 38.8454 8.21007C39.1351 9.18469 39.3327 10.1593 39.5302 11.1339L39.8068 12.5827L39.9385 13.2807L39.9649 13.452C39.9649 13.4915 39.978 13.4915 39.978 13.5178L40.0044 13.61C40.0307 13.7417 40.0571 13.8603 40.0834 13.992C40.281 15.0061 40.4127 16.0202 40.3995 17.0739C40.3863 17.6007 40.36 18.1275 40.2678 18.6543C40.1756 19.1812 40.0439 19.7212 39.8332 20.2348C39.7278 20.4982 39.5961 20.7485 39.4644 20.9987C39.3063 21.249 39.1746 21.4597 39.0034 21.6836C38.661 22.1314 38.2263 22.5528 37.7259 22.8821L37.5415 23.0006C37.4888 23.027 37.4361 23.0665 37.3571 23.106C37.2254 23.185 37.0673 23.2509 36.9225 23.3036C36.6327 23.4089 36.3693 23.4748 36.1059 23.5275C35.5922 23.6328 35.0917 23.6987 34.5913 23.7645L33.8669 23.8436C33.6298 23.8699 33.4059 23.9094 33.182 23.9489C32.7342 24.028 32.2996 24.1333 31.8781 24.2782C31.4567 24.4231 31.0352 24.5943 30.6401 24.805C30.4425 24.9104 30.245 25.0157 30.0342 25.1475C29.8103 25.2792 29.5864 25.4109 29.3625 25.5162C28.4669 25.9904 27.545 26.3723 26.623 26.7411C25.7011 27.0967 24.766 27.426 23.8177 27.7157C23.3436 27.8606 22.8694 27.9923 22.3689 28.1108C21.8816 28.2294 21.3943 28.3084 20.8938 28.4006C19.906 28.5586 18.9182 28.6772 17.9305 28.7299C17.6802 28.743 17.43 28.7562 17.1797 28.7694L16.429 28.7825L15.6783 28.7694C15.428 28.7562 15.1778 28.743 14.9276 28.7299C13.9398 28.5981 12.952 28.4533 11.9642 28.1767ZM12.2144 27.3206C14.032 27.8079 15.9549 27.9133 17.8646 27.7421C18.8129 27.663 19.7743 27.5182 20.7094 27.3338C21.1836 27.2416 21.6446 27.1362 22.1055 27.0045C22.5533 26.886 23.0143 26.7279 23.4621 26.5699C24.3709 26.2538 25.2665 25.885 26.1357 25.5031C27.0182 25.1211 27.8743 24.6997 28.6908 24.2255C28.8884 24.107 29.0859 23.9884 29.2835 23.8699C29.4811 23.7382 29.7181 23.5933 29.942 23.4616C30.403 23.1982 30.8771 22.9743 31.3776 22.7899C31.8781 22.6055 32.3918 22.4738 32.8922 22.3685C33.1425 22.3158 33.4059 22.2763 33.6561 22.2368L34.3937 22.1314C34.8678 22.0655 35.342 21.9865 35.7766 21.8943C35.9873 21.8416 36.1981 21.789 36.3693 21.7231C36.4483 21.6968 36.5142 21.6572 36.5932 21.6177L36.7381 21.5387L36.8698 21.4597C37.1859 21.249 37.4624 20.9855 37.7127 20.6563C37.7785 20.5773 37.8312 20.4851 37.8971 20.3929L37.9498 20.3138L37.9893 20.248L38.0683 20.1163C38.1737 19.9451 38.2659 19.7607 38.3449 19.5631C38.661 18.7992 38.7927 17.9036 38.819 16.9949C38.8322 16.0861 38.74 15.1641 38.5688 14.2554C38.5424 14.1368 38.5161 14.0315 38.5029 13.9261L38.4898 13.8471C38.4766 13.8207 38.4634 13.7681 38.4634 13.7417L38.4239 13.5573L38.2922 12.8198C38.2 12.3456 38.121 11.8583 38.0288 11.3842C37.8444 10.4359 37.6468 9.50078 37.3834 8.60518C37.12 7.70958 36.7907 6.86667 36.3034 6.14228C36.0664 5.77351 35.7898 5.44424 35.4737 5.12815L34.9864 4.65401L34.4596 4.23255C33.024 3.13939 31.2723 2.5072 29.4416 2.20427C28.5196 2.0594 27.5977 1.98037 26.6362 1.9672C26.3991 1.9672 26.1621 1.9672 25.9118 1.95403C25.6748 1.95403 25.4509 1.95403 25.2138 1.9672C24.9767 1.98037 24.7528 1.98037 24.5157 2.00672L24.1733 2.03306L23.8309 2.07257C22.9089 2.1911 22.0002 2.38866 21.1046 2.65207C20.209 2.91549 19.3265 3.25792 18.4441 3.63987C16.7056 4.37742 15.0856 5.32571 13.5973 6.49789C12.1091 7.6569 10.7525 9.01347 9.39591 10.4096C9.06664 10.752 8.72421 11.0944 8.40811 11.45C8.09202 11.8056 7.77592 12.1612 7.44666 12.5169L6.52472 13.61C6.23496 13.992 5.94521 14.3607 5.65546 14.7427L5.234 15.3222C5.10229 15.5197 4.94425 15.7041 4.82571 15.9017C4.5623 16.2968 4.29889 16.6919 4.06182 17.1002C3.56133 17.9036 3.1267 18.7334 2.74476 19.5895C2.36281 20.4455 2.04671 21.328 1.8755 22.1972L1.82281 22.5265C1.80964 22.5792 1.80964 22.6319 1.79647 22.6845L1.7833 22.8426L1.77013 23.0006C1.77013 23.0533 1.75696 23.106 1.77013 23.1587L1.7833 23.4484C1.80964 23.646 1.84916 23.8436 1.92818 24.028C1.95452 24.1201 1.99403 24.2123 2.04671 24.3045C2.07306 24.344 2.08623 24.3967 2.11257 24.4362L2.15208 24.5021L2.16525 24.5284L2.17842 24.5416C2.08623 24.5679 2.46817 24.5679 1.69111 24.2914L2.17842 24.5416C2.38915 24.8314 2.65256 25.0816 3.00817 25.266C3.3506 25.4635 3.74572 25.6084 4.15401 25.7138C4.5623 25.8323 5.0101 25.9113 5.4579 25.9904C5.6818 26.0299 5.9057 26.0694 6.11643 26.0957C6.22179 26.1089 6.34033 26.1221 6.44569 26.1352L6.61691 26.1484L6.69594 26.1616H6.73545H6.76179C6.76179 26.1616 6.78813 26.1616 6.73545 26.1616H6.78813C7.01203 26.1879 7.23593 26.2011 7.45983 26.2274C7.68373 26.2538 7.93397 26.267 8.17104 26.3065C8.64518 26.3723 9.09298 26.4645 9.55395 26.5435C10.0149 26.6357 10.4627 26.7411 10.9237 26.8596C11.332 27.0572 11.7798 27.1889 12.2144 27.3206Z" fill="#494949"/>
<path d="M36.1187 17.9561C35.3943 18.2195 34.7226 18.5751 34.1167 19.0097C33.8138 19.2336 33.5241 19.4707 33.2607 19.7341C33.1289 19.8658 33.0104 19.9975 32.8655 20.1424C32.7207 20.2873 32.5758 20.419 32.4309 20.5639C31.8514 21.1039 31.2456 21.6175 30.6134 22.0916C29.9812 22.5658 29.3358 23.0268 28.6641 23.4482C27.3339 24.3043 25.9246 25.0287 24.4495 25.6345C24.2651 25.7136 24.0807 25.7794 23.8964 25.8453L23.33 26.0428C23.1456 26.1087 22.9481 26.1614 22.7637 26.2272L22.1974 26.3984C22.013 26.4643 21.8154 26.5038 21.6178 26.5565L21.0383 26.7014C20.8408 26.754 20.6564 26.7936 20.4588 26.8331L19.8793 26.9516C18.3252 27.2413 16.7316 27.4126 15.1116 27.3204C14.914 27.3072 14.7033 27.294 14.5057 27.2677L14.2028 27.2282C14.0974 27.215 14.0052 27.1887 13.8999 27.1755L13.597 27.1228L13.294 27.057L13.0043 26.9911L12.7277 26.9253C11.977 26.7409 11.2262 26.5696 10.4755 26.4248C10.0936 26.3457 9.71163 26.2799 9.34285 26.2009L9.0531 26.1482C8.9609 26.135 8.86871 26.1218 8.77651 26.1087C8.59213 26.0823 8.39457 26.056 8.21018 26.0428C7.43311 25.9638 6.65605 25.8584 5.89215 25.7662C5.51021 25.7136 5.11509 25.6741 4.73314 25.6214C4.33802 25.5687 3.94291 25.4897 3.56096 25.3975C2.78389 25.2131 2.03317 24.9497 1.30879 24.6336C1.20342 24.5941 1.16391 24.4755 1.21659 24.3702C1.2561 24.278 1.36147 24.2253 1.46683 24.2648C2.17805 24.5282 2.92877 24.7258 3.67949 24.8575C4.06144 24.9233 4.43022 24.976 4.81217 25.0023C5.19411 25.0287 5.58923 25.055 5.97118 25.0814L8.30237 25.2526C8.49993 25.2658 8.69749 25.2789 8.89505 25.3053C9.00041 25.3184 9.10578 25.3316 9.19797 25.3448L9.48773 25.3843C9.86967 25.437 10.2648 25.5028 10.6467 25.5687C11.4238 25.7004 12.1877 25.8453 12.9648 26.0165L13.2545 26.0823C13.3467 26.1087 13.4389 26.1219 13.5311 26.135L13.8077 26.1877L14.0843 26.2272L14.3608 26.2667L14.6374 26.2931C14.8218 26.3194 15.0062 26.3194 15.1906 26.3326C16.692 26.3984 18.2067 26.2009 19.7081 25.9111L20.2744 25.7926C20.4588 25.7531 20.6564 25.7136 20.8408 25.6609L21.3939 25.5292C21.5783 25.4765 21.7627 25.437 21.9471 25.3843L22.4871 25.2131C22.6715 25.1604 22.8559 25.1077 23.0271 25.0419L23.5671 24.8443C23.7515 24.7784 23.9227 24.7126 24.0939 24.6467C25.5163 24.0936 26.8729 23.3824 28.19 22.6185C29.507 21.8414 30.7846 20.9721 31.9699 20.0107C32.1148 19.8922 32.2597 19.7736 32.4046 19.6419C32.5363 19.5234 32.6943 19.3785 32.8524 19.2468C33.1685 18.9834 33.4977 18.7595 33.8402 18.5488C34.5382 18.1405 35.2889 17.8375 36.066 17.6795C36.145 17.6663 36.224 17.7058 36.2372 17.7849C36.224 17.8639 36.1845 17.9297 36.1187 17.9561Z" fill="#494949"/>
</svg>
