<svg width="25" height="17" fill="none" xmlns="http://www.w3.org/2000/svg"><path d="M7.756 16.508c-2.3 0-4.028-.535-4.99-.94-1.025-.42-2.423-1.001-2.714-2.293-.298-1.314.696-2.873 2.522-3.982a.498.498 0 01.68.169.498.498 0 01-.168.68c-1.436.871-2.27 2.048-2.07 2.92.175.786 1.26 1.237 2.124 1.597 1.246.52 3.875 1.284 7.436.58 2.583-.504 5.075-1.696 7.207-3.447a.49.49 0 01.696.07.49.49 0 01-.07.695c-2.254 1.85-4.898 3.11-7.642 3.653a15.543 15.543 0 01-3.011.298z" fill="#fff"/><path d="M12.395 13.413c-4.211 0-7.803-1.14-9.278-2.385-.482-.413-.75-.833-.78-1.269-.008-.06-.008-.13-.008-.206 0-.214 0-.474-.13-.802-.13-.321-.29-.49-.52-.719-.144-.153-.313-.32-.48-.542C.64 6.74.395 5.824.402 5.25c.016-1.796 2.5-2.98 3.692-3.546l.03-.015C7.68-.001 11.18-.046 12.517.015c.023 0 .138.008.29.015 2.538.153 5.404.803 7.681 1.735 1.957.803 4.334 2.178 4.502 4.158.099 1.131-.566 2.147-.849 2.575-.794 1.208-1.926 1.82-2.629 2.095l-.55 1.031a.452.452 0 01-.26.23 23.073 23.073 0 01-6.35 1.467c-.681.069-1.323.092-1.957.092zM11.806 1c-1.544 0-4.394.222-7.268 1.59l-.03.015c-.933.443-3.111 1.475-3.119 2.652 0 .336.153 1.047.597 1.635.13.169.26.306.397.444.267.267.535.542.741 1.047.199.504.199.917.207 1.161v.123c.015.153.175.374.435.588 1.322 1.116 5.442 2.5 10.486 2.071a22.12 22.12 0 005.908-1.345l.55-1.031a.526.526 0 01.275-.237c.558-.2 1.605-.696 2.316-1.773.229-.344.756-1.155.688-1.942-.222-2.422-6.237-4.662-11.258-4.967-.138-.008-.245-.016-.275-.016a14.8 14.8 0 00-.65-.015z" fill="#fff"/><path d="M14.152 11.792a24.07 24.07 0 01-2.873-.168c-2.392-.283-5.098-.604-7.849-2.43a14.094 14.094 0 01-2.5-2.125.503.503 0 01.024-.703.503.503 0 01.703.023A12.913 12.913 0 003.973 8.36c2.56 1.696 5.028 1.987 7.42 2.27 2.607.305 5.274.175 7.72-.383A21.853 21.853 0 0021.1 9.69a.496.496 0 01.313.94c-.68.23-1.383.42-2.079.581a23.152 23.152 0 01-5.181.581z" fill="#fff"/></svg>