<svg width="41" height="27" fill="none" xmlns="http://www.w3.org/2000/svg"><path d="M14.227 26.982c-2.473 0-5.486-.348-8.539-1.533-2.756-1.082-4.212-2.305-4.585-3.85-.464-1.946.721-3.71 1.455-4.6a.835.835 0 011.172-.102c.348.296.4.824.103 1.172-.438.515-1.417 1.855-1.12 3.143.232.953 1.43 1.854 3.567 2.692 5.32 2.073 10.55 1.378 12.546.991 4.057-.798 7.844-2.55 11.257-5.19a.838.838 0 011.172.141.838.838 0 01-.142 1.172c-3.606 2.808-7.637 4.663-11.952 5.513-1.005.18-2.757.451-4.934.451z" fill="#494949"/><path d="M15.387 23.955c-1.945 0-3.31-.167-4.16-.322-2.975-.528-7.483-1.34-8.617-4.52-.798-2.23.451-4.406 1.765-6.698 2.537-4.431 6.053-6.827 7.213-7.613C13.7 3.36 18.105.36 24.288.204c1.79-.039 10.909.064 14.799 6.273l.013.025c.682 1.082 2.756 4.393 1.507 7.625-.503 1.314-1.353 2.164-1.958 2.693-5.075 4.456-13.37 6.079-15.791 6.465-3.079.503-5.552.67-7.47.67zm9.338-22.09h-.399c-5.693.142-9.66 2.847-11.798 4.303-1.868 1.275-4.598 3.4-6.698 7.07-1.172 2.036-2.176 3.8-1.636 5.307.812 2.28 4.74 2.976 7.342 3.44l-.141.824.141-.825c1.584.284 5.114.619 11.064-.347 1.649-.27 10.098-1.804 14.954-6.067.502-.438 1.133-1.082 1.494-2.035.94-2.46-.798-5.23-1.365-6.144l-.013-.026c-3.194-5.087-10.639-5.5-12.945-5.5z" fill="#494949"/><path d="M29.941 20.877a.652.652 0 01-.644-.567.658.658 0 01.567-.721 19.427 19.427 0 002.717-.516 19.9 19.9 0 003.581-1.313v-.013l.554-1.288a.648.648 0 01.85-.335.648.648 0 01.335.85l-.644 1.507a.628.628 0 01-.31.322 21.77 21.77 0 01-4.03 1.52c-.941.244-1.92.438-2.886.54-.038.014-.064.014-.09.014zM9.667 23.144a.557.557 0 01-.245-.052c-1.134-.54-1.958-1.275-2.422-2.19-2.06-4.057 3.259-10.561 7.11-13.717 2.164-1.777 4.65-3.156 7.393-4.096a.575.575 0 01.735.36.57.57 0 01-.361.735 22.59 22.59 0 00-7.033 3.89c-2.112 1.726-4.16 4.031-5.487 6.17-1.107 1.79-2.24 4.301-1.326 6.117.348.683.979 1.25 1.88 1.675a.579.579 0 01.27.773.563.563 0 01-.514.335z" fill="#494949"/><path d="M16.172 23.144a.564.564 0 01-.542-.387 13.048 13.048 0 01-.63-2.512c-.555-3.8.76-6.826 2.034-9.763a36.419 36.419 0 014.187-7.2.577.577 0 01.81-.116c.259.194.31.554.117.812a35.372 35.372 0 00-4.057 6.968c-1.211 2.782-2.46 5.655-1.958 9.132.116.773.309 1.546.567 2.293a.599.599 0 01-.348.747.759.759 0 01-.18.026z" fill="#494949"/><path d="M29.582 21.34a.518.518 0 01-.194-.038.578.578 0 01-.347-.747 8.491 8.491 0 00.502-3.465c-.103-1.584-.631-2.808-1.404-4.173-1.996-3.542-4.83-6.801-6.865-8.9a.587.587 0 01.013-.825.587.587 0 01.824.013c2.074 2.151 4.985 5.487 7.046 9.132.734 1.301 1.416 2.77 1.545 4.663a9.62 9.62 0 01-.567 3.928.6.6 0 01-.553.412z" fill="#494949"/><path d="M37.308 17.296a.54.54 0 01-.36-.129.588.588 0 01-.09-.811c.515-.631.798-1.288.875-1.97.194-1.984-1.661-3.659-2.769-4.664C31.14 6.258 25.6 4.815 21.607 4.197a.588.588 0 01-.49-.657c.04-.31.349-.528.658-.49 4.134.632 9.918 2.152 13.949 5.81 1.275 1.146 3.4 3.078 3.156 5.641-.09.902-.464 1.778-1.12 2.589a.573.573 0 01-.452.206z" fill="#494949"/><path d="M21.685 4.21a.568.568 0 01-.49-.284.585.585 0 01.194-.798 13.483 13.483 0 013.632-1.546c2.988-.785 5.642-.373 7.342.116a.583.583 0 11-.322 1.12c-1.559-.437-3.993-.824-6.723-.115-1.16.309-2.28.785-3.324 1.417a.57.57 0 01-.309.09z" fill="#494949"/><path d="M21.684 4.21a.583.583 0 01-.207-.039L18.18 2.91a.58.58 0 01-.335-.747.58.58 0 01.747-.335L21.89 3.09a.58.58 0 01.334.747.57.57 0 01-.54.374z" fill="#494949"/><path d="M5.88 12.183a.622.622 0 01-.385-.142.588.588 0 01-.052-.824A25.066 25.066 0 0120.564 3.05a.572.572 0 01.657.49.572.572 0 01-.49.656 23.993 23.993 0 00-7.547 2.434 23.906 23.906 0 00-6.865 5.359.597.597 0 01-.438.193z" fill="#494949"/><path d="M19.431 3.617c-.193-.58.979-2.01 2.486-1.867 1.21.103 2.202 1.197 2.022 1.751-.296.953-4.199 1.005-4.508.116z" fill="#494949"/></svg>