<svg width="41" height="28" viewBox="0 0 41 28" fill="none" xmlns="http://www.w3.org/2000/svg">
<path d="M11.6859 27.3955C10.4115 27.2894 9.1239 27.1035 7.86282 26.8115C7.70352 26.7716 7.54423 26.7451 7.38494 26.7053L6.92033 26.5725C6.60174 26.4929 6.29643 26.3867 5.99111 26.2805C5.83182 26.2274 5.6858 26.1743 5.52651 26.1079C5.36721 26.0548 5.22119 25.9885 5.0619 25.9354C4.75658 25.8026 4.45127 25.6831 4.15923 25.5238C3.56188 25.2185 2.99107 24.8867 2.46009 24.4486L2.26098 24.276C2.1946 24.2229 2.12823 24.1566 2.06186 24.0902L1.96894 23.9973L1.87602 23.8911C1.80964 23.8247 1.75655 23.7451 1.69017 23.6521L1.59725 23.5194L1.53088 23.3999C1.49106 23.3203 1.45123 23.2406 1.41141 23.161C1.33176 23.0017 1.26539 22.8424 1.19902 22.6831C1.13264 22.5238 1.07955 22.3645 1.02645 22.1919L0.986624 22.0592L0.97335 22.0194V22.0061L0.960075 21.9663L0.946801 21.8999C0.933526 21.807 0.906977 21.7141 0.893703 21.6344C0.840605 21.2893 0.814056 20.9309 0.800781 20.5857C0.800781 19.8822 0.893703 19.1919 1.053 18.5282C1.06627 18.5016 1.06627 18.4751 1.07955 18.4353L1.09282 18.3954C2.1946 15.9529 3.6017 13.6299 5.32739 11.5591C6.19023 10.5237 7.10617 9.55461 8.08849 8.6254C9.0708 7.70946 10.0929 6.84661 11.1814 6.03687C12.2567 5.22713 13.385 4.49703 14.5532 3.82003C15.7213 3.1563 16.9426 2.55895 18.1904 2.05452C20.6993 1.05893 23.3807 0.448304 26.0887 0.28901C27.4029 0.209363 28.7569 0.156265 30.1109 0.249186C31.4649 0.342108 32.8454 0.567775 34.1729 1.01911C35.5003 1.48372 36.7747 2.20054 37.8101 3.22268C38.3278 3.72711 38.7791 4.29791 39.1508 4.90854C39.5225 5.51916 39.8411 6.15634 40.08 6.80679C40.5712 8.12097 40.8367 9.52807 40.7969 10.9617C40.7703 11.6785 40.6907 12.3954 40.4517 13.1255C40.3323 13.4839 40.173 13.829 40.0269 14.1343C39.8677 14.4396 39.7349 14.7184 39.6022 14.9839C39.3632 15.5281 39.1774 16.0857 39.0446 16.6963C39.0048 16.8423 38.9783 17.0016 38.9517 17.1476C38.9252 17.2936 38.8853 17.4529 38.8588 17.6122C38.8057 17.9308 38.7393 18.276 38.6464 18.6344C38.5535 18.9928 38.434 19.3645 38.2482 19.7229C38.0623 20.0813 37.8234 20.4264 37.5313 20.7185C37.2393 21.0105 36.8942 21.2495 36.5225 21.4353C36.1508 21.6079 35.7658 21.7273 35.3941 21.807L35.5003 21.7804C35.2348 21.8734 34.9428 21.953 34.6508 21.9928C34.5048 22.0194 34.3587 22.0326 34.226 22.0459C34.0932 22.0592 33.987 22.0725 33.8676 22.0857C33.4295 22.1521 32.9649 22.2716 32.5136 22.4309C32.0622 22.5902 31.6242 22.776 31.1994 22.9884C31.0932 23.0415 30.987 23.0946 30.8941 23.161C30.7879 23.2274 30.695 23.2937 30.5888 23.3468C30.3897 23.4663 30.1507 23.6256 29.9118 23.7583C28.9693 24.3026 27.9737 24.7008 26.9914 25.046C26.0091 25.3911 25.0135 25.6964 24.0312 26.0017C23.0621 26.307 22.04 26.5991 21.0179 26.8247C19.9957 27.0504 18.9603 27.2097 17.9249 27.3159C15.8408 27.5814 13.7434 27.5947 11.6859 27.3955ZM11.7522 26.5327C12.7611 26.6124 13.77 26.6655 14.7921 26.6522C15.801 26.6389 16.8098 26.5725 17.8187 26.4531C18.8143 26.3336 19.8099 26.161 20.7922 25.9088C21.7745 25.6699 22.717 25.3646 23.686 25.0194C24.6551 24.6876 25.6241 24.3557 26.5533 23.9707C27.4825 23.599 28.3985 23.1875 29.2082 22.6698C29.4206 22.5371 29.5932 22.4176 29.8321 22.2583C29.9383 22.1787 30.0578 22.1123 30.164 22.0326C30.2835 21.953 30.4029 21.8866 30.5224 21.8203C31.0003 21.5415 31.5047 21.3158 32.0224 21.13C32.2746 21.0371 32.5401 20.9441 32.8056 20.8645C33.0711 20.7848 33.3499 20.7185 33.6286 20.6654C33.7747 20.6388 33.9074 20.6256 34.0401 20.599C34.1596 20.5857 34.2658 20.5592 34.372 20.5459C34.5711 20.5061 34.7835 20.4397 34.9959 20.3601C35.0225 20.3468 35.049 20.3468 35.0756 20.3335H35.1021C35.6331 20.2273 36.0844 19.9884 36.4163 19.6432C36.7481 19.2981 36.9473 18.8335 37.0933 18.276C37.1597 17.9972 37.2127 17.6919 37.2658 17.3733C37.2924 17.214 37.3189 17.0414 37.3588 16.8689C37.3853 16.6963 37.4251 16.5237 37.465 16.3644C37.6243 15.6874 37.8499 14.9972 38.142 14.3467C38.288 14.0281 38.4606 13.7228 38.6066 13.444C38.7526 13.1653 38.8721 12.9131 38.965 12.6608C39.1376 12.1431 39.2172 11.5458 39.2438 10.9617C39.2836 9.76701 39.0579 8.55903 38.6331 7.41742C38.1951 6.28909 37.5712 5.22713 36.7349 4.41738C35.8986 3.58109 34.8366 2.98373 33.695 2.5855C32.5401 2.18726 31.3056 1.98815 30.0578 1.9085C28.7967 1.82885 27.5356 1.86868 26.2215 1.94832C23.6993 2.10762 21.2037 2.66515 18.8408 3.62091C17.6594 4.08552 16.5178 4.65632 15.416 5.2935C14.3142 5.93067 13.2523 6.6475 12.2434 7.41742C11.208 8.20062 10.239 9.03691 9.32301 9.9263C8.85841 10.3644 8.42035 10.829 7.96901 11.2803C7.53096 11.7449 7.10617 12.2228 6.68139 12.7007C6.26988 13.1918 5.85837 13.683 5.47341 14.1874C5.08845 14.6918 4.71676 15.2096 4.37162 15.7405C3.6548 16.8025 3.01762 17.9043 2.42027 19.0459L2.46009 18.9264C2.28753 19.4839 2.18133 20.0547 2.15478 20.6256C2.14151 20.9043 2.15478 21.1964 2.18133 21.4751C2.18133 21.5415 2.1946 21.6079 2.20788 21.6742V21.7273C2.20788 21.7406 2.20788 21.7141 2.20788 21.7141V21.7273V21.7539L2.23443 21.8601C2.27425 21.9928 2.31407 22.1388 2.3539 22.2716C2.39372 22.4043 2.44682 22.5371 2.49992 22.6698C2.52647 22.7362 2.55302 22.8026 2.57956 22.8557L2.61939 22.9486L2.65921 23.015C2.67249 23.0548 2.72558 23.1079 2.76541 23.161L2.81851 23.2406L2.88488 23.3203C2.93798 23.3734 2.9778 23.4265 3.0309 23.4663L3.19019 23.6123C3.61498 23.9973 4.11941 24.3291 4.63711 24.6212C5.6858 25.2185 6.86723 25.63 8.06194 25.9486C9.28319 26.2274 10.5177 26.4132 11.7522 26.5327Z" fill="#494949"/>
<path d="M35.5785 16.3113C35.2334 16.6697 34.9546 17.0945 34.7821 17.5326C34.6891 17.7582 34.6228 17.9972 34.5829 18.2228C34.5431 18.4618 34.5166 18.7007 34.5299 18.9397C34.5299 19.099 34.4104 19.2317 34.2511 19.2317H34.2245C33.4944 19.2317 32.7643 19.3246 32.0741 19.537C31.3838 19.7627 30.7201 20.068 30.0962 20.4397C29.7776 20.6255 29.4855 20.8379 29.1935 21.0503C29.0475 21.1565 28.9015 21.276 28.7554 21.3955C28.6094 21.5149 28.4501 21.6477 28.2908 21.7671C27.6537 22.2583 26.9368 22.6565 26.2333 22.9751C25.8749 23.1344 25.5165 23.2937 25.1713 23.4397L24.6403 23.6521C24.4678 23.7185 24.2952 23.7981 24.0961 23.8645C23.366 24.1566 22.6093 24.3689 21.8394 24.5548C21.0828 24.7406 20.3129 24.8734 19.5429 24.9796C18.773 25.0858 18.0031 25.1521 17.2199 25.192C16.45 25.2318 15.6801 25.2451 14.9101 25.2451H13.7552C13.3703 25.2451 12.9853 25.2318 12.6004 25.2185C11.0605 25.1521 9.50741 25.0061 7.98084 24.6477C7.22419 24.4751 6.46755 24.2495 5.73745 23.984C5.00735 23.7052 4.29053 23.4132 3.60025 22.9751C3.26839 22.7495 2.93653 22.4972 2.65776 22.1919C2.379 21.8866 2.15333 21.5149 2.00731 21.13C1.86129 20.745 1.79492 20.3202 1.79492 19.922C1.79492 19.5105 1.86129 19.1122 1.98076 18.7273C2.00731 18.6211 2.12678 18.568 2.23298 18.5945C2.33918 18.6211 2.39227 18.7273 2.36573 18.8335C2.20643 19.5503 2.23298 20.2937 2.52502 20.9308C2.67104 21.2494 2.87016 21.5282 3.1091 21.7804C3.36131 22.0194 3.64008 22.2317 3.95867 22.4176C4.58257 22.776 5.28612 23.0282 6.00294 23.2672C6.70649 23.5061 7.43659 23.6787 8.16668 23.8247C9.62688 24.1035 11.1269 24.2362 12.6402 24.2495C13.0119 24.2495 13.3968 24.2495 13.7685 24.2495L14.9101 24.2362C15.6668 24.2229 16.4234 24.1964 17.1668 24.1566C18.6668 24.0504 20.1536 23.8911 21.6005 23.5326C22.3173 23.3601 23.0341 23.1477 23.7244 22.8822C23.897 22.8158 24.0695 22.7495 24.2554 22.6831L24.7864 22.4707C25.1315 22.3247 25.4899 22.1919 25.8218 22.0326C26.4988 21.7273 27.1359 21.3955 27.7333 20.9839C27.8793 20.8777 28.0253 20.7716 28.1714 20.6521C28.3307 20.5326 28.4899 20.4131 28.6492 20.2937C28.9678 20.068 29.313 19.8556 29.6714 19.6698C30.3749 19.2981 31.105 18.9795 31.8882 18.7937C32.6714 18.6078 33.4812 18.5547 34.2644 18.6211L33.9458 18.9131C33.9856 18.3556 34.1316 17.8113 34.3838 17.3335C34.5166 17.0945 34.6626 16.8556 34.8352 16.6565C35.0077 16.4441 35.2068 16.2582 35.406 16.0989C35.4723 16.0458 35.552 16.0591 35.6051 16.1255C35.6316 16.1786 35.6184 16.2582 35.5785 16.3113Z" fill="#494949"/>
</svg>
