<svg width="41" height="27" viewBox="0 0 41 27" fill="none" xmlns="http://www.w3.org/2000/svg">
<path d="M14.2275 26.982C11.7545 26.982 8.74059 26.6342 5.68799 25.4492C2.93164 24.3673 1.47618 23.1437 1.10266 21.5981C0.638971 19.6532 1.82395 17.8886 2.55811 16.9999C2.85436 16.6521 3.38244 16.6006 3.73021 16.8968C4.07797 17.1931 4.12949 17.7211 3.83325 18.0689C3.39532 18.5841 2.41643 19.9237 2.71268 21.2117C2.94452 22.1648 4.14237 23.0664 6.28048 23.9036C11.6 25.9773 16.8293 25.2818 18.8258 24.8954C22.883 24.0968 26.6698 22.3451 30.083 19.7047C30.4437 19.4213 30.9717 19.4857 31.2551 19.8464C31.5385 20.207 31.4741 20.7351 31.1134 21.0185C27.507 23.8263 23.4755 25.6811 19.1606 26.5312C18.156 26.7115 16.4043 26.982 14.2275 26.982Z" fill="#494949"/>
<path d="M15.3873 23.9551C13.4424 23.9551 12.0771 23.7877 11.227 23.6331C8.25172 23.105 3.74366 22.2936 2.61021 19.1122C1.81164 16.8839 3.06102 14.7071 4.37479 12.4145C6.91218 7.9837 10.4285 5.588 11.5877 4.80231C13.7 3.35973 18.105 0.35865 24.2875 0.204088C26.0779 0.165448 35.197 0.26849 39.0868 6.47673L39.0997 6.50249C39.7824 7.58442 41.8561 10.8946 40.6067 14.1275C40.1044 15.4413 39.2543 16.2914 38.6489 16.8195C33.5741 21.276 25.2793 22.8989 22.8578 23.2853C19.7795 23.7877 17.3065 23.9551 15.3873 23.9551ZM24.7254 1.86563C24.558 1.86563 24.4292 1.86563 24.3262 1.86563C18.6331 2.00731 14.666 4.71214 12.5279 6.1676C10.6603 7.44274 7.92972 9.56796 5.83025 13.2388C4.65816 15.2739 3.6535 17.0385 4.19447 18.5454C5.00592 20.8252 8.93437 21.5207 11.5362 21.9844L11.3945 22.8088L11.5362 21.9844C13.1204 22.2678 16.6496 22.6027 22.6002 21.6367C24.2489 21.3662 32.6983 19.8334 37.5541 15.5701C38.0564 15.1322 38.6875 14.4882 39.0482 13.5351C39.9884 11.0749 38.2496 8.30571 37.6829 7.39122L37.67 7.36546C34.4757 2.27779 27.031 1.86563 24.7254 1.86563Z" fill="#494949"/>
<path d="M29.941 20.8766C29.619 20.8766 29.3356 20.6318 29.297 20.3098C29.2583 19.9621 29.5031 19.6401 29.8637 19.5885C30.7782 19.4855 31.6927 19.3052 32.5814 19.0733C33.805 18.7513 35.0158 18.3134 36.1621 17.7596V17.7467L36.7159 16.4587C36.8576 16.1367 37.2312 15.9821 37.566 16.1238C37.888 16.2655 38.0426 16.639 37.9009 16.9739L37.2569 18.4808C37.1925 18.6225 37.0895 18.7385 36.9478 18.8029C35.6598 19.4469 34.2945 19.9492 32.9163 20.3227C31.976 20.5674 30.9972 20.7606 30.0311 20.8637C29.9925 20.8766 29.9667 20.8766 29.941 20.8766Z" fill="#494949"/>
<path d="M9.66653 23.1436C9.58925 23.1436 9.49909 23.1307 9.42181 23.092C8.28836 22.5511 7.46403 21.8169 7.00034 20.9024C4.93951 16.8452 10.259 10.3407 14.1102 7.18505C16.2741 5.40759 18.7599 4.02942 21.5034 3.08916C21.7996 2.98612 22.1345 3.14068 22.2376 3.44981C22.3406 3.75893 22.186 4.08094 21.8769 4.18398C19.2751 5.07271 16.9052 6.38648 14.8444 8.07378C12.732 9.79973 10.6841 12.1053 9.35741 14.2434C8.24971 16.0337 7.11626 18.5454 8.03075 20.3615C8.37852 21.0441 9.00964 21.6108 9.91126 22.0359C10.1946 22.1776 10.3234 22.5124 10.1817 22.8087C10.0916 23.0148 9.8855 23.1436 9.66653 23.1436Z" fill="#494949"/>
<path d="M16.1715 23.1436C15.9396 23.1436 15.7078 23.0019 15.6305 22.7572C15.3343 21.9457 15.1282 21.0956 14.9994 20.2455C14.4455 16.4459 15.7593 13.4191 17.0344 10.4824C18.1293 7.95787 19.5461 5.5364 21.2205 3.28237C21.4137 3.02477 21.7743 2.97325 22.0319 3.16645C22.2895 3.35965 22.3411 3.7203 22.1479 3.9779C20.525 6.15465 19.1597 8.49884 18.0906 10.9461C16.8799 13.7282 15.6305 16.6005 16.1328 20.0781C16.2487 20.8509 16.442 21.6237 16.6996 22.3708C16.8026 22.667 16.648 23.0019 16.3518 23.1178C16.3003 23.1307 16.2359 23.1436 16.1715 23.1436Z" fill="#494949"/>
<path d="M29.5817 21.3403C29.5173 21.3403 29.4529 21.3274 29.3885 21.3017C29.0922 21.1986 28.9248 20.8638 29.0407 20.5546C29.4529 19.4083 29.6203 18.2491 29.543 17.0899C29.44 15.5056 28.9119 14.282 28.1391 12.9167C26.1427 9.37466 23.309 6.11598 21.274 4.01652C21.055 3.78467 21.055 3.42403 21.2869 3.19219C21.5187 2.97322 21.8793 2.97322 22.1112 3.20507C24.1849 5.35605 27.0958 8.69202 29.1566 12.3371C29.8908 13.638 30.5734 15.1063 30.7023 16.9997C30.7924 18.3135 30.5992 19.6401 30.1355 20.9282C30.0454 21.1858 29.8135 21.3403 29.5817 21.3403Z" fill="#494949"/>
<path d="M37.3083 17.296C37.1795 17.296 37.0507 17.2574 36.9476 17.1672C36.7029 16.9611 36.6643 16.6005 36.8575 16.3558C37.3727 15.7246 37.656 15.0678 37.7333 14.3851C37.9265 12.4016 36.0718 10.7271 34.9641 9.72249C31.1387 6.25772 25.6002 4.81515 21.6074 4.1969C21.2854 4.14538 21.0793 3.84913 21.1179 3.54001C21.1566 3.23089 21.4657 3.01192 21.7748 3.05056C25.9093 3.68169 31.6925 5.20155 35.724 8.85952C36.9992 10.0059 39.1244 11.9379 38.8797 14.501C38.7895 15.4026 38.416 16.2785 37.7591 17.0899C37.6432 17.2316 37.4757 17.296 37.3083 17.296Z" fill="#494949"/>
<path d="M21.6853 4.20975C21.4921 4.20975 21.2989 4.10671 21.1958 3.92639C21.0284 3.6559 21.1185 3.29526 21.389 3.12782C22.5225 2.43229 23.7461 1.91708 25.0212 1.5822C28.0094 0.796508 30.6627 1.20867 32.3629 1.69812C32.672 1.78828 32.8524 2.11028 32.7622 2.41941C32.672 2.72853 32.35 2.90885 32.0409 2.81869C30.4824 2.38077 28.0481 1.99436 25.3175 2.70277C24.1583 3.01189 23.0377 3.48846 21.9944 4.11959C21.8914 4.18399 21.7883 4.20975 21.6853 4.20975Z" fill="#494949"/>
<path d="M21.6836 4.2098C21.6192 4.2098 21.5419 4.19692 21.4775 4.17116L18.1802 2.9089C17.8839 2.79298 17.7294 2.45809 17.8453 2.16185C17.9612 1.86561 18.2961 1.71104 18.5923 1.82697L21.8896 3.08922C22.1859 3.20514 22.3405 3.54003 22.2245 3.83627C22.1472 4.06811 21.9154 4.2098 21.6836 4.2098Z" fill="#494949"/>
<path d="M5.88091 12.1828C5.73923 12.1828 5.61042 12.1312 5.4945 12.0411C5.24978 11.8221 5.2369 11.4615 5.44298 11.2167C7.49093 8.9112 9.92528 7.01781 12.6559 5.601C15.1289 4.31298 17.7951 3.46289 20.5643 3.05072C20.8863 2.9992 21.1697 3.21817 21.2212 3.54017C21.2727 3.86217 21.0537 4.14554 20.7317 4.19706C18.0913 4.58346 15.5539 5.40779 13.184 6.63141C10.5822 7.98383 8.27662 9.78705 6.31883 11.9896C6.20291 12.1184 6.03547 12.1828 5.88091 12.1828Z" fill="#494949"/>
<path d="M19.431 3.61718C19.2378 3.03758 20.4099 1.60788 21.9169 1.74956C23.1276 1.8526 24.1194 2.94742 23.9391 3.50126C23.6429 4.45439 19.7402 4.50592 19.431 3.61718Z" fill="#494949"/>
</svg>
