<svg width="15" height="19" viewBox="0 0 15 19" fill="none" xmlns="http://www.w3.org/2000/svg">
<path fill-rule="evenodd" clip-rule="evenodd" d="M6.58884 7.83016C7.0653 8.00138 7.56068 8.14424 8.0592 8.28801C9.13063 8.597 10.2166 8.91018 11.1606 9.5182C12.2391 10.1981 13.13 11.3 13.13 13.0349C13.13 14.6058 12.4735 15.8249 11.3951 16.6689C10.3635 17.4895 8.88645 17.9115 7.19841 17.9115C4.66635 17.9115 2.83764 17.1378 1.66539 16.411C1.50127 16.3173 1.45438 16.1766 1.54816 16.0125L2.36874 14.2775C2.43907 14.1369 2.5563 14.0665 2.74386 14.1838C3.77544 14.8168 5.18214 15.6608 7.17497 15.6608C8.15966 15.6608 8.9099 15.4263 9.40224 15.0512C10.0118 14.6058 10.2697 13.9493 10.2697 13.246C10.2697 12.1675 9.40224 11.5579 8.25344 11.1125C7.76224 10.9143 7.23937 10.7541 6.69996 10.5888C5.77183 10.3045 4.79474 10.0051 3.84577 9.47131C2.5563 8.74451 1.64194 7.73637 1.64194 5.93111C1.64194 4.61819 2.15773 3.49283 3.16587 2.71914C4.15056 1.94546 5.60415 1.5 7.52664 1.5C9.70703 1.5 11.3482 2.08613 12.4032 2.67225C12.5673 2.76603 12.5908 2.9067 12.5204 3.07082L11.6999 4.7823C11.6061 4.94642 11.4654 4.99331 11.3013 4.89953C10.1759 4.24307 8.79267 3.77417 7.38597 3.77417C6.33095 3.77417 5.55726 4.00862 5.08836 4.40718C4.6429 4.75886 4.40845 5.22776 4.40845 5.81388C4.40845 6.84546 5.27592 7.3847 6.58884 7.83016ZM2.55253 1.92931C3.76843 0.976052 5.46496 0.5 7.52664 0.5C9.89043 0.5 11.6975 1.13623 12.8888 1.79809L12.8941 1.80102L12.8993 1.80401C13.1589 1.9523 13.4171 2.20844 13.5174 2.59274C13.6105 2.94988 13.5258 3.26344 13.4396 3.46474L13.4313 3.48413L12.586 5.24714L12.5681 5.27844C12.4394 5.50371 12.204 5.77686 11.8181 5.8943C11.4198 6.01553 11.0572 5.91179 10.8051 5.76777L10.8013 5.76556L10.7974 5.76331C9.78956 5.17539 8.57866 4.77417 7.38597 4.77417C6.44755 4.77417 5.94959 4.98757 5.73601 5.16912L5.72221 5.18085L5.708 5.19206C5.50003 5.35626 5.40845 5.53727 5.40845 5.81388C5.40845 5.99221 5.46037 6.11754 5.6488 6.27553C5.88258 6.47154 6.28189 6.67002 6.91014 6.88318L6.91861 6.88605L6.92704 6.88908C7.37918 7.05157 7.81599 7.17719 8.2877 7.31285C8.57965 7.39681 8.88495 7.48461 9.21554 7.58737C10.0249 7.83899 10.8933 8.15741 11.698 8.67482C12.9975 9.49547 14.13 10.8857 14.13 13.0349C14.13 14.9184 13.3281 16.4246 12.0145 17.454C10.7544 18.4549 9.03445 18.9115 7.19841 18.9115C4.45867 18.9115 2.45356 18.074 1.14983 17.268C0.928503 17.137 0.667478 16.9041 0.55339 16.5293C0.439052 16.1536 0.524826 15.8097 0.655772 15.5604L1.46942 13.8401L1.47431 13.8303C1.56681 13.6453 1.77747 13.3248 2.19611 13.1853C2.63893 13.0376 3.02916 13.184 3.2694 13.333C4.28703 13.9574 5.48482 14.6608 7.17497 14.6608C8.01514 14.6608 8.52918 14.4592 8.7962 14.2558L8.80415 14.2497L8.81223 14.2438C9.11655 14.0214 9.26971 13.6941 9.26971 13.246C9.26971 13.0172 9.19337 12.8473 9.00316 12.6664C8.78226 12.4563 8.4202 12.2497 7.89191 12.0448L7.88556 12.0424L7.87924 12.0398C7.43102 11.8589 6.96821 11.7171 6.44462 11.5567C6.24249 11.4948 6.03131 11.4301 5.80841 11.3593C5.04039 11.1153 4.19549 10.8154 3.35551 10.3429L3.35476 10.3425C2.63084 9.93443 1.941 9.40841 1.43552 8.67108C0.920609 7.92001 0.641942 7.01521 0.641942 5.93111C0.641942 4.33727 1.27935 2.90861 2.55253 1.92931Z" fill="white"/>
</svg>
