<svg width="13" height="18" fill="none" xmlns="http://www.w3.org/2000/svg"><path fill-rule="evenodd" clip-rule="evenodd" d="M.719.437c.2-.211.52-.403.92-.403H3.7c.4 0 .72.192.92.403.206.218.362.533.362.902v12.34h6.479c.77 0 1.281.643 1.281 1.281v1.759A1.27 1.27 0 0111.462 18H1.638C1 18 .357 17.488.357 16.719V1.339C.357.97.513.655.719.437zm.638.902c0-.164.14-.305.281-.305h2.063c.141 0 .282.14.282.305v13.34h7.479c.164 0 .281.14.281.281v1.759a.27.27 0 01-.281.281H1.638a.285.285 0 01-.281-.281V1.339z" fill="#fff"/></svg>