<svg width="13" height="18" viewBox="0 0 13 18" fill="none" xmlns="http://www.w3.org/2000/svg">
<path fill-rule="evenodd" clip-rule="evenodd" d="M0.718899 0.437042C0.919265 0.225543 1.23866 0.0339355 1.63827 0.0339355H3.70144C4.10105 0.0339355 4.42044 0.225543 4.62081 0.437041C4.82717 0.654871 4.98278 0.970041 4.98278 1.33872V13.6789H11.4617C12.2312 13.6789 12.7431 14.3219 12.7431 14.9603V16.7187C12.7431 17.4351 12.1781 18 11.4617 18H1.63827C0.999941 18 0.356934 17.4881 0.356934 16.7187V1.33872C0.356934 0.970041 0.512535 0.654871 0.718899 0.437042ZM1.35693 1.33872C1.35693 1.17461 1.4976 1.03394 1.63827 1.03394H3.70144C3.84211 1.03394 3.98278 1.17461 3.98278 1.33872V14.6789H11.4617C11.6259 14.6789 11.7431 14.8196 11.7431 14.9603V16.7187C11.7431 16.8828 11.6259 17 11.4617 17H1.63827C1.4976 17 1.35693 16.8828 1.35693 16.7187V1.33872Z" fill="white"/>
</svg>
