<svg width="19" height="19" viewBox="0 0 19 19" fill="none" xmlns="http://www.w3.org/2000/svg">
<path fill-rule="evenodd" clip-rule="evenodd" d="M17.4661 0.500017C18.2842 0.500017 18.7474 1.1959 18.7474 1.8048V17.1847C18.7474 17.9011 18.1825 18.4661 17.4661 18.4661H15.4967C14.8583 18.4661 14.2153 17.9542 14.2153 17.1847V9.7089L11.7439 13.8635C11.6435 14.0413 11.4803 14.2735 11.202 14.4405C10.9123 14.6143 10.6198 14.6445 10.4091 14.6445H8.93207C8.727 14.6445 8.41761 14.6202 8.11487 14.431C7.83437 14.2557 7.6812 14.0125 7.59931 13.8672L5.03206 9.64283V17.1847C5.03206 17.9011 4.46712 18.4661 3.75072 18.4661H1.78134C1.14301 18.4661 0.5 17.9542 0.5 17.1847V1.8048C0.5 1.43612 0.655601 1.12095 0.861965 0.903123C1.06233 0.691624 1.38172 0.500017 1.78134 0.500017H3.86795C3.87112 0.500017 3.87445 0.500013 3.87792 0.500009C3.99919 0.499871 4.30232 0.499526 4.60822 0.652481C4.94047 0.818604 5.13606 1.08535 5.25941 1.32094L9.61198 8.65979L13.9785 1.2974C14.1133 1.06718 14.3166 0.806667 14.6487 0.646356C14.9523 0.499798 15.2475 0.49995 15.3721 0.500014L17.4661 0.500017ZM14.8402 1.8048L9.61198 10.6201L4.38374 1.8048C4.24307 1.52346 4.1024 1.50002 3.86795 1.50002H1.78134C1.64067 1.50002 1.5 1.64069 1.5 1.8048V17.1847C1.5 17.3488 1.64067 17.4661 1.78134 17.4661H3.75072C3.91484 17.4661 4.03206 17.3488 4.03206 17.1847V6.0718L8.46317 13.3632C8.5804 13.5742 8.67418 13.6445 8.93207 13.6445H10.4091C10.6436 13.6445 10.7608 13.5742 10.878 13.3632L15.2153 6.0718V17.1847C15.2153 17.3488 15.356 17.4661 15.4967 17.4661H17.4661C17.6302 17.4661 17.7474 17.3488 17.7474 17.1847V1.8048C17.7474 1.64069 17.6302 1.50002 17.4661 1.50002H15.3795C15.145 1.50002 15.0043 1.52346 14.8402 1.8048Z" fill="white"/>
</svg>
