<svg width="23" height="30" viewBox="0 0 23 30" fill="none" xmlns="http://www.w3.org/2000/svg">
<path fill-rule="evenodd" clip-rule="evenodd" d="M10.3649 12.1499C11.128 12.4241 11.9214 12.6529 12.7198 12.8831C14.4358 13.378 16.175 13.8796 17.6869 14.8534C19.4142 15.9423 20.841 17.7071 20.841 20.4857C20.841 23.0014 19.7897 24.954 18.0624 26.3057C16.4103 27.6199 14.0447 28.2958 11.3412 28.2958C7.28595 28.2958 4.35715 27.0567 2.47972 25.8927C2.21688 25.7425 2.14178 25.5172 2.29198 25.2543L3.60618 22.4757C3.71883 22.2504 3.90657 22.1378 4.20696 22.3255C5.8591 23.3394 8.11202 24.6911 11.3037 24.6911C12.8807 24.6911 14.0823 24.3156 14.8708 23.7148C15.847 23.0014 16.2601 21.9501 16.2601 20.8236C16.2601 19.0964 14.8708 18.1201 13.0309 17.4067C12.2442 17.0892 11.4068 16.8327 10.5429 16.568C9.05645 16.1126 7.49157 15.6332 5.97175 14.7783C3.90657 13.6143 2.44217 11.9997 2.44217 9.10842C2.44217 7.00569 3.26824 5.20336 4.88284 3.96425C6.45988 2.72515 8.7879 2.01172 11.8669 2.01172C15.3589 2.01172 17.9873 2.95044 19.677 3.88915C19.9398 4.03935 19.9774 4.26464 19.8647 4.52748L18.5505 7.26853C18.4004 7.53137 18.1751 7.60647 17.9122 7.45628C16.1099 6.40491 13.8945 5.65394 11.6416 5.65394C9.9519 5.65394 8.7128 6.02943 7.96182 6.66775C7.2484 7.23098 6.87291 7.98196 6.87291 8.92067C6.87291 10.5728 8.26221 11.4364 10.3649 12.1499ZM3.90053 2.69928C5.84788 1.17258 8.56498 0.410156 11.8669 0.410156C15.6526 0.410156 18.5468 1.42912 20.4548 2.48913L20.4632 2.49382L20.4716 2.49861C20.8872 2.73611 21.3008 3.14633 21.4614 3.76181C21.6106 4.33379 21.475 4.83598 21.3368 5.15837L21.3235 5.18942L19.9697 8.013L19.9411 8.06313C19.7349 8.42391 19.358 8.86137 18.7399 9.04946C18.102 9.24363 17.5213 9.07748 17.1176 8.84682L17.1114 8.84327L17.1052 8.83967C15.4911 7.89808 13.5518 7.2555 11.6416 7.2555C10.1387 7.2555 9.34115 7.59729 8.99907 7.88805L8.97698 7.90682L8.95423 7.92479C8.62113 8.18776 8.47448 8.47766 8.47448 8.92067C8.47448 9.20627 8.55762 9.40699 8.85941 9.66003C9.23382 9.97396 9.87334 10.2918 10.8795 10.6332L10.8931 10.6378L10.9066 10.6427C11.6307 10.9029 12.3303 11.1041 13.0858 11.3214C13.5533 11.4558 14.0423 11.5964 14.5718 11.761C15.8681 12.164 17.2588 12.674 18.5475 13.5026C20.6287 14.817 22.4426 17.0435 22.4426 20.4857C22.4426 23.5021 21.1582 25.9144 19.0544 27.5631C17.0363 29.166 14.2817 29.8973 11.3412 29.8973C6.95334 29.8973 3.74203 28.5559 1.65403 27.2651C1.29956 27.0553 0.881508 26.6824 0.698788 26.0821C0.515669 25.4804 0.653042 24.9296 0.86276 24.5303L2.16587 21.7752L2.1737 21.7595C2.32185 21.4632 2.65923 20.9499 3.32971 20.7264C4.03891 20.49 4.66388 20.7244 5.04865 20.963C6.67844 21.963 8.59678 23.0895 11.3037 23.0895C12.6492 23.0895 13.4725 22.7667 13.9002 22.4409L13.9129 22.4312L13.9258 22.4218C14.4132 22.0656 14.6585 21.5413 14.6585 20.8236C14.6585 20.4573 14.5362 20.1851 14.2316 19.8954C13.8778 19.5589 13.298 19.228 12.4519 18.8999L12.4417 18.896L12.4316 18.8919C11.7137 18.6022 10.9725 18.3751 10.134 18.1182C9.81024 18.019 9.47202 17.9153 9.11503 17.8019C7.88499 17.4112 6.53184 16.9309 5.18656 16.1741L5.18536 16.1735C4.02595 15.52 2.92114 14.6775 2.11157 13.4967C1.28691 12.2938 0.84061 10.8447 0.84061 9.10842C0.84061 6.55579 1.86146 4.2677 3.90053 2.69928Z" fill="#494949"/>
</svg>
