<svg width="19" height="19" fill="none" xmlns="http://www.w3.org/2000/svg"><path fill-rule="evenodd" clip-rule="evenodd" d="M17.466.5c.818 0 1.281.696 1.281 1.305v15.38a1.27 1.27 0 01-1.28 1.281h-1.97c-.639 0-1.282-.512-1.282-1.281V9.709l-2.471 4.155c-.1.177-.264.41-.542.576-.29.174-.582.205-.793.205H8.932c-.205 0-.514-.025-.817-.214a1.529 1.529 0 01-.516-.564L5.032 9.643v7.542a1.27 1.27 0 01-1.281 1.281H1.78c-.638 0-1.281-.512-1.281-1.281V1.805c0-.369.156-.684.362-.902.2-.211.52-.403.92-.403h2.096c.121 0 .424 0 .73.152.332.167.528.433.651.669L9.612 8.66l4.367-7.363c.134-.23.338-.49.67-.65.303-.147.599-.147.723-.147h2.094zM14.84 1.805L9.612 10.62 4.384 1.805c-.14-.282-.282-.305-.516-.305H1.78c-.14 0-.281.14-.281.305v15.38c0 .164.14.281.281.281h1.97a.27.27 0 00.281-.281V6.072l4.431 7.291c.117.211.211.282.47.282h1.476c.235 0 .352-.07.469-.282l4.337-7.291v11.113c0 .164.141.281.282.281h1.97a.27.27 0 00.28-.281V1.805c0-.164-.117-.305-.28-.305H15.38c-.235 0-.376.023-.54.305z" fill="#fff"/></svg>