<svg width="31" height="30" viewBox="0 0 31 30" fill="none" xmlns="http://www.w3.org/2000/svg">
<path fill-rule="evenodd" clip-rule="evenodd" d="M28.055 0.410183C29.3652 0.410183 30.1072 1.52469 30.1072 2.49988V27.1318C30.1072 28.2792 29.2024 29.1839 28.055 29.1839H24.9009C23.8786 29.1839 22.8488 28.3642 22.8488 27.1318V15.1588L18.8907 21.8127C18.7298 22.0973 18.4685 22.4693 18.0228 22.7367C17.5587 23.0152 17.0904 23.0635 16.7529 23.0635H14.3873C14.0589 23.0635 13.5634 23.0245 13.0785 22.7215C12.6293 22.4407 12.384 22.0513 12.2528 21.8186L8.14119 15.053V27.1318C8.14119 28.2792 7.23641 29.1839 6.08905 29.1839H2.93496C1.91263 29.1839 0.882812 28.3642 0.882812 27.1318V2.49988C0.882812 1.90941 1.13202 1.40465 1.46252 1.05578C1.78342 0.717055 2.29494 0.410183 2.93496 0.410183H6.27679C6.28187 0.410183 6.2872 0.410177 6.29277 0.41017C6.48699 0.409949 6.97246 0.409397 7.46239 0.654364C7.9945 0.92042 8.30775 1.34763 8.50531 1.72494L15.4762 13.4786L22.4695 1.68724C22.6854 1.31852 23.011 0.901302 23.5429 0.644554C24.0291 0.409833 24.5018 0.410076 24.7014 0.410179L28.055 0.410183ZM23.8496 2.49988L15.4762 16.6182L7.10286 2.49988C6.87757 2.0493 6.65228 2.01175 6.27679 2.01175H2.93496C2.70967 2.01175 2.48437 2.23704 2.48437 2.49988V27.1318C2.48437 27.3946 2.70967 27.5824 2.93496 27.5824H6.08905C6.35189 27.5824 6.53963 27.3946 6.53963 27.1318V9.33373L13.6363 21.0114C13.8241 21.3493 13.9743 21.462 14.3873 21.462H16.7529C17.1284 21.462 17.3161 21.3493 17.5038 21.0114L24.4503 9.33373V27.1318C24.4503 27.3946 24.6756 27.5824 24.9009 27.5824H28.055C28.3179 27.5824 28.5056 27.3946 28.5056 27.1318V2.49988C28.5056 2.23704 28.3179 2.01175 28.055 2.01175H24.7132C24.3377 2.01175 24.1124 2.0493 23.8496 2.49988Z" fill="#494949"/>
</svg>
