<svg width="23" height="30" fill="none" xmlns="http://www.w3.org/2000/svg"><path fill-rule="evenodd" clip-rule="evenodd" d="M10.365 12.15c.763.274 1.556.503 2.355.733 1.716.495 3.455.997 4.967 1.97 1.727 1.09 3.154 2.854 3.154 5.633 0 2.515-1.051 4.468-2.779 5.82-1.652 1.314-4.017 1.99-6.72 1.99-4.056 0-6.985-1.24-8.862-2.403-.263-.15-.338-.376-.188-.639l1.314-2.778c.113-.226.3-.338.601-.15 1.652 1.013 3.905 2.365 7.097 2.365 1.577 0 2.778-.375 3.567-.976.976-.714 1.39-1.765 1.39-2.891 0-1.728-1.39-2.704-3.23-3.417-.787-.318-1.624-.574-2.488-.839-1.487-.455-3.051-.935-4.571-1.79-2.065-1.164-3.53-2.778-3.53-5.67 0-2.102.826-3.905 2.44-5.144 1.578-1.239 3.906-1.952 6.985-1.952 3.492 0 6.12.938 7.81 1.877.263.15.3.376.188.638L18.55 7.27c-.15.262-.376.337-.639.187-1.802-1.051-4.017-1.802-6.27-1.802-1.69 0-2.93.375-3.68 1.014-.714.563-1.09 1.314-1.09 2.253 0 1.652 1.39 2.515 3.493 3.229zM3.9 2.7C5.848 1.172 8.565.41 11.867.41c3.786 0 6.68 1.02 8.588 2.08l.008.004.009.005c.415.237.829.647.99 1.263a2.154 2.154 0 01-.125 1.396l-.014.031-1.353 2.824-.029.05c-.206.36-.583.798-1.201.986-.638.195-1.219.028-1.622-.202l-.007-.004-.006-.003c-1.614-.942-3.553-1.585-5.463-1.585-1.503 0-2.3.342-2.643.633l-.022.019-.023.018c-.333.263-.48.553-.48.996 0 .285.084.486.385.739.375.314 1.014.632 2.02.973l.014.005.014.005c.724.26 1.423.461 2.179.678.467.135.956.275 1.486.44 1.296.403 2.687.913 3.976 1.742 2.08 1.314 3.895 3.54 3.895 6.983 0 3.016-1.285 5.428-3.389 7.077-2.018 1.603-4.772 2.334-7.713 2.334-4.388 0-7.599-1.341-9.687-2.632a2.087 2.087 0 01-.955-1.183 2.037 2.037 0 01.164-1.552l1.303-2.755.008-.015c.148-.297.485-.81 1.156-1.034.709-.236 1.334-.002 1.719.237 1.63 1 3.548 2.127 6.255 2.127 1.345 0 2.168-.323 2.596-.65l.013-.009.013-.01c.487-.355.732-.88.732-1.597 0-.367-.122-.639-.426-.929-.354-.336-.934-.667-1.78-.995l-.01-.004-.01-.004c-.718-.29-1.46-.517-2.298-.774a105.4 105.4 0 01-1.019-.316c-1.23-.39-2.583-.871-3.928-1.628h-.002c-1.159-.654-2.264-1.496-3.073-2.677C1.287 12.294.84 10.845.84 9.108c0-2.552 1.02-4.84 3.06-6.409z" fill="#494949"/></svg>