<svg width="21" height="30" fill="none" xmlns="http://www.w3.org/2000/svg"><path fill-rule="evenodd" clip-rule="evenodd" d="M1.51 1.31A2.03 2.03 0 012.982.664h3.304c.64 0 1.152.307 1.473.645.33.35.58.854.58 1.445v19.763h10.376c1.232 0 2.052 1.03 2.052 2.052v2.816a2.035 2.035 0 01-2.052 2.053H2.982c-1.023 0-2.052-.82-2.052-2.053V2.754c0-.59.249-1.096.58-1.445zm1.02 1.443c0-.263.226-.489.45-.489h3.305c.225 0 .45.226.45.489v21.365h11.979c.263 0 .45.225.45.45v2.816a.434.434 0 01-.45.451H2.982a.457.457 0 01-.45-.45V2.753z" fill="#494949"/></svg>