<svg width="21" height="30" viewBox="0 0 21 30" fill="none" xmlns="http://www.w3.org/2000/svg">
<path fill-rule="evenodd" clip-rule="evenodd" d="M1.5094 1.30942C1.8303 0.97069 2.34182 0.663818 2.98183 0.663818H6.28612C6.92613 0.663818 7.43765 0.97069 7.75855 1.30942C8.08906 1.65828 8.33826 2.16305 8.33826 2.75351V22.5171H18.7147C19.9471 22.5171 20.7669 23.547 20.7669 24.5693V27.3854C20.7669 28.5328 19.8621 29.4376 18.7147 29.4376H2.98183C1.9595 29.4376 0.929688 28.6178 0.929688 27.3854V2.75351C0.929688 2.16305 1.17889 1.65829 1.5094 1.30942ZM2.53125 2.75351C2.53125 2.49067 2.75654 2.26538 2.98183 2.26538H6.28612C6.51141 2.26538 6.7367 2.49067 6.7367 2.75351V24.1187H18.7147C18.9776 24.1187 19.1653 24.344 19.1653 24.5693V27.3854C19.1653 27.6483 18.9776 27.836 18.7147 27.836H2.98183C2.75654 27.836 2.53125 27.6483 2.53125 27.3854V2.75351Z" fill="#494949"/>
</svg>
