<svg width="15" height="19" fill="none" xmlns="http://www.w3.org/2000/svg"><path fill-rule="evenodd" clip-rule="evenodd" d="M6.589 7.83c.476.171.972.314 1.47.458 1.072.309 2.158.622 3.102 1.23 1.078.68 1.969 1.782 1.969 3.517 0 1.57-.657 2.79-1.735 3.634-1.031.82-2.509 1.242-4.197 1.242-2.532 0-4.36-.773-5.533-1.5-.164-.094-.21-.234-.117-.399l.82-1.735c.071-.14.188-.21.376-.093 1.031.633 2.438 1.477 4.431 1.477.985 0 1.735-.235 2.227-.61.61-.445.868-1.102.868-1.805 0-1.079-.868-1.688-2.017-2.133-.49-.199-1.014-.359-1.553-.524-.928-.284-1.905-.584-2.854-1.118-1.29-.726-2.204-1.735-2.204-3.54 0-1.313.516-2.438 1.524-3.212C4.15 1.945 5.604 1.5 7.526 1.5c2.181 0 3.822.586 4.877 1.172.164.094.188.235.117.399l-.82 1.711c-.094.164-.235.211-.399.118-1.125-.657-2.508-1.126-3.915-1.126-1.055 0-1.829.235-2.298.633-.445.352-.68.82-.68 1.407 0 1.031.868 1.57 2.18 2.016zm-4.036-5.9C3.768.975 5.465.5 7.527.5c2.363 0 4.17.636 5.362 1.298l.005.003.005.003c.26.148.518.404.618.789.094.357.009.67-.077.872l-.009.02-.845 1.762-.018.031a1.307 1.307 0 01-.75.616 1.28 1.28 0 01-1.013-.126l-.004-.002-.004-.003c-1.007-.588-2.218-.989-3.411-.989-.938 0-1.436.214-1.65.395l-.014.012-.014.011a.717.717 0 00-.3.622c0 .178.052.304.24.462.235.196.634.394 1.262.607l.009.003.008.003c.452.163.889.288 1.36.424.293.084.598.172.929.274.809.252 1.677.57 2.482 1.088 1.3.82 2.432 2.21 2.432 4.36 0 1.883-.802 3.39-2.116 4.419-1.26 1-2.98 1.457-4.816 1.457-2.74 0-4.744-.837-6.048-1.643a1.303 1.303 0 01-.597-.739 1.272 1.272 0 01.103-.969l.813-1.72.005-.01c.093-.185.303-.505.722-.645.443-.147.833-.001 1.073.148 1.018.624 2.216 1.328 3.906 1.328.84 0 1.354-.202 1.621-.405l.008-.006.008-.006c.305-.223.458-.55.458-.998 0-.229-.077-.399-.267-.58-.22-.21-.583-.416-1.111-.621l-.006-.003-.007-.002c-.448-.181-.91-.323-1.434-.483a63.027 63.027 0 01-.637-.198c-.768-.244-1.613-.544-2.452-1.016h-.001c-.724-.409-1.414-.935-1.92-1.672C.922 7.92.643 7.015.643 5.931c0-1.594.637-3.022 1.91-4.002z" fill="#fff"/></svg>