<svg width="31" height="30" fill="none" xmlns="http://www.w3.org/2000/svg"><path fill-rule="evenodd" clip-rule="evenodd" d="M28.055.41c1.31 0 2.052 1.115 2.052 2.09v24.632a2.034 2.034 0 01-2.052 2.052h-3.154c-1.022 0-2.052-.82-2.052-2.052V15.159l-3.958 6.654a2.463 2.463 0 01-.868.924 2.423 2.423 0 01-1.27.327h-2.366c-.328 0-.824-.04-1.309-.343-.449-.28-.694-.67-.825-.902L8.14 15.053v12.079a2.034 2.034 0 01-2.052 2.052H2.935c-1.022 0-2.052-.82-2.052-2.052V2.5c0-.59.249-1.095.58-1.444.32-.339.832-.646 1.472-.646h3.358c.194 0 .68 0 1.17.244.532.266.845.694 1.042 1.07l6.971 11.755L22.47 1.687c.216-.368.542-.786 1.074-1.042C24.029.41 24.502.41 24.7.41h3.354zM23.85 2.5l-8.374 14.118L7.103 2.5c-.225-.45-.45-.488-.826-.488H2.935c-.225 0-.45.225-.45.488v24.632c0 .263.225.45.45.45h3.154c.263 0 .45-.187.45-.45V9.334l7.097 11.677c.188.338.338.451.751.451h2.366c.375 0 .563-.113.75-.45L24.45 9.333v17.798c0 .263.226.45.45.45h3.155c.263 0 .45-.187.45-.45V2.5c0-.263-.187-.488-.45-.488h-3.342c-.375 0-.6.037-.863.488z" fill="#494949"/></svg>