<svg width="30" height="30" fill="none" xmlns="http://www.w3.org/2000/svg"><path d="M15 30c8.284 0 15-6.716 15-15 0-8.284-6.716-15-15-15C6.716 0 0 6.716 0 15c0 8.284 6.716 15 15 15z" fill="#1C1C1E"/><path d="M22.916 16.741c-.388-.472-.277-.682 0-1.105.005-.005 3.208-4.272 3.538-5.72h.002c.164-.528 0-.916-.793-.916h-2.624c-.668 0-.976.333-1.141.705 0 0-1.336 3.084-3.226 5.083-.61.577-.893.762-1.226.762-.164 0-.419-.185-.419-.712V9.915c0-.632-.187-.915-.74-.915h-4.126c-.419 0-.668.295-.668.57 0 .6.945.738 1.043 2.425v3.662c0 .802-.15.95-.486.95-.892 0-3.057-3.097-4.34-6.64C7.451 9.278 7.198 9 6.525 9H3.9c-.749 0-.9.333-.9.705 0 .658.892 3.927 4.148 8.247 2.17 2.95 5.226 4.547 8.006 4.547 1.672 0 1.875-.355 1.875-.965 0-2.818-.15-3.084.686-3.084.389 0 1.056.185 2.617 1.607 1.783 1.687 2.076 2.442 3.074 2.442h2.624c.748 0 1.127-.355.909-1.055-.5-1.472-3.871-4.501-4.023-4.704z" fill="#fff"/></svg>