<svg width="30" height="30" viewBox="0 0 30 30" fill="none" xmlns="http://www.w3.org/2000/svg">
<path d="M30.0003 15.0001C30.0003 6.71783 23.2824 0 15.0001 0C6.71783 0 0 6.71783 0 15.0001C0 22.4855 5.48442 28.6936 12.6564 29.8186V19.3361H8.84773V15.0001H12.6564V11.6954C12.6564 7.93659 14.8976 5.85942 18.3224 5.85942C19.9631 5.85942 21.6799 6.1524 21.6799 6.1524V9.84383H19.7873C17.924 9.84383 17.3439 11.0011 17.3439 12.1876V15.0001H21.5041L20.839 19.3361H17.3439V29.8186C24.5158 28.6936 30.0003 22.4885 30.0003 15.0001Z" fill="#1C1C1E"/>
<path d="M20.839 19.3358L21.504 14.9998H17.3438V12.1873C17.3438 11.0008 17.9239 9.84354 19.7872 9.84354H21.6798V6.1521C21.6798 6.1521 19.963 5.85913 18.3223 5.85913C14.8975 5.85913 12.6563 7.93337 12.6563 11.6951V14.9998H8.84766V19.3358H12.6563V29.8183C13.4209 29.9384 14.2032 30 15.0001 30C15.7969 30 16.5792 29.9355 17.3438 29.8183V19.3358H20.839Z" fill="white"/>
</svg>
