<svg width="30" height="30" viewBox="0 0 30 30" fill="none" xmlns="http://www.w3.org/2000/svg">
<path d="M15 30C23.2843 30 30 23.2843 30 15C30 6.71573 23.2843 0 15 0C6.71573 0 0 6.71573 0 15C0 23.2843 6.71573 30 15 30Z" fill="#1C1C1E"/>
<path d="M9.68756 15.0001C9.68756 14.0092 9.96057 13.0809 10.4349 12.2861V8.91467H7.06343C5.72532 10.6525 5 12.7705 5 15.0001C5 17.2297 5.72532 19.3477 7.06343 21.0855H10.4349V17.7141C9.96057 16.9193 9.68756 15.991 9.68756 15.0001Z" fill="white"/>
<path d="M15 20.3124L12.6562 22.6562L15 25C17.2297 25 19.3476 24.2747 21.0855 22.9366V19.5687H17.7176C16.9158 20.0447 15.9837 20.3124 15 20.3124Z" fill="white"/>
<path d="M10.4349 17.7135L7.06348 21.085C7.3284 21.429 7.61688 21.7585 7.92903 22.0707C9.81781 23.9594 12.3291 24.9997 15.0002 24.9997V20.3121C13.0617 20.3121 11.3628 19.2683 10.4349 17.7135Z" fill="white"/>
<path d="M25.0001 15.0004C25.0001 14.392 24.9451 13.7825 24.8364 13.1888L24.7484 12.7084H15V17.3959H19.7443C19.2836 18.3124 18.5752 19.0601 17.7175 19.5693L21.0854 22.9372C21.4295 22.6723 21.759 22.3838 22.0711 22.0716C23.9599 20.1828 25.0001 17.6716 25.0001 15.0004Z" fill="white"/>
<path d="M18.7566 11.2436L19.1709 11.6579L22.4855 8.34329L22.0712 7.92898C20.1824 6.04021 17.6712 5 15 5L12.6562 7.34378L15 9.68756C16.419 9.68756 17.7532 10.2401 18.7566 11.2436Z" fill="white"/>
<path d="M15.0002 9.68756V5C12.3291 5 9.81785 6.04021 7.92903 7.92894C7.61688 8.2411 7.3284 8.57059 7.06348 8.9147L10.4349 12.2861C11.3628 10.7313 13.0618 9.68756 15.0002 9.68756Z" fill="white"/>
</svg>
