<svg width="30" height="30" fill="none" xmlns="http://www.w3.org/2000/svg"><path d="M15 30c8.284 0 15-6.716 15-15 0-8.284-6.716-15-15-15C6.716 0 0 6.716 0 15c0 8.284 6.716 15 15 15z" fill="#1C1C1E"/><path d="M9.688 15c0-.99.273-1.92.747-2.714V8.915H7.063A9.925 9.925 0 005 15c0 2.23.725 4.348 2.063 6.085h3.372v-3.37A5.28 5.28 0 019.688 15zM15 20.312l-2.344 2.344L15 25c2.23 0 4.348-.725 6.085-2.063v-3.368h-3.367a5.312 5.312 0 01-2.718.743z" fill="#fff"/><path d="M10.435 17.713l-3.372 3.372c.265.344.554.674.866.986A9.935 9.935 0 0015 25v-4.688a5.315 5.315 0 01-4.565-2.599zM25 15c0-.608-.055-1.217-.164-1.811l-.088-.48H15v4.687h4.744a5.288 5.288 0 01-2.026 2.173l3.367 3.368c.345-.265.674-.553.986-.865A9.935 9.935 0 0025.001 15zm-6.243-3.756l.414.414 3.314-3.315-.414-.414A9.935 9.935 0 0015 5l-2.344 2.344L15 9.688c1.419 0 2.753.552 3.757 1.556z" fill="#fff"/><path d="M15 9.688V5a9.935 9.935 0 00-7.07 2.929c-.312.312-.6.642-.866.986l3.372 3.371A5.315 5.315 0 0115 9.688z" fill="#fff"/></svg>