<svg width="30" height="30" fill="none" xmlns="http://www.w3.org/2000/svg"><path d="M30 15c0-8.282-6.718-15-15-15S0 6.718 0 15c0 7.485 5.484 13.694 12.656 14.819V19.336H8.848V15h3.808v-3.305c0-3.758 2.242-5.836 5.666-5.836 1.641 0 3.358.293 3.358.293v3.692h-1.893c-1.863 0-2.443 1.157-2.443 2.344V15h4.16l-.665 4.336h-3.495V29.82C24.516 28.694 30 22.489 30 15z" fill="#1C1C1E"/><path d="M20.839 19.336L21.504 15h-4.16v-2.813c0-1.186.58-2.343 2.443-2.343h1.893V6.152s-1.717-.293-3.358-.293c-3.424 0-5.666 2.074-5.666 5.836V15H8.848v4.336h3.808v10.482a15.11 15.11 0 004.688 0V19.336h3.495z" fill="#fff"/></svg>