<svg width="30" height="30" viewBox="0 0 30 30" fill="none" xmlns="http://www.w3.org/2000/svg">
<path d="M15 30C23.2843 30 30 23.2843 30 15C30 6.71573 23.2843 0 15 0C6.71573 0 0 6.71573 0 15C0 23.2843 6.71573 30 15 30Z" fill="#1C1C1E"/>
<path d="M22.9157 16.7413C22.5277 16.2688 22.6387 16.0586 22.9157 15.6362C22.9207 15.6314 26.1238 11.3635 26.4538 9.91607L26.4558 9.91511C26.6198 9.38764 26.4558 9 25.6628 9H23.0387C22.3707 9 22.0627 9.33268 21.8977 9.70489C21.8977 9.70489 20.5616 12.7887 18.6715 14.7876C18.0615 15.3653 17.7795 15.5504 17.4465 15.5504C17.2825 15.5504 17.0275 15.3653 17.0275 14.8378V9.91511C17.0275 9.28254 16.8405 9 16.2875 9H12.1613C11.7423 9 11.4933 9.29507 11.4933 9.56989C11.4933 10.1697 12.4383 10.3076 12.5363 11.9951V15.6565C12.5363 16.4588 12.3853 16.6063 12.0503 16.6063C11.1583 16.6063 8.99321 13.51 7.71016 9.96621C7.45115 9.27868 7.19815 9.00096 6.52512 9.00096H3.90003C3.15101 9.00096 3 9.33364 3 9.70586C3 10.3635 3.89203 13.6334 7.14814 17.9534C9.31822 20.9022 12.3743 22.5 15.1544 22.5C16.8255 22.5 17.0295 22.1451 17.0295 21.5348C17.0295 18.7171 16.8785 18.451 17.7155 18.451C18.1035 18.451 18.7715 18.6361 20.3316 20.0584C22.1147 21.745 22.4077 22.5 23.4057 22.5H26.0298C26.7778 22.5 27.1568 22.1451 26.9388 21.4451C26.4398 19.9726 23.0677 16.9438 22.9157 16.7413Z" fill="white"/>
</svg>
