<svg width="30" height="30" viewBox="0 0 30 30" fill="none" xmlns="http://www.w3.org/2000/svg">
<path d="M15 30C23.2843 30 30 23.2843 30 15C30 6.71573 23.2843 0 15 0C6.71573 0 0 6.71573 0 15C0 23.2843 6.71573 30 15 30Z" fill="#1C1C1E"/>
<path d="M20.4272 24.4164H17.1344V8.13045H15.6675C12.9787 8.13045 11.5702 9.47485 11.5702 11.4817C11.5702 13.7586 12.5417 14.8135 14.5513 16.1579L16.2075 17.2741L11.4478 24.4136H7.90723L12.191 18.0395C9.7276 16.2804 8.34144 14.563 8.34144 11.6654C8.34144 8.04416 10.866 5.58081 15.6452 5.58081H20.4049V24.4108H20.4272V24.4164Z" fill="white"/>
</svg>
