<svg width="15" height="14" viewBox="0 0 15 14" fill="none" xmlns="http://www.w3.org/2000/svg">
<path d="M6.89523 1.16263C7.19125 0.635894 7.95152 0.635894 8.24754 1.16263L9.82404 3.96785C9.93698 4.16882 10.1339 4.30907 10.3612 4.35038L13.5635 4.93232C14.1735 5.04317 14.4125 5.78781 13.9805 6.23125L11.7668 8.50344C11.6014 8.67329 11.5231 8.90941 11.5545 9.14414L11.9718 12.2653C12.0526 12.8694 11.4333 13.3247 10.8785 13.0691L7.89644 11.6954C7.69021 11.6004 7.45256 11.6004 7.24633 11.6954L4.26427 13.0691C3.70949 13.3247 3.09016 12.8694 3.17092 12.2653L3.58827 9.14414C3.61966 8.90941 3.5414 8.67329 3.37592 8.50344L1.16226 6.23125C0.73024 5.78781 0.969281 5.04317 1.57923 4.93232L4.78154 4.35038C5.00883 4.30907 5.20579 4.16882 5.31873 3.96785L6.89523 1.16263Z" fill="#013F7D"/>
</svg>
