<svg width="50" height="16" viewBox="0 0 50 16" fill="none" xmlns="http://www.w3.org/2000/svg">
<path d="M18.8091 0.282803L12.323 15.758H8.09132L4.89949 3.40911C4.7057 2.64843 4.53824 2.36976 3.94787 2.04928C2.98567 1.52729 1.39672 1.03754 0 0.733324L0.0949551 0.283576H6.90696C7.77524 0.283576 8.55578 0.861567 8.75292 1.86144L10.4386 10.8151L14.6048 0.282286H18.8107L18.8091 0.282803ZM35.3897 10.7055C35.4067 6.62108 29.7419 6.39634 29.7809 4.57154C29.793 4.01626 30.3227 3.42588 31.479 3.27519C32.0526 3.2001 33.633 3.14282 35.4268 3.96775L36.13 0.686104C35.1667 0.336472 33.9274 0 32.3854 0C28.4285 0 25.6439 2.10347 25.6204 5.11547C25.5946 7.34331 27.6072 8.5865 29.1247 9.3268C30.685 10.0849 31.2085 10.5721 31.2026 11.2502C31.1915 12.2882 29.9581 12.7467 28.8055 12.7645C26.7929 12.7955 25.6258 12.2201 24.6951 11.7874L23.9695 15.1777C24.9049 15.6068 26.6313 15.9812 28.4213 16C32.6272 16 35.3781 13.9226 35.391 10.7055H35.3897ZM45.8397 15.758H49.5421L46.3085 0.282803H42.8917C42.5267 0.279657 42.1693 0.386208 41.8656 0.588645C41.5619 0.791081 41.3261 1.08007 41.1887 1.41814L35.1814 15.758H39.385L40.219 13.4465H45.3551L45.8397 15.758ZM41.3729 10.2748L43.48 4.46446L44.6927 10.2748H41.3729ZM24.5289 0.282803L21.2186 15.758H17.2155L20.5271 0.282803H24.5289Z" fill="white"/>
</svg>
