<svg width="50" height="16" fill="none" xmlns="http://www.w3.org/2000/svg"><path d="M18.81.283l-6.487 15.475H8.091L4.9 3.409c-.193-.76-.36-1.04-.951-1.36C2.986 1.527 1.397 1.038 0 .733l.095-.45h6.812c.868 0 1.649.579 1.846 1.578l1.686 8.954L14.605.282h4.206-.002zm16.58 10.423c.017-4.085-5.648-4.31-5.61-6.134.013-.556.543-1.146 1.699-1.297.574-.075 2.154-.132 3.948.693L36.13.686C35.167.336 33.927 0 32.385 0c-3.956 0-6.741 2.103-6.765 5.115-.025 2.228 1.987 3.471 3.505 4.212 1.56.758 2.084 1.245 2.078 1.923-.011 1.038-1.245 1.497-2.398 1.514-2.012.032-3.18-.544-4.11-.977l-.726 3.39c.936.43 2.662.804 4.452.823 4.206 0 6.957-2.077 6.97-5.294h-.001zm10.45 5.052h3.702L46.31.283h-3.417a1.822 1.822 0 00-1.703 1.135l-6.008 14.34h4.204l.834-2.311h5.136l.485 2.311zm-4.467-5.483l2.107-5.81 1.213 5.81h-3.32zM24.529.283l-3.31 15.475h-4.004L20.527.283h4.002z" fill="#fff"/></svg>