<svg width="118" height="10" viewBox="0 0 118 10" fill="none" xmlns="http://www.w3.org/2000/svg">
<path d="M5.01015 4.8301L9.29593 10H6.27352L2.427 5.42927V10H0V0.258362H2.427V4.67311H2.45521L5.50583 0.258362H8.15951L5.00914 4.8301H5.01015Z" fill="black"/>
<path d="M33.5496 10H31.1659V6.30467H26.1839V10H23.7852V0.258362H26.1839V4.49723H31.1659V0.258362H33.5496V10Z" fill="black"/>
<path d="M55.4763 5.07154C55.4763 6.78557 54.1988 8.02961 52.4387 8.02961C50.6787 8.02961 49.373 6.8283 49.373 5.05862C49.373 3.28895 50.5659 2.07373 52.4115 2.07373C54.2572 2.07373 55.4904 3.24424 55.4763 5.07254V5.07154ZM57.9728 5.0149C57.9728 2.187 55.5468 0 52.4246 0C49.3025 0 46.8755 2.187 46.8755 5.0149C46.8755 7.84281 49.2884 10 52.3823 10C55.4763 10 57.9718 7.84181 57.9718 5.0149H57.9728Z" fill="black"/>
<path d="M103.432 5.07154C103.432 6.78557 102.154 8.02961 100.394 8.02961C98.6343 8.02961 97.3286 6.8283 97.3286 5.05862C97.3286 3.28895 98.5214 2.07373 100.367 2.07373C102.213 2.07373 103.446 3.24424 103.432 5.07254V5.07154ZM105.928 5.0149C105.928 2.187 103.502 0 100.38 0C97.258 0 94.8311 2.187 94.8311 5.0149C94.8311 7.84281 97.2439 10 100.338 10C103.432 10 105.927 7.84181 105.927 5.0149H105.928Z" fill="black"/>
<path d="M44.534 2.07275H39.5954V10.001H37.1553V0.258362H44.535V2.07275H44.534Z" fill="black"/>
<path d="M67.3888 8.04552L68.1806 9.96623H70.7688L66.4841 0.258362H63.6974L59.8096 9.96723H62.3544L63.0768 8.04652L63.7125 6.35236L65.127 2.59441L66.6825 6.35236L67.3898 8.04652L67.3888 8.04552Z" fill="black"/>
<path d="M20.3044 5C20.3044 7.91435 18.1615 10 15.2207 10C13.4838 10 12.0552 9.39189 11.1313 8.27305L12.574 6.94754C13.2601 7.70767 14.1004 8.0942 15.1088 8.0942C16.5515 8.0942 17.6154 7.18303 17.9096 5.80087H13.9321V4.08784H17.8814C17.559 2.76232 16.5092 1.9058 15.1088 1.9058C14.1004 1.9058 13.2601 2.29233 12.574 3.05246L11.1313 1.72695C12.0552 0.608108 13.4838 0 15.2207 0C18.1615 0 20.3044 2.08565 20.3044 5Z" fill="#231F20"/>
<path d="M72.6055 5C72.6055 2.08565 74.8743 0 77.9269 0C79.6215 0 81.036 0.608108 81.9598 1.71304L80.503 3.03855C79.8452 2.29233 79.019 1.9058 78.0388 1.9058C76.2042 1.9058 74.9015 3.17667 74.9015 5C74.9015 6.82333 76.2042 8.0942 78.0388 8.0942C79.019 8.0942 79.8452 7.70767 80.503 6.94754L81.9598 8.27305C81.035 9.39189 79.6215 10 77.9128 10C74.8743 10 72.6055 7.91435 72.6055 5Z" fill="#231F20"/>
<path d="M92.39 0.258362H90.1182H87.6358H87.4655H84.4038V2.07275H87.4655V10H89.9066V2.07275H90.1182H92.39H92.9834V0.258362H92.39Z" fill="#231F20"/>
<path d="M118 3.79274C118 5.96385 116.349 7.3142 113.71 7.3142H111.721V10H109.435V0.258362H113.71C116.349 0.258362 118 1.60872 118 3.79374V3.79274ZM115.686 3.79274C115.686 2.7206 114.981 2.09461 113.583 2.09461H111.721V5.47597H113.583C114.981 5.47597 115.686 4.84998 115.686 3.79175V3.79274Z" fill="#231F20"/>
</svg>
