<svg width="118" height="10" fill="none" xmlns="http://www.w3.org/2000/svg"><path d="M5.01 4.83L9.296 10H6.274L2.427 5.43V10H0V.258h2.427v4.415h.028L5.505.258H8.16L5.01 4.83zM33.55 10h-2.384V6.305h-4.982V10h-2.399V.258h2.399v4.24h4.982V.257h2.384V10zm21.926-4.928c0 1.714-1.277 2.958-3.037 2.958s-3.066-1.202-3.066-2.971c0-1.77 1.193-2.985 3.038-2.985 1.846 0 3.08 1.17 3.065 2.999v-.001zm2.497-.057C57.973 2.187 55.547 0 52.425 0s-5.55 2.187-5.55 5.015S49.288 10 52.383 10s5.59-2.158 5.59-4.985zm45.459.057c0 1.714-1.278 2.958-3.038 2.958-1.76 0-3.065-1.202-3.065-2.971 0-1.77 1.192-2.985 3.038-2.985 1.846 0 3.079 1.17 3.065 2.999v-.001zm2.496-.057c0-2.828-2.426-5.015-5.548-5.015s-5.549 2.187-5.549 5.015S97.244 10 100.338 10s5.589-2.158 5.589-4.985h.001zM44.534 2.073h-4.939V10h-2.44V.258h7.38v1.815h-.001zm22.855 5.973l.792 1.92h2.588L66.484.258h-2.787l-3.887 9.71h2.544l.723-1.921.636-1.695 1.414-3.758 1.556 3.758.707 1.695-.001-.001z" fill="#000"/><path d="M20.304 5c0 2.914-2.142 5-5.083 5-1.737 0-3.166-.608-4.09-1.727l1.443-1.325c.686.76 1.526 1.146 2.535 1.146 1.443 0 2.506-.911 2.8-2.293h-3.977V4.088h3.95c-.323-1.326-1.373-2.182-2.773-2.182-1.009 0-1.849.386-2.535 1.146l-1.443-1.325C12.055.608 13.484 0 15.221 0c2.94 0 5.083 2.086 5.083 5zm52.302 0c0-2.914 2.268-5 5.32-5 1.695 0 3.11.608 4.034 1.713l-1.457 1.326c-.658-.747-1.484-1.133-2.464-1.133-1.835 0-3.138 1.27-3.138 3.094 0 1.823 1.303 3.094 3.138 3.094.98 0 1.806-.386 2.464-1.146l1.457 1.325C81.035 9.392 79.622 10 77.913 10c-3.039 0-5.307-2.086-5.307-5zM92.39.258h-7.986v1.815h3.062V10h2.44V2.073h3.077V.258h-.593zM118 3.793c0 2.17-1.651 3.521-4.29 3.521h-1.989V10h-2.286V.258h4.275c2.639 0 4.29 1.35 4.29 3.536v-.001zm-2.314 0c0-1.072-.705-1.698-2.103-1.698h-1.862v3.381h1.862c1.398 0 2.103-.626 2.103-1.684z" fill="#231F20"/></svg>